<svg xmlns="http://www.w3.org/2000/svg" xmlns:xlink="http://www.w3.org/1999/xlink" width="1329.008" height="696.843" viewBox="0 0 1329.008 696.843"><defs><clipPath id="a"><path d="M0,751.992H1329.008V403.57H0Z" transform="translate(0 -403.57)" fill="#b2ebf2"/></clipPath><clipPath id="b"><path d="M0,403.57H1329.008V751.992H0Z" transform="translate(0 -403.57)" fill="#b2ebf2"/></clipPath></defs><g transform="translate(-136 -7621.971)"><g transform="translate(136 7621.971)" clip-path="url(#a)"><path d="M1430.11,950.028c197.09,103.89,414.448,163.594,634.328,91.793,436.171-142.43,435.689-110.969,435.689-110.969v661.841H1053.877V869.038S1205.652,831.713,1430.11,950.028Z" transform="translate(-1080.773 -811.035)" fill="#81d4fa" opacity="0.2"/></g><g transform="translate(136 7970.393)" clip-path="url(#b)"><path d="M1430.11,1506.118c197.09-103.89,414.448-163.594,634.328-91.793,436.171,142.43,435.689,110.969,435.689,110.969V863.452H1053.877v723.655S1205.652,1624.433,1430.11,1506.118Z" transform="translate(-1080.773 -1296.69)" fill="#81d4fa" opacity="0.2"/></g></g></svg>