<svg xmlns="http://www.w3.org/2000/svg" width="85" height="85" viewBox="0 0 85 85"><g transform="translate(-705.162 -936)"><circle cx="42.5" cy="42.5" r="42.5" transform="translate(705.162 936)" fill="#00bcd4"/><g transform="translate(122.543 -391.851)"><path d="M650.03,1351.335a2.587,2.587,0,0,0-2.668-2.594c-1.327-.064-2.654-.144-3.976-.3a44.667,44.667,0,0,1-12.822-3.4c-1.414-.618-2.7-1.48-4.137-2.044h-.887a6.471,6.471,0,0,0-.795.334,39.582,39.582,0,0,1-9.432,3.849c-.594.165-.855.552-.737,1.039s.575.71,1.194.544a39.062,39.062,0,0,0,9.447-3.808,1.348,1.348,0,0,1,1.531,0,36.68,36.68,0,0,0,7.221,3.155,48.968,48.968,0,0,0,13.313,2.291c.718.028,1.02.28,1.073.921.089,1.086.18,2.172.229,3.259a68.594,68.594,0,0,1-.645,13.255,48.765,48.765,0,0,1-3.675,12.983,31.426,31.426,0,0,1-17.645,17.082,1.487,1.487,0,0,1-1.167.048,31.1,31.1,0,0,1-16.755-15.089c-3.538-6.789-4.934-14.113-5.32-21.68a68.318,68.318,0,0,1,.215-9.684c.075-.817.3-1.06,1.135-1.1a49.943,49.943,0,0,0,6.931-.732.822.822,0,0,0,.758-.964.841.841,0,0,0-1.043-.658,57.437,57.437,0,0,1-7.045.712,2.428,2.428,0,0,0-2.29,1.976,17.217,17.217,0,0,0-.208,1.924,72.811,72.811,0,0,0,.09,11.509,55.185,55.185,0,0,0,3.243,14.861c3.651,9.591,9.952,16.646,19.642,20.447a3.057,3.057,0,0,0,2.356,0c8.832-3.461,14.96-9.695,18.762-18.3a51.887,51.887,0,0,0,3.9-14.914A72.679,72.679,0,0,0,650.03,1351.335Z" transform="translate(0 0)" fill="#fff"/><path d="M613.022,1361.618c-.145,1.785-.264,3.572-.237,5.092a60.071,60.071,0,0,0,.325,6.576,44.151,44.151,0,0,0,3.113,12.729c3,7.079,7.855,12.305,15.112,15.138a2.479,2.479,0,0,0,1.882.021,26.319,26.319,0,0,0,6.362-3.519,27.79,27.79,0,0,0,9.22-12.729c2.856-7.575,3.413-15.437,2.752-23.431a2.127,2.127,0,0,0-2.077-2c-1.214-.095-2.431-.136-3.642-.29a32.315,32.315,0,0,1-12.187-3.861,2.477,2.477,0,0,0-2.709.012,26.7,26.7,0,0,1-5.19,2.3,38.468,38.468,0,0,1-10.588,1.845A2.143,2.143,0,0,0,613.022,1361.618Zm6.678-.857a33.938,33.938,0,0,0,12-3.93,1.044,1.044,0,0,1,1.17-.01,34.24,34.24,0,0,0,12.77,4.038c1.192.151,2.389.22,3.587.278a.635.635,0,0,1,.689.683c.132,1.731.247,3.462.226,5.2a48.846,48.846,0,0,1-2.889,17.308,25.779,25.779,0,0,1-10.2,13.065,24.616,24.616,0,0,1-4.333,2.186,1.076,1.076,0,0,1-.846,0,24.251,24.251,0,0,1-13.109-12.011A39.247,39.247,0,0,1,615,1375.037a58.5,58.5,0,0,1-.425-11.99c.025-.386.089-.772.094-1.158a.662.662,0,0,1,.734-.757A40.728,40.728,0,0,0,619.7,1360.761Z" transform="translate(-6.311 -6.773)" fill="#fff"/><path d="M643.23,1402.308a11.315,11.315,0,0,0,8.567-4.55c.529-.665.561-1.149.133-1.5-.459-.375-.889-.221-1.449.49a9.767,9.767,0,0,1-6.8,3.838,10.013,10.013,0,1,1,8.612-12.269,10.355,10.355,0,0,1-.043,4.825.809.809,0,0,0,.323.923.793.793,0,0,0,.886.034c.34-.178.392-.519.467-.839a11.686,11.686,0,1,0-23.01-1.42C631.462,1397.709,636.6,1402.334,643.23,1402.308Z" transform="translate(-16.562 -20.372)" fill="#fff"/><path d="M651.042,1393.426c-1.042,1.124-2.077,2.253-3.119,3.377-.3.325-.583.863-.922.9-.4.048-.68-.531-1.013-.836a2.6,2.6,0,1,0-3.629,3.712c.956.95,1.935,1.877,2.9,2.813a2.593,2.593,0,0,0,3.8-.168c1.939-2.105,3.89-4.2,5.821-6.31a2.6,2.6,0,1,0-3.84-3.492Zm2.632,2.351c-.9,1-1.826,1.983-2.74,2.974-1,1.086-2,2.175-3.005,3.256a.99.99,0,0,1-1.655.054q-1.38-1.322-2.748-2.656a.9.9,0,0,1-.247-1.059.922.922,0,0,1,.795-.586,1.165,1.165,0,0,1,.843.382c.463.451.921.907,1.39,1.351a.862.862,0,0,0,1.427-.046c1.509-1.622,3.007-3.254,4.515-4.878a.9.9,0,0,1,1.359-.19A.881.881,0,0,1,653.674,1395.777Z" transform="translate(-22.609 -28.045)" fill="#fff"/></g></g></svg>