<svg xmlns="http://www.w3.org/2000/svg" width="85" height="85" viewBox="0 0 85 85"><g transform="translate(-1020.162 -936)"><circle cx="42.5" cy="42.5" r="42.5" transform="translate(1020.162 936)" fill="#00bcd4"/><g transform="translate(572.627 -573.303)"><path d="M489.794,1522.442a29.362,29.362,0,1,0,29.6,29.345A29.371,29.371,0,0,0,489.794,1522.442Zm.183,57.037a27.68,27.68,0,1,1,27.739-27.631A27.661,27.661,0,0,1,489.977,1579.479Z" fill="#fff"/><path d="M495.024,1532.571a24.328,24.328,0,1,0,24.443,24.378A24.272,24.272,0,0,0,495.024,1532.571Zm-.307,46.991a22.663,22.663,0,1,1,23.064-22.073A22.7,22.7,0,0,1,494.717,1579.561Z" transform="translate(-5.088 -5.097)" fill="#fff"/><path d="M515.052,1561.668q0-.969,0-1.939c0-1.414.006-2.828,0-4.242a.867.867,0,0,0-.847-.975c-.495,0-.818.385-.836.987,0,.142,0,.283,0,.424,0,3.676-.007,7.353.009,11.028a1.384,1.384,0,0,1-.447,1.107c-1.277,1.237-2.524,2.5-3.779,3.762-.5.5-.571.995-.2,1.367s.868.325,1.368-.173c1.416-1.411,2.82-2.836,4.248-4.236a1.567,1.567,0,0,0,.5-1.234C515.04,1565.587,515.052,1563.627,515.052,1561.668Z" transform="translate(-24.174 -16.138)" fill="#fff"/><path d="M518.893,1541.986a.792.792,0,0,0-.812.8,6.377,6.377,0,0,0,0,.722,7.481,7.481,0,0,0,0,.782.787.787,0,0,0,.827.784.77.77,0,0,0,.837-.77,9.343,9.343,0,0,0,0-1.564A.768.768,0,0,0,518.893,1541.986Z" transform="translate(-28.881 -9.834)" fill="#fff"/><path d="M482.547,1579.842a9.6,9.6,0,0,0-1.565,0,.769.769,0,0,0-.764.841.793.793,0,0,0,.789.822,5.937,5.937,0,0,0,.722.005,7.576,7.576,0,0,0,.783,0,.793.793,0,0,0,.795-.82A.77.77,0,0,0,482.547,1579.842Z" transform="translate(-9.836 -28.868)" fill="#fff"/><path d="M555.42,1579.842a10.02,10.02,0,0,0-1.564,0,.763.763,0,0,0-.744.8.788.788,0,0,0,.753.856,5.922,5.922,0,0,0,.782.006v0a5.867,5.867,0,0,0,.782-.006.79.79,0,0,0,.772-.838A.772.772,0,0,0,555.42,1579.842Z" transform="translate(-46.515 -28.869)" fill="#fff"/><path d="M519.739,1615.674a.79.79,0,0,0-.821-.792.768.768,0,0,0-.844.762,9.555,9.555,0,0,0,0,1.564.768.768,0,0,0,.842.762.792.792,0,0,0,.821-.791,6.142,6.142,0,0,0,.005-.722A7.741,7.741,0,0,0,519.739,1615.674Z" transform="translate(-28.869 -46.515)" fill="#fff"/><path d="M493.088,1604.644c-.08.017-.226.007-.311.073a5.525,5.525,0,0,0-1.418,1.453.709.709,0,0,0,.2.926.725.725,0,0,0,.944.11,5.548,5.548,0,0,0,1.32-1.313A.818.818,0,0,0,493.088,1604.644Z" transform="translate(-15.392 -41.364)" fill="#fff"/><path d="M544.011,1604.7a.721.721,0,0,0-.97.235.747.747,0,0,0-.015,1,13.191,13.191,0,0,0,1.191,1.194.72.72,0,0,0,.849.074.871.871,0,0,0,.473-.756.956.956,0,0,0-.089-.316A5.011,5.011,0,0,0,544.011,1604.7Z" transform="translate(-41.347 -41.34)" fill="#fff"/><path d="M492.672,1555.583a.731.731,0,0,0,.852.06.8.8,0,0,0,.445-.767.782.782,0,0,0-.077-.316,5.4,5.4,0,0,0-1.451-1.419.712.712,0,0,0-.927.206.731.731,0,0,0-.071,1A12.136,12.136,0,0,0,492.672,1555.583Z" transform="translate(-15.401 -15.399)" fill="#fff"/><path d="M544.277,1555.5c.34-.313.656-.653.985-.978a.944.944,0,0,0,.259-.582.829.829,0,0,0-.44-.753.783.783,0,0,0-.951.115c-.353.329-.7.668-1.024,1.023a.814.814,0,0,0-.018,1.186A.8.8,0,0,0,544.277,1555.5Z" transform="translate(-41.347 -15.414)" fill="#fff"/></g></g></svg>