<svg xmlns="http://www.w3.org/2000/svg" width="400" height="203" viewBox="0 0 400 203"><rect width="400" height="203" fill="none"/><g transform="translate(21.355 3.733)"><path d="M324.579,207.884c.434-7.773,12.387-14,27.1-14s26.666,6.231,27.1,14c.006.143.04.286.04.432,0,7.974-12.151,14.437-27.14,14.437s-27.144-6.463-27.144-14.437C324.539,208.17,324.573,208.027,324.579,207.884Z" transform="translate(-19.471 -100.232)" fill="#80c6ff" opacity="0.5"/><path d="M345.331,337.086c.4-7.186,11.449-12.947,25.056-12.947s24.65,5.762,25.052,12.947c.006.133.038.263.038.4,0,7.371-11.235,13.345-25.09,13.345s-25.094-5.974-25.094-13.345C345.293,337.35,345.325,337.219,345.331,337.086Z" transform="translate(-159.532 -162.549)" fill="#80c6ff" opacity="0.5"/><path d="M324.08,327.97c.261-4.7,7.493-8.475,16.4-8.475s16.137,3.771,16.4,8.475c.006.088.025.173.025.261,0,4.826-7.352,8.736-16.423,8.736s-16.425-3.91-16.425-8.736C324.055,328.143,324.074,328.058,324.08,327.97Z" transform="translate(-40.5 -154.014)" fill="#80c6ff" opacity="0.5"/><path d="M304.95,325.222c.263-4.7,7.5-8.475,16.4-8.475s16.137,3.771,16.4,8.475c0,.086.025.173.025.261,0,4.826-7.354,8.736-16.425,8.736s-16.425-3.91-16.425-8.736C304.925,325.395,304.946,325.308,304.95,325.222Z" transform="translate(18.927 -157.055)" fill="#80c6ff" opacity="0.5"/><path d="M328.492,319.977c.263-4.71,7.5-8.485,16.421-8.485s16.156,3.775,16.419,8.485c0,.089.025.173.025.261,0,4.833-7.363,8.747-16.444,8.747s-16.446-3.914-16.446-8.747C328.467,320.15,328.488,320.066,328.492,319.977Z" transform="translate(-54.249 -162.871)" fill="#80c6ff" opacity="0.5"/><path d="M305.187,250.295l31.467-18.17a14.514,14.514,0,0,1,5.831-1.727l-26.223-15.14c-3.811-2.2-4.23-5.559-.929-7.466h0c3.3-1.906,9.12-1.664,12.93.535l31.467,18.168c3.811,2.2,4.23,5.561.929,7.466-2.265,1.308-5.711,1.582-8.886.927-.025,1.454-1.057,2.979-3.118,4.169l-31.467,18.167c-3.811,2.2-9.629,2.442-12.93.535S301.376,252.494,305.187,250.295Z" transform="translate(-66.088 -138.633)" fill="#80c6ff" opacity="0.5"/><g transform="translate(0)"><g transform="translate(0 64.02)"><g transform="translate(12.568 9.418)"><path d="M406.226,267.409c2.224.731,3.333,1.23,3.333,1.23s-.232-12.907-1.184-18.257c-.312-1.763,8.118-1.83,8.118-1.83.3,1.234.567,12.085,0,18.689a19.286,19.286,0,0,0,.093,4.735c-.575.249-1.759.765-2.642,1.167-1.205.546-3.177.546-5.589-.659s-4.7-2.68-3.969-4.055A2.439,2.439,0,0,1,406.226,267.409Z" transform="translate(-399.051 -248.552)" fill="#ffc5b3"/><path d="M410.258,258.544c.4.124.763.242,1.108.356a2.439,2.439,0,0,0-1.841,1.02c-.733,1.375,1.557,2.85,3.969,4.055s4.384,1.205,5.589.659c.883-.4,2.067-.918,2.642-1.167.244,1.611.583,2.359.1,3.512-.807,1.919-2.665,1.74-6.421.388a32.339,32.339,0,0,1-8.455-4.31c-2.37-1.755-2.393-1.988-2.707-3.174C403.8,258.225,406.228,257.294,410.258,258.544Z" transform="translate(-404.191 -240.044)" fill="#33211f"/></g><g transform="translate(0 7.453)"><path d="M412.882,273.025c2.224.733,3.333,1.23,3.333,1.23s-1.194-20.861-2.144-26.211c-.314-1.763,8.721,1.493,8.721,1.493a185.426,185.426,0,0,1,.356,23.323,19.37,19.37,0,0,0,.093,4.733c-.575.249-1.759.765-2.642,1.167-1.205.548-3.177.548-5.589-.659s-4.7-2.679-3.969-4.055A2.445,2.445,0,0,1,412.882,273.025Z" transform="translate(-405.707 -247.52)" fill="#ffc5b3"/><path d="M416.86,261.006c.4.124.763.242,1.108.354a2.445,2.445,0,0,0-1.841,1.02c-.733,1.376,1.557,2.85,3.969,4.055s4.384,1.207,5.589.659c.883-.4,2.067-.918,2.642-1.167.244,1.612.583,2.359.1,3.512-.805,1.919-2.665,1.74-6.421.388a32.345,32.345,0,0,1-8.455-4.31c-2.37-1.753-2.395-1.986-2.707-3.174C410.406,260.684,412.83,259.753,416.86,261.006Z" transform="translate(-410.793 -235.856)" fill="#33211f"/></g><path d="M416.3,252.69s-.1,15.79.031,16.641,0,4.8,0,4.8-3.126,2.77-6.317.933a29.607,29.607,0,0,1-5.4-4.013l1.8-27.445Z" transform="translate(-386.727 -243.605)" fill="#33211f"/><path d="M422.23,255.9s-.1,15.79.032,16.641,0,4.8,0,4.8-3.128,2.768-6.319.933a29.645,29.645,0,0,1-5.4-4.015l1.354-29.167Z" transform="translate(-403.954 -242.264)" fill="#33211f"/></g><g transform="translate(9.045 27.885)"><path d="M410.511,354.118l83.282-48.083c8.925-5.152,7.8-14.234-2.509-20.184L446.332,259.9c-10.305-5.949-26.036-6.6-34.961-1.449l-83.282,48.083c-8.925,5.152-7.8,14.236,2.509,20.186L375.55,352.67C385.855,358.619,401.586,359.27,410.511,354.118Z" transform="translate(-322.068 -197.196)" fill="#81d4fa"/><path d="M410.511,352l83.282-48.083c8.925-5.152,7.8-14.234-2.509-20.184l-44.951-25.954c-10.305-5.949-26.036-6.6-34.961-1.449l-83.282,48.083c-8.925,5.152-7.8,14.234,2.509,20.186l44.951,25.952C385.855,356.5,401.586,357.149,410.511,352Z" transform="translate(-322.068 -199.113)" fill="#00bcd4"/><path d="M499.711,253.6v44.888L322.069,316.21V272.666Z" transform="translate(-321.966 -198.441)" fill="#00bcd4"/><path d="M499.711,246.783v12.97l-177.642,19.07V264.585Z" transform="translate(-321.966 -204.598)" fill="#d1bdbd"/><path d="M410.511,330.948l83.282-48.083c8.925-5.152,7.8-14.234-2.509-20.184L446.332,236.73c-10.305-5.951-26.036-6.6-34.961-1.451l-83.282,48.083c-8.925,5.153-7.8,14.236,2.509,20.186L375.55,329.5C385.855,335.449,401.586,336.1,410.511,330.948Z" transform="translate(-322.068 -218.136)" fill="#493231"/><path d="M410.511,328.95l83.282-48.083c8.925-5.152,7.8-14.234-2.509-20.184l-44.951-25.954c-10.305-5.947-26.036-6.6-34.961-1.449l-83.282,48.083c-8.925,5.154-7.8,14.236,2.509,20.186L375.55,327.5C385.855,333.451,401.586,334.1,410.511,328.95Z" transform="translate(-322.068 -219.942)" fill="#d1bdbd"/><path d="M410.511,323.769l83.282-48.083c8.925-5.153,7.8-14.236-2.509-20.186l-44.951-25.952c-10.305-5.949-26.036-6.6-34.961-1.449l-83.282,48.083c-8.925,5.152-7.8,14.234,2.509,20.184l44.951,25.954C385.855,328.27,401.586,328.921,410.511,323.769Z" transform="translate(-322.068 -224.624)" fill="#e8d6d6"/><path d="M348.606,258.743c0,11.27,17.17,20.4,38.353,20.4s38.349-9.128,38.349-20.4-17.17-20.4-38.349-20.4S348.606,247.476,348.606,258.743Z" transform="translate(-298.084 -212.223)" fill="#81d4fa"/><g transform="translate(14.661 97.326)"><path d="M394.715,311.178l-4.062,2.345V286.718l4.062-2.345Z" transform="translate(-362.2 -267.953)" fill="#e8d6d6"/><path d="M407.671,303.7l-4.062,2.345V279.235l4.062-2.345Z" transform="translate(-399.823 -274.715)" fill="#e8d6d6"/><path d="M396.574,279.164v21.652l20.871,12.05V291.215l3.787,2.186v26.805l-28.446-16.423V276.978Z" transform="translate(-392.779 -274.636)" fill="#d1bdbd"/><path d="M415.655,302.712l-20.879-12.07,4.062-2.43,16.817,9.722Z" transform="translate(-390.989 -264.482)" fill="#fff"/><path d="M390.653,285.566l3.787,2.186,4.062-2.338-3.787-2.186Z" transform="translate(-365.987 -268.987)" fill="#fff"/><path d="M403.61,278.086l3.787,2.187,4.062-2.339-3.787-2.186Z" transform="translate(-403.61 -275.747)" fill="#fff"/></g><g transform="translate(65.509 30.994)"><path d="M393.2,267.126l7.224-4.171L363.7,241.749l-7.224,4.171Z" transform="translate(-353.687 -240.141)" fill="#fff"/><path d="M404.534,251.635l-3.612-6.256-45.912,5.3,3.612,6.256Z" transform="translate(-355.009 -236.861)" fill="#fff"/><path d="M362.759,267.412l10.836,2.085,9.182-26.507L371.941,240.9Z" transform="translate(-348.006 -240.905)" fill="#fff"/></g></g><path d="M429.743,240.905c2.345.95,8.228,8.466,7.3,15.525s-8.1,12.879-19.253,14.183c-10.935,1.279-28.117-5.112-28.117-5.112s.148-1.852,7.659-5.824C406.441,254.863,429.743,240.905,429.743,240.905Z" transform="translate(-379.058 -182.025)" fill="#d1bdbd"/><g transform="translate(2.72)"><path d="M399.134,223.616c3.221,3.027,4.872,11.027-.367,15.6s-7.173-14.813-7.173-14.813C393.579,223.452,395.254,219.97,399.134,223.616Z" transform="translate(-350.43 -199.122)" fill="#649ff4"/><path d="M401.14,211.834c2.471-1.717,7.225-1.18,9.287,3.175,1.142,2.412-.47,8.9-.725,13.452a11.1,11.1,0,0,0,1.024,5.8l-3.151,1.3a9.514,9.514,0,0,1-6.435,0l.1-5.6s-2.33-.1-2.924-.64c-1.428-1.31-3.1-3.554-2.435-8.58C396.868,213.251,400.23,212.466,401.14,211.834Z" transform="translate(-367.004 -209.119)" fill="#ffc5b3"/><path d="M408.488,240.807a130.433,130.433,0,0,0,13.056,2.642V262.2c-.091-.013-.175-.019-.268-.034-8.984-1.365-18.739-6.45-22.245-8.79C397.593,246.069,398.227,237.961,408.488,240.807Z" transform="translate(-382.902 -182.641)" fill="#33211f"/><path d="M402.487,243.662c7.655,2.125,20.69,3.741,20.69,3.741s11.681-5.957,13.4-.847c3.122,9.306-1.26,13.264-5.846,15.807-2.545,1.413-4.872,4.405-13.871,3.038s-20.907-12.129-24.416-14.467C391.424,243.215,392.224,240.816,402.487,243.662Z" transform="translate(-386.899 -180.579)" fill="#33211f"/><path d="M405.527,242a7.414,7.414,0,0,0-1.584,6.44c.758,4.108.815,5.428.3,7.008s-.881,2.9,0,4.55a7.129,7.129,0,0,0,1.858,2.345s3.676-.693,6.041.426a59.734,59.734,0,0,0,8.047,2.621c2.429.723,4.811-13.871,4.811-13.871S408.965,241.943,405.527,242Z" transform="translate(-396.341 -181.039)" fill="#99c7ff"/><g transform="translate(2.553 30.102)"><path d="M406.95,237.341,426.8,225.884c.442-.255.8.017.8.607V242.34a1.933,1.933,0,0,1-.8,1.536L406.95,255.334c-.442.255-.8-.019-.8-.607V238.876A1.932,1.932,0,0,1,406.95,237.341Z" transform="translate(-406.147 -225.789)" fill="#2143af"/><path d="M417.759,242.223l-1.053-.6.965-.616Z" transform="translate(-416.409 -212.031)" fill="#2143af"/><path d="M407.188,226.427l-1.456,1.5.381-2.111Z" transform="translate(-384.946 -225.764)" fill="#2143af"/><path d="M406.379,237.665l19.845-11.457c.442-.255.8.019.8.607v15.851a1.932,1.932,0,0,1-.8,1.534l-19.845,11.457c-.442.257-.8-.017-.8-.607V239.2A1.933,1.933,0,0,1,406.379,237.665Z" transform="translate(-404.489 -225.496)" fill="#3371d3"/><path d="M426,241.95l-20.062,11.582V238.187L426,226.6Z" transform="translate(-404.159 -225.052)" fill="#33211f"/><path d="M413.208,237.613c.131-.076.24.006.24.183a.58.58,0,0,1-.24.459l-2.555,1.475c-.131.076-.24-.006-.24-.183a.58.58,0,0,1,.24-.459Z" transform="translate(-400.117 -215.129)" fill="#472e2c"/><path d="M424.487,241.625,406.5,252.012V238.025l17.99-10.386Z" transform="translate(-403.701 -224.117)" fill="#fff"/><g transform="translate(1.874 19.21)"><path d="M397.519,247.78l19.165-11.067a2.239,2.239,0,0,1,2,.084l14.655,8.462c.592.341.657.862.145,1.158l-19.165,11.065a2.233,2.233,0,0,1-2-.084l-14.657-8.46C397.072,248.595,397.007,248.075,397.519,247.78Z" transform="translate(-397.174 -235.305)" fill="#2143af"/><rect width="1.316" height="1.316" transform="translate(0.003 11.696)" fill="#2143af"/><rect width="1.316" height="1.316" transform="translate(35.344 9.356)" fill="#2143af"/><path d="M397.519,247.143l19.165-11.065a2.233,2.233,0,0,1,2,.084l14.655,8.46c.592.343.657.862.145,1.157l-19.165,11.065a2.232,2.232,0,0,1-2-.082L397.662,248.3C397.072,247.96,397.007,247.438,397.519,247.143Z" transform="translate(-397.174 -235.879)" fill="#3371d3"/><path d="M429.156,241.924,410.163,252.89l-9.637-5.564,18.993-10.966Z" transform="translate(-398.878 -235.445)" fill="#b9b8f1" opacity="0.5"/><path d="M411.4,243.686l-6.721,3.88-3.6-2.076,6.721-3.88Z" transform="translate(-382.189 -230.7)" fill="#b9b8f1" opacity="0.5"/><path d="M416.21,242.257l-1.326.765-.953-.55,1.326-.765Z" transform="translate(-411.452 -230.613)" fill="#2143af"/><path d="M415.483,242.677l-1.326.765-.953-.55,1.326-.765Z" transform="translate(-409.339 -230.233)" fill="#2143af"/><path d="M414.975,242.957l-1.79,1.033-.954-.55,1.79-1.033Z" transform="translate(-406.982 -229.981)" fill="#2143af"/><path d="M406.19,238.839l-.865.5-2.339-1.351.864-.5Z" transform="translate(-380.595 -234.425)" fill="#2143af"/><path d="M414.247,243.377l-1.79,1.033-.953-.55,1.79-1.033Z" transform="translate(-404.868 -229.601)" fill="#2143af"/><path d="M413.793,243.622l-2.366,1.366-.954-.551,2.366-1.366Z" transform="translate(-402.451 -229.379)" fill="#2143af"/><path d="M406.729,238.871,403.2,240.91l-.954-.551,3.532-2.039Z" transform="translate(-379.721 -233.673)" fill="#2143af"/><path d="M412.571,244.358l-1.326.765-.953-.55,1.326-.765Z" transform="translate(-400.884 -228.714)" fill="#2143af"/><path d="M415.34,241.754l-1.326.765-.953-.55,1.326-.766Z" transform="translate(-408.924 -231.067)" fill="#2143af"/><path d="M414.611,242.174l-1.326.765-.953-.55,1.326-.766Z" transform="translate(-406.81 -230.688)" fill="#2143af"/><path d="M414.46,241.246l-1.326.765-.953-.551,1.325-.765Z" transform="translate(-406.369 -231.526)" fill="#2143af"/><path d="M413.732,241.666l-1.325.765-.953-.551,1.326-.765Z" transform="translate(-404.256 -231.147)" fill="#2143af"/><path d="M413.589,240.744l-1.326.765-.953-.55,1.326-.766Z" transform="translate(-403.841 -231.981)" fill="#2143af"/><path d="M412.861,241.164l-1.326.765-.953-.55,1.326-.765Z" transform="translate(-401.727 -231.601)" fill="#2143af"/><path d="M412.712,240.237l-1.326.765-.953-.551,1.325-.765Z" transform="translate(-401.293 -232.439)" fill="#2143af"/><path d="M411.984,240.657l-1.326.765-.953-.551,1.326-.765Z" transform="translate(-399.179 -232.059)" fill="#2143af"/><path d="M411.841,239.734l-1.326.765-.953-.55,1.326-.765Z" transform="translate(-398.765 -232.893)" fill="#2143af"/><path d="M411.113,240.154l-1.326.765-.953-.551,1.326-.765Z" transform="translate(-396.651 -232.513)" fill="#2143af"/><path d="M410.961,239.226l-1.326.765-.954-.55,1.326-.766Z" transform="translate(-396.21 -233.352)" fill="#2143af"/><path d="M410.233,239.646l-1.325.765-.954-.55,1.326-.765Z" transform="translate(-394.096 -232.972)" fill="#2143af"/><path d="M413.618,242.441l-1.326.765-.953-.55,1.326-.765Z" transform="translate(-403.924 -230.447)" fill="#2143af"/><path d="M412.89,242.861l-1.326.765-.953-.55,1.326-.765Z" transform="translate(-401.81 -230.067)" fill="#2143af"/><path d="M412.738,241.933l-1.326.766-.953-.551,1.325-.765Z" transform="translate(-401.369 -230.906)" fill="#2143af"/><path d="M412.01,242.353l-1.326.766-.953-.55,1.326-.765Z" transform="translate(-399.255 -230.526)" fill="#2143af"/><path d="M411.867,241.43l-1.326.766-.953-.55,1.326-.765Z" transform="translate(-398.84 -231.36)" fill="#2143af"/><path d="M411.139,241.85l-1.326.765-.953-.55,1.326-.765Z" transform="translate(-396.727 -230.98)" fill="#2143af"/><path d="M410.99,240.924l-1.326.765-.953-.55,1.325-.766Z" transform="translate(-396.293 -231.818)" fill="#2143af"/><path d="M410.262,241.344l-1.326.765-.953-.55,1.326-.766Z" transform="translate(-394.179 -231.438)" fill="#2143af"/><path d="M410.119,240.421l-1.326.765-.953-.55,1.326-.765Z" transform="translate(-393.764 -232.272)" fill="#2143af"/><path d="M409.391,240.841l-1.326.766-.953-.551,1.326-.765Z" transform="translate(-391.65 -231.892)" fill="#2143af"/><path d="M409.239,239.913l-1.326.766-.953-.551,1.326-.765Z" transform="translate(-391.21 -232.731)" fill="#2143af"/><path d="M408.511,240.333l-1.326.765-.953-.55,1.326-.765Z" transform="translate(-389.096 -232.351)" fill="#2143af"/><path d="M408.365,239.408l-1.326.766-.953-.55,1.326-.766Z" transform="translate(-388.672 -233.187)" fill="#2143af"/><path d="M407.638,239.829l-1.326.766-.954-.551,1.326-.765Z" transform="translate(-386.559 -232.807)" fill="#2143af"/><path d="M411.816,243.082l-1.326.765-.953-.551,1.326-.765Z" transform="translate(-398.691 -229.868)" fill="#2143af"/><path d="M410.936,242.573l-1.326.766-.954-.55,1.326-.766Z" transform="translate(-396.136 -230.327)" fill="#2143af"/><path d="M410.065,242.071l-1.326.766-.954-.551,1.326-.766Z" transform="translate(-393.608 -230.781)" fill="#2143af"/><path d="M409.188,241.564l-1.326.765-.953-.55,1.326-.765Z" transform="translate(-391.06 -231.239)" fill="#2143af"/><path d="M408.317,241.062l-1.326.765-.953-.551,1.326-.765Z" transform="translate(-388.531 -231.693)" fill="#2143af"/><path d="M407.437,240.554l-1.326.766-.953-.551,1.326-.766Z" transform="translate(-385.977 -232.152)" fill="#2143af"/><path d="M406.563,240.049l-1.326.765-.953-.55,1.326-.765Z" transform="translate(-383.44 -232.608)" fill="#2143af"/><path d="M407.486,238.9l-1.325.765-.954-.55,1.326-.766Z" transform="translate(-386.118 -233.646)" fill="#2143af"/><path d="M406.757,239.321l-1.326.765-.953-.55,1.326-.766Z" transform="translate(-384.004 -233.266)" fill="#2143af"/><path d="M406.615,238.4l-1.326.766-.953-.55,1.326-.766Z" transform="translate(-383.589 -234.101)" fill="#2143af"/><path d="M405.887,238.818l-1.326.766-.953-.55,1.325-.766Z" transform="translate(-381.475 -233.721)" fill="#2143af"/><path d="M410.091,238.724l-1.326.765-.954-.55,1.326-.766Z" transform="translate(-393.682 -233.806)" fill="#2143af"/><path d="M409.362,239.144l-1.326.765-.953-.55,1.326-.765Z" transform="translate(-391.568 -233.427)" fill="#2143af"/><path d="M409.2,238.209l-1.326.765-.953-.55,1.326-.766Z" transform="translate(-391.094 -234.271)" fill="#2143af"/><path d="M408.472,238.629l-1.326.765-.953-.55,1.326-.766Z" transform="translate(-388.981 -233.891)" fill="#2143af"/><path d="M408.329,237.706l-1.326.766-.953-.551,1.326-.766Z" transform="translate(-388.566 -234.726)" fill="#2143af"/><path d="M407.6,238.127l-1.326.765-.954-.55,1.326-.765Z" transform="translate(-386.453 -234.346)" fill="#2143af"/><path d="M407.449,237.2l-1.326.766-.953-.551,1.326-.765Z" transform="translate(-386.012 -235.185)" fill="#2143af"/><path d="M406.721,237.618l-1.326.766-.953-.551,1.326-.765Z" transform="translate(-383.898 -234.805)" fill="#2143af"/><path d="M411.7,243.855l-1.326.766-.953-.551,1.325-.766Z" transform="translate(-398.355 -229.168)" fill="#2143af"/><path d="M410.82,243.347l-1.326.766-.953-.551,1.326-.765Z" transform="translate(-395.801 -229.627)" fill="#2143af"/><path d="M406.256,240.712l-1.326.766-.953-.55,1.326-.766Z" transform="translate(-382.548 -232.009)" fill="#2143af"/><path d="M405.386,240.21l-1.326.766-.953-.55,1.326-.765Z" transform="translate(-380.02 -232.463)" fill="#2143af"/><path d="M404.506,239.7l-1.326.765-.953-.55,1.326-.765Z" transform="translate(-377.465 -232.922)" fill="#2143af"/><path d="M403.5,239.3l-1.011.584-.954-.55,1.011-.584Z" transform="translate(-375.129 -233.286)" fill="#2143af"/><path d="M412.488,241.212l-6.693,3.864-.953-.55,6.692-3.864Z" transform="translate(-390.427 -231.557)" fill="#2143af"/></g><path d="M416.649,244.513l-1.885-1.088v-.607l1.885,1.089Z" transform="translate(-411.6 -210.399)" fill="#fff"/><path d="M415.5,245.176l-1.885-1.088v-.607l1.885,1.088Z" transform="translate(-408.273 -209.8)" fill="#fff"/></g><path d="M406.291,235.339a10.719,10.719,0,0,1,6.343.516l-1.959,7.853s-2.113.394-5.079,1.005-3.615.815-3.615.815-.453-.453.267-1.367a5.2,5.2,0,0,1,2.467-1.312l-3.128-2.231S402.428,236.066,406.291,235.339Z" transform="translate(-379.949 -187.261)" fill="#ffc5b3"/><path d="M396.427,241.573c-1.858-3.969,2.357-11.173,3.541-13.762s4.967-4.165,4.967-4.165l9.686-1.144s5.81,1.879,5.81,10.579c0,5.256-.87,9.355-1.7,15.953-.228,1.837,1.123,5.618,3.769,13.73a16.424,16.424,0,0,1-.984,13.817c-2.146,4.146-10.406,7.484-14.45,7.986-5.431.676-12.8-1.169-15.2-2.869s.756-12.372,3.667-18.276C396.188,262.112,400.227,249.683,396.427,241.573Z" transform="translate(-370.793 -198.658)" fill="#99c7ff"/><path d="M397.842,222.815a9.337,9.337,0,0,0,6.109,0l3.233-1.157,1.074,2.292s-.485,1.578-3.686,2.6a11.647,11.647,0,0,1-9.247-.729C395.3,223.744,397.842,222.815,397.842,222.815Z" transform="translate(-363.65 -199.42)" fill="#649ff4"/><path d="M405.148,210.306c4.274.9,8.765,3.6,7.175,12.694a14.357,14.357,0,0,1-3.581,6.083,6.246,6.246,0,0,0-2.05,3.008c-3.431-.4-6.669-5.808-8.55-7.773s-3.986-2.728-4.228-5.3C393.421,213.743,397.132,208.612,405.148,210.306Z" transform="translate(-365.276 -209.977)" fill="#33211f"/><path d="M403.813,217.37a3.421,3.421,0,0,1-1.944,4.183L401,217.37S402.968,214,403.813,217.37Z" transform="translate(-370.154 -204.649)" fill="#ffc5b3"/><path d="M413.3,243.408c2.267-3.853,3.244-4.228,5.553-10.145s4.664-9.625,8.137-8.3c0,0,2.2,1.253,2.4,6.488s-1.335,8.39-4.278,13.494c-1.291,2.233-5.852,7.956-8.712,8.329-2.776.364-11.154-1.546-14.4-4.858-2.246-2.294-.607-5.009,0-6.2C403.607,241.6,410.171,242.348,413.3,243.408Z" transform="translate(-395.315 -196.675)" fill="#649ff4"/><path d="M417.8,233.587a10.8,10.8,0,0,1,1.656.36,6.417,6.417,0,0,1,.746-1.828c.324-.5,1-.887.79.335s.937,3.484.937,3.484l-1.148,4.982s-4.367.084-5.332-3.162S417.27,233.561,417.8,233.587Z" transform="translate(-415.246 -190.399)" fill="#ffc5b3"/><path d="M418.483,233.991a6.214,6.214,0,0,0-1.632,3.326,6.1,6.1,0,0,0,.023,3.092s-2.105-.383-2.416-2.168S415.03,232.19,418.483,233.991Z" transform="translate(-410.192 -188.666)" fill="#99c7ff"/><path d="M403.745,213.856s3.926-2.823,4.462-.459,2.166,6.9,3.286,8.021,2.505,2.8,1.673,4.853-1.9,4.462-.666,5.311,4.034,4.179,3.029,5.89c-.946,1.612-2.378,2.1-1.293,4.668.676,1.6.695,3.467-1.07,4.674s-4.573,2.795-4.337,4.1,2.663,1.213,2.663,1.213-2.349,3.528-5.431,1.289c-3.444-2.5-.821-5.728-2.037-7.263-1.407-1.772-3.927-1.833-3.927-4.79,0-2.905.851-3.128-.5-4.638-1.393-1.555-2.248-.634-4.5-3.419-2.793-3.453-.845-5.915-.954-9.3-.03-1-3.017-3.52-3.848-6.275S398.519,210.682,403.745,213.856Z" transform="translate(-361.455 -207.739)" fill="#33211f"/></g><g transform="translate(125.186 10.322)"><path d="M326.139,232.118s3.24,5.228,5.456,8.733a90.689,90.689,0,0,0,9.391-.739q.311-.04.594-.069c2.067-.215,3.922-.7,5.376-.7l-.008-.023s1.519-.093,3.67-.156c1.875-.053,2.06-.27,2.907.162.339.175.588.883-.647.939a5.925,5.925,0,0,0-1.683.369,14.548,14.548,0,0,1,4.217,1.913c2.229,1.475,2.1,3.988.377,4.1-2.142.135-6.094-1.432-8.535-2.469-2.094-.889-3.271-.036-5.607.742h0c-.385.129-.794.255-1.253.373-1.47.373-7.729,3.067-11.649,2.869-.1-.086-.206-.169-.293-.259-1.5-1.557-6.855-11.476-6.855-11.476Z" transform="translate(-294.587 -200.289)" fill="#ffa8a6"/><g transform="translate(22.265 103.479)"><path d="M329.122,270.131c1.826-.065,3.714-.278,5.572-.377-.046,1.129-.074,2.111-.078,2.833-.021,4.221,2.568,8.148,3.532,9.673s-2.1,3.91-4.422,1.685a24.126,24.126,0,0,0-5.193-4.053c-1.312-.7-1.211-1.59.067-6.33A16.86,16.86,0,0,0,329.122,270.131Z" transform="translate(-309.509 -269.754)" fill="#ff9784"/><path d="M337.638,275.193a14.357,14.357,0,0,0,5.69-.225c-.006.282-.01.55-.01.781-.021,4.223,2.566,8.148,3.531,9.673s-2.1,3.91-4.422,1.685-2.568-2.658-3.882-3.354-2.995-1.584-1.957-4.912C336.73,278.387,337.55,275.754,337.638,275.193Z" transform="translate(-334.723 -265.042)" fill="#ffc3c2"/><g transform="translate(16.652 6.003)"><path d="M333.965,274.453s2.172,3.1,3.994,5.144c2.142,2.4,3.054,2.97,3.56,4.285s-1.9,4.481-6.077,2.071-4.921-3.09-6.338-4.394c-1.835-1.689-3.735-2.814-4.026-5.239a4.085,4.085,0,0,1,1.367-3.413s.383,1.443,2.888,2.859C331.216,276.831,333.965,274.453,333.965,274.453Z" transform="translate(-324.579 -272.907)" fill="#fff"/><path d="M341.93,282.674s-2.768,1.7-3.122,1.864c-2.412,1.087-4.716-1.443-7.017-3.014a13.8,13.8,0,0,1-4.6-4.824,10.73,10.73,0,0,0-1.725-2.456s-1.376,3.238.571,4.419c2.361,1.432,6.2,4.234,7.293,4.889.927.556,5.589,4.055,8.22,1.424A1.976,1.976,0,0,0,341.93,282.674Z" transform="translate(-324.99 -271.699)" fill="#d1bdbd"/><path d="M331.306,274.856a5.778,5.778,0,0,0-2.115,1.567,19.735,19.735,0,0,0-1.342,1.687l.849.634s1.439-1.432,2.109-2.165a8.05,8.05,0,0,1,1.209-.8Z" transform="translate(-320.335 -271.146)" fill="#d1bdbd"/><path d="M330.239,275.877a6.36,6.36,0,0,0-2.163,1.622,8.016,8.016,0,0,0-1.047,1.374l.754.832s1.239-1.315,1.911-2.048a10.564,10.564,0,0,1,1.289-.9Z" transform="translate(-317.741 -270.223)" fill="#d1bdbd"/></g><g transform="translate(0 13.798)"><path d="M342.711,278.548s2.174,3.1,4,5.144c2.14,2.4,3.052,2.97,3.56,4.285s-1.9,4.482-6.079,2.069-4.921-3.09-6.336-4.394c-1.835-1.689-3.737-2.812-4.028-5.239A4.08,4.08,0,0,1,335.191,277s.383,1.443,2.888,2.858C339.964,280.926,342.711,278.548,342.711,278.548Z" transform="translate(-333.325 -277.002)" fill="#fff"/><path d="M350.678,286.77s-2.77,1.7-3.124,1.864c-2.412,1.087-4.716-1.445-7.017-3.016a13.777,13.777,0,0,1-4.6-4.822,10.677,10.677,0,0,0-1.727-2.458s-1.376,3.238.571,4.419c2.361,1.432,6.2,4.234,7.293,4.889.927.556,5.589,4.057,8.22,1.426A1.981,1.981,0,0,0,350.678,286.77Z" transform="translate(-333.737 -275.795)" fill="#d1bdbd"/><path d="M340.052,278.95a5.764,5.764,0,0,0-2.113,1.567A20.021,20.021,0,0,0,336.6,282.2l.849.634s1.439-1.432,2.111-2.165a7.947,7.947,0,0,1,1.209-.8Z" transform="translate(-329.081 -275.241)" fill="#d1bdbd"/><path d="M338.983,279.971a6.357,6.357,0,0,0-2.161,1.624,7.933,7.933,0,0,0-1.047,1.373l.752.834s1.241-1.317,1.911-2.05a10.5,10.5,0,0,1,1.291-.9Z" transform="translate(-326.485 -274.319)" fill="#d1bdbd"/></g></g><path d="M329.332,250.165s13.878-10.016,21.444-4.64c5.74,4.082,14.288,13.709,19.089,17.115,2.492,1.767,4.676,5.456,4.676,10.507,0,2.958,1.18,26.312,1.18,26.312a12.856,12.856,0,0,1-5.673,1.679c-2.856,0-4.586-3.28-4.586-3.28s-3.1-16.991-3.448-25.7c-2.6-3.629-12.2-8.609-12.2-8.609s2.631,2.507,6.437,5.8c2.49,2.157,3.743,5.924,3.592,9.776-.238,6.155.48,27.542.48,27.542a11.8,11.8,0,0,1-5.481,1.759c-2.764.006-6.288-2.863-6.288-2.863A186.7,186.7,0,0,1,347.7,277.8c-.971-1.272-11.285-8.274-13.991-11.072C325.944,258.69,329.332,250.165,329.332,250.165Z" transform="translate(-326.544 -189.605)" fill="#3371d3"/><path d="M359.557,218.394s-2.126-4.461-6.652-2.494-2.974,9.012-1.955,11.1.478,7.927-1.357,8.205-3.522-1.75-3.522-1.75.445,6.161,6.834,4.8S359.557,218.394,359.557,218.394Z" transform="translate(-343.648 -215.399)" fill="#3d2927"/><g transform="translate(2.788 11.603)"><path d="M342.921,244.927a15.137,15.137,0,0,0,6.44-5.755c-2.5-4.719-5.812-10.284-7.476-11.367a5.913,5.913,0,0,0-5.313-.9l5.82,17.168S342.6,244.411,342.921,244.927Z" transform="translate(-318.157 -216.847)" fill="#649ff4"/><path d="M350.952,230.514a38.429,38.429,0,0,0,.432,5.018c.425.927,1.293,6.172.642,8.464-1.114-.853-4.118-4.992-5.1-6.229-1.19-1.5-4.455-4.609-4.455-4.609a5.714,5.714,0,0,0,1.925-3.941c.579-4.129,1.083-7.724,1.083-7.724Z" transform="translate(-332.285 -221.494)" fill="#ffa8a6"/><g transform="translate(0 8.388)"><path d="M339.739,249.723l.057-.029C339.777,249.962,339.756,249.949,339.739,249.723Z" transform="translate(-314.62 -204.396)" fill="#f38282"/><path d="M342.374,252.288s-3.356-10.95-.594-17.768c.838-2.066,8.015-5.635,8.015-5.635s3.248,3.427,4.4,4.619c.167.175.352.394.543.632.691.83,3.309,3.9,4.1,4.919a62.206,62.206,0,0,0-1.325-8.7,8.531,8.531,0,0,1-.341-3.476v0c.152-.52.278-.891.278-.891s.529-.057,1.289-.084c.94,1.388,2.669,4.969,3.667,6.49.961,1.47,3.68,5.833,2.995,10.229-1.35,8.649-3.126,25.75-2.97,27.656-.613.3-8.108,5.812-14.564,6.817-8.976,1.4-8.769-5.694-8.769-5.694S342.045,256.036,342.374,252.288Z" transform="translate(-339.09 -225.9)" fill="#e2e2e2"/></g><path d="M344.767,236.647l6.218-1.784-.447-1.544L344.32,235.1Z" transform="translate(-334.531 -210.807)" fill="#fff"/></g><path d="M363.681,286.377c3.771-1.782,5.523-1.565,7.6-1.978a18.723,18.723,0,0,1-5.65-9.391c-3.134-12.369-5.765-32.406-6.789-38.187-.249-1.4-.312,1.058-.543.472a8.436,8.436,0,0,1-2.125-2.047c-2.974-3.75-5.519-7.349-8.3-7.4-1.567-.027-5.292,3.364-5.292,3.364s-1.666,9.047-1.736,12.1a65.846,65.846,0,0,1-4.3,21.391c-1.573,4.323-1.011,10.676,4.084,17.947,1.4,1.991,9.26,11.485,13.585,13.7C355.708,290.744,358.716,288.723,363.681,286.377Z" transform="translate(-335.775 -204.146)" fill="#99c7ff"/><path d="M331.689,266.787h0c-.114,1.658,1.234,8.38,6.261,11.259,3.672,2.1,5.65,3.855,7.257,6.505,3.175-2.09,7.242-5.144,9.315-5.292-2.073-2.313-14.644-11.274-17.233-16.9-1.742-3.785-1.923-8.064-.491-15.843.916-4.967,1.649-6.094.794-9.658-.794-3.307-5.374-9.742-5.374-9.742l-2.18,1.175s.228,5.182.581,9.662c.108,1.384.483,2.361.543,3.531C331.338,245.078,332.138,258.92,331.689,266.787Z" transform="translate(-308.09 -204.808)" fill="#99c7ff"/><path d="M346.655,272.274c-.575-3.9-4.183-6.9-4.733-9.4-1-4.582-.48-12.112-.415-16.4a112,112,0,0,0-1.641-13.909,1.87,1.87,0,0,1-1.123.472,103.368,103.368,0,0,1,1.542,12.411c.206,4.569-.375,13.637-.139,14.781C340.991,264.324,343.12,270.06,346.655,272.274Z" transform="translate(-316.796 -199.888)" fill="#649ff4"/><path d="M341.884,227.8s.211,3.033.343,4.59a43.777,43.777,0,0,0,1.782,6.191s1.409-.617,1.35-3.6-.841-8.559-.841-8.559Z" transform="translate(-321.481 -205.434)" fill="#649ff4"/><g transform="translate(12.214 46.824)"><g transform="translate(0 11.108)"><path d="M325.213,259.579h.961l21.969-12.685a5.092,5.092,0,0,1,4.563.19l14.792,8.54a3.294,3.294,0,0,1,.455.314h.659v1.247H368.6a1.366,1.366,0,0,1-.769,1.074l-22.148,12.786a5.086,5.086,0,0,1-4.563-.188l-14.792-8.54a1.831,1.831,0,0,1-1.1-1.519h-.011Z" transform="translate(-325.21 -245.277)" fill="#ea81c0"/><path d="M345.682,270.435l22.148-12.788c1.165-.672,1.017-1.858-.327-2.635l-14.792-8.54a5.091,5.091,0,0,0-4.563-.189L326,259.069c-1.165.674-1.017,1.858.327,2.635l14.792,8.54A5.092,5.092,0,0,0,345.682,270.435Z" transform="translate(-325.213 -245.83)" fill="#ffb0d8"/><path d="M350.111,246.288l15.613,9-23.265,13.362L326.8,259.676Z" transform="translate(-325.346 -245.415)" fill="#ea81c0"/><path d="M356.984,246.209l1.195.693-23.265,13.362-1.238-.667Z" transform="translate(-330.885 -245.487)" fill="#fff"/><path d="M346.565,252.774l1.2.693-3.52,2.007L343,254.807Z" transform="translate(-338.221 -239.553)" fill="#fff"/><path d="M343.487,251.6l1.195.693-2.473,1.428-1.238-.666Z" transform="translate(-331.28 -240.617)" fill="#fff"/><path d="M341.869,250.677l1.195.693-2.473,1.428-1.238-.666Z" transform="translate(-326.579 -241.448)" fill="#fff"/><path d="M340.258,249.755l1.195.692-2.473,1.428-1.238-.667Z" transform="translate(-321.904 -242.282)" fill="#fff"/><path d="M343.4,254.523l1.195.692-1.738,1-1.238-.666Z" transform="translate(-332.432 -237.973)" fill="#fff"/><path d="M342.07,253.747l1.195.692-1.738,1-1.238-.667Z" transform="translate(-328.562 -238.675)" fill="#fff"/><path d="M341.162,252.819l1.195.693-2.472,1.428-1.238-.667Z" transform="translate(-324.528 -239.513)" fill="#fff"/><path d="M342.329,255.144l1.195.693-1.738,1-1.238-.667Z" transform="translate(-329.313 -237.411)" fill="#fff"/><path d="M341,254.368l1.195.692-1.738,1-1.238-.667Z" transform="translate(-325.443 -238.113)" fill="#fff"/><path d="M341.188,255.745l1.195.693-1.738,1-1.238-.667Z" transform="translate(-325.999 -236.869)" fill="#fff"/><path d="M339.855,254.968l1.195.692-1.738,1L338.073,256Z" transform="translate(-322.129 -237.57)" fill="#fff"/><path d="M340.088,253.44l1.195.692-2.472,1.428-1.238-.666Z" transform="translate(-321.408 -238.952)" fill="#fff"/><path d="M339.6,251.9l1.195.693-2.472,1.428-1.238-.667Z" transform="translate(-319.991 -240.344)" fill="#fff"/><path d="M337.99,250.976l1.195.692-2.473,1.428-1.238-.666Z" transform="translate(-315.316 -241.178)" fill="#fff"/><path d="M345.718,253.195l1.195.693L342.8,256.24l-1.238-.666Z" transform="translate(-334.626 -239.173)" fill="#fff"/><path d="M342.357,252.2l1.195.692-2.473,1.428-1.238-.667Z" transform="translate(-327.997 -240.073)" fill="#fff"/><path d="M340.738,251.28l1.2.692-2.472,1.428-1.238-.666Z" transform="translate(-323.297 -240.904)" fill="#fff"/><path d="M339.128,250.357l1.195.693-2.472,1.428-1.238-.667Z" transform="translate(-318.622 -241.738)" fill="#fff"/></g><path d="M337.846,246.953s6.42,2.022,8.653,3.537,6.054,5.193.645,6.065c-5.789.933-10.691-5.222-11.1-5.5A6.614,6.614,0,0,1,337.846,246.953Z" transform="translate(-327.122 -233.706)" fill="#ffc3c2"/><g transform="translate(16.627)"><path d="M325.662,273.34l.07-18.821a1.836,1.836,0,0,1,.92-1.58l22.2-12.7a1.808,1.808,0,0,1,1.915.072l.011,0,.809.472-.337.006a1.782,1.782,0,0,1,.337,1.047l-.07,18.821a1.828,1.828,0,0,1-.92,1.58l-22.2,12.7a1.794,1.794,0,0,1-.539.2l-.337.352-1.182-.689,0-.048A1.787,1.787,0,0,1,325.662,273.34Z" transform="translate(-325.662 -239.995)" fill="#f495c9"/><path d="M325.25,254.8l-.07,18.821a1.828,1.828,0,0,0,2.736,1.593l22.2-12.7a1.828,1.828,0,0,0,.92-1.58l.07-18.821a1.828,1.828,0,0,0-2.736-1.593l-22.2,12.7A1.828,1.828,0,0,0,325.25,254.8Z" transform="translate(-324.26 -239.74)" fill="#ffb0d8"/></g><path d="M326.169,257.074l5.243-3.027v-2.289l-5.243,3.027Z" transform="translate(-289.831 -229.364)" fill="#f495c9"/><path d="M333.675,261.412l5.244-3.027V256.1l-5.244,3.027Z" transform="translate(-311.626 -225.443)" fill="#f495c9"/><path d="M330.312,251.54c0,1.1.975,1.424,2.18.729a4.378,4.378,0,0,0,2.18-3.246c0-1.1-.977-1.424-2.18-.727A4.373,4.373,0,0,0,330.312,251.54Z" transform="translate(-300.976 -232.824)" fill="#fff"/></g><path d="M342.053,236.985s.143-.381,0,.289c-.247,1.138.164,2.9.327,5.66a53.967,53.967,0,0,0,.466,6.758c.367,1.5,1.6,1.982,4.247,3.794s14.649,6.676,14.649,6.676l2.574-3.585s-7.189-5.6-8.42-6.3-4.407-3.236-4.407-3.236l-.583-10.056Z" transform="translate(-340.601 -195.988)" fill="#ffc3c2"/><path d="M359.008,247.347c.3-5.258.27-12.121-.55-13.621-1.157-2.113-2.608-4.194-3.929-3.809-2.823.822-4.542,2.42-5.3,7.006a75.788,75.788,0,0,0-.632,9.888A12.7,12.7,0,0,0,359.008,247.347Z" transform="translate(-348.087 -202.321)" fill="#649ff4"/><path d="M345.246,226.761s-2.774.68-2.648,2.366c.171,2.334,1.2,4.369,4.71,6.934s6.25,2.216,6.25,2.216a42.073,42.073,0,0,0-5.1-6.229A10.676,10.676,0,0,1,345.246,226.761Z" transform="translate(-331.03 -205.13)" fill="#649ff4"/><path d="M352.926,218.625s-2.962-4.708-5.768-1.658,1.009,5.4,1.009,5.4Z" transform="translate(-337.124 -214.911)" fill="#649ff4"/><g transform="translate(9.258 0.968)"><path d="M342.394,219.3a7.189,7.189,0,0,1,11.219,3.819c2.4,6.8-3.752,15.3-7.032,13.854-1.837-.809-4.982-2.031-6.069-5.612C339.287,227.328,340.336,220.867,342.394,219.3Z" transform="translate(-335.926 -214.104)" fill="#ffc3c2"/><path d="M343.005,218.732a5.673,5.673,0,0,1,3.008-2.462c2.776-1.079,6.56.466,8.386,1.814,4.044,2.987,4.451,7.712,4.451,9.816,0,0-3.269,1.422-5.572.238,0,1.184-1.538,2.6-2.117,2.989-2.02,1.346-4.365-.116-5.8.032-.931.1-1.424,1.331-1.361,2.522a19.413,19.413,0,0,1-3.783-5.361C339.061,225.7,338.118,221.07,343.005,218.732Z" transform="translate(-339.29 -215.908)" fill="#33211f"/></g></g></g><g transform="translate(191.08 81.726)"><path d="M386.491,304.342v52.992c0,5.566-8.479,10.076-18.941,10.076s-18.945-4.51-18.945-10.076V304.342Z" transform="translate(-348.606 -266.183)" fill="#e8d6d6"/><g transform="translate(0 49.544)"><path d="M367.551,319.82c10.461,0,18.941-4.508,18.941-10.074v33.933c0,5.566-8.479,10.076-18.941,10.076s-18.945-4.51-18.945-10.076V309.746C348.606,315.312,357.087,319.82,367.551,319.82Z" transform="translate(-348.606 -309.746)" fill="#9165d1"/></g><g transform="translate(0 54.239)"><path d="M367.551,322.049c10.461,0,18.941-4.508,18.941-10.074v24.776c0,5.568-8.479,10.076-18.941,10.076s-18.945-4.508-18.945-10.076V311.975C348.606,317.541,357.087,322.049,367.551,322.049Z" transform="translate(-348.606 -311.975)" fill="#b292ef"/></g><g transform="translate(5.195 54.239)"><path d="M348.606,318.893a28.724,28.724,0,0,0,13.75,3.156c10.461,0,18.941-4.508,18.941-10.074v4.605c0,5.566-8.479,10.076-18.941,10.076a28.723,28.723,0,0,1-13.75-3.158Z" transform="translate(-348.606 -311.975)" fill="#33211f"/></g><path d="M348.606,309.634c0,5.566,8.481,10.076,18.945,10.076s18.941-4.51,18.941-10.076-8.479-10.074-18.941-10.074S348.606,304.068,348.606,309.634Z" transform="translate(-348.606 -271.475)" fill="#f4efef"/><g transform="translate(5.572 22.945)"><path d="M371.628,297.12v17.409a16.328,16.328,0,0,1-2.8,1.091v-18.2H366.5v18.73a23.846,23.846,0,0,1-2.956.308V297.417h-2.328V316.45a23.511,23.511,0,0,1-2.8-.295V297.417h-2.33v18.216a16.434,16.434,0,0,1-2.854-1.108v-17.4Z" transform="translate(-349.066 -297.12)" fill="#a179e0"/><path d="M353.1,297.12v12.252a4.912,4.912,0,0,1-1.854,3.6V297.12Z" transform="translate(-326.36 -297.12)" fill="#a179e0"/><path d="M363.071,309.372a3.852,3.852,0,0,1,.059-.624V297.12h1.782v15.842A4.916,4.916,0,0,1,363.071,309.372Z" transform="translate(-363.071 -297.12)" fill="#a179e0"/><path d="M354.458,297.12v15.85a10.554,10.554,0,0,1-2.328,1.559V297.12Z" transform="translate(-329.568 -297.12)" fill="#448ce2"/><path d="M354.458,297.12v15.85a10.554,10.554,0,0,1-2.328,1.559V297.12Z" transform="translate(-329.568 -297.12)" fill="#9165d1"/><path d="M356.893,297.261v18.2a20.989,20.989,0,0,1-2.33.527v-18.73Z" transform="translate(-337.129 -296.964)" fill="#448ce2"/><path d="M356.893,297.261v18.2a20.989,20.989,0,0,1-2.33.527v-18.73Z" transform="translate(-337.129 -296.964)" fill="#9165d1"/><path d="M359.4,297.261V316.3c-.365.017-.733.029-1.106.029-.413,0-.82-.013-1.222-.034V297.261Z" transform="translate(-344.921 -296.964)" fill="#448ce2"/><path d="M359.4,297.261V316.3c-.365.017-.733.029-1.106.029-.413,0-.82-.013-1.222-.034V297.261Z" transform="translate(-344.921 -296.964)" fill="#9165d1"/><path d="M361.835,297.261V316a21,21,0,0,1-2.33-.522V297.261Z" transform="translate(-352.482 -296.964)" fill="#448ce2"/><path d="M361.835,297.261V316a21,21,0,0,1-2.33-.522V297.261Z" transform="translate(-352.482 -296.964)" fill="#9165d1"/><path d="M364.294,297.12v17.4a10.587,10.587,0,0,1-2.328-1.563V297.12Z" transform="translate(-360.125 -297.12)" fill="#448ce2"/><path d="M364.294,297.12v17.4a10.587,10.587,0,0,1-2.328-1.563V297.12Z" transform="translate(-360.125 -297.12)" fill="#9165d1"/></g><g transform="translate(5.572)"><path d="M351.25,300.856c0,3.929,5.985,7.112,13.373,7.112s13.371-3.183,13.371-7.112-5.987-7.112-13.371-7.112S351.25,296.927,351.25,300.856Z" transform="translate(-351.25 -277.911)" fill="#b292ef"/><path d="M352.96,305.963h-.03l3.861-18.189h12.242l3.853,18.155h-.027a2.98,2.98,0,0,1,.169.9c0,2.972-4.529,5.38-10.116,5.38S352.8,309.8,352.8,306.826A2.969,2.969,0,0,1,352.96,305.963Z" transform="translate(-349.541 -284.517)" fill="#9165d1"/><path d="M354.692,289.485c0,1.8,2.739,3.255,6.12,3.255s6.122-1.458,6.122-3.255-2.741-3.257-6.122-3.257S354.692,287.686,354.692,289.485Z" transform="translate(-347.441 -286.228)" fill="#b292ef"/><path d="M355.923,288.467c0,1.036,1.58,1.877,3.529,1.877s3.529-.841,3.529-1.877-1.58-1.877-3.529-1.877S355.923,287.431,355.923,288.467Z" transform="translate(-346.081 -285.827)" fill="#a179e0"/></g></g><g transform="translate(277.163 141.438)"><g transform="translate(49.541 10.518)"><path d="M306.283,323.736v-7.162h27.142v7.219a3.9,3.9,0,0,1-.04.413c-.4,3.794-6.3,6.807-13.533,6.807-7.5,0-13.573-3.232-13.573-7.219C306.279,323.774,306.283,323.755,306.283,323.736Z" transform="translate(-306.279 -309.203)" fill="#9165d1"/><path d="M319.852,313.075c7.5,0,13.573,3.229,13.573,7.217a3.8,3.8,0,0,1-.04.413c-.4,3.794-6.3,6.807-13.533,6.807-7.5,0-13.573-3.232-13.573-7.219S312.357,313.075,319.852,313.075Z" transform="translate(-306.279 -313.075)" fill="#b292ef"/><path d="M309.989,325.316l18.3-10.567s-.63-.358-1.026-.55c-.43-.209-1.07-.463-1.07-.463l-18.275,10.552s.577.341.931.518C309.319,325.036,309.989,325.316,309.989,325.316Z" transform="translate(-304.608 -312.344)" fill="#9165d1"/></g><g transform="translate(0)"><path d="M329.8,318.743v-7.162h27.14V318.8a3.866,3.866,0,0,1-.038.413c-.407,3.794-6.3,6.806-13.533,6.806-7.5,0-13.575-3.232-13.575-7.219C329.8,318.781,329.8,318.762,329.8,318.743Z" transform="translate(-329.796 -304.21)" fill="#9165d1"/><path d="M343.371,308.082c7.5,0,13.571,3.232,13.571,7.219a3.861,3.861,0,0,1-.038.413c-.407,3.794-6.3,6.807-13.533,6.807-7.5,0-13.575-3.232-13.575-7.219S335.874,308.082,343.371,308.082Z" transform="translate(-329.796 -308.082)" fill="#b292ef"/><path d="M333.5,320.324l18.3-10.569s-.628-.358-1.024-.55c-.43-.209-1.072-.461-1.072-.461l-18.273,10.55s.575.343.931.518C332.834,320.044,333.5,320.324,333.5,320.324Z" transform="translate(-328.123 -307.349)" fill="#9165d1"/></g><g transform="translate(9.242 16.859)"><path d="M325.415,326.745v-7.16h27.14V326.8a3.816,3.816,0,0,1-.038.413c-.4,3.794-6.3,6.806-13.533,6.806-7.5,0-13.575-3.232-13.575-7.219C325.409,326.783,325.415,326.764,325.415,326.745Z" transform="translate(-325.409 -312.212)" fill="#9165d1"/><path d="M338.984,316.085c7.5,0,13.571,3.232,13.571,7.219a3.864,3.864,0,0,1-.038.413c-.4,3.794-6.3,6.807-13.533,6.807-7.5,0-13.575-3.232-13.575-7.219S331.487,316.085,338.984,316.085Z" transform="translate(-325.409 -316.085)" fill="#b292ef"/><path d="M329.119,328.327l18.3-10.569s-.628-.358-1.024-.55c-.43-.209-1.072-.461-1.072-.461L327.052,327.3s.575.343.931.52C328.447,328.047,329.119,328.327,329.119,328.327Z" transform="translate(-323.736 -315.352)" fill="#9165d1"/></g></g><g transform="translate(237.237 60.17)"><g transform="translate(12.081)"><path d="M313.6,206.548a7.432,7.432,0,0,1,10.122-2.711l14.078,8.125-.074.048s-4.024,8.418-6.343,13.362l-15.071-8.7A7.434,7.434,0,0,1,313.6,206.548Z" transform="translate(-312.614 -202.849)" fill="#00bcd4"/><path d="M302.8,216.893c.076-3.516,2.214-7.649,4.776-9.229,1.241-.767,2.263-.929,3.071-.35l17.146,9.9a7.409,7.409,0,1,1-7.409,12.834s-15.7-9.056-16.105-9.3C303.254,220.227,302.757,218.892,302.8,216.893Z" transform="translate(-285.624 -198.294)" fill="#9165d1"/></g><g transform="translate(0 24.617)"><path d="M332.73,218.235a7.432,7.432,0,0,0-10.122-2.713l-14.076,8.127.072.048s4.026,8.418,6.343,13.36l15.071-8.7A7.432,7.432,0,0,0,332.73,218.235Z" transform="translate(-287.849 -214.535)" fill="#00bcd4"/><path d="M345.376,228.579c-.076-3.518-2.214-7.649-4.776-9.229-1.241-.767-2.263-.929-3.071-.352l-17.146,9.9a7.411,7.411,0,0,0,7.411,12.836s15.7-9.056,16.1-9.3C344.921,231.914,345.42,230.576,345.376,228.579Z" transform="translate(-316.684 -209.979)" fill="#9165d1"/></g></g><g transform="translate(309.939 13.226)"><g transform="translate(2.435 34.745)"><path d="M347.848,187.8c10.982,0,19.887-4.736,19.887-10.579v46c0,5.844-8.9,10.577-19.887,10.577s-19.891-4.734-19.891-10.577v-46C327.957,183.062,336.862,187.8,347.848,187.8Z" transform="translate(-327.957 -166.641)" fill="#d1bdbd"/><path d="M347.848,172.2c10.982,0,19.887,4.736,19.887,10.577s-8.9,10.579-19.887,10.579-19.891-4.736-19.891-10.579S336.862,172.2,347.848,172.2Z" transform="translate(-327.957 -172.197)" fill="#f4e6e6"/></g><path d="M349.124,184.455c12.3,0,22.269-5.3,22.269-11.846v56.862c0,6.543-9.971,11.846-22.269,11.846s-22.273-5.3-22.273-11.846V172.609C326.851,179.152,336.822,184.455,349.124,184.455Z" transform="translate(-326.851 -136.997)" fill="#e8d6d6" opacity="0.7"/><path d="M326.885,178.478c.356-6.379,10.162-11.492,22.24-11.492S371,172.1,371.36,178.478c.006.118.034.234.034.354,0,6.543-9.971,11.846-22.269,11.846s-22.273-5.3-22.273-11.846C326.851,178.711,326.878,178.6,326.885,178.478Z" transform="translate(-326.851 -143.219)" fill="#e8d6d6" opacity="0.5"/><path d="M330.67,171.611c.227-4.087,6.512-7.363,14.247-7.363s14.02,3.276,14.247,7.363c0,.076.023.15.023.228,0,4.192-6.389,7.588-14.27,7.588s-14.268-3.4-14.268-7.588C330.649,171.76,330.666,171.686,330.67,171.611Z" transform="translate(-322.646 -146.249)" fill="#e8d6d6" opacity="0.7"/><g transform="translate(0 53.266)"><path d="M349.124,192.835c12.3,0,22.269-5.3,22.269-11.846V201.75c0,6.543-9.971,11.846-22.269,11.846s-22.273-5.3-22.273-11.846V180.989C326.851,187.532,336.822,192.835,349.124,192.835Z" transform="translate(-326.851 -180.989)" fill="#7e5ee3"/></g><g transform="translate(2.522 11.032)"><path d="M344.395,170.869c0-.105.023-.206.029-.312v-9.572h5.033v16.889C346.32,176.014,344.395,173.564,344.395,170.869Z" transform="translate(-344.395 -160.892)" fill="#bca4a4"/><path d="M348.321,161.034c.209-.04.436-.057.649-.093v19.988a25.575,25.575,0,0,1-8.709-3.006V161.034Z" transform="translate(-335.199 -160.941)" fill="#af9797"/></g><g transform="translate(16.293 10.504)"><path d="M333.57,160.985v17.359a22.111,22.111,0,0,1-2.73,1.2V160.985Z" transform="translate(-313.724 -160.364)" fill="#bca4a4"/><path d="M330.626,160.985v9.572c.006.105.03.206.03.312a7.194,7.194,0,0,1-2.608,5.2V160.985Z" transform="translate(-304.928 -160.364)" fill="#bca4a4"/><path d="M341.749,160.69c1.19,0,2.353.063,3.484.173v20.664c-1.133.107-2.294.173-3.484.173a36.064,36.064,0,0,1-5.981-.493V161.219A35.27,35.27,0,0,1,341.749,160.69Z" transform="translate(-335.768 -160.69)" fill="#bca4a4"/><path d="M332.56,160.985v15.088a15.131,15.131,0,0,1-3.274,2.271V160.985Z" transform="translate(-309.44 -160.364)" fill="#bca4a4"/><path d="M332.56,160.985v15.088a15.131,15.131,0,0,1-3.274,2.271V160.985Z" transform="translate(-309.44 -160.364)" fill="#fff" opacity="0.3"/><path d="M335.279,161.221h4.508v18.555a31.116,31.116,0,0,1-7.651,1.66V160.772C333.215,160.877,334.266,161.027,335.279,161.221Z" transform="translate(-322.671 -160.599)" fill="#bca4a4"/><path d="M335.279,161.221h4.508v18.555a31.116,31.116,0,0,1-7.651,1.66V160.772C333.215,160.877,334.266,161.027,335.279,161.221Z" transform="translate(-322.671 -160.599)" fill="#fff" opacity="0.3"/></g><path d="M328.08,165.894c.314-5.656,9.01-10.19,19.72-10.19s19.4,4.533,19.718,10.19c0,.105.03.209.03.314,0,5.8-8.841,10.506-19.747,10.506s-19.752-4.7-19.752-10.506C328.048,166.1,328.073,166,328.08,165.894Z" transform="translate(-325.526 -155.704)" fill="#f4e6e6"/><g transform="translate(12.397 4.567)"><path d="M342.661,159.178c-5.159,0-9.345,2.111-9.787,4.793a2.9,2.9,0,0,1-.139-.847c0-.053.01-.105.015-.158.158-2.827,4.506-5.094,9.859-5.094s9.7,2.267,9.859,5.094c0,.053.017.105.017.158a2.933,2.933,0,0,1-.084.649C351.787,161.186,347.69,159.178,342.661,159.178Z" transform="translate(-332.735 -157.872)" fill="#af9797"/><path d="M342.51,167.69c-4.908,0-8.97-1.906-9.735-4.4.442-2.682,4.628-4.793,9.787-4.793,5.029,0,9.126,2.008,9.739,4.595C351.7,165.68,347.549,167.69,342.51,167.69Z" transform="translate(-332.636 -157.186)" fill="#d1bdbd"/></g></g></g></svg>