<?xml version="1.0" encoding="utf-8"?>
<!-- Generator: Adobe Illustrator 25.3.1, SVG Export Plug-In . SVG Version: 6.00 Build 0)  -->
<svg version="1.1" id="Layer_1" xmlns="http://www.w3.org/2000/svg" xmlns:xlink="http://www.w3.org/1999/xlink" x="0px" y="0px"
	 viewBox="0 0 1030 840.5" style="enable-background:new 0 0 1030 840.5;" xml:space="preserve">
<style type="text/css">
	.st0{fill:#F4F3F3;}
	.st1{enable-background:new    ;}
	.st2{fill:#12263F;}
	.st3{fill:none;stroke:#12263F;stroke-miterlimit:10;}
</style>
<g transform="translate(-49.442 -27.604)">
	<rect x="49.4" y="27.6" class="st0" width="1030" height="840.5"/>
	<g transform="translate(84.216 52.169)">
		<g class="st1">
			<path class="st2" d="M789,65.1c-0.1,1.5-0.6,2.6-1.6,3.4c-1,0.8-2.2,1.3-3.8,1.3c-1.7,0-3.1-0.6-4.1-1.7c-1-1.2-1.5-2.8-1.5-4.8
				v-0.8c0-1.3,0.2-2.4,0.7-3.4c0.5-1,1.1-1.7,2-2.3c0.9-0.5,1.8-0.8,3-0.8c1.6,0,2.8,0.4,3.8,1.3c1,0.8,1.5,2,1.7,3.5h-2.8
				c-0.1-0.9-0.3-1.5-0.7-1.9c-0.4-0.4-1.1-0.6-1.9-0.6c-0.9,0-1.6,0.3-2.1,1c-0.5,0.7-0.7,1.7-0.7,3.1v1c0,1.5,0.2,2.5,0.7,3.2
				s1.1,1,2.1,1c0.9,0,1.5-0.2,1.9-0.6c0.4-0.4,0.7-1,0.7-1.8H789z"/>
			<path class="st2" d="M790.3,64.5c0-1,0.2-1.9,0.6-2.7c0.4-0.8,0.9-1.4,1.7-1.8c0.7-0.4,1.6-0.6,2.5-0.6c1.4,0,2.5,0.4,3.3,1.2
				c0.9,0.8,1.3,2,1.4,3.4l0,0.7c0,1.5-0.4,2.8-1.3,3.7c-0.9,0.9-2,1.4-3.5,1.4s-2.6-0.5-3.5-1.4c-0.9-0.9-1.3-2.2-1.3-3.8V64.5z
				 M792.9,64.7c0,1,0.2,1.7,0.5,2.2s0.9,0.8,1.5,0.8c0.6,0,1.2-0.2,1.5-0.7c0.4-0.5,0.5-1.3,0.5-2.4c0-0.9-0.2-1.7-0.5-2.2
				c-0.4-0.5-0.9-0.8-1.5-0.8c-0.7,0-1.2,0.3-1.5,0.8C793.1,62.8,792.9,63.6,792.9,64.7z"/>
			<path class="st2" d="M804.6,57.1v2.5h1.7v2h-1.7v5c0,0.4,0.1,0.6,0.2,0.8c0.1,0.2,0.4,0.2,0.8,0.2c0.3,0,0.6,0,0.8-0.1v2
				c-0.5,0.2-1.1,0.2-1.6,0.2c-1.9,0-2.8-0.9-2.9-2.8v-5.4h-1.5v-2h1.5v-2.5H804.6z"/>
			<path class="st2" d="M807.8,57c0-0.4,0.1-0.7,0.4-1c0.3-0.3,0.6-0.4,1.1-0.4c0.5,0,0.8,0.1,1.1,0.4s0.4,0.6,0.4,1
				c0,0.4-0.1,0.7-0.4,1c-0.3,0.3-0.6,0.4-1.1,0.4s-0.8-0.1-1.1-0.4S807.8,57.4,807.8,57z M810.7,69.6H808v-10h2.7V69.6z"/>
			<path class="st2" d="M816,67.4h4.9v2.2h-8.3V68l4.7-6.2h-4.6v-2.2h8v1.6L816,67.4z"/>
			<path class="st2" d="M828.4,69.6c-0.1-0.2-0.2-0.5-0.3-0.9c-0.6,0.7-1.5,1.1-2.5,1.1c-1,0-1.8-0.3-2.4-0.9s-1-1.3-1-2.2
				c0-1.1,0.4-1.9,1.2-2.4c0.8-0.6,1.9-0.9,3.4-0.9h1.2v-0.6c0-0.5-0.1-0.8-0.4-1.1c-0.2-0.3-0.6-0.4-1.1-0.4
				c-0.5,0-0.8,0.1-1.1,0.3c-0.3,0.2-0.4,0.5-0.4,0.9h-2.7c0-0.6,0.2-1.1,0.5-1.6c0.4-0.5,0.9-0.9,1.5-1.2c0.7-0.3,1.4-0.4,2.2-0.4
				c1.2,0,2.2,0.3,2.9,0.9c0.7,0.6,1.1,1.5,1.1,2.6v4.4c0,1,0.1,1.7,0.4,2.2v0.2H828.4z M826.1,67.7c0.4,0,0.8-0.1,1.1-0.3
				c0.3-0.2,0.6-0.4,0.7-0.7V65h-1c-1.3,0-2.1,0.5-2.1,1.4l0,0.2c0,0.3,0.1,0.6,0.4,0.8C825.4,67.6,825.7,67.7,826.1,67.7z"/>
			<path class="st2" d="M836.9,67.6c0.5,0,0.9-0.1,1.2-0.4c0.3-0.3,0.5-0.6,0.5-1.1h2.5c0,0.7-0.2,1.3-0.6,1.9
				c-0.4,0.6-0.9,1-1.5,1.3c-0.6,0.3-1.3,0.5-2.1,0.5c-1.4,0-2.6-0.5-3.4-1.4s-1.2-2.2-1.2-3.8v-0.2c0-1.5,0.4-2.8,1.2-3.7
				c0.8-0.9,2-1.4,3.4-1.4c1.3,0,2.3,0.4,3,1.1c0.8,0.7,1.1,1.7,1.2,2.9h-2.5c0-0.5-0.2-0.9-0.5-1.3c-0.3-0.3-0.7-0.5-1.2-0.5
				c-0.6,0-1.1,0.2-1.4,0.7s-0.5,1.2-0.5,2.2v0.3c0,1,0.2,1.8,0.5,2.2S836.3,67.6,836.9,67.6z"/>
			<path class="st2" d="M842.6,57c0-0.4,0.1-0.7,0.4-1c0.3-0.3,0.6-0.4,1.1-0.4c0.5,0,0.8,0.1,1.1,0.4c0.3,0.3,0.4,0.6,0.4,1
				c0,0.4-0.1,0.7-0.4,1s-0.6,0.4-1.1,0.4c-0.5,0-0.8-0.1-1.1-0.4C842.8,57.7,842.6,57.4,842.6,57z M845.5,69.6h-2.7v-10h2.7V69.6z"
				/>
			<path class="st2" d="M847.3,64.5c0-1,0.2-1.9,0.6-2.7c0.4-0.8,0.9-1.4,1.7-1.8c0.7-0.4,1.6-0.6,2.5-0.6c1.4,0,2.5,0.4,3.3,1.2
				c0.9,0.8,1.3,2,1.4,3.4l0,0.7c0,1.5-0.4,2.8-1.3,3.7c-0.9,0.9-2,1.4-3.5,1.4s-2.6-0.5-3.5-1.4c-0.9-0.9-1.3-2.2-1.3-3.8V64.5z
				 M849.9,64.7c0,1,0.2,1.7,0.5,2.2s0.9,0.8,1.5,0.8c0.6,0,1.2-0.2,1.5-0.7c0.4-0.5,0.5-1.3,0.5-2.4c0-0.9-0.2-1.7-0.5-2.2
				c-0.4-0.5-0.9-0.8-1.5-0.8c-0.7,0-1.2,0.3-1.5,0.8C850.1,62.8,849.9,63.6,849.9,64.7z M852.5,55.3h2.9l-2.6,2.9h-2.2L852.5,55.3z
				"/>
			<path class="st2" d="M860.9,59.6l0.1,1.2c0.7-0.9,1.7-1.3,2.9-1.3c1.1,0,1.9,0.3,2.4,0.9c0.5,0.6,0.8,1.6,0.8,2.8v6.5h-2.7v-6.4
				c0-0.6-0.1-1-0.4-1.2c-0.2-0.3-0.7-0.4-1.2-0.4c-0.8,0-1.3,0.3-1.7,1v7.1h-2.7v-10H860.9z"/>
		</g>
		<g class="st1">
			<path class="st2" d="M700.5,107.1h-4.2v4.4H695v-10h6.2v1.1h-4.9v3.4h4.2V107.1z"/>
			<path class="st2" d="M705.5,111.6c-1,0-1.8-0.3-2.4-1c-0.6-0.7-0.9-1.5-0.9-2.6v-0.2c0-0.7,0.1-1.4,0.4-2c0.3-0.6,0.7-1,1.2-1.4
				c0.5-0.3,1-0.5,1.6-0.5c1,0,1.7,0.3,2.2,1s0.8,1.5,0.8,2.7v0.5h-5c0,0.7,0.2,1.3,0.6,1.8c0.4,0.4,0.9,0.7,1.6,0.7
				c0.4,0,0.8-0.1,1.1-0.3c0.3-0.2,0.6-0.4,0.8-0.7l0.8,0.6C707.7,111.1,706.7,111.6,705.5,111.6z M705.3,105
				c-0.5,0-0.9,0.2-1.3,0.6c-0.3,0.4-0.6,0.9-0.6,1.6h3.7V107c0-0.6-0.2-1.1-0.5-1.5C706.3,105.1,705.9,105,705.3,105z"/>
			<path class="st2" d="M712.8,110.6c0.5,0,0.8-0.1,1.2-0.4c0.3-0.3,0.5-0.6,0.6-1h1.2c0,0.4-0.2,0.8-0.4,1.2
				c-0.3,0.4-0.6,0.7-1.1,0.9c-0.4,0.2-0.9,0.3-1.4,0.3c-1,0-1.8-0.3-2.4-1c-0.6-0.7-0.9-1.6-0.9-2.8v-0.2c0-0.7,0.1-1.4,0.4-1.9
				c0.3-0.6,0.6-1,1.1-1.3c0.5-0.3,1.1-0.5,1.8-0.5c0.8,0,1.5,0.2,2.1,0.7c0.5,0.5,0.8,1.1,0.9,1.9h-1.2c0-0.5-0.2-0.9-0.5-1.2
				c-0.3-0.3-0.7-0.5-1.2-0.5c-0.6,0-1.1,0.2-1.5,0.7c-0.4,0.5-0.5,1.1-0.5,2v0.2c0,0.9,0.2,1.5,0.5,2
				C711.6,110.3,712.1,110.6,712.8,110.6z"/>
			<path class="st2" d="M718.4,105c0.6-0.7,1.3-1,2.2-1c1.6,0,2.4,0.9,2.4,2.6v4.9h-1.3v-4.9c0-0.5-0.1-0.9-0.4-1.2
				s-0.6-0.4-1.1-0.4c-0.4,0-0.8,0.1-1.1,0.3c-0.3,0.2-0.6,0.5-0.7,0.9v5.3h-1.3V101h1.3V105z"/>
			<path class="st2" d="M729.4,111.5c-0.1-0.1-0.1-0.4-0.2-0.8c-0.6,0.6-1.3,0.9-2.1,0.9c-0.7,0-1.3-0.2-1.8-0.6
				c-0.5-0.4-0.7-0.9-0.7-1.6c0-0.8,0.3-1.4,0.9-1.8c0.6-0.4,1.4-0.6,2.5-0.6h1.2v-0.6c0-0.4-0.1-0.8-0.4-1.1
				c-0.3-0.3-0.7-0.4-1.2-0.4c-0.5,0-0.8,0.1-1.1,0.3c-0.3,0.2-0.5,0.5-0.5,0.8h-1.3c0-0.4,0.1-0.7,0.4-1.1c0.3-0.3,0.6-0.6,1.1-0.8
				c0.4-0.2,0.9-0.3,1.5-0.3c0.9,0,1.5,0.2,2,0.6c0.5,0.4,0.7,1,0.8,1.8v3.4c0,0.7,0.1,1.2,0.3,1.6v0.1H729.4z M727.3,110.5
				c0.4,0,0.8-0.1,1.1-0.3s0.6-0.5,0.8-0.8v-1.5h-1c-1.5,0-2.3,0.5-2.3,1.4c0,0.4,0.1,0.7,0.4,0.9
				C726.6,110.4,726.9,110.5,727.3,110.5z"/>
		</g>
		<g class="st1">
			<path class="st2" d="M702.3,127.4c-0.1,1.1-0.5,1.9-1.2,2.4c-0.7,0.6-1.5,0.9-2.6,0.9c-1.2,0-2.1-0.4-2.8-1.3
				c-0.7-0.8-1.1-2-1.1-3.4v-1c0-0.9,0.2-1.7,0.5-2.4c0.3-0.7,0.8-1.2,1.4-1.6c0.6-0.4,1.3-0.6,2.1-0.6c1.1,0,1.9,0.3,2.5,0.9
				c0.6,0.6,1,1.4,1.1,2.5H701c-0.1-0.8-0.4-1.4-0.7-1.7c-0.4-0.4-0.9-0.5-1.6-0.5c-0.8,0-1.5,0.3-2,0.9c-0.5,0.6-0.7,1.5-0.7,2.6v1
				c0,1.1,0.2,1.9,0.7,2.6s1.1,1,1.9,1c0.7,0,1.3-0.2,1.7-0.5c0.4-0.3,0.6-0.9,0.8-1.7H702.3z"/>
			<path class="st2" d="M703.6,126.8c0-0.7,0.1-1.4,0.4-2c0.3-0.6,0.7-1,1.2-1.3c0.5-0.3,1.1-0.5,1.7-0.5c1,0,1.8,0.3,2.4,1
				s0.9,1.6,0.9,2.8v0.1c0,0.7-0.1,1.4-0.4,1.9c-0.3,0.6-0.7,1-1.2,1.3s-1.1,0.5-1.8,0.5c-1,0-1.8-0.3-2.4-1
				S703.6,128.1,703.6,126.8L703.6,126.8z M704.9,127c0,0.8,0.2,1.5,0.6,2c0.4,0.5,0.9,0.7,1.5,0.7c0.6,0,1.2-0.3,1.5-0.8
				c0.4-0.5,0.6-1.2,0.6-2.1c0-0.8-0.2-1.5-0.6-2c-0.4-0.5-0.9-0.8-1.5-0.8c-0.6,0-1.1,0.2-1.5,0.7S704.9,126.1,704.9,127z"/>
			<path class="st2" d="M713.6,121.4v1.8h1.4v1h-1.4v4.6c0,0.3,0.1,0.5,0.2,0.7s0.3,0.2,0.6,0.2c0.1,0,0.3,0,0.6-0.1v1
				c-0.3,0.1-0.7,0.1-1,0.1c-0.6,0-1-0.2-1.3-0.5s-0.4-0.8-0.4-1.5v-4.6H711v-1h1.3v-1.8H713.6z"/>
			<path class="st2" d="M716.5,121.2c0-0.2,0.1-0.4,0.2-0.5c0.1-0.1,0.3-0.2,0.6-0.2s0.4,0.1,0.6,0.2c0.1,0.1,0.2,0.3,0.2,0.5
				s-0.1,0.4-0.2,0.5c-0.1,0.1-0.3,0.2-0.6,0.2s-0.4-0.1-0.6-0.2C716.6,121.6,716.5,121.4,716.5,121.2z M717.9,130.6h-1.3v-7.4h1.3
				V130.6z"/>
			<path class="st2" d="M721.1,129.6h4.3v1h-5.9v-0.9l4.1-5.4h-4v-1h5.6v0.9L721.1,129.6z"/>
			<path class="st2" d="M731.4,130.6c-0.1-0.1-0.1-0.4-0.2-0.8c-0.6,0.6-1.3,0.9-2.1,0.9c-0.7,0-1.3-0.2-1.8-0.6
				c-0.5-0.4-0.7-0.9-0.7-1.6c0-0.8,0.3-1.4,0.9-1.8c0.6-0.4,1.4-0.6,2.5-0.6h1.2v-0.6c0-0.4-0.1-0.8-0.4-1.1
				c-0.3-0.3-0.7-0.4-1.2-0.4c-0.5,0-0.8,0.1-1.1,0.3c-0.3,0.2-0.5,0.5-0.5,0.8h-1.3c0-0.4,0.1-0.7,0.4-1.1c0.3-0.3,0.6-0.6,1.1-0.8
				c0.4-0.2,0.9-0.3,1.5-0.3c0.9,0,1.5,0.2,2,0.6c0.5,0.4,0.7,1,0.8,1.8v3.4c0,0.7,0.1,1.2,0.3,1.6v0.1H731.4z M729.3,129.6
				c0.4,0,0.8-0.1,1.1-0.3s0.6-0.5,0.8-0.8V127h-1c-1.5,0-2.3,0.5-2.3,1.4c0,0.4,0.1,0.7,0.4,0.9
				C728.5,129.5,728.9,129.6,729.3,129.6z"/>
			<path class="st2" d="M737.4,129.7c0.5,0,0.8-0.1,1.2-0.4c0.3-0.3,0.5-0.6,0.6-1h1.2c0,0.4-0.2,0.8-0.4,1.2
				c-0.3,0.4-0.6,0.7-1.1,0.9c-0.4,0.2-0.9,0.3-1.4,0.3c-1,0-1.8-0.3-2.4-1c-0.6-0.7-0.9-1.6-0.9-2.8v-0.2c0-0.7,0.1-1.4,0.4-1.9
				c0.3-0.6,0.6-1,1.1-1.3c0.5-0.3,1.1-0.5,1.8-0.5c0.8,0,1.5,0.2,2.1,0.7c0.5,0.5,0.8,1.1,0.9,1.9h-1.2c0-0.5-0.2-0.9-0.5-1.2
				c-0.3-0.3-0.7-0.5-1.2-0.5c-0.6,0-1.1,0.2-1.5,0.7c-0.4,0.5-0.5,1.1-0.5,2v0.2c0,0.9,0.2,1.5,0.5,2
				C736.3,129.5,736.8,129.7,737.4,129.7z"/>
			<path class="st2" d="M741.8,121.2c0-0.2,0.1-0.4,0.2-0.5c0.1-0.1,0.3-0.2,0.6-0.2s0.4,0.1,0.6,0.2c0.1,0.1,0.2,0.3,0.2,0.5
				s-0.1,0.4-0.2,0.5c-0.1,0.1-0.3,0.2-0.6,0.2s-0.4-0.1-0.6-0.2C741.8,121.6,741.8,121.4,741.8,121.2z M743.1,130.6h-1.3v-7.4h1.3
				V130.6z"/>
			<path class="st2" d="M744.8,126.8c0-0.7,0.1-1.4,0.4-2c0.3-0.6,0.7-1,1.2-1.3c0.5-0.3,1.1-0.5,1.7-0.5c1,0,1.8,0.3,2.4,1
				s0.9,1.6,0.9,2.8v0.1c0,0.7-0.1,1.4-0.4,1.9c-0.3,0.6-0.7,1-1.2,1.3s-1.1,0.5-1.8,0.5c-1,0-1.8-0.3-2.4-1
				S744.8,128.1,744.8,126.8L744.8,126.8z M746.1,127c0,0.8,0.2,1.5,0.6,2c0.4,0.5,0.9,0.7,1.5,0.7c0.6,0,1.2-0.3,1.5-0.8
				c0.4-0.5,0.6-1.2,0.6-2.1c0-0.8-0.2-1.5-0.6-2c-0.4-0.5-0.9-0.8-1.5-0.8c-0.6,0-1.1,0.2-1.5,0.7S746.1,126.1,746.1,127z
				 M748.8,120.1h1.5l-1.8,2l-1,0L748.8,120.1z"/>
			<path class="st2" d="M754.3,123.2l0,0.9c0.6-0.7,1.3-1.1,2.2-1.1c1.6,0,2.4,0.9,2.4,2.6v4.9h-1.3v-4.9c0-0.5-0.1-0.9-0.4-1.2
				s-0.6-0.4-1.1-0.4c-0.4,0-0.8,0.1-1.1,0.3c-0.3,0.2-0.6,0.5-0.7,0.9v5.3h-1.3v-7.4H754.3z"/>
			<path class="st2" d="M772.2,130.6h-1.3l-5-7.7v7.7h-1.3v-10h1.3l5,7.7v-7.7h1.3V130.6z"/>
			<path class="st2" d="M774,126.8c0-0.7,0.1-1.4,0.4-2c0.3-0.6,0.7-1,1.2-1.3c0.5-0.3,1.1-0.5,1.7-0.5c1,0,1.8,0.3,2.4,1
				s0.9,1.6,0.9,2.8v0.1c0,0.7-0.1,1.4-0.4,1.9c-0.3,0.6-0.7,1-1.2,1.3s-1.1,0.5-1.8,0.5c-1,0-1.8-0.3-2.4-1S774,128.1,774,126.8
				L774,126.8z M775.3,127c0,0.8,0.2,1.5,0.6,2c0.4,0.5,0.9,0.7,1.5,0.7c0.6,0,1.2-0.3,1.5-0.8c0.4-0.5,0.6-1.2,0.6-2.1
				c0-0.8-0.2-1.5-0.6-2c-0.4-0.5-0.9-0.8-1.5-0.8c-0.6,0-1.1,0.2-1.5,0.7S775.3,126.1,775.3,127z"/>
			<path class="st2" d="M782.3,129.9c0-0.2,0.1-0.4,0.2-0.5s0.3-0.2,0.6-0.2s0.5,0.1,0.6,0.2c0.1,0.1,0.2,0.3,0.2,0.5
				c0,0.2-0.1,0.4-0.2,0.5c-0.1,0.1-0.3,0.2-0.6,0.2s-0.5-0.1-0.6-0.2S782.3,130.1,782.3,129.9z"/>
		</g>
		<g class="st1">
			<path class="st2" d="M698.3,148.3l2.8-8.2h1.4l-3.7,10h-1.2l-3.7-10h1.4L698.3,148.3z"/>
			<path class="st2" d="M708,150c-0.1-0.1-0.1-0.4-0.2-0.8c-0.6,0.6-1.3,0.9-2.1,0.9c-0.7,0-1.3-0.2-1.8-0.6
				c-0.5-0.4-0.7-0.9-0.7-1.6c0-0.8,0.3-1.4,0.9-1.8c0.6-0.4,1.4-0.6,2.5-0.6h1.2V145c0-0.4-0.1-0.8-0.4-1.1
				c-0.3-0.3-0.7-0.4-1.2-0.4c-0.5,0-0.8,0.1-1.1,0.3c-0.3,0.2-0.5,0.5-0.5,0.8h-1.3c0-0.4,0.1-0.7,0.4-1.1c0.3-0.3,0.6-0.6,1.1-0.8
				c0.4-0.2,0.9-0.3,1.5-0.3c0.9,0,1.5,0.2,2,0.6c0.5,0.4,0.7,1,0.8,1.8v3.4c0,0.7,0.1,1.2,0.3,1.6v0.1H708z M705.9,149.1
				c0.4,0,0.8-0.1,1.1-0.3s0.6-0.5,0.8-0.8v-1.5h-1c-1.5,0-2.3,0.5-2.3,1.4c0,0.4,0.1,0.7,0.4,0.9
				C705.1,149,705.5,149.1,705.9,149.1z"/>
			<path class="st2" d="M712.4,150h-1.3v-10.5h1.3V150z"/>
			<path class="st2" d="M714.4,140.7c0-0.2,0.1-0.4,0.2-0.5c0.1-0.1,0.3-0.2,0.6-0.2s0.4,0.1,0.6,0.2c0.1,0.1,0.2,0.3,0.2,0.5
				s-0.1,0.4-0.2,0.5c-0.1,0.1-0.3,0.2-0.6,0.2s-0.4-0.1-0.6-0.2C714.5,141,714.4,140.9,714.4,140.7z M715.8,150h-1.3v-7.4h1.3V150z
				"/>
			<path class="st2" d="M717.5,146.3c0-1.1,0.3-2,0.8-2.7c0.5-0.7,1.2-1,2.1-1c0.9,0,1.6,0.3,2.1,0.9v-3.9h1.3V150h-1.2l-0.1-0.8
				c-0.5,0.6-1.2,0.9-2.1,0.9c-0.9,0-1.6-0.4-2.1-1.1S717.5,147.5,717.5,146.3L717.5,146.3z M718.8,146.4c0,0.8,0.2,1.5,0.5,2
				c0.3,0.5,0.8,0.7,1.4,0.7c0.8,0,1.4-0.4,1.8-1.1v-3.4c-0.4-0.7-1-1-1.7-1c-0.6,0-1.1,0.2-1.4,0.7
				C719,144.8,718.8,145.5,718.8,146.4z"/>
			<path class="st2" d="M725.4,146.3c0-0.7,0.1-1.4,0.4-2c0.3-0.6,0.7-1,1.2-1.3c0.5-0.3,1.1-0.5,1.7-0.5c1,0,1.8,0.3,2.4,1
				s0.9,1.6,0.9,2.8v0.1c0,0.7-0.1,1.4-0.4,1.9c-0.3,0.6-0.7,1-1.2,1.3s-1.1,0.5-1.8,0.5c-1,0-1.8-0.3-2.4-1
				S725.4,147.5,725.4,146.3L725.4,146.3z M726.7,146.4c0,0.8,0.2,1.5,0.6,2c0.4,0.5,0.9,0.7,1.5,0.7c0.6,0,1.2-0.3,1.5-0.8
				c0.4-0.5,0.6-1.2,0.6-2.1c0-0.8-0.2-1.5-0.6-2c-0.4-0.5-0.9-0.8-1.5-0.8c-0.6,0-1.1,0.2-1.5,0.7S726.7,145.5,726.7,146.4z"/>
			<path class="st2" d="M738.4,143.5c0.6-0.7,1.3-1,2.2-1c1.6,0,2.4,0.9,2.4,2.6v4.9h-1.3v-4.9c0-0.5-0.1-0.9-0.4-1.2
				s-0.6-0.4-1.1-0.4c-0.4,0-0.8,0.1-1.1,0.3c-0.3,0.2-0.6,0.5-0.7,0.9v5.3h-1.3v-10.5h1.3V143.5z"/>
			<path class="st2" d="M749.4,150c-0.1-0.1-0.1-0.4-0.2-0.8c-0.6,0.6-1.3,0.9-2.1,0.9c-0.7,0-1.3-0.2-1.8-0.6
				c-0.5-0.4-0.7-0.9-0.7-1.6c0-0.8,0.3-1.4,0.9-1.8c0.6-0.4,1.4-0.6,2.5-0.6h1.2V145c0-0.4-0.1-0.8-0.4-1.1
				c-0.3-0.3-0.7-0.4-1.2-0.4c-0.5,0-0.8,0.1-1.1,0.3c-0.3,0.2-0.5,0.5-0.5,0.8h-1.3c0-0.4,0.1-0.7,0.4-1.1c0.3-0.3,0.6-0.6,1.1-0.8
				c0.4-0.2,0.9-0.3,1.5-0.3c0.9,0,1.5,0.2,2,0.6c0.5,0.4,0.7,1,0.8,1.8v3.4c0,0.7,0.1,1.2,0.3,1.6v0.1H749.4z M747.3,149.1
				c0.4,0,0.8-0.1,1.1-0.3s0.6-0.5,0.8-0.8v-1.5h-1c-1.5,0-2.3,0.5-2.3,1.4c0,0.4,0.1,0.7,0.4,0.9
				C746.6,149,746.9,149.1,747.3,149.1z"/>
			<path class="st2" d="M756.8,148.1c0-0.3-0.1-0.6-0.4-0.8c-0.3-0.2-0.7-0.4-1.3-0.5c-0.6-0.1-1.1-0.3-1.5-0.5s-0.7-0.4-0.8-0.7
				c-0.2-0.3-0.3-0.6-0.3-0.9c0-0.6,0.3-1.1,0.8-1.5s1.2-0.6,2-0.6c0.8,0,1.5,0.2,2,0.6c0.5,0.4,0.8,1,0.8,1.7h-1.3
				c0-0.3-0.1-0.6-0.4-0.9s-0.7-0.4-1.1-0.4c-0.5,0-0.8,0.1-1.1,0.3s-0.4,0.5-0.4,0.8c0,0.3,0.1,0.5,0.4,0.7
				c0.2,0.2,0.7,0.3,1.3,0.4c0.6,0.1,1.1,0.3,1.5,0.5c0.4,0.2,0.7,0.4,0.9,0.7c0.2,0.3,0.3,0.6,0.3,1c0,0.7-0.3,1.2-0.8,1.6
				c-0.5,0.4-1.2,0.6-2.1,0.6c-0.6,0-1.1-0.1-1.6-0.3c-0.5-0.2-0.8-0.5-1.1-0.9c-0.3-0.4-0.4-0.8-0.4-1.2h1.3c0,0.4,0.2,0.8,0.5,1
				c0.3,0.2,0.7,0.4,1.3,0.4c0.5,0,0.9-0.1,1.2-0.3C756.7,148.7,756.8,148.4,756.8,148.1z"/>
			<path class="st2" d="M761.4,140.8v1.8h1.4v1h-1.4v4.6c0,0.3,0.1,0.5,0.2,0.7s0.3,0.2,0.6,0.2c0.1,0,0.3,0,0.6-0.1v1
				c-0.3,0.1-0.7,0.1-1,0.1c-0.6,0-1-0.2-1.3-0.5s-0.4-0.8-0.4-1.5v-4.6h-1.3v-1h1.3v-1.8H761.4z"/>
			<path class="st2" d="M768.9,150c-0.1-0.1-0.1-0.4-0.2-0.8c-0.6,0.6-1.3,0.9-2.1,0.9c-0.7,0-1.3-0.2-1.8-0.6
				c-0.5-0.4-0.7-0.9-0.7-1.6c0-0.8,0.3-1.4,0.9-1.8c0.6-0.4,1.4-0.6,2.5-0.6h1.2V145c0-0.4-0.1-0.8-0.4-1.1
				c-0.3-0.3-0.7-0.4-1.2-0.4c-0.5,0-0.8,0.1-1.1,0.3c-0.3,0.2-0.5,0.5-0.5,0.8h-1.3c0-0.4,0.1-0.7,0.4-1.1c0.3-0.3,0.6-0.6,1.1-0.8
				c0.4-0.2,0.9-0.3,1.5-0.3c0.9,0,1.5,0.2,2,0.6c0.5,0.4,0.7,1,0.8,1.8v3.4c0,0.7,0.1,1.2,0.3,1.6v0.1H768.9z M766.8,149.1
				c0.4,0,0.8-0.1,1.1-0.3s0.6-0.5,0.8-0.8v-1.5h-1c-1.5,0-2.3,0.5-2.3,1.4c0,0.4,0.1,0.7,0.4,0.9C766,149,766.3,149.1,766.8,149.1z
				"/>
		</g>
		<g class="st1">
			<path class="st2" d="M31.7,382.6c-0.1,1.4-0.6,2.5-1.5,3.3s-2.1,1.2-3.6,1.2c-1.6,0-2.9-0.6-3.9-1.7s-1.4-2.6-1.4-4.5v-0.8
				c0-1.2,0.2-2.3,0.7-3.3s1.1-1.7,1.9-2.2c0.8-0.5,1.7-0.8,2.8-0.8c1.5,0,2.7,0.4,3.6,1.2s1.4,1.9,1.6,3.3h-2.6
				c-0.1-0.8-0.3-1.4-0.7-1.8s-1-0.6-1.8-0.6c-0.9,0-1.5,0.3-2,0.9s-0.7,1.6-0.7,2.9v1c0,1.4,0.2,2.4,0.6,3s1.1,1,2,1
				c0.8,0,1.4-0.2,1.8-0.6s0.6-0.9,0.7-1.7H31.7z"/>
			<path class="st2" d="M38.7,386.9c-0.1-0.2-0.2-0.5-0.3-0.9c-0.6,0.7-1.4,1-2.4,1c-0.9,0-1.7-0.3-2.3-0.8s-0.9-1.2-0.9-2
				c0-1,0.4-1.8,1.1-2.3s1.8-0.8,3.2-0.8h1.2v-0.5c0-0.4-0.1-0.8-0.3-1.1s-0.6-0.4-1.1-0.4c-0.4,0-0.8,0.1-1,0.3s-0.4,0.5-0.4,0.8
				h-2.5c0-0.6,0.2-1.1,0.5-1.5s0.8-0.8,1.4-1.1s1.3-0.4,2.1-0.4c1.2,0,2.1,0.3,2.8,0.9c0.7,0.6,1,1.4,1,2.5v4.1
				c0,0.9,0.1,1.6,0.4,2v0.1H38.7z M36.6,385.1c0.4,0,0.7-0.1,1-0.3c0.3-0.2,0.6-0.4,0.7-0.7v-1.6h-0.9c-1.3,0-1.9,0.4-2,1.3l0,0.1
				c0,0.3,0.1,0.6,0.3,0.8S36.3,385.1,36.6,385.1z"/>
			<path class="st2" d="M45.2,377.4l0.1,1.1c0.7-0.8,1.6-1.3,2.7-1.3c1,0,1.8,0.3,2.2,0.9s0.7,1.5,0.8,2.7v6.1h-2.5v-6.1
				c0-0.5-0.1-0.9-0.4-1.2c-0.2-0.2-0.6-0.4-1.2-0.4c-0.7,0-1.3,0.3-1.6,0.9v6.7h-2.5v-9.5H45.2z"/>
			<path class="st2" d="M56,375.1v2.3h1.6v1.9H56v4.7c0,0.4,0.1,0.6,0.2,0.8s0.4,0.2,0.8,0.2c0.3,0,0.5,0,0.7-0.1v1.9
				c-0.5,0.2-1,0.2-1.5,0.2c-1.8,0-2.7-0.9-2.7-2.7v-5.1h-1.4v-1.9h1.4v-2.3H56z"/>
			<path class="st2" d="M59,374.9c0-0.4,0.1-0.7,0.4-0.9s0.6-0.4,1-0.4c0.4,0,0.8,0.1,1,0.4s0.4,0.6,0.4,0.9c0,0.4-0.1,0.7-0.4,0.9
				s-0.6,0.4-1,0.4s-0.8-0.1-1-0.4S59,375.3,59,374.9z M61.7,386.9h-2.5v-9.5h2.5V386.9z"/>
			<path class="st2" d="M63.4,382.1c0-1.5,0.3-2.7,1-3.5s1.6-1.3,2.7-1.3c0.9,0,1.7,0.3,2.3,1v-4.9H72v13.5h-2.3l-0.1-1
				c-0.6,0.8-1.4,1.2-2.4,1.2c-1.1,0-2-0.4-2.7-1.3S63.4,383.6,63.4,382.1z M66,382.3c0,0.9,0.2,1.6,0.5,2.1
				c0.3,0.5,0.8,0.7,1.4,0.7c0.8,0,1.3-0.3,1.7-1v-3.8c-0.3-0.7-0.9-1-1.6-1C66.6,379.3,66,380.3,66,382.3z"/>
			<path class="st2" d="M79.5,386.9c-0.1-0.2-0.2-0.5-0.3-0.9c-0.6,0.7-1.4,1-2.4,1c-0.9,0-1.7-0.3-2.3-0.8s-0.9-1.2-0.9-2
				c0-1,0.4-1.8,1.1-2.3s1.8-0.8,3.2-0.8h1.2v-0.5c0-0.4-0.1-0.8-0.3-1.1s-0.6-0.4-1.1-0.4c-0.4,0-0.8,0.1-1,0.3s-0.4,0.5-0.4,0.8
				h-2.5c0-0.6,0.2-1.1,0.5-1.5s0.8-0.8,1.4-1.1s1.3-0.4,2.1-0.4c1.2,0,2.1,0.3,2.8,0.9c0.7,0.6,1,1.4,1,2.5v4.1
				c0,0.9,0.1,1.6,0.4,2v0.1H79.5z M77.4,385.1c0.4,0,0.7-0.1,1-0.3c0.3-0.2,0.6-0.4,0.7-0.7v-1.6h-0.9c-1.3,0-1.9,0.4-2,1.3l0,0.1
				c0,0.3,0.1,0.6,0.3,0.8S77,385.1,77.4,385.1z"/>
			<path class="st2" d="M83.2,382.1c0-1.5,0.3-2.7,1-3.5s1.6-1.3,2.7-1.3c0.9,0,1.7,0.3,2.3,1v-4.9h2.5v13.5h-2.3l-0.1-1
				c-0.6,0.8-1.4,1.2-2.4,1.2c-1.1,0-2-0.4-2.7-1.3S83.2,383.6,83.2,382.1z M85.8,382.3c0,0.9,0.2,1.6,0.5,2.1
				c0.3,0.5,0.8,0.7,1.4,0.7c0.8,0,1.3-0.3,1.7-1v-3.8c-0.3-0.7-0.9-1-1.6-1C86.4,379.3,85.8,380.3,85.8,382.3z"/>
		</g>
		<g class="st1">
			<path class="st2" d="M137.5,386.9h-2.6l-5.1-8.4v8.4h-2.6v-12.8h2.6l5.1,8.4v-8.4h2.6V386.9z"/>
			<path class="st2" d="M139.3,382.1c0-0.9,0.2-1.8,0.5-2.5s0.9-1.3,1.6-1.7s1.5-0.6,2.4-0.6c1.3,0,2.3,0.4,3.1,1.2s1.3,1.9,1.4,3.2
				l0,0.7c0,1.5-0.4,2.6-1.2,3.5s-1.9,1.3-3.3,1.3s-2.5-0.4-3.3-1.3s-1.2-2.1-1.2-3.6V382.1z M141.8,382.2c0,0.9,0.2,1.6,0.5,2.1
				c0.3,0.5,0.8,0.7,1.5,0.7c0.6,0,1.1-0.2,1.4-0.7c0.3-0.5,0.5-1.2,0.5-2.3c0-0.9-0.2-1.6-0.5-2.1s-0.8-0.7-1.5-0.7
				c-0.6,0-1.1,0.2-1.4,0.7C142,380.5,141.8,381.2,141.8,382.2z"/>
			<path class="st2" d="M152.2,377.4l0.1,1.1c0.7-0.8,1.6-1.2,2.7-1.2c1.2,0,2.1,0.5,2.5,1.5c0.7-1,1.6-1.5,2.9-1.5
				c1,0,1.8,0.3,2.3,0.9c0.5,0.6,0.8,1.5,0.8,2.7v6.1h-2.5v-6.1c0-0.5-0.1-0.9-0.3-1.2c-0.2-0.2-0.6-0.4-1.1-0.4
				c-0.8,0-1.3,0.4-1.6,1.1l0,6.5h-2.5v-6.1c0-0.6-0.1-1-0.3-1.2c-0.2-0.2-0.6-0.4-1.1-0.4c-0.7,0-1.2,0.3-1.6,0.9v6.7h-2.5v-9.5
				H152.2z"/>
			<path class="st2" d="M174,382.2c0,1.5-0.3,2.7-1,3.6c-0.7,0.9-1.6,1.3-2.7,1.3c-1,0-1.9-0.4-2.5-1.2l-0.1,1h-2.3v-13.5h2.5v4.8
				c0.6-0.7,1.4-1,2.3-1c1.2,0,2.1,0.4,2.7,1.3c0.7,0.9,1,2.1,1,3.6V382.2z M171.4,382c0-1-0.2-1.7-0.5-2.1
				c-0.3-0.4-0.8-0.7-1.4-0.7c-0.8,0-1.4,0.3-1.7,1v3.8c0.3,0.7,0.9,1,1.7,1c0.8,0,1.4-0.4,1.6-1.2
				C171.4,383.4,171.4,382.8,171.4,382z"/>
			<path class="st2" d="M180.9,379.8c-0.3,0-0.7-0.1-0.9-0.1c-1,0-1.6,0.3-1.9,1v6.2h-2.5v-9.5h2.4l0.1,1.1c0.5-0.9,1.2-1.3,2.1-1.3
				c0.3,0,0.5,0,0.8,0.1L180.9,379.8z"/>
			<path class="st2" d="M186.3,387.1c-1.4,0-2.5-0.4-3.4-1.3s-1.3-2-1.3-3.4v-0.2c0-1,0.2-1.8,0.6-2.6s0.9-1.3,1.6-1.7
				s1.4-0.6,2.3-0.6c1.3,0,2.3,0.4,3.1,1.2s1.1,2,1.1,3.5v1h-6.1c0.1,0.6,0.3,1.1,0.7,1.5s0.9,0.6,1.6,0.6c1,0,1.7-0.4,2.3-1.1
				l1.2,1.4c-0.4,0.5-0.9,1-1.5,1.3C187.8,386.9,187.1,387.1,186.3,387.1z M186,379.3c-0.5,0-0.9,0.2-1.2,0.5
				c-0.3,0.3-0.5,0.8-0.6,1.5h3.5V381c0-0.6-0.2-1-0.5-1.3C187,379.4,186.6,379.3,186,379.3z"/>
			<path class="st2" d="M195.8,382.1c0-1.5,0.3-2.7,1-3.5s1.6-1.3,2.7-1.3c0.9,0,1.7,0.3,2.3,1v-4.9h2.5v13.5H202l-0.1-1
				c-0.6,0.8-1.4,1.2-2.4,1.2c-1.1,0-2-0.4-2.7-1.3S195.8,383.6,195.8,382.1z M198.3,382.3c0,0.9,0.2,1.6,0.5,2.1
				c0.3,0.5,0.8,0.7,1.4,0.7c0.8,0,1.3-0.3,1.7-1v-3.8c-0.3-0.7-0.9-1-1.6-1C198.9,379.3,198.3,380.3,198.3,382.3z"/>
			<path class="st2" d="M210.7,387.1c-1.4,0-2.5-0.4-3.4-1.3s-1.3-2-1.3-3.4v-0.2c0-1,0.2-1.8,0.6-2.6s0.9-1.3,1.6-1.7
				s1.4-0.6,2.3-0.6c1.3,0,2.3,0.4,3.1,1.2s1.1,2,1.1,3.5v1h-6.1c0.1,0.6,0.3,1.1,0.7,1.5s0.9,0.6,1.6,0.6c1,0,1.7-0.4,2.3-1.1
				l1.2,1.4c-0.4,0.5-0.9,1-1.5,1.3C212.2,386.9,211.5,387.1,210.7,387.1z M210.4,379.3c-0.5,0-0.9,0.2-1.2,0.5
				c-0.3,0.3-0.5,0.8-0.6,1.5h3.5V381c0-0.6-0.2-1-0.5-1.3C211.3,379.4,210.9,379.3,210.4,379.3z"/>
			<path class="st2" d="M218.7,386.9h-2.5v-13.5h2.5V386.9z"/>
			<path class="st2" d="M233.8,382.2c0,1.5-0.3,2.6-1,3.5s-1.6,1.3-2.7,1.3c-1,0-1.7-0.3-2.3-1v4.5h-2.5v-13.2h2.4l0.1,0.9
				c0.6-0.7,1.4-1.1,2.4-1.1c1.2,0,2.1,0.4,2.7,1.3s1,2.1,1,3.6V382.2z M231.3,382c0-0.9-0.2-1.6-0.5-2.1c-0.3-0.5-0.8-0.7-1.4-0.7
				c-0.8,0-1.3,0.3-1.6,0.9v3.9c0.3,0.6,0.9,0.9,1.7,0.9C230.7,385,231.3,384,231.3,382z"/>
			<path class="st2" d="M240.8,379.8c-0.3,0-0.7-0.1-0.9-0.1c-1,0-1.6,0.3-1.9,1v6.2h-2.5v-9.5h2.4l0.1,1.1c0.5-0.9,1.2-1.3,2.1-1.3
				c0.3,0,0.5,0,0.8,0.1L240.8,379.8z"/>
			<path class="st2" d="M241.3,382.1c0-0.9,0.2-1.8,0.5-2.5s0.9-1.3,1.6-1.7s1.5-0.6,2.4-0.6c1.3,0,2.3,0.4,3.1,1.2s1.3,1.9,1.4,3.2
				l0,0.7c0,1.5-0.4,2.6-1.2,3.5s-1.9,1.3-3.3,1.3s-2.5-0.4-3.3-1.3s-1.2-2.1-1.2-3.6V382.1z M243.8,382.2c0,0.9,0.2,1.6,0.5,2.1
				c0.3,0.5,0.8,0.7,1.5,0.7c0.6,0,1.1-0.2,1.4-0.7c0.3-0.5,0.5-1.2,0.5-2.3c0-0.9-0.2-1.6-0.5-2.1s-0.8-0.7-1.5-0.7
				c-0.6,0-1.1,0.2-1.4,0.7C244,380.5,243.8,381.2,243.8,382.2z"/>
			<path class="st2" d="M251.4,382.1c0-1.5,0.3-2.7,1-3.5s1.6-1.3,2.7-1.3c0.9,0,1.7,0.3,2.3,1v-4.9h2.5v13.5h-2.3l-0.1-1
				c-0.6,0.8-1.4,1.2-2.4,1.2c-1.1,0-2-0.4-2.7-1.3S251.4,383.6,251.4,382.1z M254,382.3c0,0.9,0.2,1.6,0.5,2.1
				c0.3,0.5,0.8,0.7,1.4,0.7c0.8,0,1.3-0.3,1.7-1v-3.8c-0.3-0.7-0.9-1-1.6-1C254.6,379.3,254,380.3,254,382.3z"/>
			<path class="st2" d="M267.7,385.9c-0.6,0.8-1.5,1.1-2.6,1.1c-1,0-1.8-0.3-2.3-0.9s-0.8-1.4-0.8-2.6v-6.2h2.5v6.2
				c0,1,0.5,1.5,1.4,1.5c0.9,0,1.5-0.3,1.8-0.9v-6.7h2.5v9.5h-2.4L267.7,385.9z"/>
			<path class="st2" d="M276,385c0.5,0,0.8-0.1,1.1-0.4s0.4-0.6,0.5-1h2.4c0,0.6-0.2,1.2-0.5,1.8c-0.3,0.5-0.8,1-1.4,1.2
				c-0.6,0.3-1.3,0.4-2,0.4c-1.4,0-2.4-0.4-3.2-1.3c-0.8-0.9-1.2-2.1-1.2-3.6V382c0-1.5,0.4-2.6,1.2-3.5s1.8-1.3,3.2-1.3
				c1.2,0,2.1,0.3,2.9,1c0.7,0.7,1.1,1.6,1.1,2.7h-2.4c0-0.5-0.2-0.9-0.5-1.2s-0.7-0.5-1.2-0.5c-0.6,0-1,0.2-1.3,0.6
				c-0.3,0.4-0.5,1.1-0.5,2.1v0.3c0,1,0.1,1.7,0.4,2.1S275.4,385,276,385z"/>
			<path class="st2" d="M284.5,375.1v2.3h1.6v1.9h-1.6v4.7c0,0.4,0.1,0.6,0.2,0.8s0.4,0.2,0.8,0.2c0.3,0,0.5,0,0.7-0.1v1.9
				c-0.5,0.2-1,0.2-1.5,0.2c-1.8,0-2.7-0.9-2.7-2.7v-5.1h-1.4v-1.9h1.4v-2.3H284.5z"/>
			<path class="st2" d="M286.9,382.1c0-0.9,0.2-1.8,0.5-2.5s0.9-1.3,1.6-1.7s1.5-0.6,2.4-0.6c1.3,0,2.3,0.4,3.1,1.2s1.3,1.9,1.4,3.2
				l0,0.7c0,1.5-0.4,2.6-1.2,3.5s-1.9,1.3-3.3,1.3s-2.5-0.4-3.3-1.3s-1.2-2.1-1.2-3.6V382.1z M289.4,382.2c0,0.9,0.2,1.6,0.5,2.1
				c0.3,0.5,0.8,0.7,1.5,0.7c0.6,0,1.1-0.2,1.4-0.7c0.3-0.5,0.5-1.2,0.5-2.3c0-0.9-0.2-1.6-0.5-2.1s-0.8-0.7-1.5-0.7
				c-0.6,0-1.1,0.2-1.4,0.7C289.6,380.5,289.4,381.2,289.4,382.2z"/>
		</g>
		<g class="st1">
			<path class="st2" d="M343.9,386.9v-12.8h3.9c1.1,0,2.1,0.3,3,0.8c0.9,0.5,1.6,1.2,2.1,2.2c0.5,0.9,0.7,2,0.7,3.2v0.6
				c0,1.2-0.2,2.2-0.7,3.2s-1.2,1.6-2.1,2.2s-1.9,0.8-3,0.8H343.9z M346.5,376.2v8.5h1.3c1,0,1.8-0.3,2.4-1s0.8-1.6,0.8-2.9v-0.7
				c0-1.3-0.3-2.3-0.8-3s-1.3-1-2.4-1H346.5z"/>
			<path class="st2" d="M359.8,387.1c-1.4,0-2.5-0.4-3.4-1.3s-1.3-2-1.3-3.4v-0.2c0-1,0.2-1.8,0.6-2.6s0.9-1.3,1.6-1.7
				s1.4-0.6,2.3-0.6c1.3,0,2.3,0.4,3.1,1.2s1.1,2,1.1,3.5v1h-6.1c0.1,0.6,0.3,1.1,0.7,1.5s0.9,0.6,1.6,0.6c1,0,1.7-0.4,2.3-1.1
				l1.2,1.4c-0.4,0.5-0.9,1-1.5,1.3C361.3,386.9,360.6,387.1,359.8,387.1z M359.5,379.3c-0.5,0-0.9,0.2-1.2,0.5
				c-0.3,0.3-0.5,0.8-0.6,1.5h3.5V381c0-0.6-0.2-1-0.5-1.3C360.5,379.4,360,379.3,359.5,379.3z"/>
			<path class="st2" d="M370.3,384.3c0-0.3-0.2-0.6-0.5-0.7s-0.8-0.3-1.5-0.5c-2.3-0.5-3.4-1.4-3.4-2.9c0-0.8,0.4-1.5,1.1-2.1
				c0.7-0.6,1.6-0.8,2.7-0.8c1.2,0,2.2,0.3,2.9,0.9s1.1,1.3,1.1,2.2h-2.5c0-0.4-0.1-0.7-0.4-0.9c-0.2-0.2-0.6-0.4-1.1-0.4
				c-0.4,0-0.8,0.1-1,0.3s-0.4,0.4-0.4,0.7c0,0.3,0.1,0.5,0.4,0.7c0.3,0.2,0.7,0.3,1.3,0.4s1.2,0.3,1.6,0.4c1.3,0.5,2,1.3,2,2.6
				c0,0.9-0.4,1.6-1.1,2.1c-0.7,0.5-1.7,0.8-2.9,0.8c-0.8,0-1.5-0.1-2.1-0.4c-0.6-0.3-1.1-0.7-1.5-1.2c-0.4-0.5-0.5-1-0.5-1.6h2.4
				c0,0.5,0.2,0.8,0.5,1s0.7,0.4,1.2,0.4c0.5,0,0.9-0.1,1.1-0.3C370.2,384.8,370.3,384.6,370.3,384.3z"/>
			<path class="st2" d="M378.4,385c0.5,0,0.8-0.1,1.1-0.4s0.4-0.6,0.5-1h2.4c0,0.6-0.2,1.2-0.5,1.8c-0.3,0.5-0.8,1-1.4,1.2
				c-0.6,0.3-1.3,0.4-2,0.4c-1.4,0-2.4-0.4-3.2-1.3c-0.8-0.9-1.2-2.1-1.2-3.6V382c0-1.5,0.4-2.6,1.2-3.5s1.8-1.3,3.2-1.3
				c1.2,0,2.1,0.3,2.9,1c0.7,0.7,1.1,1.6,1.1,2.7H380c0-0.5-0.2-0.9-0.5-1.2s-0.7-0.5-1.2-0.5c-0.6,0-1,0.2-1.3,0.6
				c-0.3,0.4-0.5,1.1-0.5,2.1v0.3c0,1,0.1,1.7,0.4,2.1S377.7,385,378.4,385z"/>
			<path class="st2" d="M389.1,379.8c-0.3,0-0.7-0.1-0.9-0.1c-1,0-1.6,0.3-1.9,1v6.2h-2.5v-9.5h2.4l0.1,1.1c0.5-0.9,1.2-1.3,2.1-1.3
				c0.3,0,0.5,0,0.8,0.1L389.1,379.8z"/>
			<path class="st2" d="M390.3,374.9c0-0.4,0.1-0.7,0.4-0.9s0.6-0.4,1-0.4c0.4,0,0.8,0.1,1,0.4s0.4,0.6,0.4,0.9
				c0,0.4-0.1,0.7-0.4,0.9s-0.6,0.4-1,0.4s-0.8-0.1-1-0.4S390.3,375.3,390.3,374.9z M393,386.9h-2.5v-9.5h2.5V386.9z"/>
			<path class="st2" d="M403.7,382.2c0,1.5-0.3,2.6-1,3.5s-1.6,1.3-2.7,1.3c-1,0-1.7-0.3-2.3-1v4.5h-2.5v-13.2h2.4l0.1,0.9
				c0.6-0.7,1.4-1.1,2.4-1.1c1.2,0,2.1,0.4,2.7,1.3s1,2.1,1,3.6V382.2z M401.1,382c0-0.9-0.2-1.6-0.5-2.1c-0.3-0.5-0.8-0.7-1.4-0.7
				c-0.8,0-1.3,0.3-1.6,0.9v3.9c0.3,0.6,0.9,0.9,1.7,0.9C400.5,385,401.1,384,401.1,382z"/>
			<path class="st2" d="M409.2,385c0.5,0,0.8-0.1,1.1-0.4s0.4-0.6,0.5-1h2.4c0,0.6-0.2,1.2-0.5,1.8c-0.3,0.5-0.8,1-1.4,1.2
				c-0.6,0.3-1.3,0.4-2,0.4c-1.4,0-2.4-0.4-3.2-1.3c-0.8-0.9-1.2-2.1-1.2-3.6V382c0-1.5,0.4-2.6,1.2-3.5s1.8-1.3,3.2-1.3
				c1.2,0,2.1,0.3,2.9,1c0.7,0.7,1.1,1.6,1.1,2.7h-2.4c0-0.5-0.2-0.9-0.5-1.2s-0.7-0.5-1.2-0.5c-0.6,0-1,0.2-1.3,0.6
				c-0.3,0.4-0.5,1.1-0.5,2.1v0.3c0,1,0.1,1.7,0.4,2.1S408.6,385,409.2,385z"/>
			<path class="st2" d="M414.6,374.9c0-0.4,0.1-0.7,0.4-0.9s0.6-0.4,1-0.4c0.4,0,0.8,0.1,1,0.4s0.4,0.6,0.4,0.9
				c0,0.4-0.1,0.7-0.4,0.9s-0.6,0.4-1,0.4s-0.8-0.1-1-0.4S414.6,375.3,414.6,374.9z M417.3,386.9h-2.5v-9.5h2.5V386.9z"/>
			<path class="st2" d="M419,382.1c0-0.9,0.2-1.8,0.5-2.5s0.9-1.3,1.6-1.7s1.5-0.6,2.4-0.6c1.3,0,2.3,0.4,3.1,1.2s1.3,1.9,1.4,3.2
				l0,0.7c0,1.5-0.4,2.6-1.2,3.5s-1.9,1.3-3.3,1.3s-2.5-0.4-3.3-1.3s-1.2-2.1-1.2-3.6V382.1z M421.6,382.2c0,0.9,0.2,1.6,0.5,2.1
				c0.3,0.5,0.8,0.7,1.5,0.7c0.6,0,1.1-0.2,1.4-0.7c0.3-0.5,0.5-1.2,0.5-2.3c0-0.9-0.2-1.6-0.5-2.1s-0.8-0.7-1.5-0.7
				c-0.6,0-1.1,0.2-1.4,0.7C421.7,380.5,421.6,381.2,421.6,382.2z M424,373.4h2.8l-2.4,2.7h-2.1L424,373.4z"/>
			<path class="st2" d="M431.9,377.4l0.1,1.1c0.7-0.8,1.6-1.3,2.7-1.3c1,0,1.8,0.3,2.2,0.9s0.7,1.5,0.8,2.7v6.1h-2.5v-6.1
				c0-0.5-0.1-0.9-0.4-1.2c-0.2-0.2-0.6-0.4-1.2-0.4c-0.7,0-1.3,0.3-1.6,0.9v6.7h-2.5v-9.5H431.9z"/>
		</g>
		<g class="st1">
			<path class="st2" d="M491.3,381.7h-5.1v5.2h-2.6v-12.8h8.3v2.1h-5.7v3.3h5.1V381.7z"/>
			<path class="st2" d="M492.8,382.1c0-0.9,0.2-1.8,0.5-2.5s0.9-1.3,1.6-1.7s1.5-0.6,2.4-0.6c1.3,0,2.3,0.4,3.1,1.2s1.3,1.9,1.4,3.2
				l0,0.7c0,1.5-0.4,2.6-1.2,3.5s-1.9,1.3-3.3,1.3s-2.5-0.4-3.3-1.3s-1.2-2.1-1.2-3.6V382.1z M495.3,382.2c0,0.9,0.2,1.6,0.5,2.1
				c0.3,0.5,0.8,0.7,1.5,0.7c0.6,0,1.1-0.2,1.4-0.7c0.3-0.5,0.5-1.2,0.5-2.3c0-0.9-0.2-1.6-0.5-2.1s-0.8-0.7-1.5-0.7
				c-0.6,0-1.1,0.2-1.4,0.7C495.5,380.5,495.3,381.2,495.3,382.2z"/>
			<path class="st2" d="M508.7,379.8c-0.3,0-0.7-0.1-0.9-0.1c-1,0-1.6,0.3-1.9,1v6.2h-2.5v-9.5h2.4l0.1,1.1c0.5-0.9,1.2-1.3,2.1-1.3
				c0.3,0,0.5,0,0.8,0.1L508.7,379.8z"/>
			<path class="st2" d="M512.3,377.4l0.1,1.1c0.7-0.8,1.6-1.2,2.7-1.2c1.2,0,2.1,0.5,2.5,1.5c0.7-1,1.6-1.5,2.9-1.5
				c1,0,1.8,0.3,2.3,0.9c0.5,0.6,0.8,1.5,0.8,2.7v6.1H521v-6.1c0-0.5-0.1-0.9-0.3-1.2c-0.2-0.2-0.6-0.4-1.1-0.4
				c-0.8,0-1.3,0.4-1.6,1.1l0,6.5h-2.5v-6.1c0-0.6-0.1-1-0.3-1.2c-0.2-0.2-0.6-0.4-1.1-0.4c-0.7,0-1.2,0.3-1.6,0.9v6.7h-2.5v-9.5
				H512.3z"/>
			<path class="st2" d="M531,386.9c-0.1-0.2-0.2-0.5-0.3-0.9c-0.6,0.7-1.4,1-2.4,1c-0.9,0-1.7-0.3-2.3-0.8s-0.9-1.2-0.9-2
				c0-1,0.4-1.8,1.1-2.3s1.8-0.8,3.2-0.8h1.2v-0.5c0-0.4-0.1-0.8-0.3-1.1s-0.6-0.4-1.1-0.4c-0.4,0-0.8,0.1-1,0.3s-0.4,0.5-0.4,0.8
				h-2.5c0-0.6,0.2-1.1,0.5-1.5s0.8-0.8,1.4-1.1s1.3-0.4,2.1-0.4c1.2,0,2.1,0.3,2.8,0.9c0.7,0.6,1,1.4,1,2.5v4.1
				c0,0.9,0.1,1.6,0.4,2v0.1H531z M528.9,385.1c0.4,0,0.7-0.1,1-0.3c0.3-0.2,0.6-0.4,0.7-0.7v-1.6h-0.9c-1.3,0-1.9,0.4-2,1.3l0,0.1
				c0,0.3,0.1,0.6,0.3,0.8S528.5,385.1,528.9,385.1z"/>
			<path class="st2" d="M540.3,386.9v-7.6h-1.4v-1.9h1.4v-0.8c0-1.1,0.3-1.9,0.9-2.5c0.6-0.6,1.5-0.9,2.6-0.9c0.4,0,0.8,0.1,1.3,0.2
				l0,2c-0.2-0.1-0.5-0.1-0.8-0.1c-1,0-1.4,0.5-1.4,1.4v0.8h1.9v1.9h-1.9v7.6H540.3z"/>
			<path class="st2" d="M551.6,386.9c-0.1-0.2-0.2-0.5-0.3-0.9c-0.6,0.7-1.4,1-2.4,1c-0.9,0-1.7-0.3-2.3-0.8s-0.9-1.2-0.9-2
				c0-1,0.4-1.8,1.1-2.3s1.8-0.8,3.2-0.8h1.2v-0.5c0-0.4-0.1-0.8-0.3-1.1s-0.6-0.4-1.1-0.4c-0.4,0-0.8,0.1-1,0.3s-0.4,0.5-0.4,0.8
				h-2.5c0-0.6,0.2-1.1,0.5-1.5s0.8-0.8,1.4-1.1s1.3-0.4,2.1-0.4c1.2,0,2.1,0.3,2.8,0.9c0.7,0.6,1,1.4,1,2.5v4.1
				c0,0.9,0.1,1.6,0.4,2v0.1H551.6z M549.5,385.1c0.4,0,0.7-0.1,1-0.3c0.3-0.2,0.6-0.4,0.7-0.7v-1.6h-0.9c-1.3,0-1.9,0.4-2,1.3
				l0,0.1c0,0.3,0.1,0.6,0.3,0.8S549.1,385.1,549.5,385.1z"/>
			<path class="st2" d="M561.1,379.8c-0.3,0-0.7-0.1-0.9-0.1c-1,0-1.6,0.3-1.9,1v6.2h-2.5v-9.5h2.4l0.1,1.1c0.5-0.9,1.2-1.3,2.1-1.3
				c0.3,0,0.5,0,0.8,0.1L561.1,379.8z"/>
			<path class="st2" d="M564.7,377.4l0.1,1.1c0.7-0.8,1.6-1.2,2.7-1.2c1.2,0,2.1,0.5,2.5,1.5c0.7-1,1.6-1.5,2.9-1.5
				c1,0,1.8,0.3,2.3,0.9c0.5,0.6,0.8,1.5,0.8,2.7v6.1h-2.5v-6.1c0-0.5-0.1-0.9-0.3-1.2c-0.2-0.2-0.6-0.4-1.1-0.4
				c-0.8,0-1.3,0.4-1.6,1.1l0,6.5h-2.5v-6.1c0-0.6-0.1-1-0.3-1.2c-0.2-0.2-0.6-0.4-1.1-0.4c-0.7,0-1.2,0.3-1.6,0.9v6.7h-2.5v-9.5
				H564.7z"/>
			<path class="st2" d="M583.4,386.9c-0.1-0.2-0.2-0.5-0.3-0.9c-0.6,0.7-1.4,1-2.4,1c-0.9,0-1.7-0.3-2.3-0.8s-0.9-1.2-0.9-2
				c0-1,0.4-1.8,1.1-2.3s1.8-0.8,3.2-0.8h1.2v-0.5c0-0.4-0.1-0.8-0.3-1.1s-0.6-0.4-1.1-0.4c-0.4,0-0.8,0.1-1,0.3s-0.4,0.5-0.4,0.8
				h-2.5c0-0.6,0.2-1.1,0.5-1.5s0.8-0.8,1.4-1.1s1.3-0.4,2.1-0.4c1.2,0,2.1,0.3,2.8,0.9c0.7,0.6,1,1.4,1,2.5v4.1
				c0,0.9,0.1,1.6,0.4,2v0.1H583.4z M581.3,385.1c0.4,0,0.7-0.1,1-0.3c0.3-0.2,0.6-0.4,0.7-0.7v-1.6h-0.9c-1.3,0-1.9,0.4-2,1.3
				l0,0.1c0,0.3,0.1,0.6,0.3,0.8S580.9,385.1,581.3,385.1z"/>
			<path class="st2" d="M591.5,385c0.5,0,0.8-0.1,1.1-0.4s0.4-0.6,0.5-1h2.4c0,0.6-0.2,1.2-0.5,1.8c-0.3,0.5-0.8,1-1.4,1.2
				c-0.6,0.3-1.3,0.4-2,0.4c-1.4,0-2.4-0.4-3.2-1.3c-0.8-0.9-1.2-2.1-1.2-3.6V382c0-1.5,0.4-2.6,1.2-3.5s1.8-1.3,3.2-1.3
				c1.2,0,2.1,0.3,2.9,1c0.7,0.7,1.1,1.6,1.1,2.7h-2.4c0-0.5-0.2-0.9-0.5-1.2s-0.7-0.5-1.2-0.5c-0.6,0-1,0.2-1.3,0.6
				c-0.3,0.4-0.5,1.1-0.5,2.1v0.3c0,1,0.1,1.7,0.4,2.1S590.9,385,591.5,385z"/>
			<path class="st2" d="M601.3,387.1c-1.4,0-2.5-0.4-3.4-1.3s-1.3-2-1.3-3.4v-0.2c0-1,0.2-1.8,0.6-2.6s0.9-1.3,1.6-1.7
				s1.4-0.6,2.3-0.6c1.3,0,2.3,0.4,3.1,1.2s1.1,2,1.1,3.5v1h-6.1c0.1,0.6,0.3,1.1,0.7,1.5s0.9,0.6,1.6,0.6c1,0,1.7-0.4,2.3-1.1
				l1.2,1.4c-0.4,0.5-0.9,1-1.5,1.3C602.8,386.9,602.1,387.1,601.3,387.1z M601,379.3c-0.5,0-0.9,0.2-1.2,0.5
				c-0.3,0.3-0.5,0.8-0.6,1.5h3.5V381c0-0.6-0.2-1-0.5-1.3C601.9,379.4,601.5,379.3,601,379.3z M601.2,373.4h2.8l-2.4,2.7h-2.1
				L601.2,373.4z"/>
			<path class="st2" d="M612.3,385.9c-0.6,0.8-1.5,1.1-2.6,1.1c-1,0-1.8-0.3-2.3-0.9s-0.8-1.4-0.8-2.6v-6.2h2.5v6.2
				c0,1,0.5,1.5,1.4,1.5c0.9,0,1.5-0.3,1.8-0.9v-6.7h2.5v9.5h-2.4L612.3,385.9z"/>
			<path class="st2" d="M619.7,375.1v2.3h1.6v1.9h-1.6v4.7c0,0.4,0.1,0.6,0.2,0.8s0.4,0.2,0.8,0.2c0.3,0,0.5,0,0.7-0.1v1.9
				c-0.5,0.2-1,0.2-1.5,0.2c-1.8,0-2.7-0.9-2.7-2.7v-5.1h-1.4v-1.9h1.4v-2.3H619.7z"/>
			<path class="st2" d="M622.8,374.9c0-0.4,0.1-0.7,0.4-0.9s0.6-0.4,1-0.4c0.4,0,0.8,0.1,1,0.4s0.4,0.6,0.4,0.9
				c0,0.4-0.1,0.7-0.4,0.9s-0.6,0.4-1,0.4s-0.8-0.1-1-0.4S622.8,375.3,622.8,374.9z M625.5,386.9h-2.5v-9.5h2.5V386.9z"/>
			<path class="st2" d="M631.5,385c0.5,0,0.8-0.1,1.1-0.4s0.4-0.6,0.5-1h2.4c0,0.6-0.2,1.2-0.5,1.8c-0.3,0.5-0.8,1-1.4,1.2
				c-0.6,0.3-1.3,0.4-2,0.4c-1.4,0-2.4-0.4-3.2-1.3c-0.8-0.9-1.2-2.1-1.2-3.6V382c0-1.5,0.4-2.6,1.2-3.5s1.8-1.3,3.2-1.3
				c1.2,0,2.1,0.3,2.9,1c0.7,0.7,1.1,1.6,1.1,2.7h-2.4c0-0.5-0.2-0.9-0.5-1.2s-0.7-0.5-1.2-0.5c-0.6,0-1,0.2-1.3,0.6
				c-0.3,0.4-0.5,1.1-0.5,2.1v0.3c0,1,0.1,1.7,0.4,2.1S630.9,385,631.5,385z"/>
			<path class="st2" d="M642.4,386.9c-0.1-0.2-0.2-0.5-0.3-0.9c-0.6,0.7-1.4,1-2.4,1c-0.9,0-1.7-0.3-2.3-0.8s-0.9-1.2-0.9-2
				c0-1,0.4-1.8,1.1-2.3s1.8-0.8,3.2-0.8h1.2v-0.5c0-0.4-0.1-0.8-0.3-1.1s-0.6-0.4-1.1-0.4c-0.4,0-0.8,0.1-1,0.3s-0.4,0.5-0.4,0.8
				h-2.5c0-0.6,0.2-1.1,0.5-1.5s0.8-0.8,1.4-1.1s1.3-0.4,2.1-0.4c1.2,0,2.1,0.3,2.8,0.9c0.7,0.6,1,1.4,1,2.5v4.1
				c0,0.9,0.1,1.6,0.4,2v0.1H642.4z M640.3,385.1c0.4,0,0.7-0.1,1-0.3c0.3-0.2,0.6-0.4,0.7-0.7v-1.6h-0.9c-1.3,0-1.9,0.4-2,1.3
				l0,0.1c0,0.3,0.1,0.6,0.3,0.8S640,385.1,640.3,385.1z"/>
		</g>
		<g class="st1">
			<path class="st2" d="M676,383.7l2.9-9.6h2.9l-4.5,12.8h-2.8l-4.4-12.8h2.9L676,383.7z"/>
			<path class="st2" d="M688,386.9c-0.1-0.2-0.2-0.5-0.3-0.9c-0.6,0.7-1.4,1-2.4,1c-0.9,0-1.7-0.3-2.3-0.8c-0.6-0.5-0.9-1.2-0.9-2
				c0-1,0.4-1.8,1.1-2.3c0.7-0.5,1.8-0.8,3.2-0.8h1.2v-0.5c0-0.4-0.1-0.8-0.3-1.1c-0.2-0.3-0.6-0.4-1.1-0.4c-0.4,0-0.8,0.1-1,0.3
				c-0.2,0.2-0.4,0.5-0.4,0.8h-2.5c0-0.6,0.2-1.1,0.5-1.5s0.8-0.8,1.4-1.1s1.3-0.4,2.1-0.4c1.2,0,2.1,0.3,2.8,0.9
				c0.7,0.6,1,1.4,1,2.5v4.1c0,0.9,0.1,1.6,0.4,2v0.1H688z M685.9,385.1c0.4,0,0.7-0.1,1-0.3c0.3-0.2,0.6-0.4,0.7-0.7v-1.6h-0.9
				c-1.3,0-1.9,0.4-2,1.3l0,0.1c0,0.3,0.1,0.6,0.3,0.8S685.5,385.1,685.9,385.1z"/>
			<path class="st2" d="M694.8,386.9h-2.5v-13.5h2.5V386.9z"/>
			<path class="st2" d="M696.5,382.1c0-0.9,0.2-1.8,0.5-2.5s0.9-1.3,1.6-1.7c0.7-0.4,1.5-0.6,2.4-0.6c1.3,0,2.3,0.4,3.1,1.2
				c0.8,0.8,1.3,1.9,1.4,3.2l0,0.7c0,1.5-0.4,2.6-1.2,3.5s-1.9,1.3-3.3,1.3s-2.5-0.4-3.3-1.3c-0.8-0.9-1.2-2.1-1.2-3.6V382.1z
				 M699,382.2c0,0.9,0.2,1.6,0.5,2.1c0.3,0.5,0.8,0.7,1.5,0.7c0.6,0,1.1-0.2,1.4-0.7c0.3-0.5,0.5-1.2,0.5-2.3
				c0-0.9-0.2-1.6-0.5-2.1s-0.8-0.7-1.5-0.7c-0.6,0-1.1,0.2-1.4,0.7C699.2,380.5,699,381.2,699,382.2z"/>
			<path class="st2" d="M712.4,379.8c-0.3,0-0.7-0.1-0.9-0.1c-1,0-1.6,0.3-1.9,1v6.2h-2.5v-9.5h2.4l0.1,1.1c0.5-0.9,1.2-1.3,2.1-1.3
				c0.3,0,0.5,0,0.8,0.1L712.4,379.8z"/>
			<path class="st2" d="M723.8,385.9c-0.6,0.8-1.5,1.1-2.6,1.1c-1,0-1.8-0.3-2.3-0.9c-0.5-0.6-0.8-1.4-0.8-2.6v-6.2h2.5v6.2
				c0,1,0.5,1.5,1.4,1.5c0.9,0,1.5-0.3,1.8-0.9v-6.7h2.5v9.5h-2.4L723.8,385.9z"/>
			<path class="st2" d="M730.5,377.4l0.1,1.1c0.7-0.8,1.6-1.3,2.7-1.3c1,0,1.8,0.3,2.2,0.9s0.7,1.5,0.8,2.7v6.1h-2.5v-6.1
				c0-0.5-0.1-0.9-0.4-1.2c-0.2-0.2-0.6-0.4-1.2-0.4c-0.7,0-1.3,0.3-1.6,0.9v6.7h-2.5v-9.5H730.5z"/>
			<path class="st2" d="M738.3,374.9c0-0.4,0.1-0.7,0.4-0.9c0.3-0.2,0.6-0.4,1-0.4c0.4,0,0.8,0.1,1,0.4s0.4,0.6,0.4,0.9
				c0,0.4-0.1,0.7-0.4,0.9c-0.3,0.2-0.6,0.4-1,0.4s-0.8-0.1-1-0.4C738.4,375.6,738.3,375.3,738.3,374.9z M741,386.9h-2.5v-9.5h2.5
				V386.9z"/>
			<path class="st2" d="M746.1,375.1v2.3h1.6v1.9h-1.6v4.7c0,0.4,0.1,0.6,0.2,0.8s0.4,0.2,0.8,0.2c0.3,0,0.5,0,0.7-0.1v1.9
				c-0.5,0.2-1,0.2-1.5,0.2c-1.8,0-2.7-0.9-2.7-2.7v-5.1h-1.4v-1.9h1.4v-2.3H746.1z"/>
			<path class="st2" d="M754.6,386.9c-0.1-0.2-0.2-0.5-0.3-0.9c-0.6,0.7-1.4,1-2.4,1c-0.9,0-1.7-0.3-2.3-0.8c-0.6-0.5-0.9-1.2-0.9-2
				c0-1,0.4-1.8,1.1-2.3c0.7-0.5,1.8-0.8,3.2-0.8h1.2v-0.5c0-0.4-0.1-0.8-0.3-1.1c-0.2-0.3-0.6-0.4-1.1-0.4c-0.4,0-0.8,0.1-1,0.3
				c-0.2,0.2-0.4,0.5-0.4,0.8H749c0-0.6,0.2-1.1,0.5-1.5s0.8-0.8,1.4-1.1s1.3-0.4,2.1-0.4c1.2,0,2.1,0.3,2.8,0.9
				c0.7,0.6,1,1.4,1,2.5v4.1c0,0.9,0.1,1.6,0.4,2v0.1H754.6z M752.5,385.1c0.4,0,0.7-0.1,1-0.3c0.3-0.2,0.6-0.4,0.7-0.7v-1.6h-0.9
				c-1.3,0-1.9,0.4-2,1.3l0,0.1c0,0.3,0.1,0.6,0.3,0.8S752.2,385.1,752.5,385.1z"/>
			<path class="st2" d="M764.1,379.8c-0.3,0-0.7-0.1-0.9-0.1c-1,0-1.6,0.3-1.9,1v6.2h-2.5v-9.5h2.4l0.1,1.1c0.5-0.9,1.2-1.3,2.1-1.3
				c0.3,0,0.5,0,0.8,0.1L764.1,379.8z"/>
			<path class="st2" d="M765.3,374.9c0-0.4,0.1-0.7,0.4-0.9c0.3-0.2,0.6-0.4,1-0.4c0.4,0,0.8,0.1,1,0.4s0.4,0.6,0.4,0.9
				c0,0.4-0.1,0.7-0.4,0.9c-0.3,0.2-0.6,0.4-1,0.4s-0.8-0.1-1-0.4C765.5,375.6,765.3,375.3,765.3,374.9z M768,386.9h-2.5v-9.5h2.5
				V386.9z"/>
			<path class="st2" d="M769.7,382.1c0-0.9,0.2-1.8,0.5-2.5s0.9-1.3,1.6-1.7c0.7-0.4,1.5-0.6,2.4-0.6c1.3,0,2.3,0.4,3.1,1.2
				c0.8,0.8,1.3,1.9,1.4,3.2l0,0.7c0,1.5-0.4,2.6-1.2,3.5s-1.9,1.3-3.3,1.3s-2.5-0.4-3.3-1.3c-0.8-0.9-1.2-2.1-1.2-3.6V382.1z
				 M772.3,382.2c0,0.9,0.2,1.6,0.5,2.1c0.3,0.5,0.8,0.7,1.5,0.7c0.6,0,1.1-0.2,1.4-0.7c0.3-0.5,0.5-1.2,0.5-2.3
				c0-0.9-0.2-1.6-0.5-2.1s-0.8-0.7-1.5-0.7c-0.6,0-1.1,0.2-1.4,0.7C772.4,380.5,772.3,381.2,772.3,382.2z"/>
		</g>
		<g class="st1">
			<path class="st2" d="M856.1,383.7l2.9-9.6h2.9l-4.5,12.8h-2.8l-4.4-12.8h2.9L856.1,383.7z"/>
			<path class="st2" d="M868.1,386.9c-0.1-0.2-0.2-0.5-0.3-0.9c-0.6,0.7-1.4,1-2.4,1c-0.9,0-1.7-0.3-2.3-0.8s-0.9-1.2-0.9-2
				c0-1,0.4-1.8,1.1-2.3s1.8-0.8,3.2-0.8h1.2v-0.5c0-0.4-0.1-0.8-0.3-1.1s-0.6-0.4-1.1-0.4c-0.4,0-0.8,0.1-1,0.3s-0.4,0.5-0.4,0.8
				h-2.5c0-0.6,0.2-1.1,0.5-1.5s0.8-0.8,1.4-1.1s1.3-0.4,2.1-0.4c1.2,0,2.1,0.3,2.8,0.9c0.7,0.6,1,1.4,1,2.5v4.1
				c0,0.9,0.1,1.6,0.4,2v0.1H868.1z M866,385.1c0.4,0,0.7-0.1,1-0.3c0.3-0.2,0.6-0.4,0.7-0.7v-1.6h-0.9c-1.3,0-1.9,0.4-2,1.3l0,0.1
				c0,0.3,0.1,0.6,0.3,0.8S865.6,385.1,866,385.1z"/>
			<path class="st2" d="M874.9,386.9h-2.5v-13.5h2.5V386.9z"/>
			<path class="st2" d="M876.6,382.1c0-0.9,0.2-1.8,0.5-2.5s0.9-1.3,1.6-1.7s1.5-0.6,2.4-0.6c1.3,0,2.3,0.4,3.1,1.2s1.3,1.9,1.4,3.2
				l0,0.7c0,1.5-0.4,2.6-1.2,3.5s-1.9,1.3-3.3,1.3s-2.5-0.4-3.3-1.3s-1.2-2.1-1.2-3.6V382.1z M879.1,382.2c0,0.9,0.2,1.6,0.5,2.1
				c0.3,0.5,0.8,0.7,1.5,0.7c0.6,0,1.1-0.2,1.4-0.7c0.3-0.5,0.5-1.2,0.5-2.3c0-0.9-0.2-1.6-0.5-2.1s-0.8-0.7-1.5-0.7
				c-0.6,0-1.1,0.2-1.4,0.7C879.3,380.5,879.1,381.2,879.1,382.2z"/>
			<path class="st2" d="M892.5,379.8c-0.3,0-0.7-0.1-0.9-0.1c-1,0-1.6,0.3-1.9,1v6.2h-2.5v-9.5h2.4l0.1,1.1c0.5-0.9,1.2-1.3,2.1-1.3
				c0.3,0,0.5,0,0.8,0.1L892.5,379.8z"/>
			<path class="st2" d="M901.3,375.1v2.3h1.6v1.9h-1.6v4.7c0,0.4,0.1,0.6,0.2,0.8s0.4,0.2,0.8,0.2c0.3,0,0.5,0,0.7-0.1v1.9
				c-0.5,0.2-1,0.2-1.5,0.2c-1.8,0-2.7-0.9-2.7-2.7v-5.1h-1.4v-1.9h1.4v-2.3H901.3z"/>
			<path class="st2" d="M903.6,382.1c0-0.9,0.2-1.8,0.5-2.5s0.9-1.3,1.6-1.7s1.5-0.6,2.4-0.6c1.3,0,2.3,0.4,3.1,1.2s1.3,1.9,1.4,3.2
				l0,0.7c0,1.5-0.4,2.6-1.2,3.5s-1.9,1.3-3.3,1.3s-2.5-0.4-3.3-1.3s-1.2-2.1-1.2-3.6V382.1z M906.2,382.2c0,0.9,0.2,1.6,0.5,2.1
				c0.3,0.5,0.8,0.7,1.5,0.7c0.6,0,1.1-0.2,1.4-0.7c0.3-0.5,0.5-1.2,0.5-2.3c0-0.9-0.2-1.6-0.5-2.1s-0.8-0.7-1.5-0.7
				c-0.6,0-1.1,0.2-1.4,0.7C906.4,380.5,906.2,381.2,906.2,382.2z"/>
			<path class="st2" d="M917.3,375.1v2.3h1.6v1.9h-1.6v4.7c0,0.4,0.1,0.6,0.2,0.8s0.4,0.2,0.8,0.2c0.3,0,0.5,0,0.7-0.1v1.9
				c-0.5,0.2-1,0.2-1.5,0.2c-1.8,0-2.7-0.9-2.7-2.7v-5.1h-1.4v-1.9h1.4v-2.3H917.3z"/>
			<path class="st2" d="M925.8,386.9c-0.1-0.2-0.2-0.5-0.3-0.9c-0.6,0.7-1.4,1-2.4,1c-0.9,0-1.7-0.3-2.3-0.8s-0.9-1.2-0.9-2
				c0-1,0.4-1.8,1.1-2.3s1.8-0.8,3.2-0.8h1.2v-0.5c0-0.4-0.1-0.8-0.3-1.1s-0.6-0.4-1.1-0.4c-0.4,0-0.8,0.1-1,0.3s-0.4,0.5-0.4,0.8
				h-2.5c0-0.6,0.2-1.1,0.5-1.5s0.8-0.8,1.4-1.1s1.3-0.4,2.1-0.4c1.2,0,2.1,0.3,2.8,0.9c0.7,0.6,1,1.4,1,2.5v4.1
				c0,0.9,0.1,1.6,0.4,2v0.1H925.8z M923.7,385.1c0.4,0,0.7-0.1,1-0.3c0.3-0.2,0.6-0.4,0.7-0.7v-1.6h-0.9c-1.3,0-1.9,0.4-2,1.3
				l0,0.1c0,0.3,0.1,0.6,0.3,0.8S923.3,385.1,923.7,385.1z"/>
			<path class="st2" d="M932.6,386.9h-2.5v-13.5h2.5V386.9z"/>
		</g>
		<g class="st1">
			<path class="st2" d="M755.6,568.2c0-0.4-0.1-0.7-0.4-0.9c-0.3-0.2-0.8-0.4-1.5-0.7c-0.7-0.2-1.3-0.5-1.7-0.7
				c-1.1-0.6-1.7-1.4-1.7-2.5c0-0.5,0.2-1,0.5-1.4c0.3-0.4,0.7-0.8,1.3-1s1.2-0.4,1.9-0.4c0.7,0,1.3,0.1,1.9,0.4
				c0.6,0.3,1,0.6,1.3,1.1s0.5,1,0.5,1.6h-2.1c0-0.5-0.1-0.8-0.4-1.1c-0.3-0.3-0.7-0.4-1.2-0.4c-0.5,0-0.9,0.1-1.2,0.3
				c-0.3,0.2-0.4,0.5-0.4,0.8c0,0.3,0.2,0.6,0.5,0.8c0.3,0.2,0.8,0.4,1.4,0.6c1.2,0.4,2,0.8,2.5,1.3s0.8,1.2,0.8,1.9
				c0,0.9-0.3,1.5-1,2c-0.7,0.5-1.5,0.7-2.6,0.7c-0.8,0-1.5-0.1-2.1-0.4c-0.6-0.3-1.1-0.7-1.4-1.2c-0.3-0.5-0.5-1.1-0.5-1.7h2.1
				c0,1.1,0.7,1.6,2,1.6c0.5,0,0.9-0.1,1.1-0.3C755.5,568.8,755.6,568.5,755.6,568.2z"/>
			<path class="st2" d="M763.4,570c-0.5,0.6-1.2,0.9-2,0.9c-0.8,0-1.4-0.2-1.8-0.7s-0.6-1.1-0.6-2v-4.8h2v4.8c0,0.8,0.4,1.2,1.1,1.2
				c0.7,0,1.1-0.2,1.4-0.7v-5.2h2v7.4h-1.9L763.4,570z"/>
			<path class="st2" d="M773.4,567.1c0,1.2-0.3,2.1-0.8,2.8c-0.5,0.7-1.2,1-2.1,1c-0.8,0-1.4-0.3-1.9-0.9l-0.1,0.8h-1.8v-10.5h2v3.8
				c0.5-0.5,1.1-0.8,1.8-0.8c0.9,0,1.6,0.3,2.1,1c0.5,0.7,0.8,1.6,0.8,2.8V567.1z M771.5,567c0-0.8-0.1-1.3-0.4-1.6
				c-0.2-0.3-0.6-0.5-1.1-0.5c-0.6,0-1.1,0.3-1.3,0.8v2.9c0.2,0.5,0.7,0.8,1.3,0.8c0.6,0,1.1-0.3,1.3-0.9
				C771.4,568.1,771.5,567.6,771.5,567z"/>
			<path class="st2" d="M777,561.6v1.8h1.3v1.4H777v3.7c0,0.3,0.1,0.5,0.2,0.6c0.1,0.1,0.3,0.2,0.6,0.2c0.2,0,0.4,0,0.6,0v1.5
				c-0.4,0.1-0.8,0.2-1.2,0.2c-1.4,0-2.1-0.7-2.1-2.1v-4H774v-1.4h1.1v-1.8H777z"/>
			<path class="st2" d="M778.9,567c0-0.7,0.1-1.4,0.4-2c0.3-0.6,0.7-1,1.2-1.3c0.5-0.3,1.1-0.5,1.8-0.5c1,0,1.8,0.3,2.4,0.9
				c0.6,0.6,1,1.4,1.1,2.5l0,0.5c0,1.1-0.3,2-1,2.7c-0.6,0.7-1.5,1-2.5,1s-1.9-0.3-2.6-1S778.9,568.3,778.9,567L778.9,567z
				 M780.8,567.1c0,0.7,0.1,1.2,0.4,1.6c0.3,0.4,0.6,0.6,1.1,0.6c0.5,0,0.9-0.2,1.1-0.6c0.3-0.4,0.4-1,0.4-1.8
				c0-0.7-0.1-1.2-0.4-1.6c-0.3-0.4-0.6-0.6-1.1-0.6c-0.5,0-0.9,0.2-1.1,0.6C781,565.8,780.8,566.4,780.8,567.1z"/>
			<path class="st2" d="M789.5,561.6v1.8h1.3v1.4h-1.3v3.7c0,0.3,0.1,0.5,0.2,0.6c0.1,0.1,0.3,0.2,0.6,0.2c0.2,0,0.4,0,0.6,0v1.5
				c-0.4,0.1-0.8,0.2-1.2,0.2c-1.4,0-2.1-0.7-2.1-2.1v-4h-1.1v-1.4h1.1v-1.8H789.5z"/>
			<path class="st2" d="M796.1,570.8c-0.1-0.2-0.2-0.4-0.2-0.7c-0.5,0.5-1.1,0.8-1.9,0.8c-0.7,0-1.3-0.2-1.8-0.6
				c-0.5-0.4-0.7-0.9-0.7-1.6c0-0.8,0.3-1.4,0.9-1.8s1.4-0.6,2.5-0.6h0.9v-0.4c0-0.3-0.1-0.6-0.3-0.8c-0.2-0.2-0.5-0.3-0.8-0.3
				c-0.3,0-0.6,0.1-0.8,0.2c-0.2,0.2-0.3,0.4-0.3,0.7h-2c0-0.4,0.1-0.8,0.4-1.2c0.3-0.4,0.6-0.7,1.1-0.9c0.5-0.2,1-0.3,1.6-0.3
				c0.9,0,1.6,0.2,2.2,0.7c0.5,0.5,0.8,1.1,0.8,1.9v3.2c0,0.7,0.1,1.2,0.3,1.6v0.1H796.1z M794.5,569.4c0.3,0,0.6-0.1,0.8-0.2
				c0.2-0.1,0.4-0.3,0.5-0.5v-1.3h-0.7c-1,0-1.5,0.3-1.6,1l0,0.1c0,0.2,0.1,0.4,0.3,0.6C793.9,569.3,794.2,569.4,794.5,569.4z"/>
			<path class="st2" d="M801.4,570.8h-2v-10.5h2V570.8z"/>
		</g>
		<g class="st1">
			<path class="st2" d="M16.3,670.3h-2.8l-5.4-8.9v8.9H5.3v-13.5h2.8l5.4,8.9v-8.9h2.8V670.3z"/>
			<path class="st2" d="M18.2,665.2c0-1,0.2-1.9,0.6-2.7c0.4-0.8,0.9-1.4,1.7-1.8c0.7-0.4,1.6-0.6,2.5-0.6c1.4,0,2.5,0.4,3.3,1.2
				c0.9,0.8,1.3,2,1.4,3.4l0,0.7c0,1.5-0.4,2.8-1.3,3.7c-0.9,0.9-2,1.4-3.5,1.4s-2.6-0.5-3.5-1.4c-0.9-0.9-1.3-2.2-1.3-3.8V665.2z
				 M20.8,665.4c0,1,0.2,1.7,0.5,2.2c0.4,0.5,0.9,0.8,1.5,0.8c0.6,0,1.2-0.2,1.5-0.7c0.4-0.5,0.5-1.3,0.5-2.4c0-0.9-0.2-1.7-0.5-2.2
				c-0.4-0.5-0.9-0.8-1.5-0.8c-0.7,0-1.2,0.3-1.5,0.8C21,663.5,20.8,664.3,20.8,665.4z"/>
			<path class="st2" d="M32.5,657.8v2.5h1.7v2h-1.7v5c0,0.4,0.1,0.6,0.2,0.8c0.1,0.2,0.4,0.2,0.8,0.2c0.3,0,0.6,0,0.8-0.1v2
				c-0.5,0.2-1.1,0.2-1.6,0.2c-1.9,0-2.8-0.9-2.9-2.8v-5.4h-1.5v-2h1.5v-2.5H32.5z"/>
			<path class="st2" d="M41.6,670.3c-0.1-0.2-0.2-0.5-0.3-0.9c-0.6,0.7-1.5,1.1-2.5,1.1c-1,0-1.8-0.3-2.4-0.9c-0.6-0.6-1-1.3-1-2.2
				c0-1.1,0.4-1.9,1.2-2.4c0.8-0.6,1.9-0.9,3.4-0.9h1.2v-0.6c0-0.5-0.1-0.8-0.4-1.1c-0.2-0.3-0.6-0.4-1.1-0.4
				c-0.5,0-0.8,0.1-1.1,0.3c-0.3,0.2-0.4,0.5-0.4,0.9h-2.7c0-0.6,0.2-1.1,0.5-1.6c0.4-0.5,0.9-0.9,1.5-1.2c0.7-0.3,1.4-0.4,2.2-0.4
				c1.2,0,2.2,0.3,2.9,0.9c0.7,0.6,1.1,1.5,1.1,2.6v4.4c0,1,0.1,1.7,0.4,2.2v0.2H41.6z M39.3,668.4c0.4,0,0.8-0.1,1.1-0.3
				c0.3-0.2,0.6-0.4,0.7-0.7v-1.7h-1c-1.3,0-2.1,0.5-2.1,1.4l0,0.2c0,0.3,0.1,0.6,0.4,0.8C38.6,668.3,38.9,668.4,39.3,668.4z"/>
			<path class="st2" d="M51.4,667.5c0-0.3-0.2-0.6-0.5-0.8c-0.3-0.2-0.8-0.4-1.6-0.5c-2.4-0.5-3.6-1.5-3.6-3c0-0.9,0.4-1.6,1.1-2.2
				c0.7-0.6,1.7-0.9,2.9-0.9c1.3,0,2.3,0.3,3.1,0.9c0.8,0.6,1.1,1.4,1.1,2.3h-2.7c0-0.4-0.1-0.7-0.4-1c-0.2-0.3-0.6-0.4-1.2-0.4
				c-0.5,0-0.8,0.1-1,0.3c-0.2,0.2-0.4,0.5-0.4,0.8c0,0.3,0.1,0.5,0.4,0.7c0.3,0.2,0.8,0.3,1.4,0.5c0.7,0.1,1.2,0.3,1.7,0.5
				c1.4,0.5,2.1,1.4,2.1,2.7c0,0.9-0.4,1.7-1.2,2.2c-0.8,0.6-1.8,0.8-3,0.8c-0.8,0-1.6-0.2-2.2-0.5c-0.7-0.3-1.2-0.7-1.5-1.2
				s-0.6-1.1-0.6-1.7H48c0,0.5,0.2,0.8,0.5,1.1c0.3,0.3,0.8,0.4,1.3,0.4c0.5,0,0.9-0.1,1.2-0.3C51.2,668.1,51.4,667.8,51.4,667.5z"
				/>
		</g>
		<g class="st1">
			<path class="st2" d="M739.8,590.2h-2.1v-10h2.1V590.2z"/>
			<path class="st2" d="M743.4,582.8l0.1,0.8c0.5-0.6,1.2-1,2.1-1c1,0,1.6,0.4,2,1.1c0.5-0.8,1.3-1.1,2.2-1.1c0.8,0,1.4,0.2,1.8,0.7
				c0.4,0.5,0.6,1.2,0.6,2.1v4.7h-2v-4.7c0-0.4-0.1-0.7-0.2-0.9s-0.5-0.3-0.9-0.3c-0.6,0-1,0.3-1.2,0.8l0,5.1h-2v-4.7
				c0-0.4-0.1-0.7-0.3-0.9c-0.2-0.2-0.5-0.3-0.9-0.3c-0.6,0-1,0.2-1.2,0.7v5.2h-2v-7.4H743.4z"/>
			<path class="st2" d="M760.3,586.6c0,1.1-0.3,2.1-0.8,2.7c-0.5,0.7-1.2,1-2.1,1c-0.7,0-1.4-0.3-1.8-0.8v3.5h-2v-10.2h1.8l0.1,0.7
				c0.5-0.6,1.1-0.9,1.9-0.9c0.9,0,1.6,0.3,2.1,1s0.8,1.6,0.8,2.8V586.6z M758.3,586.4c0-0.7-0.1-1.2-0.4-1.6s-0.6-0.6-1.1-0.6
				c-0.6,0-1,0.2-1.3,0.7v3c0.2,0.5,0.7,0.7,1.3,0.7C757.9,588.7,758.3,588,758.3,586.4z"/>
			<path class="st2" d="M766,589.4c-0.5,0.6-1.2,0.9-2,0.9c-0.8,0-1.4-0.2-1.8-0.7s-0.6-1.1-0.6-2v-4.8h2v4.8c0,0.8,0.4,1.2,1.1,1.2
				c0.7,0,1.1-0.2,1.4-0.7v-5.2h2v7.4H766L766,589.4z"/>
			<path class="st2" d="M772.8,590.3c-1.1,0-2-0.3-2.6-1s-1-1.6-1-2.7v-0.2c0-0.7,0.1-1.4,0.4-2c0.3-0.6,0.7-1,1.2-1.4
				c0.5-0.3,1.1-0.5,1.8-0.5c1,0,1.8,0.3,2.4,1s0.9,1.5,0.9,2.7v0.8h-4.7c0.1,0.5,0.3,0.9,0.6,1.2s0.7,0.4,1.2,0.4
				c0.8,0,1.4-0.3,1.8-0.8l1,1.1c-0.3,0.4-0.7,0.7-1.2,1C774,590.2,773.4,590.3,772.8,590.3z M772.6,584.3c-0.4,0-0.7,0.1-1,0.4
				s-0.4,0.6-0.5,1.1h2.7v-0.2c0-0.4-0.1-0.8-0.4-1C773.3,584.4,773,584.3,772.6,584.3z"/>
			<path class="st2" d="M781,588.2c0-0.2-0.1-0.4-0.4-0.6c-0.2-0.1-0.6-0.3-1.2-0.4c-1.8-0.4-2.6-1.1-2.6-2.2c0-0.7,0.3-1.2,0.8-1.6
				c0.5-0.4,1.3-0.7,2.1-0.7c0.9,0,1.7,0.2,2.3,0.7s0.8,1,0.8,1.7h-2c0-0.3-0.1-0.5-0.3-0.7c-0.2-0.2-0.5-0.3-0.9-0.3
				c-0.3,0-0.6,0.1-0.8,0.2c-0.2,0.2-0.3,0.3-0.3,0.6c0,0.2,0.1,0.4,0.3,0.5c0.2,0.1,0.6,0.2,1,0.3c0.5,0.1,0.9,0.2,1.2,0.3
				c1,0.4,1.6,1,1.6,2c0,0.7-0.3,1.2-0.9,1.6c-0.6,0.4-1.3,0.6-2.2,0.6c-0.6,0-1.2-0.1-1.7-0.3c-0.5-0.2-0.9-0.5-1.1-0.9
				c-0.3-0.4-0.4-0.8-0.4-1.2h1.9c0,0.4,0.1,0.6,0.4,0.8c0.2,0.2,0.6,0.3,1,0.3c0.4,0,0.7-0.1,0.9-0.2
				C780.9,588.6,781,588.4,781,588.2z"/>
			<path class="st2" d="M786.5,581v1.8h1.3v1.4h-1.3v3.7c0,0.3,0.1,0.5,0.2,0.6c0.1,0.1,0.3,0.2,0.6,0.2c0.2,0,0.4,0,0.6,0v1.5
				c-0.4,0.1-0.8,0.2-1.2,0.2c-1.4,0-2.1-0.7-2.1-2.1v-4h-1.1v-1.4h1.1V581H786.5z"/>
			<path class="st2" d="M788.4,586.4c0-0.7,0.1-1.4,0.4-2c0.3-0.6,0.7-1,1.2-1.3s1.1-0.5,1.8-0.5c1,0,1.8,0.3,2.4,0.9s1,1.4,1.1,2.5
				l0,0.5c0,1.1-0.3,2-0.9,2.7c-0.6,0.7-1.5,1-2.6,1s-1.9-0.3-2.6-1S788.4,587.7,788.4,586.4L788.4,586.4z M790.3,586.6
				c0,0.7,0.1,1.2,0.4,1.6c0.3,0.4,0.6,0.6,1.1,0.6c0.5,0,0.9-0.2,1.1-0.6c0.3-0.4,0.4-1,0.4-1.8c0-0.7-0.1-1.2-0.4-1.6
				c-0.3-0.4-0.6-0.6-1.1-0.6c-0.5,0-0.9,0.2-1.1,0.6C790.5,585.2,790.3,585.8,790.3,586.6z"/>
			<path class="st2" d="M800.6,588.2c0-0.2-0.1-0.4-0.4-0.6c-0.2-0.1-0.6-0.3-1.2-0.4c-1.8-0.4-2.6-1.1-2.6-2.2
				c0-0.7,0.3-1.2,0.8-1.6c0.5-0.4,1.3-0.7,2.1-0.7c0.9,0,1.7,0.2,2.3,0.7s0.8,1,0.8,1.7h-2c0-0.3-0.1-0.5-0.3-0.7
				c-0.2-0.2-0.5-0.3-0.9-0.3c-0.3,0-0.6,0.1-0.8,0.2c-0.2,0.2-0.3,0.3-0.3,0.6c0,0.2,0.1,0.4,0.3,0.5c0.2,0.1,0.6,0.2,1,0.3
				c0.5,0.1,0.9,0.2,1.2,0.3c1,0.4,1.6,1,1.6,2c0,0.7-0.3,1.2-0.9,1.6c-0.6,0.4-1.3,0.6-2.2,0.6c-0.6,0-1.2-0.1-1.7-0.3
				c-0.5-0.2-0.9-0.5-1.1-0.9c-0.3-0.4-0.4-0.8-0.4-1.2h1.9c0,0.4,0.1,0.6,0.4,0.8c0.2,0.2,0.6,0.3,1,0.3c0.4,0,0.7-0.1,0.9-0.2
				C800.5,588.6,800.6,588.4,800.6,588.2z"/>
		</g>
		<g class="st1">
			<path class="st2" d="M777.1,606.8c0,1-0.2,1.8-0.5,2.6c-0.3,0.7-0.8,1.3-1.5,1.7s-1.4,0.6-2.2,0.6c-0.8,0-1.6-0.2-2.2-0.6
				c-0.6-0.4-1.1-1-1.5-1.7c-0.4-0.7-0.5-1.6-0.5-2.5v-0.5c0-1,0.2-1.8,0.5-2.6c0.4-0.7,0.9-1.3,1.5-1.7c0.6-0.4,1.4-0.6,2.2-0.6
				c0.8,0,1.6,0.2,2.2,0.6c0.6,0.4,1.1,1,1.5,1.7c0.4,0.7,0.5,1.6,0.5,2.6V606.8z M775,606.3c0-1-0.2-1.8-0.6-2.4
				c-0.4-0.5-0.9-0.8-1.6-0.8c-0.7,0-1.2,0.3-1.6,0.8c-0.4,0.5-0.6,1.3-0.6,2.4v0.5c0,1,0.2,1.8,0.6,2.4c0.4,0.6,0.9,0.8,1.6,0.8
				c0.7,0,1.2-0.3,1.6-0.8c0.4-0.5,0.6-1.3,0.6-2.4V606.3z"/>
			<path class="st2" d="M780.8,602.3v1.8h1.3v1.4h-1.3v3.7c0,0.3,0.1,0.5,0.2,0.6c0.1,0.1,0.3,0.2,0.6,0.2c0.2,0,0.4,0,0.6,0v1.5
				c-0.4,0.1-0.8,0.2-1.2,0.2c-1.4,0-2.1-0.7-2.1-2.1v-4h-1.1v-1.4h1.1v-1.8H780.8z"/>
			<path class="st2" d="M787.4,606c-0.3,0-0.5-0.1-0.7-0.1c-0.7,0-1.2,0.3-1.5,0.8v4.8h-2v-7.4h1.9l0.1,0.9c0.4-0.7,0.9-1,1.6-1
				c0.2,0,0.4,0,0.6,0.1L787.4,606z"/>
			<path class="st2" d="M787.7,607.8c0-0.7,0.1-1.4,0.4-2c0.3-0.6,0.7-1,1.2-1.3s1.1-0.5,1.8-0.5c1,0,1.8,0.3,2.4,0.9s1,1.4,1.1,2.5
				l0,0.5c0,1.1-0.3,2-0.9,2.7c-0.6,0.7-1.5,1-2.6,1s-1.9-0.3-2.6-1S787.7,609,787.7,607.8L787.7,607.8z M789.7,607.9
				c0,0.7,0.1,1.2,0.4,1.6c0.3,0.4,0.6,0.6,1.1,0.6c0.5,0,0.9-0.2,1.1-0.6c0.3-0.4,0.4-1,0.4-1.8c0-0.7-0.1-1.2-0.4-1.6
				c-0.3-0.4-0.6-0.6-1.1-0.6c-0.5,0-0.9,0.2-1.1,0.6C789.9,606.5,789.7,607.1,789.7,607.9z"/>
			<path class="st2" d="M800,609.5c0-0.2-0.1-0.4-0.4-0.6c-0.2-0.1-0.6-0.3-1.2-0.4c-1.8-0.4-2.6-1.1-2.6-2.2c0-0.7,0.3-1.2,0.8-1.6
				c0.5-0.4,1.3-0.7,2.1-0.7c0.9,0,1.7,0.2,2.3,0.7s0.8,1,0.8,1.7h-2c0-0.3-0.1-0.5-0.3-0.7c-0.2-0.2-0.5-0.3-0.9-0.3
				c-0.3,0-0.6,0.1-0.8,0.2c-0.2,0.2-0.3,0.3-0.3,0.6c0,0.2,0.1,0.4,0.3,0.5c0.2,0.1,0.6,0.2,1,0.3c0.5,0.1,0.9,0.2,1.2,0.3
				c1,0.4,1.6,1,1.6,2c0,0.7-0.3,1.2-0.9,1.6c-0.6,0.4-1.3,0.6-2.2,0.6c-0.6,0-1.2-0.1-1.7-0.3c-0.5-0.2-0.9-0.5-1.1-0.9
				c-0.3-0.4-0.4-0.8-0.4-1.2h1.9c0,0.4,0.1,0.6,0.4,0.8c0.2,0.2,0.6,0.3,1,0.3c0.4,0,0.7-0.1,0.9-0.2
				C799.9,609.9,800,609.7,800,609.5z"/>
		</g>
		<g class="st1">
			<path class="st2" d="M769.7,623.9h-3v8.3h-2.1v-8.3h-3v-1.7h8.1V623.9z"/>
			<path class="st2" d="M778.9,627.4c0,1-0.2,1.8-0.5,2.6c-0.3,0.7-0.8,1.3-1.5,1.7s-1.4,0.6-2.2,0.6c-0.8,0-1.6-0.2-2.2-0.6
				c-0.6-0.4-1.1-1-1.5-1.7c-0.4-0.7-0.5-1.6-0.5-2.5V627c0-1,0.2-1.8,0.5-2.6c0.4-0.7,0.9-1.3,1.5-1.7c0.6-0.4,1.4-0.6,2.2-0.6
				c0.8,0,1.6,0.2,2.2,0.6c0.6,0.4,1.1,1,1.5,1.7c0.4,0.7,0.5,1.6,0.5,2.6V627.4z M776.8,626.9c0-1-0.2-1.8-0.6-2.4
				c-0.4-0.5-0.9-0.8-1.6-0.8c-0.7,0-1.2,0.3-1.6,0.8c-0.4,0.5-0.6,1.3-0.6,2.4v0.5c0,1,0.2,1.8,0.6,2.4c0.4,0.6,0.9,0.8,1.6,0.8
				c0.7,0,1.2-0.3,1.6-0.8c0.4-0.5,0.6-1.3,0.6-2.4V626.9z"/>
			<path class="st2" d="M787.3,623.9h-3v8.3h-2.1v-8.3h-3v-1.7h8.1V623.9z"/>
			<path class="st2" d="M793.3,630.1h-3.6l-0.7,2.1h-2.2l3.7-10h1.9l3.7,10H794L793.3,630.1z M790.2,628.4h2.5l-1.2-3.7L790.2,628.4
				z"/>
			<path class="st2" d="M799.1,630.5h4.4v1.6h-6.4v-10h2.1V630.5z"/>
		</g>
		<g class="st1">
			<path class="st2" d="M116.9,17.9h4.7V19h-6v-10h1.3V17.9z"/>
			<path class="st2" d="M122.5,15.3c0-0.7,0.1-1.4,0.4-2s0.7-1,1.2-1.3s1.1-0.5,1.7-0.5c1,0,1.8,0.3,2.4,1s0.9,1.6,0.9,2.8v0.1
				c0,0.7-0.1,1.4-0.4,1.9c-0.3,0.6-0.7,1-1.2,1.3s-1.1,0.5-1.8,0.5c-1,0-1.8-0.3-2.4-1S122.5,16.5,122.5,15.3L122.5,15.3z
				 M123.8,15.4c0,0.8,0.2,1.5,0.6,2s0.9,0.7,1.5,0.7c0.6,0,1.2-0.3,1.5-0.8c0.4-0.5,0.6-1.2,0.6-2.1c0-0.8-0.2-1.5-0.6-2
				c-0.4-0.5-0.9-0.8-1.5-0.8c-0.6,0-1.1,0.2-1.5,0.7S123.8,14.5,123.8,15.4z"/>
			<path class="st2" d="M130.6,15.3c0-1.2,0.3-2.1,0.8-2.8c0.5-0.7,1.2-1,2.1-1c0.9,0,1.6,0.3,2.1,1l0.1-0.8h1.2v7.2
				c0,1-0.3,1.7-0.9,2.3s-1.3,0.8-2.3,0.8c-0.5,0-1.1-0.1-1.6-0.3s-0.9-0.5-1.2-0.9l0.7-0.8c0.5,0.7,1.2,1,2,1
				c0.6,0,1.1-0.2,1.4-0.5s0.5-0.8,0.5-1.5v-0.6c-0.5,0.6-1.2,0.9-2.1,0.9c-0.9,0-1.6-0.3-2.1-1S130.6,16.5,130.6,15.3z M131.8,15.4
				c0,0.8,0.2,1.5,0.5,2c0.3,0.5,0.8,0.7,1.4,0.7c0.8,0,1.4-0.4,1.8-1.1v-3.4c-0.4-0.7-1-1.1-1.7-1.1c-0.6,0-1.1,0.2-1.4,0.7
				S131.8,14.5,131.8,15.4z"/>
			<path class="st2" d="M138.4,15.3c0-0.7,0.1-1.4,0.4-2s0.7-1,1.2-1.3s1.1-0.5,1.7-0.5c1,0,1.8,0.3,2.4,1s0.9,1.6,0.9,2.8v0.1
				c0,0.7-0.1,1.4-0.4,1.9c-0.3,0.6-0.7,1-1.2,1.3s-1.1,0.5-1.8,0.5c-1,0-1.8-0.3-2.4-1S138.4,16.5,138.4,15.3L138.4,15.3z
				 M139.6,15.4c0,0.8,0.2,1.5,0.6,2s0.9,0.7,1.5,0.7c0.6,0,1.2-0.3,1.5-0.8c0.4-0.5,0.6-1.2,0.6-2.1c0-0.8-0.2-1.5-0.6-2
				c-0.4-0.5-0.9-0.8-1.5-0.8c-0.6,0-1.1,0.2-1.5,0.7S139.6,14.5,139.6,15.4z"/>
		</g>
		<g class="st1">
			<path class="st2" d="M189.6,26h-4.1l-8-13.1V26h-4.1V6.1h4.1l8,13.1V6.1h4.1V26z"/>
			<path class="st2" d="M192.3,18.5c0-1.5,0.3-2.8,0.8-3.9c0.6-1.1,1.4-2,2.4-2.7c1.1-0.6,2.3-0.9,3.7-0.9c2,0,3.6,0.6,4.9,1.8
				c1.3,1.2,2,2.9,2.1,5l0,1c0,2.3-0.6,4.1-1.9,5.5c-1.3,1.4-3,2.1-5.1,2.1s-3.8-0.7-5.1-2.1s-1.9-3.2-1.9-5.6V18.5z M196.2,18.7
				c0,1.4,0.3,2.5,0.8,3.2c0.5,0.7,1.3,1.1,2.3,1.1c1,0,1.7-0.4,2.2-1.1c0.5-0.7,0.8-1.9,0.8-3.5c0-1.4-0.3-2.4-0.8-3.2
				c-0.5-0.8-1.3-1.1-2.3-1.1c-1,0-1.7,0.4-2.2,1.1C196.5,16,196.2,17.2,196.2,18.7z"/>
			<path class="st2" d="M212.4,11.2l0.1,1.7c1-1.3,2.5-1.9,4.3-1.9c1.9,0,3.2,0.8,3.9,2.3c1-1.5,2.5-2.3,4.4-2.3
				c1.6,0,2.8,0.5,3.6,1.4c0.8,0.9,1.2,2.3,1.2,4.2V26h-4v-9.5c0-0.8-0.2-1.5-0.5-1.8c-0.3-0.4-0.9-0.6-1.7-0.6
				c-1.2,0-2,0.6-2.5,1.7l0,10.2h-4v-9.4c0-0.9-0.2-1.5-0.5-1.9c-0.3-0.4-0.9-0.6-1.7-0.6c-1.1,0-1.9,0.5-2.4,1.4V26h-4V11.2H212.4z
				"/>
			<path class="st2" d="M246.3,18.7c0,2.4-0.5,4.2-1.5,5.5s-2.4,2-4.2,2c-1.6,0-2.9-0.6-3.8-1.8l-0.2,1.6H233V5h4v7.5
				c0.9-1.1,2.1-1.6,3.6-1.6c1.8,0,3.2,0.7,4.2,2s1.5,3.2,1.5,5.6V18.7z M242.3,18.4c0-1.5-0.2-2.6-0.7-3.3c-0.5-0.7-1.2-1-2.1-1
				c-1.3,0-2.1,0.5-2.6,1.5v5.9c0.5,1,1.4,1.6,2.6,1.6c1.3,0,2.1-0.6,2.5-1.9C242.2,20.6,242.3,19.7,242.3,18.4z"/>
			<path class="st2" d="M257,14.9c-0.5-0.1-1-0.1-1.4-0.1c-1.5,0-2.5,0.5-2.9,1.5V26h-4V11.2h3.7l0.1,1.8c0.8-1.4,1.9-2,3.3-2
				c0.4,0,0.8,0.1,1.2,0.2L257,14.9z"/>
			<path class="st2" d="M265.5,26.3c-2.2,0-3.9-0.7-5.3-2c-1.4-1.3-2-3.1-2-5.3v-0.4c0-1.5,0.3-2.8,0.9-4s1.4-2.1,2.4-2.7
				s2.3-1,3.6-1c2,0,3.6,0.6,4.8,1.9s1.7,3.1,1.7,5.4v1.6h-9.4c0.1,1,0.5,1.7,1.2,2.3s1.5,0.9,2.4,0.9c1.5,0,2.7-0.6,3.6-1.7
				l1.9,2.2c-0.6,0.8-1.4,1.5-2.4,2S266.7,26.3,265.5,26.3z M265,14.1c-0.8,0-1.4,0.3-1.9,0.8c-0.5,0.5-0.8,1.3-0.9,2.3h5.5v-0.3
				c0-0.9-0.3-1.6-0.7-2C266.5,14.4,265.9,14.1,265,14.1z"/>
			<path class="st2" d="M287.6,26.3c-2.2,0-3.9-0.7-5.3-2c-1.4-1.3-2-3.1-2-5.3v-0.4c0-1.5,0.3-2.8,0.9-4s1.4-2.1,2.4-2.7
				s2.3-1,3.6-1c2,0,3.6,0.6,4.8,1.9s1.7,3.1,1.7,5.4v1.6h-9.4c0.1,1,0.5,1.7,1.2,2.3s1.5,0.9,2.4,0.9c1.5,0,2.7-0.6,3.6-1.7
				l1.9,2.2c-0.6,0.8-1.4,1.5-2.4,2S288.8,26.3,287.6,26.3z M287.1,14.1c-0.8,0-1.4,0.3-1.9,0.8c-0.5,0.5-0.8,1.3-0.9,2.3h5.5v-0.3
				c0-0.9-0.3-1.6-0.7-2C288.6,14.4,288,14.1,287.1,14.1z"/>
			<path class="st2" d="M299.6,11.2l0.1,1.7c1-1.3,2.5-1.9,4.3-1.9c1.9,0,3.2,0.8,3.9,2.3c1-1.5,2.5-2.3,4.4-2.3
				c1.6,0,2.8,0.5,3.6,1.4c0.8,0.9,1.2,2.3,1.2,4.2V26h-4v-9.5c0-0.8-0.2-1.5-0.5-1.8c-0.3-0.4-0.9-0.6-1.7-0.6
				c-1.2,0-2,0.6-2.5,1.7l0,10.2h-4v-9.4c0-0.9-0.2-1.5-0.5-1.9c-0.3-0.4-0.9-0.6-1.7-0.6c-1.1,0-1.9,0.5-2.4,1.4V26h-4V11.2H299.6z
				"/>
			<path class="st2" d="M333.5,18.7c0,2.3-0.5,4.1-1.6,5.5c-1,1.4-2.4,2.1-4.2,2.1c-1.5,0-2.7-0.5-3.6-1.6v7h-4V11.2h3.7l0.1,1.4
				c1-1.1,2.2-1.7,3.7-1.7c1.8,0,3.2,0.7,4.3,2s1.5,3.2,1.5,5.6V18.7z M329.5,18.4c0-1.4-0.2-2.4-0.7-3.2c-0.5-0.8-1.2-1.1-2.1-1.1
				c-1.2,0-2.1,0.5-2.6,1.4v6.1c0.5,1,1.3,1.5,2.6,1.5C328.6,23.1,329.5,21.5,329.5,18.4z"/>
			<path class="st2" d="M344.2,14.9c-0.5-0.1-1-0.1-1.4-0.1c-1.5,0-2.5,0.5-2.9,1.5V26h-4V11.2h3.7l0.1,1.8c0.8-1.4,1.9-2,3.3-2
				c0.4,0,0.8,0.1,1.2,0.2L344.2,14.9z"/>
			<path class="st2" d="M352.7,26.3c-2.2,0-3.9-0.7-5.3-2c-1.4-1.3-2-3.1-2-5.3v-0.4c0-1.5,0.3-2.8,0.9-4s1.4-2.1,2.4-2.7
				s2.3-1,3.6-1c2,0,3.6,0.6,4.8,1.9s1.7,3.1,1.7,5.4v1.6h-9.4c0.1,1,0.5,1.7,1.2,2.3s1.5,0.9,2.4,0.9c1.5,0,2.7-0.6,3.6-1.7
				l1.9,2.2c-0.6,0.8-1.4,1.5-2.4,2S353.9,26.3,352.7,26.3z M352.2,14.1c-0.8,0-1.4,0.3-1.9,0.8c-0.5,0.5-0.8,1.3-0.9,2.3h5.5v-0.3
				c0-0.9-0.3-1.6-0.7-2C353.7,14.4,353.1,14.1,352.2,14.1z"/>
			<path class="st2" d="M369,21.9c0-0.5-0.2-0.9-0.7-1.1s-1.2-0.5-2.3-0.7c-3.5-0.7-5.3-2.2-5.3-4.5c0-1.3,0.5-2.4,1.6-3.3
				c1.1-0.9,2.5-1.3,4.3-1.3c1.9,0,3.4,0.4,4.5,1.3c1.1,0.9,1.7,2,1.7,3.4h-4c0-0.6-0.2-1-0.5-1.4c-0.4-0.4-0.9-0.6-1.7-0.6
				c-0.7,0-1.2,0.2-1.5,0.5c-0.4,0.3-0.5,0.7-0.5,1.1c0,0.4,0.2,0.8,0.6,1.1c0.4,0.3,1.1,0.5,2.1,0.7s1.8,0.4,2.5,0.7
				c2.1,0.8,3.1,2.1,3.1,4c0,1.3-0.6,2.4-1.7,3.3c-1.2,0.8-2.7,1.3-4.5,1.3c-1.2,0-2.3-0.2-3.3-0.7c-1-0.4-1.7-1-2.3-1.8
				s-0.8-1.6-0.8-2.5h3.7c0,0.7,0.3,1.2,0.8,1.6c0.5,0.4,1.1,0.6,1.9,0.6c0.8,0,1.3-0.1,1.7-0.4C368.8,22.8,369,22.4,369,21.9z"/>
			<path class="st2" d="M384,26c-0.2-0.4-0.3-0.8-0.4-1.3c-1,1.1-2.2,1.6-3.7,1.6c-1.4,0-2.7-0.4-3.6-1.3c-1-0.8-1.4-1.9-1.4-3.2
				c0-1.6,0.6-2.8,1.7-3.6s2.8-1.3,5-1.3h1.8v-0.8c0-0.7-0.2-1.2-0.5-1.6c-0.4-0.4-0.9-0.6-1.7-0.6c-0.7,0-1.2,0.2-1.6,0.5
				c-0.4,0.3-0.6,0.8-0.6,1.3h-4c0-0.9,0.3-1.6,0.8-2.4c0.5-0.7,1.3-1.3,2.2-1.7c1-0.4,2.1-0.6,3.3-0.6c1.8,0,3.3,0.5,4.3,1.4
				c1.1,0.9,1.6,2.2,1.6,3.9v6.4c0,1.4,0.2,2.5,0.6,3.2V26H384z M380.7,23.3c0.6,0,1.1-0.1,1.6-0.4s0.9-0.6,1.1-1v-2.5h-1.5
				c-2,0-3,0.7-3.2,2.1l0,0.2c0,0.5,0.2,0.9,0.5,1.2C379.6,23.1,380.1,23.3,380.7,23.3z"/>
		</g>
		<g class="st1">
			<path class="st2" d="M225,218.8c-0.2,2.1-0.9,3.8-2.4,5.1c-1.4,1.2-3.3,1.8-5.6,1.8c-2.6,0-4.6-0.9-6-2.6s-2.2-4.1-2.2-7.1v-1.2
				c0-1.9,0.3-3.6,1-5.1c0.7-1.5,1.6-2.6,2.9-3.4c1.3-0.8,2.7-1.2,4.4-1.2c2.3,0,4.1,0.6,5.6,1.8c1.4,1.2,2.2,3,2.4,5.2h-4.1
				c-0.1-1.3-0.5-2.2-1.1-2.8s-1.6-0.9-2.8-0.9c-1.4,0-2.4,0.5-3.1,1.5c-0.7,1-1,2.5-1,4.6v1.5c0,2.2,0.3,3.7,1,4.7
				c0.7,1,1.7,1.5,3.1,1.5c1.3,0,2.2-0.3,2.8-0.9c0.6-0.6,1-1.5,1.1-2.7H225z"/>
			<path class="st2" d="M231.6,225.4h-4v-21h4V225.4z"/>
			<path class="st2" d="M234.8,206.8c0-0.6,0.2-1.1,0.6-1.5s0.9-0.6,1.6-0.6c0.7,0,1.2,0.2,1.6,0.6c0.4,0.4,0.6,0.9,0.6,1.5
				c0,0.6-0.2,1.1-0.6,1.5c-0.4,0.4-0.9,0.6-1.6,0.6c-0.7,0-1.2-0.2-1.6-0.6C235,207.9,234.8,207.4,234.8,206.8z M239,225.4h-4
				v-14.8h4V225.4z"/>
			<path class="st2" d="M249.1,225.7c-2.2,0-3.9-0.7-5.3-2c-1.4-1.3-2-3.1-2-5.3V218c0-1.5,0.3-2.8,0.9-4s1.4-2.1,2.4-2.7
				s2.3-1,3.6-1c2,0,3.6,0.6,4.8,1.9s1.7,3.1,1.7,5.4v1.6h-9.4c0.1,1,0.5,1.7,1.2,2.3s1.5,0.9,2.4,0.9c1.5,0,2.7-0.6,3.6-1.7
				l1.9,2.2c-0.6,0.8-1.4,1.5-2.4,2S250.3,225.7,249.1,225.7z M248.6,213.5c-0.8,0-1.4,0.3-1.9,0.8c-0.5,0.5-0.8,1.3-0.9,2.3h5.5
				v-0.3c0-0.9-0.3-1.6-0.7-2C250.1,213.8,249.5,213.5,248.6,213.5z"/>
			<path class="st2" d="M261.1,210.6l0.1,1.7c1.1-1.3,2.5-2,4.3-2c1.6,0,2.7,0.5,3.5,1.4s1.2,2.3,1.2,4.1v9.6h-4v-9.5
				c0-0.8-0.2-1.5-0.5-1.8c-0.4-0.4-1-0.6-1.8-0.6c-1.1,0-1.9,0.5-2.5,1.4v10.5h-4v-14.8H261.1z"/>
			<path class="st2" d="M277.8,207v3.6h2.5v2.9h-2.5v7.4c0,0.5,0.1,0.9,0.3,1.2c0.2,0.2,0.6,0.4,1.2,0.4c0.4,0,0.8,0,1.2-0.1v3
				c-0.8,0.2-1.6,0.4-2.4,0.4c-2.8,0-4.2-1.4-4.2-4.2v-8h-2.2v-2.9h2.2V207H277.8z"/>
			<path class="st2" d="M289.4,225.7c-2.2,0-3.9-0.7-5.3-2c-1.4-1.3-2-3.1-2-5.3V218c0-1.5,0.3-2.8,0.9-4s1.4-2.1,2.4-2.7
				s2.3-1,3.6-1c2,0,3.6,0.6,4.8,1.9s1.7,3.1,1.7,5.4v1.6H286c0.1,1,0.5,1.7,1.2,2.3s1.5,0.9,2.4,0.9c1.5,0,2.7-0.6,3.6-1.7l1.9,2.2
				c-0.6,0.8-1.4,1.5-2.4,2S290.6,225.7,289.4,225.7z M288.9,213.5c-0.8,0-1.4,0.3-1.9,0.8c-0.5,0.5-0.8,1.3-0.9,2.3h5.5v-0.3
				c0-0.9-0.3-1.6-0.7-2C290.4,213.8,289.8,213.5,288.9,213.5z"/>
		</g>
		<rect x="0" y="675.9" class="st3" width="688.8" height="113.7"/>
		<rect x="816" y="97.8" class="st3" width="144.4" height="58.2"/>
		<line class="st3" x1="816.9" y1="116.4" x2="960.5" y2="116.4"/>
		<line class="st3" x1="816" y1="137.1" x2="960.5" y2="137.1"/>
		<rect x="816" y="556.6" class="st3" width="144.4" height="82.5"/>
		<line class="st3" x1="816.9" y1="575.2" x2="960.5" y2="575.2"/>
		<line class="st3" x1="816" y1="595.9" x2="960.5" y2="595.9"/>
		<line class="st3" x1="816.9" y1="618.1" x2="960.5" y2="618.1"/>
		<line class="st3" x1="111.6" y1="362.3" x2="111.6" y2="543.6"/>
		<line class="st3" x1="314.6" y1="362.3" x2="314.6" y2="543.6"/>
		<line class="st3" x1="471.1" y1="362.3" x2="471.1" y2="543.6"/>
		<line class="st3" x1="653.6" y1="362.3" x2="653.6" y2="543.6"/>
		<line class="st3" x1="816.9" y1="362.3" x2="816.9" y2="543.6"/>
		<rect x="0" y="362.3" class="st3" width="959.5" height="181.3"/>
		<line class="st3" x1="0" y1="400.1" x2="959.5" y2="400.1"/>
		<line class="st3" x1="0" y1="424.4" x2="959.5" y2="424.4"/>
		<line class="st3" x1="0" y1="447.8" x2="959.5" y2="447.8"/>
		<line class="st3" x1="0" y1="471.2" x2="959.5" y2="471.2"/>
		<line class="st3" x1="0" y1="494.6" x2="959.5" y2="494.6"/>
		<line class="st3" x1="0" y1="518" x2="959.5" y2="518"/>
		<g class="st1">
			<path class="st2" d="M5.3,64.6v-10h2.8c0.9,0,1.6,0.2,2.3,0.6s1.2,0.9,1.5,1.6s0.5,1.5,0.6,2.4v0.6c0,0.9-0.2,1.8-0.5,2.5
				s-0.9,1.2-1.6,1.6c-0.7,0.4-1.5,0.6-2.3,0.6H5.3z M6.6,55.7v7.8H8c1,0,1.8-0.3,2.4-0.9c0.6-0.6,0.8-1.5,0.8-2.7v-0.6
				c0-1.1-0.3-2-0.8-2.6c-0.5-0.6-1.3-0.9-2.3-1H6.6z"/>
			<path class="st2" d="M14.3,55.2c0-0.2,0.1-0.4,0.2-0.5s0.3-0.2,0.6-0.2s0.4,0.1,0.6,0.2s0.2,0.3,0.2,0.5s-0.1,0.4-0.2,0.5
				s-0.3,0.2-0.6,0.2s-0.4-0.1-0.6-0.2S14.3,55.4,14.3,55.2z M15.6,64.6h-1.3v-7.4h1.3V64.6z"/>
			<path class="st2" d="M21.2,58.3c-0.2,0-0.4,0-0.6,0c-0.8,0-1.4,0.4-1.7,1.1v5.2h-1.3v-7.4h1.2l0,0.9c0.4-0.7,1-1,1.8-1
				c0.2,0,0.4,0,0.6,0.1V58.3z"/>
			<path class="st2" d="M25.3,64.7c-1,0-1.8-0.3-2.4-1c-0.6-0.7-0.9-1.5-0.9-2.6v-0.2c0-0.7,0.1-1.4,0.4-2c0.3-0.6,0.7-1,1.2-1.4
				c0.5-0.3,1-0.5,1.6-0.5c1,0,1.7,0.3,2.2,1s0.8,1.5,0.8,2.7v0.5h-5c0,0.7,0.2,1.3,0.6,1.8c0.4,0.4,0.9,0.7,1.6,0.7
				c0.4,0,0.8-0.1,1.1-0.3s0.6-0.4,0.8-0.7l0.8,0.6C27.5,64.2,26.6,64.7,25.3,64.7z M25.2,58.1c-0.5,0-0.9,0.2-1.3,0.6
				c-0.3,0.4-0.6,0.9-0.6,1.6H27v-0.1c0-0.6-0.2-1.1-0.5-1.5C26.1,58.3,25.7,58.1,25.2,58.1z"/>
			<path class="st2" d="M32.7,63.7c0.5,0,0.8-0.1,1.2-0.4s0.5-0.6,0.6-1h1.2c0,0.4-0.2,0.8-0.4,1.2s-0.6,0.7-1.1,0.9
				s-0.9,0.3-1.4,0.3c-1,0-1.8-0.3-2.4-1c-0.6-0.7-0.9-1.6-0.9-2.8v-0.2c0-0.7,0.1-1.4,0.4-1.9s0.6-1,1.1-1.3s1.1-0.5,1.8-0.5
				c0.8,0,1.5,0.2,2.1,0.7s0.8,1.1,0.9,1.9h-1.2c0-0.5-0.2-0.9-0.5-1.2c-0.3-0.3-0.7-0.5-1.2-0.5c-0.6,0-1.1,0.2-1.5,0.7
				c-0.4,0.5-0.5,1.1-0.5,2V61c0,0.9,0.2,1.5,0.5,2S32,63.7,32.7,63.7z"/>
			<path class="st2" d="M40,63.7c0.5,0,0.8-0.1,1.2-0.4s0.5-0.6,0.6-1h1.2c0,0.4-0.2,0.8-0.4,1.2s-0.6,0.7-1.1,0.9s-0.9,0.3-1.4,0.3
				c-1,0-1.8-0.3-2.4-1C37,63,36.7,62.1,36.7,61v-0.2c0-0.7,0.1-1.4,0.4-1.9s0.6-1,1.1-1.3s1.1-0.5,1.8-0.5c0.8,0,1.5,0.2,2.1,0.7
				s0.8,1.1,0.9,1.9h-1.2c0-0.5-0.2-0.9-0.5-1.2c-0.3-0.3-0.7-0.5-1.2-0.5c-0.6,0-1.1,0.2-1.5,0.7c-0.4,0.5-0.5,1.1-0.5,2V61
				c0,0.9,0.2,1.5,0.5,2S39.3,63.7,40,63.7z"/>
			<path class="st2" d="M44.4,55.2c0-0.2,0.1-0.4,0.2-0.5s0.3-0.2,0.6-0.2s0.4,0.1,0.6,0.2s0.2,0.3,0.2,0.5s-0.1,0.4-0.2,0.5
				s-0.3,0.2-0.6,0.2s-0.4-0.1-0.6-0.2S44.4,55.4,44.4,55.2z M45.7,64.6h-1.3v-7.4h1.3V64.6z"/>
			<path class="st2" d="M47.4,60.8c0-0.7,0.1-1.4,0.4-2s0.7-1,1.2-1.3s1.1-0.5,1.7-0.5c1,0,1.8,0.3,2.4,1s0.9,1.6,0.9,2.8V61
				c0,0.7-0.1,1.4-0.4,1.9c-0.3,0.6-0.7,1-1.2,1.3c-0.5,0.3-1.1,0.5-1.8,0.5c-1,0-1.8-0.3-2.4-1C47.7,63,47.4,62.1,47.4,60.8
				L47.4,60.8z M48.7,61c0,0.8,0.2,1.5,0.6,2s0.9,0.7,1.5,0.7c0.6,0,1.2-0.3,1.5-0.8c0.4-0.5,0.6-1.2,0.6-2.1c0-0.8-0.2-1.5-0.6-2
				c-0.4-0.5-0.9-0.8-1.5-0.8c-0.6,0-1.1,0.2-1.5,0.7S48.7,60,48.7,61z M51.3,54.1h1.5l-1.8,2l-1,0L51.3,54.1z"/>
			<path class="st2" d="M56.9,57.2l0,0.9c0.6-0.7,1.3-1.1,2.2-1.1c1.6,0,2.4,0.9,2.4,2.6v4.9h-1.3v-4.9c0-0.5-0.1-0.9-0.4-1.2
				s-0.6-0.4-1.1-0.4c-0.4,0-0.8,0.1-1.1,0.3S57.2,59,57,59.3v5.3h-1.3v-7.4H56.9z"/>
		</g>
		<g class="st1">
			<path class="st2" d="M12.6,83.4c-0.1,1.1-0.5,1.9-1.2,2.4c-0.7,0.6-1.5,0.9-2.6,0.9c-1.2,0-2.1-0.4-2.8-1.3s-1.1-2-1.1-3.4v-1
				c0-0.9,0.2-1.7,0.5-2.4s0.8-1.2,1.4-1.6c0.6-0.4,1.3-0.6,2.1-0.6c1.1,0,1.9,0.3,2.5,0.9c0.6,0.6,1,1.4,1.1,2.5h-1.3
				c-0.1-0.8-0.4-1.4-0.7-1.7S9.6,77.6,9,77.6c-0.8,0-1.5,0.3-2,0.9S6.3,80,6.3,81.2v1c0,1.1,0.2,1.9,0.7,2.6s1.1,1,1.9,1
				c0.7,0,1.3-0.2,1.7-0.5c0.4-0.3,0.6-0.9,0.8-1.7H12.6z"/>
			<path class="st2" d="M14.2,77.2c0-0.2,0.1-0.4,0.2-0.5s0.3-0.2,0.6-0.2s0.4,0.1,0.6,0.2s0.2,0.3,0.2,0.5s-0.1,0.4-0.2,0.5
				S15.2,78,15,78s-0.4-0.1-0.6-0.2S14.2,77.4,14.2,77.2z M15.6,86.6h-1.3v-7.4h1.3V86.6z"/>
			<path class="st2" d="M22.2,85.9c-0.5,0.6-1.2,0.9-2.2,0.9c-0.8,0-1.4-0.2-1.8-0.7c-0.4-0.5-0.6-1.1-0.6-2v-4.8h1.3V84
				c0,1.1,0.5,1.7,1.4,1.7c1,0,1.6-0.4,1.9-1.1v-5.4h1.3v7.4h-1.2L22.2,85.9z"/>
			<path class="st2" d="M25,82.8c0-1.1,0.3-2,0.8-2.7c0.5-0.7,1.2-1,2.1-1c0.9,0,1.6,0.3,2.1,0.9v-3.9h1.3v10.5h-1.2L30,85.8
				c-0.5,0.6-1.2,0.9-2.1,0.9c-0.9,0-1.6-0.4-2.1-1.1S25,84.1,25,82.8L25,82.8z M26.3,83c0,0.8,0.2,1.5,0.5,2s0.8,0.7,1.4,0.7
				c0.8,0,1.4-0.4,1.8-1.1v-3.4c-0.4-0.7-1-1-1.7-1c-0.6,0-1.1,0.2-1.4,0.7S26.3,82,26.3,83z"/>
			<path class="st2" d="M37.8,86.6c-0.1-0.1-0.1-0.4-0.2-0.8c-0.6,0.6-1.3,0.9-2.1,0.9c-0.7,0-1.3-0.2-1.8-0.6
				c-0.5-0.4-0.7-0.9-0.7-1.6c0-0.8,0.3-1.4,0.9-1.8c0.6-0.4,1.4-0.6,2.5-0.6h1.2v-0.6c0-0.4-0.1-0.8-0.4-1.1
				c-0.3-0.3-0.7-0.4-1.2-0.4c-0.5,0-0.8,0.1-1.1,0.3s-0.5,0.5-0.5,0.8h-1.3c0-0.4,0.1-0.7,0.4-1.1c0.3-0.3,0.6-0.6,1.1-0.8
				s0.9-0.3,1.5-0.3c0.9,0,1.5,0.2,2,0.6c0.5,0.4,0.7,1,0.8,1.8v3.4c0,0.7,0.1,1.2,0.3,1.6v0.1H37.8z M35.7,85.6
				c0.4,0,0.8-0.1,1.1-0.3s0.6-0.5,0.8-0.8V83h-1c-1.5,0-2.3,0.5-2.3,1.4c0,0.4,0.1,0.7,0.4,0.9S35.3,85.6,35.7,85.6z"/>
			<path class="st2" d="M40.5,82.8c0-1.1,0.3-2,0.8-2.7c0.5-0.7,1.2-1,2.1-1c0.9,0,1.6,0.3,2.1,0.9v-3.9h1.3v10.5h-1.2l-0.1-0.8
				c-0.5,0.6-1.2,0.9-2.1,0.9c-0.9,0-1.6-0.4-2.1-1.1S40.5,84.1,40.5,82.8L40.5,82.8z M41.8,83c0,0.8,0.2,1.5,0.5,2s0.8,0.7,1.4,0.7
				c0.8,0,1.4-0.4,1.8-1.1v-3.4c-0.4-0.7-1-1-1.7-1c-0.6,0-1.1,0.2-1.4,0.7S41.8,82,41.8,83z"/>
		</g>
		<g class="st1">
			<path class="st2" d="M8.2,104.2c-1.1-0.3-1.9-0.7-2.5-1.2c-0.5-0.5-0.8-1.1-0.8-1.7c0-0.8,0.3-1.4,0.9-1.9
				c0.6-0.5,1.4-0.8,2.4-0.8c0.7,0,1.3,0.1,1.8,0.4s1,0.6,1.2,1.1s0.4,1,0.4,1.5h-1.3c0-0.6-0.2-1.1-0.6-1.4
				c-0.4-0.3-0.9-0.5-1.6-0.5c-0.6,0-1.2,0.1-1.5,0.4c-0.4,0.3-0.5,0.7-0.5,1.2c0,0.4,0.2,0.8,0.5,1c0.3,0.3,0.9,0.5,1.8,0.8
				c0.8,0.2,1.5,0.5,1.9,0.8c0.5,0.3,0.8,0.6,1,1s0.3,0.8,0.3,1.3c0,0.8-0.3,1.5-0.9,1.9c-0.6,0.5-1.5,0.7-2.5,0.7
				c-0.7,0-1.3-0.1-1.9-0.4c-0.6-0.3-1-0.6-1.4-1.1s-0.5-1-0.5-1.6H6c0,0.6,0.2,1.1,0.7,1.4c0.4,0.3,1,0.5,1.8,0.5
				c0.7,0,1.2-0.1,1.6-0.4s0.6-0.7,0.6-1.2s-0.2-0.9-0.5-1.1C9.7,104.7,9.1,104.4,8.2,104.2z"/>
			<path class="st2" d="M13.4,99.2c0-0.2,0.1-0.4,0.2-0.5s0.3-0.2,0.6-0.2s0.4,0.1,0.6,0.2s0.2,0.3,0.2,0.5s-0.1,0.4-0.2,0.5
				s-0.3,0.2-0.6,0.2s-0.4-0.1-0.6-0.2S13.4,99.4,13.4,99.2z M14.8,108.6h-1.3v-7.4h1.3V108.6z"/>
			<path class="st2" d="M18.5,99.4v1.8h1.4v1h-1.4v4.6c0,0.3,0.1,0.5,0.2,0.7s0.3,0.2,0.6,0.2c0.1,0,0.3,0,0.6-0.1v1
				c-0.3,0.1-0.7,0.1-1,0.1c-0.6,0-1-0.2-1.3-0.5s-0.4-0.8-0.4-1.5v-4.6h-1.3v-1h1.3v-1.8H18.5z"/>
			<path class="st2" d="M21.4,99.2c0-0.2,0.1-0.4,0.2-0.5s0.3-0.2,0.6-0.2s0.4,0.1,0.6,0.2s0.2,0.3,0.2,0.5s-0.1,0.4-0.2,0.5
				s-0.3,0.2-0.6,0.2s-0.4-0.1-0.6-0.2S21.4,99.4,21.4,99.2z M22.7,108.6h-1.3v-7.4h1.3V108.6z"/>
			<path class="st2" d="M24.4,104.8c0-0.7,0.1-1.4,0.4-2s0.7-1,1.2-1.3s1.1-0.5,1.7-0.5c1,0,1.8,0.3,2.4,1s0.9,1.6,0.9,2.8v0.1
				c0,0.7-0.1,1.4-0.4,1.9c-0.3,0.6-0.7,1-1.2,1.3s-1.1,0.5-1.8,0.5c-1,0-1.8-0.3-2.4-1S24.4,106.1,24.4,104.8L24.4,104.8z
				 M25.7,105c0,0.8,0.2,1.5,0.6,2s0.9,0.7,1.5,0.7c0.6,0,1.2-0.3,1.5-0.8c0.4-0.5,0.6-1.2,0.6-2.1c0-0.8-0.2-1.5-0.6-2
				c-0.4-0.5-0.9-0.8-1.5-0.8c-0.6,0-1.1,0.2-1.5,0.7S25.7,104.1,25.7,105z"/>
			<path class="st2" d="M42.8,106.9l1.4-5.7h1.3l-2.2,7.4h-1l-1.8-5.6l-1.8,5.6h-1l-2.1-7.4h1.3l1.5,5.5l1.7-5.5h1L42.8,106.9z"/>
			<path class="st2" d="M49.8,108.7c-1,0-1.8-0.3-2.4-1c-0.6-0.7-0.9-1.5-0.9-2.6v-0.2c0-0.7,0.1-1.4,0.4-2c0.3-0.6,0.7-1,1.2-1.4
				c0.5-0.3,1-0.5,1.6-0.5c1,0,1.7,0.3,2.2,1s0.8,1.5,0.8,2.7v0.5h-5c0,0.7,0.2,1.3,0.6,1.8c0.4,0.4,0.9,0.7,1.6,0.7
				c0.4,0,0.8-0.1,1.1-0.3s0.6-0.4,0.8-0.7l0.8,0.6C52,108.3,51,108.7,49.8,108.7z M49.6,102.1c-0.5,0-0.9,0.2-1.3,0.6
				c-0.3,0.4-0.6,0.9-0.6,1.6h3.7v-0.1c0-0.6-0.2-1.1-0.5-1.5C50.6,102.3,50.2,102.1,49.6,102.1z"/>
			<path class="st2" d="M60.4,105c0,1.1-0.3,2-0.8,2.7c-0.5,0.7-1.2,1-2.1,1c-0.9,0-1.7-0.3-2.2-1l-0.1,0.9h-1.2V98.1h1.3v3.9
				c0.5-0.6,1.2-1,2.1-1s1.6,0.3,2.1,1s0.8,1.6,0.8,2.8V105z M59.2,104.8c0-0.9-0.2-1.5-0.5-2s-0.8-0.7-1.4-0.7
				c-0.8,0-1.4,0.4-1.8,1.2v3.2c0.4,0.8,1,1.2,1.8,1.2c0.6,0,1.1-0.2,1.4-0.7S59.2,105.8,59.2,104.8z"/>
		</g>
		<g class="st1">
			<path class="st2" d="M12.2,121.7H9v8.9H7.7v-8.9H4.5v-1.1h7.7V121.7z"/>
			<path class="st2" d="M15.8,130.7c-1,0-1.8-0.3-2.4-1c-0.6-0.7-0.9-1.5-0.9-2.6v-0.2c0-0.7,0.1-1.4,0.4-2c0.3-0.6,0.7-1,1.2-1.4
				c0.5-0.3,1-0.5,1.6-0.5c1,0,1.7,0.3,2.2,1s0.8,1.5,0.8,2.7v0.5h-5c0,0.7,0.2,1.3,0.6,1.8c0.4,0.4,0.9,0.7,1.6,0.7
				c0.4,0,0.8-0.1,1.1-0.3s0.6-0.4,0.8-0.7l0.8,0.6C18,130.3,17.1,130.7,15.8,130.7z M15.7,124.1c-0.5,0-0.9,0.2-1.3,0.6
				c-0.3,0.4-0.6,0.9-0.6,1.6h3.7v-0.1c0-0.6-0.2-1.1-0.5-1.5C16.6,124.3,16.2,124.1,15.7,124.1z"/>
			<path class="st2" d="M21.6,130.6h-1.3v-10.5h1.3V130.6z"/>
			<path class="st2" d="M26.7,130.7c-1,0-1.8-0.3-2.4-1c-0.6-0.7-0.9-1.5-0.9-2.6v-0.2c0-0.7,0.1-1.4,0.4-2c0.3-0.6,0.7-1,1.2-1.4
				c0.5-0.3,1-0.5,1.6-0.5c1,0,1.7,0.3,2.2,1s0.8,1.5,0.8,2.7v0.5h-5c0,0.7,0.2,1.3,0.6,1.8c0.4,0.4,0.9,0.7,1.6,0.7
				c0.4,0,0.8-0.1,1.1-0.3s0.6-0.4,0.8-0.7l0.8,0.6C28.8,130.3,27.9,130.7,26.7,130.7z M26.5,124.1c-0.5,0-0.9,0.2-1.3,0.6
				c-0.3,0.4-0.6,0.9-0.6,1.6h3.7v-0.1c0-0.6-0.2-1.1-0.5-1.5C27.4,124.3,27,124.1,26.5,124.1z M27.1,120.1h1.5l-1.8,2l-1,0
				L27.1,120.1z"/>
			<path class="st2" d="M31.6,130.6v-6.4h-1.2v-1h1.2v-0.8c0-0.8,0.2-1.4,0.6-1.8s1-0.6,1.8-0.6c0.3,0,0.6,0,0.9,0.1l-0.1,1
				c-0.2,0-0.4-0.1-0.7-0.1c-0.4,0-0.7,0.1-1,0.4c-0.2,0.2-0.3,0.6-0.3,1v0.8h1.6v1h-1.6v6.4H31.6z"/>
			<path class="st2" d="M35.5,126.8c0-0.7,0.1-1.4,0.4-2s0.7-1,1.2-1.3s1.1-0.5,1.7-0.5c1,0,1.8,0.3,2.4,1s0.9,1.6,0.9,2.8v0.1
				c0,0.7-0.1,1.4-0.4,1.9c-0.3,0.6-0.7,1-1.2,1.3s-1.1,0.5-1.8,0.5c-1,0-1.8-0.3-2.4-1S35.5,128.1,35.5,126.8L35.5,126.8z
				 M36.8,127c0,0.8,0.2,1.5,0.6,2s0.9,0.7,1.5,0.7c0.6,0,1.2-0.3,1.5-0.8c0.4-0.5,0.6-1.2,0.6-2.1c0-0.8-0.2-1.5-0.6-2
				c-0.4-0.5-0.9-0.8-1.5-0.8c-0.6,0-1.1,0.2-1.5,0.7S36.8,126.1,36.8,127z"/>
			<path class="st2" d="M45,123.2l0,0.9c0.6-0.7,1.3-1.1,2.2-1.1c1.6,0,2.4,0.9,2.4,2.6v4.9h-1.3v-4.9c0-0.5-0.1-0.9-0.4-1.2
				s-0.6-0.4-1.1-0.4c-0.4,0-0.8,0.1-1.1,0.3s-0.6,0.5-0.7,0.9v5.3h-1.3v-7.4H45z"/>
			<path class="st2" d="M51.2,126.8c0-0.7,0.1-1.4,0.4-2s0.7-1,1.2-1.3s1.1-0.5,1.7-0.5c1,0,1.8,0.3,2.4,1s0.9,1.6,0.9,2.8v0.1
				c0,0.7-0.1,1.4-0.4,1.9c-0.3,0.6-0.7,1-1.2,1.3s-1.1,0.5-1.8,0.5c-1,0-1.8-0.3-2.4-1S51.2,128.1,51.2,126.8L51.2,126.8z
				 M52.5,127c0,0.8,0.2,1.5,0.6,2s0.9,0.7,1.5,0.7c0.6,0,1.2-0.3,1.5-0.8c0.4-0.5,0.6-1.2,0.6-2.1c0-0.8-0.2-1.5-0.6-2
				c-0.4-0.5-0.9-0.8-1.5-0.8c-0.6,0-1.1,0.2-1.5,0.7S52.5,126.1,52.5,127z"/>
		</g>
		<g class="st1">
			<path class="st2" d="M6.6,147.2v3.9H5.3v-10H9c1.1,0,1.9,0.3,2.6,0.8s0.9,1.3,0.9,2.2c0,1-0.3,1.7-0.9,2.2
				c-0.6,0.5-1.5,0.8-2.6,0.8H6.6z M6.6,146.1H9c0.7,0,1.2-0.2,1.6-0.5s0.6-0.8,0.6-1.4c0-0.6-0.2-1.1-0.6-1.4s-0.9-0.5-1.5-0.6H6.6
				V146.1z"/>
			<path class="st2" d="M18.4,151.1c-0.1-0.1-0.1-0.4-0.2-0.8c-0.6,0.6-1.3,0.9-2.1,0.9c-0.7,0-1.3-0.2-1.8-0.6
				c-0.5-0.4-0.7-0.9-0.7-1.6c0-0.8,0.3-1.4,0.9-1.8c0.6-0.4,1.4-0.6,2.5-0.6h1.2V146c0-0.4-0.1-0.8-0.4-1.1
				c-0.3-0.3-0.7-0.4-1.2-0.4c-0.5,0-0.8,0.1-1.1,0.3s-0.5,0.5-0.5,0.8h-1.3c0-0.4,0.1-0.7,0.4-1.1c0.3-0.3,0.6-0.6,1.1-0.8
				s0.9-0.3,1.5-0.3c0.9,0,1.5,0.2,2,0.6c0.5,0.4,0.7,1,0.8,1.8v3.4c0,0.7,0.1,1.2,0.3,1.6v0.1H18.4z M16.3,150.1
				c0.4,0,0.8-0.1,1.1-0.3s0.6-0.5,0.8-0.8v-1.5h-1c-1.5,0-2.3,0.5-2.3,1.4c0,0.4,0.1,0.7,0.4,0.9S15.9,150.1,16.3,150.1z
				 M17.5,140.6H19l-1.8,2l-1,0L17.5,140.6z"/>
			<path class="st2" d="M21.2,147.3c0-1.2,0.3-2.1,0.8-2.8c0.5-0.7,1.2-1,2.1-1c0.9,0,1.6,0.3,2.1,1l0.1-0.8h1.2v7.2
				c0,1-0.3,1.7-0.9,2.3s-1.3,0.8-2.3,0.8c-0.5,0-1.1-0.1-1.6-0.3s-0.9-0.5-1.2-0.9l0.7-0.8c0.5,0.7,1.2,1,2,1
				c0.6,0,1.1-0.2,1.4-0.5s0.5-0.8,0.5-1.5v-0.6c-0.5,0.6-1.2,0.9-2.1,0.9c-0.9,0-1.6-0.3-2.1-1S21.2,148.5,21.2,147.3z M22.4,147.4
				c0,0.8,0.2,1.5,0.5,2c0.3,0.5,0.8,0.7,1.4,0.7c0.8,0,1.4-0.4,1.8-1.1v-3.4c-0.4-0.7-1-1.1-1.7-1.1c-0.6,0-1.1,0.2-1.4,0.7
				S22.4,146.5,22.4,147.4z"/>
			<path class="st2" d="M29.3,141.7c0-0.2,0.1-0.4,0.2-0.5s0.3-0.2,0.6-0.2s0.4,0.1,0.6,0.2s0.2,0.3,0.2,0.5s-0.1,0.4-0.2,0.5
				s-0.3,0.2-0.6,0.2s-0.4-0.1-0.6-0.2S29.3,141.9,29.3,141.7z M30.7,151.1h-1.3v-7.4h1.3V151.1z"/>
			<path class="st2" d="M33.9,143.7l0,0.9c0.6-0.7,1.3-1.1,2.2-1.1c1.6,0,2.4,0.9,2.4,2.6v4.9h-1.3v-4.9c0-0.5-0.1-0.9-0.4-1.2
				s-0.6-0.4-1.1-0.4c-0.4,0-0.8,0.1-1.1,0.3s-0.6,0.5-0.7,0.9v5.3h-1.3v-7.4H33.9z"/>
			<path class="st2" d="M45,151.1c-0.1-0.1-0.1-0.4-0.2-0.8c-0.6,0.6-1.3,0.9-2.1,0.9c-0.7,0-1.3-0.2-1.8-0.6
				c-0.5-0.4-0.7-0.9-0.7-1.6c0-0.8,0.3-1.4,0.9-1.8c0.6-0.4,1.4-0.6,2.5-0.6h1.2V146c0-0.4-0.1-0.8-0.4-1.1
				c-0.3-0.3-0.7-0.4-1.2-0.4c-0.5,0-0.8,0.1-1.1,0.3s-0.5,0.5-0.5,0.8h-1.3c0-0.4,0.1-0.7,0.4-1.1c0.3-0.3,0.6-0.6,1.1-0.8
				s0.9-0.3,1.5-0.3c0.9,0,1.5,0.2,2,0.6c0.5,0.4,0.7,1,0.8,1.8v3.4c0,0.7,0.1,1.2,0.3,1.6v0.1H45z M42.9,150.1
				c0.4,0,0.8-0.1,1.1-0.3s0.6-0.5,0.8-0.8v-1.5h-1c-1.5,0-2.3,0.5-2.3,1.4c0,0.4,0.1,0.7,0.4,0.9S42.5,150.1,42.9,150.1z"/>
			<path class="st2" d="M58.1,149.3l1.4-5.7h1.3l-2.2,7.4h-1l-1.8-5.6l-1.8,5.6h-1l-2.1-7.4h1.3l1.5,5.5l1.7-5.5h1L58.1,149.3z"/>
			<path class="st2" d="M65.1,151.2c-1,0-1.8-0.3-2.4-1c-0.6-0.7-0.9-1.5-0.9-2.6v-0.2c0-0.7,0.1-1.4,0.4-2c0.3-0.6,0.7-1,1.2-1.4
				c0.5-0.3,1-0.5,1.6-0.5c1,0,1.7,0.3,2.2,1s0.8,1.5,0.8,2.7v0.5h-5c0,0.7,0.2,1.3,0.6,1.8c0.4,0.4,0.9,0.7,1.6,0.7
				c0.4,0,0.8-0.1,1.1-0.3s0.6-0.4,0.8-0.7l0.8,0.6C67.3,150.7,66.4,151.2,65.1,151.2z M65,144.6c-0.5,0-0.9,0.2-1.3,0.6
				c-0.3,0.4-0.6,0.9-0.6,1.6h3.7v-0.1c0-0.6-0.2-1.1-0.5-1.5C65.9,144.7,65.5,144.6,65,144.6z"/>
			<path class="st2" d="M75.7,147.4c0,1.1-0.3,2-0.8,2.7c-0.5,0.7-1.2,1-2.1,1c-0.9,0-1.7-0.3-2.2-1l-0.1,0.9h-1.2v-10.5h1.3v3.9
				c0.5-0.6,1.2-1,2.1-1s1.6,0.3,2.1,1s0.8,1.6,0.8,2.8V147.4z M74.5,147.3c0-0.9-0.2-1.5-0.5-2s-0.8-0.7-1.4-0.7
				c-0.8,0-1.4,0.4-1.8,1.2v3.2c0.4,0.8,1,1.2,1.8,1.2c0.6,0,1.1-0.2,1.4-0.7S74.5,148.2,74.5,147.3z"/>
		</g>
		<g class="st1">
			<path class="st2" d="M10.8,185.7H6.6l-0.9,2.6H4.3l3.8-10h1.1l3.8,10h-1.3L10.8,185.7z M7,184.7h3.4L8.7,180L7,184.7z"/>
			<path class="st2" d="M18.5,186.4c0-0.3-0.1-0.6-0.4-0.8c-0.3-0.2-0.7-0.4-1.3-0.5s-1.1-0.3-1.5-0.5s-0.7-0.4-0.8-0.7
				s-0.3-0.6-0.3-0.9c0-0.6,0.3-1.1,0.8-1.5s1.2-0.6,2-0.6c0.8,0,1.5,0.2,2,0.6s0.8,1,0.8,1.7h-1.3c0-0.3-0.1-0.6-0.4-0.9
				s-0.7-0.4-1.1-0.4c-0.5,0-0.8,0.1-1.1,0.3s-0.4,0.5-0.4,0.8c0,0.3,0.1,0.5,0.4,0.7s0.7,0.3,1.3,0.4s1.1,0.3,1.5,0.5
				s0.7,0.4,0.9,0.7c0.2,0.3,0.3,0.6,0.3,1c0,0.7-0.3,1.2-0.8,1.6c-0.5,0.4-1.2,0.6-2.1,0.6c-0.6,0-1.1-0.1-1.6-0.3
				s-0.8-0.5-1.1-0.9c-0.3-0.4-0.4-0.8-0.4-1.2h1.3c0,0.4,0.2,0.8,0.5,1c0.3,0.2,0.7,0.4,1.3,0.4c0.5,0,0.9-0.1,1.2-0.3
				C18.4,187,18.5,186.7,18.5,186.4z"/>
			<path class="st2" d="M24.5,188.5c-1,0-1.8-0.3-2.4-1c-0.6-0.7-0.9-1.5-0.9-2.6v-0.2c0-0.7,0.1-1.4,0.4-2c0.3-0.6,0.7-1,1.2-1.4
				c0.5-0.3,1-0.5,1.6-0.5c1,0,1.7,0.3,2.2,1s0.8,1.5,0.8,2.7v0.5h-5c0,0.7,0.2,1.3,0.6,1.8c0.4,0.4,0.9,0.7,1.6,0.7
				c0.4,0,0.8-0.1,1.1-0.3s0.6-0.4,0.8-0.7l0.8,0.6C26.7,188,25.8,188.5,24.5,188.5z M24.4,181.9c-0.5,0-0.9,0.2-1.3,0.6
				c-0.3,0.4-0.6,0.9-0.6,1.6h3.7v-0.1c0-0.6-0.2-1.1-0.5-1.5C25.3,182,24.9,181.9,24.4,181.9z"/>
			<path class="st2" d="M33.2,186.4c0-0.3-0.1-0.6-0.4-0.8c-0.3-0.2-0.7-0.4-1.3-0.5s-1.1-0.3-1.5-0.5s-0.7-0.4-0.8-0.7
				s-0.3-0.6-0.3-0.9c0-0.6,0.3-1.1,0.8-1.5s1.2-0.6,2-0.6c0.8,0,1.5,0.2,2,0.6s0.8,1,0.8,1.7h-1.3c0-0.3-0.1-0.6-0.4-0.9
				s-0.7-0.4-1.1-0.4c-0.5,0-0.8,0.1-1.1,0.3s-0.4,0.5-0.4,0.8c0,0.3,0.1,0.5,0.4,0.7s0.7,0.3,1.3,0.4s1.1,0.3,1.5,0.5
				s0.7,0.4,0.9,0.7c0.2,0.3,0.3,0.6,0.3,1c0,0.7-0.3,1.2-0.8,1.6c-0.5,0.4-1.2,0.6-2.1,0.6c-0.6,0-1.1-0.1-1.6-0.3
				s-0.8-0.5-1.1-0.9c-0.3-0.4-0.4-0.8-0.4-1.2h1.3c0,0.4,0.2,0.8,0.5,1c0.3,0.2,0.7,0.4,1.3,0.4c0.5,0,0.9-0.1,1.2-0.3
				C33,187,33.2,186.7,33.2,186.4z"/>
			<path class="st2" d="M35.7,184.6c0-0.7,0.1-1.4,0.4-2s0.7-1,1.2-1.3s1.1-0.5,1.7-0.5c1,0,1.8,0.3,2.4,1s0.9,1.6,0.9,2.8v0.1
				c0,0.7-0.1,1.4-0.4,1.9c-0.3,0.6-0.7,1-1.2,1.3s-1.1,0.5-1.8,0.5c-1,0-1.8-0.3-2.4-1S35.7,185.8,35.7,184.6L35.7,184.6z
				 M37,184.7c0,0.8,0.2,1.5,0.6,2s0.9,0.7,1.5,0.7c0.6,0,1.2-0.3,1.5-0.8c0.4-0.5,0.6-1.2,0.6-2.1c0-0.8-0.2-1.5-0.6-2
				c-0.4-0.5-0.9-0.8-1.5-0.8c-0.6,0-1.1,0.2-1.5,0.7S37,183.8,37,184.7z"/>
			<path class="st2" d="M47.6,182.1c-0.2,0-0.4,0-0.6,0c-0.8,0-1.4,0.4-1.7,1.1v5.2h-1.3V181h1.2l0,0.9c0.4-0.7,1-1,1.8-1
				c0.2,0,0.4,0,0.6,0.1V182.1z"/>
			<path class="st2" d="M52,184.6c0-1.1,0.3-2,0.8-2.7c0.5-0.7,1.2-1,2.1-1c0.9,0,1.6,0.3,2.1,0.9v-3.9h1.3v10.5H57l-0.1-0.8
				c-0.5,0.6-1.2,0.9-2.1,0.9c-0.9,0-1.6-0.4-2.1-1.1S52,185.8,52,184.6L52,184.6z M53.2,184.7c0,0.8,0.2,1.5,0.5,2s0.8,0.7,1.4,0.7
				c0.8,0,1.4-0.4,1.8-1.1v-3.4c-0.4-0.7-1-1-1.7-1c-0.6,0-1.1,0.2-1.4,0.7S53.2,183.8,53.2,184.7z"/>
			<path class="st2" d="M63.2,188.5c-1,0-1.8-0.3-2.4-1c-0.6-0.7-0.9-1.5-0.9-2.6v-0.2c0-0.7,0.1-1.4,0.4-2c0.3-0.6,0.7-1,1.2-1.4
				c0.5-0.3,1-0.5,1.6-0.5c1,0,1.7,0.3,2.2,1s0.8,1.5,0.8,2.7v0.5h-5c0,0.7,0.2,1.3,0.6,1.8c0.4,0.4,0.9,0.7,1.6,0.7
				c0.4,0,0.8-0.1,1.1-0.3s0.6-0.4,0.8-0.7l0.8,0.6C65.4,188,64.5,188.5,63.2,188.5z M63.1,181.9c-0.5,0-0.9,0.2-1.3,0.6
				c-0.3,0.4-0.6,0.9-0.6,1.6h3.7v-0.1c0-0.6-0.2-1.1-0.5-1.5C64,182,63.6,181.9,63.1,181.9z"/>
			<path class="st2" d="M73.5,186.6l1.8-5.7h1.3l-2.7,7.4h-1l-2.7-7.4h1.3L73.5,186.6z"/>
			<path class="st2" d="M80.8,188.5c-1,0-1.8-0.3-2.4-1c-0.6-0.7-0.9-1.5-0.9-2.6v-0.2c0-0.7,0.1-1.4,0.4-2c0.3-0.6,0.7-1,1.2-1.4
				c0.5-0.3,1-0.5,1.6-0.5c1,0,1.7,0.3,2.2,1s0.8,1.5,0.8,2.7v0.5h-5c0,0.7,0.2,1.3,0.6,1.8c0.4,0.4,0.9,0.7,1.6,0.7
				c0.4,0,0.8-0.1,1.1-0.3s0.6-0.4,0.8-0.7l0.8,0.6C83,188,82,188.5,80.8,188.5z M80.7,181.9c-0.5,0-0.9,0.2-1.3,0.6
				c-0.3,0.4-0.6,0.9-0.6,1.6h3.7v-0.1c0-0.6-0.2-1.1-0.5-1.5C81.6,182,81.2,181.9,80.7,181.9z"/>
			<path class="st2" d="M86.4,181l0,0.9c0.6-0.7,1.3-1.1,2.2-1.1c1.6,0,2.4,0.9,2.4,2.6v4.9h-1.3v-4.9c0-0.5-0.1-0.9-0.4-1.2
				s-0.6-0.4-1.1-0.4c-0.4,0-0.8,0.1-1.1,0.3s-0.6,0.5-0.7,0.9v5.3h-1.3V181H86.4z"/>
			<path class="st2" d="M94.6,179.2v1.8H96v1h-1.4v4.6c0,0.3,0.1,0.5,0.2,0.7s0.3,0.2,0.6,0.2c0.1,0,0.3,0,0.6-0.1v1
				c-0.3,0.1-0.7,0.1-1,0.1c-0.6,0-1-0.2-1.3-0.5s-0.4-0.8-0.4-1.5v-4.6H92v-1h1.3v-1.8H94.6z"/>
			<path class="st2" d="M102,188.4c-0.1-0.1-0.1-0.4-0.2-0.8c-0.6,0.6-1.3,0.9-2.1,0.9c-0.7,0-1.3-0.2-1.8-0.6
				c-0.5-0.4-0.7-0.9-0.7-1.6c0-0.8,0.3-1.4,0.9-1.8c0.6-0.4,1.4-0.6,2.5-0.6h1.2v-0.6c0-0.4-0.1-0.8-0.4-1.1
				c-0.3-0.3-0.7-0.4-1.2-0.4c-0.5,0-0.8,0.1-1.1,0.3s-0.5,0.5-0.5,0.8h-1.3c0-0.4,0.1-0.7,0.4-1.1c0.3-0.3,0.6-0.6,1.1-0.8
				s0.9-0.3,1.5-0.3c0.9,0,1.5,0.2,2,0.6c0.5,0.4,0.7,1,0.8,1.8v3.4c0,0.7,0.1,1.2,0.3,1.6v0.1H102z M99.9,187.4
				c0.4,0,0.8-0.1,1.1-0.3s0.6-0.5,0.8-0.8v-1.5h-1c-1.5,0-2.3,0.5-2.3,1.4c0,0.4,0.1,0.7,0.4,0.9S99.5,187.4,99.9,187.4z"/>
		</g>
		<rect x="0" y="173.4" class="st3" width="505.3" height="21.2"/>
		<rect x="0" y="50.4" class="st3" width="505.3" height="107.4"/>
		<line class="st3" x1="0" y1="70.1" x2="505.3" y2="70.1"/>
		<line class="st3" x1="0" y1="93.9" x2="505.3" y2="93.9"/>
		<line class="st3" x1="0" y1="116.6" x2="505.3" y2="116.6"/>
		<line class="st3" x1="0" y1="136" x2="505.3" y2="136"/>
		<g transform="translate(4.135 248.255)">
			<g class="st1">
				<path class="st2" d="M8.8,13H7.5l-5-7.7V13H1.2V3h1.3l5,7.7V3h1.3V13z"/>
				<path class="st2" d="M10.6,9.2c0-0.7,0.1-1.4,0.4-2s0.7-1,1.2-1.3s1.1-0.5,1.7-0.5c1,0,1.8,0.3,2.4,1s0.9,1.6,0.9,2.8v0.1
					c0,0.7-0.1,1.4-0.4,1.9c-0.3,0.6-0.7,1-1.2,1.3s-1.1,0.5-1.8,0.5c-1,0-1.8-0.3-2.4-1S10.6,10.5,10.6,9.2L10.6,9.2z M11.9,9.4
					c0,0.8,0.2,1.5,0.6,2s0.9,0.7,1.5,0.7c0.6,0,1.2-0.3,1.5-0.8c0.4-0.5,0.6-1.2,0.6-2.1c0-0.8-0.2-1.5-0.6-2
					c-0.4-0.5-0.9-0.8-1.5-0.8c-0.6,0-1.1,0.2-1.5,0.7S11.9,8.5,11.9,9.4z"/>
				<path class="st2" d="M20.1,5.6l0,0.8c0.5-0.6,1.3-1,2.2-1c1,0,1.7,0.4,2.1,1.2c0.2-0.4,0.6-0.6,1-0.9s0.9-0.3,1.4-0.3
					c1.6,0,2.4,0.9,2.5,2.6v5H28V8.1c0-0.5-0.1-0.9-0.4-1.2c-0.2-0.3-0.6-0.4-1.2-0.4c-0.5,0-0.9,0.1-1.2,0.4
					c-0.3,0.3-0.5,0.7-0.5,1.1V13h-1.3V8.2c0-1.1-0.5-1.6-1.6-1.6c-0.8,0-1.4,0.4-1.7,1.1V13h-1.3V5.6H20.1z"/>
				<path class="st2" d="M37.5,9.4c0,1.1-0.3,2-0.8,2.7c-0.5,0.7-1.2,1-2.1,1c-0.9,0-1.7-0.3-2.2-1L32.4,13h-1.2V2.5h1.3v3.9
					c0.5-0.6,1.2-1,2.1-1s1.6,0.3,2.1,1s0.8,1.6,0.8,2.8V9.4z M36.2,9.2c0-0.9-0.2-1.5-0.5-2s-0.8-0.7-1.4-0.7
					c-0.8,0-1.4,0.4-1.8,1.2v3.2c0.4,0.8,1,1.2,1.8,1.2c0.6,0,1.1-0.2,1.4-0.7S36.2,10.2,36.2,9.2z"/>
				<path class="st2" d="M42.6,6.7c-0.2,0-0.4,0-0.6,0c-0.8,0-1.4,0.4-1.7,1.1V13H39V5.6h1.2l0,0.9c0.4-0.7,1-1,1.8-1
					c0.2,0,0.4,0,0.6,0.1V6.7z"/>
				<path class="st2" d="M46.7,13.1c-1,0-1.8-0.3-2.4-1c-0.6-0.7-0.9-1.5-0.9-2.6V9.3c0-0.7,0.1-1.4,0.4-2c0.3-0.6,0.7-1,1.2-1.4
					c0.5-0.3,1-0.5,1.6-0.5c1,0,1.7,0.3,2.2,1s0.8,1.5,0.8,2.7v0.5h-5c0,0.7,0.2,1.3,0.6,1.8c0.4,0.4,0.9,0.7,1.6,0.7
					c0.4,0,0.8-0.1,1.1-0.3s0.6-0.4,0.8-0.7l0.8,0.6C48.9,12.7,48,13.1,46.7,13.1z M46.6,6.5c-0.5,0-0.9,0.2-1.3,0.6
					c-0.3,0.4-0.6,0.9-0.6,1.6h3.7V8.5c0-0.6-0.2-1.1-0.5-1.5C47.5,6.7,47.1,6.5,46.6,6.5z"/>
			</g>
			<g class="st1">
				<path class="st2" d="M8.8,31.9H7.5l-5-7.7v7.7H1.2v-10h1.3l5,7.7v-7.7h1.3V31.9z"/>
				<path class="st2" d="M10.6,28.1c0-0.7,0.1-1.4,0.4-2s0.7-1,1.2-1.3s1.1-0.5,1.7-0.5c1,0,1.8,0.3,2.4,1s0.9,1.6,0.9,2.8v0.1
					c0,0.7-0.1,1.4-0.4,1.9c-0.3,0.6-0.7,1-1.2,1.3S14.6,32,14,32c-1,0-1.8-0.3-2.4-1S10.6,29.4,10.6,28.1L10.6,28.1z M11.9,28.3
					c0,0.8,0.2,1.5,0.6,2S13.3,31,14,31c0.6,0,1.2-0.3,1.5-0.8c0.4-0.5,0.6-1.2,0.6-2.1c0-0.8-0.2-1.5-0.6-2
					c-0.4-0.5-0.9-0.8-1.5-0.8c-0.6,0-1.1,0.2-1.5,0.7S11.9,27.4,11.9,28.3z"/>
				<path class="st2" d="M20.1,24.5l0,0.8c0.5-0.6,1.3-1,2.2-1c1,0,1.7,0.4,2.1,1.2c0.2-0.4,0.6-0.6,1-0.9s0.9-0.3,1.4-0.3
					c1.6,0,2.4,0.9,2.5,2.6v5H28V27c0-0.5-0.1-0.9-0.4-1.2c-0.2-0.3-0.6-0.4-1.2-0.4c-0.5,0-0.9,0.1-1.2,0.4
					c-0.3,0.3-0.5,0.7-0.5,1.1v4.9h-1.3V27c0-1.1-0.5-1.6-1.6-1.6c-0.8,0-1.4,0.4-1.7,1.1v5.4h-1.3v-7.4H20.1z"/>
				<path class="st2" d="M37.5,28.3c0,1.1-0.3,2-0.8,2.7c-0.5,0.7-1.2,1-2.1,1c-0.9,0-1.7-0.3-2.2-1l-0.1,0.9h-1.2V21.4h1.3v3.9
					c0.5-0.6,1.2-1,2.1-1s1.6,0.3,2.1,1s0.8,1.6,0.8,2.8V28.3z M36.2,28.1c0-0.9-0.2-1.5-0.5-2s-0.8-0.7-1.4-0.7
					c-0.8,0-1.4,0.4-1.8,1.2v3.2c0.4,0.8,1,1.2,1.8,1.2c0.6,0,1.1-0.2,1.4-0.7S36.2,29.1,36.2,28.1z"/>
				<path class="st2" d="M42.6,25.6c-0.2,0-0.4,0-0.6,0c-0.8,0-1.4,0.4-1.7,1.1v5.2H39v-7.4h1.2l0,0.9c0.4-0.7,1-1,1.8-1
					c0.2,0,0.4,0,0.6,0.1V25.6z"/>
				<path class="st2" d="M46.7,32c-1,0-1.8-0.3-2.4-1c-0.6-0.7-0.9-1.5-0.9-2.6v-0.2c0-0.7,0.1-1.4,0.4-2c0.3-0.6,0.7-1,1.2-1.4
					c0.5-0.3,1-0.5,1.6-0.5c1,0,1.7,0.3,2.2,1s0.8,1.5,0.8,2.7v0.5h-5c0,0.7,0.2,1.3,0.6,1.8c0.4,0.4,0.9,0.7,1.6,0.7
					c0.4,0,0.8-0.1,1.1-0.3s0.6-0.4,0.8-0.7l0.8,0.6C48.9,31.6,48,32,46.7,32z M46.6,25.4c-0.5,0-0.9,0.2-1.3,0.6
					c-0.3,0.4-0.6,0.9-0.6,1.6h3.7v-0.1c0-0.6-0.2-1.1-0.5-1.5C47.5,25.6,47.1,25.4,46.6,25.4z"/>
				<path class="st2" d="M54.2,28.1c0-1.1,0.3-2,0.8-2.7c0.5-0.7,1.2-1,2.1-1c0.9,0,1.6,0.3,2.1,0.9v-3.9h1.3v10.5h-1.2l-0.1-0.8
					C58.7,31.7,58,32,57.1,32c-0.9,0-1.6-0.4-2.1-1.1S54.2,29.4,54.2,28.1L54.2,28.1z M55.5,28.3c0,0.8,0.2,1.5,0.5,2
					s0.8,0.7,1.4,0.7c0.8,0,1.4-0.4,1.8-1.1v-3.4c-0.4-0.7-1-1-1.7-1c-0.6,0-1.1,0.2-1.4,0.7S55.5,27.3,55.5,28.3z"/>
				<path class="st2" d="M65.5,32c-1,0-1.8-0.3-2.4-1c-0.6-0.7-0.9-1.5-0.9-2.6v-0.2c0-0.7,0.1-1.4,0.4-2c0.3-0.6,0.7-1,1.2-1.4
					c0.5-0.3,1-0.5,1.6-0.5c1,0,1.7,0.3,2.2,1s0.8,1.5,0.8,2.7v0.5h-5c0,0.7,0.2,1.3,0.6,1.8c0.4,0.4,0.9,0.7,1.6,0.7
					c0.4,0,0.8-0.1,1.1-0.3s0.6-0.4,0.8-0.7l0.8,0.6C67.7,31.6,66.7,32,65.5,32z M65.3,25.4c-0.5,0-0.9,0.2-1.3,0.6
					c-0.3,0.4-0.6,0.9-0.6,1.6h3.7v-0.1c0-0.6-0.2-1.1-0.5-1.5C66.3,25.6,65.9,25.4,65.3,25.4z"/>
				<path class="st2" d="M74.7,31.9h-1.3V21.4h1.3V31.9z"/>
				<path class="st2" d="M81.3,31.9c-0.1-0.1-0.1-0.4-0.2-0.8C80.5,31.7,79.8,32,79,32c-0.7,0-1.3-0.2-1.8-0.6
					c-0.5-0.4-0.7-0.9-0.7-1.6c0-0.8,0.3-1.4,0.9-1.8c0.6-0.4,1.4-0.6,2.5-0.6h1.2v-0.6c0-0.4-0.1-0.8-0.4-1.1
					c-0.3-0.3-0.7-0.4-1.2-0.4c-0.5,0-0.8,0.1-1.1,0.3s-0.5,0.5-0.5,0.8h-1.3c0-0.4,0.1-0.7,0.4-1.1c0.3-0.3,0.6-0.6,1.1-0.8
					s0.9-0.3,1.5-0.3c0.9,0,1.5,0.2,2,0.6c0.5,0.4,0.7,1,0.8,1.8v3.4c0,0.7,0.1,1.2,0.3,1.6v0.1H81.3z M79.2,30.9
					c0.4,0,0.8-0.1,1.1-0.3s0.6-0.5,0.8-0.8v-1.5h-1c-1.5,0-2.3,0.5-2.3,1.4c0,0.4,0.1,0.7,0.4,0.9S78.8,30.9,79.2,30.9z"/>
				<path class="st2" d="M90.9,32c-1,0-1.8-0.3-2.4-1c-0.6-0.7-0.9-1.5-0.9-2.6v-0.2c0-0.7,0.1-1.4,0.4-2c0.3-0.6,0.7-1,1.2-1.4
					c0.5-0.3,1-0.5,1.6-0.5c1,0,1.7,0.3,2.2,1s0.8,1.5,0.8,2.7v0.5h-5c0,0.7,0.2,1.3,0.6,1.8c0.4,0.4,0.9,0.7,1.6,0.7
					c0.4,0,0.8-0.1,1.1-0.3s0.6-0.4,0.8-0.7l0.8,0.6C93,31.6,92.1,32,90.9,32z M90.7,25.4c-0.5,0-0.9,0.2-1.3,0.6
					c-0.3,0.4-0.6,0.9-0.6,1.6h3.7v-0.1c0-0.6-0.2-1.1-0.5-1.5C91.7,25.6,91.2,25.4,90.7,25.4z"/>
				<path class="st2" d="M96.4,24.5l0,0.8c0.5-0.6,1.3-1,2.2-1c1,0,1.7,0.4,2.1,1.2c0.2-0.4,0.6-0.6,1-0.9s0.9-0.3,1.4-0.3
					c1.6,0,2.4,0.9,2.5,2.6v5h-1.3V27c0-0.5-0.1-0.9-0.4-1.2c-0.2-0.3-0.6-0.4-1.2-0.4c-0.5,0-0.9,0.1-1.2,0.4
					c-0.3,0.3-0.5,0.7-0.5,1.1v4.9h-1.3V27c0-1.1-0.5-1.6-1.6-1.6c-0.8,0-1.4,0.4-1.7,1.1v5.4h-1.3v-7.4H96.4z"/>
				<path class="st2" d="M113.7,28.3c0,1.1-0.3,2-0.8,2.7s-1.2,1-2.1,1c-0.9,0-1.6-0.3-2.1-0.9v3.6h-1.3V24.5h1.2l0.1,0.8
					c0.5-0.6,1.2-1,2.1-1c0.9,0,1.6,0.3,2.1,1s0.8,1.6,0.8,2.8V28.3z M112.5,28.1c0-0.8-0.2-1.5-0.5-2s-0.8-0.7-1.5-0.7
					c-0.8,0-1.3,0.3-1.7,1V30c0.4,0.7,1,1,1.7,1c0.6,0,1.1-0.2,1.4-0.7C112.3,29.8,112.5,29.1,112.5,28.1z"/>
				<path class="st2" d="M118.9,25.6c-0.2,0-0.4,0-0.6,0c-0.8,0-1.4,0.4-1.7,1.1v5.2h-1.3v-7.4h1.2l0,0.9c0.4-0.7,1-1,1.8-1
					c0.2,0,0.4,0,0.6,0.1V25.6z"/>
				<path class="st2" d="M123,32c-1,0-1.8-0.3-2.4-1c-0.6-0.7-0.9-1.5-0.9-2.6v-0.2c0-0.7,0.1-1.4,0.4-2c0.3-0.6,0.7-1,1.2-1.4
					c0.5-0.3,1-0.5,1.6-0.5c1,0,1.7,0.3,2.2,1s0.8,1.5,0.8,2.7v0.5h-5c0,0.7,0.2,1.3,0.6,1.8c0.4,0.4,0.9,0.7,1.6,0.7
					c0.4,0,0.8-0.1,1.1-0.3s0.6-0.4,0.8-0.7l0.8,0.6C125.2,31.6,124.3,32,123,32z M122.9,25.4c-0.5,0-0.9,0.2-1.3,0.6
					c-0.3,0.4-0.6,0.9-0.6,1.6h3.7v-0.1c0-0.6-0.2-1.1-0.5-1.5C123.8,25.6,123.4,25.4,122.9,25.4z"/>
				<path class="st2" d="M131.7,29.9c0-0.3-0.1-0.6-0.4-0.8c-0.3-0.2-0.7-0.4-1.3-0.5s-1.1-0.3-1.5-0.5s-0.7-0.4-0.8-0.7
					s-0.3-0.6-0.3-0.9c0-0.6,0.3-1.1,0.8-1.5c0.5-0.4,1.2-0.6,2-0.6c0.8,0,1.5,0.2,2,0.6s0.8,1,0.8,1.7h-1.3c0-0.3-0.1-0.6-0.4-0.9
					s-0.7-0.4-1.1-0.4c-0.5,0-0.8,0.1-1.1,0.3s-0.4,0.5-0.4,0.8c0,0.3,0.1,0.5,0.4,0.7s0.7,0.3,1.3,0.4s1.1,0.3,1.5,0.5
					s0.7,0.4,0.9,0.7c0.2,0.3,0.3,0.6,0.3,1c0,0.7-0.3,1.2-0.8,1.6c-0.5,0.4-1.2,0.6-2.1,0.6c-0.6,0-1.1-0.1-1.6-0.3
					s-0.8-0.5-1.1-0.9c-0.3-0.4-0.4-0.8-0.4-1.2h1.3c0,0.4,0.2,0.8,0.5,1c0.3,0.2,0.7,0.4,1.3,0.4c0.5,0,0.9-0.1,1.2-0.3
					C131.5,30.5,131.7,30.3,131.7,29.9z"/>
				<path class="st2" d="M139.1,31.9c-0.1-0.1-0.1-0.4-0.2-0.8c-0.6,0.6-1.3,0.9-2.1,0.9c-0.7,0-1.3-0.2-1.8-0.6
					c-0.5-0.4-0.7-0.9-0.7-1.6c0-0.8,0.3-1.4,0.9-1.8c0.6-0.4,1.4-0.6,2.5-0.6h1.2v-0.6c0-0.4-0.1-0.8-0.4-1.1
					c-0.3-0.3-0.7-0.4-1.2-0.4c-0.5,0-0.8,0.1-1.1,0.3s-0.5,0.5-0.5,0.8h-1.3c0-0.4,0.1-0.7,0.4-1.1c0.3-0.3,0.6-0.6,1.1-0.8
					s0.9-0.3,1.5-0.3c0.9,0,1.5,0.2,2,0.6c0.5,0.4,0.7,1,0.8,1.8v3.4c0,0.7,0.1,1.2,0.3,1.6v0.1H139.1z M137,30.9
					c0.4,0,0.8-0.1,1.1-0.3s0.6-0.5,0.8-0.8v-1.5h-1c-1.5,0-2.3,0.5-2.3,1.4c0,0.4,0.1,0.7,0.4,0.9S136.6,30.9,137,30.9z"/>
			</g>
			<g class="st1">
				<path class="st2" d="M1.2,50.8v-10H4c0.9,0,1.6,0.2,2.3,0.6s1.2,0.9,1.5,1.6c0.4,0.7,0.5,1.5,0.6,2.4v0.6c0,0.9-0.2,1.8-0.5,2.5
					c-0.4,0.7-0.9,1.2-1.6,1.6s-1.5,0.6-2.3,0.6H1.2z M2.5,41.9v7.8h1.4c1,0,1.8-0.3,2.4-0.9c0.6-0.6,0.8-1.5,0.8-2.7v-0.6
					c0-1.1-0.3-2-0.8-2.6c-0.5-0.6-1.3-0.9-2.3-1H2.5z"/>
				<path class="st2" d="M10.1,41.4c0-0.2,0.1-0.4,0.2-0.5s0.3-0.2,0.6-0.2s0.4,0.1,0.6,0.2s0.2,0.3,0.2,0.5s-0.1,0.4-0.2,0.5
					s-0.3,0.2-0.6,0.2s-0.4-0.1-0.6-0.2S10.1,41.6,10.1,41.4z M11.5,50.8h-1.3v-7.4h1.3V50.8z"/>
				<path class="st2" d="M17.1,44.5c-0.2,0-0.4,0-0.6,0c-0.8,0-1.4,0.4-1.7,1.1v5.2h-1.3v-7.4h1.2l0,0.9c0.4-0.7,1-1,1.8-1
					c0.2,0,0.4,0,0.6,0.1V44.5z"/>
				<path class="st2" d="M21.2,50.9c-1,0-1.8-0.3-2.4-1c-0.6-0.7-0.9-1.5-0.9-2.6v-0.2c0-0.7,0.1-1.4,0.4-2c0.3-0.6,0.7-1,1.2-1.4
					c0.5-0.3,1-0.5,1.6-0.5c1,0,1.7,0.3,2.2,1s0.8,1.5,0.8,2.7v0.5h-5c0,0.7,0.2,1.3,0.6,1.8c0.4,0.4,0.9,0.7,1.6,0.7
					c0.4,0,0.8-0.1,1.1-0.3s0.6-0.4,0.8-0.7l0.8,0.6C23.4,50.4,22.5,50.9,21.2,50.9z M21.1,44.3c-0.5,0-0.9,0.2-1.3,0.6
					c-0.3,0.4-0.6,0.9-0.6,1.6h3.7v-0.1c0-0.6-0.2-1.1-0.5-1.5C22,44.5,21.6,44.3,21.1,44.3z"/>
				<path class="st2" d="M28.5,49.9c0.5,0,0.8-0.1,1.2-0.4s0.5-0.6,0.6-1h1.2c0,0.4-0.2,0.8-0.4,1.2s-0.6,0.7-1.1,0.9
					s-0.9,0.3-1.4,0.3c-1,0-1.8-0.3-2.4-1c-0.6-0.7-0.9-1.6-0.9-2.8v-0.2c0-0.7,0.1-1.4,0.4-1.9s0.6-1,1.1-1.3s1.1-0.5,1.8-0.5
					c0.8,0,1.5,0.2,2.1,0.7s0.8,1.1,0.9,1.9h-1.2c0-0.5-0.2-0.9-0.5-1.2c-0.3-0.3-0.7-0.5-1.2-0.5c-0.6,0-1.1,0.2-1.5,0.7
					c-0.4,0.5-0.5,1.1-0.5,2v0.2c0,0.9,0.2,1.5,0.5,2S27.9,49.9,28.5,49.9z"/>
				<path class="st2" d="M35.9,49.9c0.5,0,0.8-0.1,1.2-0.4s0.5-0.6,0.6-1h1.2c0,0.4-0.2,0.8-0.4,1.2s-0.6,0.7-1.1,0.9
					s-0.9,0.3-1.4,0.3c-1,0-1.8-0.3-2.4-1c-0.6-0.7-0.9-1.6-0.9-2.8v-0.2c0-0.7,0.1-1.4,0.4-1.9s0.6-1,1.1-1.3s1.1-0.5,1.8-0.5
					c0.8,0,1.5,0.2,2.1,0.7s0.8,1.1,0.9,1.9h-1.2c0-0.5-0.2-0.9-0.5-1.2c-0.3-0.3-0.7-0.5-1.2-0.5c-0.6,0-1.1,0.2-1.5,0.7
					c-0.4,0.5-0.5,1.1-0.5,2v0.2c0,0.9,0.2,1.5,0.5,2S35.2,49.9,35.9,49.9z"/>
				<path class="st2" d="M40.2,41.4c0-0.2,0.1-0.4,0.2-0.5s0.3-0.2,0.6-0.2s0.4,0.1,0.6,0.2s0.2,0.3,0.2,0.5s-0.1,0.4-0.2,0.5
					s-0.3,0.2-0.6,0.2s-0.4-0.1-0.6-0.2S40.2,41.6,40.2,41.4z M41.6,50.8h-1.3v-7.4h1.3V50.8z"/>
				<path class="st2" d="M43.3,47c0-0.7,0.1-1.4,0.4-2s0.7-1,1.2-1.3s1.1-0.5,1.7-0.5c1,0,1.8,0.3,2.4,1s0.9,1.6,0.9,2.8v0.1
					c0,0.7-0.1,1.4-0.4,1.9c-0.3,0.6-0.7,1-1.2,1.3s-1.1,0.5-1.8,0.5c-1,0-1.8-0.3-2.4-1S43.3,48.3,43.3,47L43.3,47z M44.5,47.2
					c0,0.8,0.2,1.5,0.6,2s0.9,0.7,1.5,0.7c0.6,0,1.2-0.3,1.5-0.8c0.4-0.5,0.6-1.2,0.6-2.1c0-0.8-0.2-1.5-0.6-2
					c-0.4-0.5-0.9-0.8-1.5-0.8c-0.6,0-1.1,0.2-1.5,0.7S44.5,46.2,44.5,47.2z M47.2,40.3h1.5l-1.8,2l-1,0L47.2,40.3z"/>
				<path class="st2" d="M52.8,43.4l0,0.9c0.6-0.7,1.3-1.1,2.2-1.1c1.6,0,2.4,0.9,2.4,2.6v4.9h-1.3v-4.9c0-0.5-0.1-0.9-0.4-1.2
					s-0.6-0.4-1.1-0.4c-0.4,0-0.8,0.1-1.1,0.3s-0.6,0.5-0.7,0.9v5.3h-1.3v-7.4H52.8z"/>
			</g>
			<g class="st1">
				<path class="st2" d="M8.5,66.5C8.4,67.6,8,68.4,7.3,69c-0.7,0.6-1.5,0.9-2.6,0.9c-1.2,0-2.1-0.4-2.8-1.3s-1.1-2-1.1-3.4v-1
					c0-0.9,0.2-1.7,0.5-2.4s0.8-1.2,1.4-1.6c0.6-0.4,1.3-0.6,2.1-0.6c1.1,0,1.9,0.3,2.5,0.9c0.6,0.6,1,1.4,1.1,2.5H7.2
					c-0.1-0.8-0.4-1.4-0.7-1.7s-0.9-0.5-1.6-0.5c-0.8,0-1.5,0.3-2,0.9s-0.7,1.5-0.7,2.6v1c0,1.1,0.2,1.9,0.7,2.6s1.1,1,1.9,1
					c0.7,0,1.3-0.2,1.7-0.5c0.4-0.3,0.6-0.9,0.8-1.7H8.5z"/>
				<path class="st2" d="M10.1,60.3c0-0.2,0.1-0.4,0.2-0.5s0.3-0.2,0.6-0.2s0.4,0.1,0.6,0.2s0.2,0.3,0.2,0.5s-0.1,0.4-0.2,0.5
					S11.1,61,10.8,61s-0.4-0.1-0.6-0.2S10.1,60.5,10.1,60.3z M11.4,69.7h-1.3v-7.4h1.3V69.7z"/>
				<path class="st2" d="M18,69c-0.5,0.6-1.2,0.9-2.2,0.9c-0.8,0-1.4-0.2-1.8-0.7c-0.4-0.5-0.6-1.1-0.6-2v-4.8h1.3v4.8
					c0,1.1,0.5,1.7,1.4,1.7c1,0,1.6-0.4,1.9-1.1v-5.4h1.3v7.4h-1.2L18,69z"/>
				<path class="st2" d="M20.9,65.9c0-1.1,0.3-2,0.8-2.7c0.5-0.7,1.2-1,2.1-1c0.9,0,1.6,0.3,2.1,0.9v-3.9h1.3v10.5H26l-0.1-0.8
					c-0.5,0.6-1.2,0.9-2.1,0.9c-0.9,0-1.6-0.4-2.1-1.1S20.9,67.1,20.9,65.9L20.9,65.9z M22.1,66.1c0,0.8,0.2,1.5,0.5,2
					s0.8,0.7,1.4,0.7c0.8,0,1.4-0.4,1.8-1.1v-3.4c-0.4-0.7-1-1-1.7-1c-0.6,0-1.1,0.2-1.4,0.7C22.3,64.4,22.1,65.1,22.1,66.1z"/>
				<path class="st2" d="M33.6,69.7c-0.1-0.1-0.1-0.4-0.2-0.8c-0.6,0.6-1.3,0.9-2.1,0.9c-0.7,0-1.3-0.2-1.8-0.6
					c-0.5-0.4-0.7-0.9-0.7-1.6c0-0.8,0.3-1.4,0.9-1.8c0.6-0.4,1.4-0.6,2.5-0.6h1.2v-0.6c0-0.4-0.1-0.8-0.4-1.1
					c-0.3-0.3-0.7-0.4-1.2-0.4c-0.5,0-0.8,0.1-1.1,0.3s-0.5,0.5-0.5,0.8H29c0-0.4,0.1-0.7,0.4-1.1c0.3-0.3,0.6-0.6,1.1-0.8
					s0.9-0.3,1.5-0.3c0.9,0,1.5,0.2,2,0.6c0.5,0.4,0.7,1,0.8,1.8V68c0,0.7,0.1,1.2,0.3,1.6v0.1H33.6z M31.5,68.7
					c0.4,0,0.8-0.1,1.1-0.3s0.6-0.5,0.8-0.8v-1.5h-1c-1.5,0-2.3,0.5-2.3,1.4c0,0.4,0.1,0.7,0.4,0.9S31.1,68.7,31.5,68.7z"/>
				<path class="st2" d="M36.4,65.9c0-1.1,0.3-2,0.8-2.7c0.5-0.7,1.2-1,2.1-1c0.9,0,1.6,0.3,2.1,0.9v-3.9h1.3v10.5h-1.2l-0.1-0.8
					c-0.5,0.6-1.2,0.9-2.1,0.9c-0.9,0-1.6-0.4-2.1-1.1S36.4,67.1,36.4,65.9L36.4,65.9z M37.7,66.1c0,0.8,0.2,1.5,0.5,2
					s0.8,0.7,1.4,0.7c0.8,0,1.4-0.4,1.8-1.1v-3.4c-0.4-0.7-1-1-1.7-1c-0.6,0-1.1,0.2-1.4,0.7C37.8,64.4,37.7,65.1,37.7,66.1z"/>
			</g>
			<g class="st1">
				<path class="st2" d="M8,79.7H4.8v8.9H3.5v-8.9H0.3v-1.1H8V79.7z"/>
				<path class="st2" d="M11.7,88.7c-1,0-1.8-0.3-2.4-1c-0.6-0.7-0.9-1.5-0.9-2.6v-0.2c0-0.7,0.1-1.4,0.4-2c0.3-0.6,0.7-1,1.2-1.4
					c0.5-0.3,1-0.5,1.6-0.5c1,0,1.7,0.3,2.2,1s0.8,1.5,0.8,2.7v0.5h-5c0,0.7,0.2,1.3,0.6,1.8c0.4,0.4,0.9,0.7,1.6,0.7
					c0.4,0,0.8-0.1,1.1-0.3s0.6-0.4,0.8-0.7l0.8,0.6C13.9,88.2,12.9,88.7,11.7,88.7z M11.5,82.1c-0.5,0-0.9,0.2-1.3,0.6
					c-0.3,0.4-0.6,0.9-0.6,1.6h3.7v-0.1c0-0.6-0.2-1.1-0.5-1.5C12.5,82.3,12.1,82.1,11.5,82.1z"/>
				<path class="st2" d="M17.4,88.6h-1.3V78.1h1.3V88.6z"/>
				<path class="st2" d="M22.5,88.7c-1,0-1.8-0.3-2.4-1c-0.6-0.7-0.9-1.5-0.9-2.6v-0.2c0-0.7,0.1-1.4,0.4-2c0.3-0.6,0.7-1,1.2-1.4
					c0.5-0.3,1-0.5,1.6-0.5c1,0,1.7,0.3,2.2,1s0.8,1.5,0.8,2.7v0.5h-5c0,0.7,0.2,1.3,0.6,1.8c0.4,0.4,0.9,0.7,1.6,0.7
					c0.4,0,0.8-0.1,1.1-0.3s0.6-0.4,0.8-0.7l0.8,0.6C24.7,88.2,23.8,88.7,22.5,88.7z M22.4,82.1c-0.5,0-0.9,0.2-1.3,0.6
					c-0.3,0.4-0.6,0.9-0.6,1.6h3.7v-0.1c0-0.6-0.2-1.1-0.5-1.5C23.3,82.3,22.9,82.1,22.4,82.1z M23,78.1h1.5l-1.8,2l-1,0L23,78.1z"
					/>
				<path class="st2" d="M27.5,88.6v-6.4h-1.2v-1h1.2v-0.8c0-0.8,0.2-1.4,0.6-1.8s1-0.6,1.8-0.6c0.3,0,0.6,0,0.9,0.1l-0.1,1
					C30.5,79,30.3,79,30,79c-0.4,0-0.7,0.1-1,0.4c-0.2,0.2-0.3,0.6-0.3,1v0.8h1.6v1h-1.6v6.4H27.5z"/>
				<path class="st2" d="M31.4,84.8c0-0.7,0.1-1.4,0.4-2c0.3-0.6,0.7-1,1.2-1.3s1.1-0.5,1.7-0.5c1,0,1.8,0.3,2.4,1s0.9,1.6,0.9,2.8
					V85c0,0.7-0.1,1.4-0.4,1.9c-0.3,0.6-0.7,1-1.2,1.3s-1.1,0.5-1.8,0.5c-1,0-1.8-0.3-2.4-1C31.7,87,31.4,86,31.4,84.8L31.4,84.8z
					 M32.7,85c0,0.8,0.2,1.5,0.6,2s0.9,0.7,1.5,0.7c0.6,0,1.2-0.3,1.5-0.8c0.4-0.5,0.6-1.2,0.6-2.1c0-0.8-0.2-1.5-0.6-2
					c-0.4-0.5-0.9-0.8-1.5-0.8c-0.6,0-1.1,0.2-1.5,0.7S32.7,84,32.7,85z"/>
				<path class="st2" d="M40.9,81.2l0,0.9c0.6-0.7,1.3-1.1,2.2-1.1c1.6,0,2.4,0.9,2.4,2.6v4.9h-1.3v-4.9c0-0.5-0.1-0.9-0.4-1.2
					s-0.6-0.4-1.1-0.4c-0.4,0-0.8,0.1-1.1,0.3S41.1,83,41,83.3v5.3h-1.3v-7.4H40.9z"/>
				<path class="st2" d="M47.1,84.8c0-0.7,0.1-1.4,0.4-2s0.7-1,1.2-1.3s1.1-0.5,1.7-0.5c1,0,1.8,0.3,2.4,1s0.9,1.6,0.9,2.8V85
					c0,0.7-0.1,1.4-0.4,1.9c-0.3,0.6-0.7,1-1.2,1.3s-1.1,0.5-1.8,0.5c-1,0-1.8-0.3-2.4-1S47.1,86,47.1,84.8L47.1,84.8z M48.4,85
					c0,0.8,0.2,1.5,0.6,2s0.9,0.7,1.5,0.7c0.6,0,1.2-0.3,1.5-0.8c0.4-0.5,0.6-1.2,0.6-2.1c0-0.8-0.2-1.5-0.6-2
					c-0.4-0.5-0.9-0.8-1.5-0.8c-0.6,0-1.1,0.2-1.5,0.7S48.4,84,48.4,85z"/>
			</g>
		</g>
		<rect x="0" y="248.3" class="st3" width="505.3" height="94.9"/>
		<line class="st3" x1="0" y1="266.7" x2="505.3" y2="266.7"/>
		<line class="st3" x1="0" y1="286.1" x2="505.3" y2="286.1"/>
		<line class="st3" x1="0" y1="305" x2="505.3" y2="305"/>
		<line class="st3" x1="0" y1="322.7" x2="505.3" y2="322.7"/>
	</g>
</g>
</svg>
