<svg xmlns="http://www.w3.org/2000/svg" xmlns:xlink="http://www.w3.org/1999/xlink" width="1007.873" height="778.916" viewBox="0 0 1007.873 778.916"><defs><filter id="a" x="298.682" y="177.235" width="411.545" height="411.545" filterUnits="userSpaceOnUse"><feOffset input="SourceAlpha"/><feGaussianBlur stdDeviation="1" result="b"/><feFlood flood-color="#4c4d71" flood-opacity="0.149"/><feComposite operator="in" in2="b"/><feComposite in="SourceGraphic"/></filter><filter id="c" x="298.682" y="174.178" width="411.545" height="411.545" filterUnits="userSpaceOnUse"><feOffset input="SourceAlpha"/><feGaussianBlur stdDeviation="1" result="d"/><feFlood flood-color="#4c4d71" flood-opacity="0.149"/><feComposite operator="in" in2="d"/><feComposite in="SourceGraphic"/></filter><linearGradient id="e" x1="-0.475" y1="0.395" x2="0.875" y2="0.541" gradientUnits="objectBoundingBox"><stop offset="0" stop-color="#fc7f23"/><stop offset="1" stop-color="#fca929"/></linearGradient><linearGradient id="f" x1="-1.865" y1="0.303" x2="2.805" y2="0.764" xlink:href="#e"/><filter id="g" x="671" y="36" width="309.082" height="199.694" filterUnits="userSpaceOnUse"><feOffset dx="3" dy="3" input="SourceAlpha"/><feGaussianBlur stdDeviation="1" result="h"/><feFlood flood-color="#4c4d71" flood-opacity="0.149"/><feComposite operator="in" in2="h"/><feComposite in="SourceGraphic"/></filter><filter id="i" x="679.651" y="532.292" width="328.221" height="166.93" filterUnits="userSpaceOnUse"><feOffset dx="3" dy="3" input="SourceAlpha"/><feGaussianBlur stdDeviation="1" result="j"/><feFlood flood-color="#4c4d71" flood-opacity="0.149"/><feComposite operator="in" in2="j"/><feComposite in="SourceGraphic"/></filter><filter id="k" x="0" y="534.426" width="330.441" height="236.974" filterUnits="userSpaceOnUse"><feOffset dx="3" dy="3" input="SourceAlpha"/><feGaussianBlur stdDeviation="1" result="l"/><feFlood flood-color="#4c4d71" flood-opacity="0.149"/><feComposite operator="in" in2="l"/><feComposite in="SourceGraphic"/></filter><filter id="m" x="14" y="85" width="320.96" height="154.55" filterUnits="userSpaceOnUse"><feOffset dx="3" dy="3" input="SourceAlpha"/><feGaussianBlur stdDeviation="1" result="n"/><feFlood flood-color="#4c4d71" flood-opacity="0.149"/><feComposite operator="in" in2="n"/><feComposite in="SourceGraphic"/></filter></defs><g transform="translate(-299.162 -542)"><g transform="translate(438.162 572)" fill="none" stroke="#707070" stroke-width="1" stroke-dasharray="13"><circle cx="362" cy="362" r="362" stroke="none"/><circle cx="362" cy="362" r="361.5" fill="none"/></g><g transform="matrix(1, 0, 0, 1, 299.16, 542)" filter="url(#a)"><circle cx="202.772" cy="202.772" r="202.772" transform="translate(301.68 180.24)" fill="#fff"/></g><g transform="matrix(1, 0, 0, 1, 299.16, 542)" filter="url(#c)"><circle cx="202.772" cy="202.772" r="202.772" transform="translate(301.68 177.18)" fill="#fff"/></g><circle cx="106.804" cy="106.804" r="106.804" transform="translate(697.162 818)" fill="#ececec"/><circle cx="97.516" cy="97.516" r="97.516" transform="translate(706.1 827.491)" fill="none" stroke="#c3c3c3" stroke-miterlimit="10" stroke-width="0.5"/><path d="M601.613,336.989V286.713A172.466,172.466,0,0,0,429.142,459.184h50.276A122.2,122.2,0,0,1,601.613,336.989Z" transform="translate(202.003 465.824)" fill="url(#e)"/><path d="M601.613,286.713v50.276a122.2,122.2,0,0,1,122.2,122.195h50.276A172.471,172.471,0,0,0,601.613,286.713Z" transform="translate(202.003 465.824)" fill="#81d4fa"/><path d="M601.613,581.378v50.277A172.471,172.471,0,0,0,774.084,459.184H723.808A122.2,122.2,0,0,1,601.613,581.378Z" transform="translate(202.003 465.824)" fill="#7e5ee3"/><path d="M479.418,459.184H429.142A172.471,172.471,0,0,0,601.613,631.655V581.378A122.2,122.2,0,0,1,479.418,459.184Z" transform="translate(202.003 465.824)" fill="#00bcd4"/><g transform="translate(202.003 465.824)"><path d="M673.535,600.718l-8.166-15.671,4.931-2.568a7.266,7.266,0,0,1,10.329,3.225l1.116,2.141a7.25,7.25,0,0,1-3.28,10.3ZM668.36,585.61l6.431,12.344,2.81-1.463a4.869,4.869,0,0,0,2.682-3.216,6.058,6.058,0,0,0-.659-4.325l-1.126-2.163a6.026,6.026,0,0,0-3.155-3,4.877,4.877,0,0,0-4.174.356Z" fill="#fff"/><path d="M682.071,576.96l-2.005,1.3-1.327-2.048,2.007-1.3Zm8.965,13.844-2.007,1.3-7.136-11.023,2.007-1.3Z" fill="#fff"/><path d="M693.079,575.823l-1.029.668a2.736,2.736,0,0,0-1.018,1.309,2.874,2.874,0,0,0-.057,1.609l5.568,7.551-1.924,1.42-7.794-10.568,1.72-1.269,1.323,1.406a4.565,4.565,0,0,1,.164-2.1,3.232,3.232,0,0,1,1.181-1.579,2.861,2.861,0,0,1,.435-.269,3.438,3.438,0,0,1,.378-.164Z" fill="#fff"/><path d="M706.373,579.338a5.554,5.554,0,0,1-4.506,1.556,6.96,6.96,0,0,1-4.331-2.527l-.353-.4a6.814,6.814,0,0,1-1.863-4.591,5.109,5.109,0,0,1,1.771-4.022,4.764,4.764,0,0,1,4.048-1.379,6.752,6.752,0,0,1,3.866,2.4l.833.948-6.306,5.547.013.069a5.432,5.432,0,0,0,2.776,1.834,3.051,3.051,0,0,0,2.819-.839,6.059,6.059,0,0,0,1.371-1.666,4.739,4.739,0,0,0,.55-1.754l1.727.55a5.717,5.717,0,0,1-.636,2.088A7.4,7.4,0,0,1,706.373,579.338Zm-8.04-8.573a2.6,2.6,0,0,0-.917,2.091,4.565,4.565,0,0,0,.88,2.516l.058.03,4.447-3.913-.128-.145a3.833,3.833,0,0,0-2.092-1.313A2.546,2.546,0,0,0,698.333,570.765Z" fill="#fff"/><path d="M714.924,568.3a2.812,2.812,0,0,0,.769-1.916,2.32,2.32,0,0,0-.765-1.828l1.466-1.588.078.023a3.768,3.768,0,0,1,1.227,3.116,5.562,5.562,0,0,1-5.682,5.324,7.261,7.261,0,0,1-4.463-2.071l-.375-.347a7.23,7.23,0,0,1-2.4-4.275,5.15,5.15,0,0,1,1.506-4.415,4.956,4.956,0,0,1,3.44-1.722,4.314,4.314,0,0,1,3.37,1.269l.037.068-1.473,1.6a2.9,2.9,0,0,0-2.033-.812,2.578,2.578,0,0,0-1.959.877,2.762,2.762,0,0,0-.738,2.812,6.409,6.409,0,0,0,1.883,2.836l.375.346a6.522,6.522,0,0,0,2.991,1.681A2.763,2.763,0,0,0,714.924,568.3Z" fill="#fff"/><path d="M723.785,557.574a2.808,2.808,0,0,0,.568-1.985,2.319,2.319,0,0,0-.949-1.74l1.293-1.731.082.016a3.77,3.77,0,0,1,1.542,2.972,5.564,5.564,0,0,1-5.1,5.882,7.265,7.265,0,0,1-4.652-1.6l-.409-.3a7.237,7.237,0,0,1-2.832-4,5.153,5.153,0,0,1,1.044-4.547,4.959,4.959,0,0,1,3.244-2.069,4.316,4.316,0,0,1,3.482.916l.044.063-1.3,1.74a2.9,2.9,0,0,0-2.107-.6,2.582,2.582,0,0,0-1.858,1.073,2.767,2.767,0,0,0-.442,2.874,6.373,6.373,0,0,0,2.165,2.627l.408.306a6.508,6.508,0,0,0,3.149,1.361A2.754,2.754,0,0,0,723.785,557.574Z" fill="#fff"/><path d="M717.447,540.453l-1.277,2.021-2.062-1.3,1.279-2.02Zm13.938,8.819-1.278,2.021-11.1-7.021,1.277-2.021Z" fill="#fff"/><path d="M720.241,530.989l1.292-2.475.077.012,1.285,4.354-.831,1.593Zm7.392,11.8a7.227,7.227,0,0,1-3.524-3.62,5.292,5.292,0,0,1,.31-4.671,5.351,5.351,0,0,1,3.664-2.954,7.208,7.208,0,0,1,4.994.821l.237.124a7.194,7.194,0,0,1,3.53,3.623,5.873,5.873,0,0,1-3.986,7.619,7.182,7.182,0,0,1-4.988-.818Zm1.344-2a6.224,6.224,0,0,0,3.462.816,3.179,3.179,0,0,0,2.414-4.62,6.2,6.2,0,0,0-2.646-2.381l-.237-.124a6.164,6.164,0,0,0-3.457-.8,2.928,2.928,0,0,0-2.427,1.683,2.889,2.889,0,0,0,.017,2.933,6.243,6.243,0,0,0,2.637,2.368Z" fill="#fff"/><path d="M729.187,524.97l1.884.541a4.776,4.776,0,0,1-.923-2.115,4.38,4.38,0,0,1,.269-2.309,4.285,4.285,0,0,1,2.339-2.626,5.461,5.461,0,0,1,4,.288l7.739,2.969-.855,2.233-7.7-2.952a3.551,3.551,0,0,0-2.545-.242,2.746,2.746,0,0,0-1.43,1.693,3.707,3.707,0,0,0-.258,1.911,3.207,3.207,0,0,0,.725,1.583l9.1,3.491-.855,2.232-12.261-4.7Z" fill="#fff"/></g><g transform="translate(202.003 465.824)"><path d="M649.775,325.416a7.232,7.232,0,0,1,3.217-3.895,5.845,5.845,0,0,1,8.01,3.125,7.2,7.2,0,0,1-.274,5.052l-.1.25a7.194,7.194,0,0,1-3.221,3.9,5.872,5.872,0,0,1-8-3.137,7.183,7.183,0,0,1,.273-5.047Zm2.129,1.12a6.226,6.226,0,0,0-.435,3.53,3.178,3.178,0,0,0,4.854,1.9,6.2,6.2,0,0,0,2.081-2.887l.1-.249a6.176,6.176,0,0,0,.42-3.524,2.925,2.925,0,0,0-1.936-2.23,2.887,2.887,0,0,0-2.913.334,6.233,6.233,0,0,0-2.07,2.879Z" fill="#fff"/><path d="M671.022,329.92l-1.069-.6a2.724,2.724,0,0,0-1.631-.3,2.875,2.875,0,0,0-1.453.693l-4.127,8.425-2.147-1.051,5.775-11.794,1.918.941-.635,1.822a4.552,4.552,0,0,1,1.936-.821,3.219,3.219,0,0,1,1.946.317,2.95,2.95,0,0,1,.439.263,3.283,3.283,0,0,1,.319.257Z" fill="#fff"/><path d="M670.781,335.027a8.753,8.753,0,0,1,3.776-3.7,4.345,4.345,0,0,1,4.24.264,4.6,4.6,0,0,1,1.631,1.555,4.428,4.428,0,0,1,.625,2.059l1.125-1.32,1.639.974-6.752,11.347a5,5,0,0,1-3.244,2.581,6.03,6.03,0,0,1-4.333-1,8.926,8.926,0,0,1-1.624-1.269,8.082,8.082,0,0,1-1.3-1.6l1.263-1.409a6.908,6.908,0,0,0,1.133,1.358,8.518,8.518,0,0,0,1.538,1.177,3.484,3.484,0,0,0,2.592.617,3.294,3.294,0,0,0,1.921-1.674l.764-1.283a4.245,4.245,0,0,1-1.965.287,4.818,4.818,0,0,1-2-.7,4.49,4.49,0,0,1-2.338-3.418,7.249,7.249,0,0,1,1.18-4.628Zm1.924,1.441a5.588,5.588,0,0,0-.926,3.149,2.82,2.82,0,0,0,1.544,2.317,3.149,3.149,0,0,0,1.806.5,3.726,3.726,0,0,0,1.743-.578l3.09-5.2a3.713,3.713,0,0,0-.353-1.755,3.138,3.138,0,0,0-1.282-1.334,2.722,2.722,0,0,0-2.9-.075,7.331,7.331,0,0,0-2.59,2.751Z" fill="#fff"/><path d="M686.079,352.622c.171-.367.329-.684.474-.956a7.631,7.631,0,0,1,.482-.783,5.557,5.557,0,0,1-2.342.236,4.447,4.447,0,0,1-2.238-.864,4.292,4.292,0,0,1-1.885-2.7,3.851,3.851,0,0,1,.859-2.966,3.388,3.388,0,0,1,2.975-1.458,7.114,7.114,0,0,1,3.954,1.607l2.087,1.546.772-1.044a2.412,2.412,0,0,0,.521-1.887,2.756,2.756,0,0,0-1.2-1.726,2.887,2.887,0,0,0-1.858-.651,1.743,1.743,0,0,0-1.406.7l-1.838-1.333.023-.072a3.145,3.145,0,0,1,2.638-1.309,5.559,5.559,0,0,1,3.668,1.237,5.432,5.432,0,0,1,2.212,3.05,4.025,4.025,0,0,1-.855,3.437l-3.764,5.081a12.346,12.346,0,0,0-.75,1.136,7,7,0,0,0-.551,1.192Zm-2.148-3.766a4.253,4.253,0,0,0,2.279.857,3.171,3.171,0,0,0,2-.419l1.271-1.717-2.155-1.6a3.469,3.469,0,0,0-2.291-.791,2.179,2.179,0,0,0-1.716.857,1.806,1.806,0,0,0-.385,1.437A2.3,2.3,0,0,0,683.931,348.856Z" fill="#fff"/><path d="M700.557,347.531l-1.188,1.559a4.772,4.772,0,0,1,2.307-.093,4.41,4.41,0,0,1,2.054,1.088,4.286,4.286,0,0,1,1.6,3.134,5.457,5.457,0,0,1-1.721,3.626l-5.576,6.133-1.769-1.609,5.543-6.1a3.544,3.544,0,0,0,1.149-2.283,2.745,2.745,0,0,0-1.058-1.948,3.719,3.719,0,0,0-1.687-.934,3.214,3.214,0,0,0-1.738.1l-6.556,7.21-1.768-1.608,8.832-9.717Z" fill="#fff"/><path d="M701.984,367.181l-1.648-1.733,9.521-9.046,1.645,1.733ZM713.94,355.82l-1.647-1.733,1.769-1.681,1.647,1.734Z" fill="#fff"/><path d="M707.223,370.211l4.848,5.835-1.438,1.194-6.67-8.028,1.289-1.07,11.893-.651-4.483-5.395,1.457-1.21,6.35,7.646-1.25,1.04Z" fill="#fff"/><path d="M716.535,385.7q.423-.437.761-.748a7.677,7.677,0,0,1,.712-.582,5.546,5.546,0,0,1-2.29-.544,4.44,4.44,0,0,1-1.831-1.549,4.287,4.287,0,0,1-.9-3.171,3.86,3.86,0,0,1,1.784-2.521,3.39,3.39,0,0,1,3.289-.4,7.12,7.12,0,0,1,3.21,2.812l1.465,2.143,1.072-.733a2.4,2.4,0,0,0,1.11-1.611,2.763,2.763,0,0,0-.567-2.023,2.891,2.891,0,0,0-1.543-1.224,1.75,1.75,0,0,0-1.556.2l-1.3-1.859.046-.062a3.143,3.143,0,0,1,2.921-.372,5.551,5.551,0,0,1,3.061,2.37,5.42,5.42,0,0,1,1.092,3.605,4.025,4.025,0,0,1-1.933,2.969l-5.22,3.568a12.847,12.847,0,0,0-1.081.826,7.041,7.041,0,0,0-.911.948Zm-.8-4.262A4.254,4.254,0,0,0,717.612,383a3.156,3.156,0,0,0,2.029.259l1.763-1.2-1.514-2.214a3.476,3.476,0,0,0-1.905-1.5,2.173,2.173,0,0,0-1.9.25,1.8,1.8,0,0,0-.834,1.232A2.28,2.28,0,0,0,715.738,381.442Z" fill="#fff"/><path d="M723.256,393.863a2.812,2.812,0,0,0,1.573,1.335,2.317,2.317,0,0,0,1.978-.146l1.042,1.892-.046.067a3.773,3.773,0,0,1-3.345.179,5.562,5.562,0,0,1-3.253-7.076,7.278,7.278,0,0,1,3.378-3.578l.446-.246a7.232,7.232,0,0,1,4.817-.926,5.149,5.149,0,0,1,3.711,2.826A4.949,4.949,0,0,1,734.1,392a4.309,4.309,0,0,1-2.271,2.795l-.075.014-1.048-1.9a2.9,2.9,0,0,0,1.413-1.673,2.57,2.57,0,0,0-.213-2.133,2.759,2.759,0,0,0-2.433-1.59,6.381,6.381,0,0,0-3.286.888l-.448.246a6.529,6.529,0,0,0-2.54,2.307A2.761,2.761,0,0,0,723.256,393.863Z" fill="#fff"/><path d="M726.346,403.67l-1-2.17,11.918-5.513,1,2.169Zm14.969-6.926-1-2.17,2.214-1.024,1,2.17Z" fill="#fff"/><path d="M733.844,403.827a7.238,7.238,0,0,1,5.049-.211,5.847,5.847,0,0,1,3.029,8.047,7.2,7.2,0,0,1-3.941,3.173l-.25.094a7.2,7.2,0,0,1-5.054.214,5.872,5.872,0,0,1-3.019-8.051,7.19,7.19,0,0,1,3.936-3.172Zm.592,2.332a6.234,6.234,0,0,0-2.918,2.037,3.178,3.178,0,0,0,1.834,4.878,6.2,6.2,0,0,0,3.539-.382l.25-.094a6.173,6.173,0,0,0,2.9-2.043,2.924,2.924,0,0,0,.364-2.931,2.886,2.886,0,0,0-2.2-1.943,6.238,6.238,0,0,0-3.525.385Zm13.132.032.981,2.613-.06.049-4.1-1.947-.631-1.681Z" fill="#fff"/><path d="M745.707,418.343l-1.847.66a4.779,4.779,0,0,1,1.985,1.18,4.4,4.4,0,0,1,1.13,2.031,4.3,4.3,0,0,1-.369,3.5,5.468,5.468,0,0,1-3.419,2.1l-8.017,2.1-.607-2.312,7.969-2.093a3.549,3.549,0,0,0,2.209-1.289,2.737,2.737,0,0,0,.173-2.209,3.694,3.694,0,0,0-.905-1.7,3.218,3.218,0,0,0-1.513-.865l-9.425,2.475-.608-2.311,12.7-3.335Z" fill="#fff"/></g><g transform="translate(202.003 465.824)"><path d="M476.975,542.2l-.053.057a5.306,5.306,0,0,1-4.492.453,6.668,6.668,0,0,1-3.738-3.368,6.226,6.226,0,0,1-.468-5.306,7.8,7.8,0,0,1,3.831-4.232l2.762-1.5a7.825,7.825,0,0,1,5.64-.919,6.22,6.22,0,0,1,4.2,3.272,6.863,6.863,0,0,1,.877,4.953,5.279,5.279,0,0,1-2.892,3.535l-.076.013-1.1-2.014a3.943,3.943,0,0,0,2.058-2.364,4.192,4.192,0,0,0-.524-3.223,3.768,3.768,0,0,0-2.942-2.033,6.572,6.572,0,0,0-4.087.869l-2.783,1.513a6.607,6.607,0,0,0-2.972,2.97,3.764,3.764,0,0,0,.108,3.574,4.211,4.211,0,0,0,2.416,2.2,3.973,3.973,0,0,0,3.128-.459Z" fill="#fff"/><path d="M479.395,544.025a7.228,7.228,0,0,1,4.823-1.5,5.293,5.293,0,0,1,4.024,2.391,5.349,5.349,0,0,1,.975,4.606,7.2,7.2,0,0,1-2.994,4.08l-.217.155a7.188,7.188,0,0,1-4.829,1.506,5.869,5.869,0,0,1-4.987-7,7.178,7.178,0,0,1,2.987-4.077Zm1.171,2.1a6.23,6.23,0,0,0-2.3,2.716,3.179,3.179,0,0,0,3.027,4.245,6.207,6.207,0,0,0,3.32-1.28l.217-.155a6.171,6.171,0,0,0,2.279-2.72,2.924,2.924,0,0,0-.4-2.926,2.881,2.881,0,0,0-2.621-1.313,6.232,6.232,0,0,0-3.308,1.277Z" fill="#fff"/><path d="M494.571,553.478l-1.339,1.433a4.755,4.755,0,0,1,2.3.139,4.383,4.383,0,0,1,1.934,1.288,4.284,4.284,0,0,1,1.274,3.277,5.461,5.461,0,0,1-2.077,3.435l-6.162,5.543-1.6-1.777,6.126-5.511a3.544,3.544,0,0,0,1.373-2.157,2.744,2.744,0,0,0-.858-2.044,3.712,3.712,0,0,0-1.584-1.1,3.223,3.223,0,0,0-1.739-.073l-7.246,6.516-1.6-1.777,9.762-8.781Z" fill="#fff"/><path d="M507.231,561.985l-2.158,2.319L506.895,566l-1.2,1.3-1.823-1.692-5.429,5.839a1.774,1.774,0,0,0-.6,1.211,1.377,1.377,0,0,0,.486.964,2.189,2.189,0,0,0,.374.276,3.6,3.6,0,0,0,.389.2l-.875,1.423a2.142,2.142,0,0,1-.822-.275,4.1,4.1,0,0,1-.851-.6,3.1,3.1,0,0,1-1.1-2.223,3.825,3.825,0,0,1,1.249-2.609l5.43-5.839-1.528-1.421,1.206-1.3,1.528,1.422,2.158-2.32Z" fill="#fff"/><path d="M512.228,573.1l-.907-.827a2.728,2.728,0,0,0-1.522-.655,2.885,2.885,0,0,0-1.573.351l-5.9,7.293-1.857-1.5,8.259-10.209,1.661,1.344-1.027,1.635a4.558,4.558,0,0,1,2.071-.369,3.215,3.215,0,0,1,1.825.744,2.911,2.911,0,0,1,.371.353,3.694,3.694,0,0,1,.254.322Z" fill="#fff"/><path d="M511.1,577.777a7.235,7.235,0,0,1,3.98-3.113,5.29,5.29,0,0,1,4.61.814,5.347,5.347,0,0,1,2.54,3.963,7.2,7.2,0,0,1-1.357,4.875l-.147.222a7.2,7.2,0,0,1-3.985,3.117,5.873,5.873,0,0,1-7.142-4.787,7.179,7.179,0,0,1,1.352-4.87Zm1.838,1.551a6.252,6.252,0,0,0-1.186,3.354,3.18,3.18,0,0,0,4.334,2.9,6.219,6.219,0,0,0,2.652-2.373l.149-.221a6.178,6.178,0,0,0,1.168-3.351,2.922,2.922,0,0,0-1.411-2.595,2.886,2.886,0,0,0-2.916-.3,6.247,6.247,0,0,0-2.641,2.366Z" fill="#fff"/><path d="M522.749,592.948l-2.09-1.162,9.189-16.552,2.091,1.16Z" fill="#fff"/></g><g transform="translate(202.003 465.824)"><path d="M463.371,408.53l6.57,2.661-.9,2.215-16.378-6.633,2.538-6.265a6.233,6.233,0,0,1,3-3.531,5.478,5.478,0,0,1,7.12,2.884,6.26,6.26,0,0,1-.312,4.62Zm-1.731-.7,1.639-4.049a3.2,3.2,0,0,0-1.81-4.583,3.5,3.5,0,0,0-2.606-.093,3.431,3.431,0,0,0-1.917,2.111l-1.639,4.05Z" fill="#fff"/><path d="M476.186,397.173l-1.073,2.137-16.921-8.491,1.072-2.137Z" fill="#fff"/><path d="M481.815,387.212c-.382-.133-.715-.259-1-.375a7.707,7.707,0,0,1-.828-.4,5.555,5.555,0,0,1,.469,2.306,4.454,4.454,0,0,1-.636,2.313,4.282,4.282,0,0,1-2.5,2.146,3.854,3.854,0,0,1-3.036-.558,3.394,3.394,0,0,1-1.749-2.815,7.118,7.118,0,0,1,1.2-4.093l1.33-2.232-1.115-.665a2.417,2.417,0,0,0-1.93-.33,2.768,2.768,0,0,0-1.6,1.365,2.881,2.881,0,0,0-.463,1.914,1.751,1.751,0,0,0,.832,1.33l-1.141,1.961-.075-.015a3.147,3.147,0,0,1-1.565-2.494,5.57,5.57,0,0,1,.863-3.774,5.434,5.434,0,0,1,2.815-2.505,4.023,4.023,0,0,1,3.505.507l5.432,3.237a12.268,12.268,0,0,0,1.2.634,7.052,7.052,0,0,0,1.243.429Zm-3.534,2.515a4.242,4.242,0,0,0,.625-2.354,3.172,3.172,0,0,0-.617-1.951l-1.835-1.094-1.373,2.3a3.477,3.477,0,0,0-.557,2.359,2.176,2.176,0,0,0,1.025,1.622,1.8,1.8,0,0,0,1.469.238A2.3,2.3,0,0,0,478.281,389.727Z" fill="#fff"/><path d="M475.307,373.309l1.67,1.027a4.759,4.759,0,0,1-.322-2.285,4.363,4.363,0,0,1,.878-2.151,4.284,4.284,0,0,1,2.957-1.9,5.467,5.467,0,0,1,3.781,1.353l6.657,4.935-1.423,1.921-6.62-4.908a3.556,3.556,0,0,0-2.387-.916,2.748,2.748,0,0,0-1.832,1.247,3.754,3.754,0,0,0-.762,1.771,3.227,3.227,0,0,0,.275,1.721l7.827,5.8-1.424,1.921-10.548-7.82Z" fill="#fff"/><path d="M496.754,368.05a5.561,5.561,0,0,1-4.3,2.058,6.967,6.967,0,0,1-4.59-2.018l-.4-.358a6.818,6.818,0,0,1-2.373-4.351,5.113,5.113,0,0,1,1.3-4.2,4.762,4.762,0,0,1,3.865-1.83,6.752,6.752,0,0,1,4.114,1.948l.936.847-5.636,6.226.02.068a5.435,5.435,0,0,0,2.966,1.506,3.053,3.053,0,0,0,2.705-1.153,6,6,0,0,0,1.173-1.811,4.75,4.75,0,0,0,.349-1.8l1.778.35a5.724,5.724,0,0,1-.395,2.146A7.414,7.414,0,0,1,496.754,368.05Zm-8.963-7.6a2.6,2.6,0,0,0-.674,2.18,4.569,4.569,0,0,0,1.161,2.4l.059.021,3.976-4.39-.145-.13a3.812,3.812,0,0,0-2.226-1.066A2.54,2.54,0,0,0,487.791,360.447Z" fill="#fff"/><path d="M507.423,357.209c-.327-.237-.609-.454-.847-.648a7.655,7.655,0,0,1-.676-.622,5.56,5.56,0,0,1-.218,2.343,4.44,4.44,0,0,1-1.276,2.03,4.288,4.288,0,0,1-3.014,1.335,3.859,3.859,0,0,1-2.746-1.412,3.393,3.393,0,0,1-.862-3.2,7.119,7.119,0,0,1,2.333-3.572l1.917-1.753-.877-.958a2.41,2.41,0,0,0-1.752-.873,2.762,2.762,0,0,0-1.922.846,2.886,2.886,0,0,0-.995,1.7,1.743,1.743,0,0,0,.414,1.513l-1.661,1.549-.066-.038a3.143,3.143,0,0,1-.779-2.838,5.558,5.558,0,0,1,1.916-3.365,5.42,5.42,0,0,1,3.417-1.586,4.024,4.024,0,0,1,3.21,1.5l4.266,4.667a12.437,12.437,0,0,0,.971.955,7.093,7.093,0,0,0,1.066.769Zm-4.108,1.389a4.273,4.273,0,0,0,1.278-2.074,3.176,3.176,0,0,0-.027-2.045l-1.442-1.577-1.979,1.81a3.474,3.474,0,0,0-1.216,2.1,2.167,2.167,0,0,0,.515,1.847,1.8,1.8,0,0,0,1.335.653A2.292,2.292,0,0,0,503.315,358.6Z" fill="#fff"/><path d="M514.573,349.389a2.808,2.808,0,0,0,1.1-1.746,2.322,2.322,0,0,0-.424-1.938l1.727-1.3.073.037a3.77,3.77,0,0,1,.648,3.286,5.566,5.566,0,0,1-6.545,4.217,7.261,7.261,0,0,1-4.019-2.838l-.307-.409a7.233,7.233,0,0,1-1.6-4.636,5.151,5.151,0,0,1,2.275-4.074,4.955,4.955,0,0,1,3.692-1.076,4.308,4.308,0,0,1,3.088,1.855l.024.071-1.736,1.306a2.9,2.9,0,0,0-1.854-1.163,2.58,2.58,0,0,0-2.083.511,2.757,2.757,0,0,0-1.231,2.634,6.4,6.4,0,0,0,1.342,3.128l.307.407a6.5,6.5,0,0,0,2.641,2.19A2.755,2.755,0,0,0,514.573,349.389Z" fill="#fff"/><path d="M514.84,331.13l-2.006,1.3-1.327-2.047,2.006-1.3Zm8.975,13.837-2.006,1.3-7.146-11.017,2.007-1.3Z" fill="#fff"/><path d="M522.946,337.5a7.233,7.233,0,0,1-.923-4.967,5.848,5.848,0,0,1,7.539-4.136,7.2,7.2,0,0,1,3.7,3.453l.13.235a7.2,7.2,0,0,1,.924,4.973,5.871,5.871,0,0,1-7.543,4.125,7.178,7.178,0,0,1-3.7-3.448Zm.4-13.919,2.447-1.341.057.052-1.348,4.336-1.575.863Zm1.823,13a6.224,6.224,0,0,0,2.428,2.6,3.179,3.179,0,0,0,4.571-2.505,6.184,6.184,0,0,0-.879-3.447l-.128-.235a6.172,6.172,0,0,0-2.432-2.584,2.923,2.923,0,0,0-2.952.055,2.883,2.883,0,0,0-1.615,2.446,6.252,6.252,0,0,0,.878,3.436Z" fill="#fff"/><path d="M535.6,323.726l.916,1.733a4.769,4.769,0,0,1,.886-2.13,4.385,4.385,0,0,1,1.851-1.4,4.288,4.288,0,0,1,3.514-.131,5.465,5.465,0,0,1,2.565,3.087l3.217,7.64-2.2.928-3.2-7.594a3.563,3.563,0,0,0-1.589-2.005,2.744,2.744,0,0,0-2.212.142,3.7,3.7,0,0,0-1.556,1.137,3.209,3.209,0,0,0-.641,1.618l3.783,8.982-2.2.928-5.1-12.1Z" fill="#fff"/></g><path d="M742.005,372.795l18.02-47.715-55.9,4.729" transform="translate(202.003 465.824)" fill="#81d4fa"/><path d="M713.336,585.227l49.707,11.43L750.831,541.9" transform="translate(202.003 465.824)" fill="#7e5ee3"/><path d="M455.739,545.18l-16.673,48.2,55.744-6.3" transform="translate(202.003 465.824)" fill="#00bcd4"/><path d="M491.826,333.127l-49.843-10.822,12.881,54.6" transform="translate(202.003 465.824)" fill="url(#f)"/><path d="M760.025,256.411v63.1h63.424" transform="translate(202.003 465.824)" fill="#81d4fa"/><g transform="matrix(1, 0, 0, 1, 299.16, 542)" filter="url(#g)"><path d="M7.3,0H295.782a7.3,7.3,0,0,1,7.3,7.3V186.394a7.3,7.3,0,0,1-7.3,7.3H7.3a7.3,7.3,0,0,1-7.3-7.3V7.3A7.3,7.3,0,0,1,7.3,0Z" transform="translate(671 36)" fill="#f4f3f3"/></g><text transform="translate(993.338 623.35)" fill="#12263f" font-size="14" font-family="Roboto-Regular, Roboto"><tspan x="0" y="0">Esta función tiene relación con el diseño </tspan><tspan x="0" y="16.8">estructural. En ella se definen las tareas </tspan><tspan x="0" y="33.6">necesarias a realizar y cómo se agrupan; </tspan><tspan x="0" y="50.4">quién será el encargado de llevarlas a </tspan><tspan x="0" y="67.2">cabo y en qué momento se toman </tspan><tspan x="0" y="84">las decisiones.</tspan><tspan x="0" y="100.8"></tspan><tspan x="0" y="117.6">¿Cómo se va a hacer?</tspan><tspan font-family="Roboto-Regular"><tspan x="0" y="134.4"></tspan></tspan></text><path d="M831.751,599.943h-63.1v63.424" transform="translate(202.003 465.824)" fill="#7e5ee3"/><path d="M367.563,601.305h63.1v71.538" transform="translate(202.003 465.824)" fill="#00bcd4"/><g transform="matrix(1, 0, 0, 1, 299.16, 542)" filter="url(#i)"><path d="M7.3,0h307.62a7.3,7.3,0,0,1,7.3,7.3V153.63a7.3,7.3,0,0,1-7.3,7.3H7.3a7.3,7.3,0,0,1-7.3-7.3V7.3A7.3,7.3,0,0,1,7.3,0Z" transform="translate(679.65 532.29)" fill="#f4f3f3"/></g><g transform="matrix(1, 0, 0, 1, 299.16, 542)" filter="url(#k)"><path d="M7.3,0H317.14a7.3,7.3,0,0,1,7.3,7.3V223.673a7.3,7.3,0,0,1-7.3,7.3H7.3a7.3,7.3,0,0,1-7.3-7.3V7.3A7.3,7.3,0,0,1,7.3,0Z" transform="translate(0 534.43)" fill="#f4f3f3"/></g><path d="M434.88,256.411v63.1H363.342" transform="translate(202.003 465.824)" fill="#ff9d00"/><g transform="matrix(1, 0, 0, 1, 299.16, 542)" filter="url(#m)"><path d="M7.3,0H307.66a7.3,7.3,0,0,1,7.3,7.3V141.249a7.3,7.3,0,0,1-7.3,7.3H7.3a7.3,7.3,0,0,1-7.3-7.3V7.3A7.3,7.3,0,0,1,7.3,0Z" transform="translate(14 85)" fill="#f4f3f3"/></g><text transform="translate(1006.388 1115.945)" fill="#12263f" font-size="14" font-family="Roboto-Regular, Roboto"><tspan x="0" y="0">Es la influencia sobre las personas de la </tspan><tspan x="0" y="16.8">institución, para que cooperen a favor del </tspan><tspan x="0" y="33.6">cumplimiento de las metas y objetivos </tspan><tspan x="0" y="50.4">de toda la empresa.</tspan><tspan x="0" y="67.2"></tspan><tspan x="0" y="84">Es la ejecución.</tspan><tspan font-family="Roboto-Regular"><tspan x="0" y="100.8"></tspan></tspan></text><text transform="translate(326.933 1124.722)" fill="#12263f" font-size="14" font-family="Roboto-Regular, Roboto"><tspan x="0" y="0">Esta función consiste en medir y modificar </tspan><tspan x="0" y="16.8">el desempeño individual y grupal con el fin </tspan><tspan x="0" y="33.6">de asegurar que las actividades realizadas </tspan><tspan x="0" y="50.4">se apeguen a los planes. El control permite </tspan><tspan x="0" y="67.2">medir el desempeño con base en objetivos </tspan><tspan x="0" y="84">y proyectos, la detección de desviaciones </tspan><tspan x="0" y="100.8">con respecto a las normas, y la aportación </tspan><tspan x="0" y="117.6">a la corrección de estas. </tspan><tspan x="0" y="134.4"></tspan><tspan x="0" y="151.2">¿Cómo se ha realizado?</tspan><tspan font-family="Roboto-Regular"><tspan x="0" y="168"></tspan></tspan></text><text transform="translate(340.162 665)" fill="#12263f" font-size="14" font-family="Roboto-Regular, Roboto"><tspan x="0" y="0">Se definen las metas y los objetivos, y se </tspan><tspan x="0" y="16.8">plantean las estrategias, procedimientos, </tspan><tspan x="0" y="33.6">políticas y métodos para lograrlas.</tspan><tspan x="0" y="50.4"></tspan><tspan x="0" y="67.2">¿Qué se quiere hacer?</tspan><tspan font-family="Roboto-Regular"><tspan x="0" y="84"></tspan></tspan></text><text transform="translate(804.162 917)" fill="#12263f" font-size="24" font-family="Roboto-Black, Roboto" font-weight="800"><tspan x="-47.525" y="0">Proceso </tspan><tspan x="-78.094" y="33">administrativo</tspan></text><circle cx="24.5" cy="24.5" r="24.5" transform="translate(446.162 591)" fill="#fca829"/><circle cx="24.5" cy="24.5" r="24.5" transform="translate(1097.162 542)" fill="#81d4fa"/><circle cx="24.5" cy="24.5" r="24.5" transform="translate(1115.162 1041)" fill="#7e5ee3"/><circle cx="24.5" cy="24.5" r="24.5" transform="translate(437.162 1041)" fill="#00bcd4"/><text transform="translate(460.662 595.707)" fill="#fff" font-size="30" font-family="Roboto-Black, Roboto" font-weight="800"><tspan x="0" y="31">1</tspan></text><text transform="translate(1113.162 548)" fill="#fff" font-size="30" font-family="Roboto-Black, Roboto" font-weight="800"><tspan x="0" y="31">2</tspan></text><text transform="translate(1133.162 1049)" fill="#fff" font-size="30" font-family="Roboto-Black, Roboto" font-weight="800"><tspan x="0" y="31">3</tspan></text><text transform="translate(451.162 1047)" fill="#fff" font-size="30" font-family="Roboto-Black, Roboto" font-weight="800"><tspan x="0" y="31">4</tspan></text><path d="M13308.454-11147.459l21.608,21.478-21.608,19.031" transform="translate(-12504.838 11700)" fill="none" stroke="#707070" stroke-linecap="round" stroke-width="7"/><path d="M13330.062-11147.459l-21.608,21.478,21.608,19.031" transform="translate(-12504.837 12422.926)" fill="none" stroke="#707070" stroke-linecap="round" stroke-width="7"/><path d="M13308.454-11147.459l21.608,21.478-21.608,19.031" transform="translate(-9965.043 -12385.258) rotate(90)" fill="none" stroke="#707070" stroke-linecap="round" stroke-width="7"/><path d="M0,40.509,21.608,19.031,0,0" transform="translate(417.907 944.805) rotate(-90)" fill="none" stroke="#707070" stroke-linecap="round" stroke-width="7"/></g></svg>