<svg xmlns="http://www.w3.org/2000/svg" width="210" height="295" viewBox="0 0 210 295"><g transform="translate(-265 -2487)"><rect width="210" height="295" transform="translate(265 2487)" fill="none"/><g transform="translate(289.72 2500.999)"><path d="M-314.467,284.991c44.533,0,80.64,19.119,80.64,42.713s-36.106,42.712-80.64,42.712-80.64-19.124-80.64-42.712S-359,284.991-314.467,284.991Z" transform="translate(395.107 -104.323)" fill="#92b4d1" opacity="0.173"/><g transform="translate(9.641 0)"><g transform="translate(9.542 74.205)"><path d="M-269.82,264.02V405.148c0,17.777-27.092,32.183-60.51,32.183s-60.5-14.407-60.5-32.183V263.413Z" transform="translate(390.834 -263.413)" fill="#748fff"/></g><g transform="translate(31.256 97.069)"><path d="M-291.534,268.047v90.546c0,17.772-27.092,32.184-60.51,32.184-14.767,0-28.286-2.822-38.79-7.5V292.736c10.5,4.672,24.023,7.495,38.79,7.495C-318.626,300.231-291.534,285.824-291.534,268.047Z" transform="translate(390.834 -268.047)" fill="#f6f6f6"/></g><g transform="translate(46.778 110.81)"><path d="M-390.834,300.514a107.541,107.541,0,0,0,23.268,2.506c33.417,0,60.51-14.412,60.51-32.188V285.54c0,17.777-27.092,32.184-60.51,32.184a107.548,107.548,0,0,1-23.268-2.5Z" transform="translate(390.834 -270.832)" fill="#4f83fd"/></g><g transform="translate(0 32.741)"><path d="M-377.565,269.08c12.68-8.555,32.3-14.071,54.377-14.071a117.335,117.335,0,0,1,36.235,5.491l5.733-.543,27.285,16.2V291.85c0,20.342-31,36.836-69.252,36.836s-69.257-16.494-69.257-36.836V276.156Z" transform="translate(392.446 -255.009)" fill="#cedcff"/></g><g transform="translate(0 17.051)"><path d="M-323.189,251.829c38.247,0,69.252,16.494,69.252,36.836s-31,36.836-69.252,36.836-69.257-16.489-69.257-36.836S-361.436,251.829-323.189,251.829Z" transform="translate(392.446 -251.829)" fill="#f6f6f6"/></g><g transform="translate(10.875 17.925)"><path d="M-377.648,263.813c10.642-7.179,27.107-11.807,45.634-11.807a98.369,98.369,0,0,1,30.408,4.608l4.811-.459L-273.9,265v17.925c0,17.071-26.021,30.916-58.116,30.916s-58.121-13.844-58.121-30.916V265Z" transform="translate(390.136 -252.006)" fill="#4f83fd"/></g><g transform="translate(10.875)"><path d="M-332.015,248.373c32.1,0,58.116,13.839,58.116,30.916S-299.919,310.2-332.015,310.2s-58.121-13.844-58.121-30.916S-364.114,248.373-332.015,248.373Z" transform="translate(390.136 -248.373)" fill="#71a0ff"/></g></g></g></g></svg>