<svg xmlns="http://www.w3.org/2000/svg" xmlns:xlink="http://www.w3.org/1999/xlink" width="210" height="242" viewBox="0 0 210 242"><defs><linearGradient id="a" x1="1.069" y1="0.5" x2="-0.038" y2="0.5" gradientUnits="objectBoundingBox"><stop offset="0" stop-color="#b5bbcb"/><stop offset="0.227" stop-color="#eceff5"/><stop offset="0.54" stop-color="#9da7b3"/><stop offset="0.655" stop-color="#a0a9b5"/><stop offset="0.754" stop-color="#abb2bc"/><stop offset="0.848" stop-color="#bcc1c9"/><stop offset="0.869" stop-color="#c2c6cd"/><stop offset="1" stop-color="#b9bdcb"/></linearGradient><linearGradient id="b" x1="0.955" y1="0.5" x2="0.05" y2="0.5" xlink:href="#a"/><linearGradient id="c" x1="1.016" y1="0.499" x2="0.052" y2="0.499" gradientUnits="objectBoundingBox"><stop offset="0" stop-color="#ffbb96"/><stop offset="0.227" stop-color="#fffbc9"/><stop offset="0.54" stop-color="#f9b673"/><stop offset="0.639" stop-color="#f9b876"/><stop offset="0.725" stop-color="#fabe81"/><stop offset="0.806" stop-color="#fcc892"/><stop offset="0.859" stop-color="#fed2a3"/><stop offset="0.97" stop-color="#ffc28c"/></linearGradient><linearGradient id="d" x1="1.02" y1="0.499" x2="0.09" y2="0.499" xlink:href="#c"/></defs><g transform="translate(-265 -3302)"><rect width="210" height="242" transform="translate(265 3302)" fill="none"/><g transform="translate(302 3309)"><ellipse cx="67.366" cy="31.059" rx="67.366" ry="31.059" transform="translate(0 165.7)" fill="#92b4d1" opacity="0.2"/><path d="M335.059,283h113.1V416.1h-.017c0,.153.017.3.017.455,0,18.184-25.315,32.931-56.549,32.931s-56.549-14.747-56.549-32.931c0-.153.017-.3.021-.455h-.021Z" transform="translate(-313.576 -224.693)" fill="#72b5e8"/><g transform="translate(21.482 76.624)"><path d="M391.608,322.548c31.233,0,56.549-14.747,56.549-32.931v73.721h-.017c0,.153.017.3.017.455,0,18.189-25.315,32.931-56.549,32.931s-56.549-14.743-56.549-32.931c0-.153.017-.3.021-.455h-.021V289.617C335.059,307.8,360.379,322.548,391.608,322.548Z" transform="translate(-335.059 -279.793)" fill="#f0f8ff"/><path d="M335.076,287.308v.451c0-.149-.013-.3-.017-.451Z" transform="translate(-221.978 -287.308)" fill="url(#a)"/><path d="M361.636,287.759v-.451h.021C361.653,287.457,361.636,287.61,361.636,287.759Z" transform="translate(-361.636 -287.308)" fill="url(#b)"/></g><g transform="translate(19.338 52.057)" style="mix-blend-mode:multiply;isolation:isolate"><path d="M334.576,281.534v.472c0-.157-.017-.315-.021-.472Z" transform="translate(-217.19 -281.534)" fill="url(#c)"/><path d="M391.608,309.37c27.034,0,49.733-10.658,56.549-25.136v3.655c-6.816,14.483-29.515,25.137-56.549,25.137s-49.733-10.654-56.549-25.137v-3.655C341.875,298.712,364.578,309.37,391.608,309.37Z" transform="translate(-332.915 -272.746)" fill="#a8cff0"/><path d="M362.14,282.006v-.472h.021C362.157,281.691,362.14,281.849,362.14,282.006Z" transform="translate(-362.14 -281.534)" fill="url(#d)"/></g><path d="M334.555,277.717H451.941v18.435h-.021c0,.157.021.311.021.468,0,18.878-26.277,34.182-58.693,34.182s-58.693-15.3-58.693-34.182c0-.157.017-.311.021-.468h-.021Z" transform="translate(-315.217 -241.9)" fill="#ffd70f"/><g transform="translate(21.542 34.132)" opacity="0.5" style="mix-blend-mode:multiply;isolation:isolate"><path d="M354.221,323.274c-.557-.1-1.093-.238-1.646-.349v-43.4h1.646Z" transform="translate(-315.708 -270.154)" fill="#ffd70f"/><path d="M355.954,321.534c-.549-.153-1.106-.3-1.646-.46V279.523h1.646Z" transform="translate(-324.814 -270.154)" fill="#ffd70f"/><path d="M357.688,319.117c-.566-.221-1.094-.477-1.647-.706V279.523h1.647Z" transform="translate(-333.921 -270.154)" fill="#ffd70f"/><path d="M352.489,324.337c-.549-.06-1.1-.106-1.647-.174v-44.64h1.647Z" transform="translate(-306.602 -270.154)" fill="#ffd70f"/><path d="M361.154,312.218c-.562-.451-1.123-.9-1.647-1.361V279.083h1.647Z" transform="translate(-352.134 -271.586)" fill="#ffd70f"/><path d="M362.887,310a24.8,24.8,0,0,1-1.647-2.91V277.321h1.647Z" transform="translate(-361.24 -277.321)" fill="#ffd70f"/><path d="M359.421,315.654c-.549-.3-1.119-.583-1.647-.9V279.523h1.647Z" transform="translate(-343.027 -270.154)" fill="#ffd70f"/><path d="M350.755,324.827c-.549-.017-1.1-.021-1.646-.047V279.523h1.646Z" transform="translate(-297.495 -270.154)" fill="#ffd70f"/><path d="M349.023,324.8c-.545.021-1.1.034-1.647.047V279.523h1.647Z" transform="translate(-288.389 -270.154)" fill="#ffd70f"/><path d="M345.557,323.082c-.553.107-1.089.234-1.647.336v-43.9h1.647Z" transform="translate(-270.177 -270.154)" fill="#ffd70f"/><path d="M347.289,324.256c-.54.064-1.1.094-1.647.145V279.523h1.647Z" transform="translate(-279.283 -270.154)" fill="#ffd70f"/><path d="M343.823,321.278q-.817.236-1.646.46V279.523h1.646Z" transform="translate(-261.07 -270.154)" fill="#ffd70f"/><path d="M336.891,308.55a26.807,26.807,0,0,1-1.646,2.617V277.321h1.646Z" transform="translate(-224.645 -277.321)" fill="#ffd70f"/><path d="M338.625,311.508c-.519.443-1.094.859-1.647,1.281V279.083h1.647Z" transform="translate(-233.751 -271.586)" fill="#ffd70f"/><path d="M342.09,318.73c-.545.221-1.089.438-1.647.647V279.523h1.647Z" transform="translate(-251.964 -270.154)" fill="#ffd70f"/><path d="M340.357,315.173c-.532.3-1.1.583-1.647.872V279.523h1.647Z" transform="translate(-242.857 -270.154)" fill="#ffd70f"/></g><ellipse cx="58.692" cy="34.178" rx="58.692" ry="34.178" transform="translate(19.34)" fill="#ffde17"/><path d="M393.248,310.387c31.727,0,57.506-14.67,58.591-32.991.021.4.1.787.1,1.187,0,18.878-26.277,34.182-58.693,34.182s-58.693-15.3-58.693-34.182c0-.4.081-.787.106-1.187C335.746,295.717,361.525,310.387,393.248,310.387Z" transform="translate(-315.217 -242.945)" fill="#ffe585" style="mix-blend-mode:screen;isolation:isolate"/><path d="M335.059,326.919a92.571,92.571,0,0,0,20.98,2.366c31.233,0,56.549-14.742,56.549-32.927v3.212h-.017c0,.153.017.3.017.455,0,18.189-25.315,32.931-56.549,32.931a92.817,92.817,0,0,1-20.98-2.366Z" transform="translate(-278.008 -181.23)" fill="#3f92d1"/><path d="M335.059,324.294a92.574,92.574,0,0,0,20.98,2.366c31.233,0,56.549-14.742,56.549-32.927v3.212h-.017c0,.153.017.3.017.455,0,18.189-25.315,32.931-56.549,32.931a92.828,92.828,0,0,1-20.98-2.366Z" transform="translate(-278.008 -189.773)" fill="#3f92d1"/></g></g></svg>