<?xml version="1.0" encoding="utf-8"?>
<!-- Generator: Adobe Illustrator 25.2.3, SVG Export Plug-In . SVG Version: 6.00 Build 0)  -->
<!DOCTYPE svg PUBLIC "-//W3C//DTD SVG 1.1//EN" "http://www.w3.org/Graphics/SVG/1.1/DTD/svg11.dtd" [
	<!ENTITY ns_extend "http://ns.adobe.com/Extensibility/1.0/">
	<!ENTITY ns_ai "http://ns.adobe.com/AdobeIllustrator/10.0/">
	<!ENTITY ns_graphs "http://ns.adobe.com/Graphs/1.0/">
	<!ENTITY ns_vars "http://ns.adobe.com/Variables/1.0/">
	<!ENTITY ns_imrep "http://ns.adobe.com/ImageReplacement/1.0/">
	<!ENTITY ns_sfw "http://ns.adobe.com/SaveForWeb/1.0/">
	<!ENTITY ns_custom "http://ns.adobe.com/GenericCustomNamespace/1.0/">
	<!ENTITY ns_adobe_xpath "http://ns.adobe.com/XPath/1.0/">
]>
<svg version="1.1" id="Capa_1" xmlns:x="&ns_extend;" xmlns:i="&ns_ai;" xmlns:graph="&ns_graphs;"
	 xmlns="http://www.w3.org/2000/svg" xmlns:xlink="http://www.w3.org/1999/xlink" x="0px" y="0px" viewBox="0 0 345.5 54"
	 style="enable-background:new 0 0 345.5 54;" xml:space="preserve">
<style type="text/css">
	.st0{enable-background:new    ;}
	.st1{fill:#12263F;}
	.st2{fill:none;stroke:#707070;}
</style>
<metadata>
	<sfw  xmlns="&ns_sfw;">
		<slices></slices>
		<sliceSourceBounds  bottomLeftOrigin="true" height="49.2" width="337.3" x="0.7" y="0.4"></sliceSourceBounds>
	</sfw>
</metadata>
<g transform="translate(-738.5 -5951)">
	<g class="st0">
		<path class="st1" d="M748.4,5980.7c-0.1,1.2-0.5,2.2-1.4,2.9c-0.8,0.7-1.9,1.1-3.2,1.1c-1.5,0-2.6-0.5-3.4-1.5s-1.3-2.3-1.3-4
			v-0.7c0-1.1,0.2-2.1,0.6-2.9c0.4-0.8,0.9-1.5,1.7-1.9c0.7-0.4,1.5-0.7,2.5-0.7c1.3,0,2.4,0.4,3.2,1.1c0.8,0.7,1.3,1.7,1.4,3h-2.3
			c-0.1-0.7-0.3-1.3-0.6-1.6s-0.9-0.5-1.6-0.5c-0.8,0-1.4,0.3-1.8,0.8c-0.4,0.6-0.6,1.4-0.6,2.6v0.9c0,1.2,0.2,2.1,0.6,2.7
			c0.4,0.6,1,0.9,1.8,0.9c0.7,0,1.3-0.2,1.6-0.5c0.4-0.3,0.6-0.8,0.6-1.5H748.4z"/>
		<path class="st1" d="M752.3,5980.5v4H750v-11.4h4.4c0.9,0,1.6,0.2,2.3,0.5s1.1,0.8,1.5,1.3c0.3,0.6,0.5,1.2,0.5,2
			c0,1.1-0.4,2-1.1,2.6c-0.8,0.6-1.8,1-3.2,1H752.3z M752.3,5978.6h2.1c0.6,0,1.1-0.1,1.4-0.4c0.3-0.3,0.5-0.7,0.5-1.2
			c0-0.6-0.2-1-0.5-1.4s-0.8-0.5-1.4-0.5h-2.1V5978.6z"/>
		<path class="st1" d="M763.4,5973.1l2.9,8.2l2.9-8.2h3.1v11.4h-2.4v-3.1l0.2-5.4l-3.1,8.5h-1.6l-3.1-8.5l0.2,5.4v3.1h-2.3v-11.4
			H763.4z"/>
		<path class="st1" d="M781.4,5978.7h-7v-1.8h7V5978.7z M781.4,5982.1h-7v-1.8h7V5982.1z"/>
	</g>
	<g class="st0">
		<path class="st1" d="M801.4,5964v4H799v-11.4h4.4c0.9,0,1.6,0.2,2.3,0.5s1.1,0.8,1.5,1.3c0.3,0.6,0.5,1.2,0.5,2
			c0,1.1-0.4,2-1.1,2.6c-0.8,0.6-1.8,1-3.2,1H801.4z M801.4,5962.1h2.1c0.6,0,1.1-0.1,1.4-0.4c0.3-0.3,0.5-0.7,0.5-1.2
			c0-0.6-0.2-1-0.5-1.4s-0.8-0.5-1.4-0.5h-2.1V5962.1z"/>
		<path class="st1" d="M813.9,5961.7c-0.3,0-0.6-0.1-0.8-0.1c-0.9,0-1.4,0.3-1.7,0.9v5.5h-2.3v-8.5h2.1l0.1,1
			c0.5-0.8,1.1-1.2,1.9-1.2c0.2,0,0.5,0,0.7,0.1L813.9,5961.7z"/>
		<path class="st1" d="M814.4,5963.7c0-0.8,0.2-1.6,0.5-2.2c0.3-0.7,0.8-1.2,1.4-1.5c0.6-0.4,1.3-0.5,2.1-0.5c1.1,0,2.1,0.3,2.8,1
			c0.7,0.7,1.1,1.6,1.2,2.8l0,0.6c0,1.3-0.4,2.3-1.1,3.1c-0.7,0.8-1.7,1.2-2.9,1.2s-2.2-0.4-2.9-1.2s-1.1-1.8-1.1-3.2V5963.7z
			 M816.6,5963.9c0,0.8,0.2,1.4,0.5,1.8c0.3,0.4,0.7,0.6,1.3,0.6c0.5,0,1-0.2,1.3-0.6c0.3-0.4,0.5-1.1,0.5-2c0-0.8-0.2-1.4-0.5-1.8
			c-0.3-0.4-0.7-0.6-1.3-0.6c-0.6,0-1,0.2-1.3,0.6C816.8,5962.3,816.6,5963,816.6,5963.9z"/>
		<path class="st1" d="M825.9,5959.5l0.1,0.9c0.6-0.7,1.4-1.1,2.4-1.1c1.1,0,1.8,0.4,2.2,1.3c0.6-0.9,1.4-1.3,2.5-1.3
			c0.9,0,1.6,0.3,2,0.8c0.4,0.5,0.7,1.3,0.7,2.4v5.4h-2.3v-5.4c0-0.5-0.1-0.8-0.3-1.1s-0.5-0.3-1-0.3c-0.7,0-1.1,0.3-1.4,1l0,5.8
			h-2.3v-5.4c0-0.5-0.1-0.8-0.3-1.1c-0.2-0.2-0.5-0.3-1-0.3c-0.6,0-1.1,0.3-1.4,0.8v6h-2.3v-8.5H825.9z"/>
		<path class="st1" d="M841.5,5968.2c-1.2,0-2.2-0.4-3-1.1c-0.8-0.8-1.2-1.8-1.2-3v-0.2c0-0.8,0.2-1.6,0.5-2.3s0.8-1.2,1.4-1.5
			s1.3-0.5,2.1-0.5c1.2,0,2.1,0.4,2.7,1.1s1,1.8,1,3.1v0.9h-5.4c0.1,0.6,0.3,1,0.7,1.3s0.8,0.5,1.4,0.5c0.9,0,1.5-0.3,2-0.9l1.1,1.2
			c-0.3,0.5-0.8,0.9-1.4,1.1S842.2,5968.2,841.5,5968.2z M841.3,5961.2c-0.4,0-0.8,0.2-1.1,0.5c-0.3,0.3-0.5,0.7-0.5,1.3h3.1v-0.2
			c0-0.5-0.1-0.9-0.4-1.2C842.1,5961.3,841.8,5961.2,841.3,5961.2z"/>
		<path class="st1" d="M845.9,5963.7c0-1.3,0.3-2.4,0.9-3.1c0.6-0.8,1.4-1.2,2.4-1.2c0.8,0,1.5,0.3,2,0.9v-4.3h2.3v12h-2l-0.1-0.9
			c-0.6,0.7-1.3,1.1-2.2,1.1c-1,0-1.8-0.4-2.4-1.2S845.9,5965.1,845.9,5963.7z M848.2,5963.9c0,0.8,0.1,1.4,0.4,1.8
			c0.3,0.4,0.7,0.6,1.2,0.6c0.7,0,1.2-0.3,1.5-0.9v-3.3c-0.3-0.6-0.8-0.9-1.5-0.9C848.7,5961.2,848.2,5962.1,848.2,5963.9z"/>
		<path class="st1" d="M855.3,5957.4c0-0.3,0.1-0.6,0.3-0.8s0.5-0.3,0.9-0.3c0.4,0,0.7,0.1,0.9,0.3c0.2,0.2,0.3,0.5,0.3,0.8
			c0,0.3-0.1,0.6-0.3,0.8c-0.2,0.2-0.5,0.3-0.9,0.3c-0.4,0-0.7-0.1-0.9-0.3C855.4,5958,855.3,5957.7,855.3,5957.4z M857.7,5968h-2.3
			v-8.5h2.3V5968z"/>
		<path class="st1" d="M859.2,5963.7c0-0.8,0.2-1.6,0.5-2.2c0.3-0.7,0.8-1.2,1.4-1.5c0.6-0.4,1.3-0.5,2.1-0.5c1.1,0,2.1,0.3,2.8,1
			c0.7,0.7,1.1,1.6,1.2,2.8l0,0.6c0,1.3-0.4,2.3-1.1,3.1c-0.7,0.8-1.7,1.2-2.9,1.2s-2.2-0.4-2.9-1.2s-1.1-1.8-1.1-3.2V5963.7z
			 M861.5,5963.9c0,0.8,0.2,1.4,0.5,1.8c0.3,0.4,0.7,0.6,1.3,0.6c0.5,0,1-0.2,1.3-0.6c0.3-0.4,0.5-1.1,0.5-2c0-0.8-0.2-1.4-0.5-1.8
			c-0.3-0.4-0.7-0.6-1.3-0.6c-0.6,0-1,0.2-1.3,0.6C861.6,5962.3,861.5,5963,861.5,5963.9z"/>
		<path class="st1" d="M876.1,5966.3c0.4,0,0.8-0.1,1-0.3c0.3-0.2,0.4-0.5,0.4-0.9h2.1c0,0.6-0.2,1.1-0.5,1.6
			c-0.3,0.5-0.7,0.8-1.3,1.1c-0.5,0.3-1.1,0.4-1.8,0.4c-1.2,0-2.2-0.4-2.9-1.2c-0.7-0.8-1-1.8-1-3.2v-0.1c0-1.3,0.3-2.3,1-3.1
			c0.7-0.8,1.6-1.2,2.9-1.2c1.1,0,1.9,0.3,2.5,0.9c0.6,0.6,1,1.4,1,2.4h-2.1c0-0.4-0.1-0.8-0.4-1.1c-0.3-0.3-0.6-0.4-1-0.4
			c-0.5,0-0.9,0.2-1.2,0.6c-0.3,0.4-0.4,1-0.4,1.9v0.2c0,0.9,0.1,1.5,0.4,1.9S875.6,5966.3,876.1,5966.3z"/>
		<path class="st1" d="M880.6,5963.7c0-0.8,0.2-1.6,0.5-2.2c0.3-0.7,0.8-1.2,1.4-1.5c0.6-0.4,1.3-0.5,2.1-0.5c1.1,0,2.1,0.3,2.8,1
			c0.7,0.7,1.1,1.6,1.2,2.8l0,0.6c0,1.3-0.4,2.3-1.1,3.1c-0.7,0.8-1.7,1.2-2.9,1.2s-2.2-0.4-2.9-1.2s-1.1-1.8-1.1-3.2V5963.7z
			 M882.8,5963.9c0,0.8,0.2,1.4,0.5,1.8c0.3,0.4,0.7,0.6,1.3,0.6c0.5,0,1-0.2,1.3-0.6c0.3-0.4,0.5-1.1,0.5-2c0-0.8-0.2-1.4-0.5-1.8
			c-0.3-0.4-0.7-0.6-1.3-0.6c-0.6,0-1,0.2-1.3,0.6C883,5962.3,882.8,5963,882.8,5963.9z"/>
		<path class="st1" d="M892,5959.5l0.1,1c0.6-0.8,1.4-1.1,2.4-1.1c0.9,0,1.6,0.3,2,0.8s0.7,1.3,0.7,2.4v5.5H895v-5.4
			c0-0.5-0.1-0.8-0.3-1c-0.2-0.2-0.6-0.3-1-0.3c-0.6,0-1.1,0.3-1.4,0.8v6h-2.3v-8.5H892z"/>
		<path class="st1" d="M903.5,5965.7c0-0.3-0.1-0.5-0.4-0.7s-0.7-0.3-1.3-0.4c-2-0.4-3-1.3-3-2.6c0-0.8,0.3-1.4,0.9-1.9
			c0.6-0.5,1.4-0.8,2.4-0.8c1.1,0,1.9,0.3,2.6,0.8c0.6,0.5,1,1.2,1,2h-2.3c0-0.3-0.1-0.6-0.3-0.8c-0.2-0.2-0.5-0.3-1-0.3
			c-0.4,0-0.7,0.1-0.9,0.3c-0.2,0.2-0.3,0.4-0.3,0.7c0,0.2,0.1,0.5,0.4,0.6c0.2,0.2,0.6,0.3,1.2,0.4s1,0.2,1.4,0.4
			c1.2,0.4,1.8,1.2,1.8,2.3c0,0.8-0.3,1.4-1,1.9c-0.7,0.5-1.5,0.7-2.6,0.7c-0.7,0-1.3-0.1-1.9-0.4c-0.5-0.3-1-0.6-1.3-1
			s-0.5-0.9-0.5-1.4h2.1c0,0.4,0.2,0.7,0.4,0.9c0.3,0.2,0.6,0.3,1.1,0.3c0.4,0,0.8-0.1,1-0.2
			C903.4,5966.1,903.5,5965.9,903.5,5965.7z"/>
		<path class="st1" d="M912.2,5967.1c-0.6,0.7-1.3,1-2.3,1c-0.9,0-1.6-0.3-2.1-0.8s-0.7-1.3-0.7-2.3v-5.5h2.3v5.5
			c0,0.9,0.4,1.3,1.2,1.3c0.8,0,1.3-0.3,1.6-0.8v-6h2.3v8.5h-2.1L912.2,5967.1z"/>
		<path class="st1" d="M918.2,5959.5l0.1,0.9c0.6-0.7,1.4-1.1,2.4-1.1c1.1,0,1.8,0.4,2.2,1.3c0.6-0.9,1.4-1.3,2.5-1.3
			c0.9,0,1.6,0.3,2,0.8c0.4,0.5,0.7,1.3,0.7,2.4v5.4H926v-5.4c0-0.5-0.1-0.8-0.3-1.1s-0.5-0.3-1-0.3c-0.7,0-1.1,0.3-1.4,1l0,5.8H921
			v-5.4c0-0.5-0.1-0.8-0.3-1.1c-0.2-0.2-0.5-0.3-1-0.3c-0.6,0-1.1,0.3-1.4,0.8v6h-2.3v-8.5H918.2z"/>
		<path class="st1" d="M929.6,5963.7c0-0.8,0.2-1.6,0.5-2.2c0.3-0.7,0.8-1.2,1.4-1.5c0.6-0.4,1.3-0.5,2.1-0.5c1.1,0,2.1,0.3,2.8,1
			c0.7,0.7,1.1,1.6,1.2,2.8l0,0.6c0,1.3-0.4,2.3-1.1,3.1c-0.7,0.8-1.7,1.2-2.9,1.2s-2.2-0.4-2.9-1.2s-1.1-1.8-1.1-3.2V5963.7z
			 M931.9,5963.9c0,0.8,0.2,1.4,0.5,1.8c0.3,0.4,0.7,0.6,1.3,0.6c0.5,0,1-0.2,1.3-0.6c0.3-0.4,0.5-1.1,0.5-2c0-0.8-0.2-1.4-0.5-1.8
			c-0.3-0.4-0.7-0.6-1.3-0.6c-0.6,0-1,0.2-1.3,0.6C932,5962.3,931.9,5963,931.9,5963.9z"/>
		<path class="st1" d="M950.6,5963.9c0,1.3-0.3,2.3-0.9,3.1c-0.6,0.8-1.4,1.2-2.4,1.2c-0.9,0-1.5-0.3-2.1-0.9v4H943v-11.7h2.1
			l0.1,0.8c0.5-0.7,1.3-1,2.1-1c1,0,1.9,0.4,2.4,1.2s0.9,1.8,0.9,3.2V5963.9z M948.3,5963.7c0-0.8-0.1-1.4-0.4-1.8
			c-0.3-0.4-0.7-0.6-1.2-0.6c-0.7,0-1.2,0.3-1.5,0.8v3.5c0.3,0.6,0.8,0.8,1.5,0.8C947.8,5966.3,948.3,5965.5,948.3,5963.7z"/>
		<path class="st1" d="M951.6,5963.7c0-0.8,0.2-1.6,0.5-2.2c0.3-0.7,0.8-1.2,1.4-1.5c0.6-0.4,1.3-0.5,2.1-0.5c1.1,0,2.1,0.3,2.8,1
			c0.7,0.7,1.1,1.6,1.2,2.8l0,0.6c0,1.3-0.4,2.3-1.1,3.1c-0.7,0.8-1.7,1.2-2.9,1.2s-2.2-0.4-2.9-1.2s-1.1-1.8-1.1-3.2V5963.7z
			 M953.9,5963.9c0,0.8,0.2,1.4,0.5,1.8c0.3,0.4,0.7,0.6,1.3,0.6c0.5,0,1-0.2,1.3-0.6c0.3-0.4,0.5-1.1,0.5-2c0-0.8-0.2-1.4-0.5-1.8
			c-0.3-0.4-0.7-0.6-1.3-0.6c-0.6,0-1,0.2-1.3,0.6C954.1,5962.3,953.9,5963,953.9,5963.9z"/>
		<path class="st1" d="M965.8,5961.7c-0.3,0-0.6-0.1-0.8-0.1c-0.9,0-1.4,0.3-1.7,0.9v5.5H961v-8.5h2.1l0.1,1
			c0.5-0.8,1.1-1.2,1.9-1.2c0.2,0,0.5,0,0.7,0.1L965.8,5961.7z"/>
		<path class="st1" d="M978.5,5963.9c0,1.3-0.3,2.3-0.9,3.1c-0.6,0.8-1.4,1.2-2.4,1.2c-0.9,0-1.5-0.3-2.1-0.9v4h-2.3v-11.7h2.1
			l0.1,0.8c0.5-0.7,1.3-1,2.1-1c1,0,1.9,0.4,2.4,1.2s0.9,1.8,0.9,3.2V5963.9z M976.2,5963.7c0-0.8-0.1-1.4-0.4-1.8
			c-0.3-0.4-0.7-0.6-1.2-0.6c-0.7,0-1.2,0.3-1.5,0.8v3.5c0.3,0.6,0.8,0.8,1.5,0.8C975.7,5966.3,976.2,5965.5,976.2,5963.7z"/>
		<path class="st1" d="M983.8,5968.2c-1.2,0-2.2-0.4-3-1.1c-0.8-0.8-1.2-1.8-1.2-3v-0.2c0-0.8,0.2-1.6,0.5-2.3s0.8-1.2,1.4-1.5
			s1.3-0.5,2.1-0.5c1.2,0,2.1,0.4,2.7,1.1s1,1.8,1,3.1v0.9h-5.4c0.1,0.6,0.3,1,0.7,1.3s0.8,0.5,1.4,0.5c0.9,0,1.5-0.3,2-0.9l1.1,1.2
			c-0.3,0.5-0.8,0.9-1.4,1.1S984.5,5968.2,983.8,5968.2z M983.5,5961.2c-0.4,0-0.8,0.2-1.1,0.5c-0.3,0.3-0.5,0.7-0.5,1.3h3.1v-0.2
			c0-0.5-0.1-0.9-0.4-1.2C984.4,5961.3,984,5961.2,983.5,5961.2z"/>
		<path class="st1" d="M993.3,5961.7c-0.3,0-0.6-0.1-0.8-0.1c-0.9,0-1.4,0.3-1.7,0.9v5.5h-2.3v-8.5h2.1l0.1,1
			c0.5-0.8,1.1-1.2,1.9-1.2c0.2,0,0.5,0,0.7,0.1L993.3,5961.7z"/>
		<path class="st1" d="M994.3,5957.4c0-0.3,0.1-0.6,0.3-0.8s0.5-0.3,0.9-0.3c0.4,0,0.7,0.1,0.9,0.3c0.2,0.2,0.3,0.5,0.3,0.8
			c0,0.3-0.1,0.6-0.3,0.8c-0.2,0.2-0.5,0.3-0.9,0.3c-0.4,0-0.7-0.1-0.9-0.3C994.5,5958,994.3,5957.7,994.3,5957.4z M996.7,5968h-2.3
			v-8.5h2.3V5968z"/>
		<path class="st1" d="M998.2,5963.7c0-0.8,0.2-1.6,0.5-2.2c0.3-0.7,0.8-1.2,1.4-1.5c0.6-0.4,1.3-0.5,2.1-0.5c1.1,0,2.1,0.3,2.8,1
			c0.7,0.7,1.1,1.6,1.2,2.8l0,0.6c0,1.3-0.4,2.3-1.1,3.1c-0.7,0.8-1.7,1.2-2.9,1.2s-2.2-0.4-2.9-1.2s-1.1-1.8-1.1-3.2V5963.7z
			 M1000.5,5963.9c0,0.8,0.2,1.4,0.5,1.8c0.3,0.4,0.7,0.6,1.3,0.6c0.5,0,1-0.2,1.3-0.6c0.3-0.4,0.5-1.1,0.5-2c0-0.8-0.2-1.4-0.5-1.8
			c-0.3-0.4-0.7-0.6-1.3-0.6c-0.6,0-1,0.2-1.3,0.6C1000.7,5962.3,1000.5,5963,1000.5,5963.9z"/>
		<path class="st1" d="M1007.3,5963.7c0-1.3,0.3-2.4,0.9-3.1c0.6-0.8,1.4-1.2,2.4-1.2c0.8,0,1.5,0.3,2,0.9v-4.3h2.3v12h-2l-0.1-0.9
			c-0.6,0.7-1.3,1.1-2.2,1.1c-1,0-1.8-0.4-2.4-1.2S1007.3,5965.1,1007.3,5963.7z M1009.6,5963.9c0,0.8,0.1,1.4,0.4,1.8
			c0.3,0.4,0.7,0.6,1.2,0.6c0.7,0,1.2-0.3,1.5-0.9v-3.3c-0.3-0.6-0.8-0.9-1.5-0.9C1010.1,5961.2,1009.6,5962.1,1009.6,5963.9z"/>
		<path class="st1" d="M1016.3,5963.7c0-0.8,0.2-1.6,0.5-2.2c0.3-0.7,0.8-1.2,1.4-1.5c0.6-0.4,1.3-0.5,2.1-0.5c1.1,0,2.1,0.3,2.8,1
			c0.7,0.7,1.1,1.6,1.2,2.8l0,0.6c0,1.3-0.4,2.3-1.1,3.1c-0.7,0.8-1.7,1.2-2.9,1.2s-2.2-0.4-2.9-1.2s-1.1-1.8-1.1-3.2V5963.7z
			 M1018.6,5963.9c0,0.8,0.2,1.4,0.5,1.8c0.3,0.4,0.7,0.6,1.3,0.6c0.5,0,1-0.2,1.3-0.6c0.3-0.4,0.5-1.1,0.5-2c0-0.8-0.2-1.4-0.5-1.8
			c-0.3-0.4-0.7-0.6-1.3-0.6c-0.6,0-1,0.2-1.3,0.6C1018.7,5962.3,1018.6,5963,1018.6,5963.9z"/>
		<path class="st1" d="M1029.8,5963.4c0-1.2,0.2-2.3,0.5-3.4c0.3-1.1,0.8-2,1.4-2.9c0.6-0.8,1.3-1.4,2-1.7l0.4,1.2
			c-0.8,0.6-1.4,1.4-1.8,2.6c-0.4,1.2-0.6,2.6-0.6,4.1v0.2c0,1.6,0.2,3,0.6,4.1s1,2.1,1.8,2.6l-0.4,1.2c-0.7-0.3-1.4-0.9-2-1.7
			c-0.6-0.8-1.1-1.7-1.4-2.8c-0.3-1.1-0.5-2.2-0.5-3.3V5963.4z"/>
		<path class="st1" d="M1037.4,5959.5l0.1,0.9c0.6-0.7,1.4-1.1,2.4-1.1c1.1,0,1.8,0.4,2.2,1.3c0.6-0.9,1.4-1.3,2.5-1.3
			c0.9,0,1.6,0.3,2,0.8c0.4,0.5,0.7,1.3,0.7,2.4v5.4h-2.3v-5.4c0-0.5-0.1-0.8-0.3-1.1s-0.5-0.3-1-0.3c-0.7,0-1.1,0.3-1.4,1l0,5.8
			h-2.3v-5.4c0-0.5-0.1-0.8-0.3-1.1c-0.2-0.2-0.5-0.3-1-0.3c-0.6,0-1.1,0.3-1.4,0.8v6h-2.3v-8.5H1037.4z"/>
		<path class="st1" d="M1053.1,5968.2c-1.2,0-2.2-0.4-3-1.1c-0.8-0.8-1.2-1.8-1.2-3v-0.2c0-0.8,0.2-1.6,0.5-2.3s0.8-1.2,1.4-1.5
			s1.3-0.5,2.1-0.5c1.2,0,2.1,0.4,2.7,1.1s1,1.8,1,3.1v0.9h-5.4c0.1,0.6,0.3,1,0.7,1.3s0.8,0.5,1.4,0.5c0.9,0,1.5-0.3,2-0.9l1.1,1.2
			c-0.3,0.5-0.8,0.9-1.4,1.1S1053.8,5968.2,1053.1,5968.2z M1052.8,5961.2c-0.4,0-0.8,0.2-1.1,0.5c-0.3,0.3-0.5,0.7-0.5,1.3h3.1
			v-0.2c0-0.5-0.1-0.9-0.4-1.2C1053.6,5961.3,1053.3,5961.2,1052.8,5961.2z"/>
		<path class="st1" d="M1062.4,5965.7c0-0.3-0.1-0.5-0.4-0.7s-0.7-0.3-1.3-0.4c-2-0.4-3-1.3-3-2.6c0-0.8,0.3-1.4,0.9-1.9
			c0.6-0.5,1.4-0.8,2.4-0.8c1.1,0,1.9,0.3,2.6,0.8c0.6,0.5,1,1.2,1,2h-2.3c0-0.3-0.1-0.6-0.3-0.8c-0.2-0.2-0.5-0.3-1-0.3
			c-0.4,0-0.7,0.1-0.9,0.3c-0.2,0.2-0.3,0.4-0.3,0.7c0,0.2,0.1,0.5,0.4,0.6c0.2,0.2,0.6,0.3,1.2,0.4s1,0.2,1.4,0.4
			c1.2,0.4,1.8,1.2,1.8,2.3c0,0.8-0.3,1.4-1,1.9c-0.7,0.5-1.5,0.7-2.6,0.7c-0.7,0-1.3-0.1-1.9-0.4c-0.5-0.3-1-0.6-1.3-1
			s-0.5-0.9-0.5-1.4h2.1c0,0.4,0.2,0.7,0.4,0.9c0.3,0.2,0.6,0.3,1.1,0.3c0.4,0,0.8-0.1,1-0.2
			C1062.3,5966.1,1062.4,5965.9,1062.4,5965.7z"/>
		<path class="st1" d="M1069.9,5963.6c0,1.2-0.2,2.3-0.5,3.4c-0.3,1.1-0.8,2-1.5,2.9c-0.6,0.8-1.3,1.4-2,1.7l-0.4-1.2
			c0.7-0.6,1.3-1.4,1.8-2.6c0.4-1.2,0.6-2.5,0.7-4v-0.4c0-1.6-0.2-2.9-0.6-4.1c-0.4-1.2-1-2.1-1.8-2.7l0.4-1.2
			c0.7,0.3,1.4,0.9,2,1.7c0.6,0.8,1.1,1.7,1.5,2.8c0.3,1.1,0.5,2.2,0.5,3.3V5963.6z"/>
	</g>
	<g class="st0">
		<path class="st1" d="M839.9,5997.2c-0.1,1.2-0.5,2.2-1.4,2.9c-0.8,0.7-1.9,1.1-3.2,1.1c-1.5,0-2.6-0.5-3.4-1.5s-1.3-2.3-1.3-4
			v-0.7c0-1.1,0.2-2.1,0.6-2.9c0.4-0.8,0.9-1.5,1.7-1.9c0.7-0.4,1.5-0.7,2.5-0.7c1.3,0,2.4,0.4,3.2,1.1c0.8,0.7,1.3,1.7,1.4,3h-2.3
			c-0.1-0.7-0.3-1.3-0.6-1.6s-0.9-0.5-1.6-0.5c-0.8,0-1.4,0.3-1.8,0.8c-0.4,0.6-0.6,1.4-0.6,2.6v0.9c0,1.2,0.2,2.1,0.6,2.7
			c0.4,0.6,1,0.9,1.8,0.9c0.7,0,1.3-0.2,1.6-0.5c0.4-0.3,0.6-0.8,0.6-1.5H839.9z"/>
		<path class="st1" d="M846.2,6001c-0.1-0.2-0.2-0.5-0.2-0.8c-0.5,0.6-1.3,0.9-2.1,0.9c-0.8,0-1.5-0.2-2.1-0.7
			c-0.5-0.5-0.8-1.1-0.8-1.8c0-0.9,0.3-1.6,1-2.1s1.6-0.7,2.9-0.7h1v-0.5c0-0.4-0.1-0.7-0.3-0.9c-0.2-0.2-0.5-0.4-0.9-0.4
			c-0.4,0-0.7,0.1-0.9,0.3c-0.2,0.2-0.3,0.4-0.3,0.8h-2.3c0-0.5,0.2-0.9,0.5-1.4c0.3-0.4,0.7-0.7,1.3-1c0.6-0.2,1.2-0.4,1.9-0.4
			c1,0,1.9,0.3,2.5,0.8c0.6,0.5,0.9,1.3,0.9,2.2v3.7c0,0.8,0.1,1.4,0.3,1.8v0.1H846.2z M844.4,5999.4c0.3,0,0.6-0.1,0.9-0.2
			s0.5-0.3,0.6-0.6v-1.5h-0.8c-1.1,0-1.7,0.4-1.8,1.2l0,0.1c0,0.3,0.1,0.5,0.3,0.7C843.8,5999.3,844,5999.4,844.4,5999.4z"/>
		<path class="st1" d="M852,5992.5l0.1,1c0.6-0.8,1.4-1.1,2.4-1.1c0.9,0,1.6,0.3,2,0.8s0.7,1.3,0.7,2.4v5.5h-2.3v-5.4
			c0-0.5-0.1-0.8-0.3-1c-0.2-0.2-0.6-0.3-1-0.3c-0.6,0-1.1,0.3-1.4,0.8v6h-2.3v-8.5H852z"/>
		<path class="st1" d="M861.6,5990.5v2.1h1.4v1.7h-1.4v4.2c0,0.3,0.1,0.5,0.2,0.7c0.1,0.1,0.3,0.2,0.7,0.2c0.2,0,0.5,0,0.7-0.1v1.7
			c-0.4,0.1-0.9,0.2-1.4,0.2c-1.6,0-2.4-0.8-2.4-2.4v-4.6h-1.2v-1.7h1.2v-2.1H861.6z"/>
		<path class="st1" d="M864.3,5990.4c0-0.3,0.1-0.6,0.3-0.8s0.5-0.3,0.9-0.3c0.4,0,0.7,0.1,0.9,0.3c0.2,0.2,0.3,0.5,0.3,0.8
			c0,0.3-0.1,0.6-0.3,0.8c-0.2,0.2-0.5,0.3-0.9,0.3c-0.4,0-0.7-0.1-0.9-0.3C864.4,5991,864.3,5990.7,864.3,5990.4z M866.7,6001h-2.3
			v-8.5h2.3V6001z"/>
		<path class="st1" d="M868.2,5996.7c0-1.3,0.3-2.4,0.9-3.1c0.6-0.8,1.4-1.2,2.4-1.2c0.8,0,1.5,0.3,2,0.9v-4.3h2.3v12h-2l-0.1-0.9
			c-0.6,0.7-1.3,1.1-2.2,1.1c-1,0-1.8-0.4-2.4-1.2S868.2,5998.1,868.2,5996.7z M870.4,5996.9c0,0.8,0.1,1.4,0.4,1.8
			c0.3,0.4,0.7,0.6,1.2,0.6c0.7,0,1.2-0.3,1.5-0.9v-3.3c-0.3-0.6-0.8-0.9-1.5-0.9C871,5994.2,870.4,5995.1,870.4,5996.9z"/>
		<path class="st1" d="M882.4,6001c-0.1-0.2-0.2-0.5-0.2-0.8c-0.5,0.6-1.3,0.9-2.1,0.9c-0.8,0-1.5-0.2-2.1-0.7
			c-0.5-0.5-0.8-1.1-0.8-1.8c0-0.9,0.3-1.6,1-2.1s1.6-0.7,2.9-0.7h1v-0.5c0-0.4-0.1-0.7-0.3-0.9c-0.2-0.2-0.5-0.4-0.9-0.4
			c-0.4,0-0.7,0.1-0.9,0.3c-0.2,0.2-0.3,0.4-0.3,0.8h-2.3c0-0.5,0.2-0.9,0.5-1.4c0.3-0.4,0.7-0.7,1.3-1c0.6-0.2,1.2-0.4,1.9-0.4
			c1,0,1.9,0.3,2.5,0.8c0.6,0.5,0.9,1.3,0.9,2.2v3.7c0,0.8,0.1,1.4,0.3,1.8v0.1H882.4z M880.6,5999.4c0.3,0,0.6-0.1,0.9-0.2
			s0.5-0.3,0.6-0.6v-1.5h-0.8c-1.1,0-1.7,0.4-1.8,1.2l0,0.1c0,0.3,0.1,0.5,0.3,0.7C880,5999.3,880.2,5999.4,880.6,5999.4z"/>
		<path class="st1" d="M885.8,5996.7c0-1.3,0.3-2.4,0.9-3.1c0.6-0.8,1.4-1.2,2.4-1.2c0.8,0,1.5,0.3,2,0.9v-4.3h2.3v12h-2l-0.1-0.9
			c-0.6,0.7-1.3,1.1-2.2,1.1c-1,0-1.8-0.4-2.4-1.2S885.8,5998.1,885.8,5996.7z M888,5996.9c0,0.8,0.1,1.4,0.4,1.8
			c0.3,0.4,0.7,0.6,1.2,0.6c0.7,0,1.2-0.3,1.5-0.9v-3.3c-0.3-0.6-0.8-0.9-1.5-0.9C888.6,5994.2,888,5995.1,888,5996.9z"/>
		<path class="st1" d="M898.8,5996.7c0-1.3,0.3-2.4,0.9-3.1c0.6-0.8,1.4-1.2,2.4-1.2c0.8,0,1.5,0.3,2,0.9v-4.3h2.3v12h-2l-0.1-0.9
			c-0.6,0.7-1.3,1.1-2.2,1.1c-1,0-1.8-0.4-2.4-1.2S898.8,5998.1,898.8,5996.7z M901,5996.9c0,0.8,0.1,1.4,0.4,1.8
			c0.3,0.4,0.7,0.6,1.2,0.6c0.7,0,1.2-0.3,1.5-0.9v-3.3c-0.3-0.6-0.8-0.9-1.5-0.9C901.6,5994.2,901,5995.1,901,5996.9z"/>
		<path class="st1" d="M912,6001.2c-1.2,0-2.2-0.4-3-1.1c-0.8-0.8-1.2-1.8-1.2-3v-0.2c0-0.8,0.2-1.6,0.5-2.3s0.8-1.2,1.4-1.5
			s1.3-0.5,2.1-0.5c1.2,0,2.1,0.4,2.7,1.1s1,1.8,1,3.1v0.9h-5.4c0.1,0.6,0.3,1,0.7,1.3s0.8,0.5,1.4,0.5c0.9,0,1.5-0.3,2-0.9l1.1,1.2
			c-0.3,0.5-0.8,0.9-1.4,1.1S912.7,6001.2,912,6001.2z M911.8,5994.2c-0.4,0-0.8,0.2-1.1,0.5c-0.3,0.3-0.5,0.7-0.5,1.3h3.1v-0.2
			c0-0.5-0.1-0.9-0.4-1.2C912.6,5994.3,912.2,5994.2,911.8,5994.2z"/>
		<path class="st1" d="M928.4,5996.9c0,1.3-0.3,2.3-0.9,3.1c-0.6,0.8-1.4,1.2-2.4,1.2c-0.9,0-1.5-0.3-2.1-0.9v4h-2.3v-11.7h2.1
			l0.1,0.8c0.5-0.7,1.3-1,2.1-1c1,0,1.9,0.4,2.4,1.2s0.9,1.8,0.9,3.2V5996.9z M926.1,5996.7c0-0.8-0.1-1.4-0.4-1.8
			c-0.3-0.4-0.7-0.6-1.2-0.6c-0.7,0-1.2,0.3-1.5,0.8v3.5c0.3,0.6,0.8,0.8,1.5,0.8C925.6,5999.3,926.1,5998.5,926.1,5996.7z"/>
		<path class="st1" d="M933.7,6001.2c-1.2,0-2.2-0.4-3-1.1c-0.8-0.8-1.2-1.8-1.2-3v-0.2c0-0.8,0.2-1.6,0.5-2.3s0.8-1.2,1.4-1.5
			s1.3-0.5,2.1-0.5c1.2,0,2.1,0.4,2.7,1.1s1,1.8,1,3.1v0.9h-5.4c0.1,0.6,0.3,1,0.7,1.3s0.8,0.5,1.4,0.5c0.9,0,1.5-0.3,2-0.9l1.1,1.2
			c-0.3,0.5-0.8,0.9-1.4,1.1S934.4,6001.2,933.7,6001.2z M933.4,5994.2c-0.4,0-0.8,0.2-1.1,0.5c-0.3,0.3-0.5,0.7-0.5,1.3h3.1v-0.2
			c0-0.5-0.1-0.9-0.4-1.2C934.3,5994.3,933.9,5994.2,933.4,5994.2z"/>
		<path class="st1" d="M943.2,5994.7c-0.3,0-0.6-0.1-0.8-0.1c-0.9,0-1.4,0.3-1.7,0.9v5.5h-2.3v-8.5h2.1l0.1,1
			c0.5-0.8,1.1-1.2,1.9-1.2c0.2,0,0.5,0,0.7,0.1L943.2,5994.7z"/>
		<path class="st1" d="M944.2,5990.4c0-0.3,0.1-0.6,0.3-0.8s0.5-0.3,0.9-0.3c0.4,0,0.7,0.1,0.9,0.3c0.2,0.2,0.3,0.5,0.3,0.8
			c0,0.3-0.1,0.6-0.3,0.8c-0.2,0.2-0.5,0.3-0.9,0.3c-0.4,0-0.7-0.1-0.9-0.3C944.4,5991,944.2,5990.7,944.2,5990.4z M946.6,6001h-2.3
			v-8.5h2.3V6001z"/>
		<path class="st1" d="M948.1,5996.7c0-0.8,0.2-1.6,0.5-2.2c0.3-0.7,0.8-1.2,1.4-1.5c0.6-0.4,1.3-0.5,2.1-0.5c1.1,0,2.1,0.3,2.8,1
			c0.7,0.7,1.1,1.6,1.2,2.8l0,0.6c0,1.3-0.4,2.3-1.1,3.1c-0.7,0.8-1.7,1.2-2.9,1.2s-2.2-0.4-2.9-1.2s-1.1-1.8-1.1-3.2V5996.7z
			 M950.4,5996.9c0,0.8,0.2,1.4,0.5,1.8c0.3,0.4,0.7,0.6,1.3,0.6c0.5,0,1-0.2,1.3-0.6c0.3-0.4,0.5-1.1,0.5-2c0-0.8-0.2-1.4-0.5-1.8
			c-0.3-0.4-0.7-0.6-1.3-0.6c-0.6,0-1,0.2-1.3,0.6C950.6,5995.3,950.4,5996,950.4,5996.9z"/>
		<path class="st1" d="M957.2,5996.7c0-1.3,0.3-2.4,0.9-3.1c0.6-0.8,1.4-1.2,2.4-1.2c0.8,0,1.5,0.3,2,0.9v-4.3h2.3v12h-2l-0.1-0.9
			c-0.6,0.7-1.3,1.1-2.2,1.1c-1,0-1.8-0.4-2.4-1.2S957.2,5998.1,957.2,5996.7z M959.5,5996.9c0,0.8,0.1,1.4,0.4,1.8
			c0.3,0.4,0.7,0.6,1.2,0.6c0.7,0,1.2-0.3,1.5-0.9v-3.3c-0.3-0.6-0.8-0.9-1.5-0.9C960,5994.2,959.5,5995.1,959.5,5996.9z"/>
		<path class="st1" d="M966.2,5996.7c0-0.8,0.2-1.6,0.5-2.2c0.3-0.7,0.8-1.2,1.4-1.5c0.6-0.4,1.3-0.5,2.1-0.5c1.1,0,2.1,0.3,2.8,1
			c0.7,0.7,1.1,1.6,1.2,2.8l0,0.6c0,1.3-0.4,2.3-1.1,3.1c-0.7,0.8-1.7,1.2-2.9,1.2s-2.2-0.4-2.9-1.2s-1.1-1.8-1.1-3.2V5996.7z
			 M968.5,5996.9c0,0.8,0.2,1.4,0.5,1.8c0.3,0.4,0.7,0.6,1.3,0.6c0.5,0,1-0.2,1.3-0.6c0.3-0.4,0.5-1.1,0.5-2c0-0.8-0.2-1.4-0.5-1.8
			c-0.3-0.4-0.7-0.6-1.3-0.6c-0.6,0-1,0.2-1.3,0.6C968.6,5995.3,968.5,5996,968.5,5996.9z"/>
		<path class="st1" d="M980.2,5998.7c0-0.3-0.1-0.5-0.4-0.7s-0.7-0.3-1.3-0.4c-2-0.4-3-1.3-3-2.6c0-0.8,0.3-1.4,0.9-1.9
			c0.6-0.5,1.4-0.8,2.4-0.8c1.1,0,1.9,0.3,2.6,0.8c0.6,0.5,1,1.2,1,2h-2.3c0-0.3-0.1-0.6-0.3-0.8c-0.2-0.2-0.5-0.3-1-0.3
			c-0.4,0-0.7,0.1-0.9,0.3c-0.2,0.2-0.3,0.4-0.3,0.7c0,0.2,0.1,0.5,0.4,0.6c0.2,0.2,0.6,0.3,1.2,0.4s1,0.2,1.4,0.4
			c1.2,0.4,1.8,1.2,1.8,2.3c0,0.8-0.3,1.4-1,1.9c-0.7,0.5-1.5,0.7-2.6,0.7c-0.7,0-1.3-0.1-1.9-0.4c-0.5-0.3-1-0.6-1.3-1
			s-0.5-0.9-0.5-1.4h2.1c0,0.4,0.2,0.7,0.4,0.9c0.3,0.2,0.6,0.3,1.1,0.3c0.4,0,0.8-0.1,1-0.2
			C980.1,5999.1,980.2,5998.9,980.2,5998.7z"/>
		<path class="st1" d="M987.9,5996.4c0-1.2,0.2-2.3,0.5-3.4c0.3-1.1,0.8-2,1.4-2.9c0.6-0.8,1.3-1.4,2-1.7l0.4,1.2
			c-0.8,0.6-1.4,1.4-1.8,2.6c-0.4,1.2-0.6,2.6-0.6,4.1v0.2c0,1.6,0.2,3,0.6,4.1s1,2.1,1.8,2.6l-0.4,1.2c-0.7-0.3-1.4-0.9-2-1.7
			c-0.6-0.8-1.1-1.7-1.4-2.8c-0.3-1.1-0.5-2.2-0.5-3.3V5996.4z"/>
		<path class="st1" d="M995.6,5992.5l0.1,0.9c0.6-0.7,1.4-1.1,2.4-1.1c1.1,0,1.8,0.4,2.2,1.3c0.6-0.9,1.4-1.3,2.5-1.3
			c0.9,0,1.6,0.3,2,0.8c0.4,0.5,0.7,1.3,0.7,2.4v5.4h-2.3v-5.4c0-0.5-0.1-0.8-0.3-1.1s-0.5-0.3-1-0.3c-0.7,0-1.1,0.3-1.4,1l0,5.8
			h-2.3v-5.4c0-0.5-0.1-0.8-0.3-1.1c-0.2-0.2-0.5-0.3-1-0.3c-0.6,0-1.1,0.3-1.4,0.8v6h-2.3v-8.5H995.6z"/>
		<path class="st1" d="M1011.2,6001.2c-1.2,0-2.2-0.4-3-1.1c-0.8-0.8-1.2-1.8-1.2-3v-0.2c0-0.8,0.2-1.6,0.5-2.3s0.8-1.2,1.4-1.5
			s1.3-0.5,2.1-0.5c1.2,0,2.1,0.4,2.7,1.1s1,1.8,1,3.1v0.9h-5.4c0.1,0.6,0.3,1,0.7,1.3s0.8,0.5,1.4,0.5c0.9,0,1.5-0.3,2-0.9l1.1,1.2
			c-0.3,0.5-0.8,0.9-1.4,1.1S1011.9,6001.2,1011.2,6001.2z M1010.9,5994.2c-0.4,0-0.8,0.2-1.1,0.5c-0.3,0.3-0.5,0.7-0.5,1.3h3.1
			v-0.2c0-0.5-0.1-0.9-0.4-1.2C1011.8,5994.3,1011.4,5994.2,1010.9,5994.2z"/>
		<path class="st1" d="M1020.5,5998.7c0-0.3-0.1-0.5-0.4-0.7s-0.7-0.3-1.3-0.4c-2-0.4-3-1.3-3-2.6c0-0.8,0.3-1.4,0.9-1.9
			c0.6-0.5,1.4-0.8,2.4-0.8c1.1,0,1.9,0.3,2.6,0.8c0.6,0.5,1,1.2,1,2h-2.3c0-0.3-0.1-0.6-0.3-0.8c-0.2-0.2-0.5-0.3-1-0.3
			c-0.4,0-0.7,0.1-0.9,0.3c-0.2,0.2-0.3,0.4-0.3,0.7c0,0.2,0.1,0.5,0.4,0.6c0.2,0.2,0.6,0.3,1.2,0.4s1,0.2,1.4,0.4
			c1.2,0.4,1.8,1.2,1.8,2.3c0,0.8-0.3,1.4-1,1.9c-0.7,0.5-1.5,0.7-2.6,0.7c-0.7,0-1.3-0.1-1.9-0.4c-0.5-0.3-1-0.6-1.3-1
			s-0.5-0.9-0.5-1.4h2.1c0,0.4,0.2,0.7,0.4,0.9c0.3,0.2,0.6,0.3,1.1,0.3c0.4,0,0.8-0.1,1-0.2
			C1020.4,5999.1,1020.5,5998.9,1020.5,5998.7z"/>
		<path class="st1" d="M1028.1,6001.2c-1.2,0-2.2-0.4-3-1.1c-0.8-0.8-1.2-1.8-1.2-3v-0.2c0-0.8,0.2-1.6,0.5-2.3s0.8-1.2,1.4-1.5
			s1.3-0.5,2.1-0.5c1.2,0,2.1,0.4,2.7,1.1s1,1.8,1,3.1v0.9h-5.4c0.1,0.6,0.3,1,0.7,1.3s0.8,0.5,1.4,0.5c0.9,0,1.5-0.3,2-0.9l1.1,1.2
			c-0.3,0.5-0.8,0.9-1.4,1.1S1028.8,6001.2,1028.1,6001.2z M1027.8,5994.2c-0.4,0-0.8,0.2-1.1,0.5c-0.3,0.3-0.5,0.7-0.5,1.3h3.1
			v-0.2c0-0.5-0.1-0.9-0.4-1.2C1028.6,5994.3,1028.3,5994.2,1027.8,5994.2z"/>
		<path class="st1" d="M1037.4,5998.7c0-0.3-0.1-0.5-0.4-0.7s-0.7-0.3-1.3-0.4c-2-0.4-3-1.3-3-2.6c0-0.8,0.3-1.4,0.9-1.9
			c0.6-0.5,1.4-0.8,2.4-0.8c1.1,0,1.9,0.3,2.6,0.8c0.6,0.5,1,1.2,1,2h-2.3c0-0.3-0.1-0.6-0.3-0.8c-0.2-0.2-0.5-0.3-1-0.3
			c-0.4,0-0.7,0.1-0.9,0.3c-0.2,0.2-0.3,0.4-0.3,0.7c0,0.2,0.1,0.5,0.4,0.6c0.2,0.2,0.6,0.3,1.2,0.4s1,0.2,1.4,0.4
			c1.2,0.4,1.8,1.2,1.8,2.3c0,0.8-0.3,1.4-1,1.9c-0.7,0.5-1.5,0.7-2.6,0.7c-0.7,0-1.3-0.1-1.9-0.4c-0.5-0.3-1-0.6-1.3-1
			s-0.5-0.9-0.5-1.4h2.1c0,0.4,0.2,0.7,0.4,0.9c0.3,0.2,0.6,0.3,1.1,0.3c0.4,0,0.8-0.1,1-0.2
			C1037.3,5999.1,1037.4,5998.9,1037.4,5998.7z"/>
		<path class="st1" d="M1044.9,5996.6c0,1.2-0.2,2.3-0.5,3.4c-0.3,1.1-0.8,2-1.5,2.9c-0.6,0.8-1.3,1.4-2,1.7l-0.4-1.2
			c0.7-0.6,1.3-1.4,1.8-2.6c0.4-1.2,0.6-2.5,0.7-4v-0.4c0-1.6-0.2-2.9-0.6-4.1c-0.4-1.2-1-2.1-1.8-2.7l0.4-1.2
			c0.7,0.3,1.4,0.9,2,1.7c0.6,0.8,1.1,1.7,1.5,2.8c0.3,1.1,0.5,2.2,0.5,3.3V5996.6z"/>
	</g>
	<line class="st2" x1="790.5" y1="5977" x2="1076.5" y2="5977"/>
</g>
</svg>
