<svg xmlns="http://www.w3.org/2000/svg" xmlns:xlink="http://www.w3.org/1999/xlink" width="389" height="427" viewBox="0 0 389 427"><defs><linearGradient id="a" x1="-0.069" y1="0.5" x2="1.038" y2="0.5" gradientUnits="objectBoundingBox"><stop offset="0" stop-color="#b5bbcb"/><stop offset="0.227" stop-color="#eceff5"/><stop offset="0.54" stop-color="#9da7b3"/><stop offset="0.655" stop-color="#a0a9b5"/><stop offset="0.754" stop-color="#abb2bc"/><stop offset="0.848" stop-color="#bcc1c9"/><stop offset="0.869" stop-color="#c2c6cd"/><stop offset="1" stop-color="#b9bdcb"/></linearGradient><linearGradient id="b" x1="0.045" y1="0.5" x2="0.95" y2="0.5" xlink:href="#a"/><linearGradient id="c" x1="-0.016" y1="0.499" x2="0.948" y2="0.499" gradientUnits="objectBoundingBox"><stop offset="0" stop-color="#ffbb96"/><stop offset="0.227" stop-color="#fffbc9"/><stop offset="0.54" stop-color="#f9b673"/><stop offset="0.639" stop-color="#f9b876"/><stop offset="0.725" stop-color="#fabe81"/><stop offset="0.806" stop-color="#fcc892"/><stop offset="0.859" stop-color="#fed2a3"/><stop offset="0.97" stop-color="#ffc28c"/></linearGradient><linearGradient id="d" x1="-0.02" y1="0.499" x2="0.91" y2="0.499" xlink:href="#c"/><linearGradient id="e" x1="5656018" y1="0.499" x2="5656019.5" y2="0.499" xlink:href="#c"/><linearGradient id="f" x1="5672136" y1="0.499" x2="5672137" y2="0.499" xlink:href="#c"/><linearGradient id="g" x1="5851047" y1="0.497" x2="5851048.5" y2="0.497" xlink:href="#c"/><linearGradient id="h" x1="5689860.5" y1="0.497" x2="5689861.5" y2="0.497" xlink:href="#c"/><linearGradient id="i" x1="5691467" y1="0.495" x2="5691468.5" y2="0.495" xlink:href="#c"/><linearGradient id="j" x1="5707585" y1="0.495" x2="5707586" y2="0.495" xlink:href="#c"/><linearGradient id="k" x1="5709191.5" y1="0.496" x2="5709193" y2="0.496" xlink:href="#c"/><linearGradient id="l" x1="2906695.5" y1="0.496" x2="2906696" y2="0.496" xlink:href="#c"/><linearGradient id="m" x1="2881033.25" y1="0.508" x2="2881034" y2="0.508" xlink:href="#c"/><linearGradient id="n" x1="5690879.5" y1="0.508" x2="5690881" y2="0.508" xlink:href="#c"/><linearGradient id="o" x1="5692486" y1="0.492" x2="5692487.5" y2="0.492" xlink:href="#c"/><linearGradient id="p" x1="5708604" y1="0.492" x2="5708605.5" y2="0.492" xlink:href="#c"/><linearGradient id="q" x1="5710210.5" y1="0.505" x2="5710212" y2="0.505" xlink:href="#c"/><linearGradient id="r" x1="5905276" y1="0.505" x2="5905277.5" y2="0.505" xlink:href="#c"/><linearGradient id="s" x1="5727935" y1="0.504" x2="5727936.5" y2="0.504" xlink:href="#c"/><linearGradient id="t" x1="5744053" y1="0.504" x2="5744054.5" y2="0.504" xlink:href="#c"/></defs><g transform="translate(-1031.243 -1105)"><rect width="389" height="427" transform="translate(1031.243 1105)" fill="none"/><g transform="translate(142.087 -209.35)"><g transform="translate(959.243 1315)"><g transform="translate(0 357.127)"><path d="M339.264,331.1c1.161,3.186-8.925,8.925-18.374,13.125-8.467,3.765-11.01,2.671-12.171-.512s4.954-8.341,13.658-11.516S338.1,327.918,339.264,331.1Z" transform="translate(-307.998 -324.018)" fill="#92b4d1" opacity="0.2"/><path d="M332.033,332.459a5.732,5.732,0,0,0-8.425-5.057c-.118.038-9.5,5.481-9.517,5.493-.727.428.46.439.46,1.722a9.024,9.024,0,0,0,4.093,7.06c1.123.649.651,1.588,1.39,1.174.023-.013,9.225-5.46,9.311-5.538A5.72,5.72,0,0,0,332.033,332.459Z" transform="translate(-302.191 -326.73)" fill="#eb4680"/><path d="M322.889,330.146a2.914,2.914,0,0,0-2.858-.315c-.021.01-9.429,5.554-9.4,5.647a5.731,5.731,0,0,0,5.932,9.754c.061-.01,9.25-5.411,9.273-5.426a2.877,2.877,0,0,0,1.147-2.6A9.018,9.018,0,0,0,322.889,330.146Z" transform="translate(-308.301 -323.592)" fill="#ffde17"/></g><g transform="translate(38.175 345.248)"><path d="M356.061,340.8c-1.8,3.049-9.2,2.016-16.526-2.31s-11.812-10.3-10.013-13.351,9.2-2.014,16.526,2.31S357.861,337.75,356.061,340.8Z" transform="translate(-323.571 -318.528)" fill="#92b4d1" opacity="0.2"/><path d="M326.48,326.8a5.729,5.729,0,0,1,8.425-5.057c.12.038,9.5,5.481,9.5,5.481.748.439-.439.449-.439,1.732a9.024,9.024,0,0,1-4.093,7.062c-1.123.649-.651,1.588-1.39,1.174-.023-.013-9.225-5.46-9.313-5.538A5.728,5.728,0,0,1,326.48,326.8Z" transform="translate(-326.48 -321.073)" fill="#ffde17"/><path d="M335.89,324.49a2.92,2.92,0,0,1,2.858-.317c.019.013,9.429,5.556,9.4,5.649a5.731,5.731,0,0,1-5.93,9.754c-.063-.013-9.252-5.414-9.273-5.426a2.878,2.878,0,0,1-1.149-2.6A9.017,9.017,0,0,1,335.89,324.49Z" transform="translate(-320.634 -317.934)" fill="#eb4680"/></g><g transform="translate(91.992 103.275)"><path d="M465.089,381.721a10.416,10.416,0,0,0,5.2-1.254l48.1-24.922a5.5,5.5,0,0,0,2.984-4.754c0-2.11-1.308-4.078-3.593-5.4L414.713,286.68a12.819,12.819,0,0,0-6.317-1.606,10.41,10.41,0,0,0-5.2,1.256l-48.1,24.92A5.507,5.507,0,0,0,352.108,316c0,2.11,1.31,4.078,3.593,5.4l103.071,58.716A12.806,12.806,0,0,0,465.089,381.721Z" transform="translate(-352.108 -118.696)" fill="#92b4d1" opacity="0.2"/><path d="M357.467,220.948l18.8-6.5,7.046-8.6,9.14,178.687-36.117-36.4Z" transform="translate(-347.455 -205.844)" fill="#2672ab"/><path d="M484.066,445.608,378.277,384.531l-9.14-178.687,105.789,61.077Z" transform="translate(-333.377 -205.844)" fill="#72b5e8"/><path d="M405.055,307.766l.576,48.468,38.906-22.749Z" transform="translate(-293.87 -93.736)" fill="#72b5e8"/><path d="M409.326,250.033l8.72-10.9,17.128-4.2,9.14,178.687-39.036-25.034Z" transform="translate(-293.625 -173.852)" fill="#2672ab"/><path d="M460.741,460.43,354.952,399.353l3.94-186.317,105.789,61.077Z" transform="translate(-348.98 -197.933)" fill="#3f92d1"/><path d="M379.533,238.687c0,2.434-1.72,3.412-3.839,2.188a8.455,8.455,0,0,1-3.839-6.621c0-2.432,1.718-3.412,3.839-2.188A8.46,8.46,0,0,1,379.533,238.687Z" transform="translate(-330.387 -177.581)" fill="#72b5e8"/><path d="M397.811,249.068c0,2.434-1.72,3.412-3.839,2.188a8.455,8.455,0,0,1-3.839-6.621c0-2.432,1.718-3.412,3.839-2.188A8.46,8.46,0,0,1,397.811,249.068Z" transform="translate(-310.282 -166.163)" fill="#72b5e8"/><path d="M377.446,239.342a8.458,8.458,0,0,1-3.839-6.621,3.836,3.836,0,0,1,.183-1.168c-1.151.1-1.934,1.052-1.934,2.686a8.458,8.458,0,0,0,3.839,6.621c1.73,1,3.177.51,3.656-1.021A3.255,3.255,0,0,1,377.446,239.342Z" transform="translate(-330.387 -177.566)" fill="#2672ab"/><path d="M395.724,249.723a8.455,8.455,0,0,1-3.839-6.621,3.838,3.838,0,0,1,.183-1.168c-1.151.1-1.934,1.052-1.934,2.686a8.455,8.455,0,0,0,3.839,6.621c1.73,1,3.177.512,3.656-1.021A3.255,3.255,0,0,1,395.724,249.723Z" transform="translate(-310.282 -166.147)" fill="#2672ab"/><path d="M387.137,227.433c0,2.434-1.72,3.415-3.839,2.19A8.458,8.458,0,0,1,379.46,223c0-2.432,1.718-3.412,3.839-2.188A8.464,8.464,0,0,1,387.137,227.433Z" transform="translate(-322.023 -189.96)" fill="#fff"/><path d="M405.415,237.814c0,2.434-1.72,3.414-3.839,2.19a8.458,8.458,0,0,1-3.839-6.621c0-2.434,1.718-3.414,3.839-2.19A8.464,8.464,0,0,1,405.415,237.814Z" transform="translate(-301.918 -178.541)" fill="#fff"/><path d="M385.051,228.09a8.458,8.458,0,0,1-3.839-6.623,3.849,3.849,0,0,1,.181-1.168c-1.149.1-1.934,1.054-1.934,2.686a8.461,8.461,0,0,0,3.841,6.623c1.73,1,3.177.51,3.656-1.021A3.288,3.288,0,0,1,385.051,228.09Z" transform="translate(-322.024 -189.944)" fill="#2672ab"/><path d="M403.329,238.471a8.458,8.458,0,0,1-3.839-6.621,3.852,3.852,0,0,1,.183-1.17c-1.151.1-1.936,1.054-1.936,2.688a8.46,8.46,0,0,0,3.841,6.621c1.73,1,3.177.51,3.656-1.021A3.288,3.288,0,0,1,403.329,238.471Z" transform="translate(-301.919 -178.526)" fill="#2672ab"/><g transform="translate(59.42 33.08)"><path d="M380.4,230.994v-7.53a1.868,1.868,0,0,1,3.736,0v9.645Z" transform="translate(-380.404 -221.597)" fill="#d1ebff"/><path d="M398.5,241.314v-7.671a1.868,1.868,0,1,1,3.736,0v9.786Z" transform="translate(-360.504 -210.403)" fill="#d1ebff"/></g><path d="M431.763,292.695c-12.005-6.812-23.744-17.768-33.582-31.339l-.132-.078c-9.838,2.213-21.577-.384-33.582-7.438l-.46-.269.649,8.643c2.278,30.388,14.139,55.333,33.227,84.869l.464.269c19.088-7.493,30.949-18.744,33.227-46.5l.649-7.9Zm-10.2,8.169c-1.6,19.456-9.91,27.343-23.29,32.6l-.326-.187c-13.381-20.7-21.694-38.189-23.29-59.489l-.456-6.058.323.187c8.414,4.945,16.642,6.766,23.538,5.214l.095.055c6.9,9.513,15.124,17.192,23.538,21.967l.321.183Z" transform="translate(-339.02 -153.347)" fill="#72b5e8"/><path d="M392.383,305.881V294.6l9.834,5.678c.641.37,1.159.073,1.159-.661v-7.585a2.552,2.552,0,0,0-1.159-2l-9.834-5.678V273.067a2.549,2.549,0,0,0-1.159-2l-6.609-3.818c-.64-.37-1.159-.073-1.159.661V279.2l-9.275-5.355c-.64-.37-1.159-.076-1.159.659v7.585a2.552,2.552,0,0,0,1.159,2l9.275,5.355v11.285a2.552,2.552,0,0,0,1.159,2l6.609,3.818C391.865,306.912,392.383,306.616,392.383,305.881Z" transform="translate(-329.104 -138.474)" fill="#d1ebff"/><path d="M398.318,300.111a16.444,16.444,0,0,1-9-2.715,35.527,35.527,0,0,1-16.186-29.861V237.388a1.869,1.869,0,0,1,3.738,0v30.147a31.791,31.791,0,0,0,14.487,26.728,12.787,12.787,0,0,0,19.769-10.714V258.761a1.868,1.868,0,1,1,3.736,0v24.788a16.3,16.3,0,0,1-8.648,14.527A16.539,16.539,0,0,1,398.318,300.111Z" transform="translate(-328.982 -173.203)" fill="#084c94" opacity="0.5"/><path d="M397.982,297.44a16.445,16.445,0,0,1-9-2.715A35.522,35.522,0,0,1,372.8,264.866V234.719a1.868,1.868,0,1,1,3.736,0v30.147a31.791,31.791,0,0,0,14.49,26.728,12.787,12.787,0,0,0,19.767-10.716V256.092a1.869,1.869,0,0,1,3.738,0v24.786a16.3,16.3,0,0,1-8.65,14.527A16.516,16.516,0,0,1,397.982,297.44Z" transform="translate(-329.348 -176.139)" fill="#d1ebff"/></g><g transform="translate(55.131 236.525)"><ellipse cx="33.249" cy="15.329" rx="33.249" ry="15.329" transform="translate(0.984 81.783)" fill="#92b4d1" opacity="0.2"/><path d="M390.879,283h-55.82V348.7h.008c0,.076-.008.149-.008.225,0,8.975,12.495,16.253,27.91,16.253s27.91-7.278,27.91-16.253c0-.076-.008-.149-.01-.225h.01Z" transform="translate(-334 -254.224)" fill="#72b5e8"/><g transform="translate(1.059 37.818)"><path d="M362.969,305.87c-15.416,0-27.91-7.278-27.91-16.253V326h.008c0,.076-.008.149-.008.225,0,8.977,12.495,16.253,27.91,16.253s27.91-7.276,27.91-16.253c0-.076-.008-.149-.01-.225h.01V289.617C390.879,298.592,378.383,305.87,362.969,305.87Z" transform="translate(-335.059 -284.768)" fill="#f0f8ff"/><path d="M335.059,287.308v.223c0-.073.006-.149.008-.223Z" transform="translate(-335.059 -287.308)" fill="url(#a)"/><path d="M361.646,287.531v-.223h-.01C361.638,287.381,361.646,287.457,361.646,287.531Z" transform="translate(-305.826 -287.308)" fill="url(#b)"/></g><g transform="translate(0 25.693)" style="mix-blend-mode:multiply;isolation:isolate"><path d="M334.555,281.534v.233c0-.078.008-.155.011-.233Z" transform="translate(-334.555 -281.534)" fill="url(#c)"/><path d="M362.969,296.64c-13.343,0-24.546-5.26-27.91-12.406v1.8c3.364,7.148,14.567,12.406,27.91,12.406s24.546-5.258,27.91-12.406v-1.8C387.515,291.38,376.31,296.64,362.969,296.64Z" transform="translate(-334.001 -278.564)" fill="#a8cff0"/><path d="M362.15,281.767v-.233h-.01C362.142,281.612,362.15,281.689,362.15,281.767Z" transform="translate(-304.213 -281.534)" fill="url(#d)"/></g><path d="M392.492,277.717H334.555v9.1h.011c0,.078-.011.153-.011.231,0,9.317,12.969,16.871,28.969,16.871s28.969-7.553,28.969-16.871c0-.078-.008-.153-.01-.231h.01Z" transform="translate(-334.555 -260.039)" fill="#ffd70f"/><g transform="translate(1.449 16.846)" opacity="0.5" style="mix-blend-mode:multiply;isolation:isolate"><path d="M352.575,301.117c.275-.05.54-.118.813-.172V279.523h-.813Z" transform="translate(-316.183 -274.899)" fill="#ffd70f"/><path d="M354.308,300.258c.271-.076.546-.147.813-.227V279.523h-.813Z" transform="translate(-314.277 -274.899)" fill="#ffd70f"/><path d="M356.041,299.065c.279-.109.54-.235.813-.349V279.523h-.813Z" transform="translate(-312.371 -274.899)" fill="#ffd70f"/><path d="M350.842,301.642c.271-.029.544-.052.813-.086V279.523h-.813Z" transform="translate(-318.089 -274.899)" fill="#ffd70f"/><path d="M359.507,295.437c.277-.223.554-.443.813-.672V279.083h-.813Z" transform="translate(-308.558 -275.383)" fill="#ffd70f"/><path d="M361.24,293.448a12.241,12.241,0,0,0,.813-1.436V277.321h-.813Z" transform="translate(-306.652 -277.321)" fill="#ffd70f"/><path d="M357.774,297.356c.271-.147.552-.288.813-.443v-17.39h-.813Z" transform="translate(-310.465 -274.899)" fill="#ffd70f"/><path d="M349.109,301.883c.271-.008.544-.01.813-.023V279.523h-.813Z" transform="translate(-319.996 -274.899)" fill="#ffd70f"/><path d="M347.376,301.871c.269.01.542.017.813.023V279.523h-.813Z" transform="translate(-321.902 -274.899)" fill="#ffd70f"/><path d="M343.91,301.022c.273.053.538.116.813.166V279.523h-.813Z" transform="translate(-325.714 -274.899)" fill="#ffd70f"/><path d="M345.643,301.6c.267.032.544.046.813.071v-22.15h-.813Z" transform="translate(-323.808 -274.899)" fill="#ffd70f"/><path d="M342.177,300.132q.4.116.813.227V279.523h-.813Z" transform="translate(-327.62 -274.899)" fill="#ffd70f"/><path d="M335.245,292.734a13.249,13.249,0,0,0,.813,1.291v-16.7h-.813Z" transform="translate(-335.245 -277.321)" fill="#ffd70f"/><path d="M336.978,295.087c.256.218.54.424.813.632V279.083h-.813Z" transform="translate(-333.339 -275.383)" fill="#ffd70f"/><path d="M340.444,298.874c.269.109.538.216.813.319v-19.67h-.813Z" transform="translate(-329.526 -274.899)" fill="#ffd70f"/><path d="M338.711,297.118c.263.149.542.288.813.43V279.523h-.813Z" transform="translate(-331.433 -274.899)" fill="#ffd70f"/></g><ellipse cx="28.968" cy="16.869" rx="28.968" ry="16.869" fill="#ffde17"/><path d="M363.524,293.679c-15.659,0-28.383-7.241-28.918-16.283-.01.2-.05.388-.05.586,0,9.317,12.969,16.871,28.969,16.871s28.969-7.554,28.969-16.871c0-.2-.04-.388-.052-.586C391.9,286.438,379.181,293.679,363.524,293.679Z" transform="translate(-334.555 -260.392)" fill="#ffe585" style="mix-blend-mode:screen;isolation:isolate"/><path d="M373.324,311.442a45.691,45.691,0,0,1-10.355,1.168c-15.416,0-27.91-7.276-27.91-16.251v1.586h.008c0,.076-.008.149-.008.225,0,8.977,12.495,16.253,27.91,16.253a45.812,45.812,0,0,0,10.355-1.168Z" transform="translate(-334 -239.535)" fill="#3f92d1"/><path d="M373.324,308.817a45.691,45.691,0,0,1-10.355,1.168c-15.416,0-27.91-7.276-27.91-16.251v1.586h.008c0,.076-.008.149-.008.225,0,8.977,12.495,16.253,27.91,16.253a45.812,45.812,0,0,0,10.355-1.168Z" transform="translate(-334 -242.423)" fill="#3f92d1"/></g><g transform="translate(51.694 347.845)"><path d="M369.967,390.573l-35.094-20.26c-2.9-1.672-2.533-4.591.811-6.522l68.378-39.867c3.343-1.93,8.4-2.14,11.3-.468l35.094,20.26c2.894,1.672,2.53,4.593-.813,6.522L381.263,390.1C377.92,392.037,372.863,392.245,369.967,390.573Z" transform="translate(-332.918 -322.291)" fill="#92b4d1" opacity="0.2"/><path d="M369.713,389.743l-34.573-19.962c-2.852-1.646-2.495-4.523.8-6.426l67.677-39.472c3.295-1.9,8.276-2.108,11.13-.462l34.573,19.96c2.852,1.648,2.495,4.523-.8,6.426l-67.677,39.475C377.548,391.184,372.564,391.39,369.713,389.743Z" transform="translate(-332.592 -322.31)" fill="#a8cff0"/><g transform="translate(33.672 15.908)"><g transform="translate(56.226)"><g transform="translate(0.002 7.56)" style="mix-blend-mode:multiply;isolation:isolate"><path d="M383.847,333.485v.071l0-.071Z" transform="translate(-366.802 -333.485)" fill="url(#e)"/><path d="M375.729,333.556v-.071h0Z" transform="translate(-375.729 -333.485)" fill="url(#f)"/></g><path d="M375.728,332.362h17.045v2.68h0l0,.069c0,2.74-3.816,4.962-8.524,4.962s-8.522-2.222-8.522-4.962l0-.069,0,.542Z" transform="translate(-375.728 -327.16)" fill="#d1ebff"/><path d="M392.767,334.837c0,2.736-3.816,4.954-8.519,4.954s-8.517-2.218-8.517-4.954,3.813-4.952,8.517-4.952S392.767,332.1,392.767,334.837Z" transform="translate(-375.726 -329.885)" fill="#fff"/></g><g transform="translate(37.484 10.955)"><g transform="translate(0.002 7.56)" style="mix-blend-mode:multiply;isolation:isolate"><path d="M374.922,338.7v.074l0-.074Z" transform="translate(-357.877 -338.702)" fill="url(#g)"/><path d="M366.8,338.775V338.7h0Z" transform="translate(-366.804 -338.702)" fill="url(#h)"/></g><path d="M366.8,337.579h17.045v2.682h0l0,.067c0,2.742-3.816,4.964-8.524,4.964s-8.521-2.222-8.521-4.964l0-.067,0,.54Z" transform="translate(-366.803 -332.377)" fill="#d1ebff"/><path d="M383.842,340.056c0,2.734-3.816,4.952-8.519,4.952s-8.517-2.218-8.517-4.952,3.813-4.954,8.517-4.954S383.842,337.319,383.842,340.056Z" transform="translate(-366.801 -335.102)" fill="#fff"/></g><g transform="translate(18.742 21.913)"><g transform="translate(0.002 7.56)" style="mix-blend-mode:multiply;isolation:isolate"><path d="M366,343.92v.071l0-.071Z" transform="translate(-348.952 -343.92)" fill="url(#i)"/><path d="M357.879,343.991v-.071h0Z" transform="translate(-357.879 -343.92)" fill="url(#j)"/></g><path d="M357.878,342.8h17.045v2.68h0l0,.069c0,2.74-3.816,4.962-8.524,4.962s-8.522-2.222-8.522-4.962l0-.069,0,.542Z" transform="translate(-357.878 -337.595)" fill="#d1ebff"/><path d="M374.917,345.272c0,2.736-3.813,4.952-8.519,4.952s-8.517-2.215-8.517-4.952,3.813-4.952,8.517-4.952S374.917,342.538,374.917,345.272Z" transform="translate(-357.876 -340.32)" fill="#fff"/></g><g transform="translate(0 32.868)"><g transform="translate(0.002 7.56)" style="mix-blend-mode:multiply;isolation:isolate"><path d="M357.072,349.137v.073l0-.073Z" transform="translate(-340.027 -349.137)" fill="url(#k)"/><path d="M348.954,349.21v-.073h0Z" transform="translate(-348.954 -349.137)" fill="url(#l)"/></g><path d="M348.953,348.014H366V350.7h0l0,.067c0,2.743-3.816,4.964-8.524,4.964s-8.522-2.222-8.522-4.964l0-.067,0,.54Z" transform="translate(-348.953 -342.812)" fill="#d1ebff"/><path d="M365.992,350.491c0,2.734-3.813,4.952-8.519,4.952s-8.517-2.218-8.517-4.952,3.813-4.954,8.517-4.954S365.992,347.754,365.992,350.491Z" transform="translate(-348.951 -345.537)" fill="#fff"/></g></g><g transform="translate(13.851 4.317)"><g transform="translate(56.226)"><g transform="translate(0.004 7.559)" style="mix-blend-mode:multiply;isolation:isolate"><path d="M374.41,327.965v.071l0-.071Z" transform="translate(-357.365 -327.965)" fill="url(#m)"/><path d="M366.291,328.036v-.071h0Z" transform="translate(-366.291 -327.965)" fill="url(#n)"/></g><path d="M366.289,326.842h17.045v2.682h0l0,.067c0,2.742-3.816,4.964-8.522,4.964s-8.524-2.222-8.524-4.964l0-.067,0,.54Z" transform="translate(-366.289 -321.641)" fill="#d1ebff"/><ellipse cx="8.518" cy="4.952" rx="8.518" ry="4.952" transform="translate(0.005)" fill="#fff"/></g><g transform="translate(37.484 10.957)"><g transform="translate(0.004 7.56)" style="mix-blend-mode:multiply;isolation:isolate"><path d="M365.484,333.183v.071l0-.071Z" transform="translate(-348.439 -333.183)" fill="url(#o)"/><path d="M357.366,333.254v-.071h0Z" transform="translate(-357.366 -333.183)" fill="url(#p)"/></g><path d="M357.364,332.059h17.045v2.682h0l0,.069c0,2.74-3.816,4.962-8.521,4.962s-8.524-2.222-8.524-4.962l0-.069,0,.54Z" transform="translate(-357.364 -326.86)" fill="#d1ebff"/><path d="M374.4,334.535c0,2.734-3.813,4.952-8.517,4.952s-8.519-2.218-8.519-4.952,3.816-4.952,8.519-4.952S374.4,331.8,374.4,334.535Z" transform="translate(-357.362 -329.583)" fill="#fff"/></g><g transform="translate(18.742 21.913)"><g transform="translate(0.004 7.56)" style="mix-blend-mode:multiply;isolation:isolate"><path d="M356.559,338.4v.071l0-.071Z" transform="translate(-339.514 -338.4)" fill="url(#q)"/><path d="M348.441,338.471V338.4h0Z" transform="translate(-348.441 -338.4)" fill="url(#r)"/></g><path d="M348.439,337.277h17.047v2.682h0l0,.067c0,2.74-3.818,4.964-8.524,4.964s-8.524-2.224-8.524-4.964l0-.067,0,.54Z" transform="translate(-348.439 -332.076)" fill="#d1ebff"/><ellipse cx="8.518" cy="4.952" rx="8.518" ry="4.952" transform="translate(0.005)" fill="#fff"/></g><g transform="translate(0 32.868)"><g transform="translate(0.004 7.56)" style="mix-blend-mode:multiply;isolation:isolate"><path d="M347.634,343.617v.073l0-.073Z" transform="translate(-330.589 -343.617)" fill="url(#s)"/><path d="M339.516,343.69v-.073h0Z" transform="translate(-339.516 -343.617)" fill="url(#t)"/></g><path d="M339.514,342.494h17.047v2.682h0l0,.069c0,2.74-3.818,4.962-8.524,4.962s-8.524-2.222-8.524-4.962l0-.069,0,.54Z" transform="translate(-339.514 -337.292)" fill="#d1ebff"/><path d="M356.552,344.971c0,2.734-3.814,4.952-8.517,4.952s-8.517-2.218-8.517-4.952,3.813-4.954,8.517-4.954S356.552,342.234,356.552,344.971Z" transform="translate(-339.511 -340.017)" fill="#fff"/></g></g></g><g transform="translate(4.983 0)"><g transform="translate(0.271 74.719)"><path d="M369.124,242.043c0-16.014-11.312-35.527-25.268-43.584-6.728-3.885-12.843-4.4-17.371-2.089l-.015-.023-6.346,3.478,1.818,3.123a25.575,25.575,0,0,0-1.306,8.469c0,16.014,11.312,35.527,25.268,43.584a25.977,25.977,0,0,0,8.188,3.171l1.854,3.184,5.05-2.7C365.993,256.239,369.124,250.466,369.124,242.043Z" transform="translate(-300.551 -189.227)" fill="#3f92d1"/><ellipse cx="20.567" cy="35.624" rx="20.567" ry="35.624" transform="matrix(0.863, -0.505, 0.505, 0.863, 2.183, 20.759)" fill="#fff"/><g transform="translate(0 30.782)"><path d="M319.633,232.811a1.051,1.051,0,0,1-.924-.546q-1.021-1.871-1.934-3.8a1.05,1.05,0,0,1,1.9-.9q.882,1.865,1.879,3.688a1.049,1.049,0,0,1-.418,1.424A1.032,1.032,0,0,1,319.633,232.811Zm-4.353-9.548a1.052,1.052,0,0,1-.987-.687q-.743-2.016-1.348-4.049a1.049,1.049,0,1,1,2.012-.6q.586,1.965,1.308,3.921a1.053,1.053,0,0,1-.624,1.35A1.031,1.031,0,0,1,315.28,223.262Zm-2.816-10.1a1.053,1.053,0,0,1-1.033-.857c-.265-1.426-.477-2.852-.622-4.236a1.05,1.05,0,0,1,2.087-.223c.141,1.329.342,2.7.6,4.074a1.052,1.052,0,0,1-.84,1.224A1.219,1.219,0,0,1,312.464,213.158Z" transform="translate(-310.803 -206.904)" fill="#a8cff0"/></g><ellipse cx="20.567" cy="35.624" rx="20.567" ry="35.624" transform="matrix(0.863, -0.505, 0.505, 0.863, 1.621, 21.065)" fill="#a8cff0"/></g><path d="M369.124,208.073c0-16.014-11.312-35.529-25.268-43.584-6.728-3.885-12.843-4.4-17.371-2.089l-.015-.025-6.346,3.478,1.818,3.123a25.579,25.579,0,0,0-1.306,8.471c0,16.012,11.312,35.525,25.268,43.582a25.977,25.977,0,0,0,8.188,3.171l1.854,3.186,5.05-2.7C365.993,222.268,369.124,216.493,369.124,208.073Z" transform="translate(-300.28 -151.874)" fill="#3f92d1"/><ellipse cx="20.567" cy="35.624" rx="20.567" ry="35.624" transform="matrix(0.863, -0.505, 0.505, 0.863, 2.454, 24.14)" fill="#fff"/><path d="M322.018,220.563a1.052,1.052,0,0,1-.892-.493q-1.131-1.8-2.159-3.671a1.05,1.05,0,0,1,1.84-1.014q1,1.814,2.1,3.57a1.053,1.053,0,0,1-.332,1.449A1.064,1.064,0,0,1,322.018,220.563Zm-4.929-9.265a1.049,1.049,0,0,1-.96-.626q-.866-1.956-1.611-3.948a1.05,1.05,0,1,1,1.968-.733q.721,1.931,1.562,3.832a1.051,1.051,0,0,1-.96,1.474Zm-3.5-9.889a1.048,1.048,0,0,1-1.012-.779c-.372-1.4-.693-2.8-.956-4.168a1.051,1.051,0,0,1,2.064-.393c.252,1.317.561,2.669.92,4.021a1.052,1.052,0,0,1-.745,1.285A1.088,1.088,0,0,1,313.584,201.409Zm-1.753-10.338a1.049,1.049,0,0,1-1.046-.979q-.11-1.61-.111-3.2,0-.551.013-1.1a1.052,1.052,0,0,1,1.05-1.023h.027a1.052,1.052,0,0,1,1.023,1.079q-.013.517-.013,1.039,0,1.518.107,3.055a1.052,1.052,0,0,1-.977,1.119Zm.569-10.453a1.283,1.283,0,0,1-.2-.017,1.053,1.053,0,0,1-.834-1.231,34.885,34.885,0,0,1,1.073-4.191,1.05,1.05,0,1,1,2,.649,32.888,32.888,0,0,0-1.008,3.94A1.048,1.048,0,0,1,312.4,180.618Zm3.591-9.807a1.05,1.05,0,0,1-.907-1.579,27.248,27.248,0,0,1,2.489-3.583,1.05,1.05,0,1,1,1.621,1.336,25.138,25.138,0,0,0-2.3,3.305A1.052,1.052,0,0,1,315.991,170.811Zm6.982-7.732a1.05,1.05,0,0,1-.609-1.907,24.239,24.239,0,0,1,3.788-2.2,1.05,1.05,0,1,1,.884,1.9,22.141,22.141,0,0,0-3.456,2.008A1.036,1.036,0,0,1,322.973,163.079Zm9.618-3.956a1.05,1.05,0,0,1-.174-2.085,27.117,27.117,0,0,1,4.347-.374h.006a1.05,1.05,0,0,1,.006,2.1,24.856,24.856,0,0,0-4.009.346A1.27,1.27,0,0,1,332.591,159.123Z" transform="translate(-310.674 -156.664)" fill="#a8cff0"/><ellipse cx="20.567" cy="35.624" rx="20.567" ry="35.624" transform="matrix(0.863, -0.505, 0.505, 0.863, 1.892, 24.445)" fill="#a8cff0"/><g transform="translate(0.211 146.03)"><path d="M369.124,276c0-16.014-11.312-35.527-25.268-43.584-6.728-3.885-12.843-4.4-17.371-2.089l-.015-.025-6.346,3.477,1.818,3.125a25.567,25.567,0,0,0-1.306,8.469c0,16.014,11.312,35.527,25.268,43.584a25.918,25.918,0,0,0,8.188,3.169l1.854,3.186,5.05-2.7C365.993,290.2,369.124,284.423,369.124,276Z" transform="translate(-300.491 -223.185)" fill="#3f92d1"/><ellipse cx="20.567" cy="35.624" rx="20.567" ry="35.624" transform="matrix(0.863, -0.505, 0.505, 0.863, 2.243, 20.759)" fill="#fff"/><g transform="translate(0 30.19)"><path d="M359.53,296.653a29.483,29.483,0,0,1-4.339-.326,1.049,1.049,0,1,1,.307-2.075,27.982,27.982,0,0,0,4.032.3,1.05,1.05,0,0,1,0,2.1ZM349.248,294.8a.972.972,0,0,1-.351-.061,39.085,39.085,0,0,1-3.975-1.667,1.05,1.05,0,1,1,.913-1.89,37.807,37.807,0,0,0,3.765,1.581,1.049,1.049,0,0,1-.353,2.037Zm-9.328-4.761a1.067,1.067,0,0,1-.584-.176c-1.155-.773-2.318-1.625-3.459-2.528a1.051,1.051,0,0,1,1.308-1.646c1.094.871,2.209,1.686,3.318,2.427a1.05,1.05,0,0,1-.584,1.924Zm-8.1-6.665a1.045,1.045,0,0,1-.737-.3q-1.509-1.493-2.934-3.1a1.05,1.05,0,1,1,1.571-1.394c.918,1.037,1.867,2.041,2.839,3a1.051,1.051,0,0,1-.739,1.8Zm-6.844-7.944a1.055,1.055,0,0,1-.846-.426q-1.26-1.71-2.428-3.5a1.05,1.05,0,1,1,1.76-1.144c.754,1.157,1.541,2.3,2.358,3.4a1.048,1.048,0,0,1-.223,1.468A1.027,1.027,0,0,1,324.982,275.429Zm-5.6-8.876a1.049,1.049,0,0,1-.926-.554q-1.008-1.88-1.9-3.809a1.05,1.05,0,0,1,1.9-.886c.58,1.247,1.2,2.486,1.85,3.7a1.049,1.049,0,0,1-.428,1.422A1.027,1.027,0,0,1,319.379,266.553Zm-4.273-9.584a1.048,1.048,0,0,1-.987-.7q-.725-2.025-1.312-4.061a1.05,1.05,0,0,1,2.018-.582q.567,1.975,1.271,3.933a1.053,1.053,0,0,1-.989,1.4Zm-2.719-10.132a1.05,1.05,0,0,1-1.033-.867c-.248-1.42-.443-2.848-.573-4.242a1.049,1.049,0,0,1,.945-1.144,1.071,1.071,0,0,1,1.145.947c.126,1.338.313,2.709.554,4.076a1.053,1.053,0,0,1-.855,1.216A.892.892,0,0,1,312.386,246.837Z" transform="translate(-310.775 -240.581)" fill="#a8cff0"/></g><ellipse cx="20.567" cy="35.624" rx="20.567" ry="35.624" transform="matrix(0.863, -0.505, 0.505, 0.863, 1.681, 21.065)" fill="#a8cff0"/></g><path d="M351.455,280.573c.017-.025.027-.057.044-.084,1.533-2.57,1.044-7.186-1.476-11.531L334.771,242.65a16.345,16.345,0,0,0-5.672-5.97c-2.052-1.184-4.105-1.472-5.67-.58-3.133,1.787-3.133,7.614,0,13.015l6.648,11.468v0l8.6,14.84a15.115,15.115,0,0,0,6.947,6.579,5.025,5.025,0,0,0,4.4-.031A4.029,4.029,0,0,0,351.455,280.573ZM324.6,248.448c-2.48-4.278-2.48-8.908,0-10.323,1.2-.685,2.8-.521,4.5.46a12.962,12.962,0,0,1,4.5,4.733l6.648,11.468-9,5.13Z" transform="translate(-299.229 -69.864)" fill="#fff"/><path d="M347.373,230.7l3.918-2.232c2.7-1.543,2.7-6.577,0-11.241a14.153,14.153,0,0,0-4.9-5.157c-1.772-1.023-3.545-1.27-4.9-.5l-3.918,2.234-3.918-6.758a14.134,14.134,0,0,0-4.9-5.157c-1.772-1.023-3.545-1.27-4.9-.5-2.7,1.543-2.7,6.575,0,11.241l3.918,6.76-3.918,2.234c-2.7,1.541-2.7,6.575,0,11.241a14.123,14.123,0,0,0,4.9,5.155c1.774,1.023,3.547,1.27,4.9.5l3.918-2.234,3.918,6.76a14.124,14.124,0,0,0,4.9,5.155c1.772,1.023,3.547,1.27,4.9.5,2.7-1.541,2.7-6.575,0-11.241Zm-4.5-16.745a3.515,3.515,0,0,1,3.515.359,10.959,10.959,0,0,1,4.973,8.574,3.447,3.447,0,0,1-1.457,3.192l-3.918,2.234-7.031-12.125Zm-17.633-2.113c-1.936-3.343-1.936-6.961,0-8.068a3.515,3.515,0,0,1,3.515.359,10.113,10.113,0,0,1,3.515,3.7l3.918,6.76-7.031,4.007Zm7.031,24.292a3.515,3.515,0,0,1-3.515-.359,10.148,10.148,0,0,1-3.515-3.7,10.022,10.022,0,0,1-1.455-4.874,3.446,3.446,0,0,1,1.455-3.192l3.919-2.234,7.031,12.125Zm17.633,10.18a3.515,3.515,0,0,1-3.515-.359,10.147,10.147,0,0,1-3.515-3.7l-3.918-6.758,7.031-4.009,3.918,6.758a10.039,10.039,0,0,1,1.457,4.874A3.453,3.453,0,0,1,349.908,246.313Z" transform="translate(-298.399 -107.968)" fill="#fff"/><path d="M341.388,202.726h0c-5.913,0-12.887-4.968-17.765-12.661a1.151,1.151,0,0,1-.147-.892,1.171,1.171,0,0,1,.546-.722l21.417-12.209a1.184,1.184,0,0,1,.893-.1,1.148,1.148,0,0,1,.7.567c5.6,10.613,5.1,21.31-1.157,24.882A8.945,8.945,0,0,1,341.388,202.726Zm-15.162-12.885c4.359,6.375,10.344,10.586,15.162,10.586h0a6.627,6.627,0,0,0,3.339-.84c4.884-2.782,5.176-11.76.8-20.749Z" transform="translate(-296.63 -135.293)" fill="#fff"/><path d="M325.37,194.9a1.2,1.2,0,0,1-.321-.046,1.148,1.148,0,0,1-.7-.567c-5.6-10.615-5.1-21.312,1.157-24.884a8.942,8.942,0,0,1,4.479-1.14c5.915,0,12.887,4.971,17.768,12.663a1.145,1.145,0,0,1,.145.895,1.158,1.158,0,0,1-.546.72L325.939,194.75A1.16,1.16,0,0,1,325.37,194.9Zm4.62-24.338a6.666,6.666,0,0,0-3.341.838c-4.88,2.785-5.172,11.762-.8,20.754l19.3-11C340.794,174.774,334.81,170.563,329.99,170.563Z" transform="translate(-299.907 -143.905)" fill="#fff"/></g><g transform="translate(77.496 91.807)"><path d="M357.853,247.894l-2.8-1.478a1.05,1.05,0,0,1-.439-1.42,1.062,1.062,0,0,1,1.195-.527l.017-1.058a1.128,1.128,0,0,1,1.065-1.035,1.052,1.052,0,0,1,1.035,1.067Zm-7.883-4.3a1.048,1.048,0,0,1-.491-.12l-3.713-1.961a1.05,1.05,0,0,1,.979-1.858l3.715,1.961a1.049,1.049,0,0,1-.489,1.978Zm7-5.416h-.017a1.049,1.049,0,0,1-1.033-1.067l.065-4.2a1.072,1.072,0,0,1,1.067-1.033,1.052,1.052,0,0,1,1.033,1.067l-.065,4.2A1.051,1.051,0,0,1,356.973,238.178Zm.166-10.5h-.017a1.049,1.049,0,0,1-1.033-1.067l.065-4.2a1.083,1.083,0,0,1,1.067-1.033,1.05,1.05,0,0,1,1.033,1.067l-.065,4.2A1.05,1.05,0,0,1,357.139,227.678Zm.164-10.5h-.017a1.05,1.05,0,0,1-1.033-1.067l.065-4.2a1.1,1.1,0,0,1,1.067-1.033,1.052,1.052,0,0,1,1.033,1.067l-.065,4.2A1.05,1.05,0,0,1,357.3,217.18Zm24.21-1.552a1.059,1.059,0,0,1-.525-.141l-.924-.535a1.05,1.05,0,0,1,1.05-1.819l.924.533a1.051,1.051,0,0,1-.525,1.961Zm-6.382-3.683a1.059,1.059,0,0,1-.525-.141l-3.635-2.1a1.05,1.05,0,1,1,1.05-1.819l3.635,2.1a1.05,1.05,0,0,1-.525,1.959Zm-9.093-5.25a1.059,1.059,0,0,1-.525-.141l-3.637-2.1a1.05,1.05,0,0,1,1.05-1.819l3.637,2.1a1.05,1.05,0,0,1-.525,1.959Zm-8.57-.013h-.017a1.052,1.052,0,0,1-1.033-1.067l.065-4.2a1.114,1.114,0,0,1,1.067-1.033,1.051,1.051,0,0,1,1.033,1.067l-.065,4.2A1.051,1.051,0,0,1,357.469,206.683Z" transform="translate(-345.205 -200.383)" fill="#f76195"/></g></g></g></g></svg>