<?xml version="1.0" encoding="utf-8"?>
<!-- Generator: Adobe Illustrator 25.2.3, SVG Export Plug-In . SVG Version: 6.00 Build 0)  -->
<!DOCTYPE svg PUBLIC "-//W3C//DTD SVG 1.1//EN" "http://www.w3.org/Graphics/SVG/1.1/DTD/svg11.dtd" [
	<!ENTITY ns_extend "http://ns.adobe.com/Extensibility/1.0/">
	<!ENTITY ns_ai "http://ns.adobe.com/AdobeIllustrator/10.0/">
	<!ENTITY ns_graphs "http://ns.adobe.com/Graphs/1.0/">
	<!ENTITY ns_vars "http://ns.adobe.com/Variables/1.0/">
	<!ENTITY ns_imrep "http://ns.adobe.com/ImageReplacement/1.0/">
	<!ENTITY ns_sfw "http://ns.adobe.com/SaveForWeb/1.0/">
	<!ENTITY ns_custom "http://ns.adobe.com/GenericCustomNamespace/1.0/">
	<!ENTITY ns_adobe_xpath "http://ns.adobe.com/XPath/1.0/">
]>
<svg version="1.1" id="Capa_1" xmlns:x="&ns_extend;" xmlns:i="&ns_ai;" xmlns:graph="&ns_graphs;"
	 xmlns="http://www.w3.org/2000/svg" xmlns:xlink="http://www.w3.org/1999/xlink" x="0px" y="0px" viewBox="0 0 290.5 290.5"
	 style="enable-background:new 0 0 290.5 290.5;" xml:space="preserve">
<style type="text/css">
	.st0{fill:#E4DDFA;}
	.st1{fill:#EA8952;}
	.st2{fill:#7E5EE3;}
	.st3{fill:#FFAD9F;}
	.st4{fill:#DF8981;}
	.st5{fill:#EA8952;stroke:#000000;stroke-miterlimit:10;}
	.st6{fill:#FFA65E;}
	.st7{fill:#FF9D00;}
	.st8{fill:#12263F;}
	.st9{fill:#EE5553;}
	.st10{fill:#FF6C5F;}
	.st11{fill:none;stroke:#DF8981;stroke-width:1.661;stroke-miterlimit:10;}
	.st12{fill:#FFFFFF;}
	.st13{fill:none;stroke:#352835;stroke-width:2.701;stroke-miterlimit:10;}
	.st14{fill:none;stroke:#7E5E6A;stroke-width:1.434;stroke-miterlimit:10;}
	.st15{fill:#9DC8DB;stroke:#7E5E6A;stroke-width:1.434;stroke-miterlimit:10;}
	.st16{fill:none;stroke:#352835;stroke-width:1.195;stroke-miterlimit:10;}
</style>
<metadata>
	<sfw  xmlns="&ns_sfw;">
		<slices></slices>
		<sliceSourceBounds  bottomLeftOrigin="true" height="290.5" width="290.5" x="-0.2" y="-0.2"></sliceSourceBounds>
	</sfw>
</metadata>
<path id="Rectángulo_32139" class="st0" d="M26,11.5h238c8.3,0,15,6.7,15,15v238c0,8.3-6.7,15-15,15H26c-8.3,0-15-6.7-15-15v-238
	C11,18.3,17.7,11.5,26,11.5z"/>
<path class="st1" d="M121.6,198.2l0.9-0.9c-0.9-0.3-1.9-0.5-2.8-0.8L121.6,198.2z"/>
<path class="st2" d="M230.7,114.6c0-47.3-38.4-85.7-85.7-85.7c-47.3,0-85.7,38.4-85.7,85.7c0,21.8,8.2,41.7,21.6,56.8
	c12.1-16.4,34.8-18.4,40.2-21.3c4.1-2.2,5.5-8.9,5.9-14.8c0.1,0.1,0.3,0.1,0.4,0.2c0-0.1,0-0.1,0-0.2c0.6,0.3,1.3,0.5,2,0.8
	c0.1-1.4,0.1-2.8,0.2-4.1c0-0.1,0-0.2,0-0.3c0-0.2,0-0.3,0-0.5c0-0.2,0-0.3,0-0.5c0-0.1,0-0.2,0-0.2c0-2.9-0.3-4.9-0.3-4.9l0,0v0
	l11.7,0.8v-0.8l0,0v0l1.2,0.4l1.2-0.4v0l0,0v0.8l11.7-0.8v0l0,0c-0.1,1.2-0.2,2.5-0.2,3.7c0,0.1,0,0.1,0,0.2c-0.1,2.4,0,4.9,0.2,7.3
	c0.9-0.2,1.7-0.4,2.3-0.7c0,0,0,0.1,0,0.1c0.1,0,0.3-0.1,0.4-0.1c0.5,5.7,1.9,11.8,5.8,14c1.7,0.8,3.6,1.4,5.4,1.9
	c0,0-0.1,0.1-0.1,0.1c7.5,2.1,19.6,5.3,28.8,13.7c0,0,0,0,0,0c0.3,0.3,0.6,0.6,0.9,0.9c0,0,0,0,0,0c0.3,0.3,0.6,0.6,0.9,0.9
	c0,0,0,0,0.1,0.1c0.3,0.3,0.6,0.6,0.8,0.9c0,0,0.1,0.1,0.1,0.1c0.3,0.3,0.5,0.6,0.8,0.9c0,0,0.1,0.1,0.1,0.1
	c0.2,0.3,0.5,0.6,0.7,0.9c0,0,0.1,0.1,0.1,0.1c0.2,0.3,0.5,0.6,0.7,1c0,0.1,0.1,0.1,0.1,0.2c0.2,0.3,0.4,0.6,0.6,1
	c0,0.1,0.1,0.1,0.1,0.2c0.2,0.3,0.4,0.6,0.6,1c0,0.1,0.1,0.2,0.1,0.2c0.2,0.3,0.4,0.7,0.6,1c0.1,0.1,0.1,0.2,0.1,0.3c0,0,0,0,0,0
	C221,160,230.7,138.4,230.7,114.6z"/>
<rect x="142.1" y="125.8" class="st3" width="1.3" height="0"/>
<rect x="143.4" y="126" class="st3" width="11.7" height="0"/>
<rect x="140.5" y="126" transform="matrix(0.2983 -0.9545 0.9545 0.2983 -21.4157 222.8667)" class="st3" width="0.8" height="0"/>
<path class="st3" d="M154.8,129.3c0,0.1,0,0.1,0,0.2C154.8,129.4,154.8,129.4,154.8,129.3z"/>
<path class="st3" d="M129.4,131.2c0-0.2,0-0.3,0-0.5C129.4,130.9,129.4,131.1,129.4,131.2z"/>
<path class="st3" d="M129.2,125.6c0,0,0.2,2,0.3,4.9C129.4,127.6,129.2,125.6,129.2,125.6L129.2,125.6z"/>
<path class="st3" d="M129.4,131.7c0,0.1,0,0.2,0,0.3C129.4,131.9,129.4,131.8,129.4,131.7z"/>
<path class="st4" d="M155,136.8C155,136.8,155,136.8,155,136.8c-0.2-2.4-0.2-4.9-0.2-7.3C154.8,131.5,154.8,134.1,155,136.8z"/>
<rect x="135" y="120.1" transform="matrix(6.436353e-02 -0.9979 0.9979 6.436353e-02 0.5919 252.6243)" class="st4" width="0" height="11.7"/>
<path class="st4" d="M129.4,132c0,1.3,0,2.7-0.2,4.1c0,0,0,0,0,0C129.4,134.6,129.4,133.2,129.4,132z"/>
<path class="st4" d="M155.1,125.6L155.1,125.6c0,0-0.2,1.5-0.2,3.7C154.9,128.1,154.9,126.9,155.1,125.6z"/>
<rect x="143.4" y="125.6" class="st4" width="0" height="0.8"/>
<rect x="141.5" y="125.2" transform="matrix(0.2873 -0.9578 0.9578 0.2873 -19.6716 225.1812)" class="st4" width="0" height="1.3"/>
<path class="st4" d="M129.4,131.2c0,0.2,0,0.3,0,0.5C129.4,131.5,129.4,131.4,129.4,131.2z"/>
<path class="st4" d="M129.4,130.7c0-0.1,0-0.2,0-0.2C129.4,130.6,129.4,130.6,129.4,130.7z"/>
<path class="st4" d="M142.9,138.2c3.5,0,8.5-0.5,12.1-1.4c-0.2-2.7-0.2-5.3-0.2-7.3c0-0.1,0-0.1,0-0.2c0.1-2.2,0.2-3.7,0.2-3.7
	l-11.7,0.8v0l0,0v-0.8l-1.2,0.4l0,0l0,0l-1.2-0.4v0.8l0,0v0l-11.7-0.8c0,0,0.2,2,0.3,4.9c0,0.1,0,0.2,0,0.2c0,0.2,0,0.3,0,0.5
	c0,0.2,0,0.3,0,0.5c0,0.1,0,0.2,0,0.3c0,1.3,0,2.7-0.1,4.1C133.1,137.4,138.5,138.2,142.9,138.2z"/>
<path class="st1" d="M91.5,161.6c0.1,0.4,0.2,0.8,0.3,1.2c8.3-5.6,17.8-8.2,24.4-9.9c-0.3-0.2-0.6-0.4-0.8-0.7
	c2.1-0.5,4.2-1.2,6.1-2.1c4.1-2.2,5.4-8.8,5.8-14.6c-0.1-0.1-0.3-0.1-0.4-0.2c-0.4,5.9-1.8,12.6-5.9,14.8
	c-5.4,2.9-28.1,4.9-40.2,21.3c0,0,0,0,0,0C83.9,167.3,87.5,164.1,91.5,161.6z"/>
<path class="st1" d="M157.4,136.3c0,0,0-0.1,0-0.1c-0.7,0.3-1.5,0.5-2.3,0.7c0,0,0,0.1,0,0.1C155.9,136.7,156.7,136.5,157.4,136.3z"
	/>
<polygon class="st1" points="205.2,175.5 205.2,175.5 205.2,175.5 "/>
<path class="st1" d="M191.5,162.1c0.1-0.3,0.1-0.6,0.2-0.9c2.1,1.3,4.1,2.9,6,4.6c-9.2-8.5-21.3-11.6-28.8-13.7
	c-0.3,0.2-0.6,0.5-0.9,0.7C174.4,154.5,183.4,157,191.5,162.1z"/>
<path class="st1" d="M200.5,168.7c0.3,0.3,0.5,0.6,0.8,0.9C201,169.3,200.7,169,200.5,168.7z"/>
<path class="st1" d="M198.6,166.7c0.3,0.3,0.6,0.6,0.9,0.9C199.2,167.3,198.9,167,198.6,166.7z"/>
<path class="st1" d="M201.3,169.7c0.2,0.3,0.5,0.6,0.7,0.9C201.8,170.3,201.6,170,201.3,169.7z"/>
<path class="st1" d="M199.6,167.7c0.3,0.3,0.6,0.6,0.8,0.9C200.1,168.3,199.9,168,199.6,167.7z"/>
<path class="st1" d="M204.5,174.3c0.2,0.3,0.4,0.7,0.6,1C204.9,174.9,204.7,174.6,204.5,174.3z"/>
<path class="st1" d="M203.8,173.1c0.2,0.3,0.4,0.6,0.6,1C204.2,173.7,204,173.4,203.8,173.1z"/>
<path class="st1" d="M202.2,170.8c0.2,0.3,0.5,0.6,0.7,1C202.7,171.4,202.4,171.1,202.2,170.8z"/>
<path class="st1" d="M203,171.9c0.2,0.3,0.4,0.6,0.6,1C203.4,172.5,203.2,172.2,203,171.9z"/>
<path class="st1" d="M197.7,165.8c0.3,0.3,0.6,0.6,0.9,0.9C198.3,166.4,198,166.1,197.7,165.8z"/>
<path class="st1" d="M111.8,193.6c2.6,1.1,5.2,2,7.9,2.9l-5.5-4.9L111.8,193.6z"/>
<path class="st1" d="M106.5,191.1l-6.6-6.6l-1.9,1.8C100.7,188,103.6,189.7,106.5,191.1L106.5,191.1z"/>
<path class="st1" d="M163.8,198.2c0,0,0.1,0,0.1,0L163.8,198.2L163.8,198.2z"/>
<path class="st1" d="M163.8,198.1L163.8,198.1c3.8-0.8,7.5-1.9,11.1-3.2l-3.3-3.3L163.8,198.1z"/>
<path class="st1" d="M157.2,191.6l-7,6.6l0.4,0.4l-0.4-0.4l-0.6,0.6l0.6-0.6l-7.3-6.6l-7.8,6.6l0.6,0.6l-0.6-0.6l-0.5,0.5l0.5-0.5
	l-6.6-6.6l-6.1,5.7c7.2,1.9,14.7,3,22.5,3c6.4,0,12.7-0.7,18.8-2.1l0.1-0.1L157.2,191.6z"/>
<path class="st1" d="M106.6,191.2L106.6,191.2L106.6,191.2C106.5,191.2,106.5,191.2,106.6,191.2z"/>
<path class="st1" d="M98,186.3l1.9-1.8l6.6,6.6l7.7-6.6l7.3,6.6l7-6.6l6.6,6.6l7.8-6.6l7.3,6.6l7-6.6l6.6,6.6l7.8-6.6l6.5,6.5
	l8.2-6.5l2.1,2.1c-0.1-8.3,1-16.5,3-24.5c-8.1-5.1-17.1-7.6-23.5-9.3c-6.5,5.2-15.7,8.4-25.9,8.4c-10.2,0-19.4-3.2-25.9-8.4
	c-6.6,1.8-16.1,4.4-24.4,9.9c1.7,6.9,2.7,14,2.8,21.1C95.7,184.7,96.8,185.5,98,186.3z"/>
<path class="st5" d="M188.5,188.4c0-0.4,0-0.8,0-1.2c0-0.2,0-0.4,0-0.6l-2.1-2.1l-8.2,6.5l0.6,0.6l-0.6-0.6l-0.4,0.3l0.4-0.3
	l-6.5-6.5l-7.8,6.6l0.6,0.6l-0.6-0.6l-0.4,0.3l0.4-0.3l-6.6-6.6l-7,6.6l0.4,0.4l-0.4-0.4l-0.6,0.6l0.6-0.6l-7.3-6.6l-7.8,6.6
	l0.6,0.6l-0.6-0.6l-0.5,0.5l0.5-0.5l-6.6-6.6l-7,6.6l0.3,0.3l-0.3-0.3l-0.6,0.6l0.6-0.6l-7.3-6.6l-7.7,6.6l0.1,0.1
	c1.7,0.9,3.5,1.7,5.3,2.4l2.4-2.1l5.5,4.9c0.9,0.3,1.9,0.5,2.8,0.8l6.1-5.7l6.6,6.6l7.8-6.6l7.3,6.6l7-6.6l6.6,6.6l7.8-6.6l3.3,3.3"
	/>
<path class="st1" d="M155,136.9C155,136.9,155,136.9,155,136.9C155,136.9,155,136.8,155,136.9C155,136.8,155,136.8,155,136.9
	C155,136.9,155,136.9,155,136.9z"/>
<path class="st1" d="M155,136.9C155,136.9,155,136.9,155,136.9c-3.6,0.8-8.6,1.2-12.1,1.3c0.1,0,0.1,0,0.2,0
	C146.5,138.2,151.4,137.7,155,136.9z"/>
<path class="st6" d="M129.3,136.1c-0.7-0.2-1.4-0.5-2-0.8c0,0.1,0,0.1,0,0.2c0.6,0.3,1.3,0.5,2,0.8
	C129.3,136.2,129.3,136.1,129.3,136.1z"/>
<path class="st6" d="M163.2,150.1c1.2,0.6,3.2,1.2,5.7,2c0,0,0.1-0.1,0.1-0.1c-1.9-0.5-3.7-1.1-5.4-1.9c-3.9-2.1-5.3-8.3-5.8-14
	c-0.1,0-0.3,0.1-0.4,0.1C157.9,141.9,159.3,148,163.2,150.1z"/>
<path class="st6" d="M129.3,136.2c0,0,0-0.1,0-0.1c0,0,0,0,0,0C129.3,136.1,129.3,136.2,129.3,136.2
	C129.3,136.2,129.3,136.2,129.3,136.2z"/>
<path class="st6" d="M142.9,138.2c-4.4,0-9.8-0.8-13.6-2.1c0,0,0,0.1,0,0.1c3.8,1.3,9.1,2,13.4,2
	C142.7,138.2,142.8,138.2,142.9,138.2z"/>
<path class="st6" d="M121.5,150.1c-2,0.9-4,1.6-6.1,2.1c0.3,0.2,0.5,0.4,0.8,0.7c3.3-0.9,6-1.6,7.3-2.4c1.9-1,3.1-2.9,4-5.3
	c0,0,0,0,0,0c1-2.7,1.5-5.9,1.7-8.9c-0.7-0.2-1.4-0.5-2-0.8C126.9,141.3,125.5,147.9,121.5,150.1z"/>
<path class="st6" d="M155.5,140.8C155.5,140.8,155.5,140.8,155.5,140.8c0.8,4.2,2.3,8,5.2,9.6c1.4,0.8,4,1.4,7.3,2.3
	c0.3-0.2,0.6-0.5,0.9-0.7c-2.5-0.7-4.5-1.3-5.7-2c-3.9-2.1-5.3-8.2-5.8-13.8c-0.7,0.2-1.5,0.4-2.3,0.6
	C155.2,138.2,155.3,139.5,155.5,140.8z"/>
<path class="st6" d="M168,152.8c-3.3-0.9-5.9-1.6-7.3-2.3c-2.9-1.6-4.4-5.4-5.2-9.6c-9.3,1.5-18.7,2.9-28,4.3
	c-0.9,2.4-2.2,4.3-4,5.3c-1.4,0.8-4,1.5-7.3,2.4c6.5,5.2,15.7,8.4,25.9,8.4C152.3,161.2,161.5,158,168,152.8z"/>
<path class="st6" d="M155.5,140.8c-0.2-1.3-0.4-2.6-0.5-3.9c0,0,0,0,0,0C155.1,138.2,155.3,139.5,155.5,140.8
	C155.5,140.8,155.5,140.8,155.5,140.8z"/>
<path class="st6" d="M129.3,136.2c-0.2,3-0.7,6.3-1.7,8.9c0,0,0,0,0,0C128.5,142.5,129.1,139.3,129.3,136.2
	C129.3,136.2,129.3,136.2,129.3,136.2z"/>
<path class="st6" d="M155,136.9c-3.6,0.8-8.5,1.3-11.9,1.3c-0.1,0-0.1,0-0.2,0c-0.1,0-0.2,0-0.2,0c-4.3,0-9.6-0.7-13.4-2
	c-0.2,3.1-0.7,6.3-1.7,8.9c9.3-1.4,18.7-2.8,28-4.3C155.3,139.5,155.1,138.2,155,136.9z"/>
<path class="st6" d="M91.7,162.8c-0.1-0.4-0.2-0.8-0.3-1.2c-3.9,2.5-7.6,5.7-10.6,9.8c0.3,0.3,0.5,0.6,0.8,0.9
	C84.5,168.4,88,165.3,91.7,162.8z"/>
<path class="st6" d="M94.6,183.9c-0.2-7.1-1.1-14.2-2.8-21.1c-3.7,2.5-7.2,5.6-10.1,9.6C85.5,176.6,89.9,180.5,94.6,183.9z"/>
<path class="st6" d="M202.9,171.7c0,0.1,0.1,0.1,0.1,0.2C203,171.8,202.9,171.8,202.9,171.7z"/>
<path class="st6" d="M199.5,167.6C199.5,167.6,199.6,167.6,199.5,167.6C199.6,167.6,199.5,167.6,199.5,167.6z"/>
<path class="st6" d="M198.6,166.7C198.6,166.7,198.6,166.7,198.6,166.7C198.6,166.7,198.6,166.7,198.6,166.7z"/>
<path class="st6" d="M203.6,172.9c0,0.1,0.1,0.1,0.1,0.2C203.7,173,203.7,172.9,203.6,172.9z"/>
<path class="st6" d="M197.7,165.8C197.7,165.8,197.7,165.8,197.7,165.8C197.7,165.8,197.7,165.8,197.7,165.8z"/>
<path class="st6" d="M205.1,175.3c0.1,0.1,0.1,0.2,0.1,0.3C205.2,175.4,205.1,175.4,205.1,175.3z"/>
<path class="st6" d="M201.3,169.6c0,0,0.1,0.1,0.1,0.1C201.3,169.6,201.3,169.6,201.3,169.6z"/>
<path class="st6" d="M200.4,168.6C200.4,168.6,200.4,168.6,200.4,168.6C200.4,168.6,200.4,168.6,200.4,168.6z"/>
<path class="st6" d="M202.1,170.6c0,0,0.1,0.1,0.1,0.1C202.2,170.7,202.1,170.7,202.1,170.6z"/>
<path class="st6" d="M204.4,174c0,0.1,0.1,0.2,0.1,0.2C204.5,174.2,204.4,174.1,204.4,174z"/>
<path class="st6" d="M191.5,162.1c5.2,3.3,10,7.7,13.4,13.8c0.1-0.1,0.2-0.2,0.3-0.3c0,0,0,0,0,0c0-0.1-0.1-0.2-0.1-0.3
	c-0.2-0.3-0.4-0.7-0.6-1c0-0.1-0.1-0.2-0.1-0.2c-0.2-0.3-0.4-0.7-0.6-1c0-0.1-0.1-0.1-0.1-0.2c-0.2-0.3-0.4-0.6-0.6-1
	c0-0.1-0.1-0.1-0.1-0.2c-0.2-0.3-0.5-0.6-0.7-1c0,0-0.1-0.1-0.1-0.1c-0.2-0.3-0.5-0.6-0.7-0.9c0,0-0.1-0.1-0.1-0.1
	c-0.3-0.3-0.5-0.6-0.8-0.9c0,0-0.1-0.1-0.1-0.1c-0.3-0.3-0.5-0.6-0.8-0.9c0,0,0,0-0.1-0.1c-0.3-0.3-0.6-0.6-0.9-0.9c0,0,0,0,0,0
	c-0.3-0.3-0.6-0.6-0.9-0.9c0,0,0,0,0,0c-1.9-1.7-3.9-3.3-6-4.6C191.6,161.5,191.6,161.8,191.5,162.1z"/>
<path class="st6" d="M191.5,162.1c-2.1,8-3.1,16.2-3,24.5l1.2,1.2c5.5-3.4,10.6-7.4,15.3-11.9C201.5,169.8,196.7,165.4,191.5,162.1z
	"/>
<path class="st6" d="M188.5,188.4c0.4-0.2,0.8-0.4,1.1-0.7l-1.2-1.2c0,0.2,0,0.4,0,0.6C188.5,187.6,188.5,188,188.5,188.4z"/>
<rect id="Rectángulo_32124" x="-0.2" y="151.1" class="st2" width="2.7" height="14.5"/>
<rect id="Rectángulo_32125" x="-0.2" y="181.5" class="st2" width="2.7" height="15.9"/>
<rect id="Rectángulo_32126" x="-0.2" y="213.4" class="st2" width="2.7" height="15.9"/>
<path id="Trazado_109582" class="st2" d="M252.8,288v2.7h16l-0.1-2.7H252.8z"/>
<path id="Trazado_109583" class="st2" d="M287.5,269.2c0,4.9-1.9,9.7-5.4,13.2l1.9,1.9c4-4,6.2-9.4,6.1-15.1v-0.3h-2.7V269.2z"/>
<rect id="Rectángulo_32127" x="189" y="288" class="st2" width="15.9" height="2.7"/>
<rect id="Rectángulo_32128" x="287.5" y="151.1" class="st2" width="2.7" height="6.2"/>
<rect id="Rectángulo_32129" x="287.5" y="173.2" class="st2" width="2.7" height="16"/>
<rect id="Rectángulo_32130" x="287.5" y="237" class="st2" width="2.7" height="16"/>
<rect id="Rectángulo_32131" x="157.1" y="288" class="st2" width="15.9" height="2.7"/>
<rect id="Rectángulo_32132" x="287.5" y="205.1" class="st2" width="2.7" height="16"/>
<rect id="Rectángulo_32133" x="220.9" y="288" class="st2" width="15.9" height="2.7"/>
<rect id="Rectángulo_32134" x="-0.2" y="245.3" class="st2" width="2.7" height="15.9"/>
<path id="Trazado_109584" class="st2" d="M3.9,276.5l-2.5,1c2.2,5.3,6.5,9.5,11.8,11.6l1-2.5C9.6,284.8,5.9,281.1,3.9,276.5z"/>
<rect id="Rectángulo_32135" x="29.5" y="288" class="st2" width="15.9" height="2.7"/>
<rect id="Rectángulo_32136" x="93.3" y="288" class="st2" width="15.9" height="2.7"/>
<rect id="Rectángulo_32137" x="125.2" y="288" class="st2" width="15.9" height="2.7"/>
<rect id="Rectángulo_32138" x="61.4" y="288" class="st2" width="15.9" height="2.7"/>
<path id="Trazado_109585" class="st7" d="M2.4,148.4V21.8C2.5,11.4,10.9,3,21.3,3h247.5c10.4,0,18.8,8.4,18.8,18.8v126.6h2.7V21.8
	c0-11.9-9.6-21.5-21.5-21.5H21.3C9.4,0.3-0.2,9.9-0.2,21.8v126.6H2.4z"/>
<path class="st8" d="M91.5,223.2h-3.9v2.7h4.6v1.6h-6.7v-10h6.7v1.7h-4.6v2.4h3.9V223.2z"/>
<path class="st8" d="M95.3,227.5h-2V217h2V227.5z"/>
<path class="st8" d="M100.1,223.7c0-1.1,0.3-2,0.8-2.7s1.3-1,2.2-1c0.8,0,1.4,0.3,1.9,0.8l0.1-0.7h1.8v7.2c0,0.6-0.1,1.2-0.4,1.7
	s-0.7,0.8-1.2,1.1s-1.2,0.4-1.9,0.4c-0.5,0-1.1-0.1-1.6-0.3c-0.5-0.2-0.9-0.5-1.2-0.8l0.9-1.2c0.5,0.6,1.1,0.8,1.8,0.8
	c0.5,0,0.9-0.1,1.2-0.4c0.3-0.3,0.4-0.7,0.4-1.2v-0.4c-0.5,0.5-1.1,0.8-1.8,0.8c-0.9,0-1.6-0.3-2.2-1
	C100.4,225.9,100.1,225,100.1,223.7L100.1,223.7z M102.1,223.9c0,0.7,0.1,1.2,0.4,1.6c0.3,0.4,0.6,0.6,1.1,0.6c0.6,0,1-0.2,1.3-0.7
	v-3.1c-0.3-0.5-0.7-0.7-1.3-0.7c-0.5,0-0.8,0.2-1.1,0.6S102.1,223.1,102.1,223.9z"/>
<path class="st8" d="M111.8,227.6c-1.1,0-2-0.3-2.6-1s-1-1.6-1-2.7v-0.2c0-0.7,0.1-1.4,0.4-2c0.3-0.6,0.7-1,1.2-1.4
	c0.5-0.3,1.1-0.5,1.8-0.5c1,0,1.8,0.3,2.4,1s0.9,1.5,0.9,2.7v0.8h-4.7c0.1,0.5,0.3,0.9,0.6,1.2s0.7,0.4,1.2,0.4
	c0.8,0,1.4-0.3,1.8-0.8l1,1.1c-0.3,0.4-0.7,0.7-1.2,1C113,227.5,112.4,227.6,111.8,227.6z M111.6,221.5c-0.4,0-0.7,0.1-1,0.4
	s-0.4,0.6-0.5,1.1h2.7v-0.2c0-0.4-0.1-0.8-0.4-1S112,221.5,111.6,221.5z"/>
<path class="st8" d="M120.1,221.9c-0.3,0-0.5-0.1-0.7-0.1c-0.7,0-1.2,0.3-1.5,0.8v4.8h-2v-7.4h1.9l0.1,0.9c0.4-0.7,0.9-1,1.6-1
	c0.2,0,0.4,0,0.6,0.1L120.1,221.9z"/>
<path class="st8" d="M124.5,227.6c-1.1,0-2-0.3-2.6-1s-1-1.6-1-2.7v-0.2c0-0.7,0.1-1.4,0.4-2c0.3-0.6,0.7-1,1.2-1.4
	c0.5-0.3,1.1-0.5,1.8-0.5c1,0,1.8,0.3,2.4,1s0.9,1.5,0.9,2.7v0.8h-4.7c0.1,0.5,0.3,0.9,0.6,1.2s0.7,0.4,1.2,0.4
	c0.8,0,1.4-0.3,1.8-0.8l1,1.1c-0.3,0.4-0.7,0.7-1.2,1C125.7,227.5,125.1,227.6,124.5,227.6z M124.3,221.5c-0.4,0-0.7,0.1-1,0.4
	s-0.4,0.6-0.5,1.1h2.7v-0.2c0-0.4-0.1-0.8-0.4-1S124.7,221.5,124.3,221.5z"/>
<path class="st8" d="M130.5,220.1l0.1,0.9c0.5-0.7,1.2-1,2.1-1c0.8,0,1.4,0.2,1.8,0.7s0.6,1.1,0.6,2.1v4.8h-2v-4.7
	c0-0.4-0.1-0.7-0.3-0.9c-0.2-0.2-0.5-0.3-0.9-0.3c-0.6,0-1,0.2-1.3,0.7v5.2h-2v-7.4H130.5z"/>
<path class="st8" d="M138.9,218.3v1.8h1.3v1.4h-1.3v3.7c0,0.3,0.1,0.5,0.2,0.6s0.3,0.2,0.6,0.2c0.2,0,0.4,0,0.6,0v1.5
	c-0.4,0.1-0.8,0.2-1.2,0.2c-1.4,0-2.1-0.7-2.1-2.1v-4h-1.1v-1.4h1.1v-1.8H138.9z"/>
<path class="st8" d="M144.6,227.6c-1.1,0-2-0.3-2.6-1s-1-1.6-1-2.7v-0.2c0-0.7,0.1-1.4,0.4-2c0.3-0.6,0.7-1,1.2-1.4
	c0.5-0.3,1.1-0.5,1.8-0.5c1,0,1.8,0.3,2.4,1s0.9,1.5,0.9,2.7v0.8H143c0.1,0.5,0.3,0.9,0.6,1.2s0.7,0.4,1.2,0.4
	c0.8,0,1.4-0.3,1.8-0.8l1,1.1c-0.3,0.4-0.7,0.7-1.2,1C145.8,227.5,145.2,227.6,144.6,227.6z M144.4,221.5c-0.4,0-0.7,0.1-1,0.4
	s-0.4,0.6-0.5,1.1h2.7v-0.2c0-0.4-0.1-0.8-0.4-1S144.8,221.5,144.4,221.5z"/>
<path class="st8" d="M152,223.7c0-0.7,0.1-1.4,0.4-2c0.3-0.6,0.7-1,1.2-1.3c0.5-0.3,1.1-0.5,1.8-0.5c1,0,1.8,0.3,2.4,0.9
	c0.6,0.6,1,1.4,1.1,2.5l0,0.5c0,1.1-0.3,2-1,2.7c-0.6,0.7-1.5,1-2.5,1s-1.9-0.3-2.6-1S152,225,152,223.7L152,223.7z M154,223.9
	c0,0.7,0.1,1.2,0.4,1.6c0.3,0.4,0.6,0.6,1.1,0.6c0.5,0,0.9-0.2,1.1-0.6c0.3-0.4,0.4-1,0.4-1.8c0-0.7-0.1-1.2-0.4-1.6
	c-0.3-0.4-0.6-0.6-1.1-0.6c-0.5,0-0.9,0.2-1.1,0.6C154.1,222.5,154,223.1,154,223.9z"/>
<path class="st8" d="M165.8,220.1v7.8c0,0.8-0.2,1.5-0.6,1.9c-0.4,0.5-1.1,0.7-1.9,0.7c-0.3,0-0.7,0-1-0.1v-1.6
	c0.2,0,0.4,0.1,0.6,0.1c0.6,0,0.9-0.3,0.9-1v-7.8H165.8z M163.6,218.2c0-0.3,0.1-0.5,0.3-0.7s0.5-0.3,0.8-0.3s0.6,0.1,0.8,0.3
	s0.3,0.4,0.3,0.7c0,0.3-0.1,0.5-0.3,0.7c-0.2,0.2-0.5,0.3-0.8,0.3c-0.3,0-0.6-0.1-0.8-0.3C163.7,218.7,163.6,218.5,163.6,218.2z"/>
<path class="st8" d="M170.7,227.6c-1.1,0-2-0.3-2.6-1c-0.7-0.7-1-1.6-1-2.7v-0.2c0-0.7,0.1-1.4,0.4-2c0.3-0.6,0.7-1,1.2-1.4
	c0.5-0.3,1.1-0.5,1.8-0.5c1,0,1.8,0.3,2.4,1s0.9,1.5,0.9,2.7v0.8h-4.7c0.1,0.5,0.3,0.9,0.6,1.2s0.7,0.4,1.2,0.4
	c0.8,0,1.4-0.3,1.8-0.8l1,1.1c-0.3,0.4-0.7,0.7-1.2,1C171.9,227.5,171.3,227.6,170.7,227.6z M170.5,221.5c-0.4,0-0.7,0.1-1,0.4
	c-0.2,0.3-0.4,0.6-0.5,1.1h2.7v-0.2c0-0.4-0.1-0.8-0.4-1C171.2,221.7,170.9,221.5,170.5,221.5z"/>
<path class="st8" d="M175.4,227.5v-5.9h-1.1v-1.4h1.1v-0.6c0-0.8,0.2-1.5,0.7-1.9c0.5-0.5,1.1-0.7,2-0.7c0.3,0,0.6,0,1,0.1l0,1.5
	c-0.2,0-0.4-0.1-0.6-0.1c-0.7,0-1.1,0.3-1.1,1v0.6h1.5v1.4h-1.5v5.9H175.4z"/>
<path class="st8" d="M183.3,227.6c-1.1,0-2-0.3-2.6-1c-0.7-0.7-1-1.6-1-2.7v-0.2c0-0.7,0.1-1.4,0.4-2c0.3-0.6,0.7-1,1.2-1.4
	c0.5-0.3,1.1-0.5,1.8-0.5c1,0,1.8,0.3,2.4,1s0.9,1.5,0.9,2.7v0.8h-4.7c0.1,0.5,0.3,0.9,0.6,1.2s0.7,0.4,1.2,0.4
	c0.8,0,1.4-0.3,1.8-0.8l1,1.1c-0.3,0.4-0.7,0.7-1.2,1C184.5,227.5,183.9,227.6,183.3,227.6z M183.1,221.5c-0.4,0-0.7,0.1-1,0.4
	c-0.2,0.3-0.4,0.6-0.5,1.1h2.7v-0.2c0-0.4-0.1-0.8-0.4-1C183.8,221.7,183.5,221.5,183.1,221.5z"/>
<path class="st8" d="M89.6,242.7c0-1.2,0.3-2.1,0.8-2.8s1.2-1,2.1-1c0.7,0,1.3,0.3,1.8,0.8V236h2v10.5h-1.8l-0.1-0.8
	c-0.5,0.6-1.1,0.9-1.9,0.9c-0.9,0-1.6-0.3-2.1-1C89.8,244.9,89.6,244,89.6,242.7z M91.6,242.9c0,0.7,0.1,1.2,0.4,1.6
	c0.2,0.4,0.6,0.6,1.1,0.6c0.6,0,1-0.3,1.3-0.8v-2.9c-0.2-0.5-0.7-0.8-1.3-0.8C92,240.6,91.6,241.3,91.6,242.9z"/>
<path class="st8" d="M101.2,246.6c-1.1,0-2-0.3-2.6-1s-1-1.6-1-2.7v-0.2c0-0.7,0.1-1.4,0.4-2c0.3-0.6,0.7-1,1.2-1.4
	c0.5-0.3,1.1-0.5,1.8-0.5c1,0,1.8,0.3,2.4,1s0.9,1.5,0.9,2.7v0.8h-4.7c0.1,0.5,0.3,0.9,0.6,1.2s0.7,0.4,1.2,0.4
	c0.8,0,1.4-0.3,1.8-0.8l1,1.1c-0.3,0.4-0.7,0.7-1.2,1C102.4,246.5,101.8,246.6,101.2,246.6z M101,240.5c-0.4,0-0.7,0.1-1,0.4
	s-0.4,0.6-0.5,1.1h2.7v-0.2c0-0.4-0.1-0.8-0.4-1S101.4,240.5,101,240.5z"/>
<path class="st8" d="M111.9,245c0.4,0,0.7-0.1,0.9-0.3s0.3-0.5,0.4-0.8h1.9c0,0.5-0.1,1-0.4,1.4c-0.3,0.4-0.6,0.7-1.1,1
	c-0.5,0.2-1,0.3-1.5,0.3c-1.1,0-1.9-0.3-2.5-1c-0.6-0.7-0.9-1.6-0.9-2.8v-0.1c0-1.1,0.3-2,0.9-2.7s1.4-1,2.5-1
	c0.9,0,1.7,0.3,2.2,0.8c0.6,0.5,0.8,1.2,0.9,2.1h-1.9c0-0.4-0.1-0.7-0.4-0.9c-0.2-0.2-0.5-0.4-0.9-0.4c-0.5,0-0.8,0.2-1,0.5
	c-0.2,0.3-0.4,0.9-0.4,1.6v0.2c0,0.8,0.1,1.3,0.3,1.6S111.4,245,111.9,245z"/>
<path class="st8" d="M115.8,242.7c0-0.7,0.1-1.4,0.4-2s0.7-1,1.2-1.3s1.1-0.5,1.8-0.5c1,0,1.8,0.3,2.4,0.9s1,1.4,1.1,2.5l0,0.5
	c0,1.1-0.3,2-1,2.7c-0.6,0.7-1.5,1-2.5,1s-1.9-0.3-2.6-1S115.8,244,115.8,242.7L115.8,242.7z M117.8,242.9c0,0.7,0.1,1.2,0.4,1.6
	s0.6,0.6,1.1,0.6c0.5,0,0.9-0.2,1.1-0.6c0.3-0.4,0.4-1,0.4-1.8c0-0.7-0.1-1.2-0.4-1.6s-0.6-0.6-1.1-0.6c-0.5,0-0.9,0.2-1.1,0.6
	C117.9,241.5,117.8,242.1,117.8,242.9z"/>
<path class="st8" d="M125.9,239.1l0.1,0.9c0.5-0.7,1.2-1,2.1-1c0.8,0,1.4,0.2,1.8,0.7s0.6,1.1,0.6,2.1v4.8h-2v-4.7
	c0-0.4-0.1-0.7-0.3-0.9c-0.2-0.2-0.5-0.3-0.9-0.3c-0.6,0-1,0.2-1.3,0.7v5.2h-2v-7.4H125.9z"/>
<path class="st8" d="M134.3,237.3v1.8h1.3v1.4h-1.3v3.7c0,0.3,0.1,0.5,0.2,0.6s0.3,0.2,0.6,0.2c0.2,0,0.4,0,0.6,0v1.5
	c-0.4,0.1-0.8,0.2-1.2,0.2c-1.4,0-2.1-0.7-2.1-2.1v-4h-1.1v-1.4h1.1v-1.8H134.3z"/>
<path class="st8" d="M140.9,246.5c-0.1-0.2-0.2-0.4-0.2-0.7c-0.5,0.5-1.1,0.8-1.9,0.8c-0.7,0-1.3-0.2-1.8-0.6s-0.7-0.9-0.7-1.6
	c0-0.8,0.3-1.4,0.9-1.8s1.4-0.6,2.5-0.6h0.9v-0.4c0-0.3-0.1-0.6-0.3-0.8s-0.5-0.3-0.8-0.3c-0.3,0-0.6,0.1-0.8,0.2s-0.3,0.4-0.3,0.7
	h-2c0-0.4,0.1-0.8,0.4-1.2s0.6-0.7,1.1-0.9c0.5-0.2,1-0.3,1.6-0.3c0.9,0,1.6,0.2,2.2,0.7c0.5,0.5,0.8,1.1,0.8,1.9v3.2
	c0,0.7,0.1,1.2,0.3,1.6v0.1H140.9z M139.3,245.1c0.3,0,0.6-0.1,0.8-0.2c0.2-0.1,0.4-0.3,0.5-0.5v-1.3h-0.7c-1,0-1.5,0.3-1.6,1l0,0.1
	c0,0.2,0.1,0.4,0.3,0.6S139,245.1,139.3,245.1z"/>
<path class="st8" d="M150.8,242.9c0,1.2-0.3,2.1-0.8,2.8c-0.5,0.7-1.2,1-2.1,1c-0.8,0-1.4-0.3-1.9-0.9l-0.1,0.8h-1.8V236h2v3.8
	c0.5-0.5,1.1-0.8,1.8-0.8c0.9,0,1.6,0.3,2.1,1c0.5,0.7,0.8,1.6,0.8,2.8V242.9z M148.8,242.7c0-0.7-0.1-1.3-0.4-1.6
	c-0.2-0.3-0.6-0.5-1.1-0.5c-0.6,0-1.1,0.3-1.3,0.8v2.9c0.2,0.5,0.7,0.8,1.3,0.8c0.6,0,1.1-0.3,1.3-0.9
	C148.8,243.8,148.8,243.3,148.8,242.7z"/>
<path class="st8" d="M152,237.2c0-0.3,0.1-0.5,0.3-0.7s0.5-0.3,0.8-0.3c0.3,0,0.6,0.1,0.8,0.3c0.2,0.2,0.3,0.4,0.3,0.7
	c0,0.3-0.1,0.5-0.3,0.7c-0.2,0.2-0.5,0.3-0.8,0.3c-0.3,0-0.6-0.1-0.8-0.3C152.1,237.7,152,237.5,152,237.2z M154.1,246.5h-2v-7.4h2
	V246.5z"/>
<path class="st8" d="M157.8,246.5h-2V236h2V246.5z"/>
<path class="st8" d="M159.4,237.2c0-0.3,0.1-0.5,0.3-0.7s0.5-0.3,0.8-0.3c0.3,0,0.6,0.1,0.8,0.3c0.2,0.2,0.3,0.4,0.3,0.7
	c0,0.3-0.1,0.5-0.3,0.7c-0.2,0.2-0.5,0.3-0.8,0.3c-0.3,0-0.6-0.1-0.8-0.3C159.5,237.7,159.4,237.5,159.4,237.2z M161.5,246.5h-2
	v-7.4h2V246.5z"/>
<path class="st8" d="M162.8,242.7c0-1.2,0.3-2.1,0.8-2.8c0.5-0.7,1.2-1,2.1-1c0.7,0,1.3,0.3,1.8,0.8V236h2v10.5h-1.8l-0.1-0.8
	c-0.5,0.6-1.1,0.9-1.9,0.9c-0.9,0-1.6-0.3-2.1-1C163.1,244.9,162.8,244,162.8,242.7z M164.8,242.9c0,0.7,0.1,1.2,0.4,1.6
	c0.2,0.4,0.6,0.6,1.1,0.6c0.6,0,1-0.3,1.3-0.8v-2.9c-0.2-0.5-0.7-0.8-1.3-0.8C165.3,240.6,164.8,241.3,164.8,242.9z"/>
<path class="st8" d="M175.3,246.5c-0.1-0.2-0.2-0.4-0.2-0.7c-0.5,0.5-1.1,0.8-1.9,0.8c-0.7,0-1.3-0.2-1.8-0.6
	c-0.5-0.4-0.7-0.9-0.7-1.6c0-0.8,0.3-1.4,0.9-1.8s1.4-0.6,2.5-0.6h0.9v-0.4c0-0.3-0.1-0.6-0.3-0.8c-0.2-0.2-0.5-0.3-0.8-0.3
	c-0.3,0-0.6,0.1-0.8,0.2c-0.2,0.2-0.3,0.4-0.3,0.7h-2c0-0.4,0.1-0.8,0.4-1.2c0.3-0.4,0.6-0.7,1.1-0.9c0.5-0.2,1-0.3,1.6-0.3
	c0.9,0,1.6,0.2,2.2,0.7c0.5,0.5,0.8,1.1,0.8,1.9v3.2c0,0.7,0.1,1.2,0.3,1.6v0.1H175.3z M173.7,245.1c0.3,0,0.6-0.1,0.8-0.2
	c0.2-0.1,0.4-0.3,0.5-0.5v-1.3h-0.7c-1,0-1.5,0.3-1.6,1l0,0.1c0,0.2,0.1,0.4,0.3,0.6C173.1,245,173.4,245.1,173.7,245.1z"/>
<path class="st8" d="M178.2,242.7c0-1.2,0.3-2.1,0.8-2.8c0.5-0.7,1.2-1,2.1-1c0.7,0,1.3,0.3,1.8,0.8V236h2v10.5h-1.8l-0.1-0.8
	c-0.5,0.6-1.1,0.9-1.9,0.9c-0.9,0-1.6-0.3-2.1-1C178.5,244.9,178.2,244,178.2,242.7z M180.2,242.9c0,0.7,0.1,1.2,0.4,1.6
	c0.2,0.4,0.6,0.6,1.1,0.6c0.6,0,1-0.3,1.3-0.8v-2.9c-0.2-0.5-0.7-0.8-1.3-0.8C180.7,240.6,180.2,241.3,180.2,242.9z"/>
<g id="Grupo_70422" transform="translate(78.216 22.49)">
	<g id="Grupo_70419" transform="translate(0 16.116)">
		<path id="Trazado_109606" class="st4" d="M41,56.9c-2.3-7.1-7.7-5.5-8.3-5.3c-0.5,0.1-6.2,0.9-5.2,8.3c1,7.5,5.3,11.5,9.4,10.3
			C41.2,69.6,43.4,64.1,41,56.9z"/>
		<path id="Trazado_109607" class="st4" d="M87,56.9c2.3-7.1,7.7-5.5,8.3-5.3c0.5,0.1,6.2,0.9,5.2,8.3c-1,7.5-5.3,11.5-9.4,10.3
			C86.8,69.6,84.6,64.1,87,56.9z"/>
		<path id="Trazado_109608" class="st3" d="M35.5,46.1c2.9-31.3,26.6-29.5,28.9-29.3c2.2-0.2,26-2,28.9,29.3
			c2.9,31.5-11.1,52-28.9,50.9C46.6,98.1,32.6,77.5,35.5,46.1z"/>
	</g>
	<g id="Grupo_70420" transform="translate(1.759)">
		<path id="Trazado_109609" class="st9" d="M32.6,40.2c0,0-6.4,4.1-1.8,18.4l2.8,16.1l2.3,0.5c0,0-0.9-24.4,6.9-29.9
			S32.6,40.2,32.6,40.2z"/>
		<path id="Trazado_109610" class="st10" d="M81.8,42.5c0,0-30.8,17.9-47.4,3.7s0.9-21.6,7.8-20.7c0,0-2.3-7.8,6.9-8.7
			c9.2-0.9,7.4,8.3,21.2,8.3S91,26,89.6,37.5c0,0,6.9-4.1,9.2,3.7s-6.4,33.6-6.4,33.6l-0.9,4.1h-2.3V56.8
			C89.2,56.8,80.4,59.5,81.8,42.5z"/>
		<path id="Trazado_109611" class="st9" d="M98.8,41.1c-2.3-7.8-9.2-3.7-9.2-3.7c0.8-6.6-1.2-9.7-5.6-11.2c-0.8,6.7-3.2,13-6.9,18.6
			c2.9-1.4,4.7-2.4,4.7-2.4c-1.4,17,7.4,14.3,7.4,14.3v22.1h2.3l0.9-4.1C92.4,74.7,101.1,49,98.8,41.1z"/>
	</g>
	<g id="Grupo_70421" transform="translate(5.557 42.613)">
		<path id="Trazado_109612" class="st11" d="M62.9,23.2l1.9,17.5l-5.4,3.7"/>
		<path id="Trazado_109613" class="st12" d="M70.9,50.1c-5.7,5.5-15.3,5.2-22.5,0.3"/>
		<path id="Trazado_109614" class="st13" d="M81.2,20.9c0,0-7.5-9.1-14.9-0.6"/>
		<path id="Trazado_109615" class="st13" d="M51.6,20.9c0,0-7.5-9.1-14.9-0.6"/>
		<path id="Trazado_109616" class="st14" d="M27.5,24.2l8,6.2L55.6,31c0,0,5.2-7.3,9.5,0h20.7l6.2-5.8"/>
		<circle id="Elipse_4103" class="st15" cx="45.2" cy="31" r="10.4"/>
		<circle id="Elipse_4104" class="st15" cx="75.5" cy="31" r="10.4"/>
		<path id="Trazado_109617" class="st16" d="M50.6,32.3c0,0-0.4-6-5.6-5.6c-4.3,0.4-3.9,5.6-3.9,5.6"/>
		<path id="Trazado_109618" class="st16" d="M77.3,31.8c0,0-0.4-6-5.6-5.6c-4.3,0.4-3.9,5.6-3.9,5.6"/>
	</g>
</g>
</svg>
