<svg xmlns="http://www.w3.org/2000/svg" width="91" height="91" viewBox="0 0 91 91"><g transform="translate(-334 -11692.369)"><circle cx="45.5" cy="45.5" r="45.5" transform="translate(334 11692.369)" fill="#7e5ee3"/><g transform="translate(-625.919 10959.949)"><path d="M1037.6,769.247a1.526,1.526,0,0,1-1.516.79c-3.133-.026-6.267-.007-9.4-.019a.852.852,0,0,0-.779.38,8.971,8.971,0,0,1-5.509,3.672,4.072,4.072,0,0,1-1.269.09,1.582,1.582,0,0,0-1.435.6q-5.169,5.215-10.375,10.393c-.812.812-1.36.81-2.17,0l-20.533-20.529c-.919-.919-.916-1.339.015-2.269q5.782-5.781,11.567-11.56c.285-.284.605-.534.909-.8h.667c.295.248.608.478.881.748,1.03,1.015,2.039,2.051,3.078,3.056a.724.724,0,0,0,.6.169c1.437-.488,2.876-.972,4.284-1.537a9.3,9.3,0,0,1,7.652.2c1.562.72,3.093,1.51,4.622,2.3,1.1.568,2.165,1.211,3.269,1.775a4.907,4.907,0,0,0,2.334.528c.2-1.138.461-1.376,1.471-1.384.334,0,.667,0,1,0h1.8c0-.256,0-.421,0-.585.013-1.157.343-1.488,1.493-1.489,1.947,0,3.893.021,5.839-.011a1.46,1.46,0,0,1,1.5.8Zm-33.8-13.408a2.3,2.3,0,0,0,.162.21c1.257,1.26,2.511,2.522,3.78,3.77a1.467,1.467,0,0,0,.571.311c1.884.607,3.774,1.2,5.66,1.8.653.207,1.312.4,1.951.642a1.074,1.074,0,0,1,.639,1.368,1.108,1.108,0,0,1-1.279.73,4.518,4.518,0,0,1-.532-.156q-4.685-1.481-9.37-2.96a2.152,2.152,0,0,0-2.609.919,2.073,2.073,0,0,0,.4,2.681,4.463,4.463,0,0,0,1.466.856c2.723.958,5.467,1.854,8.19,2.813a2.813,2.813,0,0,1,1.09.779,6.39,6.39,0,0,0,6.455,2.176,6.693,6.693,0,0,0,4.065-3.168.909.909,0,0,0,.108-.475c.006-2.725,0-5.451.01-8.176,0-.348-.094-.486-.46-.512a9.379,9.379,0,0,1-3.789-1.166c-2.35-1.255-4.7-2.51-7.1-3.682a6.624,6.624,0,0,0-5.141-.327C1006.655,754.749,1005.26,755.3,1003.8,755.839Zm-12.964,3.577a7.141,7.141,0,0,1,.008,8.168l11.3,11.3a7.228,7.228,0,0,1,8.179,0l2.532-2.532a7.151,7.151,0,0,1-1.264-4.619c.067-.97.075-.969-.86-1.286l-2.731-.927c-.089.24-.151.412-.215.584a6.336,6.336,0,1,1-7.536-8.354,1.29,1.29,0,0,0,.652-.5,4.592,4.592,0,0,1,2.526-1.892c.153-.047.307-.092.555-.165-.714-.7-1.384-1.339-2.022-2.006a.509.509,0,0,0-.784-.1,6.51,6.51,0,0,1-5.057.918,24.221,24.221,0,0,1-2.866-1.02Zm44.5,8.384V756.03h-4.318v11.738a2.938,2.938,0,0,0,.295.031C1032.645,767.8,1033.975,767.8,1035.339,767.8Zm-35.076-3.674a4.063,4.063,0,0,0-2.405,4.778,4.112,4.112,0,0,0,4.316,3.095c1.862-.195,3.561-1.708,3.6-3.26C1003.286,768.023,1000.825,767.224,1000.263,764.125Zm26.557-6.019v9.657h1.91v-9.657Zm-22.958,22.4,2.341,2.341,2.372-2.369A4.544,4.544,0,0,0,1003.863,780.506Zm-14.684-14.539a4.585,4.585,0,0,0-.01-4.9l-2.448,2.444Zm8.2-13.229q-1.115,1.124-2.223,2.243c-.063.063-.116.136-.173.2,1.1,1,3.915.978,4.873.026Zm16.991,21.969,1.182-1.2-1.871-1Z" transform="translate(-3.639)" fill="#fff"/><path d="M977,827.561a1.647,1.647,0,0,1,1.6-.752c3.076.024,6.153,0,9.229.018a1.011,1.011,0,0,0,.92-.446,8.495,8.495,0,0,1,5.538-3.6,8.675,8.675,0,0,1,7.852,2.755,2.14,2.14,0,0,0,.8.544c2.393.833,4.784,1.676,7.2,2.441a5.7,5.7,0,0,1,4.02,3.4c1.715-.474,3.4-.956,5.1-1.4a40.858,40.858,0,0,1,4.414-1.068,4.319,4.319,0,0,1,3.526,7.373,7.018,7.018,0,0,1-2.3,1.5c-5.778,2.133-11.582,4.2-17.384,6.266-.692.246-1.425.374-2.138.558h-1.892a20.617,20.617,0,0,1-6.513-2.557c-1.317-.672-2.594-1.421-3.888-2.138a6.342,6.342,0,0,0-2.981-.845c-.177,1.171-.458,1.409-1.612,1.41h-2.616c-.013.229-.028.392-.03.556-.017,1.184-.342,1.507-1.532,1.509-1.962,0-3.925-.012-5.887.008a1.352,1.352,0,0,1-1.418-.835Zm13.045,9.809a10.923,10.923,0,0,1,5.628,1.978c.491.3.993.579,1.506.836,1.44.721,2.865,1.478,4.338,2.124a7.591,7.591,0,0,0,5.934-.057c5.533-2.056,11.1-4.008,16.663-6a3.469,3.469,0,0,0,1.8-1.334,2.1,2.1,0,0,0-1.462-3.258,3.957,3.957,0,0,0-1.476.129c-2.736.732-5.46,1.506-8.192,2.249a.841.841,0,0,0-.665.623,4.251,4.251,0,0,1-4.892,2.9,36.331,36.331,0,0,1-3.667-1.094c-2.207-.693-4.417-1.378-6.609-2.114a1.481,1.481,0,0,1-.865-.744,1.273,1.273,0,0,1,.239-1.094,1.3,1.3,0,0,1,1.083-.288c1.64.454,3.255.994,4.879,1.508,1.658.525,3.312,1.064,4.974,1.577a2.162,2.162,0,0,0,2.561-.928,2.085,2.085,0,0,0-.426-2.724,4.764,4.764,0,0,0-1.527-.862c-2.706-.952-5.432-1.846-8.138-2.795a2.5,2.5,0,0,1-1.01-.707,6.291,6.291,0,0,0-10.4.7,1.611,1.611,0,0,0-.267.866c-.02,2.633-.011,5.265-.011,7.9Zm-6.435,3.457V833.57c0-1.351.008-2.7-.011-4.055,0-.157-.15-.444-.235-.446-1.364-.029-2.729-.02-4.1-.02v11.777Zm4.167-2.075V829.09H985.89v9.661Z" transform="translate(0 -38.177)" fill="#fff"/><path d="M1058.72,780.077a1.083,1.083,0,0,1-1.092,1.092,1.1,1.1,0,1,1,.012-2.2A1.085,1.085,0,0,1,1058.72,780.077Z" transform="translate(-41.768 -15.22)" fill="#fff"/><path d="M1013.934,839.99a1.12,1.12,0,0,1,1.109,1.091,1.144,1.144,0,0,1-1.144,1.124,1.115,1.115,0,0,1-1.067-1.131A1.084,1.084,0,0,1,1013.934,839.99Z" transform="translate(-18.824 -47.274)" fill="#fff"/></g></g></svg>