<svg xmlns="http://www.w3.org/2000/svg" width="91" height="91" viewBox="0 0 91 91"><g transform="translate(-755 -11692.369)"><circle cx="45.5" cy="45.5" r="45.5" transform="translate(755 11692.369)" fill="#7e5ee3"/><g transform="translate(-294.192 11286.867)"><path d="M1172.039,488.231c-.7,1.25-1.252,1.462-2.635,1.016-.784-.253-1.572-.494-2.35-.766a1.67,1.67,0,1,1,1.022-3.176,19.943,19.943,0,0,1,2.748.929,5.339,5.339,0,0,1,1.215,1.13Z" transform="translate(-45.629 -29.041)" fill="#fff"/><path d="M1125.654,441.3a4.211,4.211,0,0,1-1.4,3.125q-4.819,4.681-9.628,9.372a1.373,1.373,0,0,0-.459,1.367c.79,4.487,1.549,8.98,2.305,13.473a3.952,3.952,0,0,1-1.6,4.034,3.9,3.9,0,0,1-4.37.4c-2.517-1.28-5.006-2.615-7.506-3.928-1.533-.8-3.075-1.594-4.593-2.426a1.473,1.473,0,0,0-1.559-.006q-5.951,3.163-11.931,6.275a4.12,4.12,0,0,1-6.023-2.441,5.607,5.607,0,0,1-.066-2.313c.7-4.355,1.458-8.7,2.232-13.046a1.425,1.425,0,0,0-.483-1.42c-3.186-3.089-6.35-6.2-9.542-9.284a4.209,4.209,0,0,1,2.423-7.377c4.411-.615,8.814-1.29,13.223-1.915a1.387,1.387,0,0,0,1.16-.865q2.961-6.054,5.958-12.091a4.17,4.17,0,0,1,5.291-2.2,4.244,4.244,0,0,1,2.367,2.234c1.973,4.013,3.964,8.019,5.928,12.037a1.422,1.422,0,0,0,1.208.885c4.472.628,8.938,1.293,13.407,1.944A4.17,4.17,0,0,1,1125.654,441.3Zm-13.381,28.886a.893.893,0,0,0,.885-1.153c-.75-4.369-1.475-8.743-2.266-13.105a4.724,4.724,0,0,1,1.461-4.592c3.161-3.026,6.275-6.1,9.407-9.157a2.688,2.688,0,0,0,.417-.454c.354-.561.025-1.16-.728-1.273-4.406-.655-8.81-1.326-13.224-1.928a4.622,4.622,0,0,1-3.835-2.719c-1.824-3.766-3.7-7.509-5.548-11.261-.155-.314-.3-.636-.474-.938a.823.823,0,0,0-1.52.018c-.083.142-.15.293-.223.441-1.943,3.937-3.9,7.869-5.824,11.814a4.368,4.368,0,0,1-3.452,2.594c-2.325.344-4.654.673-6.98,1.011-2.224.324-4.449.642-6.671.981a.81.81,0,0,0-.7,1.171,2.1,2.1,0,0,0,.441.511q4.786,4.671,9.577,9.338a4.3,4.3,0,0,1,1.364,4.033c-.769,4.449-1.516,8.9-2.284,13.353-.074.431-.127.823.259,1.126.419.33.809.137,1.205-.071,3.9-2.055,7.821-4.086,11.71-6.168a4.589,4.589,0,0,1,4.647-.02c3.891,2.078,7.806,4.114,11.713,6.163C1111.867,470.027,1112.117,470.121,1112.273,470.19Z" transform="translate(-2.92)" fill="#fff"/><path d="M1117.017,523.847c0-.556-.038-1.115.008-1.667a1.6,1.6,0,0,1,1.655-1.5,1.563,1.563,0,0,1,1.615,1.469,33.108,33.108,0,0,1,0,3.4,1.569,1.569,0,0,1-1.613,1.473,1.607,1.607,0,0,1-1.656-1.5C1116.979,524.962,1117.017,524.4,1117.017,523.847Z" transform="translate(-23.97 -44.775)" fill="#fff"/><path d="M1067.16,485.208a1.815,1.815,0,0,1,1.985,1.247,1.578,1.578,0,0,1-.856,1.869,32.342,32.342,0,0,1-3.4,1.112,1.57,1.57,0,0,1-1.781-1.023,1.5,1.5,0,0,1,.6-1.95C1064.923,485.925,1066.21,485.545,1067.16,485.208Z" transform="translate(0 -29.037)" fill="#fff"/><path d="M1085.538,423.342a4.32,4.32,0,0,1,1.08.74,26.935,26.935,0,0,1,1.758,2.39,1.666,1.666,0,1,1-2.7,1.947q-.916-1.207-1.775-2.457a1.582,1.582,0,0,1-.066-1.756A1.829,1.829,0,0,1,1085.538,423.342Z" transform="translate(-9.15 -1.588)" fill="#fff"/><path d="M1152.341,425.106a5.721,5.721,0,0,1-.43,1c-.53.786-1.094,1.55-1.667,2.306a1.671,1.671,0,1,1-2.695-1.969c.568-.81,1.145-1.616,1.753-2.4a1.587,1.587,0,0,1,1.881-.542A1.808,1.808,0,0,1,1152.341,425.106Z" transform="translate(-37.354 -1.609)" fill="#fff"/></g></g></svg>