<svg xmlns="http://www.w3.org/2000/svg" width="91" height="91" viewBox="0 0 91 91"><g transform="translate(-1175 -11692.369)"><circle cx="45.5" cy="45.5" r="45.5" transform="translate(1175 11692.369)" fill="#7e5ee3"/><g transform="translate(621.636 10581.299)"><path d="M628.943,1148.667a1.84,1.84,0,0,0-.945-1.72c-3.314-2.107-6.61-4.244-9.914-6.375-.637-.409-1.533-.673-1.845-1.255a5.392,5.392,0,0,1-.106-2.289c-.009-1.091-.475-1.567-1.567-1.572-1.319-.006-2.638-.01-3.956,0a1.652,1.652,0,0,1-.95-.27c-3.037-1.912-6.089-3.8-9.118-5.719a1.686,1.686,0,0,0-2.037-.018c-3.026,1.928-6.08,3.813-9.117,5.725a1.762,1.762,0,0,1-1.008.283q-2.637-.021-5.273,0a1.32,1.32,0,0,0-1.5,1.112,1.343,1.343,0,0,0-.005.341c-.007.7,0,1.4,0,2.1a.474.474,0,0,1-.233.486c-3.881,2.479-7.747,4.982-11.632,7.452a1.833,1.833,0,0,0-.946,1.717q.022,16.211,0,32.421a1.672,1.672,0,0,0,.938,1.7H628a1.67,1.67,0,0,0,.937-1.7Q628.923,1164.879,628.943,1148.667ZM599.22,1132.05c.152-.1.279-.2.478-.077,1.792,1.129,3.589,2.251,5.51,3.454h-11.4C595.713,1134.24,597.468,1133.146,599.22,1132.05Zm-14.475,5.979c4.715.015,9.43.009,14.144.009,4.694,0,9.39.008,14.084-.01.492,0,.626.119.625.621q-.026,13.813,0,27.625a.837.837,0,0,1-.49.834c-1.138.66-2.266,1.339-3.373,2.049a.809.809,0,0,1-.962.032c-3.174-1.752-6.367-3.469-9.535-5.23a1.807,1.807,0,0,0-2,.007c-2.869,1.681-5.774,3.307-8.653,4.974a.8.8,0,0,1-.963-.024c-.989-.638-2-1.239-3.015-1.83a.791.791,0,0,1-.46-.791q.023-13.844,0-27.687c0-.493.154-.58.6-.579Zm-13.363,11.413a.688.688,0,0,1,.308-.7c3.277-2.092,6.543-4.2,9.866-6.341v22.828c-3.133-1.9-6.2-3.8-9.307-5.632a1.551,1.551,0,0,1-.886-1.593C571.417,1155.157,571.382,1152.3,571.382,1149.442Zm.03,12.62,14.15,8.591-14.15,8.086Zm2.777,18.169c-.047-.212.152-.212.251-.273q11.7-6.693,23.4-13.382a.754.754,0,0,1,.858.008q12.219,6.681,24.445,13.34c.117.064.227.141.492.307Zm52.119-1.487-14.45-7.884,14.45-8.777Zm.051-20.159a.673.673,0,0,1-.325.69q-4.813,2.893-9.611,5.813c-.065.04-.134.073-.273.147v-22.778c.212-.02.334.135.476.226q4.652,2.988,9.3,5.979a.787.787,0,0,1,.437.753c-.017,3.055-.012,6.11-.006,9.165Z" fill="#fff"/><path d="M584.675,1127.4c.3.737.573,1.488.9,2.209a1.2,1.2,0,0,0,1.422.71,1.276,1.276,0,0,0,.989-1.349,2.76,2.76,0,0,0-.106-.419q-1.242-3.131-2.494-6.256a1.423,1.423,0,0,0-.4-.585,1.275,1.275,0,0,0-1.983,1.488C583.544,1124.595,584.114,1125.994,584.675,1127.4Z" fill="#fff"/><path d="M612.164,1130.348a1.259,1.259,0,0,0,1.324-.818c.859-2.118,1.7-4.244,2.543-6.368a2.754,2.754,0,0,0,.106-.364,1.337,1.337,0,0,0-1-1.365,1.282,1.282,0,0,0-1.487.821q-1.282,3.147-2.526,6.311a1.243,1.243,0,0,0-.089.7A1.306,1.306,0,0,0,612.164,1130.348Z" fill="#fff"/><path d="M572.234,1134.3c.693.692,1.382,1.391,2.083,2.072a1.191,1.191,0,0,0,1.433.25,1.294,1.294,0,0,0,.273-2.152c-1.442-1.439-2.879-2.886-4.327-4.319a1.284,1.284,0,0,0-2,1.613,1.265,1.265,0,0,0,.205.2C570.675,1132.75,571.457,1133.523,572.234,1134.3Z" fill="#fff"/><path d="M622.04,1136.64a1.207,1.207,0,0,0,1.425-.3c1.488-1.478,2.975-2.957,4.449-4.453a1.276,1.276,0,0,0-1.825-1.784h0c-1.48,1.459-2.942,2.936-4.41,4.405a1.215,1.215,0,0,0-.425.824A1.28,1.28,0,0,0,622.04,1136.64Z" fill="#fff"/><path d="M589.58,1150.805h14.741c1.148,0,1.594-.445,1.594-1.594q0-3.506,0-7.012c0-1.156-.471-1.61-1.648-1.61H589.585c-1.123,0-1.594.469-1.594,1.607q0,3.505,0,7.012C587.993,1150.362,588.431,1150.8,589.58,1150.805Zm.974-3.07c.039-1.376.024-2.753.006-4.129,0-.352.072-.483.457-.482q5.926.023,11.851,0c.437,0,.478.17.474.525-.015,1.382-.021,2.753,0,4.13.007.39-.1.5-.49.492-1.975-.021-3.95-.009-5.925-.009-1.935,0-3.871-.012-5.806.009-.41,0-.582-.053-.568-.536Z" fill="#fff"/><path d="M588.681,1161.075c3.195-.034,6.391-.016,9.587-.016,3.235,0,6.471-.006,9.707.009.389,0,.531-.094.5-.494a8.9,8.9,0,0,1,0-1.5c.051-.518-.143-.611-.627-.609-5.153.019-10.306.012-15.458.012-1.319,0-2.636.009-3.955-.007-.329,0-.47.079-.449.433a9.291,9.291,0,0,1,0,1.436C587.923,1160.9,588.078,1161.082,588.681,1161.075Z" fill="#fff"/><path d="M588.559,1155.946c3.214-.025,6.428-.013,9.642-.013,3.234,0,6.468-.013,9.7.013.487,0,.6-.144.568-.593a7.032,7.032,0,0,1,0-1.376c.058-.522-.141-.605-.622-.6q-9.612.025-19.225.012c-.1,0-.2.008-.3,0-.26-.025-.349.09-.341.347.015.539.034,1.08,0,1.616C587.946,1155.8,588.07,1155.949,588.559,1155.946Z" fill="#fff"/></g></g></svg>