<svg xmlns="http://www.w3.org/2000/svg" width="91" height="91" viewBox="0 0 91 91"><g transform="translate(-545 -12050.369)"><circle cx="45.5" cy="45.5" r="45.5" transform="translate(545 12050.369)" fill="#7e5ee3"/><path d="M1195.414,655.3c.061.122.086.189.124.248,1.042,1.578,1.005,1.783-.516,2.849q-5.2,3.637-10.391,7.272c-1.015.709-1.525.616-2.235-.4q-5.774-8.237-11.544-16.476c-.715-1.022-.629-1.537.379-2.243q5.371-3.766,10.746-7.526c1.06-.739,1.522-.65,2.283.428.335.475.662.951,1.042,1.484l.616-.391c2.168-1.382,4.345-2.751,6.49-4.164a1.128,1.128,0,0,0,.342-.831c.02-4.91.014-9.822.014-14.732V603.9a3.538,3.538,0,0,1,3.9-3.877H1233.2a3.543,3.543,0,0,1,3.915,3.935q0,15.608-.007,31.215a1.123,1.123,0,0,0,.6,1.153,4.343,4.343,0,0,1,2.175,4.513,4.439,4.439,0,0,1-3.072,3.819c-3.093,1.15-6.2,2.26-9.3,3.39-4.72,1.722-9.445,3.42-14.153,5.166a16.913,16.913,0,0,1-9.607.566,10.534,10.534,0,0,0-7.932,1.244C1195.7,655.1,1195.58,655.185,1195.414,655.3Zm-.289-20.037.561-.168a23.515,23.515,0,0,1,10.729-.938c3.576.558,7.134,1.2,10.693,1.844a14.03,14.03,0,0,1,3.363.852,4.88,4.88,0,0,0,2.339.523q.656-.032,1.313,0a18.533,18.533,0,0,0,9.582-1.494,5.57,5.57,0,0,1,1.044-.291V609.406h-13.972v5.58a1.216,1.216,0,0,1-.76,1.281,1.192,1.192,0,0,1-1.376-.382l-2.884-2.891c-.265-.265-.538-.529-.833-.821-1.289,1.3-2.5,2.528-3.723,3.74a1.14,1.14,0,0,1-1.873-.075,2.009,2.009,0,0,1-.216-.968c-.02-1.816-.01-3.632-.01-5.467h-13.978Zm10.212,5.764c1.831.323,3.576.633,5.319.938,2.464.43,4.922.888,7.392,1.274a2.261,2.261,0,0,0,2.614-1.841c.006-.034.011-.068.016-.1a2.31,2.31,0,0,0-1.865-2.632q-.284-.068-.571-.117c-3.49-.617-6.988-1.192-10.464-1.855-8.079-1.528-14.916,1.06-21.044,6.274l7.25,10.363a1.008,1.008,0,0,0,.222-.055,12.881,12.881,0,0,1,9.982-1.777,14.536,14.536,0,0,0,8.386-.478c2.331-.9,4.694-1.722,7.043-2.571q8.174-2.976,16.344-5.961a2.29,2.29,0,0,0,1.564-2.836c-.019-.065-.04-.129-.065-.192a2.324,2.324,0,0,0-2.975-1.4c-.045.016-.09.034-.133.052q-5.512,1.987-11.007,4.023a1.188,1.188,0,0,0-.609.529,4.727,4.727,0,0,1-5.543,2.819c-2.1-.388-4.207-.746-6.311-1.121-1.953-.348-3.907-.7-5.922-1.06ZM1183.88,663.34l9.555-6.7-10.7-15.3-9.557,6.7Zm25.186-60.986h-12.7c-.673,0-1.192.326-1.231.992-.073,1.2-.021,2.412-.021,3.623h13.954Zm11.742,4.615h13.971c0-1.12.01-2.187,0-3.254-.01-.939-.442-1.359-1.406-1.361q-6.054-.007-12.107,0c-.141,0-.28.015-.453.024Zm-9.344,5.445c.7-.73,1.251-1.311,1.812-1.882,1.589-1.618,1.73-1.614,3.348.02.564.57,1.134,1.134,1.775,1.775v-9.935h-6.931Z" transform="translate(-617.353 11465.822)" fill="#fff"/></g></svg>