<svg xmlns="http://www.w3.org/2000/svg" width="91" height="91" viewBox="0 0 91 91"><g transform="translate(-965 -12050.369)"><circle cx="45.5" cy="45.5" r="45.5" transform="translate(965 12050.369)" fill="#7e5ee3"/><g transform="translate(-676.81 11929.9)"><path d="M1687.43,166.962c.981.169,1.875.272,2.743.482a13.994,13.994,0,0,1,6.795,3.869.8.8,0,0,0,.9.241,13.4,13.4,0,1,1,3.593,26.376c-13.433.051-26.867.018-40.3.017-.891,0-1.267-.368-1.267-1.244,0-5.244-.049-10.489.016-15.733a14.411,14.411,0,0,1,12.841-13.859c.255-.024.508-.062.919-.114a13.307,13.307,0,0,1-3.521-3.594,12.663,12.663,0,0,1-1.816-4.629,4.341,4.341,0,0,1-3.345-1.511,4.02,4.02,0,0,1-.958-2.346c-.143-2,.945-3.48,3.237-4.385-.641-.974-1.3-1.923-1.907-2.906a8.936,8.936,0,0,1,3.8-12.793,8.6,8.6,0,0,1,3.673-.849q4.481-.013,8.963,0a5.343,5.343,0,0,1,3.72,1.447,15.907,15.907,0,0,1,2.9-1.294,7.313,7.313,0,0,1,8.342,5.424,11.659,11.659,0,0,1-1.192,8.049c-.494,1.016-1.152,1.952-1.735,2.925,2.385,1.06,3.464,2.636,3.167,4.623-.314,2.1-1.8,3.37-4.275,3.626A12.606,12.606,0,0,1,1687.43,166.962Zm1.867,2.387c-.124.228-.242.429-.346.637-1.047,2.092-2.083,4.19-3.148,6.273a2.139,2.139,0,0,1-.742.914c-.282.154-.715.032-1.11.032.012.1.022.205.038.308.546,3.565,1.086,7.132,1.646,10.695a1.417,1.417,0,0,1-.4,1.346c-1.285,1.268-2.551,2.555-3.835,3.824a1.053,1.053,0,0,1-1.73.008c-1.3-1.284-2.608-2.561-3.86-3.89a1.588,1.588,0,0,1-.385-1.144c.31-2.319.7-4.628,1.052-6.941.218-1.412.428-2.826.646-4.272-1.05.307-1.354.176-1.816-.744q-1.631-3.252-3.258-6.505c-.093-.185-.2-.364-.284-.521a1.728,1.728,0,0,0-.191.012,12.361,12.361,0,0,0-9.6,11.77c-.042,4.771-.011,9.543-.01,14.314,0,.123.017.246.026.376h4.132v-15.4h2.05v15.386h25.745c-9.069-6.161-7.671-19.083,1.319-23.367A12.167,12.167,0,0,0,1689.3,169.349Zm23.211,15.168a11.349,11.349,0,1,0-11.346,11.368A11.366,11.366,0,0,0,1712.508,184.517Zm-19.571-36.461a10.907,10.907,0,0,0,1.974-7.182,5.156,5.156,0,0,0-3.554-4.5,3.963,3.963,0,0,0-4.839,1.306c-.51.607-1.1.555-1.681.006-.234-.221-.455-.456-.686-.681a3.277,3.277,0,0,0-2.382-.963c-2.943,0-5.887-.046-8.828.016a6.583,6.583,0,0,0-6.3,4.215c-1.212,2.814-.44,5.346,1.445,7.667.194-1.463.33-1.58,1.792-1.58,1.418,0,2.836,0,4.253,0a5.16,5.16,0,0,0,5.362-5.033c.046-.722.435-1.153,1.038-1.152s.987.434,1.032,1.158a5.155,5.155,0,0,0,5.3,5.026c1.611.008,3.222,0,4.833,0,.81,0,1.167.364,1.209,1.173C1692.912,147.656,1692.92,147.775,1692.938,148.056Zm-22.626,4.523a49.587,49.587,0,0,0,.032,5.477,10.2,10.2,0,0,0,9.278,8.908,10.389,10.389,0,0,0,10.587-6.718c.934-2.5.534-5.082.641-7.652h-1.04c0,1.005.011,1.969,0,2.933a1.024,1.024,0,0,1-1.1,1.146q-3.03.022-6.06,0a1.017,1.017,0,0,1-1.084-1.1c-.013-.31,0-.622,0-.923h-2.065c0,.221,0,.41,0,.6-.008,1.107-.322,1.428-1.409,1.429q-2.74,0-5.48,0c-1.018,0-1.36-.34-1.364-1.343,0-.916,0-1.833,0-2.756Zm20.5-2.09v-2.064c-1.382,0-2.731.017-4.08,0a7.147,7.147,0,0,1-5.859-2.986c-.109-.144-.228-.281-.368-.454a7.038,7.038,0,0,1-4,3.083,10.841,10.841,0,0,1-2.407.346c-1.279.056-2.562.015-3.838.015v2.063h.56q3.707,0,7.415,0c.888,0,1.248.368,1.262,1.251,0,.251,0,.5,0,.811h2.064c0-.293,0-.5,0-.716.008-1.009.343-1.343,1.36-1.347.881,0,1.762,0,2.644,0Zm-11.65,27.041c-.535,3.454-1.064,6.845-1.578,10.239a.914.914,0,0,0,.08.66c.928.973,1.893,1.912,2.891,2.906.873-.884,1.68-1.745,2.539-2.55a1.176,1.176,0,0,0,.366-1.2c-.268-1.586-.5-3.179-.745-4.769-.271-1.75-.544-3.5-.821-5.277C1680.254,178.724,1680.565,178.545,1679.159,177.53Zm-2.524-3.082,2.261-2.271c-1.083-.867-2.221-1.741-3.313-2.671a1.618,1.618,0,0,0-1.6-.374Zm5.538-2.288,2.249,2.277,2.641-5.291-.114-.165a3.457,3.457,0,0,0-1.166.325C1684.545,170.224,1683.357,171.213,1682.173,172.159Zm-8.841-17.588h4.046v-1.985h-4.046Zm10.289,0h4.075v-1.985h-4.051c-.009.133-.022.236-.023.338C1683.62,153.458,1683.621,153.992,1683.621,154.571Zm-15.5-2a2.056,2.056,0,0,0-2.033,2.245,1.941,1.941,0,0,0,2.033,1.779Zm24.815,4.084a2.062,2.062,0,0,0,2.029-2.06,2.033,2.033,0,0,0-2.029-2.015ZM1678.362,169.1c.706.568,1.307,1.067,1.93,1.538a.47.47,0,0,0,.438.02c.637-.478,1.251-.986,1.965-1.558Zm2.064,6.645,1.06-.994-.936-.963-1.1.927Z" transform="translate(0 0)" fill="#fff"/><path d="M1988.765,226.37A12.38,12.38,0,1,1,1976.371,214,12.4,12.4,0,0,1,1988.765,226.37ZM1976.342,236.7a10.317,10.317,0,1,0-10.274-10.392A10.339,10.339,0,0,0,1976.342,236.7Z" transform="translate(-264.907 -69.705)" fill="#fff"/><path d="M1953.078,470.641v2.118h-2.029V470.64a4.26,4.26,0,0,1-3.13-3.984h2.032c.03.131.056.273.094.412a2.063,2.063,0,1,0,2.048-2.522,5.9,5.9,0,0,1-1.266-.2,4.108,4.108,0,0,1-2.89-3.658,4.027,4.027,0,0,1,2.525-4.032.751.751,0,0,0,.572-.892c-.044-.485-.01-.977-.01-1.5h2.063c0,.516.026,1.045-.008,1.569a.674.674,0,0,0,.518.795,3.91,3.91,0,0,1,2.534,3.761h-1.963c-.028-.119-.057-.256-.093-.392a2.063,2.063,0,1,0-2.025,2.484,4.121,4.121,0,0,1,1.7,7.874C1953.533,470.453,1953.316,470.54,1953.078,470.641Z" transform="translate(-250.896 -278.983)" fill="#fff"/><path d="M1787.995,334.2h2.033c0,.353-.01.69,0,1.026a2.06,2.06,0,0,0,4.121-.015c.011-.319,0-.638,0-1h2.028a4.3,4.3,0,0,1-1.8,4.4,3.873,3.873,0,0,1-4.326.159C1788.32,337.774,1787.806,336.169,1787.995,334.2Z" transform="translate(-111.565 -174.395)" fill="#fff"/><path d="M2025.563,286.326l5.547-5.558,1.372,1.418c-.107.122-.222.269-.353.4q-2.752,2.757-5.509,5.509c-.779.777-1.222.774-2.005-.006q-.821-.818-1.636-1.641a.78.78,0,0,1-.081-.14l1.627-1.463Z" transform="translate(-316.206 -127.858)" fill="#fff"/></g></g></svg>