<svg xmlns="http://www.w3.org/2000/svg" xmlns:xlink="http://www.w3.org/1999/xlink" width="505" height="255.024" viewBox="0 0 505 255.024">
  <defs>
    <clipPath id="clip-path">
      <rect id="Rectángulo_5217" data-name="Rectángulo 5217" width="505" height="255.024" transform="translate(915 1705)" fill="#fff" stroke="#707070" stroke-width="1"/>
    </clipPath>
    <clipPath id="clip-path-2">
      <path id="Trazado_116259" data-name="Trazado 116259" d="M124.5-6.945c53.969-2.362,93.1-6.319,116.044,2.692,51.981,20.412,35.326,73.644,35.326,119.835,0,66.367-82.611,124.728-151.37,124.728S-21.8,186.51-21.8,120.143-53.028.823,124.5-6.945Z" transform="translate(23.915 0.737)" fill="#e4ddfa"/>
    </clipPath>
  </defs>
  <g id="Grupo_46" data-name="Grupo 46" transform="translate(-915 -1705)" clip-path="url(#clip-path)">
    <path id="Trazado_116258" data-name="Trazado 116258" d="M124.5,0C193.259,0,249,57.089,249,127.512S193.259,255.024,124.5,255.024,0,197.935,0,127.512,55.741,0,124.5,0Z" transform="translate(1021 1705)" fill="#e4ddfa"/>
    <g id="Enmascarar_grupo_91" data-name="Enmascarar grupo 91" transform="translate(997.085 1718.977)" clip-path="url(#clip-path-2)">
      <g id="Grupo_73231" data-name="Grupo 73231" transform="translate(21.915 -5.079)">
        <g id="computer" transform="translate(24.468 107.216)">
          <rect id="Rectángulo_32337" data-name="Rectángulo 32337" width="31.839" height="14.27" transform="translate(70.02 100.055)" fill="#969595"/>
          <g id="Grupo_73238" data-name="Grupo 73238" transform="translate(0 0)">
            <path id="Trazado_116257" data-name="Trazado 116257" d="M4.593,0h154.22a4.515,4.515,0,0,1,4.593,4.433V92.5a4.515,4.515,0,0,1-4.593,4.433H4.593A4.515,4.515,0,0,1,0,92.5V4.433A4.515,4.515,0,0,1,4.593,0Z" transform="translate(4.236 4.09)" fill="#e8e8e8"/>
            <path id="Trazado_116188" data-name="Trazado 116188" d="M579.746,227.485H730.787a10.252,10.252,0,0,0,10.418-10.056v-85a10.254,10.254,0,0,0-10.418-10.057H579.746a10.254,10.254,0,0,0-10.419,10.057v85A10.253,10.253,0,0,0,579.746,227.485Zm151.041-96.934a1.913,1.913,0,0,1,1.944,1.877v85a1.913,1.913,0,0,1-1.944,1.877H579.746a1.914,1.914,0,0,1-1.946-1.877v-85a1.914,1.914,0,0,1,1.946-1.877Z" transform="translate(-569.327 -122.371)" fill="#afafaf"/>
          </g>
          <g id="Grupo_73239" data-name="Grupo 73239" transform="translate(49.036 112.324)">
            <path id="Trazado_116189" data-name="Trazado 116189" d="M676.281,216.411h0Z" transform="translate(-606.322 -212.321)" fill="#bce4ed"/>
            <path id="Trazado_116190" data-name="Trazado 116190" d="M611.495,221.287h65.723a4.093,4.093,0,1,0,0-8.18H611.495a4.093,4.093,0,1,0,0,8.18Z" transform="translate(-607.257 -213.107)" fill="#969595"/>
          </g>
        </g>
        <g id="window_4" data-name="window 4" transform="translate(0 36.852)">
          <rect id="Rectángulo_32339" data-name="Rectángulo 32339" width="118.57" height="111.506" rx="4.82" transform="translate(1.059 1.022)" fill="#fff"/>
          <g id="Grupo_73240" data-name="Grupo 73240" transform="translate(11.476 24.534)">
            <path id="Trazado_116191" data-name="Trazado 116191" d="M634.757,86.45l99.54.074v75.624l-99.54-.3Z" transform="translate(-633.344 -85.087)" fill="#00bcd4"/>
            <path id="Trazado_116192" data-name="Trazado 116192" d="M734.61,163.773a1.426,1.426,0,0,0,1-.4,1.33,1.33,0,0,0,.417-.964V86.786a1.388,1.388,0,0,0-1.412-1.363l-99.542-.074h0a1.436,1.436,0,0,0-1,.4,1.339,1.339,0,0,0-.413.963v75.4a1.388,1.388,0,0,0,1.407,1.363l99.541.3ZM733.2,88.148v72.895l-96.718-.288V88.076Z" transform="translate(-633.656 -85.349)" fill="#00bcd4"/>
          </g>
          <g id="Grupo_73241" data-name="Grupo 73241" transform="translate(13.58 11.256)">
            <path id="Trazado_116193" data-name="Trazado 116193" d="M623.22,77.26a2.734,2.734,0,1,0,2.732-2.637A2.686,2.686,0,0,0,623.22,77.26Z" transform="translate(-515.037 -74.623)" fill="#f7b0b0"/>
            <path id="Trazado_116194" data-name="Trazado 116194" d="M637.278,77.26a2.734,2.734,0,1,0,2.732-2.637A2.686,2.686,0,0,0,637.278,77.26Z" transform="translate(-547.125 -74.623)" fill="#f7b0b0"/>
            <path id="Trazado_116195" data-name="Trazado 116195" d="M651.337,77.26a2.734,2.734,0,1,0,2.733-2.637A2.687,2.687,0,0,0,651.337,77.26Z" transform="translate(-579.216 -74.623)" fill="#f7b0b0"/>
            <path id="Trazado_116196" data-name="Trazado 116196" d="M665.395,77.26a2.734,2.734,0,1,0,2.733-2.637A2.687,2.687,0,0,0,665.395,77.26Z" transform="translate(-611.304 -74.623)" fill="#f7b0b0"/>
            <path id="Trazado_116197" data-name="Trazado 116197" d="M679.453,77.26a2.734,2.734,0,1,0,2.732-2.637A2.686,2.686,0,0,0,679.453,77.26Z" transform="translate(-643.392 -74.623)" fill="#f7b0b0"/>
            <path id="Trazado_116198" data-name="Trazado 116198" d="M693.511,77.26a2.734,2.734,0,1,0,2.732-2.637A2.686,2.686,0,0,0,693.511,77.26Z" transform="translate(-675.48 -74.623)" fill="#f7b0b0"/>
            <path id="Trazado_116199" data-name="Trazado 116199" d="M707.57,77.26a2.734,2.734,0,1,0,2.733-2.637A2.687,2.687,0,0,0,707.57,77.26Z" transform="translate(-707.57 -74.623)" fill="#f7b0b0"/>
          </g>
          <g id="Grupo_73244" data-name="Grupo 73244" transform="translate(17.986 30.867)">
            <g id="Grupo_73242" data-name="Grupo 73242" transform="translate(0)">
              <rect id="Rectángulo_32340" data-name="Rectángulo 32340" width="12.565" height="63.494" transform="translate(1.059 1.022)" fill="#fff"/>
              <path id="Trazado_116200" data-name="Trazado 116200" d="M698,156H710.57a1.041,1.041,0,0,0,1.059-1.023V91.488a1.041,1.041,0,0,0-1.059-1.023H698a1.041,1.041,0,0,0-1.058,1.023V154.98A1.041,1.041,0,0,0,698,156Zm11.507-2.045H699.063V92.51h10.448Z" transform="translate(-696.946 -90.465)" fill="#fff"/>
            </g>
            <g id="Grupo_73243" data-name="Grupo 73243" transform="translate(0 19.437)">
              <rect id="Rectángulo_32341" data-name="Rectángulo 32341" width="12.565" height="44.058" transform="translate(1.059 1.021)" fill="#81d4fa"/>
              <path id="Trazado_116201" data-name="Trazado 116201" d="M698,152.267H710.57a1.041,1.041,0,0,0,1.059-1.022V107.189a1.042,1.042,0,0,0-1.059-1.023H698a1.041,1.041,0,0,0-1.058,1.023v44.056A1.041,1.041,0,0,0,698,152.267Zm11.507-2.045H699.063V108.211h10.448Z" transform="translate(-696.946 -106.166)" fill="#81d4fa"/>
            </g>
          </g>
          <g id="Grupo_73247" data-name="Grupo 73247" transform="translate(41.053 30.867)">
            <g id="Grupo_73245" data-name="Grupo 73245" transform="translate(0)">
              <rect id="Rectángulo_32342" data-name="Rectángulo 32342" width="12.565" height="63.494" transform="translate(1.058 1.022)" fill="#fff"/>
              <path id="Trazado_116202" data-name="Trazado 116202" d="M680.02,156h12.565a1.041,1.041,0,0,0,1.059-1.023V91.488a1.041,1.041,0,0,0-1.059-1.023H680.02a1.041,1.041,0,0,0-1.059,1.023V154.98A1.041,1.041,0,0,0,680.02,156Zm11.506-2.045H681.08V92.51h10.446Z" transform="translate(-678.961 -90.465)" fill="#fff"/>
            </g>
            <g id="Grupo_73246" data-name="Grupo 73246" transform="translate(0 12.816)">
              <rect id="Rectángulo_32343" data-name="Rectángulo 32343" width="12.565" height="50.679" transform="translate(1.058 1.022)" fill="#81d4fa"/>
              <path id="Trazado_116203" data-name="Trazado 116203" d="M680.02,153.54h12.565a1.041,1.041,0,0,0,1.059-1.022V101.841a1.042,1.042,0,0,0-1.059-1.023H680.02a1.042,1.042,0,0,0-1.059,1.023v50.677A1.041,1.041,0,0,0,680.02,153.54Zm11.506-2.045H681.08V102.862h10.446Z" transform="translate(-678.961 -100.818)" fill="#81d4fa"/>
            </g>
          </g>
          <g id="Grupo_73250" data-name="Grupo 73250" transform="translate(64.117 30.867)">
            <g id="Grupo_73248" data-name="Grupo 73248" transform="translate(0)">
              <rect id="Rectángulo_32344" data-name="Rectángulo 32344" width="12.565" height="63.494" transform="translate(1.06 1.022)" fill="#fff"/>
              <path id="Trazado_116204" data-name="Trazado 116204" d="M662.037,156H674.6a1.041,1.041,0,0,0,1.059-1.023V91.488a1.041,1.041,0,0,0-1.059-1.023H662.037a1.041,1.041,0,0,0-1.059,1.023V154.98A1.041,1.041,0,0,0,662.037,156Zm11.506-2.045H663.1V92.51h10.446Z" transform="translate(-660.978 -90.465)" fill="#fff"/>
            </g>
            <g id="Grupo_73249" data-name="Grupo 73249" transform="translate(0 7.254)">
              <rect id="Rectángulo_32345" data-name="Rectángulo 32345" width="12.565" height="56.24" transform="translate(1.06 1.022)" fill="#81d4fa"/>
              <path id="Trazado_116205" data-name="Trazado 116205" d="M662.037,154.609H674.6a1.041,1.041,0,0,0,1.059-1.023V97.346a1.041,1.041,0,0,0-1.059-1.021H662.037a1.041,1.041,0,0,0-1.059,1.021v56.24A1.041,1.041,0,0,0,662.037,154.609Zm11.506-2.045H663.1V98.369h10.446Z" transform="translate(-660.978 -96.325)" fill="#81d4fa"/>
            </g>
          </g>
          <g id="Grupo_73251" data-name="Grupo 73251" transform="translate(0 86.409)">
            <path id="Trazado_116206" data-name="Trazado 116206" d="M720.429,162.475h3.54a1.023,1.023,0,1,0,0-2.045h-3.54a5.042,5.042,0,0,1-5.122-4.944V136.355a1.06,1.06,0,0,0-2.119,0v19.131A7.128,7.128,0,0,0,720.429,162.475Z" transform="translate(-713.188 -135.332)" fill="#ff9d00"/>
          </g>
          <g id="Grupo_73252" data-name="Grupo 73252" transform="translate(0)">
            <path id="Trazado_116207" data-name="Trazado 116207" d="M721.414,179.082h20.351a7.127,7.127,0,0,0,7.241-6.989V72.519a7.127,7.127,0,0,0-7.241-6.989H635.559a7.128,7.128,0,0,0-7.241,6.989v71.543a1.06,1.06,0,0,0,2.119,0V72.519a5.041,5.041,0,0,1,5.122-4.944H741.765a5.041,5.041,0,0,1,5.124,4.944v99.573a5.042,5.042,0,0,1-5.124,4.944H721.414a1.023,1.023,0,1,0,0,2.045Z" transform="translate(-628.318 -65.53)" fill="#ff9d00"/>
          </g>
        </g>
        <g id="doctor" transform="translate(65.177 11.718)">
          <path id="Trazado_116208" data-name="Trazado 116208" d="M587.987,87.489s-.705,14.539.911,20.46c1.608,5.894,8.828,9.06,8.828,9.06s-4.559,4.421-2.216,15.14c2.772,12.681,10.295,20.861,19.49,20.34,3.6-.205,61.6-6.427,66.833-23.662,4.036-13.3-2.432-15.668-2.432-15.668a26.62,26.62,0,0,0,4.032-24.766c-11.413-32.81-64.972-17.328-64.972-17.328L592.677,76Z" transform="translate(-577.479 -39.948)" fill="#773128"/>
          <path id="Trazado_116209" data-name="Trazado 116209" d="M605.85,70.6v4.88s5.057,23.311,6.3,28.519c1.271,5.235,3.616,9.788,10.705,12.65a24.374,24.374,0,0,0,8.475,1.363c.2,2.264.48,5.126.48,5.126l-14.774,6.979s12.373,19.6,14.717,19.6,24.858-21.948,24.858-21.948l-12.542-6.188-.453-6.435a15.079,15.079,0,0,0,4.491-3.626,17.735,17.735,0,0,0,3.051-5.371v-.027a19.133,19.133,0,0,0,1.215-8.207c-.028-.245-.085-.626-.141-1.118a5.875,5.875,0,0,0,4.633-.626c3.615-1.909,5.593-7.716,2.006-11.67-2.006-2.208-6.385-2.454-8.785-.463-1.243-8.453-2.344-17.668-2.769-17.967-.705-.519-31.919-3.491-31.919-3.491Z" transform="translate(-576.439 -41.097)" fill="#f9aa8f"/>
          <path id="Trazado_116210" data-name="Trazado 116210" d="M645.267,105.048a27.673,27.673,0,0,1-7.438,2.088,42.566,42.566,0,0,0-4.862.775l.484,5.129-11.915,3.868-2.319,2.856,16.99-4.406-.332-5.483a54.969,54.969,0,0,0,5.456-2.16A13.809,13.809,0,0,0,645.267,105.048Z" transform="translate(-578.083 -30.994)" fill="#cc6148"/>
          <path id="Trazado_116211" data-name="Trazado 116211" d="M622.719,81.1a5.711,5.711,0,0,1-.024-2.787c.427-.864,3.127-.865,5.893-.024a9.081,9.081,0,0,1,4.258,2.782,44.7,44.7,0,0,0-6.1-.777A11.379,11.379,0,0,0,622.719,81.1Z" transform="translate(-569.885 -37.51)" fill="#773128"/>
          <path id="Trazado_116212" data-name="Trazado 116212" d="M638.634,86.229a7.5,7.5,0,0,1,1-3.393,9.152,9.152,0,0,1,5.314-2.821c1.217,0,3.21,1.734,3.21,1.734a30.408,30.408,0,0,0-4.838,1.29A26,26,0,0,0,638.634,86.229Z" transform="translate(-605.874 -36.95)" fill="#773128"/>
          <path id="Trazado_116213" data-name="Trazado 116213" d="M628.158,86.693c.294,1.408-.181,2.689-1.061,2.86s-1.833-.831-2.126-2.239.181-2.688,1.061-2.86S627.864,85.286,628.158,86.693Z" transform="translate(-568.328 -35.899)" fill="#773128"/>
          <path id="Trazado_116214" data-name="Trazado 116214" d="M642.4,89.036c.3,1.408-.181,2.689-1.061,2.86s-1.832-.831-2.126-2.239.181-2.688,1.061-2.86S642.109,87.629,642.4,89.036Z" transform="translate(-600.844 -35.341)" fill="#773128"/>
          <path id="Trazado_116215" data-name="Trazado 116215" d="M633.427,98.091l-7.019,1.827s3.29,3.34,5.142,2.405S633.427,98.091,633.427,98.091Z" transform="translate(-575.466 -32.65)" fill="#fff"/>
          <path id="Trazado_116216" data-name="Trazado 116216" d="M642.031,69.361s-4.268,9.461-10.278,12.245-7.626,2.038-7.626,2.038-.6,3.6-8.18,9.037a25.458,25.458,0,0,1-15.506,4.292c-7.089-.25-15.146-5.337-12.261-20.767s8.294-17.055,12.982-18.8a41.017,41.017,0,0,1,10.758-1.972s5.232-10.1,15.625-10.21,14.193,7.252,14.193,7.252,3.049-5.974,13.026-2.959,9.263,11.795,9.263,11.795,7.214-3.082,16.469,5.386,16.493,26.977,14.518,38.857c-2.237,13.449-9.637,17.789-18.7,18.665-16.68,1.612-13.206-21.048-14.131-27.779a62.8,62.8,0,0,0-1.322-7.883s-4.63,3.155-11.974-6.23A39.256,39.256,0,0,1,642.031,69.361Z" transform="translate(-587.579 -45.227)" fill="#a54d3c"/>
          <path id="Trazado_116217" data-name="Trazado 116217" d="M605.85,82.414l3.277,19.849a19.133,19.133,0,0,0,1.215-8.207c-.028-.245-.085-.626-.141-1.118a5.875,5.875,0,0,0,4.633-.626c3.615-1.909,5.593-7.716,2.006-11.67-2.006-2.208-6.385-2.454-8.785-.463Z" transform="translate(-534.407 -37.234)" fill="#f9aa8f"/>
          <path id="Trazado_116218" data-name="Trazado 116218" d="M640.021,99.566a10.327,10.327,0,0,0,1.206-.064.685.685,0,0,0,.609-.763.7.7,0,0,0-.789-.589c-.041,0-4.039.437-4.385-1.362-.315-1.638-.2-5.363.317-10.221.4-3.69-3.372-5.432-3.533-5.506a.719.719,0,0,0-.935.328.67.67,0,0,0,.336.906c.124.058,3.018,1.415,2.725,4.133-.309,2.926-.764,8.2-.3,10.608C635.692,99.23,638.4,99.566,640.021,99.566Z" transform="translate(-591.62 -36.716)" fill="#cc6148"/>
          <path id="Trazado_116219" data-name="Trazado 116219" d="M610.792,87.837a.7.7,0,0,0,.681-.5h0a3.314,3.314,0,0,1,2.85-2.161.683.683,0,1,0-.205-1.349,4.679,4.679,0,0,0-4.01,3.162.683.683,0,0,0,.508.832A.72.72,0,0,0,610.792,87.837Z" transform="translate(-536.029 -36.046)" fill="#cc6148"/>
          <path id="Trazado_116220" data-name="Trazado 116220" d="M626.539,100.735a.749.749,0,0,0,.185-.024l7.021-1.827a.677.677,0,0,0,.5-.834.709.709,0,0,0-.866-.48L626.354,99.4a.678.678,0,0,0-.5.836A.7.7,0,0,0,626.539,100.735Z" transform="translate(-575.566 -32.779)" fill="#cc6148"/>
          <path id="Trazado_116221" data-name="Trazado 116221" d="M604.663,221.512h45.026l10.82-103.225-7.063-3.381a2.8,2.8,0,0,0-.31-.136,1.689,1.689,0,0,0-.226-.109.224.224,0,0,0-.085-.027L649.379,113s-11.61,11.7-16.5,15.7c-4.518,3.708-6.27-1.718-7.457-4.635-1.271-3.081-2.429-10.715-2.429-10.715l-2.2.927-8.644,3.6Z" transform="translate(-574.658 -29.103)" fill="#7e5ee3"/>
          <path id="Trazado_116222" data-name="Trazado 116222" d="M590.257,221.2h50.224l.423-.328.735-24.892s1.949-48.667-.48-60.145c-.9-4.362.367-8.453-5.565-12.3a122.606,122.606,0,0,0-14.322-7.09c-2.26-.954-4.039-1.69-4.774-1.991a1.687,1.687,0,0,0-.226-.109.224.224,0,0,0-.085-.027l-.028.054c-.594.846-10.282,14.668-14.294,28.329-3.247,10.988-9.575,27.454-11.213,58.619C590.313,207.374,590.172,213.972,590.257,221.2Z" transform="translate(-538.022 -28.789)" fill="#fff"/>
          <path id="Trazado_116223" data-name="Trazado 116223" d="M635.941,132.975l-10.734,6.79,5.056,10.2s-8.474,12.432-13.163,19.985c-4.689,7.525-7.732,34.207-7.732,34.207,1.638-31.163,4.653-51.466,7.9-62.454,4.012-13.659,13.7-27.482,14.294-28.327l.028-.054s.141-.573.649-.573,4.068,1.364,4.379,1.882a3.632,3.632,0,0,1,.056.818C636.7,119.016,635.941,132.975,635.941,132.975Z" transform="translate(-556.862 -29.163)" fill="#afafaf"/>
          <path id="Trazado_116224" data-name="Trazado 116224" d="M635.608,201.628l.339,19.685h24.264c.029-5.371.086-13.2.142-21.839v-.082c.2-20.8.48-46.214.9-53.112.65-11.4,3.7-29.828,4.1-32.2a.826.826,0,0,1,.028-.245,29.919,29.919,0,0,0-5.056,1.526A63.308,63.308,0,0,0,650.833,120c-4.887,2.673-9.717,6.571-11.412,14.1-1.863,8.179-2.711,29.8-2.711,29.8Z" transform="translate(-619.219 -28.904)" fill="#fff"/>
          <path id="Trazado_116225" data-name="Trazado 116225" d="M649.285,113.679s-3.418,20.257-4.125,32.445c-.423,6.9-2.84,38.645-3.037,59.448-.367-2.045-1.256-25.041-2.5-31.884-1.329-7.306-5.877-26.583-5.877-26.583l6.723-9.27-5.706-7.879s7.289-11.479,9.464-14.751c.339-.49.564-.817.621-.871A13.174,13.174,0,0,1,649.285,113C649.849,113.133,649.285,113.679,649.285,113.679Z" transform="translate(-600.989 -29.105)" fill="#afafaf"/>
          <g id="Grupo_73253" data-name="Grupo 73253" transform="translate(79.184 119.979)">
            <path id="Trazado_116226" data-name="Trazado 116226" d="M609.071,155.054a1.387,1.387,0,0,0,1.412-1.363V143.51a1.413,1.413,0,0,0-2.824,0v10.181A1.387,1.387,0,0,0,609.071,155.054Z" transform="translate(-607.659 -142.147)" fill="#81f2ef"/>
          </g>
          <g id="Grupo_73254" data-name="Grupo 73254" transform="translate(85.332 115.968)">
            <path id="Trazado_116227" data-name="Trazado 116227" d="M604.277,160.428a1.387,1.387,0,0,0,1.412-1.363v-18.8a1.413,1.413,0,0,0-2.824,0v18.8A1.387,1.387,0,0,0,604.277,160.428Z" transform="translate(-602.865 -138.907)" fill="#81d4fa"/>
          </g>
          <g id="Grupo_73255" data-name="Grupo 73255" transform="translate(83.345 112.136)">
            <path id="Trazado_116228" data-name="Trazado 116228" d="M602.417,138.828a1.987,1.987,0,1,0,1.985-1.916A1.952,1.952,0,0,0,602.417,138.828Z" transform="translate(-601.003 -135.549)" fill="#81d4fa"/>
            <path id="Trazado_116229" data-name="Trazado 116229" d="M604.715,142.369a3.281,3.281,0,1,0-3.4-3.279A3.345,3.345,0,0,0,604.715,142.369Zm0-3.833a.564.564,0,0,1,.575.553c0,.609-1.148.609-1.148,0A.563.563,0,0,1,604.715,138.537Z" transform="translate(-601.316 -135.811)" fill="#81d4fa"/>
          </g>
          <path id="Trazado_116230" data-name="Trazado 116230" d="M600.105,148.232h18.274s2.044,26.46-9.137,26.46S600.105,148.232,600.105,148.232Z" transform="translate(-526.642 -20.72)" fill="#939aa0"/>
        </g>
        <g id="window_3" data-name="window 3" transform="translate(43.078 162.926)">
          <path id="Trazado_116231" data-name="Trazado 116231" d="M589.616,174.694h31.616s4.45-.207,6.9-1.91a12.366,12.366,0,0,0,3.71-4.584l.029,6.494h80.554a6.077,6.077,0,0,1,6.18,5.966v12.476a6.077,6.077,0,0,1-6.18,5.966H589.616a6.077,6.077,0,0,1-6.182-5.966V180.66A6.077,6.077,0,0,1,589.616,174.694Z" transform="translate(-583.434 -167.178)" fill="#fff"/>
          <path id="Trazado_116232" data-name="Trazado 116232" d="M591.468,184.163a2.734,2.734,0,1,0,2.732-2.637A2.686,2.686,0,0,0,591.468,184.163Z" transform="translate(-472.061 -164.008)" fill="#939aa0"/>
          <path id="Trazado_116233" data-name="Trazado 116233" d="M605.527,184.163a2.734,2.734,0,1,0,2.733-2.637A2.687,2.687,0,0,0,605.527,184.163Z" transform="translate(-504.151 -164.008)" fill="#939aa0"/>
          <path id="Trazado_116234" data-name="Trazado 116234" d="M619.585,184.163a2.734,2.734,0,1,0,2.733-2.637A2.687,2.687,0,0,0,619.585,184.163Z" transform="translate(-536.239 -164.008)" fill="#939aa0"/>
          <path id="Trazado_116235" data-name="Trazado 116235" d="M633.643,184.163a2.734,2.734,0,1,0,2.732-2.637A2.686,2.686,0,0,0,633.643,184.163Z" transform="translate(-568.327 -164.008)" fill="#939aa0"/>
          <path id="Trazado_116236" data-name="Trazado 116236" d="M647.7,184.163a2.734,2.734,0,1,0,2.732-2.637A2.686,2.686,0,0,0,647.7,184.163Z" transform="translate(-600.415 -164.008)" fill="#939aa0"/>
          <path id="Trazado_116237" data-name="Trazado 116237" d="M661.76,184.163a2.734,2.734,0,1,0,2.733-2.637A2.687,2.687,0,0,0,661.76,184.163Z" transform="translate(-632.505 -164.008)" fill="#939aa0"/>
          <path id="Trazado_116238" data-name="Trazado 116238" d="M675.818,184.163a2.734,2.734,0,1,0,2.733-2.637A2.687,2.687,0,0,0,675.818,184.163Z" transform="translate(-664.593 -164.008)" fill="#939aa0"/>
          <g id="Grupo_73256" data-name="Grupo 73256" transform="translate(35.311 30.9)">
            <path id="Trazado_116239" data-name="Trazado 116239" d="M655.57,194.381h6.587a1.023,1.023,0,1,0,0-2.045H655.57a1.023,1.023,0,1,0,0,2.045Z" transform="translate(-654.511 -192.336)" fill="#939aa0"/>
          </g>
          <g id="Grupo_73257" data-name="Grupo 73257" transform="translate(48.958 6.494)">
            <path id="Trazado_116240" data-name="Trazado 116240" d="M583.667,199.072h78.976a7.128,7.128,0,0,0,7.241-6.988V179.608a7.128,7.128,0,0,0-7.241-6.988h-6.132a1.023,1.023,0,1,0,0,2.045h6.132a5.041,5.041,0,0,1,5.122,4.943v12.476a5.041,5.041,0,0,1-5.122,4.943H583.667a1.023,1.023,0,1,0,0,2.045Z" transform="translate(-582.608 -172.62)" fill="#939aa0"/>
          </g>
          <g id="Grupo_73258" data-name="Grupo 73258" transform="translate(112.27 6.494)">
            <path id="Trazado_116241" data-name="Trazado 116241" d="M597.469,174.665h4.145a1.023,1.023,0,1,0,0-2.045h-4.145a1.023,1.023,0,1,0,0,2.045Z" transform="translate(-596.41 -172.62)" fill="#939aa0"/>
          </g>
          <g id="Grupo_73259" data-name="Grupo 73259" transform="translate(26.192)">
            <path id="Trazado_116242" data-name="Trazado 116242" d="M621.061,175.913h10.545c.246-.011,4.847-.244,7.523-2.1a10.9,10.9,0,0,0,2.05-1.887l.014,2.971a1.043,1.043,0,0,0,1.059,1.019h38.774a1.023,1.023,0,1,0,0-2.045H643.306l-.024-5.475a1.036,1.036,0,0,0-.85-1,1.071,1.071,0,0,0-1.182.6,11.421,11.421,0,0,1-3.355,4.157c-1.8,1.253-5.187,1.665-6.336,1.718h-10.5a1.023,1.023,0,1,0,0,2.045Z" transform="translate(-620.002 -167.374)" fill="#939aa0"/>
          </g>
        </g>
        <g id="window_2" data-name="window 2" transform="translate(154.996 0)">
          <path id="Trazado_116243" data-name="Trazado 116243" d="M553.919,36.587h55.619a6.077,6.077,0,0,1,6.182,5.967v60.155a6.076,6.076,0,0,1-6.182,5.966H577.777c-.938.069-4.544.421-6.667,1.9a12.366,12.366,0,0,0-3.71,4.584l-.029-6.479H553.919a6.076,6.076,0,0,1-6.182-5.966V42.554A6.077,6.077,0,0,1,553.919,36.587Z" transform="translate(-546.679 -35.564)" fill="#fff"/>
          <path id="Trazado_116260" data-name="Trazado 116260" d="M13.667-.076a13.013,13.013,0,0,1,13.407,13.07A13.819,13.819,0,0,1,13.333,26.4,13.013,13.013,0,0,1-.074,13.328,13.819,13.819,0,0,1,13.667-.076Z" transform="translate(42.506 40.964) rotate(-157.653)" fill="#6a8f9b"/>
          <path id="Trazado_116244" data-name="Trazado 116244" d="M567.819,66.835a14.041,14.041,0,0,0,16.552.054,9.785,9.785,0,0,0-6.75-5.181V59.664a5.748,5.748,0,0,0-1.5-11.233,5.62,5.62,0,0,0-5.537,5.725,5.737,5.737,0,0,0,3.956,5.507v2.045A9.8,9.8,0,0,0,567.819,66.835Z" transform="translate(-541.087 -32.747)" fill="#fff"/>
          <g id="Grupo_73260" data-name="Grupo 73260" transform="translate(19.981 9.114)">
            <path id="Trazado_116245" data-name="Trazado 116245" d="M577.567,72.187a15.359,15.359,0,0,0,9.1-2.946,14.343,14.343,0,0,0,5.957-11.586,15.065,15.065,0,0,0-30.112,0A14.232,14.232,0,0,0,568.4,69.18,15.273,15.273,0,0,0,577.567,72.187Zm0-26.337a12.037,12.037,0,0,1,12.232,11.8,11.663,11.663,0,0,1-4.844,9.416,12.792,12.792,0,0,1-14.833-.054,11.563,11.563,0,0,1-4.786-9.361A12.037,12.037,0,0,1,577.567,45.85Z" transform="translate(-562.511 -43.123)" fill="#1e5259"/>
          </g>
          <g id="Grupo_73261" data-name="Grupo 73261" transform="translate(7.884 53.764)">
            <path id="Trazado_116246" data-name="Trazado 116246" d="M605.4,80.293h0Z" transform="translate(-553.667 -78.93)" fill="#fff"/>
            <path id="Trazado_116247" data-name="Trazado 116247" d="M555.393,81.919h50.323a1.364,1.364,0,1,0,0-2.727H555.393a1.364,1.364,0,1,0,0,2.727Z" transform="translate(-553.98 -79.192)" fill="#939aa0"/>
          </g>
          <g id="Grupo_73262" data-name="Grupo 73262" transform="translate(7.884 61.386)">
            <path id="Trazado_116248" data-name="Trazado 116248" d="M605.4,86.45h0Z" transform="translate(-553.667 -85.087)" fill="#fff"/>
            <path id="Trazado_116249" data-name="Trazado 116249" d="M555.393,88.075h50.323a1.364,1.364,0,1,0,0-2.726H555.393a1.364,1.364,0,1,0,0,2.726Z" transform="translate(-553.98 -85.349)" fill="#939aa0"/>
          </g>
          <rect id="Rectángulo_32346" data-name="Rectángulo 32346" width="50.323" height="5.387" transform="translate(9.298 43.781)" fill="#939aa0"/>
          <g id="Grupo_73263" data-name="Grupo 73263" transform="translate(0)">
            <path id="Trazado_116250" data-name="Trazado 116250" d="M615.951,72.795a1.041,1.041,0,0,0,1.059-1.023V42.75a7.127,7.127,0,0,0-7.24-6.989H554.15a7.126,7.126,0,0,0-7.239,6.989v3.5a1.06,1.06,0,0,0,2.119,0v-3.5a5.041,5.041,0,0,1,5.12-4.944h55.621a5.042,5.042,0,0,1,5.122,4.944V71.772A1.041,1.041,0,0,0,615.951,72.795Z" transform="translate(-546.911 -35.761)" fill="#7e5ee3"/>
          </g>
          <g id="Grupo_73264" data-name="Grupo 73264" transform="translate(0 16.718)">
            <path id="Trazado_116251" data-name="Trazado 116251" d="M600.975,55.979a1.042,1.042,0,0,0,1.059-1.023V50.289a1.06,1.06,0,0,0-2.119,0v4.668A1.042,1.042,0,0,0,600.975,55.979Z" transform="translate(-599.916 -49.266)" fill="#7e5ee3"/>
          </g>
          <g id="Grupo_73265" data-name="Grupo 73265" transform="translate(8.238 58.459)">
            <path id="Trazado_116252" data-name="Trazado 116252" d="M559.393,105.136a1.065,1.065,0,0,0,.975-.619,11.4,11.4,0,0,1,3.354-4.158c1.932-1.337,5.443-1.653,6.129-1.7l31.683,0a7.127,7.127,0,0,0,7.24-6.989V84.008a1.059,1.059,0,0,0-2.118,0V91.67a5.042,5.042,0,0,1-5.122,4.944H569.771c-1.181.083-4.954.469-7.286,2.085a10.922,10.922,0,0,0-2.047,1.887l-.013-2.952a1.044,1.044,0,0,0-1.059-1.019h-11.4a1.023,1.023,0,1,0,0,2.045h10.341l.022,5.459a1.035,1.035,0,0,0,.85,1A1.206,1.206,0,0,0,559.393,105.136Z" transform="translate(-546.911 -82.985)" fill="#7e5ee3"/>
          </g>
        </g>
        <g id="window_1" data-name="window 1" transform="translate(181.593 40.967)">
          <path id="Trazado_116261" data-name="Trazado 116261" d="M26.048-.205a24.722,24.722,0,0,1,25.34,25.34A26.928,26.928,0,0,1,25.135,51.389,24.722,24.722,0,0,1-.205,26.048,26.928,26.928,0,0,1,26.048-.205Z" transform="translate(36.771 72.384) rotate(-135)" fill="#fff"/>
          <g id="Grupo_73266" data-name="Grupo 73266" transform="translate(38.268 58.612)">
            <path id="Trazado_116253" data-name="Trazado 116253" d="M544.608,120.026a.979.979,0,0,0,.1,0,27.814,27.814,0,0,0,7.729-1.851,1.011,1.011,0,0,0,.577-1.336,1.072,1.072,0,0,0-1.383-.555,25.74,25.74,0,0,1-7.127,1.707,1.03,1.03,0,0,0-.953,1.115A1.045,1.045,0,0,0,544.608,120.026Z" transform="translate(-543.549 -116.202)" fill="#939aa0"/>
          </g>
          <g id="Grupo_73267" data-name="Grupo 73267" transform="translate(9.458 9.829)">
            <path id="Trazado_116254" data-name="Trazado 116254" d="M553.3,129.085a1.048,1.048,0,0,0,1.04-.833,1.024,1.024,0,0,0-.845-1.195c-11.887-2.154-20.514-12.2-20.514-23.9,0-13.408,11.3-24.318,25.193-24.318a25.663,25.663,0,0,1,18.684,8,23.791,23.791,0,0,1,6.513,16.316,23.391,23.391,0,0,1-2.555,10.678,1.01,1.01,0,0,0,.486,1.369,1.079,1.079,0,0,0,1.417-.469,25.355,25.355,0,0,0,2.77-11.578,25.8,25.8,0,0,0-7.059-17.687A27.828,27.828,0,0,0,558.175,76.8c-15.058,0-27.312,11.827-27.312,26.363,0,12.678,9.354,23.574,22.242,25.91A1.073,1.073,0,0,0,553.3,129.085Z" transform="translate(-530.863 -76.795)" fill="#00bcd4"/>
          </g>
          <g id="Grupo_73268" data-name="Grupo 73268" transform="translate(18.706 23.774)">
            <path id="Trazado_116255" data-name="Trazado 116255" d="M539.754,102.665a9.868,9.868,0,0,0,4.019,4.464l.711.394,11.409,6.3.015.015v-.015l11.411-6.3.726-.394a10.051,10.051,0,0,0,4.019-4.464,9.737,9.737,0,0,0-5.3-12.967,10.467,10.467,0,0,0-10.852,1.677,10.476,10.476,0,0,0-10.85-1.677A9.712,9.712,0,0,0,539.754,102.665Z" transform="translate(-537.84 -87.865)" fill="#ff7769"/>
            <path id="Trazado_116256" data-name="Trazado 116256" d="M556.193,115.136a1.231,1.231,0,0,0,.472-.106.8.8,0,0,0,.367-.319l11.772-6.5a11.043,11.043,0,0,0,4.47-4.942,10.76,10.76,0,0,0-5.851-14.319,11.648,11.648,0,0,0-11.275,1.294,11.653,11.653,0,0,0-11.271-1.294,10.971,10.971,0,0,0-6,5.972,10.467,10.467,0,0,0,.146,8.342h0a10.9,10.9,0,0,0,4.441,4.928l12.143,6.71A.857.857,0,0,0,556.193,115.136Zm6.744-25.031a9.458,9.458,0,0,1,3.645.725,8.736,8.736,0,0,1,4.751,11.624,8.955,8.955,0,0,1-3.6,4l-11.62,6.41-11.566-6.425a8.833,8.833,0,0,1-3.581-3.985h0a8.513,8.513,0,0,1-.118-6.775,8.9,8.9,0,0,1,4.871-4.846,9.461,9.461,0,0,1,9.729,1.5,1.082,1.082,0,0,0,1.41,0A9.317,9.317,0,0,1,562.937,90.105Zm-22.942,12.754h0Z" transform="translate(-538.082 -88.06)" fill="#dd4231"/>
          </g>
        </g>
      </g>
    </g>
  </g>
</svg>
