<svg xmlns="http://www.w3.org/2000/svg" width="85" height="85" viewBox="0 0 85 85"><g transform="translate(-809.919 -1072)"><circle cx="42.5" cy="42.5" r="42.5" transform="translate(809.919 1072)" fill="#00bcd4"/><g transform="translate(595.797 874.604)"><path d="M245.926,208.8c.085.2.278.11.419.151a5.261,5.261,0,0,1,3.737,3.562c.147.443.343.522.752.522q11.7-.015,23.39-.007a5.255,5.255,0,0,1,5.618,4.279.7.7,0,0,0,.457.486c1.463.73,2.93,1.453,4.389,2.191a5.5,5.5,0,0,1,3.082,6.362q-3.865,19.282-7.7,38.569a10.24,10.24,0,0,1-1.057,3.327.851.851,0,0,0-.07.275c-.063-.21-.075-.221-.25-.035a5.36,5.36,0,0,1-2.581,1.554,6.269,6.269,0,0,1-1.6.195q-18.862,0-37.724,0a5.234,5.234,0,0,1-5.5-5.494q-.005-23.09,0-46.18a5.281,5.281,0,0,1,3.983-5.322c.2-.06.362-.121.422-.355a5.289,5.289,0,0,1,4-3.958c.046-.013.077-.077.115-.118Zm34.093,14.3c-.006.139-.018.279-.018.418q0,14.9,0,29.79c0,.149-.061.318.079.485.975-4.879,1.948-9.724,2.91-14.572q1.3-6.571,2.592-13.146a3.071,3.071,0,0,0-1.061-3.686,36.736,36.736,0,0,0-4.507-2.348Zm-2.147,18.546q0-11.547,0-23.095a3.112,3.112,0,0,0-3.393-3.394q-11.787-.007-23.574-.013c-.445,0-.562.1-.559.555.021,3.259.012,6.519.012,9.778s.026,6.519-.008,9.777a5.306,5.306,0,1,1-10.6-.3c.041-5.418.011-10.837.012-16.256a4.025,4.025,0,0,1,.026-.539.958.958,0,0,1,1.089-.869.945.945,0,0,1,.981.925c.019.218.011.439.011.659q0,8.1,0,16.2a3.152,3.152,0,0,0,1.381,2.833,3.108,3.108,0,0,0,3.3.18,2.935,2.935,0,0,0,1.666-2.774q.015-8.1.006-16.2c0-1.18-.007-2.36,0-3.539,0-.282-.031-.428-.377-.426-3.819.014-7.638,0-11.457.023a3.021,3.021,0,0,0-2.841,2.192,4.627,4.627,0,0,0-.136,1.425q0,22.855,0,45.709c0,.2,0,.4.01.6a3.048,3.048,0,0,0,3.053,2.992c.939.026,1.88-.009,2.819.016.367.01.482-.1.472-.472-.024-.859-.018-1.72,0-2.579.014-.778.385-1.179,1.052-1.18s1.042.41,1.05,1.176c.009.86.019,1.72-.006,2.579-.011.365.1.477.466.476q4.829-.02,9.658,0c.413,0,.5-.141.487-.515q-.035-1.288,0-2.579c.019-.756.429-1.161,1.1-1.138.643.021,1,.422,1.01,1.157.009.5,0,1,0,1.5s-.161,1.153.091,1.446c.3.345.976.061,1.484.124.447.055.573-.1.568-.554-.025-2.259-.018-4.519-.007-6.778a1.018,1.018,0,0,1,1.332-1.093c.62.149.775.623.774,1.191,0,1.88-.008,3.759.005,5.638,0,.512-.226,1.18.1,1.494s.992.052,1.505.1c.381.036.522-.077.505-.485-.033-.8-.012-1.6-.009-2.4,0-.906.362-1.351,1.079-1.344s1.053.452,1.056,1.37c0,.779.027,1.56-.01,2.339-.019.43.123.525.534.523,3.659-.016,7.318-.007,10.978-.014a3.935,3.935,0,0,0,.95-.1,3.085,3.085,0,0,0,2.353-3.317Q277.876,253.166,277.872,241.648Zm-39.942-28.669c.015.01.031.028.046.028q4.85.014,9.7.027c.342,0,.3-.143.185-.362a2.779,2.779,0,0,0-2.371-1.692c-1.713-.078-3.434-.066-5.148,0A2.739,2.739,0,0,0,237.931,212.979Z" transform="translate(0 0)" fill="#fff"/><path d="M332.111,239.736q-1.3,6.573-2.592,13.146c-.963,4.847-1.935,9.693-2.91,14.572-.141-.167-.079-.336-.079-.485q-.007-14.9,0-29.79c0-.14.012-.279.018-.418q2.2,1.079,4.4,2.159A3.709,3.709,0,0,1,332.111,239.736Z" transform="translate(-46.524 -13.658)" fill="#fff"/><path d="M259.534,283.365q5.213,0,10.426,0c.9,0,1.381.594,1.147,1.377a.892.892,0,0,1-.8.7,6.577,6.577,0,0,1-.717.031q-10.066,0-20.133,0a5.868,5.868,0,0,1-.658-.021.964.964,0,0,1-.92-1.1.934.934,0,0,1,.992-.973c1.558-.018,3.116-.009,4.674-.009Z" transform="translate(-8.105 -36.426)" fill="#fff"/><path d="M288.429,291.623c2.058,0,4.117,0,6.175,0,.78,0,1.174.36,1.184,1.039s-.382,1.077-1.142,1.085c-1.279.015-2.558,0-3.837,0q-4.286,0-8.573,0c-.722,0-1.123-.274-1.23-.806a1.04,1.04,0,0,1,1.127-1.319C284.232,291.616,286.331,291.623,288.429,291.623Z" transform="translate(-24.276 -40.459)" fill="#fff"/><path d="M288.389,233.657q3.087,0,6.174,0c.831,0,1.233.346,1.239,1.04s-.392,1.079-1.212,1.081q-6.174.013-12.349,0c-.854,0-1.262-.392-1.239-1.115.022-.686.419-1.006,1.272-1.007Q285.331,233.655,288.389,233.657Z" transform="translate(-24.289 -12.142)" fill="#fff"/><path d="M255.229,291.623q3.088,0,6.175,0c.862,0,1.279.36,1.273,1.076-.007.688-.421,1.051-1.242,1.052q-6.176.006-12.351,0c-.812,0-1.217-.379-1.21-1.08s.414-1.045,1.239-1.046Q252.171,291.619,255.229,291.623Z" transform="translate(-8.105 -40.461)" fill="#fff"/><path d="M288.378,258.51c2.1,0,4.2-.006,6.294,0a1.008,1.008,0,0,1,1.112,1.263.874.874,0,0,1-.711.788,3.721,3.721,0,0,1-.773.063q-5.9.005-11.809,0a4.289,4.289,0,0,1-.538-.021.975.975,0,0,1-.952-1.082.955.955,0,0,1,1.023-1.008c.879-.019,1.758-.007,2.637-.007Z" transform="translate(-24.289 -24.282)" fill="#fff"/><path d="M288.414,277.168q-3.087,0-6.174,0c-.834,0-1.233-.342-1.239-1.038s.386-1.073,1.215-1.075q6.2-.014,12.408,0c.811,0,1.2.4,1.177,1.108-.021.669-.413,1-1.212,1C292.53,277.171,290.472,277.168,288.414,277.168Z" transform="translate(-24.288 -32.363)" fill="#fff"/><path d="M288.39,252.326c-2.1,0-4.2.008-6.293,0a1.038,1.038,0,0,1-1.063-1.445c.212-.568.688-.66,1.219-.659q2.907.006,5.814,0c2.157,0,4.315-.005,6.473,0,.845,0,1.233.346,1.238,1.042s-.386,1.057-1.155,1.059C292.546,252.331,290.467,252.327,288.39,252.326Z" transform="translate(-24.265 -20.233)" fill="#fff"/><path d="M284.124,244.04c-.678,0-1.356.013-2.034,0a1.059,1.059,0,1,1-.033-2.117q2.123-.035,4.247,0a1.058,1.058,0,1,1-.026,2.115C285.56,244.056,284.842,244.04,284.124,244.04Z" transform="translate(-24.289 -16.17)" fill="#fff"/><path d="M300.721,244.043c-.678,0-1.355.01-2.033,0a1.064,1.064,0,1,1,0-2.123q2.033-.023,4.067,0a1,1,0,0,1,1.129,1.092c-.014.653-.4,1.017-1.129,1.031C302.076,244.052,301.4,244.043,300.721,244.043Z" transform="translate(-32.371 -16.172)" fill="#fff"/><path d="M284.143,268.9c-.678,0-1.356.013-2.034,0a1.062,1.062,0,1,1-.01-2.122q2.063-.025,4.127,0a1.063,1.063,0,1,1,.011,2.122C285.539,268.909,284.841,268.895,284.143,268.9Z" transform="translate(-24.29 -28.313)" fill="#fff"/><path d="M300.674,266.767c.678,0,1.355-.008,2.033,0,.771.011,1.169.371,1.176,1.045s-.385,1.074-1.14,1.08q-2.033.019-4.067,0a1.013,1.013,0,0,1-1.13-1.043c-.011-.662.41-1.066,1.153-1.081C299.358,266.758,300.016,266.767,300.674,266.767Z" transform="translate(-32.372 -28.316)" fill="#fff"/><path d="M300.734,283.367c.7,0,1.4-.013,2.1,0a1.041,1.041,0,0,1,.064,2.081q-2.188.042-4.378,0a.954.954,0,0,1-.973-1.061.979.979,0,0,1,1.028-1.015C299.294,283.353,300.014,283.368,300.734,283.367Z" transform="translate(-32.372 -36.425)" fill="#fff"/></g></g></svg>