<svg xmlns="http://www.w3.org/2000/svg" xmlns:xlink="http://www.w3.org/1999/xlink" width="107" height="107" viewBox="0 0 107 107"><defs><clipPath id="a"><circle cx="53.5" cy="53.5" r="53.5" transform="translate(0 0)" fill="none"/></clipPath></defs><g transform="translate(-411.619 -409.324)"><g transform="translate(411.619 409.324)"><g transform="translate(0 0)" clip-path="url(#a)"><path d="M466.28,433.331c15.184-14.295,34.015-16.975,51.673-14.714l-65.14-43.092-66.9,101.12C417.966,478.387,428.909,468.514,466.28,433.331Z" transform="translate(-409.598 -406.554)" fill="#54c7fe"/><path d="M476.941,546.027l69.385-104.881-28.585-18.911c-17.658-2.261-36.489.419-51.673,14.714C428.7,472.132,417.754,482,385.7,480.263l-2.488,3.761Z" transform="translate(-409.385 -410.172)" fill="#5477cd"/></g></g><g transform="translate(415.509 413.713)"><path d="M516.439,479.634v2.685c-.521.608-.345,1.4-.438,2.079a23.04,23.04,0,0,1-3.424,9.062c-3.209,5.213-7.929,8.593-13.458,10.941a48.707,48.707,0,0,1-15.242,3.52,66.858,66.858,0,0,1-7.262.358,9.817,9.817,0,0,1-6.2-2.2,9.434,9.434,0,0,1-3.495-6.984c-.115-1.944-.053-3.9-.012-5.845a1.1,1.1,0,0,1,.329-.961,5.94,5.94,0,0,1,2.642-.276c.958-.017,1.916-.014,2.875.018a1.075,1.075,0,0,1,1.176,1.195c.037,1.182,0,2.365.029,3.546.03,1.084.289,1.338,1.389,1.365q1.2.028,2.4,0c1.135-.026,1.382-.278,1.4-1.447.023-1.31.009-2.62.012-3.93a1.617,1.617,0,0,1,1.047-1.626,8.672,8.672,0,0,0,.5-15.486,10.55,10.55,0,0,0-4.418-1.131,3.505,3.505,0,0,1-2.97-4.9,3.376,3.376,0,0,1,3.244-2.135c2.332-.029,4.665,0,7-.014,1.521-.007,1.714-.2,1.723-1.712.005-.767.005-1.534-.006-2.3a1.058,1.058,0,0,0-1.187-1.18c-1.182-.016-2.365.026-3.546-.026-1.118-.049-1.326-.259-1.375-1.385-.051-1.149.007-2.3-.03-3.45-.032-.977-.3-1.239-1.282-1.271-.895-.029-1.79-.033-2.684,0-.909.037-1.184.314-1.212,1.242-.041,1.373-.01,2.747-.02,4.121a1.611,1.611,0,0,1-1.041,1.631,8.611,8.611,0,0,0-4.744,5.594c-.134.459-.049,1.173-.864,1.166-.518-.355-.392-.91-.4-1.4-.033-2.168.044-4.338-.029-6.5a8.679,8.679,0,0,0-5.127-8.1,9.45,9.45,0,0,0-4.094-.823c-3.029-.019-6.058,0-9.087-.011a4.088,4.088,0,0,1-1.6-.163c-.61-.51-.216-.981.092-1.414a33,33,0,0,1,7.407-7.415,44.15,44.15,0,0,1,6.6-3.857,39.242,39.242,0,0,1,18.22-3.006,36.017,36.017,0,0,1,12.731,3.147c.535.272,1.1.478,1.628.778.942.587,1.951,1.048,2.893,1.642a36.331,36.331,0,0,1,11.98,12.395,59.627,59.627,0,0,1,7.334,18.4,49.4,49.4,0,0,1,.5,5.618C516.356,479.338,516.314,479.5,516.439,479.634Z" transform="translate(-418.264 -415.787)" fill="#c49869"/><path d="M442.878,460.029a39.563,39.563,0,0,1,3.669-6.108c3.706,0,7.411-.016,11.117,0a9.153,9.153,0,0,1,9.248,7.917,25.636,25.636,0,0,1,.142,3.822c.03,1.853.023,3.7.031,5.558.685.58.325,1.429.55,2.128-.383,4.764.094,9.539-.152,14.3.075,1.611.052,3.224.031,4.835a1.423,1.423,0,0,1-.444,1.289,75.8,75.8,0,0,0,.167,7.75,9.141,9.141,0,0,0,7.4,7.433,44.248,44.248,0,0,0,8.684-.175,52.458,52.458,0,0,0,9.53-1.556,34.32,34.32,0,0,0,14.5-7.294,24.173,24.173,0,0,0,6.741-9.869,28.869,28.869,0,0,0,1.693-6.965c.3.064.175.4.357.537v1.726a1.507,1.507,0,0,0,0,1.15v1.726a6.066,6.066,0,0,0-.428,2.1c-1.62,9.874-7.164,16.693-16.219,20.747a49.389,49.389,0,0,1-15.709,3.83,74.01,74.01,0,0,1-23.5-1.377c-.31-.07-.617-.155-.926-.233a.589.589,0,0,1-.028-.783,8.355,8.355,0,0,0,1.126-5.2c-.022-.475.07-.947.053-1.424-.1-1.994-.077-3.987-.01-5.98q-.112-3.061,0-6.12-.106-3.072,0-6.145c-.071-3.057-.08-6.114,0-9.17-.067-2.018-.088-4.035.006-6.052-.1-1.911-.034-3.825-.054-5.736a5.821,5.821,0,0,0-6.193-6.172c-3.315-.022-6.631.013-9.946-.02C443.807,460.5,443.2,460.664,442.878,460.029Z" transform="translate(-417.968 -417.108)" fill="#b9895a"/><path d="M490.9,413.966a13.161,13.161,0,0,1,4.267,1.994,9.106,9.106,0,0,1,2.9,10.337c-.818,2.175-1.781,4.3-2.678,6.443a.569.569,0,0,1-.2.756,1.571,1.571,0,0,1-1.37-.175,41.9,41.9,0,0,0-13.541-3.122,42.648,42.648,0,0,0-19.907,3.263,1.67,1.67,0,0,1-.718.241c-1.037-2.432-2.161-4.832-3.095-7.3a9.125,9.125,0,0,1,6.622-12.224c.178-.041.394.009.5-.211Z" transform="translate(-418.995 -413.966)" fill="#c49869"/><path d="M522.381,489.2a.988.988,0,0,1,0-1.15Z" transform="translate(-424.206 -419.793)" fill="#c2986c"/><path d="M469.135,494.04V487.95c.336-.508.864-.478,1.375-.482,2.171-.016,4.341,0,6.511-.007.352,0,.7.006,1.054-.008a2.644,2.644,0,0,0,2.812-2.534,2.613,2.613,0,0,0-2.7-2.65,9.9,9.9,0,0,1-7.959-4.454,7.079,7.079,0,0,1-1.011-3.572,2.11,2.11,0,0,0-.074-.755q0-1,0-2c.536-2.869,1.834-5.332,4.481-6.665a2.636,2.636,0,0,0,1.651-3.022c-.107-1.269,0-2.554-.031-3.831-.012-.526.143-.735.7-.725,1.565.03,3.13.033,4.694,0,.587-.013.776.176.762.762-.035,1.5.029,3-.029,4.5-.028.739.226.92.925.9,1.468-.05,2.938.008,4.407-.026.6-.014.854.129.835.788q-.066,2.25,0,4.5c.019.659-.167.88-.851.871-2.714-.036-5.429-.031-8.144-.008a3.054,3.054,0,0,0-3.073,4.14,3.011,3.011,0,0,0,2.889,1.991,9.634,9.634,0,0,1,5.89,2.209,9.129,9.129,0,0,1-1.922,15.19,1.358,1.358,0,0,0-.958,1.488c.063,1.626,0,3.257.03,4.886.01.563-.135.793-.744.779-1.564-.038-3.13-.03-4.694,0-.537.009-.727-.162-.717-.708.029-1.533-.023-3.067.024-4.6.022-.685-.21-.865-.87-.852C472.649,494.083,470.892,494.048,469.135,494.04Z" transform="translate(-420.033 -417.369)" fill="#fefefe"/><path d="M459.971,435.044c.019-.522.417-.65.811-.814a41.209,41.209,0,0,1,12.486-3.04,44.534,44.534,0,0,1,20.724,2.9c.473.19.943.387,1.414.581.372.309.255.683.108,1.034-.514,1.221-1.024,2.443-1.54,3.663-.17.4-.355.83-.9.861a8.236,8.236,0,0,1-2.516-.857,37.835,37.835,0,0,0-12.052-2.231,38.319,38.319,0,0,0-15.5,2.744,1.155,1.155,0,0,1-.915.15Z" transform="translate(-419.312 -415.306)" fill="#b9895a"/><path d="M495.9,440.46l2.33-5.559.3-.6c5.948-1.13,11.537.095,16.941,2.566,2.278,1.041,2.839,3.671,1.078,5.219a3.01,3.01,0,0,1-3.485.423,25.352,25.352,0,0,0-7.469-2.31,15.148,15.148,0,0,0-8.342,1.015A2.782,2.782,0,0,1,495.9,440.46Z" transform="translate(-422.138 -415.532)" fill="#ffffb9"/><path d="M440.752,460.551l11.289.028c4.206.01,6.748,2.536,6.754,6.721,0,1.85-.018,3.7-.028,5.548a1.093,1.093,0,0,1-.911.438c-.319.018-.638.03-.956.03q-19.572.007-39.145-.007c-.646,0-1.365.17-1.876-.449-.007-2.072-.074-4.146-.01-6.215a6.1,6.1,0,0,1,6.424-6.061c5.739-.022,11.478-.006,17.216-.007C439.923,460.577,440.337,460.56,440.752,460.551Z" transform="translate(-415.841 -417.63)" fill="#feca5a"/><path d="M458.771,480.517v9.2a1.092,1.092,0,0,1-.911.438c-.319.018-.638.03-.956.03q-19.572.007-39.145-.007c-.646,0-1.365.17-1.876-.449V480.5a1.137,1.137,0,0,1,.919-.428c.383-.022.766-.03,1.148-.03q19.382,0,38.763.011C457.415,480.059,458.2,479.837,458.771,480.517Z" transform="translate(-415.845 -419.161)" fill="#feca5a"/><path d="M458.768,510.483c-.006,1.234.044,2.471-.031,3.7a6.892,6.892,0,0,1-1.5,3.536,7.8,7.8,0,0,1-5.8,1.988c-9.547-.051-19.093-.021-28.64-.022-4.481,0-6.946-2.454-6.947-6.917,0-.766.018-1.531.029-2.3a1.137,1.137,0,0,1,.919-.428c.383-.022.766-.029,1.148-.029q19.382,0,38.763.01C457.412,510.025,458.2,509.8,458.768,510.483Z" transform="translate(-415.842 -421.518)" fill="#feca5a"/><path d="M458.771,480.035l-42.889-.012V473.91l42.889-.012Z" transform="translate(-415.845 -418.68)" fill="#faa51f"/><path d="M415.882,490.558l42.889-.012v6.137a1.1,1.1,0,0,1-.912.437c-.382.023-.766.031-1.148.031q-19.387,0-38.775-.011c-.7,0-1.493.219-2.054-.469Z" transform="translate(-415.845 -419.989)" fill="#faa51f"/><path d="M415.882,497.194l42.889.012v6.134a1.1,1.1,0,0,1-.911.438c-.319.018-.638.03-.956.03q-19.572.007-39.145-.008c-.646,0-1.365.169-1.876-.449Z" transform="translate(-415.845 -420.512)" fill="#feca5a"/><path d="M415.882,503.876l42.889-.011V510l-42.889-.011Z" transform="translate(-415.845 -421.036)" fill="#faa51f"/><path d="M469.148,474.875a9.578,9.578,0,0,0,3.55,6.335,9.956,9.956,0,0,0,5.678,1.981,3.065,3.065,0,1,1-.249,6.123q-4.5.008-8.992.023Q469.142,482.107,469.148,474.875Z" transform="translate(-420.033 -418.756)" fill="#c49869"/><path d="M471.965,430.089c-.806-.1-2.085.434-2.677-.2s-.141-1.884-.17-2.864c-.024-.8.013-1.594-.011-2.39-.014-.469.111-.693.636-.686q2.438.039,4.876,0c.526-.008.641.218.636.687-.018,1.593-.028,3.187,0,4.78.011.57-.224.7-.735.685C473.726,430.067,472.928,430.089,471.965,430.089Z" transform="translate(-420.021 -414.751)" fill="#fefefe"/><path d="M488.575,427.115c0,.765-.018,1.53.006,2.294.015.466-.105.7-.633.687q-2.438-.037-4.876,0c-.523.008-.644-.212-.638-.683.018-1.593.028-3.187,0-4.78-.011-.568.219-.7.733-.688,1.561.024,3.123.034,4.684,0,.614-.016.762.227.736.783C488.549,425.52,488.575,426.318,488.575,427.115Z" transform="translate(-421.079 -414.751)" fill="#fefefe"/></g></g></svg>