<svg xmlns="http://www.w3.org/2000/svg" xmlns:xlink="http://www.w3.org/1999/xlink" width="105" height="105" viewBox="0 0 105 105"><defs><clipPath id="a"><circle cx="52.5" cy="52.5" r="52.5" transform="translate(0 -0.387)" fill="none"/></clipPath></defs><g transform="translate(-45 -409.364)"><g transform="translate(45 409.752)"><g clip-path="url(#a)"><g transform="translate(-25.836 -31.135)"><path d="M98.642,432.6c14.99-14.114,33.584-16.76,51.018-14.527L85.346,375.525,19.3,475.363C50.941,477.082,61.744,467.335,98.642,432.6Z" transform="translate(-16.842 -375.525)" fill="#54c7fe"/><path d="M109.133,544.449,177.639,440.9l-28.223-18.671c-17.434-2.232-36.028.414-51.018,14.527-36.9,34.737-47.7,44.484-79.344,42.765L16.6,483.232Z" transform="translate(-16.598 -379.68)" fill="#5477cd"/><path d="M91.622,464.986l1.571-1.18c.691.039.776.657,1,1.1,2.39,4.751,4.758,9.513,7.15,14.265,1.491,3.038,3.007,6.064,4.641,9.3,1.656-3.232,3.153-6.268,4.656-9.3,2.408-4.744,4.753-9.518,7.152-14.265.224-.443.309-1.06,1-1.1l2.384,1.791a.52.52,0,0,1,.122.553c-.769,2.245-.577,4.575-.614,6.884.025,3.965.049,7.93,0,11.9a12.327,12.327,0,0,0,1.881,7.033,1.827,1.827,0,0,1,.313.729c-.065.614-.577.864-.991,1.177-2.442,1.846-4.883,3.693-7.346,5.511a8.078,8.078,0,0,0-3.472,6.928c.024,3.893.009,7.786,0,11.679,0,.488.106,1.009-.277,1.429H101.2c-.383-.419-.276-.941-.277-1.428-.009-3.86-.034-7.719,0-11.579a8.185,8.185,0,0,0-3.554-7.09c-2.444-1.787-4.851-3.624-7.268-5.449-.414-.312-.926-.563-.99-1.18a1.139,1.139,0,0,1,.163-.469,13.87,13.87,0,0,0,2.037-8.185c-.088-4.756-.043-9.514-.015-14.273-.058-1.226-.026-2.452-.016-3.677A1.275,1.275,0,0,1,91.622,464.986Z" transform="translate(-23.148 -383.499)" fill="#486bdf"/><path d="M117.707,434.862c.011,5.644.086,11.289,0,16.932a10.805,10.805,0,0,1-2.357,6.126c-.538,1.344-1.75,2-2.848,2.762a10.634,10.634,0,0,1-1.393.736,11.335,11.335,0,0,1-9.1.056,19.748,19.748,0,0,1-3.515-2.408,2.154,2.154,0,0,1-.739-1.15,12.628,12.628,0,0,1-2.425-7.932c.077-5.089.026-10.179.029-15.269,1.188-1.7,2.617-3.044,4.814-3.252a5.8,5.8,0,0,1,3.787,2,3.554,3.554,0,0,0,3.647,1.019,2.852,2.852,0,0,0,1.268-.758,11.48,11.48,0,0,1,1.105-1.007c2.426-1.871,4.789-1.606,6.726.78A5.491,5.491,0,0,1,117.707,434.862Z" transform="translate(-23.71 -380.578)" fill="#f4c89c"/><path d="M89.575,469.962c0,5.585.06,11.172-.012,16.757a11.045,11.045,0,0,1-2.353,6.246c-.534,1.354-1.764,2-2.858,2.766a9.852,9.852,0,0,1-1.4.74,11.041,11.041,0,0,1-9.088,0,12.984,12.984,0,0,1-3.449-2.3,2.047,2.047,0,0,1-.811-1.206,12.779,12.779,0,0,1-2.422-8.042c.088-4.992.037-9.987.045-14.981a1.927,1.927,0,0,1,1.033-.311,6.558,6.558,0,0,0,4.775-3.7c.181-.352.208-1.012.927-.7a3.165,3.165,0,0,1,.495.858,6.045,6.045,0,0,0,5.737,3.578c2.684.054,5.371.007,8.056.016A1.759,1.759,0,0,1,89.575,469.962Z" transform="translate(-21.167 -383.621)" fill="#f4c89c"/><path d="M125.9,492.947a12.934,12.934,0,0,1-2.422-8.336c.1-3.821.044-7.646.055-11.468a2.057,2.057,0,0,1,1.108-.41,6.124,6.124,0,0,0,4.976-5.952,6.154,6.154,0,0,1,.1-1.491c.045-.156.108-.338.3-.338.134,0,.225.128.3.241a4.9,4.9,0,0,1,.355.716,6.055,6.055,0,0,0,5.865,3.748c2.665.041,5.332,0,8,.014a1.894,1.894,0,0,1,1.342.253c0,5.559.055,11.12-.006,16.678a11.087,11.087,0,0,1-2.369,6.344c-.53,1.356-1.763,2-2.856,2.769a10.012,10.012,0,0,1-1.4.74,11.009,11.009,0,0,1-9.088.005,13.036,13.036,0,0,1-3.449-2.3A2.049,2.049,0,0,1,125.9,492.947Z" transform="translate(-26.251 -383.603)" fill="#f4c89c"/><path d="M124.944,495.727a13.308,13.308,0,0,0,4.168,3.216,4.247,4.247,0,0,1,.621,2.049,23.94,23.94,0,0,1,.614,3.389,1.409,1.409,0,0,1-.518.81c-.871.9-.817,1.6.18,2.376.207.163.44.294.529.567a29.826,29.826,0,0,1-.369,4.948c-.217,2.511-.5,5.017-.738,7.527a2.783,2.783,0,0,1-.482,1.69H112.938c0-4.3.056-8.59-.012-12.884a8.687,8.687,0,0,1,3.889-7.627C119.555,499.81,122.236,497.751,124.944,495.727Z" transform="translate(-25.299 -386.383)" fill="#5489fe"/><path d="M68.654,495.728a13.313,13.313,0,0,0,4.167,3.215,4.237,4.237,0,0,1,.621,2.049,23.944,23.944,0,0,1,.615,3.389,1.41,1.41,0,0,1-.519.81c-.871.9-.816,1.6.18,2.376.207.163.44.294.529.567a29.825,29.825,0,0,1-.368,4.948c-.217,2.511-.5,5.017-.738,7.527a2.79,2.79,0,0,1-.482,1.69c-5.1.011-10.2.013-15.3.044-.582,0-.724-.194-.721-.746.022-4.4-.036-8.8.04-13.2a7.557,7.557,0,0,1,3.183-6.067C62.782,500.114,65.723,497.928,68.654,495.728Z" transform="translate(-20.215 -386.383)" fill="#5489fe"/><path d="M84.431,498.949a12.821,12.821,0,0,0,4.208-3.222c2.944,2.205,5.9,4.388,8.824,6.624a7.635,7.635,0,0,1,3.158,6.164c.062,4.593.02,9.188.023,13.781H84.632c-.749-1.26-.5-2.7-.676-4.052-.1-.782-.489-1.623.083-2.4a2.569,2.569,0,0,1,1.454-.227c2.358-.009,4.716.006,7.074-.013.439,0,1.024.172,1.239-.371a2.511,2.511,0,0,0-.011-1.854c-.178-.439-.685-.328-1.07-.331-2.524-.014-5.048,0-7.572-.01a2.922,2.922,0,0,1-1.464-.2,1.45,1.45,0,0,1-.38-1.083,17.215,17.215,0,0,1-.27-3.616c.106-.347.43-.474.682-.678a1.332,1.332,0,0,0,.126-2.192c-.248-.261-.552-.474-.619-.864A19.436,19.436,0,0,1,84.431,498.949Z" transform="translate(-22.597 -386.383)" fill="#5489fe"/><path d="M140.719,498.95a12.757,12.757,0,0,0,4.209-3.226q4.316,3.239,8.631,6.48a8,8,0,0,1,3.366,6.693c.01,4.2,0,8.4.01,12.6,0,.525-.015.856-.718.85-5.1-.039-10.2-.036-15.3-.047-.719-1.024-.458-2.243-.632-3.369-.187-1.206-.264-2.434-.374-3.654a1.206,1.206,0,0,1,.217-1.032,2.577,2.577,0,0,1,1.454-.226c2.923-.008,5.846,0,8.768-.005,1.395,0,1.464-.117,1.469-1.462,0-.817-.326-1.118-1.125-1.113-2.557.017-5.115.009-7.672.005-.73,0-1.462.015-2.192-.014a1.269,1.269,0,0,1-1.2-.553,6.543,6.543,0,0,1-.291-2.764c.117-.338.445-.457.694-.66a1.326,1.326,0,0,0,.166-2.117c-.262-.287-.613-.5-.683-.929A19.539,19.539,0,0,1,140.719,498.95Z" transform="translate(-27.68 -386.383)" fill="#5489fe"/><path d="M145.876,469.305c-3.267.005-6.535.1-9.8-.009a6.071,6.071,0,0,1-5.627-3.811,7.04,7.04,0,0,0-.491-.98c.037,1.99-.122,3.912-1.417,5.541a6.4,6.4,0,0,1-5.013,2.479,18.8,18.8,0,0,1,.748-7.443A11.608,11.608,0,0,1,130.9,458.8,11.184,11.184,0,0,1,145.876,469.305Z" transform="translate(-26.253 -382.986)" fill="#b0792c"/><path d="M118.148,434.09c-.761-.741-1.484-1.527-2.294-2.21a3.674,3.674,0,0,0-4.927,0c-.463.378-.887.8-1.324,1.213a3.717,3.717,0,0,1-5.361-.155,5.528,5.528,0,0,0-3.654-2.021,6.205,6.205,0,0,1,.2-4.756,5.2,5.2,0,0,1,5.514-3.224c1.157.077,2.34-.069,3.48.1a9.552,9.552,0,0,1,8.406,9.767C118.2,433.229,118.164,433.659,118.148,434.09Z" transform="translate(-24.151 -379.806)" fill="#b0792c"/><path d="M90.184,469.485q-4.5,0-8.994,0c-3.52,0-5.57-1.446-6.782-4.771a2.474,2.474,0,0,1,.207-3.219,3.484,3.484,0,0,1,3.217-1.622c2.362.041,4.725.009,7.088.012,3.13,0,4.96,1.636,5.329,4.746Z" transform="translate(-21.776 -383.144)" fill="#b0792c"/><path d="M139.372,515.51q.379,3.984.76,7.967h-9.591q.665-6.586,1.325-13.174c.039-.4.05-.794.074-1.192a1.163,1.163,0,0,1,.913-.31q2.483-.042,4.966,0a1.163,1.163,0,0,1,.913.31l.271,2.825A5.579,5.579,0,0,1,139.372,515.51Z" transform="translate(-26.89 -387.562)" fill="#f5ba00"/><path d="M82.442,509.111l.471,4.795a4.628,4.628,0,0,1,.35,3.2q.289,3.183.578,6.367h-9.59q.663-6.586,1.324-13.174c.04-.4.05-.794.075-1.192a1.161,1.161,0,0,1,.912-.31q2.483-.042,4.966,0A1.162,1.162,0,0,1,82.442,509.111Z" transform="translate(-21.806 -387.562)" fill="#f5ba00"/><path d="M112.584,463.753a11.873,11.873,0,0,0,4.223-3.206l4,2.963c-.382.167-.45.559-.609.875q-3.418,6.818-6.827,13.641c-.162.323-.36.629-.541.941a.647.647,0,0,1-.364-.445,37.051,37.051,0,0,1-1.032-5.617c1.283-1.8,1.283-1.8,0-3.5A18.079,18.079,0,0,1,112.584,463.753Z" transform="translate(-25.164 -383.205)" fill="#e4e6e8"/><path d="M97.6,460.543c1.123,1.463,2.783,2.268,4.167,3.41a1.235,1.235,0,0,1,.423.868,30.211,30.211,0,0,1,.782,4.567c-1.275,1.785-1.275,1.785-.006,3.5a35.545,35.545,0,0,1-1.023,5.634.655.655,0,0,1-.366.447Q99.3,474.483,97.022,470c-.945-1.868-1.869-3.747-2.814-5.615-.159-.317-.226-.71-.61-.873Z" transform="translate(-23.553 -383.205)" fill="#e4e6e8"/><path d="M74.01,461.655a4.508,4.508,0,0,0-.207,3.219c-.41.158-.392.588-.552.9a6.529,6.529,0,0,1-6.019,3.853c-.007-1.589-.039-3.179-.015-4.768a3.158,3.158,0,0,1,3.217-3.207C71.625,461.627,72.818,461.652,74.01,461.655Z" transform="translate(-21.169 -383.304)" fill="#946625"/><path d="M100.353,426.478a26.222,26.222,0,0,0-.2,4.756,4.91,4.91,0,0,0-3.266,1.657,5.766,5.766,0,0,1-1.521,1.373c0-1.457-.015-2.915-.005-4.373a3.2,3.2,0,0,1,3.407-3.426C99.293,426.459,99.823,426.473,100.353,426.478Z" transform="translate(-23.712 -380.126)" fill="#946625"/><path d="M102.369,480.146l1.26-6.227a1.2,1.2,0,0,1,.921-.3q2.638-.038,5.276,0a1.2,1.2,0,0,1,.922.3l1.261,6.227c-1.446,3.268-3.16,6.4-4.813,9.794-.642-1.27-1.21-2.344-1.735-3.439C104.443,484.376,103.263,482.33,102.369,480.146Z" transform="translate(-24.346 -384.384)" fill="#f5ba00"/><path d="M103.648,469.871l-1.07-5.6a14.079,14.079,0,0,1,2.825.643,11.358,11.358,0,0,0,6.381-.844q-.513,2.9-1.025,5.8a1.2,1.2,0,0,1-.921.3q-2.636.038-5.272,0A1.2,1.2,0,0,1,103.648,469.871Z" transform="translate(-24.365 -383.523)" fill="#f5ba00"/><path d="M108.979,451.088a5.251,5.251,0,0,0,.7,0c.723-.1.84.249.893.91a5.044,5.044,0,0,1-5.659,5.516c-.627-.055-.829-.257-.766-.835a4.554,4.554,0,0,0,0-.5c0-1.732,0-1.732,1.687-1.891a1.571,1.571,0,0,0,1.513-1.652C107.426,451.088,107.426,451.088,108.979,451.088Z" transform="translate(-24.505 -382.349)" fill="#c69269"/><path d="M113.617,440.532c2.574,0,2.56,0,2.371,2.59-.035.483-.206.624-.66.616-1.163-.02-2.326-.036-3.488,0-.952.033-.739-.69-.631-1.092.188-.706-.738-1.8.619-2.095A8.764,8.764,0,0,1,113.617,440.532Z" transform="translate(-25.132 -381.394)" fill="#b0792c"/><path d="M101.3,440.536c2.483,0,2.463,0,2.383,2.48-.019.569-.2.747-.752.73-1.129-.034-2.26-.032-3.389,0-.529.014-.664-.185-.686-.693C98.744,440.535,98.73,440.536,101.3,440.536Z" transform="translate(-24.025 -381.397)" fill="#b0792c"/><path d="M114.38,447.435a1.6,1.6,0,1,1-1.547-1.616A1.593,1.593,0,0,1,114.38,447.435Z" transform="translate(-25.142 -381.875)" fill="#956726"/><path d="M102.224,449.008a1.6,1.6,0,1,1,1.6-1.564A1.589,1.589,0,0,1,102.224,449.008Z" transform="translate(-24.189 -381.875)" fill="#956726"/><path d="M83.657,499.268l-1.076,5.607c-.223.495-.69.459-1.1.467q-2.422.041-4.844,0c-.416-.007-.881.023-1.1-.47l-1.1-5.61A11.367,11.367,0,0,0,83.657,499.268Z" transform="translate(-21.822 -386.702)" fill="#f5ba00"/><path d="M76,491.022a3.491,3.491,0,0,0,0-.5c-.121-.807.172-1.2,1.025-1.057a.611.611,0,0,0,.1,0c1.585-.012,2.113-.5,2.059-2.089-.029-.846.167-1.281,1.085-1.113a1.121,1.121,0,0,0,.2,0c2.147,0,2.23.011,1.9,2.135-.455,2.98-2.86,4.612-5.939,4.26-.353-.04-.429-.248-.429-.543Q76,491.572,76,491.022Z" transform="translate(-21.961 -385.525)" fill="#c69269"/><path d="M85.484,475.717c2.415,0,2.4,0,2.36,2.4-.009.58-.135.837-.773.81a31.486,31.486,0,0,1-3.384-.047c-1.374-.207-.434-1.373-.623-2.077-.107-.4-.325-1.145.627-1.093C84.286,475.744,84.885,475.717,85.484,475.717Z" transform="translate(-22.589 -384.575)" fill="#b0792c"/><path d="M73.038,478.916c-2.467,0-2.45,0-2.33-2.532.025-.528.2-.688.7-.676,1.163.026,2.326.024,3.489,0,.48-.009.6.185.632.643C75.7,478.917,75.708,478.916,73.038,478.916Z" transform="translate(-21.482 -384.575)" fill="#b0792c"/><path d="M75.68,482.559A1.6,1.6,0,1,1,74.075,481,1.595,1.595,0,0,1,75.68,482.559Z" transform="translate(-21.647 -385.053)" fill="#956726"/><path d="M86.234,482.638A1.595,1.595,0,1,1,84.709,481,1.593,1.593,0,0,1,86.234,482.638Z" transform="translate(-22.6 -385.052)" fill="#956726"/><path d="M139.946,499.269q-.538,2.8-1.074,5.606c-.224.495-.69.459-1.105.467q-2.421.041-4.843,0c-.417-.007-.881.023-1.1-.47l-1.1-5.61A11.352,11.352,0,0,0,139.946,499.269Z" transform="translate(-26.907 -386.702)" fill="#f5ba00"/><path d="M132.292,491.083a4.822,4.822,0,0,0-.005-.7c-.116-.78.251-.942.967-.932,1.816.025,2.262-.407,2.218-2.212-.02-.821.269-1.084,1.027-.973a1.321,1.321,0,0,0,.2,0c2.1,0,2.406.389,1.932,2.472a5.136,5.136,0,0,1-5.848,3.932c-.317-.055-.488-.16-.485-.491,0-.366,0-.732,0-1.1Z" transform="translate(-27.046 -385.526)" fill="#c69269"/><path d="M141.735,475.717c2.49,0,2.473,0,2.4,2.458-.015.544-.146.772-.729.753-1.129-.037-2.26-.028-3.389,0-.5.011-.683-.136-.71-.669C139.186,475.716,139.168,475.717,141.735,475.717Z" transform="translate(-27.679 -384.575)" fill="#b0792c"/><path d="M129.448,475.714c2.575,0,2.561,0,2.371,2.589-.035.484-.206.624-.66.617-1.163-.02-2.327-.036-3.489,0-.951.032-.738-.69-.63-1.093.188-.7-.738-1.8.619-2.094A8.691,8.691,0,0,1,129.448,475.714Z" transform="translate(-26.562 -384.571)" fill="#b0792c"/><path d="M130.364,484.189a1.595,1.595,0,1,1,1.607-1.558A1.587,1.587,0,0,1,130.364,484.189Z" transform="translate(-26.732 -385.053)" fill="#956726"/><path d="M142.525,482.559A1.6,1.6,0,1,1,140.92,481,1.594,1.594,0,0,1,142.525,482.559Z" transform="translate(-27.685 -385.053)" fill="#956726"/><path d="M131.8,505.429a3.346,3.346,0,0,0,1.844.162,28.391,28.391,0,0,0,5.209-.159c.086.1.154.231.262.282a1.553,1.553,0,0,1,1,1.64,1.609,1.609,0,0,1-1.383,1.455h-6.793a1.607,1.607,0,0,1-1.384-1.452,1.551,1.551,0,0,1,.993-1.641C131.656,505.666,131.72,505.526,131.8,505.429Z" transform="translate(-26.891 -387.259)" fill="#dd9300"/><path d="M75.512,505.429a3.349,3.349,0,0,0,1.845.162,28.4,28.4,0,0,0,5.209-.159c.086.1.154.231.261.282a1.553,1.553,0,0,1,1,1.64,1.608,1.608,0,0,1-1.383,1.455H75.651a1.606,1.606,0,0,1-1.384-1.452,1.55,1.55,0,0,1,.992-1.641C75.366,505.666,75.43,505.526,75.512,505.429Z" transform="translate(-21.806 -387.259)" fill="#dd9300"/><path d="M84.123,517.618l-.35-3.2c3.191,0,6.383.021,9.574-.013.724-.008.983.173.979.941-.012,2.274.022,2.274-2.223,2.274Z" transform="translate(-22.666 -388.07)" fill="#486bdf"/><path d="M140.212,515.823l-.368-3.573c.268.482.73.369,1.151.37,3.4,0,6.793.024,10.187-.016.788-.009,1.026.216,1.015,1.01-.03,2.208.005,2.208-2.2,2.208Z" transform="translate(-27.731 -387.875)" fill="#486bdf"/><path d="M103.632,470.447l7.112,0a1.646,1.646,0,0,1,.007,3.187h-7.119a1.648,1.648,0,0,1,0-3.187Z" transform="translate(-24.349 -384.099)" fill="#dd9300"/></g></g></g></g></svg>