<svg xmlns="http://www.w3.org/2000/svg" xmlns:xlink="http://www.w3.org/1999/xlink" width="1240" height="327" viewBox="0 0 1240 327">
  <defs>
    <clipPath id="clip-path">
      <rect id="Rectángulo_5216" data-name="Rectángulo 5216" width="1240" height="327" transform="translate(180 1699)" fill="#fff" stroke="#707070" stroke-width="1" opacity="0.325"/>
    </clipPath>
  </defs>
  <g id="Enmascarar_grupo_45" data-name="Enmascarar grupo 45" transform="translate(-180 -1699)" clip-path="url(#clip-path)">
    <path id="Trazado_100514" data-name="Trazado 100514" d="M342.759,1117.725a340.5,340.5,0,0,1,68.13-114.481C502.541,901.73,649.372,864.459,785.691,875.5c70.3,5.695,140.519,22.727,210.587,14.666s143.16-49.933,158.907-118.683c7.965-34.776.317-71.675,8.088-106.494s42.883-69.086,75.719-55.131c26.693,11.346,37.524,48.87,66,54.4C1330.457,669.2,1353,643,1355.567,617.185s-8.228-50.794-16.2-75.483c-20.8-64.395-22.853-135.893,1.122-199.174s75.432-117.105,139.974-137.439c21.713-6.84,45.277-9.886,67.245-3.915,41.426,11.257,68.785,52.643,77.372,94.706s2.216,85.512-2,128.234a1259.28,1259.28,0,0,0,15.133,353.275c11.633,62.532,27.917,127.767,9.113,188.528-24.984,80.737-105.233,131.156-184.447,160.622-167.7,62.379-351.995,62.261-530.21,46.353S576.918,1126.079,342.759,1117.725Z" transform="translate(-31.665 1185.104)" fill="#81d4fa" opacity="0.418"/>
  </g>
</svg>
