<svg xmlns="http://www.w3.org/2000/svg" xmlns:xlink="http://www.w3.org/1999/xlink" width="505" height="203" viewBox="0 0 505 203"><defs><linearGradient id="a" x1="-0.069" y1="0.5" x2="1.038" y2="0.5" gradientUnits="objectBoundingBox"><stop offset="0" stop-color="#b5bbcb"/><stop offset="0.227" stop-color="#eceff5"/><stop offset="0.54" stop-color="#9da7b3"/><stop offset="0.655" stop-color="#a0a9b5"/><stop offset="0.754" stop-color="#abb2bc"/><stop offset="0.848" stop-color="#bcc1c9"/><stop offset="0.869" stop-color="#c2c6cd"/><stop offset="1" stop-color="#b9bdcb"/></linearGradient><linearGradient id="b" x1="0.045" y1="0.5" x2="0.95" y2="0.5" xlink:href="#a"/><linearGradient id="c" x1="-0.016" y1="0.499" x2="0.948" y2="0.499" gradientUnits="objectBoundingBox"><stop offset="0" stop-color="#ffbb96"/><stop offset="0.227" stop-color="#fffbc9"/><stop offset="0.54" stop-color="#f9b673"/><stop offset="0.639" stop-color="#f9b876"/><stop offset="0.725" stop-color="#fabe81"/><stop offset="0.806" stop-color="#fcc892"/><stop offset="0.859" stop-color="#fed2a3"/><stop offset="0.97" stop-color="#ffc28c"/></linearGradient><linearGradient id="d" x1="-0.02" y1="0.499" x2="0.91" y2="0.499" xlink:href="#c"/><linearGradient id="e" x1="5656018" y1="0.499" x2="5656019.5" y2="0.499" xlink:href="#c"/><linearGradient id="f" x1="5672136" y1="0.499" x2="5672137" y2="0.499" xlink:href="#c"/><linearGradient id="g" x1="5851047" y1="0.497" x2="5851048.5" y2="0.497" xlink:href="#c"/><linearGradient id="h" x1="5689860.5" y1="0.497" x2="5689861.5" y2="0.497" xlink:href="#c"/><linearGradient id="i" x1="5691467" y1="0.495" x2="5691468.5" y2="0.495" xlink:href="#c"/><linearGradient id="j" x1="5707585" y1="0.495" x2="5707586" y2="0.495" xlink:href="#c"/><linearGradient id="k" x1="5709191.5" y1="0.496" x2="5709193" y2="0.496" xlink:href="#c"/><linearGradient id="l" x1="2906695.5" y1="0.496" x2="2906696" y2="0.496" xlink:href="#c"/><linearGradient id="m" x1="2881033.25" y1="0.508" x2="2881034" y2="0.508" xlink:href="#c"/><linearGradient id="n" x1="5690879.5" y1="0.508" x2="5690881" y2="0.508" xlink:href="#c"/><linearGradient id="o" x1="5692486" y1="0.492" x2="5692487.5" y2="0.492" xlink:href="#c"/><linearGradient id="p" x1="5708604" y1="0.492" x2="5708605.5" y2="0.492" xlink:href="#c"/><linearGradient id="q" x1="5710210.5" y1="0.505" x2="5710212" y2="0.505" xlink:href="#c"/><linearGradient id="r" x1="5905276" y1="0.505" x2="5905277.5" y2="0.505" xlink:href="#c"/><linearGradient id="s" x1="5727935" y1="0.504" x2="5727936.5" y2="0.504" xlink:href="#c"/><linearGradient id="t" x1="5744053" y1="0.504" x2="5744054.5" y2="0.504" xlink:href="#c"/></defs><g transform="translate(-915 -404)"><g transform="translate(-37 -19.396)"><g transform="translate(1252.399 565.855)"><path d="M325.727,330.261c.649,1.78-4.988,4.988-10.269,7.335-4.732,2.1-6.153,1.493-6.8-.286s2.769-4.662,7.633-6.436S325.078,328.481,325.727,330.261Z" transform="translate(-308.253 -326.302)" fill="#92b4d1" opacity="0.2"/><path d="M324.015,329.932a3.2,3.2,0,0,0-4.709-2.826c-.066.021-5.307,3.063-5.319,3.07-.406.239.257.245.257.962a5.043,5.043,0,0,0,2.287,3.946c.628.363.364.887.777.656.013-.007,5.156-3.051,5.2-3.095A3.2,3.2,0,0,0,324.015,329.932Z" transform="translate(-307.337 -326.73)" fill="#eb4680"/><path d="M316.454,329.9a1.628,1.628,0,0,0-1.6-.176c-.012.006-5.27,3.1-5.254,3.156a3.2,3.2,0,0,0,3.315,5.451c.034-.006,5.17-3.024,5.183-3.033a1.608,1.608,0,0,0,.641-1.453A5.04,5.04,0,0,0,316.454,329.9Z" transform="translate(-308.301 -326.235)" fill="#ffde17"/></g><g transform="translate(1273.734 559.217)"><path d="M344.179,333.119c-1.006,1.7-5.14,1.127-9.236-1.291s-6.6-5.758-5.6-7.462,5.142-1.126,9.236,1.291S345.185,331.415,344.179,333.119Z" transform="translate(-326.021 -320.671)" fill="#92b4d1" opacity="0.2"/><path d="M326.48,324.276a3.2,3.2,0,0,1,4.709-2.826c.067.021,5.308,3.063,5.308,3.063.418.245-.245.251-.245.968a5.043,5.043,0,0,1-2.287,3.947c-.628.363-.364.887-.777.656-.013-.007-5.156-3.051-5.205-3.095A3.2,3.2,0,0,1,326.48,324.276Z" transform="translate(-326.48 -321.073)" fill="#ffde17"/><path d="M334.084,324.242a1.632,1.632,0,0,1,1.6-.177c.011.007,5.27,3.105,5.253,3.157a3.2,3.2,0,0,1-3.314,5.451c-.035-.007-5.171-3.026-5.183-3.033a1.608,1.608,0,0,1-.642-1.453A5.04,5.04,0,0,1,334.084,324.242Z" transform="translate(-325.557 -320.577)" fill="#eb4680"/></g></g><g transform="translate(-32 -34.871)"><g transform="translate(1252.399 565.855)"><path d="M325.727,330.261c.649,1.78-4.988,4.988-10.269,7.335-4.732,2.1-6.153,1.493-6.8-.286s2.769-4.662,7.633-6.436S325.078,328.481,325.727,330.261Z" transform="translate(-308.253 -326.302)" fill="#92b4d1" opacity="0.2"/><path d="M324.015,329.932a3.2,3.2,0,0,0-4.709-2.826c-.066.021-5.307,3.063-5.319,3.07-.406.239.257.245.257.962a5.043,5.043,0,0,0,2.287,3.946c.628.363.364.887.777.656.013-.007,5.156-3.051,5.2-3.095A3.2,3.2,0,0,0,324.015,329.932Z" transform="translate(-307.337 -326.73)" fill="#eb4680"/><path d="M316.454,329.9a1.628,1.628,0,0,0-1.6-.176c-.012.006-5.27,3.1-5.254,3.156a3.2,3.2,0,0,0,3.315,5.451c.034-.006,5.17-3.024,5.183-3.033a1.608,1.608,0,0,0,.641-1.453A5.04,5.04,0,0,0,316.454,329.9Z" transform="translate(-308.301 -326.235)" fill="#ffde17"/></g><g transform="translate(1273.734 559.217)"><path d="M344.179,333.119c-1.006,1.7-5.14,1.127-9.236-1.291s-6.6-5.758-5.6-7.462,5.142-1.126,9.236,1.291S345.185,331.415,344.179,333.119Z" transform="translate(-326.021 -320.671)" fill="#92b4d1" opacity="0.2"/><path d="M326.48,324.276a3.2,3.2,0,0,1,4.709-2.826c.067.021,5.308,3.063,5.308,3.063.418.245-.245.251-.245.968a5.043,5.043,0,0,1-2.287,3.947c-.628.363-.364.887-.777.656-.013-.007-5.156-3.051-5.205-3.095A3.2,3.2,0,0,1,326.48,324.276Z" transform="translate(-326.48 -321.073)" fill="#ffde17"/><path d="M334.084,324.242a1.632,1.632,0,0,1,1.6-.177c.011.007,5.27,3.105,5.253,3.157a3.2,3.2,0,0,1-3.314,5.451c-.035-.007-5.171-3.026-5.183-3.033a1.608,1.608,0,0,1-.642-1.453A5.04,5.04,0,0,1,334.084,324.242Z" transform="translate(-325.557 -320.577)" fill="#eb4680"/></g></g><g transform="translate(-20.456 -52.849)"><g transform="translate(1252.399 565.855)"><path d="M325.727,330.261c.649,1.78-4.988,4.988-10.269,7.335-4.732,2.1-6.153,1.493-6.8-.286s2.769-4.662,7.633-6.436S325.078,328.481,325.727,330.261Z" transform="translate(-308.253 -326.302)" fill="#92b4d1" opacity="0.2"/><path d="M324.015,329.932a3.2,3.2,0,0,0-4.709-2.826c-.066.021-5.307,3.063-5.319,3.07-.406.239.257.245.257.962a5.043,5.043,0,0,0,2.287,3.946c.628.363.364.887.777.656.013-.007,5.156-3.051,5.2-3.095A3.2,3.2,0,0,0,324.015,329.932Z" transform="translate(-307.337 -326.73)" fill="#eb4680"/><path d="M316.454,329.9a1.628,1.628,0,0,0-1.6-.176c-.012.006-5.27,3.1-5.254,3.156a3.2,3.2,0,0,0,3.315,5.451c.034-.006,5.17-3.024,5.183-3.033a1.608,1.608,0,0,0,.641-1.453A5.04,5.04,0,0,0,316.454,329.9Z" transform="translate(-308.301 -326.235)" fill="#ffde17"/></g><g transform="translate(1273.734 559.217)"><path d="M344.179,333.119c-1.006,1.7-5.14,1.127-9.236-1.291s-6.6-5.758-5.6-7.462,5.142-1.126,9.236,1.291S345.185,331.415,344.179,333.119Z" transform="translate(-326.021 -320.671)" fill="#92b4d1" opacity="0.2"/><path d="M326.48,324.276a3.2,3.2,0,0,1,4.709-2.826c.067.021,5.308,3.063,5.308,3.063.418.245-.245.251-.245.968a5.043,5.043,0,0,1-2.287,3.947c-.628.363-.364.887-.777.656-.013-.007-5.156-3.051-5.205-3.095A3.2,3.2,0,0,1,326.48,324.276Z" transform="translate(-326.48 -321.073)" fill="#ffde17"/><path d="M334.084,324.242a1.632,1.632,0,0,1,1.6-.177c.011.007,5.27,3.105,5.253,3.157a3.2,3.2,0,0,1-3.314,5.451c-.035-.007-5.171-3.026-5.183-3.033a1.608,1.608,0,0,1-.642-1.453A5.04,5.04,0,0,1,334.084,324.242Z" transform="translate(-325.557 -320.577)" fill="#eb4680"/></g></g><g transform="translate(1285.982 406.656)"><path d="M436.545,357.3a7.784,7.784,0,0,0,3.887-.937l35.949-18.626a4.112,4.112,0,0,0,2.23-3.553,4.783,4.783,0,0,0-2.685-4.033L398.9,286.275a9.581,9.581,0,0,0-4.721-1.2,7.78,7.78,0,0,0-3.887.939l-35.95,18.624a4.116,4.116,0,0,0-2.23,3.553,4.786,4.786,0,0,0,2.685,4.033l77.031,43.882A9.571,9.571,0,0,0,436.545,357.3Z" transform="translate(-352.108 -160.73)" fill="#92b4d1" opacity="0.2"/><path d="M357.182,217.132l14.052-4.859,5.266-6.43,6.831,133.543-26.992-27.2Z" transform="translate(-349.699 -205.844)" fill="#2672ab"/><path d="M455.03,385.034l-79.062-45.647-6.831-133.543L448.2,251.491Z" transform="translate(-342.412 -205.844)" fill="#72b5e8"/><path d="M405.055,307.766l.43,36.223,29.077-17Z" transform="translate(-321.96 -147.809)" fill="#72b5e8"/><path d="M408.3,246.217l6.517-8.146,12.8-3.142,6.831,133.543-29.174-18.709Z" transform="translate(-321.833 -189.283)" fill="#2672ab"/><path d="M434.014,397.928l-79.062-45.647L357.9,213.037l79.062,45.646Z" transform="translate(-350.489 -201.749)" fill="#3f92d1"/><path d="M377.594,236.881c0,1.819-1.285,2.55-2.869,1.635a6.319,6.319,0,0,1-2.869-4.948c0-1.817,1.284-2.55,2.869-1.635A6.323,6.323,0,0,1,377.594,236.881Z" transform="translate(-340.863 -191.213)" fill="#72b5e8"/><path d="M395.872,247.262c0,1.819-1.285,2.55-2.869,1.635a6.319,6.319,0,0,1-2.869-4.948c0-1.817,1.284-2.55,2.869-1.635A6.323,6.323,0,0,1,395.872,247.262Z" transform="translate(-330.456 -185.302)" fill="#72b5e8"/><path d="M376.034,237.374a6.321,6.321,0,0,1-2.869-4.948,2.868,2.868,0,0,1,.137-.873c-.86.072-1.445.786-1.445,2.007a6.321,6.321,0,0,0,2.869,4.948c1.293.747,2.375.381,2.732-.763A2.433,2.433,0,0,1,376.034,237.374Z" transform="translate(-340.863 -191.205)" fill="#2672ab"/><path d="M394.312,247.755a6.319,6.319,0,0,1-2.869-4.948,2.867,2.867,0,0,1,.137-.873c-.86.072-1.445.786-1.445,2.007A6.319,6.319,0,0,0,393,248.89c1.293.747,2.375.383,2.732-.763A2.433,2.433,0,0,1,394.312,247.755Z" transform="translate(-330.456 -185.294)" fill="#2672ab"/><path d="M385.2,225.627c0,1.819-1.285,2.552-2.869,1.637a6.322,6.322,0,0,1-2.869-4.95c0-1.817,1.284-2.55,2.869-1.635A6.325,6.325,0,0,1,385.2,225.627Z" transform="translate(-336.534 -197.621)" fill="#fff"/><path d="M403.476,236.008c0,1.819-1.285,2.552-2.869,1.637a6.321,6.321,0,0,1-2.869-4.948c0-1.819,1.284-2.552,2.869-1.637A6.325,6.325,0,0,1,403.476,236.008Z" transform="translate(-326.126 -191.71)" fill="#fff"/><path d="M383.638,226.121a6.322,6.322,0,0,1-2.869-4.95,2.878,2.878,0,0,1,.135-.873c-.858.072-1.445.788-1.445,2.007a6.323,6.323,0,0,0,2.87,4.95c1.293.747,2.375.381,2.732-.763A2.457,2.457,0,0,1,383.638,226.121Z" transform="translate(-336.534 -197.613)" fill="#2672ab"/><path d="M401.916,236.5a6.321,6.321,0,0,1-2.869-4.948,2.877,2.877,0,0,1,.137-.874c-.86.072-1.447.788-1.447,2.009a6.323,6.323,0,0,0,2.87,4.948c1.293.747,2.375.381,2.732-.763A2.457,2.457,0,0,1,401.916,236.5Z" transform="translate(-326.127 -191.702)" fill="#2672ab"/><g transform="translate(44.408 24.723)"><path d="M380.4,228.62v-5.628a1.4,1.4,0,0,1,2.792,0V230.2Z" transform="translate(-380.404 -221.597)" fill="#d1ebff"/><path d="M398.5,238.9v-5.733a1.4,1.4,0,1,1,2.792,0v7.313Z" transform="translate(-370.102 -215.802)" fill="#d1ebff"/></g><path d="M414.645,282.81c-8.972-5.091-17.745-13.279-25.1-23.422l-.1-.058c-7.353,1.654-16.126-.287-25.1-5.559l-.344-.2.485,6.46c1.7,22.711,10.567,41.354,24.833,63.427l.347.2c14.266-5.6,23.13-14.008,24.833-34.753l.485-5.9Zm-7.619,6.1c-1.193,14.54-7.406,20.435-17.406,24.36l-.243-.14c-10-15.473-16.213-28.541-17.406-44.46l-.341-4.528.242.14c6.289,3.7,12.437,5.057,17.591,3.9l.071.041c5.154,7.109,11.3,12.849,17.591,16.418l.24.137Z" transform="translate(-345.333 -178.668)" fill="#72b5e8"/><path d="M387.492,296.081v-8.434l7.349,4.244c.479.276.866.055.866-.494v-5.669a1.907,1.907,0,0,0-.866-1.492l-7.349-4.244v-8.434a1.9,1.9,0,0,0-.866-1.492l-4.939-2.853c-.479-.276-.866-.055-.866.494v8.434l-6.932-4c-.479-.276-.866-.057-.866.493V278.3a1.908,1.908,0,0,0,.866,1.494l6.932,4v8.434a1.907,1.907,0,0,0,.866,1.493l4.939,2.853C387.1,296.852,387.492,296.631,387.492,296.081Z" transform="translate(-340.2 -170.969)" fill="#d1ebff"/><path d="M391.955,283.792a12.289,12.289,0,0,1-6.725-2.029,26.551,26.551,0,0,1-12.1-22.317v-22.53a1.4,1.4,0,1,1,2.794,0v22.53a23.759,23.759,0,0,0,10.827,19.975,9.557,9.557,0,0,0,14.774-8.007V252.889a1.4,1.4,0,1,1,2.792,0v18.525a12.181,12.181,0,0,1-6.463,10.857A12.36,12.36,0,0,1,391.955,283.792Z" transform="translate(-340.136 -188.947)" fill="#084c94" opacity="0.5"/><path d="M391.62,281.122a12.291,12.291,0,0,1-6.725-2.029,26.548,26.548,0,0,1-12.1-22.315v-22.53a1.4,1.4,0,1,1,2.792,0v22.53a23.759,23.759,0,0,0,10.829,19.975,9.556,9.556,0,0,0,14.773-8.009V250.22a1.4,1.4,0,1,1,2.794,0v18.524a12.181,12.181,0,0,1-6.464,10.857A12.344,12.344,0,0,1,391.62,281.122Z" transform="translate(-340.326 -190.467)" fill="#d1ebff"/></g><g transform="translate(1227.211 430.873)"><ellipse cx="18.582" cy="8.567" rx="18.582" ry="8.567" transform="translate(0.55 45.707)" fill="#92b4d1" opacity="0.2"/><path d="M366.256,283h-31.2v36.715h0c0,.042,0,.083,0,.126,0,5.016,6.983,9.084,15.6,9.084s15.6-4.068,15.6-9.084c0-.042,0-.083-.006-.126h.006Z" transform="translate(-334.467 -266.919)" fill="#72b5e8"/><g transform="translate(0.592 21.136)"><path d="M350.658,298.7c-8.616,0-15.6-4.068-15.6-9.084v20.335h0c0,.042,0,.083,0,.126,0,5.017,6.983,9.084,15.6,9.084s15.6-4.067,15.6-9.084c0-.042,0-.083-.006-.126h.006V289.617C366.256,294.633,359.272,298.7,350.658,298.7Z" transform="translate(-335.059 -286.907)" fill="#f0f8ff"/><path d="M335.059,287.308v.124c0-.041,0-.083,0-.124Z" transform="translate(-335.059 -287.308)" fill="url(#a)"/><path d="M361.642,287.432v-.124h-.006C361.637,287.349,361.642,287.391,361.642,287.432Z" transform="translate(-330.444 -287.308)" fill="url(#b)"/></g><g transform="translate(0 14.36)" style="mix-blend-mode:multiply;isolation:isolate"><path d="M334.555,281.534v.13c0-.043,0-.087.006-.13Z" transform="translate(-334.555 -281.534)" fill="url(#c)"/><path d="M350.658,291.168c-7.457,0-13.719-2.94-15.6-6.934v1.008c1.88,4,8.141,6.934,15.6,6.934s13.719-2.939,15.6-6.934v-1.008C364.376,288.228,358.114,291.168,350.658,291.168Z" transform="translate(-334.467 -281.065)" fill="#a8cff0"/><path d="M362.146,281.664v-.13h-.006C362.141,281.577,362.146,281.621,362.146,281.664Z" transform="translate(-329.765 -281.534)" fill="url(#d)"/></g><path d="M366.935,277.717h-32.38V282.8h.006c0,.043-.006.086-.006.129,0,5.207,7.248,9.429,16.19,9.429s16.19-4.222,16.19-9.429c0-.043,0-.086-.006-.129h.006Z" transform="translate(-334.555 -267.837)" fill="#ffd70f"/><g transform="translate(0.81 9.415)" opacity="0.5" style="mix-blend-mode:multiply;isolation:isolate"><path d="M352.575,291.591c.154-.028.3-.066.454-.1V279.523h-.454Z" transform="translate(-332.236 -276.939)" fill="#ffd70f"/><path d="M354.308,291.111c.151-.042.305-.082.454-.127V279.523h-.454Z" transform="translate(-331.935 -276.939)" fill="#ffd70f"/><path d="M356.041,290.445c.156-.061.3-.131.454-.195V279.523h-.454Z" transform="translate(-331.634 -276.939)" fill="#ffd70f"/><path d="M350.842,291.885c.151-.016.3-.029.454-.048V279.523h-.454Z" transform="translate(-332.537 -276.939)" fill="#ffd70f"/><path d="M359.507,288.223c.155-.124.31-.248.454-.376v-8.765h-.454Z" transform="translate(-331.032 -277.015)" fill="#ffd70f"/><path d="M361.24,286.334a6.835,6.835,0,0,0,.454-.8v-8.211h-.454Z" transform="translate(-330.732 -277.321)" fill="#ffd70f"/><path d="M357.774,289.489c.151-.082.309-.161.454-.248v-9.719h-.454Z" transform="translate(-331.333 -276.939)" fill="#ffd70f"/><path d="M349.109,292.02c.151,0,.3-.006.454-.013V279.523h-.454Z" transform="translate(-332.838 -276.939)" fill="#ffd70f"/><path d="M347.376,292.013c.15.006.3.009.454.013v-12.5h-.454Z" transform="translate(-333.139 -276.939)" fill="#ffd70f"/><path d="M343.91,291.539c.153.029.3.065.454.093V279.523h-.454Z" transform="translate(-333.74 -276.939)" fill="#ffd70f"/><path d="M345.643,291.862c.149.018.3.026.454.04V279.523h-.454Z" transform="translate(-333.44 -276.939)" fill="#ffd70f"/><path d="M342.177,291.041q.225.065.454.127V279.523h-.454Z" transform="translate(-334.041 -276.939)" fill="#ffd70f"/><path d="M335.245,285.935a7.4,7.4,0,0,0,.454.722v-9.336h-.454Z" transform="translate(-335.245 -277.321)" fill="#ffd70f"/><path d="M336.978,288.027c.143.122.3.237.454.353v-9.3h-.454Z" transform="translate(-334.944 -277.015)" fill="#ffd70f"/><path d="M340.444,290.338c.15.061.3.121.454.178V279.523h-.454Z" transform="translate(-334.342 -276.939)" fill="#ffd70f"/><path d="M338.711,289.357c.147.083.3.161.454.241V279.523h-.454Z" transform="translate(-334.643 -276.939)" fill="#ffd70f"/></g><ellipse cx="16.19" cy="9.428" rx="16.19" ry="9.428" fill="#ffde17"/><path d="M350.745,286.5c-8.752,0-15.863-4.047-16.162-9.1-.006.11-.028.217-.028.327,0,5.207,7.248,9.429,16.19,9.429s16.19-4.222,16.19-9.429c0-.11-.022-.217-.029-.327C366.607,282.45,359.5,286.5,350.745,286.5Z" transform="translate(-334.555 -267.893)" fill="#ffe585" style="mix-blend-mode:screen;isolation:isolate"/><path d="M356.445,304.788a25.535,25.535,0,0,1-5.787.653c-8.616,0-15.6-4.067-15.6-9.083v.886h0c0,.042,0,.083,0,.126,0,5.017,6.983,9.084,15.6,9.084a25.6,25.6,0,0,0,5.787-.653Z" transform="translate(-334.467 -264.6)" fill="#3f92d1"/><path d="M356.445,302.163a25.537,25.537,0,0,1-5.787.653c-8.616,0-15.6-4.067-15.6-9.083v.886h0c0,.042,0,.083,0,.126,0,5.017,6.983,9.084,15.6,9.084a25.6,25.6,0,0,0,5.787-.653Z" transform="translate(-334.467 -265.056)" fill="#3f92d1"/></g><g transform="translate(1224.29 560.631)"><path d="M353.624,360.469l-19.614-11.323c-1.618-.934-1.415-2.566.453-3.645l38.216-22.281a7.017,7.017,0,0,1,6.313-.262l19.614,11.323c1.617.934,1.414,2.567-.454,3.645l-38.214,22.281A7.013,7.013,0,0,1,353.624,360.469Z" transform="translate(-332.918 -322.307)" fill="#92b4d1" opacity="0.2"/><path d="M353.613,360,334.29,348.841c-1.594-.92-1.394-2.528.447-3.591l37.824-22.061a6.914,6.914,0,0,1,6.22-.258L398.1,334.086c1.594.921,1.394,2.528-.447,3.591l-37.824,22.062A6.914,6.914,0,0,1,353.613,360Z" transform="translate(-332.867 -322.31)" fill="#a8cff0"/><g transform="translate(18.819 8.891)"><g transform="translate(31.424)"><g transform="translate(0.001 4.225)" style="mix-blend-mode:multiply;isolation:isolate"><path d="M383.846,333.485v0Z" transform="translate(-374.32 -333.485)" fill="url(#e)"/><path d="M375.729,333.525v-.04h0Z" transform="translate(-375.729 -333.485)" fill="url(#f)"/></g><path d="M375.728,332.362h9.526v1.5h0l0,.039c0,1.532-2.132,2.773-4.764,2.773s-4.763-1.242-4.763-2.773v-1.536Z" transform="translate(-375.728 -329.455)" fill="#d1ebff"/><path d="M385.252,332.652c0,1.529-2.132,2.769-4.761,2.769s-4.76-1.239-4.76-2.769,2.131-2.767,4.76-2.767S385.252,331.124,385.252,332.652Z" transform="translate(-375.728 -329.885)" fill="#fff"/></g><g transform="translate(20.949 6.123)"><g transform="translate(0.001 4.225)" style="mix-blend-mode:multiply;isolation:isolate"><path d="M374.921,338.7v0Z" transform="translate(-365.395 -338.702)" fill="url(#g)"/><path d="M366.8,338.743V338.7h0Z" transform="translate(-366.804 -338.702)" fill="url(#h)"/></g><path d="M366.8,337.579h9.526v1.5h0v.038c0,1.533-2.132,2.774-4.764,2.774s-4.763-1.242-4.763-2.774v-1.536Z" transform="translate(-366.803 -334.672)" fill="#d1ebff"/><path d="M376.327,337.871c0,1.528-2.132,2.767-4.761,2.767s-4.76-1.239-4.76-2.767,2.131-2.769,4.76-2.769S376.327,336.341,376.327,337.871Z" transform="translate(-366.803 -335.102)" fill="#fff"/></g><g transform="translate(10.475 12.247)"><g transform="translate(0.001 4.225)" style="mix-blend-mode:multiply;isolation:isolate"><path d="M366,343.92v0Z" transform="translate(-356.47 -343.92)" fill="url(#i)"/><path d="M357.879,343.96v-.04h0Z" transform="translate(-357.879 -343.92)" fill="url(#j)"/></g><path d="M357.878,342.8H367.4v1.5h0v.039c0,1.532-2.132,2.773-4.764,2.773s-4.763-1.242-4.763-2.773V342.8Z" transform="translate(-357.878 -339.89)" fill="#d1ebff"/><path d="M367.4,343.087c0,1.529-2.131,2.767-4.761,2.767s-4.76-1.238-4.76-2.767,2.131-2.767,4.76-2.767S367.4,341.559,367.4,343.087Z" transform="translate(-357.878 -340.32)" fill="#fff"/></g><g transform="translate(0 18.37)"><g transform="translate(0.001 4.225)" style="mix-blend-mode:multiply;isolation:isolate"><path d="M357.071,349.137v0Z" transform="translate(-347.545 -349.137)" fill="url(#k)"/><path d="M348.954,349.178v-.041h0Z" transform="translate(-348.954 -349.137)" fill="url(#l)"/></g><path d="M348.953,348.014h9.526v1.5h0v.038c0,1.533-2.133,2.774-4.764,2.774s-4.763-1.242-4.763-2.774v-1.536Z" transform="translate(-348.953 -345.107)" fill="#d1ebff"/><path d="M358.477,348.306c0,1.528-2.131,2.767-4.761,2.767s-4.76-1.239-4.76-2.767,2.131-2.769,4.76-2.769S358.477,346.776,358.477,348.306Z" transform="translate(-348.953 -345.537)" fill="#fff"/></g></g><g transform="translate(7.741 2.412)"><g transform="translate(31.424)"><g transform="translate(0.002 4.225)" style="mix-blend-mode:multiply;isolation:isolate"><path d="M374.408,327.965V328l0-.04Z" transform="translate(-364.882 -327.965)" fill="url(#m)"/><path d="M366.291,328v-.04h0Z" transform="translate(-366.291 -327.965)" fill="url(#n)"/></g><path d="M366.289,326.842h9.526v1.5h0v.038c0,1.533-2.133,2.774-4.763,2.774s-4.764-1.242-4.764-2.774v-1.536Z" transform="translate(-366.289 -323.935)" fill="#d1ebff"/><ellipse cx="4.761" cy="2.768" rx="4.761" ry="2.768" transform="translate(0.003)" fill="#fff"/></g><g transform="translate(20.949 6.124)"><g transform="translate(0.002 4.225)" style="mix-blend-mode:multiply;isolation:isolate"><path d="M365.483,333.183v0Z" transform="translate(-355.957 -333.183)" fill="url(#o)"/><path d="M357.366,333.223v-.04h0Z" transform="translate(-357.366 -333.183)" fill="url(#p)"/></g><path d="M357.364,332.059h9.526v1.5h0v.039c0,1.532-2.132,2.773-4.763,2.773s-4.764-1.242-4.764-2.773l0-.039,0,.3Z" transform="translate(-357.364 -329.153)" fill="#d1ebff"/><path d="M366.888,332.35c0,1.528-2.131,2.767-4.76,2.767s-4.761-1.239-4.761-2.767,2.133-2.767,4.761-2.767S366.888,330.822,366.888,332.35Z" transform="translate(-357.364 -329.583)" fill="#fff"/></g><g transform="translate(10.475 12.247)"><g transform="translate(0.002 4.225)" style="mix-blend-mode:multiply;isolation:isolate"><path d="M356.558,338.4v0Z" transform="translate(-347.032 -338.4)" fill="url(#q)"/><path d="M348.441,338.44v-.04h0Z" transform="translate(-348.441 -338.4)" fill="url(#r)"/></g><path d="M348.439,337.277h9.527v1.5h0l0,.038c0,1.532-2.134,2.774-4.764,2.774s-4.764-1.243-4.764-2.774l0-.038,0,.3Z" transform="translate(-348.439 -334.37)" fill="#d1ebff"/><ellipse cx="4.761" cy="2.768" rx="4.761" ry="2.768" transform="translate(0.003)" fill="#fff"/></g><g transform="translate(0 18.369)"><g transform="translate(0.002 4.225)" style="mix-blend-mode:multiply;isolation:isolate"><path d="M347.633,343.617v0Z" transform="translate(-338.107 -343.617)" fill="url(#s)"/><path d="M339.516,343.658v-.041h0Z" transform="translate(-339.516 -343.617)" fill="url(#t)"/></g><path d="M339.514,342.494h9.527v1.5h0l0,.039c0,1.532-2.134,2.773-4.764,2.773s-4.764-1.242-4.764-2.773l0-.039,0,.3Z" transform="translate(-339.514 -339.587)" fill="#d1ebff"/><path d="M349.037,342.786c0,1.528-2.131,2.767-4.76,2.767s-4.76-1.239-4.76-2.767,2.131-2.769,4.76-2.769S349.037,341.256,349.037,342.786Z" transform="translate(-339.513 -340.017)" fill="#fff"/></g></g></g><g transform="translate(1011.536 559.085)"><path d="M353.624,360.469l-19.614-11.323c-1.618-.934-1.415-2.566.453-3.645l38.216-22.281a7.017,7.017,0,0,1,6.313-.262l19.614,11.323c1.617.934,1.414,2.567-.454,3.645l-38.214,22.281A7.013,7.013,0,0,1,353.624,360.469Z" transform="translate(-332.918 -322.307)" fill="#92b4d1" opacity="0.2"/><path d="M353.613,360,334.29,348.841c-1.594-.92-1.394-2.528.447-3.591l37.824-22.061a6.914,6.914,0,0,1,6.22-.258L398.1,334.086c1.594.921,1.394,2.528-.447,3.591l-37.824,22.062A6.914,6.914,0,0,1,353.613,360Z" transform="translate(-332.867 -322.31)" fill="#a8cff0"/><g transform="translate(18.819 8.891)"><g transform="translate(31.424)"><g transform="translate(0.001 4.225)" style="mix-blend-mode:multiply;isolation:isolate"><path d="M383.846,333.485v0Z" transform="translate(-374.32 -333.485)" fill="url(#e)"/><path d="M375.729,333.525v-.04h0Z" transform="translate(-375.729 -333.485)" fill="url(#f)"/></g><path d="M375.728,332.362h9.526v1.5h0l0,.039c0,1.532-2.132,2.773-4.764,2.773s-4.763-1.242-4.763-2.773v-1.536Z" transform="translate(-375.728 -329.455)" fill="#d1ebff"/><path d="M385.252,332.652c0,1.529-2.132,2.769-4.761,2.769s-4.76-1.239-4.76-2.769,2.131-2.767,4.76-2.767S385.252,331.124,385.252,332.652Z" transform="translate(-375.728 -329.885)" fill="#fff"/></g><g transform="translate(20.949 6.123)"><g transform="translate(0.001 4.225)" style="mix-blend-mode:multiply;isolation:isolate"><path d="M374.921,338.7v0Z" transform="translate(-365.395 -338.702)" fill="url(#g)"/><path d="M366.8,338.743V338.7h0Z" transform="translate(-366.804 -338.702)" fill="url(#h)"/></g><path d="M366.8,337.579h9.526v1.5h0v.038c0,1.533-2.132,2.774-4.764,2.774s-4.763-1.242-4.763-2.774v-1.536Z" transform="translate(-366.803 -334.672)" fill="#d1ebff"/><path d="M376.327,337.871c0,1.528-2.132,2.767-4.761,2.767s-4.76-1.239-4.76-2.767,2.131-2.769,4.76-2.769S376.327,336.341,376.327,337.871Z" transform="translate(-366.803 -335.102)" fill="#fff"/></g><g transform="translate(10.475 12.247)"><g transform="translate(0.001 4.225)" style="mix-blend-mode:multiply;isolation:isolate"><path d="M366,343.92v0Z" transform="translate(-356.47 -343.92)" fill="url(#i)"/><path d="M357.879,343.96v-.04h0Z" transform="translate(-357.879 -343.92)" fill="url(#j)"/></g><path d="M357.878,342.8H367.4v1.5h0v.039c0,1.532-2.132,2.773-4.764,2.773s-4.763-1.242-4.763-2.773V342.8Z" transform="translate(-357.878 -339.89)" fill="#d1ebff"/><path d="M367.4,343.087c0,1.529-2.131,2.767-4.761,2.767s-4.76-1.238-4.76-2.767,2.131-2.767,4.76-2.767S367.4,341.559,367.4,343.087Z" transform="translate(-357.878 -340.32)" fill="#fff"/></g><g transform="translate(0 18.37)"><g transform="translate(0.001 4.225)" style="mix-blend-mode:multiply;isolation:isolate"><path d="M357.071,349.137v0Z" transform="translate(-347.545 -349.137)" fill="url(#k)"/><path d="M348.954,349.178v-.041h0Z" transform="translate(-348.954 -349.137)" fill="url(#l)"/></g><path d="M348.953,348.014h9.526v1.5h0v.038c0,1.533-2.133,2.774-4.764,2.774s-4.763-1.242-4.763-2.774v-1.536Z" transform="translate(-348.953 -345.107)" fill="#d1ebff"/><path d="M358.477,348.306c0,1.528-2.131,2.767-4.761,2.767s-4.76-1.239-4.76-2.767,2.131-2.769,4.76-2.769S358.477,346.776,358.477,348.306Z" transform="translate(-348.953 -345.537)" fill="#fff"/></g></g><g transform="translate(7.741 2.412)"><g transform="translate(31.424)"><g transform="translate(0.002 4.225)" style="mix-blend-mode:multiply;isolation:isolate"><path d="M374.408,327.965V328l0-.04Z" transform="translate(-364.882 -327.965)" fill="url(#m)"/><path d="M366.291,328v-.04h0Z" transform="translate(-366.291 -327.965)" fill="url(#n)"/></g><path d="M366.289,326.842h9.526v1.5h0v.038c0,1.533-2.133,2.774-4.763,2.774s-4.764-1.242-4.764-2.774v-1.536Z" transform="translate(-366.289 -323.935)" fill="#d1ebff"/><ellipse cx="4.761" cy="2.768" rx="4.761" ry="2.768" transform="translate(0.003)" fill="#fff"/></g><g transform="translate(20.949 6.124)"><g transform="translate(0.002 4.225)" style="mix-blend-mode:multiply;isolation:isolate"><path d="M365.483,333.183v0Z" transform="translate(-355.957 -333.183)" fill="url(#o)"/><path d="M357.366,333.223v-.04h0Z" transform="translate(-357.366 -333.183)" fill="url(#p)"/></g><path d="M357.364,332.059h9.526v1.5h0v.039c0,1.532-2.132,2.773-4.763,2.773s-4.764-1.242-4.764-2.773l0-.039,0,.3Z" transform="translate(-357.364 -329.153)" fill="#d1ebff"/><path d="M366.888,332.35c0,1.528-2.131,2.767-4.76,2.767s-4.761-1.239-4.761-2.767,2.133-2.767,4.761-2.767S366.888,330.822,366.888,332.35Z" transform="translate(-357.364 -329.583)" fill="#fff"/></g><g transform="translate(10.475 12.247)"><g transform="translate(0.002 4.225)" style="mix-blend-mode:multiply;isolation:isolate"><path d="M356.558,338.4v0Z" transform="translate(-347.032 -338.4)" fill="url(#q)"/><path d="M348.441,338.44v-.04h0Z" transform="translate(-348.441 -338.4)" fill="url(#r)"/></g><path d="M348.439,337.277h9.527v1.5h0l0,.038c0,1.532-2.134,2.774-4.764,2.774s-4.764-1.243-4.764-2.774l0-.038,0,.3Z" transform="translate(-348.439 -334.37)" fill="#d1ebff"/><ellipse cx="4.761" cy="2.768" rx="4.761" ry="2.768" transform="translate(0.003)" fill="#fff"/></g><g transform="translate(0 18.369)"><g transform="translate(0.002 4.225)" style="mix-blend-mode:multiply;isolation:isolate"><path d="M347.633,343.617v0Z" transform="translate(-338.107 -343.617)" fill="url(#s)"/><path d="M339.516,343.658v-.041h0Z" transform="translate(-339.516 -343.617)" fill="url(#t)"/></g><path d="M339.514,342.494h9.527v1.5h0l0,.039c0,1.532-2.134,2.773-4.764,2.773s-4.764-1.242-4.764-2.773l0-.039,0,.3Z" transform="translate(-339.514 -339.587)" fill="#d1ebff"/><path d="M349.037,342.786c0,1.528-2.131,2.767-4.76,2.767s-4.76-1.239-4.76-2.767,2.131-2.769,4.76-2.769S349.037,341.256,349.037,342.786Z" transform="translate(-339.513 -340.017)" fill="#fff"/></g></g></g><path d="M533.214,296.1c-.265-4.741-7.554-8.542-16.532-8.542s-16.265,3.8-16.53,8.542c0,.089-.025.175-.025.265,0,4.863,7.411,8.805,16.554,8.805s16.558-3.942,16.558-8.805C533.24,296.271,533.22,296.185,533.214,296.1Z" transform="translate(673.498 162.337)" fill="#92b4d1" opacity="0.158"/><path d="M542.464,308.449c-.227-4.063-6.474-7.32-14.167-7.32s-13.938,3.257-14.165,7.32c0,.076-.021.15-.021.226,0,4.169,6.351,7.547,14.186,7.547s14.188-3.378,14.188-7.547C542.485,308.6,542.469,308.525,542.464,308.449Z" transform="translate(675.134 163.925)" fill="#92b4d1" opacity="0.204"/><path d="M425.082,306.077l69.426,40.509,33.367-19.015-69.236-40.26Z" transform="translate(664.716 162.309)" fill="#92b4d1" opacity="0.151"/><g transform="translate(1089.174 430.856)"><g transform="translate(8.27 21.552)"><path d="M502,313.149c2.746,1.585,4.584,1.252,6.473,1.679l-29.64,17.113c-1.83-.357-3.688-.189-6.369-1.737-.075-.044-.151-.1-.227-.146L501.78,313C501.855,313.049,501.929,313.106,502,313.149Z" transform="translate(-427.21 -287.094)" fill="#c4adad"/><path d="M431.927,306.788l29.666-16.98s6.078,2.017,9.42,3.529l-29.576,17.076C437.882,308.827,431.927,306.788,431.927,306.788Z" transform="translate(-431.927 -289.808)" fill="#c4adad"/><path d="M482.768,302c2.384,1.2,5.072,1.722,7.682,2.694l-29.58,17.077c-2.614-.938-5.3-1.449-7.658-2.708Z" transform="translate(-429.436 -288.382)" fill="#c4adad"/><path d="M474.28,295.727l-29.48,17.02a21.971,21.971,0,0,0-2.57-1.825c-.451-.261-1.077-.562-1.789-.879l29.576-17.076c.542.246,1.02.479,1.38.687A23.9,23.9,0,0,1,474.28,295.727Z" transform="translate(-430.931 -289.438)" fill="#e8d6d6"/><path d="M492.418,305.685c.407.235.805.5,1.2.769L464.087,323.5c-.356-.24-.713-.48-1.078-.691a17.958,17.958,0,0,0-2.941-1.325l29.58-17.077A18.09,18.09,0,0,1,492.418,305.685Z" transform="translate(-428.634 -288.099)" fill="#e8d6d6"/><path d="M509.6,315.339a21.306,21.306,0,0,1,2.77,1.949L482.854,334.33a19.243,19.243,0,0,0-2.531-1.789,6.8,6.8,0,0,0-2.176-.791l29.64-17.113A6.293,6.293,0,0,1,509.6,315.339Z" transform="translate(-426.519 -286.903)" fill="#e8d6d6"/><path d="M516.863,321.943,487.2,338.923a38.245,38.245,0,0,0-4.837-4.87L511.88,317.01A40.281,40.281,0,0,1,516.863,321.943Z" transform="translate(-426.025 -286.625)" fill="#d1bdbd"/><path d="M502.784,313.8l-29.538,17.053c-3.16-1.9-6.209-5.3-9.579-7.56l29.533-17.05C496.565,308.526,499.622,311.894,502.784,313.8Z" transform="translate(-428.213 -287.885)" fill="#d1bdbd"/><path d="M453.88,319.641c-3.75-2.164-6.915-5.095-9.537-7.184l29.48-17.02a73.137,73.137,0,0,0,9.308,6.985c.219.127.449.229.675.343L454.25,319.829C454.127,319.764,454,319.712,453.88,319.641Z" transform="translate(-430.474 -289.149)" fill="#d1bdbd"/></g><path d="M427.221,286.474,454.409,270.9l10.362,23.042-27.061,15.516Z" transform="translate(-424.207 -270.469)" fill="#e8d6d6"/><path d="M424.523,291.641c0,6.064,3.686,13.108,8.235,15.733s8.235-.161,8.235-6.225-3.687-13.108-8.235-15.733S424.523,285.576,424.523,291.641Z" transform="translate(-424.523 -268.886)" fill="#d1bdbd"/><path d="M425.565,292.212c0,5.234,3.181,11.313,7.106,13.58s7.108-.14,7.108-5.373-3.182-11.313-7.108-13.58S425.565,286.979,425.565,292.212Z" transform="translate(-424.401 -268.704)" fill="#e8d6d6"/><path d="M426.532,292.594c0,4.412,2.682,9.537,5.99,11.447s5.992-.117,5.992-4.528-2.683-9.537-5.992-11.447S426.532,288.183,426.532,292.594Z" transform="translate(-424.288 -268.544)" fill="#d1bdbd"/><path d="M427.713,293.248c0,3.44,2.091,7.436,4.671,8.925s4.671-.092,4.671-3.531-2.091-7.436-4.671-8.925S427.713,289.808,427.713,293.248Z" transform="translate(-424.15 -268.333)" fill="#e8d6d6"/><path d="M429.09,293.809a7.5,7.5,0,0,0,3.133,5.987c1.73,1,3.133-.06,3.133-2.368a7.5,7.5,0,0,0-3.133-5.987C430.493,290.441,429.09,291.5,429.09,293.809Z" transform="translate(-423.989 -268.109)" fill="#d1bdbd"/><path d="M430.133,294.3a4.714,4.714,0,0,0,1.968,3.76c1.087.628,1.968-.039,1.968-1.488a4.714,4.714,0,0,0-1.968-3.76C431.014,292.189,430.133,292.856,430.133,294.3Z" transform="translate(-423.867 -267.932)" fill="#e8d6d6"/><path d="M448.787,277.727c0,6.064,3.686,13.109,8.234,15.734s8.236-.161,8.236-6.225-3.687-13.108-8.236-15.733S448.787,271.663,448.787,277.727Z" transform="translate(-421.684 -270.514)" fill="#e8d6d6"/></g><g transform="translate(1176.849 415.694)"><path d="M503.014,263.268v34.091c0,3.906,5.951,7.07,13.292,7.07s13.29-3.163,13.29-7.07V263.268Z" transform="translate(-503.014 -256.2)" fill="#d1bdbd"/><path d="M503.014,264.008c0,3.906,5.951,7.07,13.292,7.07s13.29-3.163,13.29-7.07-5.95-7.068-13.29-7.068S503.014,260.1,503.014,264.008Z" transform="translate(-503.014 -256.94)" fill="#e8d6d6"/><path d="M505.069,263.881c0,3.232,4.923,5.849,11,5.849s11-2.617,11-5.849-4.924-5.849-11-5.849S505.069,260.65,505.069,263.881Z" transform="translate(-502.774 -256.812)" fill="#d1bdbd"/><path d="M507.2,263.751c0,2.546,3.878,4.607,8.662,4.607s8.66-2.061,8.66-4.607-3.877-4.607-8.66-4.607S507.2,261.206,507.2,263.751Z" transform="translate(-502.525 -256.682)" fill="#e8d6d6"/><path d="M509.6,263.6c0,1.745,2.659,3.159,5.938,3.159s5.938-1.414,5.938-3.159-2.659-3.158-5.938-3.158S509.6,261.855,509.6,263.6Z" transform="translate(-502.244 -256.53)" fill="#d1bdbd"/><path d="M511.722,263.467c0,1.048,1.6,1.9,3.564,1.9s3.564-.849,3.564-1.9-1.6-1.9-3.564-1.9S511.722,262.42,511.722,263.467Z" transform="translate(-501.995 -256.398)" fill="#e8d6d6"/></g><g transform="translate(1178.954 454.859)"><g transform="translate(0 1.947)"><path d="M510.546,299.3a23.511,23.511,0,0,0-5.648,6.212V315.7a23.524,23.524,0,0,1,5.648-6.213c3.812-2.965,10.588-5.558,10.588-5.558V293.745S514.358,296.339,510.546,299.3Z" transform="translate(-504.898 -293.745)" fill="#9165d1"/></g><path d="M540.152,297.67H516.346v10.093h.047a3.4,3.4,0,0,0-.047.5c0,3.5,5.329,6.331,11.9,6.331s11.9-2.834,11.9-6.331a3.408,3.408,0,0,0-.047-.5h.047Z" transform="translate(-503.558 -291.339)" fill="#a179e0"/><path d="M540.152,298.333c0,3.5-5.329,6.331-11.9,6.331s-11.9-2.834-11.9-6.331,5.329-6.331,11.9-6.331S540.152,294.836,540.152,298.333Z" transform="translate(-503.558 -292.002)" fill="#b292ef"/><path d="M533.273,297.986c0,1.668-2.542,3.019-5.677,3.019s-5.676-1.352-5.676-3.019,2.541-3.019,5.676-3.019S533.273,296.319,533.273,297.986Z" transform="translate(-502.906 -291.655)" fill="#33211f"/></g><g transform="translate(917.916 399.291)"><g transform="translate(0 18.159)"><path d="M413.516,357.488l86.112-49.717c9.228-5.327,8.061-14.718-2.594-20.87l-46.479-26.836c-10.655-6.151-26.921-6.825-36.149-1.5l-86.112,49.717c-9.228,5.327-8.061,14.72,2.594,20.872l46.479,26.834C388.023,362.141,404.288,362.815,413.516,357.488Z" transform="translate(-322.068 -195.232)" fill="#81d4fa"/><path d="M413.516,355.367l86.112-49.717c9.228-5.327,8.061-14.718-2.594-20.87l-46.479-26.836c-10.655-6.151-26.921-6.825-36.149-1.5l-86.112,49.717c-9.228,5.327-8.061,14.718,2.594,20.872l46.479,26.834C388.023,360.02,404.288,360.693,413.516,355.367Z" transform="translate(-322.068 -197.286)" fill="#00bcd4"/><path d="M505.748,253.6v46.413L322.069,318.338V273.314Z" transform="translate(-321.962 -196.566)" fill="#00bcd4"/><path d="M505.748,246.783v13.41L322.069,279.912V265.19Z" transform="translate(-321.962 -203.164)" fill="#d1bdbd"/><path d="M413.516,334.318,499.628,284.6c9.228-5.327,8.061-14.718-2.594-20.87L450.555,236.9c-10.655-6.153-26.921-6.827-36.149-1.5l-86.112,49.717c-9.228,5.329-8.061,14.72,2.594,20.872l46.479,26.834C388.023,338.971,404.288,339.646,413.516,334.318Z" transform="translate(-322.068 -217.672)" fill="#493231"/><path d="M413.516,332.319,499.628,282.6c9.228-5.327,8.061-14.718-2.594-20.87L450.555,234.9c-10.655-6.149-26.921-6.825-36.149-1.5l-86.112,49.717c-9.228,5.329-8.061,14.72,2.594,20.872l46.479,26.834C388.023,336.973,404.288,337.648,413.516,332.319Z" transform="translate(-322.068 -219.607)" fill="#d1bdbd"/><path d="M413.516,327.139l86.112-49.717c9.228-5.329,8.061-14.72-2.594-20.871l-46.479-26.834c-10.655-6.151-26.921-6.825-36.149-1.5l-86.112,49.717c-9.228,5.327-8.061,14.718,2.594,20.869l46.479,26.836C388.023,331.792,404.288,332.466,413.516,327.139Z" transform="translate(-322.068 -224.624)" fill="#e8d6d6"/><path d="M348.606,259.436c0,11.653,17.753,21.092,39.657,21.092s39.653-9.439,39.653-21.092-17.754-21.09-39.653-21.09S348.606,247.787,348.606,259.436Z" transform="translate(-296.367 -211.335)" fill="#81d4fa"/><g transform="translate(15.16 100.633)"><path d="M394.853,312.089l-4.2,2.425V286.8l4.2-2.425Z" transform="translate(-361.233 -267.395)" fill="#e8d6d6"/><path d="M407.81,304.606l-4.2,2.425V279.315l4.2-2.425Z" transform="translate(-399.694 -274.641)" fill="#e8d6d6"/><path d="M396.7,279.238v22.388l21.581,12.459V291.7l3.916,2.261v27.716l-29.413-16.981V276.978Z" transform="translate(-392.779 -274.556)" fill="#d1bdbd"/><path d="M416.365,303.205l-21.589-12.48,4.2-2.512,17.389,10.053Z" transform="translate(-390.86 -263.675)" fill="#fff"/><path d="M390.653,285.646l3.916,2.261,4.2-2.418-3.916-2.261Z" transform="translate(-365.148 -268.504)" fill="#fff"/><path d="M403.61,278.165l3.916,2.261,4.2-2.418-3.916-2.261Z" transform="translate(-403.61 -275.747)" fill="#fff"/></g><g transform="translate(67.736 32.047)"><path d="M394.45,267.988l7.47-4.313-37.978-21.927-7.47,4.313Z" transform="translate(-353.592 -240.087)" fill="#fff"/><path d="M406.217,251.848l-3.735-6.469-47.473,5.482,3.735,6.469Z" transform="translate(-355.009 -236.572)" fill="#fff"/><path d="M362.759,268.313l11.2,2.156,9.494-27.408-11.2-2.156Z" transform="translate(-347.504 -240.905)" fill="#fff"/></g></g><g transform="translate(120.088 10.775)"><path d="M325.921,232.118s3.085,4.977,5.195,8.314a86.346,86.346,0,0,0,8.941-.7q.3-.038.565-.065c1.968-.2,3.734-.667,5.118-.671l-.007-.022s1.446-.089,3.494-.149c1.785-.051,1.961-.257,2.768.154.323.167.56.841-.616.894a5.642,5.642,0,0,0-1.6.352,13.852,13.852,0,0,1,4.015,1.822c2.122,1.4,2,3.8.359,3.9-2.039.129-5.8-1.363-8.125-2.351-1.994-.846-3.114-.034-5.338.707h0c-.366.123-.756.243-1.193.355-1.4.355-7.359,2.92-11.091,2.731-.094-.082-.2-.161-.279-.246-1.428-1.483-6.527-10.926-6.527-10.926Z" transform="translate(-295.882 -201.815)" fill="#ffa8a6"/><g transform="translate(21.198 98.518)"><path d="M329.049,270.113c1.738-.062,3.536-.265,5.305-.359-.044,1.075-.071,2.01-.074,2.7-.02,4.018,2.445,7.757,3.362,9.209s-2,3.723-4.21,1.6a22.976,22.976,0,0,0-4.945-3.859c-1.249-.663-1.153-1.513.063-6.026A16.053,16.053,0,0,0,329.049,270.113Z" transform="translate(-310.376 -269.754)" fill="#ff9784"/><path d="M337.572,275.182a13.67,13.67,0,0,0,5.418-.214c-.005.268-.009.524-.009.743-.02,4.02,2.443,7.757,3.362,9.209s-2,3.723-4.21,1.6-2.445-2.53-3.7-3.194-2.851-1.508-1.863-4.676C336.708,278.223,337.489,275.717,337.572,275.182Z" transform="translate(-334.797 -265.518)" fill="#ffc3c2"/><g transform="translate(15.854 5.715)"><path d="M333.537,274.379s2.068,2.949,3.8,4.9c2.039,2.289,2.907,2.827,3.389,4.08s-1.811,4.267-5.785,1.972-4.685-2.942-6.034-4.183c-1.747-1.608-3.556-2.679-3.833-4.988a3.889,3.889,0,0,1,1.3-3.25s.364,1.374,2.75,2.722C330.92,276.643,333.537,274.379,333.537,274.379Z" transform="translate(-324.602 -272.907)" fill="#fff"/><path d="M341.118,282.27s-2.635,1.622-2.972,1.774c-2.3,1.035-4.49-1.374-6.681-2.869a13.143,13.143,0,0,1-4.383-4.593,10.217,10.217,0,0,0-1.642-2.338s-1.31,3.083.544,4.207c2.248,1.363,5.9,4.031,6.944,4.654.883.529,5.321,3.861,7.826,1.356A1.882,1.882,0,0,0,341.118,282.27Z" transform="translate(-324.99 -271.821)" fill="#d1bdbd"/><path d="M331.141,274.856a5.5,5.5,0,0,0-2.014,1.492,18.787,18.787,0,0,0-1.278,1.606l.808.6s1.37-1.363,2.008-2.061a7.665,7.665,0,0,1,1.151-.758Z" transform="translate(-320.695 -271.324)" fill="#d1bdbd"/><path d="M330.085,275.877a6.054,6.054,0,0,0-2.059,1.544,7.634,7.634,0,0,0-1,1.309l.718.792s1.18-1.252,1.82-1.95a10.061,10.061,0,0,1,1.227-.857Z" transform="translate(-318.186 -270.494)" fill="#d1bdbd"/></g><g transform="translate(0 13.137)"><path d="M342.284,278.474s2.07,2.947,3.8,4.9c2.037,2.287,2.905,2.827,3.389,4.08s-1.813,4.267-5.787,1.97-4.685-2.942-6.032-4.183c-1.747-1.608-3.558-2.677-3.835-4.988a3.884,3.884,0,0,1,1.3-3.248s.364,1.374,2.75,2.72C339.668,280.738,342.284,278.474,342.284,278.474Z" transform="translate(-333.348 -277.002)" fill="#fff"/><path d="M349.866,286.365s-2.637,1.62-2.974,1.774c-2.3,1.035-4.489-1.376-6.681-2.871a13.118,13.118,0,0,1-4.381-4.591,10.164,10.164,0,0,0-1.644-2.34s-1.31,3.083.544,4.207c2.247,1.363,5.9,4.031,6.944,4.654.883.529,5.321,3.863,7.826,1.358A1.886,1.886,0,0,0,349.866,286.365Z" transform="translate(-333.737 -275.917)" fill="#d1bdbd"/><path d="M339.886,278.95a5.488,5.488,0,0,0-2.012,1.492,19.039,19.039,0,0,0-1.28,1.606l.808.6s1.37-1.363,2.01-2.061a7.572,7.572,0,0,1,1.151-.758Z" transform="translate(-329.441 -275.419)" fill="#d1bdbd"/><path d="M338.829,279.971a6.051,6.051,0,0,0-2.057,1.546,7.555,7.555,0,0,0-1,1.307l.716.794s1.182-1.254,1.82-1.952a9.984,9.984,0,0,1,1.229-.855Z" transform="translate(-326.93 -274.59)" fill="#d1bdbd"/></g></g><path d="M329.3,249.867s13.213-9.535,20.416-4.417c5.465,3.886,13.6,13.052,18.174,16.294,2.373,1.682,4.451,5.195,4.451,10,0,2.817,1.124,25.05,1.124,25.05a12.239,12.239,0,0,1-5.4,1.6c-2.719,0-4.366-3.123-4.366-3.123s-2.953-16.176-3.282-24.469c-2.48-3.455-11.616-8.2-11.616-8.2s2.5,2.387,6.128,5.523c2.371,2.054,3.563,5.64,3.42,9.307-.227,5.86.457,26.221.457,26.221a11.233,11.233,0,0,1-5.218,1.675c-2.632.006-5.987-2.726-5.987-2.726a177.747,177.747,0,0,1-.814-26.433c-.924-1.211-10.744-7.877-13.32-10.541C326.071,257.983,329.3,249.867,329.3,249.867Z" transform="translate(-326.642 -192.21)" fill="#3371d3"/><path d="M358.911,218.25s-2.025-4.247-6.333-2.374-2.831,8.58-1.861,10.57.455,7.547-1.292,7.812-3.353-1.666-3.353-1.666.424,5.865,6.507,4.566S358.911,218.25,358.911,218.25Z" transform="translate(-343.765 -215.399)" fill="#3d2927"/><g transform="translate(2.654 11.047)"><path d="M342.617,244.05a14.412,14.412,0,0,0,6.132-5.479c-2.378-4.493-5.534-9.791-7.118-10.822a5.629,5.629,0,0,0-5.059-.855l5.541,16.345S342.307,243.559,342.617,244.05Z" transform="translate(-319.039 -217.316)" fill="#649ff4"/><path d="M350.546,230.082a36.6,36.6,0,0,0,.411,4.778c.4.883,1.231,5.876.611,8.058-1.06-.812-3.92-4.752-4.856-5.93-1.133-1.428-4.241-4.388-4.241-4.388a5.44,5.44,0,0,0,1.832-3.752c.551-3.931,1.031-7.353,1.031-7.353Z" transform="translate(-332.774 -221.494)" fill="#ffa8a6"/><g transform="translate(0 7.986)"><path d="M339.739,249.721l.054-.027C339.775,249.95,339.755,249.937,339.739,249.721Z" transform="translate(-315.825 -206.568)" fill="#f38282"/><path d="M342.216,251.023s-3.2-10.425-.565-16.916c.8-1.967,7.631-5.365,7.631-5.365s3.092,3.263,4.185,4.4c.159.167.335.375.517.6.658.79,3.15,3.716,3.9,4.683a59.231,59.231,0,0,0-1.262-8.285,8.122,8.122,0,0,1-.324-3.31v0c.145-.495.265-.848.265-.848s.5-.054,1.227-.08c.9,1.321,2.541,4.731,3.491,6.179.915,1.4,3.5,5.553,2.851,9.738-1.285,8.234-2.976,24.516-2.827,26.33-.584.288-7.719,5.534-13.865,6.491-8.546,1.334-8.348-5.421-8.348-5.421S341.9,254.592,342.216,251.023Z" transform="translate(-339.089 -225.9)" fill="#e2e2e2"/></g><path d="M344.746,236.487l5.92-1.7-.426-1.47-5.92,1.7Z" transform="translate(-335 -211.886)" fill="#fff"/></g><path d="M362.343,283.571c3.591-1.7,5.258-1.49,7.239-1.883a17.826,17.826,0,0,1-5.38-8.941c-2.983-11.776-5.488-30.852-6.463-36.357-.237-1.332-.3,1.008-.517.45a8.033,8.033,0,0,1-2.023-1.948c-2.831-3.571-5.254-7-7.9-7.042-1.492-.025-5.039,3.2-5.039,3.2s-1.586,8.613-1.653,11.522a62.69,62.69,0,0,1-4.094,20.365c-1.5,4.116-.962,10.164,3.888,17.086,1.33,1.9,8.816,10.935,12.934,13.043C354.753,287.729,357.616,285.8,362.343,283.571Z" transform="translate(-335.775 -205.283)" fill="#99c7ff"/><path d="M331.609,264.885h0c-.109,1.579,1.174,7.979,5.961,10.719,3.5,2,5.379,3.67,6.909,6.193,3.023-1.99,6.895-4.9,8.868-5.039-1.974-2.2-13.942-10.734-16.407-16.088-1.659-3.6-1.831-7.678-.468-15.083.872-4.729,1.57-5.8.756-9.195-.756-3.148-5.117-9.274-5.117-9.274l-2.075,1.118s.217,4.934.553,9.2c.1,1.318.46,2.248.517,3.362C331.276,244.217,332.037,257.4,331.609,264.885Z" transform="translate(-309.143 -205.877)" fill="#99c7ff"/><path d="M346.276,270.371c-.547-3.716-3.982-6.569-4.506-8.952-.955-4.363-.457-11.531-.4-15.615a106.64,106.64,0,0,0-1.562-13.242,1.781,1.781,0,0,1-1.069.449,98.424,98.424,0,0,1,1.468,11.816c.2,4.35-.357,12.983-.132,14.072C340.884,262.8,342.91,268.262,346.276,270.371Z" transform="translate(-317.848 -201.454)" fill="#649ff4"/><path d="M341.884,227.734s.2,2.887.326,4.37a41.681,41.681,0,0,0,1.7,5.894s1.341-.587,1.285-3.424-.8-8.149-.8-8.149Z" transform="translate(-322.459 -206.44)" fill="#649ff4"/><g transform="translate(11.629 44.58)"><g transform="translate(0 10.576)"><path d="M325.213,258.949h.915l20.916-12.077a4.848,4.848,0,0,1,4.345.181l14.083,8.131a3.14,3.14,0,0,1,.433.3h.627v1.187h-.016a1.3,1.3,0,0,1-.732,1.022L344.7,269.866a4.842,4.842,0,0,1-4.345-.179l-14.083-8.131a1.743,1.743,0,0,1-1.046-1.446h-.011Z" transform="translate(-325.21 -245.333)" fill="#ea81c0"/><path d="M344.7,269.255l21.086-12.174c1.109-.64.968-1.769-.312-2.508l-14.083-8.131a4.847,4.847,0,0,0-4.344-.18l-21.086,12.173c-1.109.642-.968,1.769.312,2.509l14.083,8.131A4.848,4.848,0,0,0,344.7,269.255Z" transform="translate(-325.213 -245.83)" fill="#ffb0d8"/><path d="M348.993,246.288l14.865,8.572-22.15,12.721L326.8,259.034Z" transform="translate(-325.416 -245.457)" fill="#ea81c0"/><path d="M355.866,246.209l1.138.659-22.15,12.721-1.178-.635Z" transform="translate(-331.019 -245.522)" fill="#fff"/><path d="M346.394,252.774l1.138.659-3.351,1.91L343,254.709Z" transform="translate(-338.451 -240.187)" fill="#fff"/><path d="M343.367,251.6l1.138.659-2.354,1.359-1.178-.634Z" transform="translate(-331.744 -241.144)" fill="#fff"/><path d="M341.748,250.677l1.138.659-2.354,1.359-1.179-.634Z" transform="translate(-327.192 -241.891)" fill="#fff"/><path d="M340.138,249.755l1.138.659-2.354,1.36-1.179-.635Z" transform="translate(-322.663 -242.641)" fill="#fff"/><path d="M343.317,254.523l1.138.659-1.655.955-1.179-.635Z" transform="translate(-332.873 -238.766)" fill="#fff"/><path d="M341.985,253.747l1.138.659-1.655.955-1.179-.635Z" transform="translate(-329.124 -239.397)" fill="#fff"/><path d="M341.041,252.819l1.138.659-2.354,1.359-1.179-.635Z" transform="translate(-325.205 -240.151)" fill="#fff"/><path d="M342.243,255.144l1.137.659-1.655.955-1.178-.635Z" transform="translate(-329.852 -238.262)" fill="#fff"/><path d="M340.91,254.368l1.138.659-1.655.955-1.179-.635Z" transform="translate(-326.103 -238.892)" fill="#fff"/><path d="M341.1,255.745l1.137.659-1.655.955-1.179-.635Z" transform="translate(-326.642 -237.774)" fill="#fff"/><path d="M339.769,254.968l1.138.659-1.655.955-1.179-.634Z" transform="translate(-322.893 -238.405)" fill="#fff"/><path d="M339.967,253.44l1.137.659-2.354,1.36-1.178-.634Z" transform="translate(-322.183 -239.646)" fill="#fff"/><path d="M339.479,251.9l1.138.66-2.354,1.359-1.179-.635Z" transform="translate(-320.811 -240.898)" fill="#fff"/><path d="M337.869,250.976l1.138.659-2.354,1.359-1.179-.635Z" transform="translate(-316.282 -241.648)" fill="#fff"/><path d="M345.519,253.195l1.137.66-3.92,2.24-1.179-.635Z" transform="translate(-334.958 -239.846)" fill="#fff"/><path d="M342.236,252.2l1.138.659-2.354,1.36-1.178-.635Z" transform="translate(-328.565 -240.654)" fill="#fff"/><path d="M340.618,251.28l1.138.659L339.4,253.3l-1.179-.634Z" transform="translate(-324.013 -241.401)" fill="#fff"/><path d="M339.007,250.357l1.138.659-2.354,1.36-1.179-.635Z" transform="translate(-319.484 -242.151)" fill="#fff"/></g><path d="M337.759,246.953s6.112,1.925,8.238,3.368,5.764,4.944.614,5.775c-5.512.888-10.179-4.972-10.565-5.234A6.3,6.3,0,0,1,337.759,246.953Z" transform="translate(-327.55 -234.341)" fill="#ffc3c2"/><g transform="translate(15.83)"><path d="M325.662,271.741l.067-17.918a1.748,1.748,0,0,1,.875-1.5l21.132-12.095a1.721,1.721,0,0,1,1.823.069l.011,0,.77.449-.321.005a1.7,1.7,0,0,1,.321,1l-.067,17.918a1.74,1.74,0,0,1-.875,1.5l-21.132,12.095a1.709,1.709,0,0,1-.513.189l-.321.335-1.126-.656,0-.045A1.7,1.7,0,0,1,325.662,271.741Z" transform="translate(-325.662 -239.995)" fill="#f495c9"/><path d="M325.246,254.108l-.067,17.918a1.741,1.741,0,0,0,2.6,1.517l21.132-12.095a1.741,1.741,0,0,0,.876-1.5l.067-17.918a1.74,1.74,0,0,0-2.6-1.517L326.122,252.6A1.74,1.74,0,0,0,325.246,254.108Z" transform="translate(-324.304 -239.766)" fill="#ffb0d8"/></g><path d="M326.17,256.819l4.992-2.882v-2.179l-4.992,2.882Z" transform="translate(-291.573 -230.438)" fill="#f495c9"/><path d="M333.675,261.157l4.992-2.882V256.1l-4.992,2.882Z" transform="translate(-312.683 -226.913)" fill="#f495c9"/><path d="M330.312,251.367c0,1.046.928,1.356,2.075.694a4.168,4.168,0,0,0,2.075-3.09c0-1.044-.93-1.356-2.075-.692A4.163,4.163,0,0,0,330.312,251.367Z" transform="translate(-302.382 -233.548)" fill="#fff"/></g><path d="M342.049,236.98s.136-.363,0,.275c-.236,1.084.156,2.76.312,5.388a51.386,51.386,0,0,0,.444,6.434c.35,1.426,1.519,1.887,4.044,3.612s13.947,6.356,13.947,6.356l2.45-3.413s-6.844-5.334-8.017-6-4.2-3.081-4.2-3.081l-.555-9.574Z" transform="translate(-340.667 -197.948)" fill="#ffc3c2"/><path d="M358.509,246.509c.283-5.006.257-11.54-.524-12.968-1.1-2.012-2.483-3.993-3.741-3.627-2.688.783-4.325,2.3-5.042,6.67a72.139,72.139,0,0,0-.6,9.414A12.092,12.092,0,0,0,358.509,246.509Z" transform="translate(-348.112 -203.642)" fill="#649ff4"/><path d="M345.119,226.761s-2.641.647-2.521,2.253c.163,2.222,1.146,4.16,4.484,6.6s5.95,2.11,5.95,2.11a40.056,40.056,0,0,0-4.856-5.93A10.164,10.164,0,0,1,345.119,226.761Z" transform="translate(-331.584 -206.168)" fill="#649ff4"/><path d="M352.6,218.5s-2.82-4.482-5.492-1.579.961,5.142.961,5.142Z" transform="translate(-337.555 -214.96)" fill="#649ff4"/><g transform="translate(8.814 0.922)"><path d="M342.279,219.231a6.845,6.845,0,0,1,10.681,3.636c2.287,6.476-3.573,14.563-6.7,13.189-1.749-.77-4.743-1.934-5.778-5.343C339.321,226.876,340.319,220.725,342.279,219.231Z" transform="translate(-336.121 -214.286)" fill="#ffc3c2"/><path d="M342.827,218.6a5.4,5.4,0,0,1,2.864-2.344c2.643-1.028,6.246.444,7.984,1.727,3.85,2.844,4.238,7.342,4.238,9.345,0,0-3.112,1.354-5.305.227,0,1.127-1.464,2.478-2.015,2.846-1.923,1.281-4.156-.111-5.517.031-.886.092-1.356,1.267-1.3,2.4a18.483,18.483,0,0,1-3.6-5.1C339.071,225.234,338.174,220.822,342.827,218.6Z" transform="translate(-339.29 -215.908)" fill="#33211f"/></g></g></g><g transform="translate(5 2)"><g transform="translate(963.711 464.533)"><path d="M345.317,332.191c.249-4.469,7.12-8.052,15.583-8.052s15.33,3.583,15.58,8.052c0,.082.024.164.024.249,0,4.584-6.987,8.3-15.6,8.3s-15.606-3.716-15.606-8.3C345.293,332.355,345.313,332.273,345.317,332.191Z" transform="translate(-228.264 -221.93)" fill="#92b4d1" opacity="0.192"/><g transform="translate(120.337 52.541)"><path d="M372.167,304.342V337.3c0,3.461-5.273,6.266-11.779,6.266s-11.782-2.8-11.782-6.266V304.342Z" transform="translate(-348.606 -280.61)" fill="#e8d6d6"/><g transform="translate(0 30.811)"><path d="M360.388,316.011c6.506,0,11.779-2.8,11.779-6.265v21.1c0,3.461-5.273,6.266-11.779,6.266s-11.782-2.8-11.782-6.266v-21.1C348.606,313.207,353.881,316.011,360.388,316.011Z" transform="translate(-348.606 -309.746)" fill="#9165d1"/></g><g transform="translate(0 33.732)"><path d="M360.388,318.24c6.506,0,11.779-2.8,11.779-6.265v15.408c0,3.463-5.273,6.266-11.779,6.266s-11.782-2.8-11.782-6.266V311.975C348.606,315.436,353.881,318.24,360.388,318.24Z" transform="translate(-348.606 -311.975)" fill="#b292ef"/></g><g transform="translate(3.231 33.732)"><path d="M348.606,316.277a17.864,17.864,0,0,0,8.551,1.962c6.506,0,11.779-2.8,11.779-6.265v2.864c0,3.461-5.273,6.266-11.779,6.266a17.862,17.862,0,0,1-8.551-1.964Z" transform="translate(-348.606 -311.975)" fill="#33211f"/></g><path d="M348.606,305.825c0,3.461,5.275,6.266,11.782,6.266s11.779-2.8,11.779-6.266-5.273-6.265-11.779-6.265S348.606,302.364,348.606,305.825Z" transform="translate(-348.606 -282.094)" fill="#f4efef"/><g transform="translate(3.465 14.27)"><path d="M364.674,297.12v10.827a10.159,10.159,0,0,1-1.74.679V297.3h-1.449v11.648a14.833,14.833,0,0,1-1.838.191V297.3H358.2v11.837a14.619,14.619,0,0,1-1.74-.183V297.3H355.01v11.329a10.215,10.215,0,0,1-1.775-.689V297.12Z" transform="translate(-350.642 -297.12)" fill="#a179e0"/><path d="M352.4,297.12v7.62a3.055,3.055,0,0,1-1.153,2.238V297.12Z" transform="translate(-335.771 -297.12)" fill="#a179e0"/><path d="M363.071,304.74a2.392,2.392,0,0,1,.037-.388V297.12h1.108v9.852A3.057,3.057,0,0,1,363.071,304.74Z" transform="translate(-363.071 -297.12)" fill="#a179e0"/><path d="M353.578,297.12v9.857a6.564,6.564,0,0,1-1.448.969V297.12Z" transform="translate(-338.099 -297.12)" fill="#448ce2"/><path d="M353.578,297.12v9.857a6.564,6.564,0,0,1-1.448.969V297.12Z" transform="translate(-338.099 -297.12)" fill="#9165d1"/><path d="M356.012,297.261v11.321a13.055,13.055,0,0,1-1.449.328V297.261Z" transform="translate(-343.72 -297.076)" fill="#448ce2"/><path d="M356.012,297.261v11.321a13.055,13.055,0,0,1-1.449.328V297.261Z" transform="translate(-343.72 -297.076)" fill="#9165d1"/><path d="M358.52,297.261V309.1c-.227.01-.456.018-.688.018-.257,0-.51-.008-.76-.021V297.261Z" transform="translate(-349.515 -297.076)" fill="#448ce2"/><path d="M358.52,297.261V309.1c-.227.01-.456.018-.688.018-.257,0-.51-.008-.76-.021V297.261Z" transform="translate(-349.515 -297.076)" fill="#9165d1"/><path d="M360.954,297.261v11.654a13.059,13.059,0,0,1-1.449-.325V297.261Z" transform="translate(-355.137 -297.076)" fill="#448ce2"/><path d="M360.954,297.261v11.654a13.059,13.059,0,0,1-1.449-.325V297.261Z" transform="translate(-355.137 -297.076)" fill="#9165d1"/><path d="M363.414,297.12v10.824a6.584,6.584,0,0,1-1.448-.972V297.12Z" transform="translate(-360.821 -297.12)" fill="#448ce2"/><path d="M363.414,297.12v10.824a6.584,6.584,0,0,1-1.448-.972V297.12Z" transform="translate(-360.821 -297.12)" fill="#9165d1"/></g><g transform="translate(3.465)"><path d="M351.25,298.167c0,2.443,3.722,4.423,8.317,4.423s8.315-1.98,8.315-4.423-3.723-4.423-8.315-4.423S351.25,295.724,351.25,298.167Z" transform="translate(-351.25 -283.897)" fill="#b292ef"/><path d="M352.9,299.086h-.018l2.4-11.312h7.613l2.4,11.291h-.017a1.853,1.853,0,0,1,.1.558c0,1.849-2.817,3.346-6.291,3.346s-6.291-1.5-6.291-3.346A1.847,1.847,0,0,1,352.9,299.086Z" transform="translate(-350.772 -285.749)" fill="#9165d1"/><path d="M354.692,288.253c0,1.118,1.7,2.024,3.806,2.024s3.807-.907,3.807-2.024-1.7-2.025-3.807-2.025S354.692,287.135,354.692,288.253Z" transform="translate(-350.183 -286.228)" fill="#b292ef"/><path d="M355.923,287.757c0,.645.983,1.167,2.194,1.167s2.194-.523,2.194-1.167-.983-1.167-2.194-1.167S355.923,287.113,355.923,287.757Z" transform="translate(-349.802 -286.116)" fill="#a179e0"/></g></g></g></g><g transform="translate(963.831 464.533)"><path d="M324.071,324.766c.162-2.926,4.66-5.271,10.2-5.271s10.035,2.345,10.2,5.271c0,.055.016.107.016.162,0,3-4.572,5.433-10.214,5.433s-10.215-2.432-10.215-5.433C324.055,324.873,324.067,324.821,324.071,324.766Z" transform="translate(-146.208 -214.866)" fill="#92b4d1" opacity="0.254"/><path d="M304.941,322.018c.164-2.926,4.661-5.271,10.2-5.271s10.035,2.345,10.2,5.271c0,.054.016.107.016.162,0,3-4.574,5.433-10.215,5.433s-10.215-2.432-10.215-5.433C304.925,322.125,304.938,322.071,304.941,322.018Z" transform="translate(-102.016 -215.719)" fill="#92b4d1" opacity="0.254"/><path d="M328.483,316.769c.164-2.929,4.667-5.277,10.212-5.277s10.047,2.348,10.211,5.277c0,.055.016.107.016.162,0,3.005-4.579,5.44-10.227,5.44s-10.228-2.434-10.228-5.44C328.467,316.877,328.48,316.824,328.483,316.769Z" transform="translate(-156.426 -217.348)" fill="#92b4d1" opacity="0.254"/><g transform="translate(173.873 89.677)"><g transform="translate(30.81 6.541)"><path d="M306.282,321.028v-4.454h16.88v4.49a2.436,2.436,0,0,1-.025.257c-.252,2.359-3.917,4.233-8.416,4.233-4.661,0-8.441-2.01-8.441-4.49C306.279,321.052,306.282,321.04,306.282,321.028Z" transform="translate(-306.279 -311.99)" fill="#9165d1"/><path d="M314.72,313.075c4.661,0,8.441,2.008,8.441,4.488a2.373,2.373,0,0,1-.025.257c-.252,2.359-3.917,4.233-8.416,4.233-4.661,0-8.441-2.01-8.441-4.49S310.059,313.075,314.72,313.075Z" transform="translate(-306.279 -313.075)" fill="#b292ef"/><path d="M309.207,320.938l11.384-6.572s-.392-.223-.638-.342c-.267-.13-.666-.288-.666-.288L307.922,320.3s.359.212.579.322C308.791,320.763,309.207,320.938,309.207,320.938Z" transform="translate(-305.861 -312.87)" fill="#9165d1"/></g><g transform="translate(0)"><path d="M329.8,316.035v-4.454h16.878v4.49a2.4,2.4,0,0,1-.024.257c-.253,2.359-3.919,4.233-8.416,4.233-4.663,0-8.442-2.01-8.442-4.49C329.8,316.059,329.8,316.047,329.8,316.035Z" transform="translate(-329.796 -306.997)" fill="#9165d1"/><path d="M338.238,308.082c4.661,0,8.44,2.01,8.44,4.49a2.4,2.4,0,0,1-.024.257c-.253,2.36-3.919,4.233-8.416,4.233-4.663,0-8.442-2.01-8.442-4.49S333.576,308.082,338.238,308.082Z" transform="translate(-329.796 -308.082)" fill="#b292ef"/><path d="M332.723,315.946l11.384-6.573s-.39-.223-.637-.342c-.267-.13-.667-.287-.667-.287l-11.364,6.561s.358.214.579.322C332.306,315.771,332.723,315.946,332.723,315.946Z" transform="translate(-329.377 -307.877)" fill="#9165d1"/></g><g transform="translate(5.747 10.485)"><path d="M325.413,324.038v-4.453h16.878v4.488a2.372,2.372,0,0,1-.024.257c-.251,2.359-3.919,4.233-8.416,4.233-4.663,0-8.442-2.01-8.442-4.49C325.409,324.062,325.413,324.05,325.413,324.038Z" transform="translate(-325.409 -315)" fill="#9165d1"/><path d="M333.851,316.085c4.661,0,8.44,2.01,8.44,4.49a2.4,2.4,0,0,1-.024.257c-.251,2.36-3.919,4.233-8.416,4.233-4.663,0-8.442-2.01-8.442-4.49S329.189,316.085,333.851,316.085Z" transform="translate(-325.409 -316.085)" fill="#b292ef"/><path d="M328.337,323.949l11.382-6.573s-.39-.223-.637-.342c-.267-.13-.667-.287-.667-.287l-11.364,6.561s.358.214.579.324C327.919,323.774,328.337,323.949,328.337,323.949Z" transform="translate(-324.99 -315.88)" fill="#9165d1"/></g></g></g><g transform="translate(968.711 464.533)"><path d="M303.994,233.738l19.569-11.3a9.026,9.026,0,0,1,3.626-1.074l-16.308-9.416c-2.37-1.369-2.631-3.457-.578-4.643h0c2.053-1.186,5.672-1.035,8.041.333l19.569,11.3c2.37,1.369,2.631,3.459.578,4.643a8.3,8.3,0,0,1-5.526.576,3.294,3.294,0,0,1-1.939,2.593l-19.569,11.3c-2.37,1.368-5.989,1.518-8.042.333S301.624,235.106,303.994,233.738Z" transform="translate(-153.794 -162.579)" fill="#92b4d1" opacity="0.157"/><g transform="translate(149.042 39.136)"><g transform="translate(7.513)"><path d="M313.227,205.15a4.622,4.622,0,0,1,6.3-1.686l8.755,5.053-.046.03s-2.5,5.235-3.945,8.31l-9.373-5.412A4.623,4.623,0,0,1,313.227,205.15Z" transform="translate(-312.614 -202.849)" fill="#00bcd4"/><path d="M302.8,213.139a7.577,7.577,0,0,1,2.97-5.74c.772-.477,1.407-.578,1.91-.217l10.663,6.156a4.608,4.608,0,1,1-4.608,7.981s-9.763-5.632-10.016-5.782C303.081,215.213,302.772,214.383,302.8,213.139Z" transform="translate(-292.117 -201.572)" fill="#9165d1"/></g><g transform="translate(0 15.309)"><path d="M323.581,216.836a4.622,4.622,0,0,0-6.3-1.687l-8.754,5.054.045.03s2.5,5.235,3.945,8.309l9.373-5.411A4.622,4.622,0,0,0,323.581,216.836Z" transform="translate(-295.669 -214.535)" fill="#00bcd4"/><path d="M334.527,224.825a7.575,7.575,0,0,0-2.97-5.74c-.772-.477-1.407-.578-1.91-.219l-10.663,6.156a4.609,4.609,0,0,0,4.609,7.983s9.762-5.632,10.015-5.783C334.244,226.9,334.555,226.067,334.527,224.825Z" transform="translate(-316.684 -213.258)" fill="#9165d1"/></g></g></g><g transform="translate(-7.558 7.008)"><path d="M324.564,202.589c.27-4.834,7.7-8.71,16.856-8.71s16.583,3.875,16.853,8.71c0,.089.025.178.025.269,0,4.959-7.557,8.978-16.878,8.978s-16.881-4.019-16.881-8.978C324.539,202.767,324.56,202.678,324.564,202.589Z" transform="translate(850.519 330.609)" fill="#92b4d1" opacity="0.221"/><g transform="translate(1178.086 474.475)"><g transform="translate(1.514 21.608)"><path d="M340.327,183.8c6.83,0,12.368-2.945,12.368-6.579v28.61c0,3.634-5.538,6.578-12.368,6.578s-12.37-2.944-12.37-6.578v-28.61C327.957,180.852,333.495,183.8,340.327,183.8Z" transform="translate(-327.957 -170.64)" fill="#d1bdbd"/><path d="M340.327,172.2c6.83,0,12.368,2.945,12.368,6.578s-5.538,6.579-12.368,6.579-12.37-2.945-12.37-6.579S333.495,172.2,340.327,172.2Z" transform="translate(-327.957 -172.197)" fill="#f4e6e6"/></g><path d="M340.7,179.976c7.648,0,13.849-3.3,13.849-7.367v35.363c0,4.069-6.2,7.367-13.849,7.367s-13.852-3.3-13.852-7.367V172.609C326.851,176.678,333.052,179.976,340.7,179.976Z" transform="translate(-326.851 -150.461)" fill="#e8d6d6" opacity="0.7"/><path d="M326.872,174.133c.221-3.967,6.32-7.147,13.831-7.147s13.607,3.18,13.828,7.147c0,.073.021.145.021.22,0,4.069-6.2,7.367-13.849,7.367s-13.852-3.3-13.852-7.367C326.851,174.278,326.868,174.206,326.872,174.133Z" transform="translate(-326.851 -152.205)" fill="#e8d6d6" opacity="0.5"/><path d="M330.662,168.827c.141-2.542,4.05-4.579,8.86-4.579s8.719,2.037,8.86,4.579c0,.047.014.093.014.141,0,2.607-3.974,4.719-8.875,4.719s-8.873-2.112-8.873-4.719C330.649,168.92,330.659,168.874,330.662,168.827Z" transform="translate(-325.672 -153.054)" fill="#e8d6d6" opacity="0.7"/><g transform="translate(0 33.126)"><path d="M340.7,188.356c7.648,0,13.849-3.3,13.849-7.367V193.9c0,4.069-6.2,7.367-13.849,7.367s-13.852-3.3-13.852-7.367V180.989C326.851,185.058,333.052,188.356,340.7,188.356Z" transform="translate(-326.851 -180.989)" fill="#7e5ee3"/></g><g transform="translate(1.568 6.861)"><path d="M344.395,167.132c0-.066.014-.128.018-.194v-5.953h3.13v10.5C345.592,170.331,344.395,168.808,344.395,167.132Z" transform="translate(-344.395 -160.927)" fill="#bca4a4"/><path d="M345.273,161c.13-.025.271-.035.4-.058v12.43a15.906,15.906,0,0,1-5.416-1.87V161Z" transform="translate(-337.113 -160.941)" fill="#af9797"/></g><g transform="translate(10.132 6.532)"><path d="M332.538,160.985v10.8a13.752,13.752,0,0,1-1.7.744v-11.54Z" transform="translate(-320.195 -160.599)" fill="#bca4a4"/><path d="M329.652,160.985v5.953c0,.065.018.128.018.194a4.474,4.474,0,0,1-1.622,3.236v-9.383Z" transform="translate(-313.669 -160.599)" fill="#bca4a4"/><path d="M339.487,160.69c.74,0,1.463.039,2.167.107v12.851c-.7.067-1.427.107-2.167.107a22.429,22.429,0,0,1-3.719-.307v-12.43A21.935,21.935,0,0,1,339.487,160.69Z" transform="translate(-335.768 -160.69)" fill="#bca4a4"/><path d="M331.322,160.985v9.383a9.409,9.409,0,0,1-2.036,1.412v-10.8Z" transform="translate(-316.943 -160.599)" fill="#bca4a4"/><path d="M331.322,160.985v9.383a9.409,9.409,0,0,1-2.036,1.412v-10.8Z" transform="translate(-316.943 -160.599)" fill="#fff" opacity="0.3"/><path d="M334.091,161.051h2.8v11.54a19.35,19.35,0,0,1-4.758,1.032V160.772C332.807,160.838,333.461,160.931,334.091,161.051Z" transform="translate(-326.25 -160.665)" fill="#bca4a4"/><path d="M334.091,161.051h2.8v11.54a19.35,19.35,0,0,1-4.758,1.032V160.772C332.807,160.838,333.461,160.931,334.091,161.051Z" transform="translate(-326.25 -160.665)" fill="#fff" opacity="0.3"/></g><path d="M328.068,162.041c.2-3.518,5.6-6.337,12.264-6.337s12.066,2.819,12.263,6.337c0,.065.018.13.018.2,0,3.609-5.5,6.534-12.281,6.534s-12.284-2.924-12.284-6.534C328.048,162.171,328.064,162.107,328.068,162.041Z" transform="translate(-326.48 -155.704)" fill="#f4e6e6"/><g transform="translate(7.71 2.84)"><path d="M338.908,158.684c-3.208,0-5.812,1.313-6.087,2.981a1.8,1.8,0,0,1-.086-.527c0-.033.007-.066.009-.1.1-1.758,2.8-3.168,6.131-3.168s6.034,1.41,6.131,3.168c0,.033.01.066.01.1a1.826,1.826,0,0,1-.052.4C344.584,159.933,342.036,158.684,338.908,158.684Z" transform="translate(-332.735 -157.872)" fill="#af9797"/><path d="M338.829,164.212c-3.053,0-5.578-1.186-6.054-2.739.275-1.668,2.878-2.981,6.087-2.981,3.127,0,5.675,1.249,6.057,2.857C344.544,162.962,341.963,164.212,338.829,164.212Z" transform="translate(-332.688 -157.68)" fill="#d1bdbd"/></g></g></g><rect width="505" height="203" transform="translate(915 404)" fill="none"/></g></svg>