<?xml version="1.0" encoding="utf-8"?>
<!-- Generator: Adobe Illustrator 25.2.3, SVG Export Plug-In . SVG Version: 6.00 Build 0)  -->
<!DOCTYPE svg PUBLIC "-//W3C//DTD SVG 1.1//EN" "http://www.w3.org/Graphics/SVG/1.1/DTD/svg11.dtd" [
	<!ENTITY ns_extend "http://ns.adobe.com/Extensibility/1.0/">
	<!ENTITY ns_ai "http://ns.adobe.com/AdobeIllustrator/10.0/">
	<!ENTITY ns_graphs "http://ns.adobe.com/Graphs/1.0/">
	<!ENTITY ns_vars "http://ns.adobe.com/Variables/1.0/">
	<!ENTITY ns_imrep "http://ns.adobe.com/ImageReplacement/1.0/">
	<!ENTITY ns_sfw "http://ns.adobe.com/SaveForWeb/1.0/">
	<!ENTITY ns_custom "http://ns.adobe.com/GenericCustomNamespace/1.0/">
	<!ENTITY ns_adobe_xpath "http://ns.adobe.com/XPath/1.0/">
]>
<svg version="1.1" id="Capa_1" xmlns:x="&ns_extend;" xmlns:i="&ns_ai;" xmlns:graph="&ns_graphs;"
	 xmlns="http://www.w3.org/2000/svg" xmlns:xlink="http://www.w3.org/1999/xlink" x="0px" y="0px" viewBox="0 0 290.5 290.5"
	 style="enable-background:new 0 0 290.5 290.5;" xml:space="preserve">
<style type="text/css">
	.st0{fill:#E4DDFA;}
	.st1{fill:#7E5EE3;}
	.st2{fill:#FF6C5F;}
	.st3{fill:#EE5553;}
	.st4{fill:#FF9D7F;}
	.st5{fill:#468584;}
	.st6{fill:#FF9D00;}
	.st7{fill:#12263F;}
	.st8{fill:#D77E68;}
	.st9{fill:#352835;}
	.st10{fill:#589B99;}
	.st11{fill:none;stroke:#B06654;stroke-width:1.661;stroke-miterlimit:10;}
	.st12{fill:#FFFFFF;}
	.st13{fill:none;stroke:#352835;stroke-width:2.701;stroke-miterlimit:10;}
	.st14{fill:none;stroke:#352835;stroke-width:1.195;stroke-miterlimit:10;}
</style>
<metadata>
	<sfw  xmlns="&ns_sfw;">
		<slices></slices>
		<sliceSourceBounds  bottomLeftOrigin="true" height="290.5" width="290.5" x="-0.2" y="-0.2"></sliceSourceBounds>
	</sfw>
</metadata>
<path id="Rectángulo_32155" class="st0" d="M26.1,11.5h238c8.3,0,15,6.7,15,15v238c0,8.3-6.7,15-15,15h-238c-8.3,0-15-6.7-15-15
	v-238C11.2,18.3,17.9,11.5,26.1,11.5z"/>
<ellipse transform="matrix(0.7071 -0.7071 0.7071 0.7071 -35.5483 134.7592)" class="st1" cx="144.9" cy="110.3" rx="85.7" ry="85.7"/>
<g id="Grupo_70428" transform="translate(73.506 23.627)">
	<path id="Trazado_109623" class="st2" d="M112.5,39.1c0,0,2.5,17.5,9.8,29.1c10.6,16.8-3.1,19-0.3,30.7s23.9,21.5-1.2,48.2
		c-16.5,17.5-36.2-16.6-36.2-16.6l-5.5-44.5L112.5,39.1z"/>
	<path id="Trazado_109624" class="st3" d="M104.4,67.6c-2.7-2-5.2-4-7.8-6.2L79.1,83.2l5.5,39.3c3.3,4.9,7.3,9.2,11.8,13
		c1.8-2,6,7.3,8.4,6.4c8-2.8,22.4-18.1,12-29.8C104.4,98.2,119.3,82.4,104.4,67.6z"/>
</g>
<path class="st4" d="M207.3,169c-12.5-16.7-36.2-18.6-41.7-21.6c-7.8-4.3-5.7-24.8-5.7-24.8l-11.7,0.8v-0.8L147,123l-1.3-0.4v0.8
	l-11.7-0.8c0,0,2.1,20.6-5.7,24.8c-5.7,3.1-31.6,5.1-43.4,24.2c15.5,15.1,36.6,24.4,59.9,24.4C169.5,196,191.7,185.6,207.3,169z"/>
<path class="st5" d="M207.7,168.6c-4.6-6.1-10.7-10.2-16.9-13.1c-7.7,10.6-24.3,17.9-43.4,17.9s-35.7-7.3-43.4-17.9
	c-7.1,3.4-14.2,8.3-18.9,16.1c15.5,15.1,36.6,24.4,59.9,24.4C169.7,196,192,185.5,207.7,168.6z"/>
<rect id="Rectángulo_32140" x="-0.2" y="151.1" class="st1" width="2.7" height="14.5"/>
<rect id="Rectángulo_32141" x="-0.2" y="181.5" class="st1" width="2.7" height="15.9"/>
<rect id="Rectángulo_32142" x="-0.2" y="213.4" class="st1" width="2.7" height="15.9"/>
<path id="Trazado_109619" class="st1" d="M252.8,288v2.7h16l-0.1-2.7H252.8z"/>
<path id="Trazado_109620" class="st1" d="M287.5,269.2c0,4.9-1.9,9.7-5.4,13.2l1.9,1.9c4-4,6.2-9.4,6.1-15.1v-0.3h-2.7V269.2z"/>
<rect id="Rectángulo_32143" x="189" y="288" class="st1" width="15.9" height="2.7"/>
<rect id="Rectángulo_32144" x="287.5" y="151.1" class="st1" width="2.7" height="6.2"/>
<rect id="Rectángulo_32145" x="287.5" y="173.2" class="st1" width="2.7" height="16"/>
<rect id="Rectángulo_32146" x="287.5" y="237" class="st1" width="2.7" height="16"/>
<rect id="Rectángulo_32147" x="157.1" y="288" class="st1" width="15.9" height="2.7"/>
<rect id="Rectángulo_32148" x="287.5" y="205.1" class="st1" width="2.7" height="16"/>
<rect id="Rectángulo_32149" x="220.9" y="288" class="st1" width="15.9" height="2.7"/>
<rect id="Rectángulo_32150" x="-0.2" y="245.3" class="st1" width="2.7" height="15.9"/>
<path id="Trazado_109621" class="st1" d="M3.9,276.5l-2.5,1c2.2,5.3,6.5,9.5,11.8,11.6l1-2.5C9.6,284.8,5.9,281.1,3.9,276.5z"/>
<rect id="Rectángulo_32151" x="29.5" y="288" class="st1" width="15.9" height="2.7"/>
<rect id="Rectángulo_32152" x="93.3" y="288" class="st1" width="15.9" height="2.7"/>
<rect id="Rectángulo_32153" x="125.2" y="288" class="st1" width="15.9" height="2.7"/>
<rect id="Rectángulo_32154" x="61.4" y="288" class="st1" width="15.9" height="2.7"/>
<path id="Trazado_109622" class="st6" d="M2.4,148.4V21.8C2.5,11.4,10.9,3,21.3,3h247.5c10.4,0,18.8,8.4,18.8,18.8v126.6h2.7V21.8
	c0-11.9-9.6-21.5-21.5-21.5H21.3C9.4,0.3-0.2,9.9-0.2,21.8v126.6H2.4z"/>
<path class="st7" d="M68.2,220.7c-0.4,0.4-0.9,0.8-1.6,1c-0.7,0.2-1.4,0.4-2.2,0.4c-0.9,0-1.6-0.2-2.3-0.6c-0.6-0.4-1.2-0.9-1.5-1.6
	s-0.5-1.6-0.5-2.5v-0.7c0-1,0.2-1.9,0.5-2.6c0.3-0.7,0.8-1.3,1.4-1.7c0.6-0.4,1.4-0.6,2.2-0.6c1.2,0,2.1,0.3,2.8,0.8
	c0.7,0.6,1.1,1.4,1.2,2.5h-2c-0.1-0.6-0.3-1-0.6-1.3s-0.7-0.4-1.3-0.4c-0.7,0-1.2,0.3-1.6,0.8s-0.5,1.3-0.6,2.3v0.6
	c0,1,0.2,1.8,0.6,2.4s1,0.8,1.7,0.8c0.8,0,1.3-0.2,1.6-0.5v-1.7h-1.9v-1.5h3.9V220.7z"/>
<path class="st7" d="M73.2,222.1c-1.1,0-2-0.3-2.6-1s-1-1.6-1-2.7v-0.2c0-0.7,0.1-1.4,0.4-2c0.3-0.6,0.7-1,1.2-1.4
	c0.5-0.3,1.1-0.5,1.8-0.5c1,0,1.8,0.3,2.4,1s0.9,1.5,0.9,2.7v0.8h-4.7c0.1,0.5,0.3,0.9,0.6,1.2s0.7,0.4,1.2,0.4
	c0.8,0,1.4-0.3,1.8-0.8l1,1.1c-0.3,0.4-0.7,0.7-1.2,1C74.3,222,73.8,222.1,73.2,222.1z M72.9,216.1c-0.4,0-0.7,0.1-1,0.4
	s-0.4,0.6-0.5,1.1h2.7v-0.2c0-0.4-0.1-0.8-0.4-1S73.4,216.1,72.9,216.1z"/>
<path class="st7" d="M81.5,216.5c-0.3,0-0.5-0.1-0.7-0.1c-0.7,0-1.2,0.3-1.5,0.8v4.8h-2v-7.4h1.9l0.1,0.9c0.4-0.7,0.9-1,1.6-1
	c0.2,0,0.4,0,0.6,0.1L81.5,216.5z"/>
<path class="st7" d="M85.8,222.1c-1.1,0-2-0.3-2.6-1s-1-1.6-1-2.7v-0.2c0-0.7,0.1-1.4,0.4-2c0.3-0.6,0.7-1,1.2-1.4
	c0.5-0.3,1.1-0.5,1.8-0.5c1,0,1.8,0.3,2.4,1s0.9,1.5,0.9,2.7v0.8h-4.7c0.1,0.5,0.3,0.9,0.6,1.2s0.7,0.4,1.2,0.4
	c0.8,0,1.4-0.3,1.8-0.8l1,1.1c-0.3,0.4-0.7,0.7-1.2,1C87,222,86.5,222.1,85.8,222.1z M85.6,216.1c-0.4,0-0.7,0.1-1,0.4
	s-0.4,0.6-0.5,1.1h2.7v-0.2c0-0.4-0.1-0.8-0.4-1S86,216.1,85.6,216.1z"/>
<path class="st7" d="M91.8,214.6l0.1,0.9c0.5-0.7,1.2-1,2.1-1c0.8,0,1.4,0.2,1.8,0.7s0.6,1.1,0.6,2.1v4.8h-2v-4.7
	c0-0.4-0.1-0.7-0.3-0.9c-0.2-0.2-0.5-0.3-0.9-0.3c-0.6,0-1,0.2-1.3,0.7v5.2h-2v-7.4H91.8z"/>
<path class="st7" d="M100.2,212.8v1.8h1.3v1.4h-1.3v3.7c0,0.3,0.1,0.5,0.2,0.6s0.3,0.2,0.6,0.2c0.2,0,0.4,0,0.6,0v1.5
	c-0.4,0.1-0.8,0.2-1.2,0.2c-1.4,0-2.1-0.7-2.1-2.1v-4h-1.1v-1.4h1.1v-1.8H100.2z"/>
<path class="st7" d="M106,222.1c-1.1,0-2-0.3-2.6-1s-1-1.6-1-2.7v-0.2c0-0.7,0.1-1.4,0.4-2c0.3-0.6,0.7-1,1.2-1.4
	c0.5-0.3,1.1-0.5,1.8-0.5c1,0,1.8,0.3,2.4,1s0.9,1.5,0.9,2.7v0.8h-4.7c0.1,0.5,0.3,0.9,0.6,1.2s0.7,0.4,1.2,0.4
	c0.8,0,1.4-0.3,1.8-0.8l1,1.1c-0.3,0.4-0.7,0.7-1.2,1C107.2,222,106.6,222.1,106,222.1z M105.7,216.1c-0.4,0-0.7,0.1-1,0.4
	s-0.4,0.6-0.5,1.1h2.7v-0.2c0-0.4-0.1-0.8-0.4-1S106.2,216.1,105.7,216.1z"/>
<path class="st7" d="M113.3,218.2c0-1.1,0.3-2,0.8-2.7s1.3-1,2.2-1c0.8,0,1.4,0.3,1.9,0.8l0.1-0.7h1.8v7.2c0,0.6-0.1,1.2-0.4,1.7
	s-0.7,0.8-1.2,1.1s-1.2,0.4-1.9,0.4c-0.5,0-1.1-0.1-1.6-0.3c-0.5-0.2-0.9-0.5-1.2-0.8l0.9-1.2c0.5,0.6,1.1,0.8,1.8,0.8
	c0.5,0,0.9-0.1,1.2-0.4c0.3-0.3,0.4-0.7,0.4-1.2v-0.4c-0.5,0.5-1.1,0.8-1.8,0.8c-0.9,0-1.6-0.3-2.2-1
	C113.6,220.4,113.3,219.5,113.3,218.2L113.3,218.2z M115.3,218.4c0,0.7,0.1,1.2,0.4,1.6c0.3,0.4,0.6,0.6,1.1,0.6
	c0.6,0,1-0.2,1.3-0.7v-3.1c-0.3-0.5-0.7-0.7-1.3-0.7c-0.5,0-0.8,0.2-1.1,0.6S115.3,217.6,115.3,218.4z"/>
<path class="st7" d="M125,222.1c-1.1,0-2-0.3-2.6-1s-1-1.6-1-2.7v-0.2c0-0.7,0.1-1.4,0.4-2c0.3-0.6,0.7-1,1.2-1.4
	c0.5-0.3,1.1-0.5,1.8-0.5c1,0,1.8,0.3,2.4,1s0.9,1.5,0.9,2.7v0.8h-4.7c0.1,0.5,0.3,0.9,0.6,1.2s0.7,0.4,1.2,0.4
	c0.8,0,1.4-0.3,1.8-0.8l1,1.1c-0.3,0.4-0.7,0.7-1.2,1C126.2,222,125.6,222.1,125,222.1z M124.8,216.1c-0.4,0-0.7,0.1-1,0.4
	s-0.4,0.6-0.5,1.1h2.7v-0.2c0-0.4-0.1-0.8-0.4-1S125.2,216.1,124.8,216.1z"/>
<path class="st7" d="M131,214.6l0.1,0.9c0.5-0.7,1.2-1,2.1-1c0.8,0,1.4,0.2,1.8,0.7s0.6,1.1,0.6,2.1v4.8h-2v-4.7
	c0-0.4-0.1-0.7-0.3-0.9c-0.2-0.2-0.5-0.3-0.9-0.3c-0.6,0-1,0.2-1.3,0.7v5.2h-2v-7.4H131z"/>
<path class="st7" d="M140.4,222.1c-1.1,0-2-0.3-2.6-1s-1-1.6-1-2.7v-0.2c0-0.7,0.1-1.4,0.4-2c0.3-0.6,0.7-1,1.2-1.4
	c0.5-0.3,1.1-0.5,1.8-0.5c1,0,1.8,0.3,2.4,1s0.9,1.5,0.9,2.7v0.8h-4.7c0.1,0.5,0.3,0.9,0.6,1.2s0.7,0.4,1.2,0.4
	c0.8,0,1.4-0.3,1.8-0.8l1,1.1c-0.3,0.4-0.7,0.7-1.2,1C141.6,222,141,222.1,140.4,222.1z M140.2,216.1c-0.4,0-0.7,0.1-1,0.4
	s-0.4,0.6-0.5,1.1h2.7v-0.2c0-0.4-0.1-0.8-0.4-1S140.6,216.1,140.2,216.1z"/>
<path class="st7" d="M148.7,216.5c-0.3,0-0.5-0.1-0.7-0.1c-0.7,0-1.2,0.3-1.5,0.8v4.8h-2v-7.4h1.9l0.1,0.9c0.4-0.7,0.9-1,1.6-1
	c0.2,0,0.4,0,0.6,0.1L148.7,216.5z"/>
<path class="st7" d="M153.8,222c-0.1-0.2-0.2-0.4-0.2-0.7c-0.5,0.5-1.1,0.8-1.9,0.8c-0.7,0-1.3-0.2-1.8-0.6
	c-0.5-0.4-0.7-0.9-0.7-1.6c0-0.8,0.3-1.4,0.9-1.8s1.4-0.6,2.5-0.6h0.9v-0.4c0-0.3-0.1-0.6-0.3-0.8c-0.2-0.2-0.5-0.3-0.8-0.3
	c-0.3,0-0.6,0.1-0.8,0.2c-0.2,0.2-0.3,0.4-0.3,0.7h-2c0-0.4,0.1-0.8,0.4-1.2c0.3-0.4,0.6-0.7,1.1-0.9c0.5-0.2,1-0.3,1.6-0.3
	c0.9,0,1.6,0.2,2.2,0.7c0.5,0.5,0.8,1.1,0.8,1.9v3.2c0,0.7,0.1,1.2,0.3,1.6v0.1H153.8z M152.1,220.6c0.3,0,0.6-0.1,0.8-0.2
	c0.2-0.1,0.4-0.3,0.5-0.5v-1.3h-0.7c-1,0-1.5,0.3-1.6,1l0,0.1c0,0.2,0.1,0.4,0.3,0.6C151.6,220.5,151.8,220.6,152.1,220.6z"/>
<path class="st7" d="M159.1,222h-2v-10.5h2V222z"/>
<path class="st7" d="M161.2,224.5l-1-0.5l0.2-0.4c0.3-0.6,0.5-1.1,0.5-1.7v-1.5h1.7l0,1.4c0,0.5-0.1,1-0.4,1.5
	C161.9,223.7,161.6,224.2,161.2,224.5z"/>
<path class="st7" d="M167.3,218.2c0-1.2,0.3-2.1,0.8-2.8c0.5-0.7,1.2-1,2.1-1c0.7,0,1.3,0.3,1.8,0.8v-3.8h2V222h-1.8l-0.1-0.8
	c-0.5,0.6-1.1,0.9-1.9,0.9c-0.9,0-1.6-0.3-2.1-1C167.6,220.4,167.3,219.5,167.3,218.2z M169.3,218.4c0,0.7,0.1,1.2,0.4,1.6
	c0.2,0.4,0.6,0.6,1.1,0.6c0.6,0,1-0.3,1.3-0.8v-2.9c-0.2-0.5-0.7-0.8-1.3-0.8C169.8,216.1,169.3,216.8,169.3,218.4z"/>
<path class="st7" d="M175.5,212.7c0-0.3,0.1-0.5,0.3-0.7s0.5-0.3,0.8-0.3c0.3,0,0.6,0.1,0.8,0.3c0.2,0.2,0.3,0.4,0.3,0.7
	c0,0.3-0.1,0.5-0.3,0.7c-0.2,0.2-0.5,0.3-0.8,0.3c-0.3,0-0.6-0.1-0.8-0.3C175.6,213.2,175.5,213,175.5,212.7z M177.6,222h-2v-7.4h2
	V222z"/>
<path class="st7" d="M183.4,216.5c-0.3,0-0.5-0.1-0.7-0.1c-0.7,0-1.2,0.3-1.5,0.8v4.8h-2v-7.4h1.9l0.1,0.9c0.4-0.7,0.9-1,1.6-1
	c0.2,0,0.4,0,0.6,0.1L183.4,216.5z"/>
<path class="st7" d="M187.7,222.1c-1.1,0-2-0.3-2.6-1c-0.7-0.7-1-1.6-1-2.7v-0.2c0-0.7,0.1-1.4,0.4-2c0.3-0.6,0.7-1,1.2-1.4
	c0.5-0.3,1.1-0.5,1.8-0.5c1,0,1.8,0.3,2.4,1s0.9,1.5,0.9,2.7v0.8h-4.7c0.1,0.5,0.3,0.9,0.6,1.2s0.7,0.4,1.2,0.4
	c0.8,0,1.4-0.3,1.8-0.8l1,1.1c-0.3,0.4-0.7,0.7-1.2,1C188.9,222,188.3,222.1,187.7,222.1z M187.5,216.1c-0.4,0-0.7,0.1-1,0.4
	c-0.2,0.3-0.4,0.6-0.5,1.1h2.7v-0.2c0-0.4-0.1-0.8-0.4-1C188.2,216.2,187.9,216.1,187.5,216.1z"/>
<path class="st7" d="M195,220.5c0.4,0,0.7-0.1,0.9-0.3c0.2-0.2,0.3-0.5,0.4-0.8h1.9c0,0.5-0.1,1-0.4,1.4c-0.3,0.4-0.6,0.7-1.1,1
	c-0.5,0.2-1,0.3-1.5,0.3c-1.1,0-1.9-0.3-2.5-1c-0.6-0.7-0.9-1.6-0.9-2.8v-0.1c0-1.1,0.3-2,0.9-2.7c0.6-0.7,1.4-1,2.5-1
	c0.9,0,1.7,0.3,2.2,0.8c0.6,0.5,0.8,1.2,0.9,2.1h-1.9c0-0.4-0.1-0.7-0.4-0.9c-0.2-0.2-0.5-0.4-0.9-0.4c-0.5,0-0.8,0.2-1,0.5
	c-0.2,0.3-0.4,0.9-0.4,1.6v0.2c0,0.8,0.1,1.3,0.3,1.6S194.5,220.5,195,220.5z"/>
<path class="st7" d="M201.6,212.8v1.8h1.3v1.4h-1.3v3.7c0,0.3,0.1,0.5,0.2,0.6c0.1,0.1,0.3,0.2,0.6,0.2c0.2,0,0.4,0,0.6,0v1.5
	c-0.4,0.1-0.8,0.2-1.2,0.2c-1.4,0-2.1-0.7-2.1-2.1v-4h-1.1v-1.4h1.1v-1.8H201.6z"/>
<path class="st7" d="M203.4,218.2c0-0.7,0.1-1.4,0.4-2c0.3-0.6,0.7-1,1.2-1.3c0.5-0.3,1.1-0.5,1.8-0.5c1,0,1.8,0.3,2.4,0.9
	c0.6,0.6,1,1.4,1.1,2.5l0,0.5c0,1.1-0.3,2-1,2.7c-0.6,0.7-1.5,1-2.5,1s-1.9-0.3-2.6-1S203.4,219.5,203.4,218.2L203.4,218.2z
	 M205.4,218.4c0,0.7,0.1,1.2,0.4,1.6c0.3,0.4,0.6,0.6,1.1,0.6c0.5,0,0.9-0.2,1.1-0.6c0.3-0.4,0.4-1,0.4-1.8c0-0.7-0.1-1.2-0.4-1.6
	c-0.3-0.4-0.6-0.6-1.1-0.6c-0.5,0-0.9,0.2-1.1,0.6C205.5,217,205.4,217.6,205.4,218.4z"/>
<path class="st7" d="M215.8,216.5c-0.3,0-0.5-0.1-0.7-0.1c-0.7,0-1.2,0.3-1.5,0.8v4.8h-2v-7.4h1.9l0.1,0.9c0.4-0.7,0.9-1,1.6-1
	c0.2,0,0.4,0,0.6,0.1L215.8,216.5z"/>
<path class="st7" d="M219.9,218.2c0-0.7,0.1-1.4,0.4-2c0.3-0.6,0.7-1,1.2-1.3c0.5-0.3,1.1-0.5,1.8-0.5c1,0,1.8,0.3,2.4,0.9
	c0.6,0.6,1,1.4,1.1,2.5l0,0.5c0,1.1-0.3,2-1,2.7c-0.6,0.7-1.5,1-2.5,1s-1.9-0.3-2.6-1S219.9,219.5,219.9,218.2L219.9,218.2z
	 M221.9,218.4c0,0.7,0.1,1.2,0.4,1.6c0.3,0.4,0.6,0.6,1.1,0.6c0.5,0,0.9-0.2,1.1-0.6c0.3-0.4,0.4-1,0.4-1.8c0-0.7-0.1-1.2-0.4-1.6
	c-0.3-0.4-0.6-0.6-1.1-0.6c-0.5,0-0.9,0.2-1.1,0.6C222,217,221.9,217.6,221.9,218.4z"/>
<path class="st7" d="M72.7,237.2c0-1.1,0.3-2,0.8-2.7s1.3-1,2.2-1c0.8,0,1.4,0.3,1.9,0.8l0.1-0.7h1.8v7.2c0,0.6-0.1,1.2-0.4,1.7
	s-0.7,0.8-1.2,1.1s-1.2,0.4-1.9,0.4c-0.5,0-1.1-0.1-1.6-0.3c-0.5-0.2-0.9-0.5-1.2-0.8l0.9-1.2c0.5,0.6,1.1,0.8,1.8,0.8
	c0.5,0,0.9-0.1,1.2-0.4c0.3-0.3,0.4-0.7,0.4-1.2v-0.4c-0.5,0.5-1.1,0.8-1.8,0.8c-0.9,0-1.6-0.3-2.2-1
	C73,239.4,72.7,238.5,72.7,237.2L72.7,237.2z M74.7,237.4c0,0.7,0.1,1.2,0.4,1.6c0.3,0.4,0.6,0.6,1.1,0.6c0.6,0,1-0.2,1.3-0.7v-3.1
	c-0.3-0.5-0.7-0.7-1.3-0.7c-0.5,0-0.8,0.2-1.1,0.6S74.7,236.6,74.7,237.4z"/>
<path class="st7" d="M84.4,241.1c-1.1,0-2-0.3-2.6-1s-1-1.6-1-2.7v-0.2c0-0.7,0.1-1.4,0.4-2c0.3-0.6,0.7-1,1.2-1.4
	c0.5-0.3,1.1-0.5,1.8-0.5c1,0,1.8,0.3,2.4,1s0.9,1.5,0.9,2.7v0.8h-4.7c0.1,0.5,0.3,0.9,0.6,1.2s0.7,0.4,1.2,0.4
	c0.8,0,1.4-0.3,1.8-0.8l1,1.1c-0.3,0.4-0.7,0.7-1.2,1C85.6,241,85,241.1,84.4,241.1z M84.2,235.1c-0.4,0-0.7,0.1-1,0.4
	s-0.4,0.6-0.5,1.1h2.7v-0.2c0-0.4-0.1-0.8-0.4-1S84.6,235.1,84.2,235.1z"/>
<path class="st7" d="M92.7,235.5c-0.3,0-0.5-0.1-0.7-0.1c-0.7,0-1.2,0.3-1.5,0.8v4.8h-2v-7.4h1.9l0.1,0.9c0.4-0.7,0.9-1,1.6-1
	c0.2,0,0.4,0,0.6,0.1L92.7,235.5z"/>
<path class="st7" d="M97.1,241.1c-1.1,0-2-0.3-2.6-1s-1-1.6-1-2.7v-0.2c0-0.7,0.1-1.4,0.4-2c0.3-0.6,0.7-1,1.2-1.4
	c0.5-0.3,1.1-0.5,1.8-0.5c1,0,1.8,0.3,2.4,1s0.9,1.5,0.9,2.7v0.8h-4.7c0.1,0.5,0.3,0.9,0.6,1.2s0.7,0.4,1.2,0.4
	c0.8,0,1.4-0.3,1.8-0.8l1,1.1c-0.3,0.4-0.7,0.7-1.2,1C98.3,241,97.7,241.1,97.1,241.1z M96.9,235.1c-0.4,0-0.7,0.1-1,0.4
	s-0.4,0.6-0.5,1.1h2.7v-0.2c0-0.4-0.1-0.8-0.4-1S97.3,235.1,96.9,235.1z"/>
<path class="st7" d="M103.1,233.6l0.1,0.9c0.5-0.7,1.2-1,2.1-1c0.8,0,1.4,0.2,1.8,0.7s0.6,1.1,0.6,2.1v4.8h-2v-4.7
	c0-0.4-0.1-0.7-0.3-0.9c-0.2-0.2-0.5-0.3-0.9-0.3c-0.6,0-1,0.2-1.3,0.7v5.2h-2v-7.4H103.1z"/>
<path class="st7" d="M111.5,231.8v1.8h1.3v1.4h-1.3v3.7c0,0.3,0.1,0.5,0.2,0.6s0.3,0.2,0.6,0.2c0.2,0,0.4,0,0.6,0v1.5
	c-0.4,0.1-0.8,0.2-1.2,0.2c-1.4,0-2.1-0.7-2.1-2.1v-4h-1.1v-1.4h1.1v-1.8H111.5z"/>
<path class="st7" d="M117.2,241.1c-1.1,0-2-0.3-2.6-1s-1-1.6-1-2.7v-0.2c0-0.7,0.1-1.4,0.4-2c0.3-0.6,0.7-1,1.2-1.4
	c0.5-0.3,1.1-0.5,1.8-0.5c1,0,1.8,0.3,2.4,1s0.9,1.5,0.9,2.7v0.8h-4.7c0.1,0.5,0.3,0.9,0.6,1.2s0.7,0.4,1.2,0.4
	c0.8,0,1.4-0.3,1.8-0.8l1,1.1c-0.3,0.4-0.7,0.7-1.2,1C118.4,241,117.9,241.1,117.2,241.1z M117,235.1c-0.4,0-0.7,0.1-1,0.4
	s-0.4,0.6-0.5,1.1h2.7v-0.2c0-0.4-0.1-0.8-0.4-1S117.4,235.1,117,235.1z"/>
<path class="st7" d="M129.2,241c-0.1-0.2-0.2-0.4-0.2-0.7c-0.5,0.5-1.1,0.8-1.9,0.8c-0.7,0-1.3-0.2-1.8-0.6s-0.7-0.9-0.7-1.6
	c0-0.8,0.3-1.4,0.9-1.8s1.4-0.6,2.5-0.6h0.9v-0.4c0-0.3-0.1-0.6-0.3-0.8s-0.5-0.3-0.8-0.3c-0.3,0-0.6,0.1-0.8,0.2s-0.3,0.4-0.3,0.7
	h-2c0-0.4,0.1-0.8,0.4-1.2s0.6-0.7,1.1-0.9c0.5-0.2,1-0.3,1.6-0.3c0.9,0,1.6,0.2,2.2,0.7c0.5,0.5,0.8,1.1,0.8,1.9v3.2
	c0,0.7,0.1,1.2,0.3,1.6v0.1H129.2z M127.5,239.6c0.3,0,0.6-0.1,0.8-0.2c0.2-0.1,0.4-0.3,0.5-0.5v-1.3h-0.7c-1,0-1.5,0.3-1.6,1l0,0.1
	c0,0.2,0.1,0.4,0.3,0.6S127.2,239.6,127.5,239.6z"/>
<path class="st7" d="M132.1,237.2c0-1.2,0.3-2.1,0.8-2.8s1.2-1,2.1-1c0.7,0,1.3,0.3,1.8,0.8v-3.8h2V241H137l-0.1-0.8
	c-0.5,0.6-1.1,0.9-1.9,0.9c-0.9,0-1.6-0.3-2.1-1C132.3,239.4,132.1,238.5,132.1,237.2z M134.1,237.4c0,0.7,0.1,1.2,0.4,1.6
	c0.2,0.4,0.6,0.6,1.1,0.6c0.6,0,1-0.3,1.3-0.8v-2.9c-0.2-0.5-0.7-0.8-1.3-0.8C134.5,235.1,134.1,235.8,134.1,237.4z"/>
<path class="st7" d="M142.1,233.6l0.1,0.8c0.5-0.6,1.2-1,2.1-1c1,0,1.6,0.4,2,1.1c0.5-0.8,1.3-1.1,2.2-1.1c0.8,0,1.4,0.2,1.8,0.7
	c0.4,0.5,0.6,1.2,0.6,2.1v4.7h-2v-4.7c0-0.4-0.1-0.7-0.2-0.9c-0.2-0.2-0.5-0.3-0.9-0.3c-0.6,0-1,0.3-1.2,0.8l0,5.1h-2v-4.7
	c0-0.4-0.1-0.7-0.3-0.9s-0.5-0.3-0.9-0.3c-0.6,0-1,0.2-1.2,0.7v5.2h-2v-7.4H142.1z"/>
<path class="st7" d="M152.4,231.7c0-0.3,0.1-0.5,0.3-0.7s0.5-0.3,0.8-0.3c0.3,0,0.6,0.1,0.8,0.3c0.2,0.2,0.3,0.4,0.3,0.7
	c0,0.3-0.1,0.5-0.3,0.7c-0.2,0.2-0.5,0.3-0.8,0.3c-0.3,0-0.6-0.1-0.8-0.3C152.5,232.2,152.4,232,152.4,231.7z M154.5,241h-2v-7.4h2
	V241z"/>
<path class="st7" d="M157.9,233.6l0.1,0.9c0.5-0.7,1.2-1,2.1-1c0.8,0,1.4,0.2,1.8,0.7s0.6,1.1,0.6,2.1v4.8h-2v-4.7
	c0-0.4-0.1-0.7-0.3-0.9c-0.2-0.2-0.5-0.3-0.9-0.3c-0.6,0-1,0.2-1.3,0.7v5.2h-2v-7.4H157.9z"/>
<path class="st7" d="M163.9,231.7c0-0.3,0.1-0.5,0.3-0.7s0.5-0.3,0.8-0.3c0.3,0,0.6,0.1,0.8,0.3c0.2,0.2,0.3,0.4,0.3,0.7
	c0,0.3-0.1,0.5-0.3,0.7c-0.2,0.2-0.5,0.3-0.8,0.3c-0.3,0-0.6-0.1-0.8-0.3C164,232.2,163.9,232,163.9,231.7z M166,241h-2v-7.4h2V241z
	"/>
<path class="st7" d="M171.7,239c0-0.2-0.1-0.4-0.4-0.6c-0.2-0.1-0.6-0.3-1.2-0.4c-1.8-0.4-2.6-1.1-2.6-2.2c0-0.7,0.3-1.2,0.8-1.6
	c0.5-0.4,1.3-0.7,2.1-0.7c0.9,0,1.7,0.2,2.3,0.7c0.6,0.4,0.8,1,0.8,1.7h-2c0-0.3-0.1-0.5-0.3-0.7c-0.2-0.2-0.5-0.3-0.9-0.3
	c-0.3,0-0.6,0.1-0.8,0.2c-0.2,0.2-0.3,0.3-0.3,0.6c0,0.2,0.1,0.4,0.3,0.5c0.2,0.1,0.6,0.2,1,0.3c0.5,0.1,0.9,0.2,1.2,0.3
	c1,0.4,1.6,1,1.6,2c0,0.7-0.3,1.2-0.9,1.6c-0.6,0.4-1.3,0.6-2.2,0.6c-0.6,0-1.2-0.1-1.7-0.3c-0.5-0.2-0.9-0.5-1.1-0.9
	c-0.3-0.4-0.4-0.8-0.4-1.2h1.9c0,0.4,0.1,0.6,0.4,0.8c0.2,0.2,0.6,0.3,1,0.3c0.4,0,0.7-0.1,0.9-0.2
	C171.6,239.4,171.7,239.2,171.7,239z"/>
<path class="st7" d="M177.2,231.8v1.8h1.3v1.4h-1.3v3.7c0,0.3,0.1,0.5,0.2,0.6c0.1,0.1,0.3,0.2,0.6,0.2c0.2,0,0.4,0,0.6,0v1.5
	c-0.4,0.1-0.8,0.2-1.2,0.2c-1.4,0-2.1-0.7-2.1-2.1v-4h-1.1v-1.4h1.1v-1.8H177.2z"/>
<path class="st7" d="M183.8,235.5c-0.3,0-0.5-0.1-0.7-0.1c-0.7,0-1.2,0.3-1.5,0.8v4.8h-2v-7.4h1.9l0.1,0.9c0.4-0.7,0.9-1,1.6-1
	c0.2,0,0.4,0,0.6,0.1L183.8,235.5z"/>
<path class="st7" d="M188.8,241c-0.1-0.2-0.2-0.4-0.2-0.7c-0.5,0.5-1.1,0.8-1.9,0.8c-0.7,0-1.3-0.2-1.8-0.6
	c-0.5-0.4-0.7-0.9-0.7-1.6c0-0.8,0.3-1.4,0.9-1.8s1.4-0.6,2.5-0.6h0.9v-0.4c0-0.3-0.1-0.6-0.3-0.8c-0.2-0.2-0.5-0.3-0.8-0.3
	c-0.3,0-0.6,0.1-0.8,0.2c-0.2,0.2-0.3,0.4-0.3,0.7h-2c0-0.4,0.1-0.8,0.4-1.2c0.3-0.4,0.6-0.7,1.1-0.9c0.5-0.2,1-0.3,1.6-0.3
	c0.9,0,1.6,0.2,2.2,0.7c0.5,0.5,0.8,1.1,0.8,1.9v3.2c0,0.7,0.1,1.2,0.3,1.6v0.1H188.8z M187.1,239.6c0.3,0,0.6-0.1,0.8-0.2
	c0.2-0.1,0.4-0.3,0.5-0.5v-1.3h-0.7c-1,0-1.5,0.3-1.6,1l0,0.1c0,0.2,0.1,0.4,0.3,0.6C186.6,239.5,186.8,239.6,187.1,239.6z"/>
<path class="st7" d="M194.4,231.8v1.8h1.3v1.4h-1.3v3.7c0,0.3,0.1,0.5,0.2,0.6c0.1,0.1,0.3,0.2,0.6,0.2c0.2,0,0.4,0,0.6,0v1.5
	c-0.4,0.1-0.8,0.2-1.2,0.2c-1.4,0-2.1-0.7-2.1-2.1v-4h-1.1v-1.4h1.1v-1.8H194.4z"/>
<path class="st7" d="M196.7,231.7c0-0.3,0.1-0.5,0.3-0.7s0.5-0.3,0.8-0.3c0.3,0,0.6,0.1,0.8,0.3c0.2,0.2,0.3,0.4,0.3,0.7
	c0,0.3-0.1,0.5-0.3,0.7c-0.2,0.2-0.5,0.3-0.8,0.3c-0.3,0-0.6-0.1-0.8-0.3C196.8,232.2,196.7,232,196.7,231.7z M198.8,241h-2v-7.4h2
	V241z"/>
<path class="st7" d="M203.2,238.6l1.4-5h2.1l-2.5,7.4h-1.9l-2.5-7.4h2.1L203.2,238.6z"/>
<path class="st7" d="M207.1,237.2c0-0.7,0.1-1.4,0.4-2c0.3-0.6,0.7-1,1.2-1.3c0.5-0.3,1.1-0.5,1.8-0.5c1,0,1.8,0.3,2.4,0.9
	c0.6,0.6,1,1.4,1.1,2.5l0,0.5c0,1.1-0.3,2-1,2.7c-0.6,0.7-1.5,1-2.5,1s-1.9-0.3-2.6-1S207.1,238.5,207.1,237.2L207.1,237.2z
	 M209.1,237.4c0,0.7,0.1,1.2,0.4,1.6c0.3,0.4,0.6,0.6,1.1,0.6c0.5,0,0.9-0.2,1.1-0.6c0.3-0.4,0.4-1,0.4-1.8c0-0.7-0.1-1.2-0.4-1.6
	c-0.3-0.4-0.6-0.6-1.1-0.6c-0.5,0-0.9,0.2-1.1,0.6C209.2,236,209.1,236.6,209.1,237.4z"/>
<path class="st7" d="M41.4,256c0-1,0.1-2,0.4-3s0.7-1.8,1.2-2.5c0.5-0.7,1.1-1.2,1.8-1.5l0.4,1.1c-0.7,0.5-1.2,1.3-1.6,2.3
	s-0.6,2.2-0.6,3.6v0.2c0,1.4,0.2,2.6,0.6,3.6s0.9,1.8,1.6,2.3l-0.4,1c-0.6-0.3-1.2-0.8-1.7-1.5c-0.5-0.7-0.9-1.5-1.2-2.4
	s-0.4-1.9-0.5-2.9V256z"/>
<path class="st7" d="M48.3,260h-2v-10.5h2V260z"/>
<path class="st7" d="M54.2,260c-0.1-0.2-0.2-0.4-0.2-0.7c-0.5,0.5-1.1,0.8-1.9,0.8c-0.7,0-1.3-0.2-1.8-0.6s-0.7-0.9-0.7-1.6
	c0-0.8,0.3-1.4,0.9-1.8s1.4-0.6,2.5-0.6h0.9v-0.4c0-0.3-0.1-0.6-0.3-0.8s-0.5-0.3-0.8-0.3c-0.3,0-0.6,0.1-0.8,0.2s-0.3,0.4-0.3,0.7
	h-2c0-0.4,0.1-0.8,0.4-1.2s0.6-0.7,1.1-0.9c0.5-0.2,1-0.3,1.6-0.3c0.9,0,1.6,0.2,2.2,0.7c0.5,0.5,0.8,1.1,0.8,1.9v3.2
	c0,0.7,0.1,1.2,0.3,1.6v0.1H54.2z M52.6,258.6c0.3,0,0.6-0.1,0.8-0.2c0.2-0.1,0.4-0.3,0.5-0.5v-1.3h-0.7c-1,0-1.5,0.3-1.6,1l0,0.1
	c0,0.2,0.1,0.4,0.3,0.6S52.3,258.6,52.6,258.6z"/>
<path class="st7" d="M67.6,256.4c0,1.1-0.3,2.1-0.8,2.7c-0.5,0.7-1.2,1-2.1,1c-0.7,0-1.4-0.3-1.8-0.8v3.5h-2v-10.2h1.8l0.1,0.7
	c0.5-0.6,1.1-0.9,1.9-0.9c0.9,0,1.6,0.3,2.1,1s0.8,1.6,0.8,2.8V256.4z M65.6,256.2c0-0.7-0.1-1.2-0.4-1.6s-0.6-0.6-1.1-0.6
	c-0.6,0-1,0.2-1.3,0.7v3c0.2,0.5,0.7,0.7,1.3,0.7C65.1,258.5,65.6,257.8,65.6,256.2z"/>
<path class="st7" d="M72.2,260.1c-1.1,0-2-0.3-2.6-1s-1-1.6-1-2.7v-0.2c0-0.7,0.1-1.4,0.4-2c0.3-0.6,0.7-1,1.2-1.4
	c0.5-0.3,1.1-0.5,1.8-0.5c1,0,1.8,0.3,2.4,1s0.9,1.5,0.9,2.7v0.8h-4.7c0.1,0.5,0.3,0.9,0.6,1.2s0.7,0.4,1.2,0.4
	c0.8,0,1.4-0.3,1.8-0.8l1,1.1c-0.3,0.4-0.7,0.7-1.2,1C73.4,260,72.8,260.1,72.2,260.1z M72,254.1c-0.4,0-0.7,0.1-1,0.4
	s-0.4,0.6-0.5,1.1h2.7v-0.2c0-0.4-0.1-0.8-0.4-1S72.4,254.1,72,254.1z"/>
<path class="st7" d="M80.5,254.5c-0.3,0-0.5-0.1-0.7-0.1c-0.7,0-1.2,0.3-1.5,0.8v4.8h-2v-7.4h1.9l0.1,0.9c0.4-0.7,0.9-1,1.6-1
	c0.2,0,0.4,0,0.6,0.1L80.5,254.5z"/>
<path class="st7" d="M85.5,258c0-0.2-0.1-0.4-0.4-0.6c-0.2-0.1-0.6-0.3-1.2-0.4c-1.8-0.4-2.6-1.1-2.6-2.2c0-0.7,0.3-1.2,0.8-1.6
	c0.5-0.4,1.3-0.7,2.1-0.7c0.9,0,1.7,0.2,2.3,0.7s0.8,1,0.8,1.7h-2c0-0.3-0.1-0.5-0.3-0.7c-0.2-0.2-0.5-0.3-0.9-0.3
	c-0.3,0-0.6,0.1-0.8,0.2s-0.3,0.3-0.3,0.6c0,0.2,0.1,0.4,0.3,0.5c0.2,0.1,0.6,0.2,1,0.3c0.5,0.1,0.9,0.2,1.2,0.3c1,0.4,1.6,1,1.6,2
	c0,0.7-0.3,1.2-0.9,1.6c-0.6,0.4-1.3,0.6-2.2,0.6c-0.6,0-1.2-0.1-1.7-0.3c-0.5-0.2-0.9-0.5-1.1-0.9c-0.3-0.4-0.4-0.8-0.4-1.2H83
	c0,0.4,0.1,0.6,0.4,0.8s0.6,0.3,1,0.3c0.4,0,0.7-0.1,0.9-0.2C85.4,258.4,85.5,258.2,85.5,258z"/>
<path class="st7" d="M88.4,256.2c0-0.7,0.1-1.4,0.4-2s0.7-1,1.2-1.3s1.1-0.5,1.8-0.5c1,0,1.8,0.3,2.4,0.9s1,1.4,1.1,2.5l0,0.5
	c0,1.1-0.3,2-1,2.7c-0.6,0.7-1.5,1-2.5,1s-1.9-0.3-2.6-1S88.4,257.5,88.4,256.2L88.4,256.2z M90.3,256.4c0,0.7,0.1,1.2,0.4,1.6
	s0.6,0.6,1.1,0.6c0.5,0,0.9-0.2,1.1-0.6c0.3-0.4,0.4-1,0.4-1.8c0-0.7-0.1-1.2-0.4-1.6s-0.6-0.6-1.1-0.6c-0.5,0-0.9,0.2-1.1,0.6
	C90.5,255,90.3,255.6,90.3,256.4z"/>
<path class="st7" d="M98.4,252.6l0.1,0.9c0.5-0.7,1.2-1,2.1-1c0.8,0,1.4,0.2,1.8,0.7s0.6,1.1,0.6,2.1v4.8h-2v-4.7
	c0-0.4-0.1-0.7-0.3-0.9c-0.2-0.2-0.5-0.3-0.9-0.3c-0.6,0-1,0.2-1.3,0.7v5.2h-2v-7.4H98.4z"/>
<path class="st7" d="M108.7,260c-0.1-0.2-0.2-0.4-0.2-0.7c-0.5,0.5-1.1,0.8-1.9,0.8c-0.7,0-1.3-0.2-1.8-0.6s-0.7-0.9-0.7-1.6
	c0-0.8,0.3-1.4,0.9-1.8s1.4-0.6,2.5-0.6h0.9v-0.4c0-0.3-0.1-0.6-0.3-0.8s-0.5-0.3-0.8-0.3c-0.3,0-0.6,0.1-0.8,0.2s-0.3,0.4-0.3,0.7
	h-2c0-0.4,0.1-0.8,0.4-1.2s0.6-0.7,1.1-0.9c0.5-0.2,1-0.3,1.6-0.3c0.9,0,1.6,0.2,2.2,0.7c0.5,0.5,0.8,1.1,0.8,1.9v3.2
	c0,0.7,0.1,1.2,0.3,1.6v0.1H108.7z M107.1,258.6c0.3,0,0.6-0.1,0.8-0.2c0.2-0.1,0.4-0.3,0.5-0.5v-1.3h-0.7c-1,0-1.5,0.3-1.6,1l0,0.1
	c0,0.2,0.1,0.4,0.3,0.6S106.8,258.6,107.1,258.6z"/>
<path class="st7" d="M115.1,256.2c0-1.2,0.3-2.1,0.8-2.8s1.2-1,2.1-1c0.8,0,1.4,0.3,1.9,0.9l0.1-0.8h1.7v10.2h-2v-3.5
	c-0.5,0.5-1.1,0.8-1.8,0.8c-0.9,0-1.6-0.3-2.1-1S115.1,257.5,115.1,256.2z M117.1,256.4c0,0.7,0.1,1.2,0.4,1.6
	c0.2,0.4,0.6,0.6,1,0.6c0.6,0,1-0.2,1.3-0.7v-3.1c-0.2-0.5-0.7-0.7-1.3-0.7c-0.5,0-0.8,0.2-1.1,0.6S117.1,255.6,117.1,256.4z"/>
<path class="st7" d="M127.8,259.2c-0.5,0.6-1.2,0.9-2,0.9c-0.8,0-1.4-0.2-1.8-0.7s-0.6-1.1-0.6-2v-4.8h2v4.8c0,0.8,0.4,1.2,1.1,1.2
	c0.7,0,1.1-0.2,1.4-0.7v-5.2h2v7.4h-1.9L127.8,259.2z"/>
<path class="st7" d="M134.6,260.1c-1.1,0-2-0.3-2.6-1s-1-1.6-1-2.7v-0.2c0-0.7,0.1-1.4,0.4-2c0.3-0.6,0.7-1,1.2-1.4
	c0.5-0.3,1.1-0.5,1.8-0.5c1,0,1.8,0.3,2.4,1s0.9,1.5,0.9,2.7v0.8h-4.7c0.1,0.5,0.3,0.9,0.6,1.2s0.7,0.4,1.2,0.4
	c0.8,0,1.4-0.3,1.8-0.8l1,1.1c-0.3,0.4-0.7,0.7-1.2,1C135.7,260,135.2,260.1,134.6,260.1z M134.3,254.1c-0.4,0-0.7,0.1-1,0.4
	s-0.4,0.6-0.5,1.1h2.7v-0.2c0-0.4-0.1-0.8-0.4-1S134.8,254.1,134.3,254.1z"/>
<path class="st7" d="M144.6,250.8v1.8h1.3v1.4h-1.3v3.7c0,0.3,0.1,0.5,0.2,0.6s0.3,0.2,0.6,0.2c0.2,0,0.4,0,0.6,0v1.5
	c-0.4,0.1-0.8,0.2-1.2,0.2c-1.4,0-2.1-0.7-2.1-2.1v-4h-1.1v-1.4h1.1v-1.8H144.6z"/>
<path class="st7" d="M146.4,256.2c0-0.7,0.1-1.4,0.4-2c0.3-0.6,0.7-1,1.2-1.3c0.5-0.3,1.1-0.5,1.8-0.5c1,0,1.8,0.3,2.4,0.9
	c0.6,0.6,1,1.4,1.1,2.5l0,0.5c0,1.1-0.3,2-1,2.7c-0.6,0.7-1.5,1-2.5,1s-1.9-0.3-2.6-1S146.4,257.5,146.4,256.2L146.4,256.2z
	 M148.4,256.4c0,0.7,0.1,1.2,0.4,1.6c0.3,0.4,0.6,0.6,1.1,0.6c0.5,0,0.9-0.2,1.1-0.6c0.3-0.4,0.4-1,0.4-1.8c0-0.7-0.1-1.2-0.4-1.6
	c-0.3-0.4-0.6-0.6-1.1-0.6c-0.5,0-0.9,0.2-1.1,0.6C148.5,255,148.4,255.6,148.4,256.4z"/>
<path class="st7" d="M156.5,252.6l0.1,0.8c0.5-0.6,1.2-1,2.1-1c1,0,1.6,0.4,2,1.1c0.5-0.8,1.3-1.1,2.2-1.1c0.8,0,1.4,0.2,1.8,0.7
	c0.4,0.5,0.6,1.2,0.6,2.1v4.7h-2v-4.7c0-0.4-0.1-0.7-0.2-0.9c-0.2-0.2-0.5-0.3-0.9-0.3c-0.6,0-1,0.3-1.2,0.8l0,5.1h-2v-4.7
	c0-0.4-0.1-0.7-0.3-0.9c-0.2-0.2-0.5-0.3-0.9-0.3c-0.6,0-1,0.2-1.2,0.7v5.2h-2v-7.4H156.5z"/>
<path class="st7" d="M171.1,260c-0.1-0.2-0.2-0.4-0.2-0.7c-0.5,0.5-1.1,0.8-1.9,0.8c-0.7,0-1.3-0.2-1.8-0.6
	c-0.5-0.4-0.7-0.9-0.7-1.6c0-0.8,0.3-1.4,0.9-1.8s1.4-0.6,2.5-0.6h0.9v-0.4c0-0.3-0.1-0.6-0.3-0.8c-0.2-0.2-0.5-0.3-0.8-0.3
	c-0.3,0-0.6,0.1-0.8,0.2c-0.2,0.2-0.3,0.4-0.3,0.7h-2c0-0.4,0.1-0.8,0.4-1.2c0.3-0.4,0.6-0.7,1.1-0.9c0.5-0.2,1-0.3,1.6-0.3
	c0.9,0,1.6,0.2,2.2,0.7c0.5,0.5,0.8,1.1,0.8,1.9v3.2c0,0.7,0.1,1.2,0.3,1.6v0.1H171.1z M169.4,258.6c0.3,0,0.6-0.1,0.8-0.2
	c0.2-0.1,0.4-0.3,0.5-0.5v-1.3H170c-1,0-1.5,0.3-1.6,1l0,0.1c0,0.2,0.1,0.4,0.3,0.6C168.9,258.5,169.1,258.6,169.4,258.6z"/>
<path class="st7" d="M179.9,260h-2v-10.5h2V260z"/>
<path class="st7" d="M185.8,260c-0.1-0.2-0.2-0.4-0.2-0.7c-0.5,0.5-1.1,0.8-1.9,0.8c-0.7,0-1.3-0.2-1.8-0.6
	c-0.5-0.4-0.7-0.9-0.7-1.6c0-0.8,0.3-1.4,0.9-1.8s1.4-0.6,2.5-0.6h0.9v-0.4c0-0.3-0.1-0.6-0.3-0.8c-0.2-0.2-0.5-0.3-0.8-0.3
	c-0.3,0-0.6,0.1-0.8,0.2c-0.2,0.2-0.3,0.4-0.3,0.7h-2c0-0.4,0.1-0.8,0.4-1.2c0.3-0.4,0.6-0.7,1.1-0.9c0.5-0.2,1-0.3,1.6-0.3
	c0.9,0,1.6,0.2,2.2,0.7c0.5,0.5,0.8,1.1,0.8,1.9v3.2c0,0.7,0.1,1.2,0.3,1.6v0.1H185.8z M184.1,258.6c0.3,0,0.6-0.1,0.8-0.2
	c0.2-0.1,0.4-0.3,0.5-0.5v-1.3h-0.7c-1,0-1.5,0.3-1.6,1l0,0.1c0,0.2,0.1,0.4,0.3,0.6C183.6,258.5,183.8,258.6,184.1,258.6z"/>
<path class="st7" d="M192.2,256.2c0-1.2,0.3-2.1,0.8-2.8c0.5-0.7,1.2-1,2.1-1c0.7,0,1.3,0.3,1.8,0.8v-3.8h2V260h-1.8l-0.1-0.8
	c-0.5,0.6-1.1,0.9-1.9,0.9c-0.9,0-1.6-0.3-2.1-1C192.4,258.4,192.2,257.5,192.2,256.2z M194.1,256.4c0,0.7,0.1,1.2,0.4,1.6
	c0.2,0.4,0.6,0.6,1.1,0.6c0.6,0,1-0.3,1.3-0.8v-2.9c-0.2-0.5-0.7-0.8-1.3-0.8C194.6,254.1,194.1,254.8,194.1,256.4z"/>
<path class="st7" d="M203.8,260.1c-1.1,0-2-0.3-2.6-1c-0.7-0.7-1-1.6-1-2.7v-0.2c0-0.7,0.1-1.4,0.4-2c0.3-0.6,0.7-1,1.2-1.4
	c0.5-0.3,1.1-0.5,1.8-0.5c1,0,1.8,0.3,2.4,1s0.9,1.5,0.9,2.7v0.8h-4.7c0.1,0.5,0.3,0.9,0.6,1.2s0.7,0.4,1.2,0.4
	c0.8,0,1.4-0.3,1.8-0.8l1,1.1c-0.3,0.4-0.7,0.7-1.2,1C204.9,260,204.4,260.1,203.8,260.1z M203.5,254.1c-0.4,0-0.7,0.1-1,0.4
	c-0.2,0.3-0.4,0.6-0.5,1.1h2.7v-0.2c0-0.4-0.1-0.8-0.4-1C204.3,254.2,204,254.1,203.5,254.1z"/>
<path class="st7" d="M211,258.5c0.4,0,0.7-0.1,0.9-0.3c0.2-0.2,0.3-0.5,0.4-0.8h1.9c0,0.5-0.1,1-0.4,1.4c-0.3,0.4-0.6,0.7-1.1,1
	c-0.5,0.2-1,0.3-1.5,0.3c-1.1,0-1.9-0.3-2.5-1c-0.6-0.7-0.9-1.6-0.9-2.8v-0.1c0-1.1,0.3-2,0.9-2.7c0.6-0.7,1.4-1,2.5-1
	c0.9,0,1.7,0.3,2.2,0.8c0.6,0.5,0.8,1.2,0.9,2.1h-1.9c0-0.4-0.1-0.7-0.4-0.9c-0.2-0.2-0.5-0.4-0.9-0.4c-0.5,0-0.8,0.2-1,0.5
	c-0.2,0.3-0.4,0.9-0.4,1.6v0.2c0,0.8,0.1,1.3,0.3,1.6S210.5,258.5,211,258.5z"/>
<path class="st7" d="M215.2,250.7c0-0.3,0.1-0.5,0.3-0.7s0.5-0.3,0.8-0.3c0.3,0,0.6,0.1,0.8,0.3c0.2,0.2,0.3,0.4,0.3,0.7
	c0,0.3-0.1,0.5-0.3,0.7c-0.2,0.2-0.5,0.3-0.8,0.3c-0.3,0-0.6-0.1-0.8-0.3C215.3,251.2,215.2,251,215.2,250.7z M217.3,260h-2v-7.4h2
	V260z"/>
<path class="st7" d="M223,258c0-0.2-0.1-0.4-0.4-0.6c-0.2-0.1-0.6-0.3-1.2-0.4c-1.8-0.4-2.6-1.1-2.6-2.2c0-0.7,0.3-1.2,0.8-1.6
	c0.5-0.4,1.3-0.7,2.1-0.7c0.9,0,1.7,0.2,2.3,0.7c0.6,0.4,0.8,1,0.8,1.7h-2c0-0.3-0.1-0.5-0.3-0.7c-0.2-0.2-0.5-0.3-0.9-0.3
	c-0.3,0-0.6,0.1-0.8,0.2c-0.2,0.2-0.3,0.3-0.3,0.6c0,0.2,0.1,0.4,0.3,0.5c0.2,0.1,0.6,0.2,1,0.3c0.5,0.1,0.9,0.2,1.2,0.3
	c1,0.4,1.6,1,1.6,2c0,0.7-0.3,1.2-0.9,1.6c-0.6,0.4-1.3,0.6-2.2,0.6c-0.6,0-1.2-0.1-1.7-0.3c-0.5-0.2-0.9-0.5-1.1-0.9
	c-0.3-0.4-0.4-0.8-0.4-1.2h1.9c0,0.4,0.1,0.6,0.4,0.8c0.2,0.2,0.6,0.3,1,0.3c0.4,0,0.7-0.1,0.9-0.2C222.9,258.4,223,258.2,223,258z"
	/>
<path class="st7" d="M226.1,250.7c0-0.3,0.1-0.5,0.3-0.7s0.5-0.3,0.8-0.3c0.3,0,0.6,0.1,0.8,0.3c0.2,0.2,0.3,0.4,0.3,0.7
	c0,0.3-0.1,0.5-0.3,0.7c-0.2,0.2-0.5,0.3-0.8,0.3c-0.3,0-0.6-0.1-0.8-0.3C226.2,251.2,226.1,251,226.1,250.7z M228.2,260h-2v-7.4h2
	V260z"/>
<path class="st7" d="M229.5,256.2c0-0.7,0.1-1.4,0.4-2c0.3-0.6,0.7-1,1.2-1.3c0.5-0.3,1.1-0.5,1.8-0.5c1,0,1.8,0.3,2.4,0.9
	c0.6,0.6,1,1.4,1.1,2.5l0,0.5c0,1.1-0.3,2-1,2.7c-0.6,0.7-1.5,1-2.5,1s-1.9-0.3-2.6-1S229.5,257.5,229.5,256.2L229.5,256.2z
	 M231.5,256.4c0,0.7,0.1,1.2,0.4,1.6c0.3,0.4,0.6,0.6,1.1,0.6c0.5,0,0.9-0.2,1.1-0.6c0.3-0.4,0.4-1,0.4-1.8c0-0.7-0.1-1.2-0.4-1.6
	c-0.3-0.4-0.6-0.6-1.1-0.6c-0.5,0-0.9,0.2-1.1,0.6C231.7,255,231.5,255.6,231.5,256.4z M233.4,249.5h2.2l-1.9,2.1h-1.6L233.4,249.5z
	"/>
<path class="st7" d="M239.6,252.6l0.1,0.9c0.5-0.7,1.2-1,2.1-1c0.8,0,1.4,0.2,1.8,0.7s0.6,1.1,0.6,2.1v4.8h-2v-4.7
	c0-0.4-0.1-0.7-0.3-0.9c-0.2-0.2-0.5-0.3-0.9-0.3c-0.6,0-1,0.2-1.3,0.7v5.2h-2v-7.4H239.6z"/>
<path class="st7" d="M249,256.1c0,1-0.1,2-0.4,3c-0.3,1-0.7,1.8-1.3,2.5c-0.6,0.7-1.2,1.2-1.8,1.5l-0.4-1c0.6-0.5,1.2-1.2,1.5-2.3
	c0.4-1,0.6-2.2,0.6-3.5v-0.4c0-1.4-0.2-2.6-0.6-3.6c-0.4-1-0.9-1.8-1.6-2.3l0.4-1c0.6,0.3,1.2,0.8,1.8,1.5c0.5,0.7,1,1.5,1.3,2.5
	c0.3,0.9,0.5,1.9,0.5,2.9V256.1z"/>
<path id="Trazado_109626" class="st8" d="M132.5,142.1c9.3-1.4,18.7-2.8,28-4.3c-0.8-5-0.9-10.1-0.5-15.2l-11.7,0.8v-0.8L147,123
	l-1.3-0.4v0.8l-11.7-0.8C134.1,122.6,135.3,134.6,132.5,142.1z"/>
<path id="Trazado_109627" class="st9" d="M176.6,182.7c-2-10.5-1.7-21.3,0.9-31.7c-2-0.6-3.8-1.1-5.5-1.5c-0.7,8.6-1.8,17.3-5,25.1
	c-1.2,2.9-2.7,5.6-4.5,8.1L176.6,182.7z"/>
<path class="st10" d="M207.7,168.6c-4.6-6.1-10.7-10.2-16.9-13.1c-7.7,10.6-24.3,17.9-43.4,17.9s-35.7-7.3-43.4-17.9
	c-7.1,3.4-14.2,8.3-18.9,16.1c2,2,4.1,3.8,6.3,5.6c13.5,7.2,32.1,11.7,52.5,11.7c24.3,0,46-6.3,59.7-16
	C204.9,171.5,206.3,170.1,207.7,168.6z"/>
<g id="Grupo_70436" transform="translate(8.537)">
	<g id="Grupo_70432" transform="translate(23.004 13.142)">
		<path id="Trazado_109630" class="st8" d="M92.6,79.3c-2.3-7.1-7.7-5.5-8.3-5.3c-0.5,0.1-6.2,0.9-5.2,8.3c1,7.5,5.3,11.5,9.4,10.3
			C92.8,92,95,86.5,92.6,79.3z"/>
		<path id="Trazado_109631" class="st8" d="M138.6,79.3c2.3-7.1,7.7-5.5,8.3-5.3c0.5,0.1,6.2,0.9,5.2,8.3c-1,7.5-5.3,11.5-9.4,10.3
			C138.4,92,136.2,86.5,138.6,79.3z"/>
		<path id="Trazado_109632" class="st4" d="M87.1,68.5c2.9-31.3,26.6-29.5,28.9-29.3c2.2-0.2,26-2,28.9,29.3
			c2.9,31.5-11.1,52-28.9,50.9C98.2,120.5,84.2,100,87.1,68.5z"/>
	</g>
	<g id="Grupo_70434">
		<path id="Trazado_109633" class="st2" d="M121.8,56.5c0,0,2.9,23.8,26.5,28.4l-5.8-14.6c0,0,2,17.6,25.5,16.7c0,0,8.6,4,5.5,13.2
			c5.2-4.9,7.2-12.2,5.2-19c-3.2-12,4.3-12.7-7.7-30.4C160.5,35.2,125.9,33.5,121.8,56.5z"/>
		<path id="Trazado_109634" class="st2" d="M128.4,51.4c0,0-11.4-9.2-19.9,1.2S102,79.3,94,89.5s-6.7,19,3.1,28.5
			s-27.6,18.4-15.6,42s41.7,11,43.9-7.7s0.9-22.7,0.9-22.7s-12.6-9.8-14.7-25.5s1.5-23.3,8.3-28.8S132.7,64.9,128.4,51.4z"/>
		<g id="Grupo_70433" transform="translate(0.001 98.171)">
			<path id="Trazado_109635" class="st3" d="M87,50.8c-2.5-4.8-2.9-8.6-2-11.7c-5,5.8-8.5,13-3.6,22.7c12,23.6,41.7,11,43.9-7.7
				c0-0.4,0.1-0.8,0.1-1.2C116,60.4,96.2,68.6,87,50.8z"/>
		</g>
	</g>
	<g id="Grupo_70435" transform="translate(37.747 43.322)">
		<path id="Trazado_109636" class="st11" d="M105.3,54l1.9,9.3l-3.6,3.7"/>
		<path id="Trazado_109637" class="st12" d="M113.3,72.6c-5.7,5.5-15.3,5.2-22.5,0.3"/>
		<path id="Trazado_109638" class="st13" d="M123.6,43.4c0,0-7.5-9.1-14.9-0.6"/>
		<path id="Trazado_109639" class="st13" d="M94,43.4c0,0-7.5-9.1-14.9-0.6"/>
		<path id="Trazado_109640" class="st14" d="M93.1,54.7c0,0-0.4-6-5.6-5.6c-4.3,0.4-3.9,5.6-3.9,5.6"/>
		<path id="Trazado_109641" class="st14" d="M119.7,54.3c0,0-0.4-6-5.6-5.6c-4.3,0.4-3.9,5.6-3.9,5.6"/>
	</g>
</g>
</svg>
