<?xml version="1.0" encoding="utf-8"?>
<!-- Generator: Adobe Illustrator 25.2.3, SVG Export Plug-In . SVG Version: 6.00 Build 0)  -->
<!DOCTYPE svg PUBLIC "-//W3C//DTD SVG 1.1//EN" "http://www.w3.org/Graphics/SVG/1.1/DTD/svg11.dtd" [
	<!ENTITY ns_extend "http://ns.adobe.com/Extensibility/1.0/">
	<!ENTITY ns_ai "http://ns.adobe.com/AdobeIllustrator/10.0/">
	<!ENTITY ns_graphs "http://ns.adobe.com/Graphs/1.0/">
	<!ENTITY ns_vars "http://ns.adobe.com/Variables/1.0/">
	<!ENTITY ns_imrep "http://ns.adobe.com/ImageReplacement/1.0/">
	<!ENTITY ns_sfw "http://ns.adobe.com/SaveForWeb/1.0/">
	<!ENTITY ns_custom "http://ns.adobe.com/GenericCustomNamespace/1.0/">
	<!ENTITY ns_adobe_xpath "http://ns.adobe.com/XPath/1.0/">
]>
<svg version="1.1" id="Capa_1" xmlns:x="&ns_extend;" xmlns:i="&ns_ai;" xmlns:graph="&ns_graphs;"
	 xmlns="http://www.w3.org/2000/svg" xmlns:xlink="http://www.w3.org/1999/xlink" x="0px" y="0px" viewBox="0 0 290.5 290.5"
	 style="enable-background:new 0 0 290.5 290.5;" xml:space="preserve">
<style type="text/css">
	.st0{fill:#E4DDFA;}
	.st1{fill:#5C97BD;}
	.st2{fill:#7E5EE3;}
	.st3{fill:#A75451;}
	.st4{fill:#FFEDEE;}
	.st5{opacity:0.1;fill:#352835;enable-background:new    ;}
	.st6{fill:#6FBCE4;}
	.st7{fill:#FF9D00;}
	.st8{enable-background:new    ;}
	.st9{fill:#12263F;}
	.st10{fill:#833F3A;}
	.st11{fill:none;stroke:#833F3A;stroke-width:1.661;stroke-miterlimit:10;}
	.st12{fill:#FFFFFF;}
	.st13{fill:none;stroke:#352835;stroke-width:2.701;stroke-miterlimit:10;}
	.st14{fill:none;stroke:#352835;stroke-width:1.195;stroke-miterlimit:10;}
	.st15{fill:#FFDEC1;}
	.st16{fill:#DBB9A4;}
</style>
<metadata>
	<sfw  xmlns="&ns_sfw;">
		<slices></slices>
		<sliceSourceBounds  bottomLeftOrigin="true" height="290.5" width="290.5" x="-0.2" y="-0.2"></sliceSourceBounds>
	</sfw>
</metadata>
<path id="Rectángulo_32123" class="st0" d="M26,11.5h238c8.3,0,15,6.7,15,15v238c0,8.3-6.7,15-15,15H26c-8.3,0-15-6.7-15-15v-238
	C11,18.3,17.7,11.5,26,11.5z"/>
<path class="st1" d="M209.3,172.8c-0.1-0.1-0.2-0.3-0.3-0.4c0,0,0,0,0,0C209.1,172.6,209.2,172.7,209.3,172.8z"/>
<path class="st1" d="M86,176c-0.1,0.2-0.2,0.3-0.3,0.5C85.8,176.3,85.9,176.2,86,176C86,176,86,176,86,176z"/>
<path class="st2" d="M86.9,174.7c0.2-0.4,0.5-0.7,0.8-1c0.2-0.2,0.4-0.5,0.6-0.7c0.3-0.4,0.6-0.7,0.9-1c0.2-0.2,0.4-0.4,0.5-0.6
	c0.3-0.4,0.7-0.7,1-1.1c0.1-0.2,0.3-0.3,0.4-0.5c0.5-0.5,1-1,1.5-1.4c0,0,0.1-0.1,0.2-0.1c0.5-0.4,1-0.8,1.4-1.2
	c0.2-0.2,0.4-0.3,0.6-0.4c0.4-0.3,0.7-0.6,1.1-0.8c0.2-0.2,0.5-0.3,0.7-0.5c0.3-0.2,0.7-0.5,1-0.7c0.2-0.2,0.5-0.3,0.7-0.5
	c0.3-0.2,0.6-0.4,1-0.6c0.2-0.1,0.5-0.3,0.7-0.4c1.5-10.2,15.7-10.9,17.8-7.3c0.9-0.3,1.8-0.5,2.6-0.7c0.1,0.3,0.3,0.6,0.4,0.9
	c4.3-1.2,7.7-2,9.4-2.9c7.8-4.3,5.7-24.8,5.7-24.8l11.7,0.8v-0.8l1.2,0.4l1.3-0.4v0.8l11.7-0.8c0,0-2.1,20.6,5.7,24.8
	c1.7,0.9,5.1,1.7,9.4,2.9c0.1-0.3,0.3-0.6,0.4-0.9c0.6,0.2,1.3,0.4,2,0.5c2.4-3.3,15.7-2.6,17.6,7c0.2,0.1,0.5,0.3,0.7,0.4
	c0.2,0.1,0.5,0.3,0.7,0.4c0.4,0.2,0.7,0.5,1.1,0.7c0.2,0.1,0.4,0.3,0.6,0.4c0.5,0.3,0.9,0.6,1.4,1c0.1,0.1,0.2,0.1,0.3,0.2
	c0.6,0.4,1.1,0.8,1.7,1.3c0,0,0.1,0.1,0.1,0.1c0.5,0.4,1,0.8,1.5,1.3c0.1,0.1,0.3,0.3,0.4,0.4c0.4,0.4,0.8,0.7,1.1,1.1
	c0.1,0.1,0.1,0.1,0.2,0.2c0,0,0,0,0,0c0.1,0.1,0.2,0.2,0.3,0.3c0.3,0.3,0.7,0.7,1,1c0.2,0.2,0.3,0.4,0.5,0.6
	c0.2,0.2,0.4,0.4,0.6,0.6c14-15.3,22.5-35.6,22.5-57.9c0-47.3-38.4-85.7-85.7-85.7C98.4,28.8,60,67.2,60,114.6
	c0,24.1,10,45.9,26,61.4c0.1-0.2,0.2-0.4,0.4-0.5C86.6,175.2,86.7,174.9,86.9,174.7z"/>
<path class="st3" d="M148.8,173.7c12.7,0,23.6-7.4,28-17.8c-4.3-1.2-7.7-2-9.4-2.9c-7.8-4.3-5.7-24.8-5.7-24.8l-11.7,0.8v-0.8
	l-1.3,0.4l-1.2-0.4v0.8l-11.7-0.8c0,0,2.1,20.6-5.7,24.8c-1.7,0.9-5.1,1.7-9.4,2.9C125.2,166.3,136.1,173.7,148.8,173.7z"/>
<path class="st4" d="M199.4,164c0.2,0.1,0.4,0.3,0.6,0.4C199.8,164.3,199.6,164.2,199.4,164z"/>
<path class="st4" d="M197.5,162.9c0.2,0.1,0.5,0.3,0.7,0.4C198,163.2,197.8,163,197.5,162.9z"/>
<path class="st4" d="M97.6,164.5c0.2-0.2,0.5-0.3,0.7-0.5C98,164.2,97.8,164.3,97.6,164.5z"/>
<path class="st4" d="M203.3,166.9C203.3,166.9,203.4,166.9,203.3,166.9C203.4,166.9,203.3,166.9,203.3,166.9z"/>
<path class="st4" d="M204.9,168.2c0.1,0.1,0.3,0.3,0.4,0.4C205.2,168.5,205,168.3,204.9,168.2z"/>
<path class="st4" d="M86.4,175.5c0.2-0.3,0.4-0.5,0.5-0.8C86.7,174.9,86.6,175.2,86.4,175.5z"/>
<path class="st4" d="M87.7,173.6c0.2-0.2,0.4-0.5,0.6-0.7C88.1,173.1,87.9,173.4,87.7,173.6z"/>
<path class="st4" d="M208.3,171.7c0,0,0.1,0.1,0.1,0.1c-0.2-0.2-0.3-0.4-0.5-0.6c0,0,0,0,0,0C208.1,171.4,208.2,171.6,208.3,171.7z"
	/>
<path class="st4" d="M89.1,171.9c0.2-0.2,0.4-0.4,0.5-0.6C89.5,171.5,89.3,171.7,89.1,171.9z"/>
<path class="st4" d="M95.9,165.7c0.2-0.2,0.5-0.3,0.7-0.5C96.3,165.3,96.1,165.5,95.9,165.7z"/>
<path class="st4" d="M90.7,170.2c0.1-0.2,0.3-0.3,0.4-0.5C91,169.9,90.8,170,90.7,170.2z"/>
<path class="st4" d="M94.2,166.9c0.2-0.2,0.4-0.3,0.6-0.4C94.6,166.6,94.4,166.8,94.2,166.9z"/>
<path class="st4" d="M92.6,168.3c0,0,0.1-0.1,0.2-0.1C92.7,168.2,92.7,168.2,92.6,168.3z"/>
<path class="st4" d="M201.3,165.4c0.1,0.1,0.2,0.1,0.3,0.2C201.5,165.5,201.4,165.5,201.3,165.4z"/>
<path class="st4" d="M100,163c-0.2,0.1-0.5,0.3-0.7,0.4C99.5,163.2,99.7,163.1,100,163C100,163,100,163,100,163z"/>
<path class="st4" d="M117.8,156.7c1-0.3,2-0.6,2.9-0.8c-0.1-0.3-0.3-0.6-0.4-0.9c-0.8,0.2-1.7,0.5-2.6,0.7c0,0,0,0.1,0.1,0.1V156.7z
	"/>
<path class="st4" d="M179,155.8c0-0.1,0.1-0.2,0.2-0.3c-0.7-0.2-1.3-0.4-2-0.5c-0.1,0.3-0.3,0.6-0.4,0.9c0.7,0.2,1.4,0.4,2.2,0.6
	V155.8z"/>
<path class="st4" d="M206.6,169.9c-0.1-0.1-0.1-0.1-0.2-0.2C206.5,169.7,206.6,169.8,206.6,169.9
	C206.6,169.9,206.6,169.9,206.6,169.9z"/>
<path class="st4" d="M117.8,195.6c3,1,6.1,1.9,9.2,2.6c7.4-2.1,14.8-4.3,22.2-6.7c9.8-3.1,19.9-5.8,29.8-9.1v-26
	c-0.7-0.2-1.5-0.4-2.2-0.6c-4.5,10.4-15.3,17.8-28,17.8c-12.7,0-23.6-7.4-28-17.8c-0.9,0.3-1.9,0.5-2.9,0.8V195.6z"/>
<path class="st2" d="M206.9,170.2c-0.1-0.1-0.2-0.2-0.3-0.3c0,0,0,0,0,0C206.7,170,206.8,170.1,206.9,170.2
	C206.9,170.2,206.9,170.2,206.9,170.2z"/>
<path class="st5" d="M206.9,170.2c-0.1-0.1-0.2-0.2-0.3-0.3c0,0,0,0,0,0C206.7,170,206.8,170.1,206.9,170.2
	C206.9,170.2,206.9,170.2,206.9,170.2z"/>
<path class="st4" d="M208,171.3c0.1,0.1,0.3,0.3,0.4,0.4C208.2,171.6,208.1,171.4,208,171.3z"/>
<path class="st5" d="M208,171.3c0.1,0.1,0.3,0.3,0.4,0.4C208.2,171.6,208.1,171.4,208,171.3z"/>
<path class="st4" d="M206.9,170.2c-0.1-0.1-0.2-0.2-0.3-0.3c0,0,0,0,0,0C206.7,170,206.8,170.1,206.9,170.2z"/>
<path class="st5" d="M206.9,170.2c-0.1-0.1-0.2-0.2-0.3-0.3c0,0,0,0,0,0C206.7,170,206.8,170.1,206.9,170.2z"/>
<path class="st4" d="M149.2,191.6c-7.4,2.3-14.7,4.6-22.2,6.7c6,1.3,12.3,2.1,18.7,2.1c11.8,0,23-2.4,33.2-6.7v-11.1
	C169.1,185.8,159,188.4,149.2,191.6z"/>
<path class="st5" d="M149.2,191.6c-7.4,2.3-14.7,4.6-22.2,6.7c6,1.3,12.3,2.1,18.7,2.1c11.8,0,23-2.4,33.2-6.7v-11.1
	C169.1,185.8,159,188.4,149.2,191.6z"/>
<path class="st1" d="M203.4,166.9c0.5,0.4,1,0.8,1.5,1.3C204.4,167.8,203.9,167.4,203.4,166.9z"/>
<path class="st1" d="M198.2,163.3c0.4,0.2,0.7,0.5,1.1,0.7C199,163.8,198.6,163.5,198.2,163.3z"/>
<path class="st1" d="M200,164.4c0.5,0.3,0.9,0.6,1.4,1C200.9,165.1,200.4,164.7,200,164.4z"/>
<path class="st1" d="M197.5,162.9c-0.2-0.1-0.5-0.3-0.7-0.4c0,0,0,0,0,0C197,162.6,197.3,162.8,197.5,162.9z"/>
<path class="st1" d="M201.6,165.6c0.6,0.4,1.1,0.8,1.7,1.3C202.8,166.4,202.2,166,201.6,165.6z"/>
<path class="st1" d="M207.9,171.2c-0.3-0.4-0.7-0.7-1-1c0,0,0,0,0,0C207.3,170.5,207.6,170.9,207.9,171.2z"/>
<path class="st1" d="M205.3,168.6c0.4,0.4,0.8,0.7,1.1,1.1C206.1,169.3,205.7,169,205.3,168.6z"/>
<path class="st1" d="M208.9,172.3c0,0,0.1,0.1,0.1,0.1c0,0,0,0,0,0c-0.2-0.2-0.4-0.4-0.6-0.6C208.6,172,208.7,172.1,208.9,172.3z"/>
<path class="st1" d="M208,171.3C207.9,171.2,207.9,171.2,208,171.3c-0.4-0.4-0.7-0.7-1-1.1C207.3,170.5,207.6,170.9,208,171.3z"/>
<path class="st1" d="M197,163.7c0,0.1,0,0.1,0,0.2c3,1.8,6,4,8.6,6.6c0.3-0.2,0.7-0.4,1-0.6c-0.1-0.1-0.1-0.1-0.2-0.2
	c-0.4-0.4-0.8-0.7-1.1-1.1c-0.1-0.1-0.3-0.3-0.4-0.4c-0.5-0.4-1-0.9-1.5-1.3c0,0-0.1-0.1-0.1-0.1c-0.5-0.4-1.1-0.9-1.7-1.3
	c-0.1-0.1-0.2-0.1-0.3-0.2c-0.5-0.3-0.9-0.7-1.4-1c-0.2-0.1-0.4-0.3-0.6-0.4c-0.4-0.2-0.7-0.5-1.1-0.7c-0.2-0.1-0.5-0.3-0.7-0.4
	c-0.2-0.1-0.5-0.3-0.7-0.4C196.9,162.9,196.9,163.3,197,163.7z"/>
<path class="st1" d="M208.9,172.3c-0.1-0.2-0.3-0.3-0.4-0.5c0,0-0.1-0.1-0.1-0.1C208.5,171.9,208.7,172.1,208.9,172.3z"/>
<path class="st1" d="M193.9,176.7c4-1.8,7.9-3.9,11.6-6.2c-2.6-2.6-5.6-4.8-8.6-6.6C197.2,166.9,195.9,171.6,193.9,176.7z"/>
<path class="st1" d="M209,172.5c0,0-0.1-0.1-0.1-0.1C208.9,172.4,208.9,172.4,209,172.5C209,172.5,209,172.5,209,172.5z"/>
<polygon class="st1" points="206.9,170.2 206.9,170.2 206.9,170.2 "/>
<path class="st1" d="M208,171.3c-0.3-0.4-0.7-0.7-1-1.1c0,0,0,0,0,0c-0.1-0.1-0.2-0.2-0.3-0.3c-0.3,0.2-0.7,0.4-1,0.6
	c0.9,0.9,1.7,1.8,2.6,2.8c0.3-0.3,0.6-0.6,0.8-0.9c0,0-0.1-0.1-0.1-0.1c-0.2-0.2-0.3-0.4-0.5-0.6C208.2,171.6,208.1,171.4,208,171.3
	z"/>
<path class="st1" d="M193.9,176.7c-1.5,3.9-3.4,8.1-5.3,12.1c7.2-4.2,13.8-9.4,19.5-15.4c-0.8-1-1.7-1.9-2.6-2.8
	C201.8,172.8,198,174.9,193.9,176.7z"/>
<path class="st1" d="M91.1,169.7c0.5-0.5,1-1,1.5-1.4C92.1,168.7,91.6,169.2,91.1,169.7z"/>
<path class="st1" d="M86.9,174.7c0.2-0.4,0.5-0.7,0.8-1C87.4,174,87.2,174.3,86.9,174.7z"/>
<path class="st1" d="M86.4,175.5c-0.1,0.2-0.3,0.4-0.4,0.5c0,0,0,0,0,0C86.1,175.8,86.3,175.6,86.4,175.5z"/>
<path class="st1" d="M88.2,172.9c0.3-0.4,0.6-0.7,0.9-1C88.8,172.2,88.5,172.6,88.2,172.9z"/>
<path class="st1" d="M98.3,164c0.3-0.2,0.6-0.4,1-0.6C98.9,163.6,98.6,163.8,98.3,164z"/>
<path class="st1" d="M94.8,166.5c0.4-0.3,0.7-0.6,1.1-0.8C95.5,165.9,95.2,166.2,94.8,166.5z"/>
<path class="st1" d="M92.8,168.1c0.5-0.4,1-0.8,1.4-1.2C93.8,167.3,93.3,167.7,92.8,168.1z"/>
<path class="st1" d="M89.6,171.3c0.3-0.4,0.7-0.7,1-1.1C90.3,170.5,90,170.9,89.6,171.3z"/>
<path class="st1" d="M96.6,165.2c0.3-0.2,0.7-0.5,1-0.7C97.2,164.7,96.9,164.9,96.6,165.2z"/>
<path class="st1" d="M99.9,164.3c0-0.2,0-0.4,0-0.6c0-0.2,0.1-0.5,0.1-0.7c-0.2,0.1-0.5,0.3-0.7,0.4c-0.3,0.2-0.6,0.4-1,0.6
	c-0.2,0.2-0.5,0.3-0.7,0.5c-0.3,0.2-0.7,0.5-1,0.7c-0.2,0.2-0.5,0.3-0.7,0.5c-0.4,0.3-0.7,0.5-1.1,0.8c-0.2,0.1-0.4,0.3-0.6,0.4
	c-0.5,0.4-1,0.8-1.4,1.2c0,0-0.1,0.1-0.2,0.1c-0.5,0.5-1,0.9-1.5,1.4c-0.1,0.1-0.3,0.3-0.4,0.5c-0.3,0.4-0.7,0.7-1,1.1
	c-0.2,0.2-0.4,0.4-0.5,0.6c-0.3,0.3-0.6,0.7-0.9,1c-0.2,0.2-0.4,0.5-0.6,0.7c-0.3,0.3-0.5,0.7-0.8,1c-0.2,0.3-0.4,0.5-0.5,0.8
	c-0.1,0.2-0.2,0.4-0.4,0.6c0.3,0.3,0.6,0.6,0.9,0.9C90.4,171.4,94.9,167.4,99.9,164.3z"/>
<path class="st1" d="M99.9,164.3c-4.9,3.1-9.5,7.1-12.9,12.5c6.8,6.4,14.6,11.7,23.1,15.6C105.1,182.8,99.8,170.7,99.9,164.3z"/>
<path class="st6" d="M101,162.4c0.3-0.2,0.5-0.3,0.8-0.4c0.3-0.2,0.6-0.3,0.9-0.5c0.3-0.1,0.5-0.3,0.8-0.4c0.3-0.2,0.6-0.3,0.9-0.5
	c0.3-0.1,0.6-0.3,0.8-0.4c0.3-0.1,0.6-0.3,0.9-0.4c0.3-0.1,0.6-0.2,0.8-0.4c0.3-0.1,0.6-0.3,0.9-0.4c0.3-0.1,0.6-0.2,0.8-0.3
	c0.3-0.1,0.6-0.2,0.9-0.4c0.3-0.1,0.6-0.2,0.8-0.3c0.3-0.1,0.6-0.2,0.9-0.3c0.3-0.1,0.6-0.2,0.8-0.3c0.3-0.1,0.6-0.2,0.9-0.3
	c0.3-0.1,0.5-0.2,0.8-0.3c0.3-0.1,0.6-0.2,0.8-0.3c0.3-0.1,0.5-0.2,0.8-0.3c0.3-0.1,0.5-0.2,0.8-0.2c0.3-0.1,0.5-0.2,0.8-0.2
	c0,0,0,0,0.1,0v0c0.1,0,0.3-0.1,0.4-0.1c-2-3.6-16.3-2.9-17.8,7.3c0,0,0,0,0.1,0C100.4,162.7,100.7,162.5,101,162.4z"/>
<path class="st6" d="M106.3,159.7c0.3-0.1,0.6-0.2,0.8-0.4C106.9,159.5,106.6,159.6,106.3,159.7z"/>
<path class="st6" d="M111.5,157.6c0.3-0.1,0.6-0.2,0.8-0.3C112.1,157.4,111.8,157.5,111.5,157.6z"/>
<path class="st6" d="M109.8,158.3c0.3-0.1,0.6-0.2,0.8-0.3C110.4,158.1,110.1,158.2,109.8,158.3z"/>
<path class="st6" d="M104.5,160.5c0.3-0.1,0.6-0.3,0.8-0.4C105.1,160.3,104.8,160.4,104.5,160.5z"/>
<path class="st6" d="M101,162.4c0.3-0.2,0.5-0.3,0.8-0.4C101.5,162.1,101.3,162.2,101,162.4z"/>
<path class="st6" d="M102.8,161.4c0.3-0.1,0.5-0.3,0.8-0.4C103.3,161.1,103,161.3,102.8,161.4z"/>
<path class="st6" d="M113.2,157.1c0.3-0.1,0.5-0.2,0.8-0.3C113.8,156.9,113.5,157,113.2,157.1z"/>
<path class="st6" d="M117.4,156.8c0.2,0,0.3-0.1,0.5-0.1v-0.9c0,0,0-0.1-0.1-0.1c-0.1,0-0.3,0.1-0.4,0.1V156.8z"/>
<path class="st6" d="M100,162.9C100,162.9,100,162.9,100,162.9C100,163,100,163,100,162.9C100,162.9,100,162.9,100,162.9z"/>
<path class="st6" d="M116.5,156c0.3-0.1,0.5-0.2,0.8-0.2C117.1,155.9,116.8,155.9,116.5,156z"/>
<path class="st6" d="M114.9,156.5c0.3-0.1,0.5-0.2,0.8-0.3C115.5,156.3,115.2,156.4,114.9,156.5z"/>
<path class="st6" d="M108.1,159c0.3-0.1,0.6-0.2,0.8-0.3C108.6,158.7,108.3,158.9,108.1,159z"/>
<path class="st6" d="M117.8,156.7c-0.1,0-0.3,0.1-0.5,0.1v38.6c0.1,0.1,0.3,0.1,0.5,0.2V156.7z"/>
<path class="st6" d="M114.1,156.8c0.3-0.1,0.6-0.2,0.8-0.3C114.6,156.6,114.3,156.7,114.1,156.8z"/>
<path class="st6" d="M115.7,156.3c0.3-0.1,0.5-0.2,0.8-0.2C116.3,156.1,116,156.2,115.7,156.3z"/>
<path class="st6" d="M105.4,160.1c0.3-0.1,0.6-0.3,0.9-0.4C106,159.9,105.7,160,105.4,160.1z"/>
<path class="st6" d="M103.6,161c0.3-0.2,0.6-0.3,0.9-0.5C104.2,160.7,103.9,160.8,103.6,161z"/>
<path class="st6" d="M112.4,157.4c0.3-0.1,0.6-0.2,0.9-0.3C113,157.2,112.7,157.3,112.4,157.4z"/>
<path class="st6" d="M108.9,158.6c0.3-0.1,0.6-0.2,0.9-0.4C109.5,158.4,109.2,158.5,108.9,158.6z"/>
<path class="st6" d="M107.1,159.4c0.3-0.1,0.6-0.3,0.9-0.4C107.7,159.1,107.4,159.2,107.1,159.4z"/>
<path class="st6" d="M110.6,158c0.3-0.1,0.6-0.2,0.9-0.3C111.2,157.8,110.9,157.9,110.6,158z"/>
<path class="st6" d="M101.8,161.9c0.3-0.2,0.6-0.3,0.9-0.5C102.4,161.6,102.1,161.7,101.8,161.9z"/>
<path class="st6" d="M117.4,155.8C117.4,155.8,117.3,155.8,117.4,155.8C117.3,155.8,117.4,155.8,117.4,155.8L117.4,155.8z"/>
<path class="st6" d="M100,162.9c0.3-0.2,0.6-0.4,1-0.6C100.7,162.5,100.4,162.7,100,162.9z"/>
<path class="st6" d="M117.3,155.8c-0.3,0.1-0.5,0.2-0.8,0.2c-0.3,0.1-0.5,0.2-0.8,0.2c-0.3,0.1-0.5,0.2-0.8,0.3
	c-0.3,0.1-0.6,0.2-0.8,0.3c-0.3,0.1-0.5,0.2-0.8,0.3c-0.3,0.1-0.6,0.2-0.9,0.3c-0.3,0.1-0.6,0.2-0.8,0.3c-0.3,0.1-0.6,0.2-0.9,0.3
	c-0.3,0.1-0.6,0.2-0.8,0.3c-0.3,0.1-0.6,0.2-0.9,0.4c-0.3,0.1-0.6,0.2-0.8,0.3c-0.3,0.1-0.6,0.3-0.9,0.4c-0.3,0.1-0.6,0.2-0.8,0.4
	c-0.3,0.1-0.6,0.3-0.9,0.4c-0.3,0.1-0.6,0.3-0.8,0.4c-0.3,0.1-0.6,0.3-0.9,0.5c-0.3,0.1-0.5,0.3-0.8,0.4c-0.3,0.2-0.6,0.3-0.9,0.5
	c-0.3,0.1-0.5,0.3-0.8,0.4c-0.3,0.2-0.6,0.4-1,0.6c0,0,0,0-0.1,0c0,0.2-0.1,0.5-0.1,0.7c0,0.2,0,0.4,0,0.6
	c5.8-3.6,12.1-5.9,17.5-7.5L117.3,155.8C117.4,155.8,117.3,155.8,117.3,155.8z"/>
<path class="st6" d="M99.9,164.3c-0.1,6.3,5.3,18.5,10.2,28.2c2.4,1.1,4.8,2.1,7.3,3v-38.6C112,158.4,105.7,160.7,99.9,164.3z"/>
<path class="st6" d="M181.6,156.2c0.4,0.1,0.8,0.3,1.3,0.4c0.1,0,0.3,0.1,0.4,0.1c0.4,0.1,0.8,0.2,1.1,0.4c0.2,0.1,0.4,0.1,0.6,0.2
	c0.4,0.1,0.7,0.2,1.1,0.4c0.2,0.1,0.5,0.2,0.7,0.2c0.3,0.1,0.7,0.2,1,0.4c0.3,0.1,0.5,0.2,0.8,0.3c0.3,0.1,0.6,0.3,1,0.4
	c0.3,0.1,0.5,0.2,0.8,0.3c0.3,0.1,0.6,0.3,0.9,0.4c0.3,0.1,0.6,0.3,0.9,0.4c0.3,0.1,0.6,0.3,0.9,0.4c0.3,0.1,0.6,0.3,0.9,0.4
	c0.3,0.1,0.6,0.3,0.8,0.4c0.3,0.2,0.6,0.3,1,0.5c0.3,0.1,0.5,0.3,0.8,0.4c0.1,0.1,0.2,0.1,0.3,0.2c-1.8-9.6-15.2-10.3-17.6-7
	c0.7,0.2,1.4,0.4,2.2,0.6C181.4,156.1,181.5,156.1,181.6,156.2z"/>
<path class="st6" d="M186.7,157.9c0.3,0.1,0.7,0.2,1,0.4C187.4,158.1,187.1,158,186.7,157.9z"/>
<path class="st6" d="M185,157.3c0.4,0.1,0.7,0.2,1.1,0.4C185.7,157.5,185.3,157.4,185,157.3z"/>
<path class="st6" d="M181.6,156.2c0.4,0.1,0.8,0.3,1.3,0.4C182.4,156.4,182,156.3,181.6,156.2z"/>
<path class="st6" d="M183.3,156.7c0.4,0.1,0.8,0.2,1.1,0.4C184,156.9,183.7,156.8,183.3,156.7z"/>
<path class="st6" d="M193.9,160.9c0.3,0.1,0.6,0.3,0.8,0.4C194.5,161.2,194.2,161.1,193.9,160.9z"/>
<path class="st6" d="M179,156.5c0.3,0.1,0.6,0.2,1,0.3v-1.1c0.5,0.1,0.9,0.3,1.4,0.4c-0.7-0.2-1.5-0.4-2.2-0.6
	c-0.1,0.1-0.1,0.2-0.2,0.3V156.5z"/>
<path class="st6" d="M190.3,159.3c0.3,0.1,0.6,0.3,0.9,0.4C190.9,159.6,190.6,159.4,190.3,159.3z"/>
<path class="st6" d="M192.1,160.1c0.3,0.1,0.6,0.3,0.9,0.4C192.7,160.4,192.4,160.2,192.1,160.1z"/>
<path class="st6" d="M188.5,158.6c0.3,0.1,0.6,0.3,1,0.4C189.2,158.8,188.8,158.7,188.5,158.6z"/>
<path class="st6" d="M195.7,161.9c0.3,0.1,0.5,0.3,0.8,0.4C196.2,162.2,196,162,195.7,161.9z"/>
<path class="st6" d="M180,156.8c-0.3-0.1-0.6-0.2-1-0.3v26c0.3-0.1,0.6-0.2,1-0.3V156.8z"/>
<path class="st6" d="M179,182.5v11.1c0.3-0.1,0.6-0.3,1-0.4v-11C179.6,182.3,179.3,182.4,179,182.5z"/>
<path class="st6" d="M182.8,156.6c0.1,0,0.3,0.1,0.4,0.1C183.1,156.7,183,156.6,182.8,156.6z"/>
<path class="st6" d="M191.2,159.7c0.3,0.1,0.6,0.3,0.9,0.4C191.8,160,191.5,159.8,191.2,159.7z"/>
<path class="st6" d="M196.8,162.5C196.8,162.5,196.8,162.5,196.8,162.5c-0.1-0.1-0.2-0.1-0.3-0.2
	C196.6,162.4,196.7,162.4,196.8,162.5z"/>
<path class="st6" d="M187.8,158.3c0.3,0.1,0.5,0.2,0.8,0.3C188.3,158.5,188,158.4,187.8,158.3z"/>
<path class="st6" d="M193,160.5c0.3,0.1,0.6,0.3,0.9,0.4C193.6,160.8,193.3,160.6,193,160.5z"/>
<path class="st6" d="M194.7,161.4c0.3,0.2,0.6,0.3,1,0.5C195.4,161.7,195.1,161.5,194.7,161.4z"/>
<path class="st6" d="M181.4,156.1c0.1,0,0.2,0,0.2,0.1C181.5,156.1,181.4,156.1,181.4,156.1z"/>
<path class="st6" d="M189.5,158.9c0.3,0.1,0.5,0.2,0.8,0.3C190,159.2,189.8,159.1,189.5,158.9z"/>
<path class="st6" d="M186.1,157.6c0.2,0.1,0.5,0.2,0.7,0.2C186.5,157.8,186.3,157.7,186.1,157.6z"/>
<path class="st6" d="M184.4,157.1c0.2,0.1,0.4,0.1,0.6,0.2C184.8,157.2,184.6,157.1,184.4,157.1z"/>
<path class="st6" d="M197,163.7c0-0.4-0.1-0.8-0.2-1.2c-0.1-0.1-0.2-0.1-0.3-0.2c-0.3-0.1-0.5-0.3-0.8-0.4c-0.3-0.2-0.6-0.3-1-0.5
	c-0.3-0.1-0.6-0.3-0.8-0.4c-0.3-0.2-0.6-0.3-0.9-0.4c-0.3-0.1-0.6-0.3-0.9-0.4c-0.3-0.1-0.6-0.3-0.9-0.4c-0.3-0.1-0.6-0.3-0.9-0.4
	c-0.3-0.1-0.5-0.2-0.8-0.3c-0.3-0.1-0.6-0.3-1-0.4c-0.3-0.1-0.5-0.2-0.8-0.3c-0.3-0.1-0.7-0.3-1-0.4c-0.2-0.1-0.5-0.2-0.7-0.2
	c-0.4-0.1-0.7-0.3-1.1-0.4c-0.2-0.1-0.4-0.1-0.6-0.2c-0.4-0.1-0.8-0.3-1.1-0.4c-0.1,0-0.3-0.1-0.4-0.1c-0.4-0.1-0.8-0.3-1.3-0.4
	c-0.1,0-0.2,0-0.2-0.1c-0.5-0.1-0.9-0.3-1.4-0.4v1.1c5.2,1.5,11.3,3.7,17,7.1C197,163.8,197,163.7,197,163.7z"/>
<path class="st6" d="M193.9,176.7c1.9-5.1,3.2-9.8,3-12.8c-5.7-3.4-11.8-5.5-17-7.1v25.4C184.7,180.5,189.4,178.8,193.9,176.7z"/>
<path class="st6" d="M180,182.1v11c3-1.3,5.9-2.8,8.7-4.4c1.9-4,3.8-8.2,5.3-12.1C189.4,178.8,184.7,180.5,180,182.1z"/>
<rect id="Rectángulo_32108" x="-0.2" y="151.1" class="st2" width="2.7" height="14.5"/>
<rect id="Rectángulo_32109" x="-0.2" y="181.5" class="st2" width="2.7" height="15.9"/>
<rect id="Rectángulo_32110" x="-0.2" y="213.4" class="st2" width="2.7" height="15.9"/>
<path id="Trazado_109559" class="st2" d="M252.8,288v2.7h16l-0.1-2.7H252.8z"/>
<path id="Trazado_109560" class="st2" d="M287.5,269.2c0,4.9-1.9,9.7-5.4,13.2l1.9,1.9c4-4,6.2-9.4,6.1-15.1v-0.3h-2.7V269.2z"/>
<rect id="Rectángulo_32111" x="189" y="288" class="st2" width="15.9" height="2.7"/>
<rect id="Rectángulo_32112" x="287.5" y="151.1" class="st2" width="2.7" height="6.2"/>
<rect id="Rectángulo_32113" x="287.5" y="173.2" class="st2" width="2.7" height="16"/>
<rect id="Rectángulo_32114" x="287.5" y="237" class="st2" width="2.7" height="16"/>
<rect id="Rectángulo_32115" x="157.1" y="288" class="st2" width="15.9" height="2.7"/>
<rect id="Rectángulo_32116" x="287.5" y="205.1" class="st2" width="2.7" height="16"/>
<rect id="Rectángulo_32117" x="220.9" y="288" class="st2" width="15.9" height="2.7"/>
<rect id="Rectángulo_32118" x="-0.2" y="245.3" class="st2" width="2.7" height="15.9"/>
<path id="Trazado_109561" class="st2" d="M3.9,276.5l-2.5,1c2.2,5.3,6.5,9.5,11.8,11.6l1-2.5C9.6,284.8,5.9,281.1,3.9,276.5z"/>
<rect id="Rectángulo_32119" x="29.5" y="288" class="st2" width="15.9" height="2.7"/>
<rect id="Rectángulo_32120" x="93.3" y="288" class="st2" width="15.9" height="2.7"/>
<rect id="Rectángulo_32121" x="125.2" y="288" class="st2" width="15.9" height="2.7"/>
<rect id="Rectángulo_32122" x="61.4" y="288" class="st2" width="15.9" height="2.7"/>
<path id="Trazado_109562" class="st7" d="M2.4,148.4V21.8C2.5,11.4,10.9,3,21.3,3h247.5c10.4,0,18.8,8.4,18.8,18.8v126.6h2.7V21.8
	c0-11.9-9.6-21.5-21.5-21.5H21.3C9.4,0.3-0.2,9.9-0.2,21.8v126.6H2.4z"/>
<g class="st8">
	<path class="st9" d="M89.7,225.2h2.1v6.9c0,0.6-0.1,1.2-0.4,1.7c-0.3,0.5-0.7,0.9-1.2,1.1s-1.1,0.4-1.7,0.4c-1.1,0-1.9-0.3-2.5-0.8
		c-0.6-0.5-0.9-1.3-0.9-2.3h2.1c0,0.5,0.1,0.8,0.3,1.1s0.5,0.3,1,0.3c0.4,0,0.7-0.1,0.9-0.4s0.3-0.7,0.3-1.1V225.2z"/>
	<path class="st9" d="M96.8,235.3c-1.1,0-2-0.3-2.6-1s-1-1.6-1-2.7v-0.2c0-0.7,0.1-1.4,0.4-2c0.3-0.6,0.7-1,1.2-1.4
		c0.5-0.3,1.1-0.5,1.8-0.5c1,0,1.8,0.3,2.4,1s0.9,1.5,0.9,2.7v0.8h-4.7c0.1,0.5,0.3,0.9,0.6,1.2s0.7,0.4,1.2,0.4
		c0.8,0,1.4-0.3,1.8-0.8l1,1.1c-0.3,0.4-0.7,0.7-1.2,1C97.9,235.1,97.4,235.3,96.8,235.3z M96.5,229.2c-0.4,0-0.7,0.1-1,0.4
		s-0.4,0.6-0.5,1.1h2.7v-0.2c0-0.4-0.1-0.8-0.4-1S97,229.2,96.5,229.2z"/>
	<path class="st9" d="M101.5,235.1v-5.9h-1.1v-1.4h1.1v-0.6c0-0.8,0.2-1.5,0.7-1.9c0.5-0.5,1.1-0.7,2-0.7c0.3,0,0.6,0,1,0.1l0,1.5
		c-0.2,0-0.4-0.1-0.6-0.1c-0.7,0-1.1,0.3-1.1,1v0.6h1.5v1.4h-1.5v5.9H101.5z"/>
	<path class="st9" d="M109.4,235.3c-1.1,0-2-0.3-2.6-1s-1-1.6-1-2.7v-0.2c0-0.7,0.1-1.4,0.4-2c0.3-0.6,0.7-1,1.2-1.4
		c0.5-0.3,1.1-0.5,1.8-0.5c1,0,1.8,0.3,2.4,1s0.9,1.5,0.9,2.7v0.8h-4.7c0.1,0.5,0.3,0.9,0.6,1.2s0.7,0.4,1.2,0.4
		c0.8,0,1.4-0.3,1.8-0.8l1,1.1c-0.3,0.4-0.7,0.7-1.2,1C110.5,235.1,110,235.3,109.4,235.3z M109.1,229.2c-0.4,0-0.7,0.1-1,0.4
		s-0.4,0.6-0.5,1.1h2.7v-0.2c0-0.4-0.1-0.8-0.4-1S109.6,229.2,109.1,229.2z"/>
	<path class="st9" d="M116.7,231.4c0-1.2,0.3-2.1,0.8-2.8s1.2-1,2.1-1c0.7,0,1.3,0.3,1.8,0.8v-3.8h2v10.5h-1.8l-0.1-0.8
		c-0.5,0.6-1.1,0.9-1.9,0.9c-0.9,0-1.6-0.3-2.1-1C117,233.6,116.7,232.6,116.7,231.4z M118.7,231.5c0,0.7,0.1,1.2,0.4,1.6
		c0.2,0.4,0.6,0.6,1.1,0.6c0.6,0,1-0.3,1.3-0.8V230c-0.2-0.5-0.7-0.8-1.3-0.8C119.2,229.2,118.7,230,118.7,231.5z"/>
	<path class="st9" d="M128.3,235.3c-1.1,0-2-0.3-2.6-1s-1-1.6-1-2.7v-0.2c0-0.7,0.1-1.4,0.4-2c0.3-0.6,0.7-1,1.2-1.4
		c0.5-0.3,1.1-0.5,1.8-0.5c1,0,1.8,0.3,2.4,1s0.9,1.5,0.9,2.7v0.8h-4.7c0.1,0.5,0.3,0.9,0.6,1.2s0.7,0.4,1.2,0.4
		c0.8,0,1.4-0.3,1.8-0.8l1,1.1c-0.3,0.4-0.7,0.7-1.2,1C129.5,235.1,128.9,235.3,128.3,235.3z M128.1,229.2c-0.4,0-0.7,0.1-1,0.4
		s-0.4,0.6-0.5,1.1h2.7v-0.2c0-0.4-0.1-0.8-0.4-1S128.5,229.2,128.1,229.2z"/>
	<path class="st9" d="M139,233.7c0.4,0,0.7-0.1,0.9-0.3s0.3-0.5,0.4-0.8h1.9c0,0.5-0.1,1-0.4,1.4c-0.3,0.4-0.6,0.7-1.1,1
		c-0.5,0.2-1,0.3-1.5,0.3c-1.1,0-1.9-0.3-2.5-1c-0.6-0.7-0.9-1.6-0.9-2.8v-0.1c0-1.1,0.3-2,0.9-2.7s1.4-1,2.5-1
		c0.9,0,1.7,0.3,2.2,0.8c0.6,0.5,0.8,1.2,0.9,2.1h-1.9c0-0.4-0.1-0.7-0.4-0.9c-0.2-0.2-0.5-0.4-0.9-0.4c-0.5,0-0.8,0.2-1,0.5
		c-0.2,0.3-0.4,0.9-0.4,1.6v0.2c0,0.8,0.1,1.3,0.3,1.6S138.6,233.7,139,233.7z"/>
	<path class="st9" d="M142.9,231.4c0-0.7,0.1-1.4,0.4-2s0.7-1,1.2-1.3s1.1-0.5,1.8-0.5c1,0,1.8,0.3,2.4,0.9c0.6,0.6,1,1.4,1.1,2.5
		l0,0.5c0,1.1-0.3,2-1,2.7c-0.6,0.7-1.5,1-2.5,1c-1.1,0-1.9-0.3-2.6-1S142.9,232.6,142.9,231.4L142.9,231.4z M144.9,231.5
		c0,0.7,0.1,1.2,0.4,1.6s0.6,0.6,1.1,0.6c0.5,0,0.9-0.2,1.1-0.6c0.3-0.4,0.4-1,0.4-1.8c0-0.7-0.1-1.2-0.4-1.6
		c-0.3-0.4-0.6-0.6-1.1-0.6c-0.5,0-0.9,0.2-1.1,0.6C145.1,230.1,144.9,230.7,144.9,231.5z"/>
	<path class="st9" d="M153,227.7l0.1,0.8c0.5-0.6,1.2-1,2.1-1c1,0,1.6,0.4,2,1.1c0.5-0.8,1.3-1.1,2.2-1.1c0.8,0,1.4,0.2,1.8,0.7
		c0.4,0.5,0.6,1.2,0.6,2.1v4.7h-2v-4.7c0-0.4-0.1-0.7-0.2-0.9c-0.2-0.2-0.5-0.3-0.9-0.3c-0.6,0-1,0.3-1.2,0.8l0,5.1h-2v-4.7
		c0-0.4-0.1-0.7-0.3-0.9c-0.2-0.2-0.5-0.3-0.9-0.3c-0.6,0-1,0.2-1.2,0.7v5.2h-2v-7.4H153z"/>
	<path class="st9" d="M169.9,231.5c0,1.1-0.3,2.1-0.8,2.7c-0.5,0.7-1.2,1-2.1,1c-0.7,0-1.4-0.3-1.8-0.8v3.5h-2v-10.2h1.8l0.1,0.7
		c0.5-0.6,1.1-0.9,1.9-0.9c0.9,0,1.6,0.3,2.1,1s0.8,1.6,0.8,2.8V231.5z M168,231.4c0-0.7-0.1-1.2-0.4-1.6c-0.2-0.4-0.6-0.6-1.1-0.6
		c-0.6,0-1,0.2-1.3,0.7v3c0.2,0.5,0.7,0.7,1.3,0.7C167.5,233.7,168,232.9,168,231.4z"/>
	<path class="st9" d="M175.3,229.6c-0.3,0-0.5-0.1-0.7-0.1c-0.7,0-1.2,0.3-1.5,0.8v4.8h-2v-7.4h1.9l0.1,0.9c0.4-0.7,0.9-1,1.6-1
		c0.2,0,0.4,0,0.6,0.1L175.3,229.6z"/>
	<path class="st9" d="M180.4,235.1c-0.1-0.2-0.2-0.4-0.2-0.7c-0.5,0.5-1.1,0.8-1.9,0.8c-0.7,0-1.3-0.2-1.8-0.6
		c-0.5-0.4-0.7-0.9-0.7-1.6c0-0.8,0.3-1.4,0.9-1.8s1.4-0.6,2.5-0.6h0.9v-0.4c0-0.3-0.1-0.6-0.3-0.8c-0.2-0.2-0.5-0.3-0.8-0.3
		c-0.3,0-0.6,0.1-0.8,0.2c-0.2,0.2-0.3,0.4-0.3,0.7h-2c0-0.4,0.1-0.8,0.4-1.2c0.3-0.4,0.6-0.7,1.1-0.9c0.5-0.2,1-0.3,1.6-0.3
		c0.9,0,1.6,0.2,2.2,0.7c0.5,0.5,0.8,1.1,0.8,1.9v3.2c0,0.7,0.1,1.2,0.3,1.6v0.1H180.4z M178.7,233.8c0.3,0,0.6-0.1,0.8-0.2
		c0.2-0.1,0.4-0.3,0.5-0.5v-1.3h-0.7c-1,0-1.5,0.3-1.6,1l0,0.1c0,0.2,0.1,0.4,0.3,0.6C178.2,233.7,178.4,233.8,178.7,233.8z"/>
	<path class="st9" d="M187.6,233.1c0-0.2-0.1-0.4-0.4-0.6c-0.2-0.1-0.6-0.3-1.2-0.4c-1.8-0.4-2.6-1.1-2.6-2.2c0-0.7,0.3-1.2,0.8-1.6
		c0.5-0.4,1.3-0.7,2.1-0.7c0.9,0,1.7,0.2,2.3,0.7c0.6,0.4,0.8,1,0.8,1.7h-2c0-0.3-0.1-0.5-0.3-0.7c-0.2-0.2-0.5-0.3-0.9-0.3
		c-0.3,0-0.6,0.1-0.8,0.2c-0.2,0.2-0.3,0.3-0.3,0.6c0,0.2,0.1,0.4,0.3,0.5c0.2,0.1,0.6,0.2,1,0.3c0.5,0.1,0.9,0.2,1.2,0.3
		c1,0.4,1.6,1,1.6,2c0,0.7-0.3,1.2-0.9,1.6c-0.6,0.4-1.3,0.6-2.2,0.6c-0.6,0-1.2-0.1-1.7-0.3c-0.5-0.2-0.9-0.5-1.1-0.9
		c-0.3-0.4-0.4-0.8-0.4-1.2h1.9c0,0.4,0.1,0.6,0.4,0.8c0.2,0.2,0.6,0.3,1,0.3c0.4,0,0.7-0.1,0.9-0.2
		C187.5,233.5,187.6,233.3,187.6,233.1z"/>
</g>
<path id="Trazado_109564" class="st10" d="M134.2,147.6c9.3-1.4,18.7-2.8,28-4.3c-0.8-5-0.9-10.1-0.5-15.2l-11.7,0.8v-0.8l-1.3,0.4
	l-1.2-0.4v0.8l-11.7-0.8C135.9,128.1,137.1,140.1,134.2,147.6z"/>
<path id="Trazado_109571" class="st10" d="M125.9,98c-2.3-7.1-7.7-5.5-8.3-5.3c-0.5,0.1-6.2,0.9-5.2,8.3c1,7.5,5.3,11.5,9.4,10.3
	C126.1,110.7,128.3,105.2,125.9,98z"/>
<path id="Trazado_109572" class="st10" d="M171.9,98c2.3-7.1,7.7-5.5,8.3-5.3c0.5,0.1,6.2,0.9,5.2,8.3c-1,7.5-5.3,11.5-9.4,10.3
	C171.7,110.7,169.6,105.2,171.9,98z"/>
<path id="Trazado_109573" class="st3" d="M120.4,87.2c2.9-31.3,26.6-29.5,28.9-29.3c2.2-0.2,26-2,28.9,29.3
	c2.9,31.5-11.1,52-28.9,50.9C131.5,139.2,117.5,118.6,120.4,87.2z"/>
<path id="Trazado_109574" class="st11" d="M153.3,90.8l1.9,17.5l-5.4,3.7"/>
<path id="Trazado_109575" class="st12" d="M161.4,117.7c-5.7,5.5-15.3,5.2-22.5,0.3"/>
<path id="Trazado_109576" class="st13" d="M171.7,88.5c0,0-7.5-9.1-14.9-0.6"/>
<path id="Trazado_109577" class="st13" d="M142,88.5c0,0-7.5-9.1-14.9-0.6"/>
<path id="Trazado_109578" class="st14" d="M141.1,99.9c0,0-0.4-6-5.6-5.6c-4.3,0.4-3.9,5.6-3.9,5.6"/>
<path id="Trazado_109579" class="st14" d="M167.7,99.4c0,0-0.4-6-5.6-5.6c-4.3,0.4-3.9,5.6-3.9,5.6"/>
<path id="Trazado_109580" class="st15" d="M179.3,63.1c-1.6-6.4-5.4-8-7.3-8.5C171,38.1,126.9,35,126.3,38.2
	c-0.6,3.4,15.6,8.9,15.6,8.9s-29.1-7.7-27.6-0.9c1.2,5.5,13,4.9,17.4,4.5c-6.2,0.8-27.2,4.1-17.7,13.6c0.8,0.8,1.6,1.4,2.5,2
	c-0.9,11.8,2.6,39.4,2.6,39.4h2.5l-0.9-19c4.8-1,6.9-12.2,7.7-17.2c8.1,0.1,16.1-2.6,19.1-3.8c-1.8,0.8-4.7,2.8-1.5,5.7
	c3.2,3,14.6-0.6,20.3-2.7c1.1,4.5,4.4,17,9.5,18.1l-0.9,19h2.5C177.2,105.7,181.5,71.6,179.3,63.1z"/>
<path id="Trazado_109581" class="st16" d="M179.3,63.1c-1.6-6.4-5.4-8-7.3-8.5c-0.2-3-1.8-5.6-4.4-7.8c-1.4,11.2-9.6,20.7-20,25.4
	c4.5,1.1,13.6-1.8,18.5-3.6c1.1,4.5,4.4,17,9.5,18.1l-0.9,19h2.5C177.2,105.7,181.5,71.6,179.3,63.1z"/>
</svg>
