<?xml version="1.0" encoding="utf-8"?>
<!-- Generator: Adobe Illustrator 25.2.3, SVG Export Plug-In . SVG Version: 6.00 Build 0)  -->
<!DOCTYPE svg PUBLIC "-//W3C//DTD SVG 1.1//EN" "http://www.w3.org/Graphics/SVG/1.1/DTD/svg11.dtd" [
	<!ENTITY ns_extend "http://ns.adobe.com/Extensibility/1.0/">
	<!ENTITY ns_ai "http://ns.adobe.com/AdobeIllustrator/10.0/">
	<!ENTITY ns_graphs "http://ns.adobe.com/Graphs/1.0/">
	<!ENTITY ns_vars "http://ns.adobe.com/Variables/1.0/">
	<!ENTITY ns_imrep "http://ns.adobe.com/ImageReplacement/1.0/">
	<!ENTITY ns_sfw "http://ns.adobe.com/SaveForWeb/1.0/">
	<!ENTITY ns_custom "http://ns.adobe.com/GenericCustomNamespace/1.0/">
	<!ENTITY ns_adobe_xpath "http://ns.adobe.com/XPath/1.0/">
]>
<svg version="1.1" id="Capa_1" xmlns:x="&ns_extend;" xmlns:i="&ns_ai;" xmlns:graph="&ns_graphs;"
	 xmlns="http://www.w3.org/2000/svg" xmlns:xlink="http://www.w3.org/1999/xlink" x="0px" y="0px" viewBox="0 0 290.5 290.5"
	 style="enable-background:new 0 0 290.5 290.5;" xml:space="preserve">
<style type="text/css">
	.st0{fill:#E4DDFA;}
	.st1{fill:#7E5EE3;}
	.st2{fill:#FF9D7F;}
	.st3{fill:#D77E68;}
	.st4{fill:#FF6C5F;}
	.st5{fill:#EE5553;}
	.st6{fill:#7E5E6A;}
	.st7{fill:#977381;}
	.st8{fill:#FF9D00;}
	.st9{fill:#12263F;}
	.st10{fill:none;stroke:#B06654;stroke-width:1.661;stroke-miterlimit:10;}
	.st11{fill:#FFFFFF;}
	.st12{fill:none;stroke:#352835;stroke-width:4;stroke-miterlimit:10;}
	.st13{fill:none;stroke:#352835;stroke-width:1.195;stroke-miterlimit:10;}
	.st14{fill:#352835;}
</style>
<metadata>
	<sfw  xmlns="&ns_sfw;">
		<slices></slices>
		<sliceSourceBounds  bottomLeftOrigin="true" height="290.5" width="290.5" x="-0.2" y="-0.2"></sliceSourceBounds>
	</sfw>
</metadata>
<path class="st0" d="M264,11.5H26c-8.3,0-15,6.7-15,15v238c0,8.3,6.7,15,15,15h238c8.3,0,15-6.7,15-15v-238
	C278.9,18.3,272.2,11.5,264,11.5z"/>
<path class="st1" d="M88,178.5c4.2-5.2,9.9-9.9,18-13.3l-1.2-0.5c5.1-2.2,10.5-3.4,16-3.7c0,0,0,0,0,0v0c0,0,0,0,0,0l0.3,2.3
	c0.1,0,0.1,0,0.2,0c0.1,0,0.1,0,0.2,0c4.1-1.1,7.3-1.9,8.9-2.8c1.9-1,3.1-3,4-5.3c1.2-3,1.6-6.8,1.8-10.2c0-0.1,0-0.2,0-0.2
	c0-0.2,0-0.4,0-0.6c0-0.1,0-0.2,0-0.3c0-0.2,0-0.5,0-0.7c0-0.2,0-0.4,0-0.6c0-0.1,0-0.2,0-0.3c0-0.2,0-0.5,0-0.7c0,0,0-0.1,0-0.1
	c0-3.3-0.3-5.7-0.3-5.7l0,0v0l11.7,0.8v-0.8l0,0v0l1.2,0.4l1.2-0.4v0l0,0v0.8l11.7-0.8v0l0,0c-0.1,1.3-0.2,2.5-0.2,3.8c0,0,0,0,0,0
	c-0.1,3.8,0.1,7.6,0.7,11.4c0,0,0,0,0,0c0.8,4.2,2.3,8,5.2,9.6c1.4,0.8,4.1,1.5,7.5,2.4c0,0,0,0,0,0c0.1,0,0.2,0,0.3,0.1
	c0.3,0.1,0.7,0.2,1,0.3c0,0,0,0,0,0l0.3-2.1c5.5,0.3,10.9,1.5,16,3.7l-1.2,0.5c6,2.6,10.8,5.9,14.6,9.5
	c15.3-15.5,24.8-36.8,24.8-60.3c0-47.3-38.4-85.7-85.7-85.7c-47.3,0-85.7,38.4-85.7,85.7C59.3,140,70.4,162.8,88,178.5z"/>
<rect x="147.2" y="136.1" transform="matrix(0.2846 -0.9586 0.9586 0.2846 -24.8495 238.8418)" class="st2" width="0.8" height="0"/>
<path class="st2" d="M136.1,145c0-0.1,0-0.2,0-0.2C136.1,144.9,136.1,145,136.1,145z"/>
<path class="st2" d="M136.1,144.2c0-0.1,0-0.2,0-0.3C136.1,144,136.1,144.1,136.1,144.2z"/>
<path class="st2" d="M135.9,135.7c0,0,0.2,2.4,0.3,5.7C136.2,138.1,135.9,135.7,135.9,135.7L135.9,135.7z"/>
<path class="st2" d="M121.2,163.4c-0.1,0-0.1,0-0.2,0l0,0C121,163.4,121.1,163.4,121.2,163.4z"/>
<path class="st2" d="M148.9,172.2c10.4,0,19.8-3.6,26.1-9.3c-3.4-0.9-6.1-1.6-7.5-2.4c-2.9-1.6-4.4-5.4-5.2-9.6
	c-9.3,1.5-18.7,2.9-28,4.3c0,0,0,0,0,0c-0.9,2.4-2.2,4.3-4,5.3c-1.6,0.9-4.8,1.7-8.9,2.8c0.5-0.1,1-0.3,1.4-0.4
	C129.1,168.6,138.4,172.2,148.9,172.2z"/>
<rect x="150.1" y="136.1" class="st2" width="11.7" height="0"/>
<path class="st2" d="M136.2,141.6c0,0.2,0,0.5,0,0.7C136.2,142,136.2,141.8,136.2,141.6z"/>
<path class="st2" d="M175.2,163c0.3,0.1,0.7,0.2,1,0.3C175.9,163.2,175.6,163.1,175.2,163z"/>
<rect x="148.8" y="135.9" class="st2" width="1.3" height="0"/>
<path class="st2" d="M161.6,139.5C161.6,139.5,161.6,139.5,161.6,139.5C161.6,139.5,161.6,139.5,161.6,139.5z"/>
<path class="st2" d="M136.2,143.1c0-0.2,0-0.4,0-0.6C136.2,142.7,136.2,142.9,136.2,143.1z"/>
<path class="st3" d="M136.2,141.4c0,0,0,0.1,0,0.1C136.2,141.5,136.2,141.5,136.2,141.4z"/>
<rect x="148.2" y="135.2" transform="matrix(0.2871 -0.9579 0.9579 0.2871 -24.4939 238.8516)" class="st3" width="0" height="1.3"/>
<rect x="141.8" y="130.2" transform="matrix(6.436386e-02 -0.9979 0.9979 6.436386e-02 -3.155 268.7719)" class="st3" width="0" height="11.7"/>
<path class="st3" d="M162.3,150.9C162.3,150.9,162.3,150.9,162.3,150.9c-0.6-3.8-0.8-7.6-0.7-11.4
	C161.5,142.5,161.5,146.9,162.3,150.9z"/>
<rect x="150.1" y="135.7" class="st3" width="0" height="0.8"/>
<path class="st3" d="M136.1,143.9c0-0.2,0-0.5,0-0.7C136.2,143.4,136.1,143.6,136.1,143.9z"/>
<path class="st3" d="M136.1,144.8c0-0.2,0-0.4,0-0.6C136.1,144.4,136.1,144.6,136.1,144.8z"/>
<path class="st3" d="M134.3,155.2c1.2-3,1.6-6.8,1.8-10.2C135.9,148.4,135.4,152.2,134.3,155.2z"/>
<path class="st3" d="M136.2,142.5c0-0.1,0-0.2,0-0.3C136.2,142.3,136.2,142.4,136.2,142.5z"/>
<path class="st3" d="M161.8,135.7L161.8,135.7c0,0-0.2,1.5-0.2,3.8C161.6,138.2,161.7,137,161.8,135.7z"/>
<path class="st3" d="M162.3,150.9c-0.7-4-0.8-8.4-0.7-11.4c0,0,0,0,0,0c0.1-2.3,0.2-3.8,0.2-3.8l-11.7,0.8v0l0,0v-0.8l-1.2,0.4l0,0
	l0,0l-1.2-0.4v0.7l0,0v0l-11.7-0.8c0,0,0.2,2.4,0.3,5.7c0,0,0,0.1,0,0.1c0,0.2,0,0.5,0,0.7c0,0.1,0,0.2,0,0.3c0,0.2,0,0.4,0,0.6
	c0,0.2,0,0.5,0,0.7c0,0.1,0,0.2,0,0.3c0,0.2,0,0.4,0,0.6c0,0.1,0,0.2,0,0.2c-0.2,3.4-0.7,7.1-1.8,10.2c0,0,0,0,0,0
	C143.6,153.8,152.9,152.4,162.3,150.9z"/>
<path class="st4" d="M176.3,163.3C176.3,163.3,176.3,163.3,176.3,163.3C176.3,163.3,176.3,163.3,176.3,163.3L176.3,163.3z"/>
<path class="st4" d="M175,162.9C175,162.9,175,162.9,175,162.9c0.1,0,0.2,0,0.3,0.1C175.2,163,175.1,162.9,175,162.9z"/>
<path class="st4" d="M121.2,163.4c0.1,0,0.1,0,0.2,0C121.3,163.3,121.2,163.3,121.2,163.4z"/>
<path class="st4" d="M125.8,195.4c15.7-3.7,31.4-7.1,47.2-10.3l3.3-21.9c0,0,0,0,0,0c-0.3-0.1-0.7-0.2-1-0.3c-0.1,0-0.2,0-0.3-0.1
	c-6.4,5.7-15.7,9.3-26.1,9.3c-10.4,0-19.8-3.6-26.1-9.3c-0.5,0.1-0.9,0.2-1.4,0.4c-0.1,0-0.1,0-0.2,0c-0.1,0-0.1,0-0.2,0
	L125.8,195.4z"/>
<path class="st5" d="M145,200.3c9.2,0,18.1-1.5,26.4-4.2l1.6-11c-15.8,3.2-31.5,6.6-47.2,10.3l0.4,2.7
	C132.2,199.5,138.5,200.3,145,200.3z"/>
<polygon class="st6" points="120.7,161.1 120.6,161.1 120.7,161.1 "/>
<path class="st6" d="M90.2,180.1c0.4-0.5,0.8-0.9,1.2-1.3c0.1-0.1,0.1-0.1,0.2-0.2c0.4-0.5,0.9-0.9,1.4-1.3c0.1-0.1,0.2-0.2,0.4-0.3
	c0.5-0.4,0.9-0.8,1.4-1.2c0.1-0.1,0.2-0.2,0.3-0.2c0.4-0.4,0.9-0.7,1.3-1c0.1-0.1,0.2-0.1,0.3-0.2c0.5-0.4,1-0.7,1.5-1.1
	c0.1-0.1,0.3-0.2,0.4-0.3c0.5-0.3,1-0.7,1.5-1c0.1-0.1,0.2-0.1,0.3-0.2c0.5-0.3,0.9-0.6,1.4-0.8c0.1-0.1,0.2-0.1,0.4-0.2
	c0.5-0.3,1-0.6,1.5-0.8c0.1-0.1,0.3-0.1,0.4-0.2c0.5-0.3,1-0.5,1.6-0.8c0.1,0,0.1-0.1,0.2-0.1c0.5-0.2,1-0.5,1.5-0.7
	c0.1-0.1,0.3-0.1,0.4-0.2c0.5-0.2,1-0.4,1.6-0.7c0.1,0,0.2-0.1,0.4-0.1c0.2-0.1,0.4-0.2,0.6-0.3l-4.2-1.6c-8,3.4-13.8,8.1-18,13.3
	c0.7,0.6,1.4,1.2,2,1.8C90.1,180.3,90.1,180.2,90.2,180.1z"/>
<path class="st6" d="M94.9,175.5c0.4-0.4,0.9-0.7,1.3-1C95.8,174.8,95.4,175.1,94.9,175.5z"/>
<path class="st6" d="M90.2,180.1c0.4-0.5,0.8-0.9,1.2-1.3C90.9,179.2,90.6,179.7,90.2,180.1z"/>
<path class="st6" d="M100.2,171.8c0.5-0.3,0.9-0.6,1.4-0.8C101.1,171.2,100.6,171.5,100.2,171.8z"/>
<path class="st6" d="M98.4,172.9c0.5-0.3,1-0.7,1.5-1C99.4,172.2,98.9,172.6,98.4,172.9z"/>
<path class="st6" d="M105.6,168.8c0.5-0.2,1-0.5,1.5-0.7C106.6,168.3,106.1,168.6,105.6,168.8z"/>
<path class="st6" d="M103.9,169.7c0.5-0.3,1-0.5,1.6-0.8C104.9,169.1,104.4,169.4,103.9,169.7z"/>
<path class="st6" d="M91.5,178.6c0.4-0.5,0.9-0.9,1.4-1.3C92.4,177.7,92,178.2,91.5,178.6z"/>
<path class="st6" d="M110.1,166.9c-0.2,0.1-0.4,0.2-0.6,0.3C109.7,167.1,109.9,167,110.1,166.9L110.1,166.9z"/>
<path class="st6" d="M107.5,168c0.5-0.2,1-0.4,1.6-0.7C108.6,167.5,108,167.7,107.5,168z"/>
<path class="st6" d="M101.9,170.7c0.5-0.3,1-0.6,1.5-0.8C102.9,170.1,102.4,170.4,101.9,170.7z"/>
<path class="st6" d="M93.2,177c0.5-0.4,0.9-0.8,1.4-1.2C94.2,176.1,93.7,176.5,93.2,177z"/>
<path class="st6" d="M96.5,174.2c0.5-0.4,1-0.7,1.5-1.1C97.5,173.5,97,173.9,96.5,174.2z"/>
<path class="st6" d="M90,180.3c0,0.1-0.1,0.1-0.1,0.2C89.9,180.4,90,180.4,90,180.3C90,180.3,90,180.3,90,180.3z"/>
<path class="st6" d="M109.1,167.3c0.1,0,0.2-0.1,0.4-0.1C109.3,167.2,109.2,167.3,109.1,167.3z"/>
<path class="st6" d="M90.2,180.1c-0.1,0.1-0.1,0.1-0.2,0.2c0,0,0,0,0,0C90.1,180.3,90.1,180.2,90.2,180.1z"/>
<path class="st6" d="M98,173.2c0.1-0.1,0.3-0.2,0.4-0.3C98.3,173,98.1,173.1,98,173.2z"/>
<path class="st6" d="M105.4,168.9c0.1,0,0.1-0.1,0.2-0.1C105.6,168.8,105.5,168.9,105.4,168.9z"/>
<path class="st6" d="M107.1,168.1c0.1-0.1,0.3-0.1,0.4-0.2C107.4,168,107.3,168.1,107.1,168.1z"/>
<path class="st6" d="M103.5,169.9c0.1-0.1,0.3-0.1,0.4-0.2C103.7,169.7,103.6,169.8,103.5,169.9z"/>
<path class="st6" d="M96.2,174.4c0.1-0.1,0.2-0.1,0.3-0.2C96.4,174.3,96.3,174.4,96.2,174.4z"/>
<path class="st6" d="M99.9,171.9c0.1-0.1,0.2-0.1,0.3-0.2C100.1,171.8,100,171.9,99.9,171.9z"/>
<path class="st6" d="M101.6,170.9c0.1-0.1,0.2-0.1,0.4-0.2C101.8,170.8,101.7,170.9,101.6,170.9z"/>
<path class="st6" d="M94.6,175.7c0.1-0.1,0.2-0.2,0.3-0.2C94.8,175.6,94.7,175.6,94.6,175.7z"/>
<path class="st6" d="M91.4,178.8c0.1-0.1,0.1-0.1,0.2-0.2C91.5,178.7,91.4,178.8,91.4,178.8z"/>
<path class="st6" d="M92.9,177.3c0.1-0.1,0.2-0.2,0.4-0.3C93.1,177.1,93,177.2,92.9,177.3z"/>
<path class="st6" d="M116.5,195.4l-9.3-14.6l8.6-11.7l-5.7-2.2c-0.2,0.1-0.4,0.2-0.6,0.2c-0.1,0-0.2,0.1-0.4,0.1
	c-0.5,0.2-1,0.4-1.6,0.7c-0.1,0.1-0.3,0.1-0.4,0.2c-0.5,0.2-1,0.5-1.5,0.7c-0.1,0-0.1,0.1-0.2,0.1c-0.5,0.2-1,0.5-1.6,0.8
	c-0.1,0.1-0.3,0.1-0.4,0.2c-0.5,0.3-1,0.5-1.5,0.8c-0.1,0.1-0.2,0.1-0.4,0.2c-0.5,0.3-0.9,0.5-1.4,0.8c-0.1,0.1-0.2,0.1-0.3,0.2
	c-0.5,0.3-1,0.6-1.5,1c-0.1,0.1-0.3,0.2-0.4,0.3c-0.5,0.3-1,0.7-1.5,1.1c-0.1,0.1-0.2,0.1-0.3,0.2c-0.4,0.3-0.9,0.7-1.3,1
	c-0.1,0.1-0.2,0.2-0.3,0.2c-0.5,0.4-0.9,0.8-1.4,1.2c-0.1,0.1-0.2,0.2-0.4,0.3c-0.5,0.4-0.9,0.9-1.4,1.3c-0.1,0.1-0.1,0.1-0.2,0.2
	c-0.4,0.4-0.8,0.9-1.2,1.3c-0.1,0.1-0.1,0.1-0.2,0.2C97.8,186.8,106.7,192,116.5,195.4z"/>
<path class="st7" d="M104.7,164.8l1.2,0.5c4.3-1.8,9.1-3.2,14.7-4.1C115.2,161.4,109.8,162.7,104.7,164.8z"/>
<polygon class="st7" points="121,163.4 120.7,161.1 120.7,161.1 121,163.4 "/>
<polygon class="st7" points="121,163.4 121,163.4 121,163.4 121,163.4 "/>
<polygon class="st7" points="125.8,195.4 121,163.4 121,163.4 125.8,195.4 "/>
<polygon class="st7" points="126.2,198.2 126.2,198.2 125.8,195.4 125.8,195.4 "/>
<path class="st7" d="M110.9,166.6c0.1,0,0.1,0,0.2-0.1c0.5-0.2,1.1-0.4,1.6-0.6c0.1,0,0.2-0.1,0.4-0.1c0.5-0.2,1-0.3,1.5-0.5
	c0.1,0,0.2-0.1,0.3-0.1c0.5-0.2,0.9-0.3,1.4-0.4c0.1,0,0.1,0,0.2-0.1c0.5-0.2,1-0.3,1.5-0.4c0.1,0,0.2-0.1,0.3-0.1
	c0.5-0.1,1-0.3,1.4-0.4c0.1,0,0.1,0,0.2,0c0.4-0.1,0.8-0.2,1.2-0.3l-0.3-2.3c0,0,0,0,0,0c-5.6,0.9-10.5,2.4-14.7,4.1l4.2,1.6
	C110.3,166.8,110.6,166.7,110.9,166.6z"/>
<path class="st7" d="M114.8,165.2c0.5-0.2,0.9-0.3,1.4-0.4C115.8,164.9,115.3,165.1,114.8,165.2z"/>
<path class="st7" d="M116.4,164.7c0.5-0.2,1-0.3,1.5-0.4C117.4,164.4,116.9,164.6,116.4,164.7z"/>
<path class="st7" d="M113,165.8c0.5-0.2,1-0.3,1.5-0.5C114,165.5,113.5,165.6,113,165.8z"/>
<path class="st7" d="M111.1,166.5c0.5-0.2,1.1-0.4,1.6-0.6C112.1,166.1,111.6,166.3,111.1,166.5z"/>
<path class="st7" d="M110.9,166.6c-0.3,0.1-0.6,0.2-0.8,0.3l0,0C110.4,166.8,110.6,166.7,110.9,166.6z"/>
<path class="st7" d="M121,163.4c-0.4,0.1-0.8,0.2-1.2,0.3C120.2,163.6,120.6,163.5,121,163.4L121,163.4z"/>
<path class="st7" d="M118.2,164.2c0.5-0.1,1-0.3,1.4-0.4C119.2,163.9,118.7,164,118.2,164.2z"/>
<path class="st7" d="M110.9,166.6c0.1,0,0.1,0,0.2-0.1C111,166.5,111,166.6,110.9,166.6z"/>
<path class="st7" d="M119.7,163.8c0.1,0,0.1,0,0.2,0C119.8,163.7,119.7,163.8,119.7,163.8z"/>
<path class="st7" d="M116.2,164.8c0.1,0,0.1,0,0.2-0.1C116.4,164.7,116.3,164.8,116.2,164.8z"/>
<path class="st7" d="M114.6,165.3c0.1,0,0.2-0.1,0.3-0.1C114.7,165.2,114.6,165.3,114.6,165.3z"/>
<path class="st7" d="M112.7,165.9c0.1,0,0.2-0.1,0.4-0.1C112.9,165.9,112.8,165.9,112.7,165.9z"/>
<path class="st7" d="M117.9,164.3c0.1,0,0.2-0.1,0.3-0.1C118.1,164.2,118,164.2,117.9,164.3z"/>
<path class="st7" d="M115.7,169.1l-8.6,11.7l9.3,14.6c1.3,0.5,2.6,0.9,4,1.3c1.8-0.4,3.5-0.8,5.3-1.3l-4.8-32.1
	c-0.4,0.1-0.8,0.2-1.2,0.3c-0.1,0-0.1,0-0.2,0c-0.5,0.1-0.9,0.3-1.4,0.4c-0.1,0-0.2,0.1-0.3,0.1c-0.5,0.1-1,0.3-1.5,0.4
	c-0.1,0-0.1,0-0.2,0.1c-0.5,0.1-0.9,0.3-1.4,0.4c-0.1,0-0.2,0.1-0.3,0.1c-0.5,0.2-1,0.3-1.5,0.5c-0.1,0-0.2,0.1-0.4,0.1
	c-0.5,0.2-1,0.4-1.6,0.6c-0.1,0-0.1,0-0.2,0.1c-0.3,0.1-0.5,0.2-0.8,0.3L115.7,169.1z"/>
<path class="st7" d="M120.5,196.7c1.9,0.6,3.8,1.1,5.7,1.5l-0.4-2.7C124,195.9,122.2,196.3,120.5,196.7z"/>
<path class="st6" d="M187.4,166.8c0.3,0.1,0.6,0.2,0.9,0.3c0.1,0,0.2,0.1,0.4,0.1c0.5,0.2,1,0.4,1.6,0.7c0.1,0.1,0.3,0.1,0.4,0.2
	c0.5,0.2,1,0.5,1.5,0.7c0,0,0.1,0,0.1,0.1c0.5,0.3,1.1,0.5,1.6,0.8c0.1,0.1,0.3,0.1,0.4,0.2c0.5,0.3,1,0.6,1.6,0.8
	c0.1,0.1,0.2,0.1,0.3,0.2c0.5,0.3,1,0.6,1.4,0.8c0.1,0,0.2,0.1,0.2,0.1c0.5,0.3,1,0.7,1.5,1c0.1,0.1,0.3,0.2,0.4,0.3
	c0.5,0.3,1,0.7,1.5,1.1c0.1,0.1,0.2,0.1,0.3,0.2c0.4,0.3,0.9,0.7,1.3,1.1c0.1,0.1,0.2,0.2,0.3,0.2c0.3,0.3,0.7,0.6,1,0.9
	c0.6-0.6,1.2-1.2,1.8-1.8c-3.8-3.7-8.5-7-14.6-9.5L187.4,166.8z"/>
<path class="st6" d="M192.3,168.9c0.5,0.3,1.1,0.5,1.6,0.8C193.3,169.4,192.8,169.1,192.3,168.9z"/>
<path class="st6" d="M194.2,169.9c0.5,0.3,1,0.6,1.6,0.8C195.3,170.4,194.8,170.1,194.2,169.9z"/>
<path class="st6" d="M196.1,170.9c0.5,0.3,1,0.6,1.4,0.8C197.1,171.5,196.6,171.2,196.1,170.9z"/>
<path class="st6" d="M188.3,167.2c-0.3-0.1-0.6-0.2-0.9-0.3l0,0C187.7,166.9,188,167,188.3,167.2z"/>
<path class="st6" d="M197.8,171.9c0.5,0.3,1,0.7,1.5,1C198.8,172.6,198.3,172.2,197.8,171.9z"/>
<path class="st6" d="M204.1,176.6c-0.3-0.3-0.7-0.6-1-0.9C203.4,176,203.8,176.3,204.1,176.6C204.1,176.6,204.1,176.6,204.1,176.6z"
	/>
<path class="st6" d="M188.6,167.3c0.5,0.2,1,0.4,1.6,0.7C189.7,167.7,189.1,167.5,188.6,167.3z"/>
<path class="st6" d="M190.6,168.1c0.5,0.2,1,0.5,1.5,0.7C191.6,168.6,191.1,168.3,190.6,168.1z"/>
<path class="st6" d="M199.7,173.2c0.5,0.3,1,0.7,1.5,1.1C200.7,173.9,200.2,173.5,199.7,173.2z"/>
<path class="st6" d="M201.5,174.4c0.4,0.3,0.9,0.7,1.3,1.1C202.4,175.1,201.9,174.8,201.5,174.4z"/>
<path class="st6" d="M188.3,167.2c0.1,0,0.2,0.1,0.4,0.1C188.5,167.3,188.4,167.2,188.3,167.2z"/>
<path class="st6" d="M202.8,175.5c0.1,0.1,0.2,0.2,0.3,0.2C203,175.6,202.9,175.6,202.8,175.5z"/>
<path class="st6" d="M197.6,171.8c0.1,0,0.2,0.1,0.2,0.1C197.7,171.9,197.6,171.8,197.6,171.8z"/>
<path class="st6" d="M192.1,168.8c0,0,0.1,0,0.1,0.1C192.2,168.9,192.2,168.8,192.1,168.8z"/>
<path class="st6" d="M193.8,169.7c0.1,0.1,0.3,0.1,0.4,0.2C194.1,169.8,194,169.7,193.8,169.7z"/>
<path class="st6" d="M195.8,170.7c0.1,0.1,0.2,0.1,0.3,0.2C196,170.8,195.9,170.8,195.8,170.7z"/>
<path class="st6" d="M190.2,168c0.1,0.1,0.3,0.1,0.4,0.2C190.4,168.1,190.3,168,190.2,168z"/>
<path class="st6" d="M199.3,172.9c0.1,0.1,0.3,0.2,0.4,0.3C199.6,173.1,199.5,173,199.3,172.9z"/>
<path class="st6" d="M201.2,174.2c0.1,0.1,0.2,0.1,0.3,0.2C201.4,174.4,201.3,174.3,201.2,174.2z"/>
<path class="st6" d="M181.5,169.1l8.6,11.7l-0.8,1.2c3.7-0.7,7.4-1.4,11.1-2c1.3-1.1,2.5-2.2,3.7-3.3c-0.3-0.3-0.7-0.6-1-0.9
	c-0.1-0.1-0.2-0.2-0.3-0.2c-0.4-0.4-0.9-0.7-1.3-1.1c-0.1-0.1-0.2-0.1-0.3-0.2c-0.5-0.4-1-0.7-1.5-1.1c-0.1-0.1-0.3-0.2-0.4-0.3
	c-0.5-0.3-1-0.7-1.5-1c-0.1,0-0.2-0.1-0.2-0.1c-0.5-0.3-1-0.6-1.4-0.8c-0.1-0.1-0.2-0.1-0.3-0.2c-0.5-0.3-1-0.6-1.6-0.8
	c-0.1-0.1-0.3-0.1-0.4-0.2c-0.5-0.3-1.1-0.5-1.6-0.8c0,0-0.1,0-0.1-0.1c-0.5-0.2-1-0.5-1.5-0.7c-0.1-0.1-0.3-0.1-0.4-0.2
	c-0.5-0.2-1-0.4-1.6-0.7c-0.1,0-0.2-0.1-0.4-0.1c-0.3-0.1-0.6-0.2-0.9-0.3L181.5,169.1z"/>
<path class="st6" d="M200.4,179.9c-3.7,0.7-7.4,1.3-11.1,2l-5.8,9.2C189.6,188.1,195.3,184.3,200.4,179.9z"/>
<path class="st7" d="M192.6,164.8c-5.1-2.2-10.5-3.4-16-3.7c5.6,0.9,10.5,2.4,14.7,4.1L192.6,164.8z"/>
<path class="st7" d="M177.8,163.7c0.1,0,0.2,0.1,0.3,0.1c0.4,0.1,0.9,0.3,1.3,0.4c0.1,0,0.3,0.1,0.4,0.1c0.5,0.1,0.9,0.3,1.4,0.4
	c0.1,0,0.2,0.1,0.3,0.1c0.4,0.1,0.9,0.3,1.3,0.4c0.1,0,0.2,0.1,0.3,0.1c0.5,0.2,1,0.3,1.5,0.5c0.1,0,0.3,0.1,0.4,0.1
	c0.5,0.2,1,0.4,1.6,0.6c0.1,0,0.1,0.1,0.2,0.1c0.2,0.1,0.4,0.1,0.6,0.2l3.9-1.5c-4.3-1.8-9.1-3.2-14.7-4.1l-0.3,2.1
	c0.1,0,0.3,0.1,0.4,0.1C177,163.5,177.4,163.6,177.8,163.7z"/>
<path class="st7" d="M187.4,166.8L187.4,166.8c-0.2-0.1-0.4-0.2-0.6-0.2C187,166.7,187.2,166.7,187.4,166.8z"/>
<path class="st7" d="M176.7,163.4c0.4,0.1,0.7,0.2,1.1,0.3C177.4,163.6,177,163.5,176.7,163.4z"/>
<path class="st7" d="M178.1,163.8c0.4,0.1,0.9,0.3,1.3,0.4C179,164,178.5,163.9,178.1,163.8z"/>
<path class="st7" d="M183.2,165.3c0.5,0.2,1,0.3,1.5,0.5C184.2,165.6,183.7,165.5,183.2,165.3z"/>
<path class="st7" d="M179.8,164.3c0.5,0.1,0.9,0.3,1.4,0.4C180.8,164.6,180.3,164.4,179.8,164.3z"/>
<path class="st7" d="M185.1,166c0.5,0.2,1,0.4,1.6,0.6C186.1,166.3,185.6,166.1,185.1,166z"/>
<path class="st7" d="M181.5,164.8c0.4,0.1,0.9,0.3,1.3,0.4C182.4,165.1,182,164.9,181.5,164.8z"/>
<path class="st7" d="M182.8,165.2c0.1,0,0.2,0.1,0.3,0.1C183.1,165.3,182.9,165.2,182.8,165.2z"/>
<path class="st7" d="M186.6,166.5c0.1,0,0.1,0.1,0.2,0.1C186.7,166.6,186.7,166.5,186.6,166.5z"/>
<path class="st7" d="M176.7,163.4c-0.1,0-0.3-0.1-0.4-0.1v0C176.4,163.3,176.6,163.4,176.7,163.4z"/>
<path class="st7" d="M177.8,163.7c0.1,0,0.2,0.1,0.3,0.1C178,163.7,177.9,163.7,177.8,163.7z"/>
<path class="st7" d="M184.7,165.8c0.1,0,0.3,0.1,0.4,0.1C184.9,165.9,184.8,165.9,184.7,165.8z"/>
<path class="st7" d="M179.4,164.2c0.1,0,0.3,0.1,0.4,0.1C179.7,164.2,179.6,164.2,179.4,164.2z"/>
<path class="st7" d="M181.2,164.7c0.1,0,0.2,0.1,0.3,0.1C181.4,164.8,181.3,164.7,181.2,164.7z"/>
<path class="st7" d="M190.1,180.8l-8.6-11.7l5.9-2.3c-0.2-0.1-0.4-0.2-0.6-0.2c-0.1,0-0.1-0.1-0.2-0.1c-0.5-0.2-1-0.4-1.6-0.6
	c-0.1,0-0.3-0.1-0.4-0.1c-0.5-0.2-1-0.3-1.5-0.5c-0.1,0-0.2-0.1-0.3-0.1c-0.4-0.1-0.9-0.3-1.3-0.4c-0.1,0-0.2-0.1-0.3-0.1
	c-0.5-0.1-1-0.3-1.4-0.4c-0.1,0-0.3-0.1-0.4-0.1c-0.5-0.1-0.9-0.3-1.3-0.4c-0.1,0-0.2-0.1-0.3-0.1c-0.4-0.1-0.7-0.2-1.1-0.3
	c-0.1,0-0.3-0.1-0.4-0.1l-3.3,21.9c5.4-1.1,10.9-2.2,16.3-3.2L190.1,180.8z"/>
<path class="st7" d="M183.5,191.1l5.8-9.2c-5.4,1-10.9,2.1-16.3,3.2l-1.6,11C175.6,194.8,179.6,193.1,183.5,191.1z"/>
<rect id="Rectángulo_32156" x="-0.2" y="151.1" class="st1" width="2.7" height="14.5"/>
<rect id="Rectángulo_32157" x="-0.2" y="181.5" class="st1" width="2.7" height="15.9"/>
<rect id="Rectángulo_32158" x="-0.2" y="213.4" class="st1" width="2.7" height="15.9"/>
<path id="Trazado_109642" class="st1" d="M252.8,288v2.7h16l-0.1-2.7H252.8z"/>
<path id="Trazado_109643" class="st1" d="M287.5,269.2c0,4.9-1.9,9.7-5.4,13.2l1.9,1.9c4-4,6.2-9.4,6.1-15.1v-0.3h-2.7V269.2z"/>
<rect id="Rectángulo_32159" x="189" y="288" class="st1" width="15.9" height="2.7"/>
<rect id="Rectángulo_32160" x="287.5" y="151.1" class="st1" width="2.7" height="6.2"/>
<rect id="Rectángulo_32161" x="287.5" y="173.2" class="st1" width="2.7" height="16"/>
<rect id="Rectángulo_32162" x="287.5" y="237" class="st1" width="2.7" height="16"/>
<rect id="Rectángulo_32163" x="157.1" y="288" class="st1" width="15.9" height="2.7"/>
<rect id="Rectángulo_32164" x="287.5" y="205.1" class="st1" width="2.7" height="16"/>
<rect id="Rectángulo_32165" x="220.9" y="288" class="st1" width="15.9" height="2.7"/>
<rect id="Rectángulo_32166" x="-0.2" y="245.3" class="st1" width="2.7" height="15.9"/>
<path id="Trazado_109644" class="st1" d="M3.9,276.5l-2.5,1c2.2,5.3,6.5,9.5,11.8,11.6l1-2.5C9.6,284.8,5.9,281.1,3.9,276.5z"/>
<rect id="Rectángulo_32167" x="29.5" y="288" class="st1" width="15.9" height="2.7"/>
<rect id="Rectángulo_32168" x="93.3" y="288" class="st1" width="15.9" height="2.7"/>
<rect id="Rectángulo_32169" x="125.2" y="288" class="st1" width="15.9" height="2.7"/>
<rect id="Rectángulo_32170" x="61.4" y="288" class="st1" width="15.9" height="2.7"/>
<path id="Trazado_109645" class="st8" d="M2.4,148.4V21.8C2.5,11.4,10.9,3,21.3,3h247.5c10.4,0,18.8,8.4,18.8,18.8v126.6h2.7V21.8
	c0-11.9-9.6-21.5-21.5-21.5H21.3C9.4,0.3-0.2,9.9-0.2,21.8v126.6H2.4z"/>
<g>
	<path class="st9" d="M119.4,226.2c-0.4,0.4-0.9,0.8-1.6,1c-0.7,0.2-1.4,0.4-2.2,0.4c-0.9,0-1.6-0.2-2.3-0.6
		c-0.6-0.4-1.2-0.9-1.5-1.6s-0.5-1.6-0.5-2.5v-0.7c0-1,0.2-1.9,0.5-2.6c0.3-0.7,0.8-1.3,1.4-1.7c0.6-0.4,1.4-0.6,2.2-0.6
		c1.2,0,2.1,0.3,2.8,0.8c0.7,0.6,1.1,1.4,1.2,2.5h-2c-0.1-0.6-0.3-1-0.6-1.3s-0.7-0.4-1.3-0.4c-0.7,0-1.2,0.3-1.6,0.8
		s-0.5,1.3-0.6,2.3v0.6c0,1,0.2,1.8,0.6,2.4s1,0.8,1.7,0.8c0.8,0,1.3-0.2,1.6-0.5v-1.7h-1.9v-1.5h3.9V226.2z"/>
	<path class="st9" d="M124.4,227.6c-1.1,0-2-0.3-2.6-1s-1-1.6-1-2.7v-0.2c0-0.7,0.1-1.4,0.4-2c0.3-0.6,0.7-1,1.2-1.4
		c0.5-0.3,1.1-0.5,1.8-0.5c1,0,1.8,0.3,2.4,1s0.9,1.5,0.9,2.7v0.8h-4.7c0.1,0.5,0.3,0.9,0.6,1.2s0.7,0.4,1.2,0.4
		c0.8,0,1.4-0.3,1.8-0.8l1,1.1c-0.3,0.4-0.7,0.7-1.2,1C125.5,227.5,125,227.6,124.4,227.6z M124.1,221.5c-0.4,0-0.7,0.1-1,0.4
		s-0.4,0.6-0.5,1.1h2.7v-0.2c0-0.4-0.1-0.8-0.4-1S124.6,221.5,124.1,221.5z"/>
	<path class="st9" d="M132.7,221.9c-0.3,0-0.5-0.1-0.7-0.1c-0.7,0-1.2,0.3-1.5,0.8v4.8h-2v-7.4h1.9l0.1,0.9c0.4-0.7,0.9-1,1.6-1
		c0.2,0,0.4,0,0.6,0.1L132.7,221.9z"/>
	<path class="st9" d="M137,227.6c-1.1,0-2-0.3-2.6-1s-1-1.6-1-2.7v-0.2c0-0.7,0.1-1.4,0.4-2c0.3-0.6,0.7-1,1.2-1.4
		c0.5-0.3,1.1-0.5,1.8-0.5c1,0,1.8,0.3,2.4,1s0.9,1.5,0.9,2.7v0.8h-4.7c0.1,0.5,0.3,0.9,0.6,1.2s0.7,0.4,1.2,0.4
		c0.8,0,1.4-0.3,1.8-0.8l1,1.1c-0.3,0.4-0.7,0.7-1.2,1C138.2,227.5,137.7,227.6,137,227.6z M136.8,221.5c-0.4,0-0.7,0.1-1,0.4
		s-0.4,0.6-0.5,1.1h2.7v-0.2c0-0.4-0.1-0.8-0.4-1S137.2,221.5,136.8,221.5z"/>
	<path class="st9" d="M143,220.1l0.1,0.9c0.5-0.7,1.2-1,2.1-1c0.8,0,1.4,0.2,1.8,0.7s0.6,1.1,0.6,2.1v4.8h-2v-4.7
		c0-0.4-0.1-0.7-0.3-0.9c-0.2-0.2-0.5-0.3-0.9-0.3c-0.6,0-1,0.2-1.3,0.7v5.2h-2v-7.4H143z"/>
	<path class="st9" d="M151.4,218.3v1.8h1.3v1.4h-1.3v3.7c0,0.3,0.1,0.5,0.2,0.6s0.3,0.2,0.6,0.2c0.2,0,0.4,0,0.6,0v1.5
		c-0.4,0.1-0.8,0.2-1.2,0.2c-1.4,0-2.1-0.7-2.1-2.1v-4h-1.1v-1.4h1.1v-1.8H151.4z"/>
	<path class="st9" d="M157.2,227.6c-1.1,0-2-0.3-2.6-1s-1-1.6-1-2.7v-0.2c0-0.7,0.1-1.4,0.4-2c0.3-0.6,0.7-1,1.2-1.4
		c0.5-0.3,1.1-0.5,1.8-0.5c1,0,1.8,0.3,2.4,1s0.9,1.5,0.9,2.7v0.8h-4.7c0.1,0.5,0.3,0.9,0.6,1.2s0.7,0.4,1.2,0.4
		c0.8,0,1.4-0.3,1.8-0.8l1,1.1c-0.3,0.4-0.7,0.7-1.2,1C158.4,227.5,157.8,227.6,157.2,227.6z M157,221.5c-0.4,0-0.7,0.1-1,0.4
		c-0.2,0.3-0.4,0.6-0.5,1.1h2.7v-0.2c0-0.4-0.1-0.8-0.4-1C157.7,221.7,157.4,221.5,157,221.5z"/>
	<path class="st9" d="M164.5,223.7c0-1.2,0.3-2.1,0.8-2.8c0.5-0.7,1.2-1,2.1-1c0.7,0,1.3,0.3,1.8,0.8V217h2v10.5h-1.8l-0.1-0.8
		c-0.5,0.6-1.1,0.9-1.9,0.9c-0.9,0-1.6-0.3-2.1-1C164.8,225.9,164.5,225,164.5,223.7z M166.5,223.9c0,0.7,0.1,1.2,0.4,1.6
		c0.2,0.4,0.6,0.6,1.1,0.6c0.6,0,1-0.3,1.3-0.8v-2.9c-0.2-0.5-0.7-0.8-1.3-0.8C167,221.6,166.5,222.3,166.5,223.9z"/>
	<path class="st9" d="M176.1,227.6c-1.1,0-2-0.3-2.6-1c-0.7-0.7-1-1.6-1-2.7v-0.2c0-0.7,0.1-1.4,0.4-2c0.3-0.6,0.7-1,1.2-1.4
		c0.5-0.3,1.1-0.5,1.8-0.5c1,0,1.8,0.3,2.4,1s0.9,1.5,0.9,2.7v0.8h-4.7c0.1,0.5,0.3,0.9,0.6,1.2s0.7,0.4,1.2,0.4
		c0.8,0,1.4-0.3,1.8-0.8l1,1.1c-0.3,0.4-0.7,0.7-1.2,1C177.3,227.5,176.7,227.6,176.1,227.6z M175.9,221.5c-0.4,0-0.7,0.1-1,0.4
		c-0.2,0.3-0.4,0.6-0.5,1.1h2.7v-0.2c0-0.4-0.1-0.8-0.4-1C176.6,221.7,176.3,221.5,175.9,221.5z"/>
	<path class="st9" d="M100.7,239.1l0.1,0.8c0.5-0.6,1.2-1,2.1-1c1,0,1.6,0.4,2,1.1c0.5-0.8,1.3-1.1,2.2-1.1c0.8,0,1.4,0.2,1.8,0.7
		c0.4,0.5,0.6,1.2,0.6,2.1v4.7h-2v-4.7c0-0.4-0.1-0.7-0.2-0.9c-0.2-0.2-0.5-0.3-0.9-0.3c-0.6,0-1,0.3-1.2,0.8l0,5.1h-2v-4.7
		c0-0.4-0.1-0.7-0.3-0.9s-0.5-0.3-0.9-0.3c-0.6,0-1,0.2-1.2,0.7v5.2h-2v-7.4H100.7z"/>
	<path class="st9" d="M114.4,246.6c-1.1,0-2-0.3-2.6-1s-1-1.6-1-2.7v-0.2c0-0.7,0.1-1.4,0.4-2c0.3-0.6,0.7-1,1.2-1.4
		c0.5-0.3,1.1-0.5,1.8-0.5c1,0,1.8,0.3,2.4,1s0.9,1.5,0.9,2.7v0.8h-4.7c0.1,0.5,0.3,0.9,0.6,1.2s0.7,0.4,1.2,0.4
		c0.8,0,1.4-0.3,1.8-0.8l1,1.1c-0.3,0.4-0.7,0.7-1.2,1C115.6,246.5,115,246.6,114.4,246.6z M114.2,240.5c-0.4,0-0.7,0.1-1,0.4
		s-0.4,0.6-0.5,1.1h2.7v-0.2c0-0.4-0.1-0.8-0.4-1S114.6,240.5,114.2,240.5z"/>
	<path class="st9" d="M122.7,240.9c-0.3,0-0.5-0.1-0.7-0.1c-0.7,0-1.2,0.3-1.5,0.8v4.8h-2v-7.4h1.9l0.1,0.9c0.4-0.7,0.9-1,1.6-1
		c0.2,0,0.4,0,0.6,0.1L122.7,240.9z"/>
	<path class="st9" d="M126.6,245c0.4,0,0.7-0.1,0.9-0.3s0.3-0.5,0.4-0.8h1.9c0,0.5-0.1,1-0.4,1.4c-0.3,0.4-0.6,0.7-1.1,1
		c-0.5,0.2-1,0.3-1.5,0.3c-1.1,0-1.9-0.3-2.5-1c-0.6-0.7-0.9-1.6-0.9-2.8v-0.1c0-1.1,0.3-2,0.9-2.7s1.4-1,2.5-1
		c0.9,0,1.7,0.3,2.2,0.8c0.6,0.5,0.8,1.2,0.9,2.1h-1.9c0-0.4-0.1-0.7-0.4-0.9c-0.2-0.2-0.5-0.4-0.9-0.4c-0.5,0-0.8,0.2-1,0.5
		c-0.2,0.3-0.4,0.9-0.4,1.6v0.2c0,0.8,0.1,1.3,0.3,1.6S126.2,245,126.6,245z"/>
	<path class="st9" d="M135.1,246.5c-0.1-0.2-0.2-0.4-0.2-0.7c-0.5,0.5-1.1,0.8-1.9,0.8c-0.7,0-1.3-0.2-1.8-0.6s-0.7-0.9-0.7-1.6
		c0-0.8,0.3-1.4,0.9-1.8s1.4-0.6,2.5-0.6h0.9v-0.4c0-0.3-0.1-0.6-0.3-0.8s-0.5-0.3-0.8-0.3c-0.3,0-0.6,0.1-0.8,0.2s-0.3,0.4-0.3,0.7
		h-2c0-0.4,0.1-0.8,0.4-1.2s0.6-0.7,1.1-0.9c0.5-0.2,1-0.3,1.6-0.3c0.9,0,1.6,0.2,2.2,0.7c0.5,0.5,0.8,1.1,0.8,1.9v3.2
		c0,0.7,0.1,1.2,0.3,1.6v0.1H135.1z M133.5,245.1c0.3,0,0.6-0.1,0.8-0.2c0.2-0.1,0.4-0.3,0.5-0.5v-1.3h-0.7c-1,0-1.5,0.3-1.6,1
		l0,0.1c0,0.2,0.1,0.4,0.3,0.6S133.2,245.1,133.5,245.1z"/>
	<path class="st9" d="M138.1,242.7c0-1.2,0.3-2.1,0.8-2.8s1.2-1,2.1-1c0.7,0,1.3,0.3,1.8,0.8V236h2v10.5h-1.8l-0.1-0.8
		c-0.5,0.6-1.1,0.9-1.9,0.9c-0.9,0-1.6-0.3-2.1-1C138.3,244.9,138.1,244,138.1,242.7z M140,242.9c0,0.7,0.1,1.2,0.4,1.6
		c0.2,0.4,0.6,0.6,1.1,0.6c0.6,0,1-0.3,1.3-0.8v-2.9c-0.2-0.5-0.7-0.8-1.3-0.8C140.5,240.6,140,241.3,140,242.9z"/>
	<path class="st9" d="M145.9,242.7c0-0.7,0.1-1.4,0.4-2s0.7-1,1.2-1.3s1.1-0.5,1.8-0.5c1,0,1.8,0.3,2.4,0.9s1,1.4,1.1,2.5l0,0.5
		c0,1.1-0.3,2-1,2.7c-0.6,0.7-1.5,1-2.5,1s-1.9-0.3-2.6-1S145.9,244,145.9,242.7L145.9,242.7z M147.9,242.9c0,0.7,0.1,1.2,0.4,1.6
		s0.6,0.6,1.1,0.6c0.5,0,0.9-0.2,1.1-0.6c0.3-0.4,0.4-1,0.4-1.8c0-0.7-0.1-1.2-0.4-1.6s-0.6-0.6-1.1-0.6c-0.5,0-0.9,0.2-1.1,0.6
		C148.1,241.5,147.9,242.1,147.9,242.9z"/>
	<path class="st9" d="M156.5,237.3v1.8h1.3v1.4h-1.3v3.7c0,0.3,0.1,0.5,0.2,0.6c0.1,0.1,0.3,0.2,0.6,0.2c0.2,0,0.4,0,0.6,0v1.5
		c-0.4,0.1-0.8,0.2-1.2,0.2c-1.4,0-2.1-0.7-2.1-2.1v-4h-1.1v-1.4h1.1v-1.8H156.5z"/>
	<path class="st9" d="M162.3,246.6c-1.1,0-2-0.3-2.6-1c-0.7-0.7-1-1.6-1-2.7v-0.2c0-0.7,0.1-1.4,0.4-2c0.3-0.6,0.7-1,1.2-1.4
		c0.5-0.3,1.1-0.5,1.8-0.5c1,0,1.8,0.3,2.4,1s0.9,1.5,0.9,2.7v0.8h-4.7c0.1,0.5,0.3,0.9,0.6,1.2s0.7,0.4,1.2,0.4
		c0.8,0,1.4-0.3,1.8-0.8l1,1.1c-0.3,0.4-0.7,0.7-1.2,1C163.5,246.5,162.9,246.6,162.3,246.6z M162.1,240.5c-0.4,0-0.7,0.1-1,0.4
		c-0.2,0.3-0.4,0.6-0.5,1.1h2.7v-0.2c0-0.4-0.1-0.8-0.4-1C162.8,240.7,162.5,240.5,162.1,240.5z"/>
	<path class="st9" d="M169.5,245c0.4,0,0.7-0.1,0.9-0.3c0.2-0.2,0.3-0.5,0.4-0.8h1.9c0,0.5-0.1,1-0.4,1.4c-0.3,0.4-0.6,0.7-1.1,1
		c-0.5,0.2-1,0.3-1.5,0.3c-1.1,0-1.9-0.3-2.5-1c-0.6-0.7-0.9-1.6-0.9-2.8v-0.1c0-1.1,0.3-2,0.9-2.7c0.6-0.7,1.4-1,2.5-1
		c0.9,0,1.7,0.3,2.2,0.8c0.6,0.5,0.8,1.2,0.9,2.1h-1.9c0-0.4-0.1-0.7-0.4-0.9c-0.2-0.2-0.5-0.4-0.9-0.4c-0.5,0-0.8,0.2-1,0.5
		c-0.2,0.3-0.4,0.9-0.4,1.6v0.2c0,0.8,0.1,1.3,0.3,1.6S169.1,245,169.5,245z"/>
	<path class="st9" d="M175.6,239.1l0.1,0.9c0.5-0.7,1.2-1,2.1-1c0.8,0,1.4,0.2,1.8,0.7s0.6,1.1,0.6,2.1v4.8h-2v-4.7
		c0-0.4-0.1-0.7-0.3-0.9c-0.2-0.2-0.5-0.3-0.9-0.3c-0.6,0-1,0.2-1.3,0.7v5.2h-2v-7.4H175.6z"/>
	<path class="st9" d="M181.6,237.2c0-0.3,0.1-0.5,0.3-0.7s0.5-0.3,0.8-0.3c0.3,0,0.6,0.1,0.8,0.3c0.2,0.2,0.3,0.4,0.3,0.7
		c0,0.3-0.1,0.5-0.3,0.7c-0.2,0.2-0.5,0.3-0.8,0.3c-0.3,0-0.6-0.1-0.8-0.3C181.7,237.7,181.6,237.5,181.6,237.2z M183.7,246.5h-2
		v-7.4h2V246.5z"/>
	<path class="st9" d="M189.6,246.5c-0.1-0.2-0.2-0.4-0.2-0.7c-0.5,0.5-1.1,0.8-1.9,0.8c-0.7,0-1.3-0.2-1.8-0.6
		c-0.5-0.4-0.7-0.9-0.7-1.6c0-0.8,0.3-1.4,0.9-1.8s1.4-0.6,2.5-0.6h0.9v-0.4c0-0.3-0.1-0.6-0.3-0.8c-0.2-0.2-0.5-0.3-0.8-0.3
		c-0.3,0-0.6,0.1-0.8,0.2c-0.2,0.2-0.3,0.4-0.3,0.7h-2c0-0.4,0.1-0.8,0.4-1.2c0.3-0.4,0.6-0.7,1.1-0.9c0.5-0.2,1-0.3,1.6-0.3
		c0.9,0,1.6,0.2,2.2,0.7c0.5,0.5,0.8,1.1,0.8,1.9v3.2c0,0.7,0.1,1.2,0.3,1.6v0.1H189.6z M188,245.1c0.3,0,0.6-0.1,0.8-0.2
		c0.2-0.1,0.4-0.3,0.5-0.5v-1.3h-0.7c-1,0-1.5,0.3-1.6,1l0,0.1c0,0.2,0.1,0.4,0.3,0.6C187.4,245,187.7,245.1,188,245.1z"/>
</g>
<g id="Grupo_70449" transform="translate(0 13.308)">
	<path id="Trazado_109654" class="st3" d="M126,92.3c-2.3-7.1-7.7-5.5-8.3-5.3c-0.5,0.1-6.2,0.9-5.2,8.3c1,7.5,5.3,11.5,9.4,10.3
		C126.1,105,128.3,99.4,126,92.3z"/>
	<path id="Trazado_109655" class="st3" d="M171.9,92.3c2.3-7.1,7.7-5.5,8.3-5.3c0.5,0.1,6.2,0.9,5.2,8.3c-1,7.5-5.3,11.5-9.4,10.3
		C171.8,105,169.6,99.4,171.9,92.3z"/>
	<path id="Trazado_109656" class="st2" d="M120.4,81.4c2.8-31.3,26.6-29.5,28.9-29.3c2.2-0.2,26-2,28.9,29.3
		c2.9,31.5-11.1,52-28.9,50.9C131.6,133.5,117.5,112.9,120.4,81.4z"/>
</g>
<g id="Grupo_70450" transform="translate(16.088 39.78)">
	<path id="Trazado_109657" class="st10" d="M133.8,79.9l5.4-3.7l-1.9-17.5"/>
	<path id="Trazado_109658" class="st11" d="M145.3,85.5c-5.7,5.5-14.5,5.1-21.7,0.2"/>
	<path id="Trazado_109659" class="st12" d="M155.6,56.3c0,0-7.9-9.1-15.8-0.6"/>
	<path id="Trazado_109660" class="st12" d="M128.9,55.7c0,0-8.8-8.5-16.5,0.5"/>
	<path id="Trazado_109661" class="st13" d="M125.1,67.7c0,0-0.4-6-5.6-5.6c-4.3,0.4-3.9,5.6-3.9,5.6"/>
	<path id="Trazado_109662" class="st13" d="M151.7,67.2c0,0-0.4-6-5.6-5.6c-4.3,0.4-3.9,5.6-3.9,5.6"/>
	<path id="Trazado_109663" class="st14" d="M119,85.5h14.7l15.3,0.3c0,0-3.6-6.5-15.2-5.9S121.1,83.3,119,85.5z"/>
</g>
<g id="Grupo_70451" transform="translate(0.482)">
	<path id="Trazado_109664" class="st14" d="M130.6,74.3c0,0,12,15.3,29.1,12.6l-4-5.5c0,0,10.4,4.9,27.9,0.3c0,0,1.2-19-28.5-23.3
		c0,0,14.1,1.2,23.9,7.1c0,0-28.8-30.1-52.5,0c0,0-13.5,0.3-14.1,15.3s3.1,20.6,3.1,20.6s3.1-2.5,4,2.8s0,13.2,3.4,20.6l5.5-4
		c0,0-7.1-16.6-5.5-30.4C122.9,90.3,131.8,88.4,130.6,74.3z"/>
	<path id="Trazado_109665" class="st14" d="M179.4,78.9c0,0,4,33.7-5.5,47.2l-3.7-4.6c6.3-12.6,7.2-27.2,2.5-40.5L179.4,78.9z"/>
</g>
</svg>
