<?xml version="1.0" encoding="utf-8"?>
<!-- Generator: Adobe Illustrator 25.2.3, SVG Export Plug-In . SVG Version: 6.00 Build 0)  -->
<!DOCTYPE svg PUBLIC "-//W3C//DTD SVG 1.1//EN" "http://www.w3.org/Graphics/SVG/1.1/DTD/svg11.dtd" [
	<!ENTITY ns_extend "http://ns.adobe.com/Extensibility/1.0/">
	<!ENTITY ns_ai "http://ns.adobe.com/AdobeIllustrator/10.0/">
	<!ENTITY ns_graphs "http://ns.adobe.com/Graphs/1.0/">
	<!ENTITY ns_vars "http://ns.adobe.com/Variables/1.0/">
	<!ENTITY ns_imrep "http://ns.adobe.com/ImageReplacement/1.0/">
	<!ENTITY ns_sfw "http://ns.adobe.com/SaveForWeb/1.0/">
	<!ENTITY ns_custom "http://ns.adobe.com/GenericCustomNamespace/1.0/">
	<!ENTITY ns_adobe_xpath "http://ns.adobe.com/XPath/1.0/">
]>
<svg version="1.1" id="Capa_1" xmlns:x="&ns_extend;" xmlns:i="&ns_ai;" xmlns:graph="&ns_graphs;"
	 xmlns="http://www.w3.org/2000/svg" xmlns:xlink="http://www.w3.org/1999/xlink" x="0px" y="0px" viewBox="0 0 290.5 290.5"
	 style="enable-background:new 0 0 290.5 290.5;" xml:space="preserve">
<style type="text/css">
	.st0{fill:#7E5EE3;}
	.st1{fill:#FF9D00;}
	.st2{fill:#E4DDFA;}
	.st3{enable-background:new    ;}
	.st4{fill:#12263F;}
	.st5{fill:#DF8981;}
	.st6{fill:#FFAD9F;}
	.st7{fill:#5C97BD;}
	.st8{fill:#5C97BD;stroke:#000000;stroke-miterlimit:10;}
	.st9{fill:#DBB9A4;}
	.st10{fill:none;stroke:#7E5E6A;stroke-width:1.434;stroke-miterlimit:10;}
	.st11{fill:#9DC8DB;stroke:#7E5E6A;stroke-width:1.339;stroke-miterlimit:10;}
	.st12{fill:none;stroke:#DF8981;stroke-width:1.661;stroke-miterlimit:10;}
	.st13{fill:#FFFFFF;}
	.st14{fill:none;stroke:#352835;stroke-width:2.701;stroke-miterlimit:10;}
	.st15{fill:none;stroke:#352835;stroke-width:1.195;stroke-miterlimit:10;}
	.st16{fill:#FFDEC1;}
	.st17{fill:none;stroke:#FFDEC1;stroke-width:2;stroke-miterlimit:10;}
	.st18{fill:none;stroke:#FFDEC1;stroke-width:2.9;stroke-miterlimit:10;}
</style>
<metadata>
	<sfw  xmlns="&ns_sfw;">
		<slices></slices>
		<sliceSourceBounds  bottomLeftOrigin="true" height="290.5" width="290.5" x="-0.2" y="-0.2"></sliceSourceBounds>
	</sfw>
</metadata>
<rect id="Rectángulo_32172" x="-0.2" y="151.1" class="st0" width="2.7" height="14.5"/>
<rect id="Rectángulo_32173" x="-0.2" y="181.5" class="st0" width="2.7" height="15.9"/>
<rect id="Rectángulo_32174" x="-0.2" y="213.4" class="st0" width="2.7" height="15.9"/>
<path id="Trazado_109666" class="st0" d="M252.8,288v2.7h16l-0.1-2.7H252.8z"/>
<path id="Trazado_109667" class="st0" d="M287.5,269.2c0,4.9-1.9,9.7-5.4,13.2l1.9,1.9c4-4,6.2-9.4,6.1-15.1v-0.3h-2.7V269.2z"/>
<rect id="Rectángulo_32175" x="189" y="288" class="st0" width="15.9" height="2.7"/>
<rect id="Rectángulo_32176" x="287.5" y="151.1" class="st0" width="2.7" height="6.2"/>
<rect id="Rectángulo_32177" x="287.5" y="173.2" class="st0" width="2.7" height="16"/>
<rect id="Rectángulo_32178" x="287.5" y="237" class="st0" width="2.7" height="16"/>
<rect id="Rectángulo_32179" x="157.1" y="288" class="st0" width="15.9" height="2.7"/>
<rect id="Rectángulo_32180" x="287.5" y="205.1" class="st0" width="2.7" height="16"/>
<rect id="Rectángulo_32181" x="220.9" y="288" class="st0" width="15.9" height="2.7"/>
<rect id="Rectángulo_32182" x="-0.2" y="245.3" class="st0" width="2.7" height="15.9"/>
<path id="Trazado_109668" class="st0" d="M3.9,276.5l-2.5,1c2.2,5.3,6.5,9.5,11.8,11.6l1-2.5C9.6,284.8,5.9,281.1,3.9,276.5z"/>
<rect id="Rectángulo_32183" x="29.5" y="288" class="st0" width="15.9" height="2.7"/>
<rect id="Rectángulo_32184" x="93.3" y="288" class="st0" width="15.9" height="2.7"/>
<rect id="Rectángulo_32185" x="125.2" y="288" class="st0" width="15.9" height="2.7"/>
<rect id="Rectángulo_32186" x="61.4" y="288" class="st0" width="15.9" height="2.7"/>
<path id="Trazado_109669" class="st1" d="M2.4,148.4V21.8C2.5,11.4,10.9,3,21.3,3h247.5c10.4,0,18.8,8.4,18.8,18.8v126.6h2.7V21.8
	c0-11.9-9.6-21.5-21.5-21.5H21.3C9.4,0.3-0.2,9.9-0.2,21.8v126.6H2.4z"/>
<path id="Rectángulo_32187" class="st2" d="M26,11.5h238c8.3,0,15,6.7,15,15v238c0,8.3-6.7,15-15,15H26c-8.3,0-15-6.7-15-15v-238
	C11,18.3,17.7,11.5,26,11.5z"/>
<g class="st3">
	<path class="st4" d="M96.2,224.2c-0.4,0.4-0.9,0.8-1.6,1c-0.7,0.2-1.4,0.4-2.2,0.4c-0.9,0-1.6-0.2-2.3-0.6
		c-0.6-0.4-1.2-0.9-1.5-1.6s-0.5-1.6-0.5-2.5v-0.7c0-1,0.2-1.9,0.5-2.6c0.3-0.7,0.8-1.3,1.4-1.7c0.6-0.4,1.4-0.6,2.2-0.6
		c1.2,0,2.1,0.3,2.8,0.8c0.7,0.6,1.1,1.4,1.2,2.5h-2c-0.1-0.6-0.3-1-0.6-1.3s-0.7-0.4-1.3-0.4c-0.7,0-1.2,0.3-1.6,0.8
		s-0.5,1.3-0.6,2.3v0.6c0,1,0.2,1.8,0.6,2.4s1,0.8,1.7,0.8c0.8,0,1.3-0.2,1.6-0.5v-1.7h-1.9v-1.5h3.9V224.2z"/>
	<path class="st4" d="M101.1,225.6c-1.1,0-2-0.3-2.6-1s-1-1.6-1-2.7v-0.2c0-0.7,0.1-1.4,0.4-2c0.3-0.6,0.7-1,1.2-1.4
		c0.5-0.3,1.1-0.5,1.8-0.5c1,0,1.8,0.3,2.4,1s0.9,1.5,0.9,2.7v0.8h-4.7c0.1,0.5,0.3,0.9,0.6,1.2s0.7,0.4,1.2,0.4
		c0.8,0,1.4-0.3,1.8-0.8l1,1.1c-0.3,0.4-0.7,0.7-1.2,1C102.3,225.5,101.7,225.6,101.1,225.6z M100.9,219.5c-0.4,0-0.7,0.1-1,0.4
		s-0.4,0.6-0.5,1.1h2.7v-0.2c0-0.4-0.1-0.8-0.4-1S101.3,219.5,100.9,219.5z"/>
	<path class="st4" d="M109.4,219.9c-0.3,0-0.5-0.1-0.7-0.1c-0.7,0-1.2,0.3-1.5,0.8v4.8h-2v-7.4h1.9l0.1,0.9c0.4-0.7,0.9-1,1.6-1
		c0.2,0,0.4,0,0.6,0.1L109.4,219.9z"/>
	<path class="st4" d="M113.8,225.6c-1.1,0-2-0.3-2.6-1s-1-1.6-1-2.7v-0.2c0-0.7,0.1-1.4,0.4-2c0.3-0.6,0.7-1,1.2-1.4
		c0.5-0.3,1.1-0.5,1.8-0.5c1,0,1.8,0.3,2.4,1s0.9,1.5,0.9,2.7v0.8h-4.7c0.1,0.5,0.3,0.9,0.6,1.2s0.7,0.4,1.2,0.4
		c0.8,0,1.4-0.3,1.8-0.8l1,1.1c-0.3,0.4-0.7,0.7-1.2,1C115,225.5,114.4,225.6,113.8,225.6z M113.6,219.5c-0.4,0-0.7,0.1-1,0.4
		s-0.4,0.6-0.5,1.1h2.7v-0.2c0-0.4-0.1-0.8-0.4-1S114,219.5,113.6,219.5z"/>
	<path class="st4" d="M119.8,218.1l0.1,0.9c0.5-0.7,1.2-1,2.1-1c0.8,0,1.4,0.2,1.8,0.7s0.6,1.1,0.6,2.1v4.8h-2v-4.7
		c0-0.4-0.1-0.7-0.3-0.9c-0.2-0.2-0.5-0.3-0.9-0.3c-0.6,0-1,0.2-1.3,0.7v5.2h-2v-7.4H119.8z"/>
	<path class="st4" d="M128.2,216.3v1.8h1.3v1.4h-1.3v3.7c0,0.3,0.1,0.5,0.2,0.6s0.3,0.2,0.6,0.2c0.2,0,0.4,0,0.6,0v1.5
		c-0.4,0.1-0.8,0.2-1.2,0.2c-1.4,0-2.1-0.7-2.1-2.1v-4h-1.1v-1.4h1.1v-1.8H128.2z"/>
	<path class="st4" d="M133.9,225.6c-1.1,0-2-0.3-2.6-1s-1-1.6-1-2.7v-0.2c0-0.7,0.1-1.4,0.4-2c0.3-0.6,0.7-1,1.2-1.4
		c0.5-0.3,1.1-0.5,1.8-0.5c1,0,1.8,0.3,2.4,1s0.9,1.5,0.9,2.7v0.8h-4.7c0.1,0.5,0.3,0.9,0.6,1.2s0.7,0.4,1.2,0.4
		c0.8,0,1.4-0.3,1.8-0.8l1,1.1c-0.3,0.4-0.7,0.7-1.2,1C135.1,225.5,134.5,225.6,133.9,225.6z M133.7,219.5c-0.4,0-0.7,0.1-1,0.4
		s-0.4,0.6-0.5,1.1h2.7v-0.2c0-0.4-0.1-0.8-0.4-1S134.1,219.5,133.7,219.5z"/>
	<path class="st4" d="M141.3,221.7c0-1.2,0.3-2.1,0.8-2.8s1.2-1,2.1-1c0.7,0,1.3,0.3,1.8,0.8V215h2v10.5h-1.8l-0.1-0.8
		c-0.5,0.6-1.1,0.9-1.9,0.9c-0.9,0-1.6-0.3-2.1-1C141.5,223.9,141.3,222.9,141.3,221.7z M143.2,221.9c0,0.7,0.1,1.2,0.4,1.6
		c0.2,0.4,0.6,0.6,1.1,0.6c0.6,0,1-0.3,1.3-0.8v-2.9c-0.2-0.5-0.7-0.8-1.3-0.8C143.7,219.5,143.2,220.3,143.2,221.9z"/>
	<path class="st4" d="M152.9,225.6c-1.1,0-2-0.3-2.6-1s-1-1.6-1-2.7v-0.2c0-0.7,0.1-1.4,0.4-2c0.3-0.6,0.7-1,1.2-1.4
		c0.5-0.3,1.1-0.5,1.8-0.5c1,0,1.8,0.3,2.4,1s0.9,1.5,0.9,2.7v0.8h-4.7c0.1,0.5,0.3,0.9,0.6,1.2s0.7,0.4,1.2,0.4
		c0.8,0,1.4-0.3,1.8-0.8l1,1.1c-0.3,0.4-0.7,0.7-1.2,1C154,225.5,153.5,225.6,152.9,225.6z M152.6,219.5c-0.4,0-0.7,0.1-1,0.4
		s-0.4,0.6-0.5,1.1h2.7v-0.2c0-0.4-0.1-0.8-0.4-1S153.1,219.5,152.6,219.5z"/>
	<path class="st4" d="M163.3,223.1l1.4-5h2.1l-2.5,7.4h-1.9l-2.5-7.4h2.1L163.3,223.1z"/>
	<path class="st4" d="M171,225.6c-1.1,0-2-0.3-2.6-1c-0.7-0.7-1-1.6-1-2.7v-0.2c0-0.7,0.1-1.4,0.4-2c0.3-0.6,0.7-1,1.2-1.4
		c0.5-0.3,1.1-0.5,1.8-0.5c1,0,1.8,0.3,2.4,1s0.9,1.5,0.9,2.7v0.8h-4.7c0.1,0.5,0.3,0.9,0.6,1.2s0.7,0.4,1.2,0.4
		c0.8,0,1.4-0.3,1.8-0.8l1,1.1c-0.3,0.4-0.7,0.7-1.2,1C172.2,225.5,171.6,225.6,171,225.6z M170.8,219.5c-0.4,0-0.7,0.1-1,0.4
		c-0.2,0.3-0.4,0.6-0.5,1.1h2.7v-0.2c0-0.4-0.1-0.8-0.4-1C171.5,219.6,171.2,219.5,170.8,219.5z"/>
	<path class="st4" d="M177,218.1l0.1,0.9c0.5-0.7,1.2-1,2.1-1c0.8,0,1.4,0.2,1.8,0.7s0.6,1.1,0.6,2.1v4.8h-2v-4.7
		c0-0.4-0.1-0.7-0.3-0.9c-0.2-0.2-0.5-0.3-0.9-0.3c-0.6,0-1,0.2-1.3,0.7v5.2h-2v-7.4H177z"/>
	<path class="st4" d="M185.4,216.3v1.8h1.3v1.4h-1.3v3.7c0,0.3,0.1,0.5,0.2,0.6c0.1,0.1,0.3,0.2,0.6,0.2c0.2,0,0.4,0,0.6,0v1.5
		c-0.4,0.1-0.8,0.2-1.2,0.2c-1.4,0-2.1-0.7-2.1-2.1v-4h-1.1v-1.4h1.1v-1.8H185.4z"/>
	<path class="st4" d="M192,225.5c-0.1-0.2-0.2-0.4-0.2-0.7c-0.5,0.5-1.1,0.8-1.9,0.8c-0.7,0-1.3-0.2-1.8-0.6
		c-0.5-0.4-0.7-0.9-0.7-1.6c0-0.8,0.3-1.4,0.9-1.8s1.4-0.6,2.5-0.6h0.9v-0.4c0-0.3-0.1-0.6-0.3-0.8c-0.2-0.2-0.5-0.3-0.8-0.3
		c-0.3,0-0.6,0.1-0.8,0.2c-0.2,0.2-0.3,0.4-0.3,0.7h-2c0-0.4,0.1-0.8,0.4-1.2c0.3-0.4,0.6-0.7,1.1-0.9c0.5-0.2,1-0.3,1.6-0.3
		c0.9,0,1.6,0.2,2.2,0.7c0.5,0.5,0.8,1.1,0.8,1.9v3.2c0,0.7,0.1,1.2,0.3,1.6v0.1H192z M190.4,224.1c0.3,0,0.6-0.1,0.8-0.2
		c0.2-0.1,0.4-0.3,0.5-0.5v-1.3H191c-1,0-1.5,0.3-1.6,1l0,0.1c0,0.2,0.1,0.4,0.3,0.6C189.8,224,190.1,224.1,190.4,224.1z"/>
	<path class="st4" d="M199.2,223.4c0-0.2-0.1-0.4-0.4-0.6c-0.2-0.1-0.6-0.3-1.2-0.4c-1.8-0.4-2.6-1.1-2.6-2.2c0-0.7,0.3-1.2,0.8-1.6
		c0.5-0.4,1.3-0.7,2.1-0.7c0.9,0,1.7,0.2,2.3,0.7c0.6,0.4,0.8,1,0.8,1.7h-2c0-0.3-0.1-0.5-0.3-0.7c-0.2-0.2-0.5-0.3-0.9-0.3
		c-0.3,0-0.6,0.1-0.8,0.2c-0.2,0.2-0.3,0.3-0.3,0.6c0,0.2,0.1,0.4,0.3,0.5c0.2,0.1,0.6,0.2,1,0.3c0.5,0.1,0.9,0.2,1.2,0.3
		c1,0.4,1.6,1,1.6,2c0,0.7-0.3,1.2-0.9,1.6c-0.6,0.4-1.3,0.6-2.2,0.6c-0.6,0-1.2-0.1-1.7-0.3c-0.5-0.2-0.9-0.5-1.1-0.9
		c-0.3-0.4-0.4-0.8-0.4-1.2h1.9c0,0.4,0.1,0.6,0.4,0.8c0.2,0.2,0.6,0.3,1,0.3c0.4,0,0.7-0.1,0.9-0.2
		C199.1,223.8,199.2,223.7,199.2,223.4z"/>
</g>
<g class="st3">
	<path class="st4" d="M90.2,240.4c0-1,0.1-2,0.4-3c0.3-0.9,0.7-1.8,1.2-2.5c0.5-0.7,1.1-1.2,1.8-1.5l0.4,1.1
		c-0.7,0.5-1.2,1.3-1.6,2.3c-0.4,1-0.6,2.2-0.6,3.6v0.2c0,1.4,0.2,2.6,0.6,3.6s0.9,1.8,1.6,2.3l-0.4,1c-0.6-0.3-1.2-0.8-1.7-1.5
		c-0.5-0.7-0.9-1.5-1.2-2.4c-0.3-0.9-0.4-1.9-0.5-2.9V240.4z"/>
	<path class="st4" d="M94.7,240.7c0-1.2,0.3-2.1,0.8-2.8c0.5-0.7,1.2-1,2.1-1c0.7,0,1.3,0.3,1.8,0.8V234h2v10.5h-1.8l-0.1-0.8
		c-0.5,0.6-1.1,0.9-1.9,0.9c-0.9,0-1.6-0.3-2.1-1C95,242.9,94.7,241.9,94.7,240.7z M96.7,240.9c0,0.7,0.1,1.2,0.4,1.6
		c0.2,0.4,0.6,0.6,1.1,0.6c0.6,0,1-0.3,1.3-0.8v-2.9c-0.2-0.5-0.7-0.8-1.3-0.8C97.2,238.5,96.7,239.3,96.7,240.9z"/>
	<path class="st4" d="M106.3,244.6c-1.1,0-2-0.3-2.6-1c-0.7-0.7-1-1.6-1-2.7v-0.2c0-0.7,0.1-1.4,0.4-2c0.3-0.6,0.7-1,1.2-1.4
		c0.5-0.3,1.1-0.5,1.8-0.5c1,0,1.8,0.3,2.4,1s0.9,1.5,0.9,2.7v0.8h-4.7c0.1,0.5,0.3,0.9,0.6,1.2s0.7,0.4,1.2,0.4
		c0.8,0,1.4-0.3,1.8-0.8l1,1.1c-0.3,0.4-0.7,0.7-1.2,1C107.5,244.5,106.9,244.6,106.3,244.6z M106.1,238.5c-0.4,0-0.7,0.1-1,0.4
		c-0.2,0.3-0.4,0.6-0.5,1.1h2.7v-0.2c0-0.4-0.1-0.8-0.4-1C106.8,238.6,106.5,238.5,106.1,238.5z"/>
	<path class="st4" d="M118,242.4c0-0.2-0.1-0.4-0.4-0.6c-0.2-0.1-0.6-0.3-1.2-0.4c-1.8-0.4-2.6-1.1-2.6-2.2c0-0.7,0.3-1.2,0.8-1.6
		c0.5-0.4,1.3-0.7,2.1-0.7c0.9,0,1.7,0.2,2.3,0.7c0.6,0.4,0.8,1,0.8,1.7h-2c0-0.3-0.1-0.5-0.3-0.7c-0.2-0.2-0.5-0.3-0.9-0.3
		c-0.3,0-0.6,0.1-0.8,0.2c-0.2,0.2-0.3,0.3-0.3,0.6c0,0.2,0.1,0.4,0.3,0.5c0.2,0.1,0.6,0.2,1,0.3c0.5,0.1,0.9,0.2,1.2,0.3
		c1,0.4,1.6,1,1.6,2c0,0.7-0.3,1.2-0.9,1.6c-0.6,0.4-1.3,0.6-2.2,0.6c-0.6,0-1.2-0.1-1.7-0.3c-0.5-0.2-0.9-0.5-1.1-0.9
		c-0.3-0.4-0.4-0.8-0.4-1.2h1.9c0,0.4,0.1,0.6,0.4,0.8c0.2,0.2,0.6,0.3,1,0.3c0.4,0,0.7-0.1,0.9-0.2
		C117.9,242.8,118,242.7,118,242.4z"/>
	<path class="st4" d="M124.6,244.6c-1.1,0-2-0.3-2.6-1c-0.7-0.7-1-1.6-1-2.7v-0.2c0-0.7,0.1-1.4,0.4-2c0.3-0.6,0.7-1,1.2-1.4
		c0.5-0.3,1.1-0.5,1.8-0.5c1,0,1.8,0.3,2.4,1s0.9,1.5,0.9,2.7v0.8h-4.7c0.1,0.5,0.3,0.9,0.6,1.2s0.7,0.4,1.2,0.4
		c0.8,0,1.4-0.3,1.8-0.8l1,1.1c-0.3,0.4-0.7,0.7-1.2,1C125.7,244.5,125.2,244.6,124.6,244.6z M124.3,238.5c-0.4,0-0.7,0.1-1,0.4
		c-0.2,0.3-0.4,0.6-0.5,1.1h2.7v-0.2c0-0.4-0.1-0.8-0.4-1C125.1,238.6,124.8,238.5,124.3,238.5z"/>
	<path class="st4" d="M132.9,238.9c-0.3,0-0.5-0.1-0.7-0.1c-0.7,0-1.2,0.3-1.5,0.8v4.8h-2v-7.4h1.9l0.1,0.9c0.4-0.7,0.9-1,1.6-1
		c0.2,0,0.4,0,0.6,0.1L132.9,238.9z"/>
	<path class="st4" d="M139.1,237.1l0.1,0.9c0.5-0.7,1.2-1,2.1-1c0.8,0,1.4,0.2,1.8,0.7s0.6,1.1,0.6,2.1v4.8h-2v-4.7
		c0-0.4-0.1-0.7-0.3-0.9c-0.2-0.2-0.5-0.3-0.9-0.3c-0.6,0-1,0.2-1.3,0.7v5.2h-2v-7.4H139.1z"/>
	<path class="st4" d="M148.6,244.6c-1.1,0-2-0.3-2.6-1c-0.7-0.7-1-1.6-1-2.7v-0.2c0-0.7,0.1-1.4,0.4-2c0.3-0.6,0.7-1,1.2-1.4
		c0.5-0.3,1.1-0.5,1.8-0.5c1,0,1.8,0.3,2.4,1s0.9,1.5,0.9,2.7v0.8h-4.7c0.1,0.5,0.3,0.9,0.6,1.2s0.7,0.4,1.2,0.4
		c0.8,0,1.4-0.3,1.8-0.8l1,1.1c-0.3,0.4-0.7,0.7-1.2,1C149.7,244.5,149.2,244.6,148.6,244.6z M148.3,238.5c-0.4,0-0.7,0.1-1,0.4
		c-0.2,0.3-0.4,0.6-0.5,1.1h2.7v-0.2c0-0.4-0.1-0.8-0.4-1C149.1,238.6,148.8,238.5,148.3,238.5z"/>
	<path class="st4" d="M155.8,243c0.4,0,0.7-0.1,0.9-0.3c0.2-0.2,0.3-0.5,0.4-0.8h1.9c0,0.5-0.1,1-0.4,1.4c-0.3,0.4-0.6,0.7-1.1,1
		c-0.5,0.2-1,0.3-1.5,0.3c-1.1,0-1.9-0.3-2.5-1c-0.6-0.7-0.9-1.6-0.9-2.8v-0.1c0-1.1,0.3-2,0.9-2.7c0.6-0.7,1.4-1,2.5-1
		c0.9,0,1.7,0.3,2.2,0.8c0.6,0.5,0.8,1.2,0.9,2.1h-1.9c0-0.4-0.1-0.7-0.4-0.9c-0.2-0.2-0.5-0.4-0.9-0.4c-0.5,0-0.8,0.2-1,0.5
		c-0.2,0.3-0.4,0.9-0.4,1.6v0.2c0,0.8,0.1,1.3,0.3,1.6S155.3,243,155.8,243z"/>
	<path class="st4" d="M163.4,244.6c-1.1,0-2-0.3-2.6-1c-0.7-0.7-1-1.6-1-2.7v-0.2c0-0.7,0.1-1.4,0.4-2c0.3-0.6,0.7-1,1.2-1.4
		c0.5-0.3,1.1-0.5,1.8-0.5c1,0,1.8,0.3,2.4,1s0.9,1.5,0.9,2.7v0.8h-4.7c0.1,0.5,0.3,0.9,0.6,1.2s0.7,0.4,1.2,0.4
		c0.8,0,1.4-0.3,1.8-0.8l1,1.1c-0.3,0.4-0.7,0.7-1.2,1C164.6,244.5,164.1,244.6,163.4,244.6z M163.2,238.5c-0.4,0-0.7,0.1-1,0.4
		c-0.2,0.3-0.4,0.6-0.5,1.1h2.7v-0.2c0-0.4-0.1-0.8-0.4-1C164,238.6,163.6,238.5,163.2,238.5z"/>
	<path class="st4" d="M171.6,242.4c0-0.2-0.1-0.4-0.4-0.6c-0.2-0.1-0.6-0.3-1.2-0.4c-1.8-0.4-2.6-1.1-2.6-2.2c0-0.7,0.3-1.2,0.8-1.6
		c0.5-0.4,1.3-0.7,2.1-0.7c0.9,0,1.7,0.2,2.3,0.7c0.6,0.4,0.8,1,0.8,1.7h-2c0-0.3-0.1-0.5-0.3-0.7c-0.2-0.2-0.5-0.3-0.9-0.3
		c-0.3,0-0.6,0.1-0.8,0.2c-0.2,0.2-0.3,0.3-0.3,0.6c0,0.2,0.1,0.4,0.3,0.5c0.2,0.1,0.6,0.2,1,0.3c0.5,0.1,0.9,0.2,1.2,0.3
		c1,0.4,1.6,1,1.6,2c0,0.7-0.3,1.2-0.9,1.6c-0.6,0.4-1.3,0.6-2.2,0.6c-0.6,0-1.2-0.1-1.7-0.3c-0.5-0.2-0.9-0.5-1.1-0.9
		c-0.3-0.4-0.4-0.8-0.4-1.2h1.9c0,0.4,0.1,0.6,0.4,0.8c0.2,0.2,0.6,0.3,1,0.3c0.4,0,0.7-0.1,0.9-0.2
		C171.5,242.8,171.6,242.7,171.6,242.4z"/>
	<path class="st4" d="M179.1,244.5c-0.1-0.2-0.2-0.4-0.2-0.7c-0.5,0.5-1.1,0.8-1.9,0.8c-0.7,0-1.3-0.2-1.8-0.6
		c-0.5-0.4-0.7-0.9-0.7-1.6c0-0.8,0.3-1.4,0.9-1.8s1.4-0.6,2.5-0.6h0.9v-0.4c0-0.3-0.1-0.6-0.3-0.8c-0.2-0.2-0.5-0.3-0.8-0.3
		c-0.3,0-0.6,0.1-0.8,0.2c-0.2,0.2-0.3,0.4-0.3,0.7h-2c0-0.4,0.1-0.8,0.4-1.2c0.3-0.4,0.6-0.7,1.1-0.9c0.5-0.2,1-0.3,1.6-0.3
		c0.9,0,1.6,0.2,2.2,0.7c0.5,0.5,0.8,1.1,0.8,1.9v3.2c0,0.7,0.1,1.2,0.3,1.6v0.1H179.1z M177.5,243.1c0.3,0,0.6-0.1,0.8-0.2
		c0.2-0.1,0.4-0.3,0.5-0.5v-1.3h-0.7c-1,0-1.5,0.3-1.6,1l0,0.1c0,0.2,0.1,0.4,0.3,0.6C176.9,243,177.2,243.1,177.5,243.1z"/>
	<path class="st4" d="M186.5,238.9c-0.3,0-0.5-0.1-0.7-0.1c-0.7,0-1.2,0.3-1.5,0.8v4.8h-2v-7.4h1.9l0.1,0.9c0.4-0.7,0.9-1,1.6-1
		c0.2,0,0.4,0,0.6,0.1L186.5,238.9z"/>
	<path class="st4" d="M187.4,235.2c0-0.3,0.1-0.5,0.3-0.7s0.5-0.3,0.8-0.3c0.3,0,0.6,0.1,0.8,0.3c0.2,0.2,0.3,0.4,0.3,0.7
		c0,0.3-0.1,0.5-0.3,0.7c-0.2,0.2-0.5,0.3-0.8,0.3c-0.3,0-0.6-0.1-0.8-0.3C187.5,235.7,187.4,235.5,187.4,235.2z M189.5,244.5h-2
		v-7.4h2V244.5z"/>
	<path class="st4" d="M190.8,240.7c0-0.7,0.1-1.4,0.4-2c0.3-0.6,0.7-1,1.2-1.3c0.5-0.3,1.1-0.5,1.8-0.5c1,0,1.8,0.3,2.4,0.9
		c0.6,0.6,1,1.4,1.1,2.5l0,0.5c0,1.1-0.3,2-1,2.7c-0.6,0.7-1.5,1-2.5,1s-1.9-0.3-2.6-1S190.8,242,190.8,240.7L190.8,240.7z
		 M192.8,240.8c0,0.7,0.1,1.2,0.4,1.6c0.3,0.4,0.6,0.6,1.1,0.6c0.5,0,0.9-0.2,1.1-0.6c0.3-0.4,0.4-1,0.4-1.8c0-0.7-0.1-1.2-0.4-1.6
		c-0.3-0.4-0.6-0.6-1.1-0.6c-0.5,0-0.9,0.2-1.1,0.6C192.9,239.5,192.8,240.1,192.8,240.8z"/>
	<path class="st4" d="M202.4,240.6c0,1-0.1,2-0.4,3c-0.3,1-0.7,1.8-1.3,2.5c-0.6,0.7-1.2,1.2-1.8,1.5l-0.4-1
		c0.6-0.5,1.2-1.2,1.5-2.3c0.4-1,0.6-2.2,0.6-3.5v-0.4c0-1.4-0.2-2.6-0.6-3.6c-0.4-1-0.9-1.8-1.6-2.3l0.4-1c0.6,0.3,1.2,0.8,1.8,1.5
		c0.5,0.7,1,1.5,1.3,2.5c0.3,0.9,0.5,1.9,0.5,2.9V240.6z"/>
</g>
<path id="Trazado_109671" class="st5" d="M134.3,142.1c9.3-1.4,18.7-2.8,28-4.3c-0.8-5-0.9-10.1-0.5-15.2l-11.7,0.8v-0.8l-1.3,0.4
	l-1.3-0.4v0.8l-11.7-0.8C135.9,122.6,137.1,134.6,134.3,142.1z"/>
<path class="st0" d="M145,24.6c-47.3,0-85.7,38.4-85.7,85.7c0,24.2,10.1,46.1,26.2,61.7c1-1.8,2.2-3.4,3.5-4.9
	c0.8-0.9,1.5-1.8,2.4-2.6c5.2-5.2,11.6-8.7,17.7-11.1c0.5-0.2,0.9-0.4,1.4-0.5c5.7-2.1,11-3.4,14.9-4.5c0.2,0.2,0.4,0.4,0.7,0.7
	c1.9-0.5,3.4-1,4.3-1.5c7.8-4.3,5.7-24.8,5.7-24.8l11.7,0.8v-0.8l1.3,0.4l1.3-0.4v0.8l11.7-0.8c0,0-2.1,20.6,5.7,24.8
	c0.9,0.5,2.4,1,4.3,1.5c0.2-0.2,0.5-0.4,0.7-0.6c4.3,1.2,10.6,2.7,17.1,5.4c1,0.4,2,0.9,3,1.3c5.9,2.8,11.8,6.6,16.4,12.3
	c13.5-15.2,21.7-35.1,21.7-57C230.7,62.9,192.3,24.6,145,24.6z"/>
<path class="st6" d="M139.6,156.4c2.5,0.6,5,1,7.7,1.1c0.5,0,1,0,1.5,0c1.6,0,3.3-0.1,4.8-0.3c2.9-0.4,5.7-1.1,8.3-2.1
	c1-0.4,2-0.8,2.9-1.3c2.6-1.3,4.9-3,6.9-4.9c-1.9-0.5-3.4-1-4.3-1.5c-7.8-4.3-5.7-24.8-5.7-24.8l-11.7,0.8v-0.8l-1.3,0.4l-1.3-0.4
	v0.8l-11.7-0.8c0,0,2.1,20.6-5.7,24.8c-0.9,0.5-2.4,1-4.3,1.5c2.5,2.4,5.7,4.5,9.2,5.9C136.6,155.5,138.1,156,139.6,156.4z"/>
<path class="st7" d="M87.7,170.3l-0.3,0.1l1.6-3.3c-1.3,1.5-2.4,3.1-3.5,4.9c0.2,0.2,0.5,0.5,0.7,0.7
	C86.7,171.8,87.2,171,87.7,170.3z"/>
<path class="st7" d="M189.6,153.7c-6.5-2.7-12.8-4.2-17.1-5.4c-0.2,0.2-0.4,0.4-0.7,0.6c4.3,1.2,10.8,2.7,17.4,5.5L189.6,153.7z"/>
<path class="st7" d="M125.9,149c-0.2-0.2-0.5-0.4-0.7-0.7c-3.8,1.1-9.2,2.4-14.9,4.5l0.5,0.7C116.6,151.3,122.1,150.1,125.9,149z"/>
<path class="st7" d="M108.4,154.5l0.5-1.1c-6.1,2.4-12.5,5.9-17.7,11.1l0.5,0.8C96.7,160.3,102.6,156.9,108.4,154.5z"/>
<path class="st7" d="M192.6,155l0.9,1.4c5.4,2.7,10.7,6.4,14.8,11.6c0.2-0.2,0.4-0.5,0.6-0.7C204.4,161.7,198.5,157.8,192.6,155z"/>
<path class="st7" d="M113.3,157.3l-6.9,1.5l2-4.2c-5.8,2.4-11.7,5.8-16.6,10.8l2.4,3.6l-6.5,1.4c-0.5,0.8-1,1.6-1.5,2.4
	c2.5,2.4,5.2,4.6,8,6.7l2-4.3l3.6,5.4l-3.1,0.6c5.8,4,12.1,7.2,18.8,9.7l2-4.2l3.6,5.4l-1,0.2c7.9,2.4,16.2,3.7,24.9,3.7
	c8.2,0,16.1-1.2,23.6-3.3l2.9-6l2.8,4.2c13.2-4.8,24.9-12.7,34.1-22.9c-4.2-5.2-9.4-8.9-14.8-11.6l0.6,0.8l-6.9,1.5l2-4.3
	c-6.7-2.8-13.1-4.3-17.4-5.5c-2,1.9-4.3,3.5-6.9,4.9l2.3,3.4l-6.9,1.5l1.7-3.6c-2.6,1-5.4,1.7-8.3,2.1l0,0l-6.9,1.5l0.6-1.2
	c-2.7-0.1-5.3-0.5-7.7-1.1l0.6,0.9l-6.9,1.5l1.8-3.8c-3.6-1.5-6.7-3.5-9.2-5.9c-3.8,1.1-9.3,2.4-15.1,4.6L113.3,157.3z M104.1,163.4
	l3.6,5.4l-6.9,1.5L104.1,163.4z M106.4,182l3.3-6.9l3.6,5.4L106.4,182z M198.3,163.4l3.6,5.4l-6.9,1.5L198.3,163.4z M173.7,182
	l3.3-6.9l3.6,5.4L173.7,182z M194.1,180.5l-6.9,1.5l3.3-6.9L194.1,180.5z M184.9,163.4l3.6,5.4l-6.9,1.5L184.9,163.4z M177,151.8
	l3.6,5.4l-6.9,1.5L177,151.8z M171.4,163.4l3.6,5.4l-6.9,1.5L171.4,163.4z M167.2,180.5l-6.9,1.5l3.3-6.9L167.2,180.5z M157.9,163.4
	l3.6,5.4l-6.9,1.5L157.9,163.4z M157.9,186.7l3.6,5.4l-6.9,1.5L157.9,186.7z M119.9,182l3.3-6.9l3.6,5.4L119.9,182z M153.7,180.5
	l-6.9,1.5l3.3-6.9L153.7,180.5z M144.5,163.4l3.6,5.4l-6.9,1.5L144.5,163.4z M144.5,186.7l3.6,5.4l-6.9,1.5L144.5,186.7z
	 M140.2,180.5l-6.9,1.5l3.3-6.9L140.2,180.5z M131,163.4l3.6,5.4l-6.9,1.5L131,163.4z M131,186.7l3.6,5.4l-6.9,1.5L131,186.7z
	 M123.1,151.8l3.6,5.4l-6.9,1.5L123.1,151.8z M117.5,163.4l3.6,5.4l-6.9,1.5L117.5,163.4z"/>
<path class="st7" d="M193.5,156.4l-0.9-1.4c-1-0.5-2-0.9-3-1.3l-0.4,0.8C190.7,155.1,192.1,155.7,193.5,156.4z"/>
<path class="st8" d="M187.2,158.7l6.9-1.5l-0.6-0.8c-1.4-0.7-2.9-1.4-4.3-2L187.2,158.7z"/>
<polygon class="st8" points="177,151.8 173.7,158.7 180.6,157.3 "/>
<path class="st8" d="M160.3,158.7l6.9-1.5l-2.3-3.4c-0.9,0.5-1.9,0.9-2.9,1.3L160.3,158.7z"/>
<path class="st8" d="M147.4,157.5l-0.6,1.2l6.9-1.5l0,0c-1.6,0.2-3.2,0.3-4.8,0.3C148.3,157.6,147.9,157.5,147.4,157.5z"/>
<path class="st8" d="M133.3,158.7l6.9-1.5l-0.6-0.9c-1.6-0.4-3.1-0.9-4.5-1.5L133.3,158.7z"/>
<polygon class="st8" points="123.1,151.8 119.9,158.7 126.8,157.3 "/>
<path class="st7" d="M110.8,153.5l-0.5-0.7c-0.5,0.2-0.9,0.4-1.4,0.5l-0.5,1.1C109.2,154.2,110,153.8,110.8,153.5z"/>
<path class="st8" d="M113.3,157.3l-2.5-3.7c-0.8,0.3-1.6,0.6-2.4,1l-2,4.2L113.3,157.3z"/>
<polygon class="st8" points="198.3,163.4 195.1,170.3 202,168.9 "/>
<polygon class="st8" points="184.9,163.4 181.6,170.3 188.5,168.9 "/>
<polygon class="st8" points="171.4,163.4 168.1,170.3 175,168.9 "/>
<polygon class="st8" points="157.9,163.4 154.7,170.3 161.6,168.9 "/>
<polygon class="st8" points="144.5,163.4 141.2,170.3 148.1,168.9 "/>
<polygon class="st8" points="131,163.4 127.7,170.3 134.6,168.9 "/>
<polygon class="st8" points="117.5,163.4 114.3,170.3 121.2,168.9 "/>
<polygon class="st8" points="104.1,163.4 100.8,170.3 107.7,168.9 "/>
<path class="st7" d="M87.7,170.3c1.3-1.8,2.6-3.5,4.1-5l-0.5-0.8c-0.8,0.8-1.6,1.7-2.4,2.6l-1.6,3.3L87.7,170.3z"/>
<path class="st8" d="M91.8,165.3c-1.5,1.5-2.9,3.2-4.1,5l6.5-1.4L91.8,165.3z"/>
<polygon class="st8" points="194.1,180.5 190.5,175.1 187.2,182 "/>
<polygon class="st8" points="173.7,182 180.6,180.5 177,175.1 "/>
<polygon class="st8" points="167.2,180.5 163.5,175.1 160.3,182 "/>
<polygon class="st8" points="153.7,180.5 150.1,175.1 146.8,182 "/>
<polygon class="st8" points="140.2,180.5 136.6,175.1 133.3,182 "/>
<polygon class="st8" points="119.9,182 126.8,180.5 123.1,175.1 "/>
<polygon class="st8" points="106.4,182 113.3,180.5 109.7,175.1 "/>
<path class="st8" d="M96.2,175.1l-2,4.3c0.8,0.6,1.7,1.2,2.6,1.8l3.1-0.6L96.2,175.1z"/>
<path class="st8" d="M168.5,192.7c1.9-0.5,3.8-1.1,5.7-1.8l-2.8-4.2L168.5,192.7z"/>
<polygon class="st8" points="157.9,186.7 154.7,193.6 161.6,192.1 "/>
<polygon class="st8" points="144.5,186.7 141.2,193.6 148.1,192.1 "/>
<polygon class="st8" points="131,186.7 127.7,193.6 134.6,192.1 "/>
<path class="st8" d="M117.5,186.7l-2,4.2c1.5,0.5,3,1,4.6,1.5l1-0.2L117.5,186.7z"/>
<path id="Trazado_109724" class="st9" d="M137.6,119.8c0,0-11.8-2.9-22.1,1.4s-8.9-24.9-8.1-25.9s19.8-12.6,19.8-12.6L137.6,119.8z"
	/>
<path id="Trazado_109725" class="st9" d="M158,119.4c0,0,11.9-2.2,22,2.7s10.3-24.3,9.6-25.4s-19-13.7-19-13.7L158,119.4z"/>
<path id="Trazado_109726" class="st5" d="M126,92.5c-2.3-7.1-7.7-5.5-8.3-5.3c-0.5,0.1-6.2,0.9-5.2,8.3c1,7.5,5.3,11.5,9.4,10.3
	C126.1,105.2,128.3,99.7,126,92.5z"/>
<path id="Trazado_109727" class="st5" d="M171.9,92.5c2.3-7.1,7.7-5.5,8.3-5.3c0.5,0.1,6.2,0.9,5.2,8.3c-1,7.5-5.3,11.5-9.4,10.3
	C171.8,105.2,169.6,99.7,171.9,92.5z"/>
<path id="Trazado_109728" class="st6" d="M120.4,81.7c2.9-31.3,26.6-29.5,28.9-29.3c2.2-0.2,26-2,28.9,29.3
	c2.9,31.5-11.1,52-28.9,50.9C131.6,133.7,117.6,113.1,120.4,81.7z"/>
<g id="Grupo_70471" transform="translate(0 0.579)">
	<path id="Trazado_109729" class="st10" d="M117.1,88.5l8,6.2l19.4,1c0,0,5.7-6.3,11.8-0.3l17.8,0.3l7.6-6.2"/>
	<circle id="Elipse_4108" class="st11" cx="134.9" cy="94.8" r="9.7"/>
	<circle id="Elipse_4109" class="st11" cx="164.8" cy="94.8" r="9.7"/>
</g>
<g id="Grupo_70472" transform="translate(10.106)">
	<path id="Trazado_109730" class="st12" d="M143.3,97.2l1.9,9.3l-3.6,3.7"/>
	<path id="Trazado_109731" class="st13" d="M151.3,115.8c-5.7,5.5-15.3,5.2-22.5,0.3"/>
	<path id="Trazado_109732" class="st14" d="M161.6,86.6c0,0-7.5-9.1-14.9-0.6"/>
	<path id="Trazado_109733" class="st14" d="M132,86.6c0,0-7.5-9.1-14.9-0.6"/>
	<path id="Trazado_109734" class="st15" d="M131.1,97.9c0,0-0.4-6-5.6-5.6c-4.3,0.4-3.9,5.6-3.9,5.6"/>
	<path id="Trazado_109735" class="st15" d="M157.7,97.5c0,0-0.4-6-5.6-5.6c-4.3,0.4-3.9,5.6-3.9,5.6"/>
</g>
<path id="Trazado_109736" class="st16" d="M121.6,48.7c0,0,8.9-11.4,26.7-4c10.1-6.4,17.8-3.4,25.2,2.1l-23.6,12L121.6,48.7z"/>
<g id="Grupo_70474" transform="translate(0 1.723)">
	<path id="Trazado_109737" class="st17" d="M89.2,113c-2.7-9.1-3.4-21.5,13.1-29.2s7-29.9,23-38.3"/>
	<path id="Trazado_109738" class="st18" d="M150.3,61c0,0-10.5-5.7-14.1,4.1s0.6,18.1-14.4,27.8c-10.2,6.6,5,22.4-0.2,30.2"/>
	<path id="Trazado_109739" class="st16" d="M123.8,45.1c-15.3,9.5-4.3,31-20.2,39.9s-14.4,21.2-11,30.1c1.2,3.2,4.5,4.9,8.3,5.8
		c-1.2-4.6-2.1-11.2-0.4-17.5c0,0-1.2,10.7,2.4,17.9c1.9,0.3,3.8,0.5,5.8,0.5c-0.6-2.2-0.8-4.5-0.5-6.7c0.5,2.3,1.2,4.6,2.1,6.8
		c2,0,4-0.1,6-0.3c6.1-7.4-8.9-24.2,2.5-30.1c16.8-8.6,12.9-17.2,17.5-26.7s13.1-3.1,13.1-3.1C150.7,43.6,139.1,35.6,123.8,45.1z"/>
</g>
<g id="Grupo_70475" transform="translate(59.197 1.723)">
	<path id="Trazado_109740" class="st17" d="M148.8,113c2.7-9.1,3.4-21.5-13.1-29.2s-7-29.9-23-38.3"/>
	<path id="Trazado_109741" class="st18" d="M87.7,61c0,0,10.5-5.7,14.1,4.1s-0.6,18.1,14.4,27.8c10.2,6.6-5,22.4,0.2,30.2"/>
	<path id="Trazado_109742" class="st16" d="M134.5,85c-16-8.9-4.9-30.4-20.2-39.9S88.5,43.6,90,61.7c0,0,7.4-6.4,12,3.1
		s0.7,18.1,17.5,26.7c11.4,5.8-3.7,22.7,2.5,30.1c3.4,0.4,6.8,0.4,10.2,0.1c1.4-3.6,2.3-7.4,2.6-11.2c0.5,3.7,0.2,7.4-0.7,11
		c1.4-0.2,2.8-0.5,4.1-0.8c0.5-1.5,0.9-3,1.2-4.6c0.1,1.4,0,2.9-0.1,4.3c2.9-1,5.3-2.6,6.3-5.2C148.9,106.1,150.4,93.9,134.5,85z"/>
</g>
</svg>
