<svg xmlns="http://www.w3.org/2000/svg" width="216.215" height="190" viewBox="0 0 216.215 190"><g transform="translate(-259 -2950)"><rect width="210" height="190" transform="translate(262 2950)" fill="none"/><g transform="translate(259 2969)"><path d="M-272.661,394.643l139.727-80.555-76.488-44.16-139.727,80.555Z" transform="translate(349.149 -242.559)" fill="#92b4d1" opacity="0.191"/><g transform="translate(12.295 0)"><path d="M-278.564,366.9l126.6-73.093-64.568-37.278-126.6,73.093Z" transform="translate(343.132 -256.534)" fill="#f6f6f6"/><g transform="translate(22.244 46.513)"><path d="M-289.921,337.748l59.065-33.919L-273.181,279.3l-59.065,33.919Z" transform="translate(332.246 -279.297)" fill="#6abff4"/></g><g transform="translate(10.334 6.879)"><path d="M-332.446,330.127l116.43-67.221-5.629-3.006-116.429,67.221Z" transform="translate(338.075 -259.9)" fill="#71a0ff"/></g><g transform="translate(88.775 13.713)"><path d="M-294.057,294.53l49.446-28.279-5.629-3.006-49.445,28.28Z" transform="translate(299.685 -263.245)" fill="#71a0ff"/></g><g transform="translate(100.332 19.944)"><path d="M-288.4,297.58l49.446-28.279-5.629-3.006-49.445,28.279Z" transform="translate(294.029 -266.294)" fill="#71a0ff"/></g><g transform="translate(64.568 37.278)"><path d="M-184.931,308.09V274.778l-126.6,73.093v33.312Z" transform="translate(311.532 -274.778)" fill="#c0d5ff"/></g><g transform="translate(0 73.093)"><path d="M-343.132,325.618V292.305l64.568,37.278V362.9Z" transform="translate(343.132 -292.305)" fill="#b3c8f2"/></g><g transform="translate(7.818 86.105)"><path d="M-339.306,314.437V298.674l48.932,28.251v15.763Z" transform="translate(339.306 -298.674)" fill="#b3c8f2"/></g><g transform="translate(79.774 59.408)"><g transform="translate(2.867 0.153)"><path d="M-297.985,297.457c1.177-3.48,2.891-11.774,2.891-11.774l6.381,2.38c3.024,1.02,3.774,6.882,1.677,13.091s-6.248,10.417-10.11,9.111l-5.541-2.1S-299.16,300.938-297.985,297.457Z" transform="translate(302.687 -285.683)" fill="#c0d5ff"/></g><path d="M-291.952,298.852c-2.1,6.21-6.248,10.417-9.271,9.4s-3.776-6.884-1.68-13.093,6.248-10.415,9.272-9.393S-289.856,292.643-291.952,298.852Z" transform="translate(304.09 -285.608)" fill="#fff"/></g><g transform="translate(48.368 67.819)"><g transform="translate(0 4.343)"><path d="M-307,294.445c3.641.5,12.109.613,12.109.613l-1.132,6.716c-.431,3.163-6.046,5.008-12.54,4.121s-11.408-4.166-10.858-8.206l1.013-5.84S-310.639,293.948-307,294.445Z" transform="translate(319.461 -291.85)" fill="#c0d5ff"/></g><g transform="translate(1.029)"><path d="M-307.954,301.4c-6.494-.885-11.408-4.166-10.977-7.329s6.046-5.006,12.54-4.121,11.408,4.168,10.977,7.329S-301.46,302.284-307.954,301.4Z" transform="translate(318.957 -289.725)" fill="#fff"/></g></g></g></g></g></svg>