<svg xmlns="http://www.w3.org/2000/svg" width="85" height="85" viewBox="0 0 85 85"><g transform="translate(-1124.919 -1072)"><circle cx="42.5" cy="42.5" r="42.5" transform="translate(1124.919 1072)" fill="#00bcd4"/><g transform="translate(153.722 346.581)"><path d="M1048.45,773.137a1.835,1.835,0,0,1-1.822.95c-3.767-.032-7.534-.008-11.3-.022a1.025,1.025,0,0,0-.936.457,10.785,10.785,0,0,1-6.622,4.415,4.9,4.9,0,0,1-1.526.108,1.9,1.9,0,0,0-1.725.725q-6.214,6.27-12.472,12.494c-.976.976-1.635.974-2.609,0l-24.684-24.679c-1.1-1.1-1.1-1.609.018-2.728q6.951-6.95,13.905-13.9c.343-.342.728-.642,1.093-.961h.8c.354.3.73.575,1.059.9,1.238,1.22,2.451,2.465,3.7,3.673a.87.87,0,0,0,.724.2c1.727-.586,3.458-1.169,5.15-1.848a11.177,11.177,0,0,1,9.2.234c1.878.866,3.718,1.815,5.556,2.764,1.324.683,2.6,1.456,3.929,2.134a5.9,5.9,0,0,0,2.807.635c.241-1.368.555-1.654,1.768-1.663.4,0,.8,0,1.2,0h2.162c0-.308,0-.506,0-.7.015-1.391.413-1.789,1.794-1.79,2.34,0,4.68.025,7.02-.014a1.755,1.755,0,0,1,1.808.96Zm-40.633-16.118a2.805,2.805,0,0,0,.195.253c1.512,1.514,3.019,3.032,4.545,4.533a1.765,1.765,0,0,0,.687.374c2.265.729,4.536,1.443,6.8,2.164.785.249,1.577.479,2.345.771a1.291,1.291,0,0,1,.769,1.645,1.332,1.332,0,0,1-1.538.878,5.423,5.423,0,0,1-.639-.188q-5.632-1.78-11.263-3.559a2.586,2.586,0,0,0-3.136,1.1,2.492,2.492,0,0,0,.485,3.224,5.366,5.366,0,0,0,1.762,1.029c3.273,1.152,6.572,2.229,9.845,3.382a3.383,3.383,0,0,1,1.311.937,7.682,7.682,0,0,0,7.76,2.616,8.046,8.046,0,0,0,4.887-3.809,1.093,1.093,0,0,0,.13-.571c.007-3.276,0-6.553.012-9.828,0-.418-.113-.584-.553-.615a11.276,11.276,0,0,1-4.555-1.4c-2.825-1.509-5.653-3.017-8.529-4.426a7.962,7.962,0,0,0-6.18-.393C1011.249,755.709,1009.573,756.373,1007.817,757.019Zm-15.584,4.3a8.584,8.584,0,0,1,.009,9.819l13.581,13.588a8.689,8.689,0,0,1,9.832,0l3.044-3.044a8.6,8.6,0,0,1-1.52-5.553c.08-1.166.09-1.165-1.033-1.546l-3.283-1.114c-.107.289-.182.5-.259.7a7.617,7.617,0,1,1-9.06-10.043,1.552,1.552,0,0,0,.784-.6,5.519,5.519,0,0,1,3.037-2.274c.184-.057.369-.11.668-.2-.858-.846-1.664-1.61-2.43-2.411a.612.612,0,0,0-.943-.119,7.827,7.827,0,0,1-6.079,1.1,29.111,29.111,0,0,1-3.445-1.226Zm53.5,10.078V757.249h-5.191v14.111a3.539,3.539,0,0,0,.354.037C1042.494,771.4,1044.092,771.4,1045.732,771.4Zm-42.166-4.417a4.884,4.884,0,0,0-2.891,5.744,4.944,4.944,0,0,0,5.189,3.721c2.238-.234,4.28-2.053,4.324-3.92C1007.2,771.667,1004.241,770.706,1003.566,766.981Zm31.926-7.236v11.609h2.3V759.745Zm-27.6,26.929,2.814,2.814,2.851-2.848A5.463,5.463,0,0,0,1007.893,786.673Zm-17.652-17.478a5.512,5.512,0,0,0-.013-5.89l-2.943,2.938Zm9.863-15.9q-1.34,1.352-2.673,2.7c-.075.076-.139.163-.208.244,1.319,1.2,4.706,1.176,5.857.031Zm20.426,26.41,1.421-1.44-2.25-1.2Z" transform="translate(-4.051)" fill="#fff"/><path d="M1059.168,780.3a1.3,1.3,0,0,1-1.312,1.312,1.321,1.321,0,1,1,.015-2.641A1.3,1.3,0,0,1,1059.168,780.3Z" transform="translate(-35.215 -12.44)" fill="#fff"/></g></g></svg>