<svg xmlns="http://www.w3.org/2000/svg" width="104.655" height="104.676" viewBox="0 0 104.655 104.676"><g transform="translate(-1872 -387)"><path d="M1882.652,470.99a53.688,53.688,0,0,1-7.409-13.557,51.382,51.382,0,0,1-2.845-11.971,2.79,2.79,0,0,0-.4-1.621v-1.227a1.563,1.563,0,0,0,0-1.227v-3.271a1.563,1.563,0,0,0,0-1.227v-1.84c.247-1.605.24-3.234.528-4.841a52.145,52.145,0,0,1,11.362-24.468,52.387,52.387,0,0,1,33.34-18.494c1-.121,2.024-.06,3.024-.246h1.636a2.092,2.092,0,0,0,1.431,0h1.431c.337.214.71.056,1.063.105.463-.05.94.108,1.39-.105h1.227a28.318,28.318,0,0,0,4.469.719,52,52,0,0,1,23.162,10.037c.323.247.665.469,1,.7-.093.516-.533.452-.88.5a10.888,10.888,0,0,1-1.427.028h-50.219c-1.942,0-1.936,0-1.945,1.982-.005,1.122.038,2.245-.026,3.367-.068,1.389.275,2.8-.24,4.166a2.216,2.216,0,0,1-1.467.288c-2.172.011-4.345,0-6.518.007a2.654,2.654,0,0,0-1.3.166c-.383.3-.3.727-.309,1.127-.028,2.27.041,4.54.028,6.811a2.1,2.1,0,0,1-.3,1.459,2.559,2.559,0,0,1-1.488.251c-2.078.009-4.157,0-6.235.005-1.517,0-1.565.046-1.568,1.531-.007,3.339,0,6.678,0,10.017q0,19.573-.016,39.147C1883.153,469.888,1883.446,470.622,1882.652,470.99Z" transform="translate(0 0)" fill="#32a9cd"/><path d="M2136.14,387c-.427.409-.953.116-1.426.2-.07-.042-.094-.086-.073-.131s.044-.068.067-.068Z" transform="translate(-208.935 0)" fill="#60bdd8"/><path d="M2117.431,387a1.18,1.18,0,0,1-1.431,0Z" transform="translate(-194.111 0)" fill="#5fbcd8"/><path d="M1872,653a.9.9,0,0,1,0,1.227Z" transform="translate(0 -211.612)" fill="#9cd5e7"/><path d="M1872,631a.92.92,0,0,1,0,1.227Z" transform="translate(0 -194.111)" fill="#5fbcd8"/><path d="M2131.022,387q0,.1.006.2c-.348-.04-.739.14-1.028-.2Z" transform="translate(-205.248 0)" fill="#43b1d2"/><path d="M1924.1,591.354c.295-.361.143-.787.143-1.178q.014-25.078.011-50.156c0-1.592-.193-1.381,1.432-1.388,2.724-.013,5.448-.006,8.172-.008a3.133,3.133,0,0,1,1.981-.307q22.384-.01,44.767,0c3.1,0,6.2-.01,9.3,0,1.542.007,1.772.23,1.77,1.792-.01,7.393.059,14.786-.039,22.176a4.826,4.826,0,0,1-.253,1.6q-2.566,9.092-5.156,18.177a12.263,12.263,0,0,0,.277,8.772,1.905,1.905,0,0,1,.144.592,7.55,7.55,0,0,1-.386,1.755c-.065.374-.146.78.337.916.465.131.664-.21.778-.587a12.237,12.237,0,0,1,.5-1.527,1.969,1.969,0,0,1,.5-.562c.762-.624,1.509-1.263,2.218-1.949.286-.277.692-.736.988.043a20.467,20.467,0,0,1,.083,3.157c.012,3.739,0,7.479.008,11.219a6.1,6.1,0,0,1-.119,1.417,50.264,50.264,0,0,1-11.023,4.7,71.593,71.593,0,0,1-8.624,1.809,1.214,1.214,0,0,0-1,.012,2.329,2.329,0,0,0-1.05.186,12.349,12.349,0,0,0-3.238.016h-1.66a12.366,12.366,0,0,0-3.239-.017c-1.8-.262-3.615-.473-5.407-.8a52.659,52.659,0,0,1-28.449-15.356A32.291,32.291,0,0,1,1924.1,591.354Z" transform="translate(-41.445 -120.364)" fill="#e8e3d7"/><path d="M2020.032,448.963c-.01-1.634,0-3.27-.04-4.9-.013-.561.144-.838.743-.773a7.609,7.609,0,0,0,.817,0q26.009,0,52.018-.011c.407,0,.89.222,1.224-.231a2.41,2.41,0,0,0,1.293.2c3.305,0,6.61.028,9.914-.02.87-.013,1.082.269,1.074,1.1-.04,3.917-.016,7.835-.02,11.753a3.061,3.061,0,0,0,.181,1.3q.385,26.546,0,53.093a45.356,45.356,0,0,1-5.7,7.8c-.467-.055-.454-.444-.5-.762a8.874,8.874,0,0,1-.037-1.324q0-17.9,0-35.808c0-.816.061-1.631.048-2.445a4.9,4.9,0,0,1,.482-1.965c1.292-3.259,2.648-6.493,3.881-9.774a4.373,4.373,0,0,0-1.332-5.331,2.406,2.406,0,0,1-.577-.57.568.568,0,0,1-.09-.386,2.084,2.084,0,0,0-.915-2.355,10.346,10.346,0,0,1,.7-3.169c.462-1.8.387-1.983-1.364-2.617-.277-.122-.565-.229-.689-.545-.366-1.93-.366-1.93-2.433-1.93q-28.355,0-56.71-.008C2021.331,449.292,2020.619,449.466,2020.032,448.963Z" transform="translate(-117.732 -44.589)" fill="#e8e3d7"/><path d="M2348.047,566.26c-.322-.268-.179-.635-.179-.955q-.011-25.591,0-51.182c0-.32-.143-.687.18-.955a57.516,57.516,0,0,1,5.021,11.671,52.879,52.879,0,0,1,1.83,20.473,52.09,52.09,0,0,1-6.645,20.487A4.872,4.872,0,0,0,2348.047,566.26Z" transform="translate(-378.544 -100.37)" fill="#32a9cd"/><path d="M2276.582,677.871a44.108,44.108,0,0,1-5.928,4.7c-.465-.517-.325-1.157-.323-1.752.015-7.505-.063-15.011.039-22.515a5.854,5.854,0,0,1,.269-1.574c.154-.452.241-.925.4-1.377a11,11,0,0,0,.469-1.581c.112-.384.2-.776.318-1.157.111-.345.219-.69.313-1.039,1.118-4.156,2.329-8.285,3.526-12.417.109-.375.063-1.007.789-.882a1.7,1.7,0,0,1,.228,1.079c.061,12.4.026,24.8.039,37.2A5.147,5.147,0,0,1,2276.582,677.871Z" transform="translate(-316.87 -199.885)" fill="#e8e3d7"/><path d="M2298.87,621.04c-.348-.339-.192-.772-.193-1.161q-.012-18.663-.014-37.326c0-.391.146-.821-.173-1.172-.289-.31-.128-.644-.032-.958,1.261-4.126,2.275-8.322,3.523-12.451.131-.433.132-.968.7-1.149.44.3.354.768.377,1.194.044.808-.052,1.619.034,2.427a9.508,9.508,0,0,1-.834,2.283,39.76,39.76,0,0,0-2.981,11.692,3.907,3.907,0,0,0-.112,1.439c.007.067.007.135.016.2.051.4.042.928.57.925.557,0,.654-.547.656-.983a29.906,29.906,0,0,1,.647-5.23,26.326,26.326,0,0,1,1.09-4.011c.106-.3.162-.682.6-.73q.01,19.727.028,39.454c0,.422-.174.891.2,1.264A30.538,30.538,0,0,1,2298.87,621.04Z" transform="translate(-339.157 -143.055)" fill="#d2cdc1"/><path d="M2256.485,734.811q0,12.273.007,24.546a36.286,36.286,0,0,1-3.674,2.264c-.361-.331-.2-.766-.206-1.153q-.021-7.53-.018-15.06c-.188-.284-.032-.533.112-.752a16.79,16.79,0,0,0,1.9-4.587,11.239,11.239,0,0,0,.446-1.566c.112-.426.291-.833.372-1.268.08-.335.187-.662.291-.99a12.82,12.82,0,0,1,.5-1.4A.231.231,0,0,1,2256.485,734.811Z" transform="translate(-302.708 -276.674)" fill="#d2cdc1"/><path d="M2132.058,898.049a5.982,5.982,0,0,1,3.239-.016Z" transform="translate(-206.886 -406.374)" fill="#c8dcdb"/><path d="M2108.1,898.033a5.986,5.986,0,0,1,3.239.017Z" transform="translate(-187.826 -406.374)" fill="#c8dcdb"/><path d="M2153.031,897.108a.7.7,0,0,1,1-.012Z" transform="translate(-223.57 -405.635)" fill="#dcddd4"/><path d="M1972.526,490.741l9.588-.078a2.585,2.585,0,0,1,1.769-.321q20.232-.009,40.464,0,6.591,0,13.181,0c2.06,0,2.211.158,2.183,2.2a5.539,5.539,0,0,1-.058.915c-2.328,3.736-2.653,8.146-4.073,12.19-.484,1.378-.785,2.818-1.234,4.21-.111.344-.042.981-.762.788a2.672,2.672,0,0,1-.259-1.587c-.008-3.541,0-7.081-.005-10.622,0-1.672-.026-1.7-1.719-1.7q-28.343,0-56.686,0c-2.5,0-2.514,0-2.487-2.437A19.547,19.547,0,0,1,1972.526,490.741Z" transform="translate(-79.868 -82.203)" fill="#e8e3d7"/><path d="M1972.07,492.339c0,1.533.046,3.068-.023,4.6-.039.873.269,1.076,1.1,1.073q15.024-.039,30.049-.017c9.607,0,19.215.012,28.822-.02.922,0,1.218.22,1.205,1.182-.054,4.019-.026,8.04-.017,12.06,0,.362-.119.754.155,1.082.276.436.062.859-.061,1.268-1.138,3.764-2.165,7.56-3.272,11.333-.127.432-.111.974-.68,1.156q-.019-9.4-.038-18.807c0-1.465-.018-2.931.008-4.4.01-.567-.182-.827-.765-.774-.27.025-.545,0-.817,0h-54.483c-.477,0-.954-.014-1.431-.021.021-2.891.034-5.783.071-8.674C1971.9,493.038,1971.714,492.636,1972.07,492.339Z" transform="translate(-79.412 -83.801)" fill="#d2cdc1"/><path d="M2077.2,479.146c0-.783-.021-1.566,0-2.348.014-.508-.151-.777-.7-.732-.271.022-.544,0-.817,0l-55.757-.01q.027-2.043.055-4.086l59.527.007c1.767,0,1.767,0,1.774,1.792,0,.2.006.408.01.612-1.434.03-1.925.974-2.165,2.194-.124.631-.357,1.236-.526,1.857-.1.359-.208.726-.617.875A.76.76,0,0,1,2077.2,479.146Z" transform="translate(-117.68 -67.598)" fill="#d2cdc1"/><path d="M2238.761,507.06l.81.051c.4-.031.787-.02.949.454a46.246,46.246,0,0,1-1.618,6.1c-2.878,10.034-5.7,20.085-8.572,30.12-.389,1.36-.378,1.369.956,1.762.913.269,1.834.513,2.743.8.473.147.939.338.644,1q-.125.5-.251,1.006c-.565.42-1.116.077-1.656-.057-1.108-.274-2.184-.679-3.456-.918.227.69.727.665,1.1.8a21.093,21.093,0,0,1,3.658,1.206,3.968,3.968,0,0,1-.439,1.63c-.369.339-.768.167-1.156.059-.951-.265-1.9-.549-2.849-.8-.311-.083-.62-.309-1-.077.109.467.527.469.855.576.971.317,1.98.506,2.945.837.34.116.852.1.846.677q-.122.689-.245,1.377c-.053.01-.106.021-.159.034-.582.356-1.119.006-1.663-.12-1.1-.256-2.164-.7-3.358-.863.048.55.41.545.668.617,1.046.291,2.074.642,3.125.918.43.113,1,.194.811.907q-.13.49-.258.98c-.259.51-.692.341-1.07.239-.982-.267-1.968-.517-2.945-.8a1.627,1.627,0,0,0-1.025-.137c.054.472.44.483.726.573.938.3,1.888.553,2.834.823a1.951,1.951,0,0,1,1.077.532,4.165,4.165,0,0,1-.425,1.625c-.417.331-.852.125-1.265.012-.95-.259-1.9-.514-2.832-.843-.711-.251-1.039-.017-1.23.713a11.118,11.118,0,0,0,.11,6.619c.135.391.437.8.132,1.255l-.43.43c-.875.8-1.21.7-1.573-.43a13.927,13.927,0,0,1-1.243-5.7,24.927,24.927,0,0,1,1.15-5.338q2.459-8.659,4.921-17.317a4.132,4.132,0,0,0,.081-.6q1.411-4.789,2.821-9.579c.407-1.39.8-2.785,1.192-4.178q2.174-7.6,4.339-15.2A2.356,2.356,0,0,1,2238.761,507.06Z" transform="translate(-279.244 -95.512)" fill="#8d4d84"/><path d="M1991.85,773.041c7.8,0,15.6.012,23.4-.017.835,0,1.278.1,1.144,1.084-.124.9.366,2.1-.179,2.662-.6.615-1.8.193-2.743.194-15.02.014-30.041,0-45.061.037-1.066,0-1.3-.3-1.273-1.306.071-2.652.023-2.653,2.642-2.653Z" transform="translate(-75.683 -307.096)" fill="#434751"/><path d="M1991.438,650.306c-7.834,0-15.668-.012-23.5.018-.818,0-1.2-.162-1.081-1.047.124-.933-.418-2.187.23-2.728.552-.461,1.756-.165,2.672-.166q22.582-.007,45.164-.023c.911,0,1.3.2,1.169,1.161-.125.9.389,2.106-.22,2.627-.52.445-1.685.155-2.565.156Q2002.372,650.312,1991.438,650.306Z" transform="translate(-75.385 -206.275)" fill="#434751"/><path d="M1991.581,692.285c-7.834,0-15.669-.012-23.5.018-.816,0-1.178-.155-1.087-1.044.094-.907-.275-2.111.184-2.665.54-.651,1.787-.21,2.722-.211q22.583-.024,45.167-.031c.9,0,1.3.186,1.168,1.153-.126.9.387,2.108-.217,2.627-.517.444-1.686.149-2.566.15Q2002.514,692.289,1991.581,692.285Z" transform="translate(-75.527 -239.645)" fill="#434751"/><path d="M1991.575,730.533c7.834,0,15.669.016,23.5-.022.873,0,1.129.241,1.037,1.077-.1.906.369,2.106-.171,2.661-.592.609-1.8.19-2.743.191q-22.584.02-45.168.032c-.958,0-1.263-.268-1.155-1.19.1-.871-.356-2,.177-2.563s1.676-.177,2.548-.178Q1980.589,730.52,1991.575,730.533Z" transform="translate(-75.41 -273.198)" fill="#434751"/><path d="M1981.316,585.567c-4.5,0-8.991-.015-13.486.016-.738,0-1.07-.16-.987-.956.1-.941-.378-2.144.182-2.771.579-.648,1.8-.206,2.735-.208,8.344-.021,16.688,0,25.031-.032.873,0,1.256.177,1.142,1.113a9.428,9.428,0,0,0,0,1.938c.063.728-.216.919-.923.915C1990.443,585.553,1985.88,585.567,1981.316,585.567Z" transform="translate(-75.375 -154.733)" fill="#434751"/><path d="M2118.752,829.937a7.314,7.314,0,0,0,3.229-1.446c.309-.211.623-.416.934-.624.452-.3.933-.527,1.372-.033a1.1,1.1,0,0,1-.03,1.566c-.146.175-.4.271-.417.62a3.4,3.4,0,0,0,2.127-.315c1.066-.447,2.123-.916,3.18-1.384.588-.26,1.216-.7,1.746-.007a1.332,1.332,0,0,1-.285,1.908,2.5,2.5,0,0,0-.224.321,4.083,4.083,0,0,0,2.754-.22c1.139-.339,2.252-.765,3.373-1.166a1,1,0,0,1,.817,1.814c-1.962.752-3.877,1.7-6.033,1.776a2.8,2.8,0,0,1-2.876-1.343c-.228-.425-.48-.255-.751-.125a10.188,10.188,0,0,1-2.8.916,2.874,2.874,0,0,1-2.644-.722.66.66,0,0,0-.95-.118,5.261,5.261,0,0,1-2.826.73c-1.824-.1-2.523-1.434-1.524-2.952.43-.654.9-1.282,1.362-1.913a.985.985,0,0,1,1.506-.281c.6.432.513.974.108,1.507C2119.553,828.9,2119.2,829.353,2118.752,829.937Z" transform="translate(-194.483 -349.802)" fill="#42577f"/><path d="M2235.005,763.636a13.846,13.846,0,0,1-1.012-4.934,23.413,23.413,0,0,1,.664-3.684c.094-.481.391-.5.835-.388a46.752,46.752,0,0,0,4.6,1.249,10.542,10.542,0,0,1-5.084,7.756Z" transform="translate(-287.975 -292.418)" fill="#a25894"/><path d="M2226.844,798.9a.931.931,0,0,0,1.573.43c-.154.585-.3,1.172-.466,1.753s-.533.89-1.133.7c-.543-.175-.673-.6-.494-1.137C2226.515,800.066,2226.673,799.48,2226.844,798.9Z" transform="translate(-281.818 -327.68)" fill="#df9235"/><path d="M2260.753,548.374c.078-.648-.451-.677-.849-.795-1.17-.344-2.342-.687-3.527-.976-.574-.14-.666-.388-.511-.931q3.21-11.194,6.389-22.4,2.1-7.384,4.214-14.767c.351-.288.712-.066,1.07-.026.865.366,1.89.316,2.632,1.005,1.273.639,1.31.741.985,2.693.153.649-.2,1.208-.317,1.81-.5,1.818-1.021,3.629-1.547,5.439-.1.35-.153.737-.538.926l-4.1,14.518q-1.866,6.627-3.737,13.253A.96.96,0,0,1,2260.753,548.374Z" transform="translate(-305.326 -96.55)" fill="#a25894"/><path d="M2306.636,528.686q.268-.825.538-1.65c2.394,1.544,3.085,3.568,2.051,6.224-1.246,3.2-2.546,6.377-3.81,9.57-.2.5-.328,1.032-.489,1.549a30.142,30.142,0,0,0-2.018,9.095c-.043.474-.016.957-.094,1.423-.083.492-.321.947-.914.911-.532-.033-.7-.477-.789-.931a4.472,4.472,0,0,1-.036-.61c.222-.469-.031-.991.159-1.464a37.777,37.777,0,0,1,3.281-12.555c.191-.461.407-.912.612-1.368a3.206,3.206,0,0,1,.329-1.467c.626-1.536,1.2-3.092,1.859-4.615a2.977,2.977,0,0,0-.4-3.571A1.764,1.764,0,0,1,2306.636,528.686Z" transform="translate(-341.345 -111.404)" fill="#df9132"/><path d="M2315.33,490.509a15.836,15.836,0,0,1-2.671-.793,1.722,1.722,0,0,1,.1-1.279c.312-1.07.579-2.154.941-3.209.16-.467.361-.92,1.009-.632,1.786.4,2.071.881,1.568,2.612C2315.957,488.307,2315.645,489.409,2315.33,490.509Z" transform="translate(-350.485 -77.569)" fill="#ef9f37"/><path d="M2307.886,483.49c-.569-.076-.658.362-.771.745-.432,1.457-.852,2.917-1.277,4.376l-1.031-.187-.817-.362a33.1,33.1,0,0,0,1.163-3.65c.46-1.261.835-1.487,2.122-1.163C2307.488,483.305,2307.73,483.287,2307.886,483.49Z" transform="translate(-343.664 -76.463)" fill="#dfb66e"/><path d="M2257.155,705.058a44.772,44.772,0,0,1-4.781-1.246c-.433-.1-.355-.42-.27-.727.117-.423.409-.35.72-.261,1.3.37,2.591.739,3.891,1.094a5.833,5.833,0,0,0,.795.108C2257.38,704.366,2257.415,704.763,2257.155,705.058Z" transform="translate(-302.333 -251.195)" fill="#a25894"/><path d="M2253.476,718.2c-1.2-.752-2.631-.777-3.916-1.263a5.38,5.38,0,0,0-.582-.17c-.4-.1-.672-.214-.515-.76s.52-.345.787-.274c1.173.31,2.337.658,3.5,1.007a2.693,2.693,0,0,0,1.088.193Z" transform="translate(-299.455 -261.441)" fill="#a25894"/><path d="M2321.021,535.108c1.34,1.093,1.707,2.174,1.127,3.671-.847,2.186-1.755,4.349-2.637,6.522-.384-.7-.084-1.462-.182-2.188-.066-.492.164-1.019-.173-1.48Z" transform="translate(-355.729 -117.825)" fill="#e8e3d7"/><path d="M2301.111,653.053a2.722,2.722,0,0,1-.16,1.463C2301,654.028,2300.772,653.51,2301.111,653.053Z" transform="translate(-341.221 -211.655)" fill="#d2cdc1"/><path d="M2246.134,743.795c-1.53-.416-3.059-.836-4.591-1.245a.575.575,0,0,1-.465-.763c.111-.49.439-.375.794-.272,1.3.377,2.6.716,3.9,1.1a.821.821,0,0,0,.766-.045Z" transform="translate(-293.595 -281.957)" fill="#a25894"/><path d="M2249.734,731.078c-.082-.51-.488-.563-.889-.671-1.169-.316-2.326-.673-3.493-.993-.447-.123-.72-.282-.559-.83.2-.691.615-.212.876-.149,1.5.365,2.989.784,4.481,1.185A3.483,3.483,0,0,1,2249.734,731.078Z" transform="translate(-296.533 -271.447)" fill="#a25894"/></g></svg>