<svg xmlns="http://www.w3.org/2000/svg" xmlns:xlink="http://www.w3.org/1999/xlink" width="109" height="109" viewBox="0 0 109 109"><defs><clipPath id="a"><circle cx="54.5" cy="54.5" r="54.5" transform="translate(0 0.222)" fill="none"/></clipPath></defs><g transform="translate(-778.238 -409.974)"><g transform="translate(778.238 409.752)"><g clip-path="url(#a)"><path d="M835.377,435.114c15.652-14.736,35.064-17.5,53.267-15.168L821.5,375.525,752.537,479.763C785.573,481.558,796.854,471.382,835.377,435.114Z" transform="translate(-776.947 -408.032)" fill="#54c7fe"/><path d="M846.45,549.867l71.525-108.115-29.466-19.494c-18.2-2.331-37.614.432-53.267,15.168-38.523,36.268-49.8,46.444-82.84,44.649l-2.565,3.877Z" transform="translate(-776.811 -410.343)" fill="#5477cd"/></g></g><g transform="translate(788.879 421.731)"><path d="M789.47,475.882c-.01-.355-.027-.71-.027-1.066q0-20.747,0-41.5c0-2.9,1.518-4.413,4.414-4.413h53.325c.421,0,.841-.009,1.26-.014a1.7,1.7,0,0,1,1.195-.275c3.124,0,6.247-.026,9.37.006a4.125,4.125,0,0,1,4.443,3.807c.077,1.29.046,2.581.025,3.872q.056,3.277,0,6.554.05,1.966,0,3.933c.047,4.246.038,8.492,0,12.738.029,1.318.028,2.637,0,3.956.043,3.614.017,7.229.018,10.842a2.554,2.554,0,0,1-.265,1.594,2.184,2.184,0,0,1-1.4.268q-35.491.007-70.981,0A1.841,1.841,0,0,1,789.47,475.882Z" transform="translate(-789.441 -422.678)" fill="#7fd5fa"/><path d="M866.323,432.078c-.723-2.62-1.858-3.482-4.583-3.484q-5.09-.006-10.18-.015c0-1.81.018-3.622-.014-5.433-.01-.563.1-.779.732-.777q17.512.03,35.023,0c.832,0,.747.422.746.954q-.009,13.679,0,27.359,0,24.109.025,48.218c0,.959-.256,1.141-1.167,1.138q-17.173-.05-34.344,0c-.785,0-1.027-.158-1.02-.988.04-4.721.012-9.443.008-14.164.4-.385.906-.293,1.38-.294,3.04-.01,6.08,0,9.121-.008,2.563-.007,3.954-1.4,3.965-3.952.006-1.294,0-2.588,0-3.882a1.814,1.814,0,0,1,.273-1.2q.023-6.224.047-12.449c.426-.006.578.365.821.605a3.639,3.639,0,1,0,0-4.995c-.243.24-.394.612-.822.6q0-6.421,0-12.841a2.079,2.079,0,0,1,1.57-.32c4.557-.009,9.114,0,13.671-.007,1.476,0,1.5-.029,1.5-1.532,0-1.723,0-1.726-1.694-1.726q-6.739,0-13.477-.006a2.079,2.079,0,0,1-1.57-.32v-6.57a2.079,2.079,0,0,1,1.57-.32c4.558-.009,9.116,0,13.674-.007,1.473,0,1.494-.029,1.5-1.535,0-1.72,0-1.723-1.7-1.723q-6.739,0-13.479-.006A2.131,2.131,0,0,1,866.323,432.078Z" transform="translate(-792.561 -422.365)" fill="#466088"/><path d="M863.168,478.351c.008,1.966.035,3.931.016,5.9a3.8,3.8,0,0,1-3.546,3.438c-3.738.009-7.477,0-11.214,0H836.032a1.831,1.831,0,0,1-1.288.31q-8.43.009-16.858,0a1.831,1.831,0,0,1-1.288-.31q-11.448,0-22.9,0a3.882,3.882,0,0,1-4.258-4.262c0-1.681.017-3.362.027-5.043l72.341-.01C862.264,478.371,862.716,478.359,863.168,478.351Z" transform="translate(-789.441 -425.178)" fill="#6e82b6"/><path d="M837.057,498.377c2.329,0,4.657.019,6.985-.009.576-.007.8.127.779.749-.048,1.195-.065,2.4,0,3.587.049.855-.165,1.139-1.089,1.133-7.049-.043-14.1-.024-21.147-.024-3.912,0-7.825-.027-11.737.021-.837.01-1.035-.247-.992-1.032.066-1.225.05-2.458,0-3.685-.024-.622.2-.756.779-.749,2.328.028,4.656.009,6.985.009a1.831,1.831,0,0,1,1.288-.31q8.43-.01,16.858,0A1.831,1.831,0,0,1,837.057,498.377Z" transform="translate(-790.467 -426.168)" fill="#6e82b6"/><ellipse cx="13.742" cy="6.856" rx="13.742" ry="6.856" transform="translate(23.131 60.505)" fill="#466088"/><path d="M867.1,432.591c5.335,0,10.67.027,16-.01.861-.007,1.169.227,1.07,1.085a7.8,7.8,0,0,0,0,1.743c.092.841-.182,1.1-1.061,1.1-4.946-.044-9.893-.022-14.84-.021-.388,0-.776.01-1.163.014Q867.11,434.544,867.1,432.591Z" transform="translate(-793.343 -422.878)" fill="#6e82b6"/><path d="M867.116,443.621c5.333,0,10.667.03,16-.007.871-.006,1.158.242,1.065,1.09a9.3,9.3,0,0,0,0,1.84c.069.757-.185,1-.967.99-4.945-.034-9.891-.018-14.836-.017-.42,0-.841.01-1.26.014Z" transform="translate(-793.344 -423.432)" fill="#6e82b6"/><path d="M867.117,461.152c1.742-2.108,3.776-2.588,5.643-1.306a3.86,3.86,0,0,1-1.137,6.915,3.754,3.754,0,0,1-4.018-1.229c-.173-.189-.326-.4-.487-.594Z" transform="translate(-793.344 -424.212)" fill="#feafa9"/><path d="M869.131,486.847c0-2.259.033-4.517-.019-6.775-.017-.746.22-.909.927-.9,2.2.028,2.2,0,2.2,2.223,0,4.13-.022,8.259.02,12.388.008.787-.237.961-.976.949-2.148-.035-2.148,0-2.148-2.175Z" transform="translate(-793.444 -425.219)" fill="#d2d2d2"/><path d="M869.13,472.277c0-.708.029-1.417-.01-2.123-.03-.558.1-.782.732-.791,2.383-.037,2.382-.063,2.382,2.316,0,.965-.029,1.932.009,2.895.036.936-.684.694-1.06.6-.685-.179-1.762.713-2.026-.581A11.86,11.86,0,0,1,869.13,472.277Z" transform="translate(-793.442 -424.726)" fill="#d2d2d2"/></g></g></svg>