<svg xmlns="http://www.w3.org/2000/svg" xmlns:xlink="http://www.w3.org/1999/xlink" width="102.022" height="105" viewBox="0 0 102.022 105"><defs><clipPath id="a"><ellipse cx="51" cy="52" rx="51" ry="52" transform="translate(0 -0.278)" fill="none"/></clipPath></defs><g transform="translate(-228.31 -409.752)"><g transform="translate(228.31 411.03)"><g clip-path="url(#a)"><path d="M280.272,433.391c14.674-13.815,32.873-16.405,49.938-14.22l-62.952-41.646-64.651,97.726C233.58,476.933,244.156,467.393,280.272,433.391Z" transform="translate(-225.493 -407.498)" fill="#54c7fe"/><path d="M290.485,543.848l67.055-101.36-27.625-18.276c-17.065-2.185-35.264.405-49.938,14.22-36.116,34-46.692,43.543-77.664,41.86l-2.405,3.635Z" transform="translate(-225.197 -412.539)" fill="#5477cd"/><g transform="translate(-7.123 68.857)"><path d="M259.388,490.285V509.8c-.018.839-.079,1.678-.039,2.516.026.538-.147.768-1.054.766q-18.442-.029-36.887,0c-.852,0-1.1-.161-1.1-.737q.039-11.555,0-23.109c0-.608.331-.712,1.132-.711q18.361.021,36.724,0c.9,0,1.293.149,1.182.784A4.292,4.292,0,0,0,259.388,490.285Z" transform="translate(-220.31 -488.518)" fill="#0092b9"/><path d="M256,509.753c-1.688,0-1.688,0-1.687-1.98,0-1.525,0-1.525,2.035-1.524,1.471,0,1.484,0,1.467,2.09C257.8,510.008,258.057,509.723,256,509.753Z" transform="translate(-224.036 -490.461)" fill="#7dcbe5"/></g></g></g><path d="M327.386,449.354a15.889,15.889,0,0,1,3.045.186,5.25,5.25,0,0,1-1.4,10.346,3.5,3.5,0,0,1-.547,0c-.849-.126-1.144.192-1.108,1.077a17.708,17.708,0,0,1-1.556,8.3c-3.02,6.483-7.994,10.541-15.173,11.405a42,42,0,0,1-13.288-.186c-7.191-1.444-11.978-5.823-14.525-12.679-.114-.306-.233-.612-.35-.917-.906-1.291-.8-2.822-.962-4.274a20.306,20.306,0,0,1-.015-2.823q-.076-5.181,0-10.359a35.345,35.345,0,0,1,.116-5.1c.288-.58.844-.48,1.338-.5a29.426,29.426,0,0,0,3.819-.145,10.111,10.111,0,0,0,8.479-7.673,2.187,2.187,0,0,1,.333-.914.5.5,0,0,1,.511-.008,1.945,1.945,0,0,1,.339.91,10.378,10.378,0,0,0,10.133,7.818c1.787.01,3.576-.027,5.362.013.856.02,1.179-.3,1.153-1.152a18.124,18.124,0,0,1,.048-2.841c.026-.209.076-.475.333-.508s.349.223.431.414c.229.536.37,1.105.586,1.648a12.109,12.109,0,0,0,11.214,7.69A2.511,2.511,0,0,1,327.386,449.354Z" transform="translate(-5.824 -2.769)" fill="#f4bd99"/><path d="M277.325,459.084a27.664,27.664,0,0,0,.672,6.98c-3.394,0-6.789.039-10.181-.01-.849-.012-1.034.248-1.01,1.044.057,1.924.019,3.851.019,5.976l-3.47-2.312c-2.064-1.376-4.138-2.736-6.185-4.136a3,3,0,0,0-1.823-.564c-3.1.03-6.2.023-9.3.01a5.25,5.25,0,0,1-5.5-5.506q-.015-13.794,0-27.589a5.207,5.207,0,0,1,5.115-5.441c11.2-.027,22.407,0,33.61,0,.22.51-.075.924-.277,1.339a13.889,13.889,0,0,0-1.315,6.048c-.021,2.3,0,4.6-.009,6.9a2.122,2.122,0,0,1-.3,1.466l-.036,5.24c-.417.416-.953.3-1.451.305a4.977,4.977,0,1,0,0,9.94C276.372,458.789,276.908,458.667,277.325,459.084Z" transform="translate(-1.339 -1.947)" fill="#87be40"/><path d="M281.888,442.428c.062-3.585-.229-7.174.18-10.754a15.131,15.131,0,0,1,1.724-5,14.239,14.239,0,0,1,12.877-7.039c5.471.041,10.942,0,16.414.011a14.148,14.148,0,0,1,14.35,14.345c.011,4.559,0,9.118,0,13.677a12.935,12.935,0,0,1-10.012-3.219,12.185,12.185,0,0,1-3.558-5.79,1.828,1.828,0,0,0-.444-.876c0,1.286.008,2.571-.005,3.857,0,.328.15.806-.453.781-3.2-.13-6.43.405-9.585-.459a10.4,10.4,0,0,1-7.3-8.461c-.119-.232-.24-.232-.362,0-.481,4.72-4.906,8.724-9.877,8.907C284.518,442.454,283.2,442.423,281.888,442.428Z" transform="translate(-5.866 -1.083)" fill="#354f5c"/><path d="M317.056,411.545c0-1.87,0-1.891,1.63-1.733a23.48,23.48,0,0,1,8.853,2.5,22.952,22.952,0,0,1,12.006,15.544c.143.591.1.98-.638,1.06-.646.069-1.277.258-1.921.361-.47.075-.75-.008-.9-.618-2.028-8.223-7.284-13.167-15.475-15.073a14.269,14.269,0,0,0-1.938-.27C317.057,413.173,317.056,413.184,317.056,411.545Z" transform="translate(-9.725 0)" fill="#cbdbe4"/><path d="M340.695,438.923a3.473,3.473,0,0,0-.545,0c-.95.152-1.259-.207-1.227-1.19.069-2.1.013-2.1,2.054-2.1,1.475,0,1.475,0,1.475,1.458v.11C342.425,439.176,342.7,438.895,340.695,438.923Z" transform="translate(-12.121 -2.836)" fill="#cbdbe4"/><path d="M292.143,451.137c1.35,0,2.7-.011,4.051,0a3.462,3.462,0,0,1,3.63,3.662c.016,1.9.047,3.8-.016,5.693-.029.879.174,1.31,1.126,1.166a2.71,2.71,0,0,1,.981.028,1.644,1.644,0,0,1,1.4,1.6,1.551,1.551,0,0,1-1.287,1.78,6.706,6.706,0,0,1-3.353-.125,3.425,3.425,0,0,1-2.348-3.349c-.019-1.971-.042-3.944.012-5.912.022-.8-.178-1.078-1.024-1.059-2.444.057-4.89.026-7.335.018-1.4,0-2.167-.638-2.167-1.754s.765-1.741,2.168-1.747C289.369,451.133,290.756,451.137,292.143,451.137Z" transform="translate(-6.301 -4.535)" fill="#a2783b"/><path d="M280.989,461.669a15.549,15.549,0,0,1-3.038-.2,5.248,5.248,0,0,1,1.4-10.339c.546,0,1.093-.012,1.638-.018Z" transform="translate(-5.003 -4.533)" fill="#eb907e"/><path d="M310.8,451.138c1.093,0,2.187-.016,3.28,0A1.733,1.733,0,0,1,316,452.913a1.716,1.716,0,0,1-1.862,1.719q-3.388.039-6.778,0a1.751,1.751,0,1,1,.053-3.491C308.542,451.122,309.672,451.138,310.8,451.138Z" transform="translate(-8.458 -4.534)" fill="#a2783b"/><path d="M305.055,476.73c.62,0,1.241-.035,1.857.008a1.7,1.7,0,0,1,1.645,1.7,1.672,1.672,0,0,1-1.585,1.759c-1.272.063-2.55.062-3.822,0a1.671,1.671,0,0,1-1.591-1.753,1.721,1.721,0,0,1,1.638-1.718c.072-.007.145-.005.218-.005h1.638Z" transform="translate(-8.027 -7.338)" fill="#a3783b"/><path d="M291.444,460.54a1.748,1.748,0,1,1,1.8-1.669A1.73,1.73,0,0,1,291.444,460.54Z" transform="translate(-6.733 -5.182)" fill="#a3783c"/><path d="M312.926,458.846a1.748,1.748,0,1,1-1.665-1.8A1.734,1.734,0,0,1,312.926,458.846Z" transform="translate(-8.889 -5.182)" fill="#a3783c"/><path d="M297.408,435.1c-.029-.276-.124-.564.156-.83.374.206.216.54.206.832Z" transform="translate(-7.567 -2.687)" fill="#696d6d"/><path d="M260.677,446.767c-3.758,0-7.515-.016-11.272.014-.737.005-1.015-.178-1.018-.971-.007-2.548-.039-2.548,2.49-2.548,6.968,0,13.936.014,20.9-.019.881,0,1.2.2,1.184,1.14-.048,2.383,0,2.384-2.439,2.384Z" transform="translate(-2.2 -3.67)" fill="#c4d95d"/><path d="M257.177,454.641c-2.589,0-5.179-.021-7.768.014-.731.01-1.019-.168-1.021-.966-.008-2.553-.041-2.553,2.484-2.553,4.668,0,9.336.016,14-.016.784-.005,1.083.17,1.077,1.023-.015,2.5.023,2.5-2.431,2.5Z" transform="translate(-2.2 -4.533)" fill="#c4d95d"/><path d="M257.1,462.514c-2.589,0-5.18-.021-7.769.014-.709.009-.935-.209-.945-.93-.034-2.589-.061-2.589,2.555-2.589,4.632,0,9.264.021,13.9-.018.855-.007,1.126.222,1.113,1.1-.036,2.424,0,2.425-2.394,2.425Z" transform="translate(-2.2 -5.396)" fill="#c4d95d"/><path d="M267.223,438.895c-2.006,0-4.011-.029-6.017.015-.749.016-1.005-.2-1.007-.979-.006-2.54-.037-2.54,2.494-2.54,3.5,0,7,.022,10.5-.017.8-.009,1.07.2,1.065,1.036-.017,2.485.02,2.485-2.442,2.485Z" transform="translate(-3.494 -2.807)" fill="#c4d95d"/><path d="M254.048,438.9c-2-.034-1.692.283-1.7-1.994,0-1.8-.267-1.5,2.066-1.5,1.712,0,1.415-.221,1.426,2.04C255.854,439.15,256.007,438.87,254.048,438.9Z" transform="translate(-2.633 -2.809)" fill="#c4d95d"/><path d="M308.6,504.106c3.721-1.288,7.255-3.027,10.9-4.5,1.486-.6,2.949-1.255,4.426-1.876,2.694-1.134,5.387-.147,6.411,2.341a4.777,4.777,0,0,1-2.9,6.383q-6.939,2.652-13.883,5.287c-4.526,1.722-9.019,3.538-13.585,5.146a28.032,28.032,0,0,1-20.474-.524c-5.127-2.084-10.229-4.229-15.343-6.348a1.666,1.666,0,0,1-.386-1.419q-.02-8.337,0-16.675a1.665,1.665,0,0,1,.386-1.418c1.9,0,3.792.016,5.688,0a39.518,39.518,0,0,1,17.919,4.076,11.594,11.594,0,0,0,5.266,1.2c4.339-.033,8.678-.015,13.017-.008a4.308,4.308,0,0,1,4.3,3.051,4.25,4.25,0,0,1-1.948,5.075.979.979,0,0,1-.6.367.827.827,0,0,1-.309.077c.169.073.282-.094.433-.1C308.13,504.125,308.382,504.217,308.6,504.106Z" transform="translate(-3.884 -8.848)" fill="#f4bd99"/><path d="M298.169,507.786c-2.768,0-5.538,0-8.306,0-1.329,0-2.058-.608-2.085-1.7-.029-1.147.716-1.8,2.1-1.8q8.3-.007,16.61,0c1.423,0,2.11.584,2.109,1.757s-.688,1.742-2.12,1.745Q302.322,507.793,298.169,507.786Z" transform="translate(-6.516 -10.358)" fill="#eb907f"/></g></svg>