<svg xmlns="http://www.w3.org/2000/svg" xmlns:xlink="http://www.w3.org/1999/xlink" width="106" height="106" viewBox="0 0 106 106"><defs><clipPath id="a"><circle cx="53" cy="53" r="53" transform="translate(0 -0.001)" fill="none"/></clipPath></defs><g transform="translate(-594.928 -409.899)"><g transform="translate(594.929 409.9)"><g transform="translate(0 0)" clip-path="url(#a)"><g transform="translate(-26.225 -31.785)"><path d="M649.761,433.455c15.216-14.325,34.088-17.011,51.784-14.745l-65.278-43.185-67.04,101.337C601.344,478.607,612.31,468.713,649.761,433.455Z" transform="translate(-566.733 -375.525)" fill="#54c7fe"/><path d="M660.451,546.294l69.533-105.106-28.646-18.951c-17.7-2.266-36.567.42-51.784,14.745-37.451,35.258-48.417,45.151-80.534,43.406l-2.494,3.769Z" transform="translate(-566.526 -379.052)" fill="#5477cd"/><g transform="translate(27.924 32.528)"><path d="M620.678,410.754a2.236,2.236,0,0,1,1.036,2.151c-.06,1.8,0,3.6-.029,5.4-.01.624.208.834.825.818,1.356-.034,2.715-.012,4.072-.012a3.452,3.452,0,0,1,3.076-.006q21.466,0,42.932.007c.428,0,.885-.136,1.283.152-.378.46-.913.369-1.4.373q-2.978.025-5.955,0c-5.806.035-11.611.013-17.417.015q-17.265.007-34.53-.006c-.626,0-1.3.163-1.842-.35a15.551,15.551,0,0,1,4.113-.166c1.8-.056,1.8-.014,1.8-1.858,0-1.455.047-2.912-.017-4.365a2.216,2.216,0,0,1,1.035-2.146Z" transform="translate(-597.993 -410.754)" fill="#f2e9e5"/><path d="M614.9,475.374q.007-20.3.012-40.594a1.7,1.7,0,0,1,1.343-.327q24.435-.012,48.872,0c1.426,0,1.635.238,1.668,1.668.006.237,0,.475,0,.713q0,37.521-.005,75.04a3.552,3.552,0,0,1-.257,1.99,1.939,1.939,0,0,1-1.349.307q-4.349.015-8.7,0a2.057,2.057,0,0,1-1.265-.264,1.662,1.662,0,0,1-.251-1.162q-.011-9.789,0-19.578a2.444,2.444,0,0,1,.125-1c.4-.637,1.187-.215,1.667-.626a1.138,1.138,0,0,0,.422-1.087c.017-1.528.026-3.056,0-4.583-.018-1.031-.227-1.238-1.286-1.258q-2.19-.04-4.38,0-9.753.011-19.5.005c-.372,0-.745.012-1.117.008a1.023,1.023,0,0,0-1.189,1.161c-.007,1.523,0,3.047,0,4.57,0,.723.26,1.157,1.052,1.176a1.053,1.053,0,0,1,1.041.506,3.942,3.942,0,0,1,.153,1.51q.005,9.322,0,18.644a2.8,2.8,0,0,1-.266,1.682,2.2,2.2,0,0,1-1.464.3q-6.971.012-13.942,0a2.336,2.336,0,0,1-1.379-.252,1.308,1.308,0,0,1-.3-.944c0-4.558-.078-9.115.032-13.67a1.3,1.3,0,0,1,.789-.984c5.309-2.842,7.244-9.712,5.6-15.093a11.713,11.713,0,0,0-5.541-7.223C615.225,475.867,614.912,475.752,614.9,475.374Z" transform="translate(-598.134 -412.571)" fill="#f2e9e5"/><path d="M666.316,513.338q0-39.016.028-78.031c0-.941-.39-1.017-1.15-1.017q-25.212.026-50.424.015a14.608,14.608,0,0,1-.184-4c-.051-1.394-.012-1.391-1.415-1.519a1.746,1.746,0,0,1-.453-.175c.544-.5,1.221-.339,1.848-.34q18.846-.015,37.691-.007,5.857,0,11.715,0c2.406,0,4.8.4,7.21.261a.989.989,0,0,1,.844.272l0,23.845a1.42,1.42,0,0,1,.209.331,42,42,0,0,1,.11,5.08c.028,1.188,0,2.378.008,3.565s.09,1.285,1.266,1.293c2.478.014,4.957-.012,7.436.017.5.006,1.116-.163,1.4.509a1.859,1.859,0,0,1-1.444.32c-2.509.015-5.016-.009-7.525.015-.983.009-1.106.188-1.138,1.123-.028.789.31,1.088,1.083,1.084q3.864-.018,7.728,0a2.116,2.116,0,0,1,1.462.284c-.174.7-.771.536-1.222.542-2.508.035-5.015.011-7.523.018-1.5,0-1.518.027-1.521,1.545,0,1.458-.013,2.915,0,4.372.012,1.054.115,1.164,1.175,1.173,2.643.019,5.287-.009,7.93.018.5.006,1.113-.16,1.4.505-.412.408-.945.321-1.441.324-2.509.014-5.017,0-7.525.007-1.5,0-1.536.041-1.543,1.535,0,.339,0,.678-.021,1.017.04,2.627.045,5.254,0,7.88.029,1.043.032,2.087,0,3.13.04,2.626.044,5.253,0,7.879,0,.271.022.54.023.812,0,1.761.006,1.762,1.82,1.764,2.406,0,4.813-.006,7.22.006a2,2,0,0,1,1.454.3c-.252.7-.872.523-1.367.528-2.572.03-5.144.008-7.715.015-1.367,0-1.4.04-1.406,1.441-.006,3.587,0,7.174-.006,10.761a2.526,2.526,0,0,1-.271,1.572,2.275,2.275,0,0,1-1.448.283c-1.07.009-2.141.018-3.21-.006A1.313,1.313,0,0,1,666.316,513.338Z" transform="translate(-597.992 -412.096)" fill="#dfd1cd"/><path d="M671.975,428.169c-19.429-.411-38.861-.1-58.29-.2-.339,0-.678.011-1.018.018a1.081,1.081,0,0,1-.609-1.16q.022-2.83,0-5.659a1.136,1.136,0,0,1,.615-1.166q9.1.011,18.208.022,17.8.01,35.6.012c.637.284.705.849.71,1.442.014,1.721.052,3.443-.017,5.161-.031.781.139,1.079.98,1.037,1.447-.072,2.9-.03,4.352-.014.463,0,.957-.067,1.33.327C673.246,428.339,672.591,428.059,671.975,428.169Z" transform="translate(-597.942 -411.463)" fill="#b7abab"/><path d="M697.453,454.82c1.123.243,1.228,1.068,1.228,2.023q-.015,28.6-.006,57.2c0,.441.019.882.029,1.322-.049.047-.092.128-.147.137a14.718,14.718,0,0,1-5.826-.067,3.215,3.215,0,0,1-.282-1.976q-.013-24.415-.007-48.828c0-1.9,0-3.8,0-5.7a8.612,8.612,0,0,0-.517-4.075,1.665,1.665,0,0,1,1.528-.3A37.052,37.052,0,0,0,697.453,454.82Z" transform="translate(-604.066 -414.109)" fill="#9c9595"/><path d="M606.261,502.331a11.994,11.994,0,0,1-6.659-8.73c-1.032-5.271.2-9.9,4.426-13.464a7.759,7.759,0,0,1,4-1.853,7.532,7.532,0,0,1,4.809,2.777,14.152,14.152,0,0,1,0,18.919,9.486,9.486,0,0,1-4.795,2.918A2.173,2.173,0,0,1,606.261,502.331Z" transform="translate(-596.96 -415.932)" fill="#80d161"/><path d="M685.465,520.388l5.943.008c1.46,0,2.919,0,4.378.018,1.126.012,1.772.572,1.78,1.509s-.638,1.515-1.749,1.544c-.237.006-.475,0-.713,0H599.184c-.271,0-.544.01-.814,0a1.5,1.5,0,0,1-1.6-1.485,1.48,1.48,0,0,1,1.62-1.56c2.206-.023,4.412-.007,6.618-.009.339,0,.679-.014,1.017-.021,1.179-.566,2.429-.2,3.646-.278.938-.042,1.876-.02,2.813-.011a1.422,1.422,0,0,1,1.038.292l16.776-.008a1.207,1.207,0,0,1,.909-.259c3.031-.06,6.063-.046,9.095-.012.128,0,.256,0,.384,0,1.022-.031,2.044-.024,3.067,0,3.271.005,6.545-.139,9.815.074a1.93,1.93,0,0,1,.35.188l11.174,0,5.7.005a2.023,2.023,0,0,1,1.357-.3q5.983-.01,11.966,0A1.886,1.886,0,0,1,685.465,520.388Z" transform="translate(-596.769 -419.136)" fill="#746e6e"/><path d="M608.724,502.77a17.946,17.946,0,0,0,3.668-2.1,12.629,12.629,0,0,0,4.3-7.832,13.6,13.6,0,0,0-3.152-11.457,9.835,9.835,0,0,0-3.873-2.717c-.307-.127-.67-.131-.91-.407a8.135,8.135,0,0,1,4.64.14c.354.1.705.207,1.057.311a12.37,12.37,0,0,1,6.9,11.253c.164,5.441-1.991,9.718-6.954,12.34-1.192.986-2.623.9-4.036.909C609.8,503.127,609.123,503.451,608.724,502.77Z" transform="translate(-597.686 -415.909)" fill="#4fc022"/><path d="M678.358,427.982c-2-.006-4-.034-6.005-.01-.689.008-1.043-.006-.985-.933.122-1.926.021-3.866.049-5.8a1.853,1.853,0,0,0-.414-1.211l7.338-.062a.846.846,0,0,1,.635.92c0,2.065,0,4.13,0,6.2C678.975,427.515,678.88,427.9,678.358,427.982Z" transform="translate(-602.461 -411.46)" fill="#9c9595"/><path d="M608.576,504.79c.536.3,1.16.05,1.707.274.509.232.467.712.47,1.135q.039,5.972,0,11.945a1.37,1.37,0,0,1-.315,1.037l-3.648,0q.022-7.428.044-14.854Z" transform="translate(-597.538 -417.929)" fill="#d77e49"/><path d="M676.957,454.135l0-.223c1.391,0,2.784-.03,4.174.014.7.022.953-.189.938-.916-.042-2.1-.029-4.208-.008-6.313.012-1.333.572-1.968,1.651-1.957.987.008,1.391.409,1.4,1.441.011,2.24.038,4.481-.015,6.72-.019.814.235,1.066,1.038,1.028,1.287-.059,2.579-.014,3.869-.013a.244.244,0,0,1-.121.334,2.434,2.434,0,0,1-1.192.189q-5.185.011-10.37,0A1.929,1.929,0,0,1,676.957,454.135Z" transform="translate(-602.918 -413.36)" fill="#f2e9e5"/><path d="M691.078,454.3c0-.059,0-.118,0-.177.345-.336.188-.767.194-1.155.019-1.353.008-2.706.008-4.059a1.389,1.389,0,0,1,1.233-1.486,1.345,1.345,0,0,1,1.677,1.091,21.544,21.544,0,0,1,.139,4.239c.039,1.359.009,1.34,1.378,1.371.56.013,1.148-.179,1.681.154l-5.5.04A.538.538,0,0,1,691.078,454.3Z" transform="translate(-604.001 -413.563)" fill="#f2e9e5"/><path d="M630.808,419.286l-3.076.005c0-1.45-.019-2.9.019-4.352a1.624,1.624,0,0,1,1.154-1.709,1.479,1.479,0,0,1,1.667.645,1.366,1.366,0,0,1,.223.957Q630.8,417.06,630.808,419.286Z" transform="translate(-599.143 -410.939)" fill="#f2e9e5"/><path d="M658.156,496.011c-.52.337-1.106.078-1.652.186a5.837,5.837,0,0,1-3.394.244,60.551,60.551,0,0,0-6.712-.092,19.319,19.319,0,0,0-3.277,0c-3-.116-6.008-.024-9.012-.053a2.684,2.684,0,0,1-1.2-.111,1.533,1.533,0,0,0-1.175-.172c-.857.059-1.147-.353-1.137-1.15.019-1.728.031-3.458,0-5.186-.018-.938.409-1.251,1.3-1.24,2.339.03,4.678.007,7.016.011q6.965.01,13.93.025c.661.275.683.862.689,1.444.016,1.586.042,3.173-.012,4.757-.026.755.247,1.036.991,1,.841-.036,1.686-.023,2.53,0C657.435,495.687,657.859,495.647,658.156,496.011Z" transform="translate(-599.363 -416.71)" fill="#b7abab"/><path d="M633.1,496.811a1.328,1.328,0,0,1,.776-.183q4.364.006,8.728,0a1.352,1.352,0,0,1,.776.186c.432.35.373.851.374,1.314q.018,9.6,0,19.209a1.608,1.608,0,0,1-.32,1.243h-.207a1.632,1.632,0,0,1-.283-1.253q-.01-7.728-.007-15.458c0-.407.09-.806.1-1.015a2.542,2.542,0,0,1-.391,1c-2.665,5.261-5.2,10.591-7.991,15.786a1.947,1.947,0,0,1-.749.934l-.821.008Q633.094,507.7,633.1,496.811Z" transform="translate(-599.554 -417.338)" fill="#6bd8e6"/><path d="M647.528,496.8c.322-.27.708-.16,1.07-.173,3.064-.109,6.12.189,9.182.192q0,10.876.008,21.753l-.1.017-.1-.011c-.361-.3-.319-.729-.319-1.13q-.012-9.354-.007-18.708c0-.3.068-.6.089-.971a2.749,2.749,0,0,1-.361.995q-4.251,8.5-8.506,17.006a2.636,2.636,0,0,1-.61.926c-.208.172-.364.1-.483-.116a3.645,3.645,0,0,1-.153-1.408q-.005-8.4,0-16.8A2.308,2.308,0,0,1,647.528,496.8Z" transform="translate(-600.639 -417.337)" fill="#6bd8e6"/><path d="M610.733,519.18q0-6.465,0-12.929a1.933,1.933,0,0,0-.157-1.188,15.215,15.215,0,0,0,3.965-.737q.022,7.429.044,14.859Z" transform="translate(-597.828 -417.929)" fill="#c76d35"/><path d="M665.917,439.472q.032,5.393.065,10.785c0,.485-.219.779-.727.78q-3.155.007-6.311,0a.479.479,0,0,1-.52-.389,20.148,20.148,0,0,1,2.377-3.982c1.371-2.245,2.811-4.451,4.268-6.643C665.257,439.741,665.339,439.2,665.917,439.472Z" transform="translate(-601.497 -412.95)" fill="#00c6dc"/><path d="M626.4,473.736c-.452-.233-.4-.665-.4-1.06-.006-3.185.011-6.371-.013-9.556-.006-.853.28-1.222,1.185-1.2,1.828.052,3.659.012,5.489.019.294,0,.619-.086.857.188.1.521-.241.893-.486,1.271C630.808,466.838,628.618,470.294,626.4,473.736Z" transform="translate(-599.01 -414.677)" fill="#6bd8e6"/><path d="M649.814,439.478q.035,5.393.068,10.785c0,.481-.218.778-.728.779q-3.156.005-6.312,0a.476.476,0,0,1-.518-.39,19.506,19.506,0,0,1,2.208-3.723c1.412-2.219,2.8-4.455,4.259-6.64C649.035,439.928,649.188,439.387,649.814,439.478Z" transform="translate(-600.262 -412.956)" fill="#00c6dc"/><path d="M642.308,473.361c-.331-.257-.2-.622-.2-.942q-.015-4.562,0-9.125c0-1.28.083-1.354,1.4-1.355,1.69,0,3.38-.008,5.07.006.356,0,.751-.127,1.056.189.127.38-.13.643-.3.917-2,3.188-4.041,6.351-6.08,9.515C643.025,472.908,642.883,473.41,642.308,473.361Z" transform="translate(-600.244 -414.677)" fill="#6bd8e6"/><path d="M633.707,439.475c.192,3.594.041,7.192.078,10.788a.674.674,0,0,1-.731.78q-3.158,0-6.314,0a.475.475,0,0,1-.518-.39,3.712,3.712,0,0,1,.784-1.511c1.895-2.951,3.774-5.912,5.678-8.856C632.922,439.92,633.084,439.385,633.707,439.475Z" transform="translate(-599.028 -412.955)" fill="#00c6dc"/><path d="M665.752,462.156c.357.24.224.613.226.931.01,3.192-.011,6.384.018,9.576.007.806-.211,1.176-1.091,1.153-1.866-.05-3.735-.007-5.6-.023-.333,0-.8.172-.879-.41a31.154,31.154,0,0,1,2.561-4.237c1.286-2.065,2.625-4.1,3.93-6.153C665.128,462.657,665.307,462.268,665.752,462.156Z" transform="translate(-601.497 -414.695)" fill="#00c6dc"/><path d="M665.734,462.138q-3.264,5.105-6.534,10.207c-.232.359-.376.8-.794,1.019-.322-.262-.192-.627-.193-.947q-.014-4.564,0-9.127c0-1.259.09-1.348,1.3-1.351,1.758,0,3.516-.007,5.274,0C665.105,461.945,665.466,461.835,665.734,462.138Z" transform="translate(-601.479 -414.678)" fill="#6bd8e6"/><path d="M633.689,439.452a5.976,5.976,0,0,0-1.492,2.01c-1.911,2.958-3.8,5.933-5.7,8.9a1.529,1.529,0,0,1-.3.27c-.3-.226-.2-.553-.2-.846-.005-3.113.019-6.227-.017-9.34-.011-.969.328-1.313,1.312-1.274,1.791.069,3.587.011,5.38.028C633.021,439.2,633.433,439.046,633.689,439.452Z" transform="translate(-599.009 -412.933)" fill="#6bd8e6"/><path d="M649.8,439.455a8.678,8.678,0,0,0-1.832,2.517c-1.789,2.754-3.537,5.537-5.307,8.305a2.342,2.342,0,0,1-.35.353c-.322-.261-.2-.626-.2-.949-.008-3.084.021-6.169-.021-9.254-.012-.9.235-1.289,1.2-1.256,1.828.062,3.66.009,5.491.026C649.127,439.2,649.541,439.048,649.8,439.455Z" transform="translate(-600.244 -412.933)" fill="#6bd8e6"/><path d="M642.327,473.379a34.631,34.631,0,0,0,2.92-4.334c1.511-2.268,2.937-4.593,4.4-6.893.355.235.235.607.235.923.01,3.176-.02,6.353.022,9.529.013.934-.3,1.245-1.234,1.214-1.823-.061-3.649-.01-5.474-.026C642.865,473.79,642.4,473.96,642.327,473.379Z" transform="translate(-600.263 -414.695)" fill="#00c6dc"/><path d="M665.9,439.454a8.363,8.363,0,0,0-1.853,2.568c-1.829,2.791-3.6,5.617-5.4,8.427a.914.914,0,0,1-.236.182c-.317-.265-.192-.629-.193-.951-.009-3.084.02-6.169-.021-9.252-.013-.9.231-1.29,1.2-1.257,1.828.062,3.66.009,5.49.025C665.23,439.2,665.642,439.049,665.9,439.454Z" transform="translate(-601.479 -412.933)" fill="#6bd8e6"/><path d="M626.439,473.753c.161-1.313,1.149-2.183,1.784-3.229,1.716-2.829,3.546-5.589,5.329-8.376.362.231.251.6.252.922.009,3.19-.016,6.379.019,9.568.009.878-.283,1.2-1.179,1.176C630.577,473.75,628.507,473.769,626.439,473.753Z" transform="translate(-599.044 -414.695)" fill="#00c6dc"/><path d="M660,496.011c-1.416-.01-2.834-.028-4.25-.025-.519,0-.789.034-.736-.741.133-1.948.042-3.911.063-5.868,0-.381-.238-.616-.393-.907,1.59-.009,3.18-.006,4.769-.033.825-.015,1.154.369,1.145,1.173-.019,1.793-.006,3.586-.005,5.379C660.6,495.446,660.582,495.89,660,496.011Z" transform="translate(-601.21 -416.71)" fill="#9c9595"/><path d="M689.993,454.869l.813.018a1.881,1.881,0,0,1,.828,1.631q-.026,29.437-.022,58.871l-14.675,0c.005-4.338.029-8.675,0-13.012-.006-.79.2-1.05,1.019-1.036,2.914.048,5.828.023,8.743.013.358,0,.754.123,1.058-.2a.983.983,0,0,1,.125-.381c.779-1.422.369-2.145-1.282-2.165-2.736-.033-5.472,0-8.208-.016-.5,0-1.028.094-1.435-.324l0-7.9a1.951,1.951,0,0,1,1.449-.319c2.607-.008,5.214,0,7.821-.006a3.691,3.691,0,0,0,1.307-.138,1.131,1.131,0,0,0,0-2.154,3.692,3.692,0,0,0-1.307-.138c-2.607,0-5.214,0-7.821-.005a1.956,1.956,0,0,1-1.449-.319l0-7.9c.407-.42.938-.323,1.434-.326,2.6-.011,5.2,0,7.8-.006a4.857,4.857,0,0,0,1.111-.067,1.112,1.112,0,0,0,.791-1.763,1.9,1.9,0,0,1-.341-.725c-.3-.322-.7-.2-1.058-.2-2.916-.009-5.832-.036-8.747.015-.832.014-1.032-.264-1.012-1.044q.073-2.846,0-5.7c-.02-.787.191-1.056,1.017-1.042,2.848.05,5.7.023,8.544.014.36,0,.753.119,1.067-.183a.991.991,0,0,1,.231-.324c.954-1.036.914-1.443-.228-2.34a.729.729,0,0,1-.2-.22c-.318-.291-.709-.174-1.07-.175-2.779-.009-5.56-.036-8.339.014-.824.015-1.029-.252-1.019-1.041.042-3.118.018-6.237.019-9.356Z" transform="translate(-602.916 -414.137)" fill="#b7abab"/><path d="M676.955,489.971c3.35,0,6.7,0,10.049.018a1.512,1.512,0,0,1,1.523,2.248,1.618,1.618,0,0,1-1.624.807c-3.316-.006-6.631,0-9.947.007Z" transform="translate(-602.918 -416.828)" fill="#f2e9e5"/><path d="M687.364,466.35a1.369,1.369,0,0,1,1.348,1.352,1.414,1.414,0,0,1-1.149,1.532c-3.22,0-6.439-.032-9.658,0-.77.008-1-.233-.97-.986.075-2.236-.271-1.853,1.889-1.873C681.671,466.348,684.517,466.357,687.364,466.35Z" transform="translate(-602.916 -415.017)" fill="#f2e9e5"/><path d="M687.746,478.275c.653.431,1.161.909.86,1.817-.308.928-1.013,1.054-1.842,1.054-3.272,0-6.544.009-9.816.016.039-.906-.381-2.063.162-2.655.6-.655,1.792-.206,2.722-.22C682.47,478.25,685.109,478.274,687.746,478.275Z" transform="translate(-602.908 -415.922)" fill="#f2e9e5"/><path d="M676.956,501.868c3.271.006,6.544.018,9.815.015.829,0,1.534.126,1.842,1.054.3.908-.206,1.385-.857,1.818-3.282,0-6.562-.021-9.843.016-.755.008-1.045-.21-.975-.975C677,503.157,676.954,502.511,676.956,501.868Z" transform="translate(-602.916 -417.74)" fill="#f2e9e5"/><path d="M647.57,516.84a2.848,2.848,0,0,0,.613-1.04q4.379-8.732,8.747-17.47a2.2,2.2,0,0,1,.667-.856q0,10.587,0,21.175l-10.093,0A1.637,1.637,0,0,1,647.57,516.84Z" transform="translate(-600.641 -417.403)" fill="#00c6dc"/><path d="M633.973,518.9l9.144-18.129.182.022V518.9Z" transform="translate(-599.622 -417.656)" fill="#00c6dc"/><path d="M647.338,516.772q-.032.9-.066,1.805h-2.98q-.028-10.883-.054-21.766a5.444,5.444,0,0,1,3.061-.007Q647.318,506.787,647.338,516.772Z" transform="translate(-600.409 -417.335)" fill="#f2e9e5"/></g></g></g></g><g transform="translate(598.925 410.643)"><path d="M620.678,410.754a2.236,2.236,0,0,1,1.036,2.151c-.06,1.8,0,3.6-.029,5.4-.01.624.208.834.825.818,1.356-.034,2.715-.012,4.072-.012a3.452,3.452,0,0,1,3.076-.006q21.466,0,42.932.007c.428,0,.885-.136,1.283.152-.378.46-.913.369-1.4.373q-2.978.025-5.955,0c-5.806.035-11.611.013-17.417.015q-17.265.007-34.53-.006c-.626,0-1.3.163-1.842-.35a15.551,15.551,0,0,1,4.113-.166c1.8-.056,1.8-.014,1.8-1.858,0-1.455.047-2.912-.017-4.365a2.216,2.216,0,0,1,1.035-2.146Z" transform="translate(-600.29 -410.754)" fill="#f2e9e5"/><path d="M671.975,428.169c-19.429-.411-38.861-.1-58.29-.2-.339,0-.678.011-1.018.018a1.081,1.081,0,0,1-.609-1.16q.022-2.83,0-5.659a1.136,1.136,0,0,1,.615-1.166q9.1.011,18.208.022,17.8.01,35.6.012c.637.284.705.849.71,1.442.014,1.721.052,3.443-.017,5.161-.031.781.139,1.079.98,1.037,1.447-.072,2.9-.03,4.352-.014.463,0,.957-.067,1.33.327C673.246,428.339,672.591,428.059,671.975,428.169Z" transform="translate(-600.239 -411.463)" fill="#b7abab"/><path d="M678.358,427.982c-2-.006-4-.034-6.005-.01-.689.008-1.043-.006-.985-.933.122-1.926.021-3.866.049-5.8a1.853,1.853,0,0,0-.414-1.211l7.338-.062a.846.846,0,0,1,.635.92c0,2.065,0,4.13,0,6.2C678.975,427.515,678.88,427.9,678.358,427.982Z" transform="translate(-604.758 -411.46)" fill="#9c9595"/><path d="M691.078,454.3c0-.059,0-.118,0-.177.345-.336.188-.767.194-1.155.019-1.353.008-2.706.008-4.059a1.389,1.389,0,0,1,1.233-1.486,1.345,1.345,0,0,1,1.677,1.091,21.544,21.544,0,0,1,.139,4.239c.039,1.359.009,1.34,1.378,1.371.56.013,1.148-.179,1.681.154l-5.5.04A.538.538,0,0,1,691.078,454.3Z" transform="translate(-606.298 -413.563)" fill="#f2e9e5"/><path d="M630.808,419.286l-3.076.005c0-1.45-.019-2.9.019-4.352a1.624,1.624,0,0,1,1.154-1.709,1.479,1.479,0,0,1,1.667.645,1.366,1.366,0,0,1,.223.957Q630.8,417.06,630.808,419.286Z" transform="translate(-601.44 -410.939)" fill="#f2e9e5"/><path d="M606.261,502.331a11.994,11.994,0,0,1-6.659-8.73c-1.032-5.271.2-9.9,4.426-13.464a7.759,7.759,0,0,1,4-1.853,7.532,7.532,0,0,1,4.809,2.777,14.152,14.152,0,0,1,0,18.919,9.486,9.486,0,0,1-4.795,2.918A2.173,2.173,0,0,1,606.261,502.331Z" transform="translate(-599.257 -415.932)" fill="#80d161"/><path d="M608.724,502.77a17.946,17.946,0,0,0,3.668-2.1,12.629,12.629,0,0,0,4.3-7.832,13.6,13.6,0,0,0-3.152-11.457,9.835,9.835,0,0,0-3.873-2.717c-.307-.127-.67-.131-.91-.407a8.135,8.135,0,0,1,4.64.14c.354.1.705.207,1.057.311a12.37,12.37,0,0,1,6.9,11.253c.164,5.441-1.991,9.718-6.954,12.34-1.192.986-2.623.9-4.036.909C609.8,503.127,609.123,503.451,608.724,502.77Z" transform="translate(-599.983 -415.909)" fill="#4fc022"/></g></g></svg>