<svg xmlns="http://www.w3.org/2000/svg" xmlns:xlink="http://www.w3.org/1999/xlink" width="210" height="280" viewBox="0 0 210 280"><defs><linearGradient id="a" x1="5656018" y1="0.499" x2="5656019.5" y2="0.499" gradientUnits="objectBoundingBox"><stop offset="0" stop-color="#ffbb96"/><stop offset="0.227" stop-color="#fffbc9"/><stop offset="0.54" stop-color="#f9b673"/><stop offset="0.639" stop-color="#f9b876"/><stop offset="0.725" stop-color="#fabe81"/><stop offset="0.806" stop-color="#fcc892"/><stop offset="0.859" stop-color="#fed2a3"/><stop offset="0.97" stop-color="#ffc28c"/></linearGradient><linearGradient id="b" x1="5672136" y1="0.499" x2="5672137" y2="0.499" xlink:href="#a"/><linearGradient id="c" x1="5851047" y1="0.497" x2="5851048.5" y2="0.497" xlink:href="#a"/><linearGradient id="d" x1="5689860.5" y1="0.497" x2="5689861.5" y2="0.497" xlink:href="#a"/><linearGradient id="e" x1="5691467" y1="0.495" x2="5691468.5" y2="0.495" xlink:href="#a"/><linearGradient id="f" x1="5707585" y1="0.495" x2="5707586" y2="0.495" xlink:href="#a"/><linearGradient id="g" x1="5709191.5" y1="0.496" x2="5709193" y2="0.496" xlink:href="#a"/><linearGradient id="h" x1="2906695.5" y1="0.496" x2="2906696" y2="0.496" xlink:href="#a"/><linearGradient id="i" x1="2881033.25" y1="0.508" x2="2881034" y2="0.508" xlink:href="#a"/><linearGradient id="j" x1="5690879.5" y1="0.508" x2="5690881" y2="0.508" xlink:href="#a"/><linearGradient id="k" x1="5692486" y1="0.492" x2="5692487.5" y2="0.492" xlink:href="#a"/><linearGradient id="l" x1="5708604" y1="0.492" x2="5708605.5" y2="0.492" xlink:href="#a"/><linearGradient id="m" x1="5710210.5" y1="0.505" x2="5710212" y2="0.505" xlink:href="#a"/><linearGradient id="n" x1="5905276" y1="0.505" x2="5905277.5" y2="0.505" xlink:href="#a"/><linearGradient id="o" x1="5727935" y1="0.504" x2="5727936.5" y2="0.504" xlink:href="#a"/><linearGradient id="p" x1="5744053" y1="0.504" x2="5744054.5" y2="0.504" xlink:href="#a"/></defs><g transform="translate(-265 -3712)"><rect width="210" height="280" transform="translate(265 3712)" fill="none"/><g transform="translate(282.812 3722.492)"><g transform="translate(0 0)"><path d="M345.366,349.15c.773-13.881,22.118-25.011,48.4-25.011s47.617,11.13,48.395,25.011c.012.256.073.509.073.773,0,14.239-21.7,25.781-48.468,25.781s-48.476-11.541-48.476-25.781C345.293,349.659,345.354,349.407,345.366,349.15Z" transform="translate(-345.293 -169.858)" fill="#92b4d1" opacity="0.192"/><g transform="translate(10.276)"><path d="M421.793,304.342V406.711c0,10.752-16.38,19.465-36.589,19.465s-36.6-8.713-36.6-19.465V304.342Z" transform="translate(-348.606 -230.626)" fill="#e8d6d6"/><g transform="translate(0 95.707)"><path d="M385.2,329.207c20.209,0,36.589-8.709,36.589-19.461V375.3c0,10.752-16.38,19.464-36.589,19.464s-36.6-8.713-36.6-19.464V309.746C348.606,320.5,364.99,329.207,385.2,329.207Z" transform="translate(-348.606 -309.746)" fill="#9165d1"/></g><g transform="translate(0 104.778)"><path d="M385.2,331.435c20.209,0,36.589-8.709,36.589-19.46v47.862c0,10.756-16.38,19.465-36.589,19.465s-36.6-8.709-36.6-19.465V311.975C348.606,322.727,364.99,331.435,385.2,331.435Z" transform="translate(-348.606 -311.975)" fill="#b292ef"/></g><g transform="translate(10.036 104.778)"><path d="M348.606,325.339c6.67,3.748,16.091,6.1,26.562,6.1,20.209,0,36.589-8.709,36.589-19.46v8.9c0,10.752-16.38,19.464-36.589,19.464-10.471,0-19.892-2.352-26.562-6.1Z" transform="translate(-348.606 -311.975)" fill="#33211f"/></g><path d="M348.606,319.021c0,10.752,16.384,19.464,36.6,19.464s36.589-8.713,36.589-19.464-16.38-19.46-36.589-19.46S348.606,308.269,348.606,319.021Z" transform="translate(-348.606 -245.305)" fill="#f4efef"/><g transform="translate(10.764 44.325)"><path d="M388.766,297.12v33.631a31.549,31.549,0,0,1-5.4,2.108V297.694h-4.5v36.182a46.093,46.093,0,0,1-5.709.594V297.694h-4.5v36.768a45.405,45.405,0,0,1-5.4-.57v-36.2h-4.5v35.189a31.726,31.726,0,0,1-5.514-2.141V297.12Z" transform="translate(-345.181 -297.12)" fill="#a179e0"/><path d="M354.831,297.12v23.668c0,2.539-1.319,4.912-3.581,6.951V297.12Z" transform="translate(-303.168 -297.12)" fill="#a179e0"/><path d="M363.071,320.788a7.433,7.433,0,0,1,.114-1.2V297.12h3.443v30.6C364.382,325.684,363.071,323.32,363.071,320.788Z" transform="translate(-363.071 -297.12)" fill="#a179e0"/><path d="M356.627,297.12v30.619a20.392,20.392,0,0,1-4.5,3.011V297.12Z" transform="translate(-308.545 -297.12)" fill="#448ce2"/><path d="M356.627,297.12v30.619a20.392,20.392,0,0,1-4.5,3.011V297.12Z" transform="translate(-308.545 -297.12)" fill="#9165d1"/><path d="M359.064,297.261v35.165a40.56,40.56,0,0,1-4.5,1.017V297.261Z" transform="translate(-320.884 -296.687)" fill="#448ce2"/><path d="M359.064,297.261v35.165a40.56,40.56,0,0,1-4.5,1.017V297.261Z" transform="translate(-320.884 -296.687)" fill="#9165d1"/><path d="M361.569,297.261v36.777c-.7.033-1.416.057-2.137.057-.8,0-1.583-.025-2.36-.065V297.261Z" transform="translate(-333.599 -296.687)" fill="#448ce2"/><path d="M361.569,297.261v36.777c-.7.033-1.416.057-2.137.057-.8,0-1.583-.025-2.36-.065V297.261Z" transform="translate(-333.599 -296.687)" fill="#9165d1"/><path d="M364.006,297.261v36.2a40.552,40.552,0,0,1-4.5-1.009V297.261Z" transform="translate(-345.937 -296.687)" fill="#448ce2"/><path d="M364.006,297.261v36.2a40.552,40.552,0,0,1-4.5-1.009V297.261Z" transform="translate(-345.937 -296.687)" fill="#9165d1"/><path d="M366.463,297.12v33.622a20.451,20.451,0,0,1-4.5-3.019v-30.6Z" transform="translate(-358.409 -297.12)" fill="#448ce2"/><path d="M366.463,297.12v33.622a20.451,20.451,0,0,1-4.5-3.019v-30.6Z" transform="translate(-358.409 -297.12)" fill="#9165d1"/></g><g transform="translate(10.764)"><path d="M351.25,307.483c0,7.59,11.562,13.739,25.834,13.739s25.829-6.149,25.829-13.739-11.566-13.739-25.829-13.739S351.25,299.893,351.25,307.483Z" transform="translate(-351.25 -263.158)" fill="#b292ef"/><path d="M353.114,322.91h-.057l7.459-35.136h23.648l7.443,35.071h-.053a5.758,5.758,0,0,1,.326,1.734c0,5.742-8.75,10.394-19.542,10.394S352.8,330.321,352.8,324.579A5.738,5.738,0,0,1,353.114,322.91Z" transform="translate(-346.508 -281.483)" fill="#9165d1"/><path d="M354.692,292.52c0,3.471,5.29,6.287,11.822,6.287s11.826-2.816,11.826-6.287-5.295-6.292-11.826-6.292S354.692,289.044,354.692,292.52Z" transform="translate(-340.684 -286.228)" fill="#b292ef"/><path d="M355.923,290.216c0,2,3.052,3.626,6.816,3.626s6.816-1.624,6.816-3.626-3.052-3.626-6.816-3.626S355.923,288.214,355.923,290.216Z" transform="translate(-336.91 -285.117)" fill="#a179e0"/></g></g></g></g><g transform="translate(292.983 3876.047)"><path d="M388.741,425.155l-52.877-30.526c-4.363-2.519-3.816-6.917,1.221-9.828l103.027-60.069c5.037-2.908,12.656-3.224,17.019-.706l52.877,30.526c4.36,2.519,3.813,6.92-1.224,9.828L405.76,424.45C400.723,427.36,393.1,427.674,388.741,425.155Z" transform="translate(-332.918 -322.273)" fill="#92b4d1" opacity="0.2"/><path d="M388.207,423.914l-52.092-30.077c-4.3-2.481-3.759-6.815,1.205-9.682l101.97-59.474c4.964-2.867,12.469-3.177,16.769-.7l52.092,30.074c4.3,2.484,3.759,6.815-1.206,9.682l-101.97,59.477C400.012,426.084,392.5,426.394,388.207,423.914Z" transform="translate(-332.277 -322.31)" fill="#a8cff0"/><g transform="translate(50.735 23.969)"><g transform="translate(84.717)"><g transform="translate(0.003 11.39)" style="mix-blend-mode:multiply;isolation:isolate"><path d="M383.848,333.485v.108l0-.108Z" transform="translate(-358.166 -333.485)" fill="url(#a)"/><path d="M375.729,333.593v-.108h0Z" transform="translate(-375.729 -333.485)" fill="url(#b)"/></g><path d="M375.728,332.362H401.41V336.4H401.4l.006.1c0,4.129-5.749,7.477-12.843,7.477s-12.84-3.347-12.84-7.477l0-.1,0,.816Z" transform="translate(-375.728 -324.525)" fill="#d1ebff"/><path d="M401.4,337.346c0,4.123-5.749,7.464-12.836,7.464s-12.833-3.341-12.833-7.464,5.746-7.461,12.833-7.461S401.4,333.226,401.4,337.346Z" transform="translate(-375.724 -329.885)" fill="#fff"/></g><g transform="translate(56.478 16.507)"><g transform="translate(0.003 11.39)" style="mix-blend-mode:multiply;isolation:isolate"><path d="M374.923,338.7v.111l0-.111Z" transform="translate(-349.241 -338.702)" fill="url(#c)"/><path d="M366.8,338.813V338.7h0Z" transform="translate(-366.804 -338.702)" fill="url(#d)"/></g><path d="M366.8,337.579h25.682v4.04h0l0,.1c0,4.132-5.749,7.48-12.843,7.48s-12.84-3.347-12.84-7.48l0-.1,0,.813Z" transform="translate(-366.803 -329.742)" fill="#d1ebff"/><path d="M392.475,342.566c0,4.12-5.749,7.461-12.836,7.461s-12.833-3.341-12.833-7.461,5.746-7.464,12.833-7.464S392.475,338.443,392.475,342.566Z" transform="translate(-366.799 -335.102)" fill="#fff"/></g><g transform="translate(28.239 33.017)"><g transform="translate(0.003 11.39)" style="mix-blend-mode:multiply;isolation:isolate"><path d="M366,343.92v.108l0-.108Z" transform="translate(-340.316 -343.92)" fill="url(#e)"/><path d="M357.879,344.028v-.108h0Z" transform="translate(-357.879 -343.92)" fill="url(#f)"/></g><path d="M357.878,342.8H383.56v4.037h0l0,.1c0,4.129-5.749,7.477-12.843,7.477s-12.84-3.347-12.84-7.477l0-.1,0,.816Z" transform="translate(-357.878 -334.96)" fill="#d1ebff"/><path d="M383.55,347.781c0,4.123-5.746,7.461-12.836,7.461s-12.833-3.338-12.833-7.461,5.746-7.461,12.833-7.461S383.55,343.661,383.55,347.781Z" transform="translate(-357.874 -340.32)" fill="#fff"/></g><g transform="translate(0 49.523)"><g transform="translate(0.003 11.39)" style="mix-blend-mode:multiply;isolation:isolate"><path d="M357.073,349.137v.111l0-.111Z" transform="translate(-331.391 -349.137)" fill="url(#g)"/><path d="M348.954,349.248v-.111h.006Z" transform="translate(-348.954 -349.137)" fill="url(#h)"/></g><path d="M348.953,348.014h25.682v4.04h0l0,.1c0,4.132-5.749,7.48-12.843,7.48s-12.839-3.348-12.839-7.48l0-.1,0,.813Z" transform="translate(-348.953 -340.177)" fill="#d1ebff"/><path d="M374.625,353c0,4.12-5.746,7.461-12.836,7.461S348.955,357.12,348.955,353s5.746-7.464,12.833-7.464S374.625,348.878,374.625,353Z" transform="translate(-348.949 -345.537)" fill="#fff"/></g></g><g transform="translate(20.87 6.504)"><g transform="translate(84.717)"><g transform="translate(0.006 11.39)" style="mix-blend-mode:multiply;isolation:isolate"><path d="M374.412,327.965v.108l-.006-.108Z" transform="translate(-348.73 -327.965)" fill="url(#i)"/><path d="M366.291,328.072v-.108h0Z" transform="translate(-366.291 -327.965)" fill="url(#j)"/></g><path d="M366.289,326.842h25.682v4.04h0l0,.1c0,4.132-5.749,7.48-12.84,7.48s-12.843-3.348-12.843-7.48l0-.1,0,.813Z" transform="translate(-366.289 -319.005)" fill="#d1ebff"/><ellipse cx="12.834" cy="7.462" rx="12.834" ry="7.462" transform="translate(0.008)" fill="#fff"/></g><g transform="translate(56.478 16.509)"><g transform="translate(0.006 11.39)" style="mix-blend-mode:multiply;isolation:isolate"><path d="M365.485,333.183v.108l0-.108Z" transform="translate(-339.803 -333.183)" fill="url(#k)"/><path d="M357.366,333.291v-.108h0Z" transform="translate(-357.366 -333.183)" fill="url(#l)"/></g><path d="M357.364,332.059h25.682v4.04h0l0,.1c0,4.129-5.749,7.477-12.839,7.477s-12.843-3.347-12.843-7.477l.006-.1-.006.813Z" transform="translate(-357.364 -324.225)" fill="#d1ebff"/><path d="M383.036,337.044c0,4.12-5.746,7.461-12.833,7.461s-12.836-3.341-12.836-7.461,5.749-7.461,12.836-7.461S383.036,332.924,383.036,337.044Z" transform="translate(-357.36 -329.583)" fill="#fff"/></g><g transform="translate(28.239 33.016)"><g transform="translate(0.006 11.39)" style="mix-blend-mode:multiply;isolation:isolate"><path d="M356.56,338.4v.108l0-.108Z" transform="translate(-330.878 -338.4)" fill="url(#m)"/><path d="M348.441,338.508V338.4h0Z" transform="translate(-348.441 -338.4)" fill="url(#n)"/></g><path d="M348.439,337.277h25.685v4.04h-.006l.006.1c0,4.129-5.752,7.48-12.843,7.48s-12.843-3.351-12.843-7.48l.006-.1-.006.813Z" transform="translate(-348.439 -329.44)" fill="#d1ebff"/><ellipse cx="12.834" cy="7.462" rx="12.834" ry="7.462" transform="translate(0.008)" fill="#fff"/></g><g transform="translate(0 49.523)"><g transform="translate(0.006 11.39)" style="mix-blend-mode:multiply;isolation:isolate"><path d="M347.635,343.617v.111l0-.111Z" transform="translate(-321.953 -343.617)" fill="url(#o)"/><path d="M339.516,343.728v-.111h0Z" transform="translate(-339.516 -343.617)" fill="url(#p)"/></g><path d="M339.514,342.494H365.2v4.04h-.006l.006.1c0,4.129-5.752,7.477-12.843,7.477s-12.843-3.348-12.843-7.477l.006-.1-.006.813Z" transform="translate(-339.514 -334.657)" fill="#d1ebff"/><path d="M365.183,347.481c0,4.12-5.746,7.461-12.833,7.461s-12.833-3.341-12.833-7.461,5.746-7.464,12.833-7.464S365.183,343.358,365.183,347.481Z" transform="translate(-339.507 -340.017)" fill="#fff"/></g></g></g></g></svg>