<svg xmlns="http://www.w3.org/2000/svg" width="210" height="223" viewBox="0 0 210 223"><g transform="translate(-265 -5416)"><rect width="210" height="223" transform="translate(265 5416)" fill="none"/><g transform="translate(11158.508 11667.113)"><g transform="translate(-10837.902 -6241.113)"><g transform="translate(27.054 0)"><g transform="translate(13.436)"><path d="M673.646,935.325v97.552a10.917,10.917,0,0,1-10.885,10.885H604.777a10.764,10.764,0,0,1-4.369-.922,10.923,10.923,0,0,1-6.516-9.964V935.325a10.917,10.917,0,0,1,10.885-10.885h57.983A10.915,10.915,0,0,1,673.646,935.325Z" transform="translate(-593.892 -924.44)" fill="#fcecdb"/><path d="M805.5,1007.79a11.849,11.849,0,1,1,15.258-6.927A11.848,11.848,0,0,1,805.5,1007.79Z" transform="translate(-751.43 -971.106)" fill="#f7e0cb"/><path d="M823.336,1000.862l-22.185-8.33a11.849,11.849,0,0,1,22.185,8.33Z" transform="translate(-754.01 -971.106)" fill="#efcbab"/><path d="M640.765,1005.885a11.849,11.849,0,1,1,16.672-1.686A11.848,11.848,0,0,1,640.765,1005.885Z" transform="translate(-626.739 -971.115)" fill="#f7e0cb"/><path d="M666.509,1004.2l-18.358-14.986a11.849,11.849,0,1,1,18.358,14.986Z" transform="translate(-635.81 -971.115)" fill="#efcbab"/><path d="M805.5,1325.575a11.849,11.849,0,1,1,15.258-6.927A11.848,11.848,0,0,1,805.5,1325.575Z" transform="translate(-751.43 -1216.611)" fill="#f7e0cb"/><path d="M823.336,1322.188l-22.185-8.33a11.849,11.849,0,1,1,22.185,8.33Z" transform="translate(-754.01 -1219.346)" fill="#efcbab"/><circle cx="11.849" cy="11.849" r="11.849" transform="matrix(0.919, -0.394, 0.394, 0.919, 5.964, 91.643)" fill="#f7e0cb"/><path d="M666.509,1325.525l-18.358-14.986a11.849,11.849,0,1,1,18.358,14.986Z" transform="translate(-635.81 -1219.355)" fill="#efcbab"/><g transform="translate(46.382 51.226)"><path d="M814.74,1172.216a11.849,11.849,0,1,1,5.633-15.782A11.848,11.848,0,0,1,814.74,1172.216Z" transform="translate(-797.814 -1149.657)" fill="#f7e0cb"/><path d="M820.373,1156.434l-21.414,10.149a11.849,11.849,0,0,1,21.414-10.149Z" transform="translate(-797.814 -1149.657)" fill="#efcbab"/></g><path d="M637.251,1157.1a11.849,11.849,0,1,1,6.6,15.4A11.848,11.848,0,0,1,637.251,1157.1Z" transform="translate(-626.731 -1098.429)" fill="#f7e0cb"/><path d="M669.149,1175.4l8.806-22a11.849,11.849,0,0,1-8.806,22Z" transform="translate(-652.032 -1101.321)" fill="#efcbab"/><path d="M716.912,1030.994v84.889a10.111,10.111,0,0,1-9.96,10.2H653.894a9.651,9.651,0,0,1-4-.864v-82.472a11.85,11.85,0,0,1,3.65-8.573,11.534,11.534,0,0,1,2.8-1.984,11.153,11.153,0,0,1,5.024-1.194Z" transform="translate(-637.158 -1006.758)" fill="#efcbab" opacity="0.5"/></g><g transform="translate(28.069 24.784)"><g transform="translate(0 0)"><rect width="119.324" height="79.754" rx="39.877" transform="translate(79.754) rotate(90)" fill="#fcecdb"/><path d="M869.83,1116.757a11.849,11.849,0,1,1,15.258-6.927A11.848,11.848,0,0,1,869.83,1116.757Z" transform="translate(-815.761 -1080.072)" fill="#f7e0cb"/><path d="M887.668,1109.83l-22.186-8.33a11.849,11.849,0,1,1,22.186,8.33Z" transform="translate(-818.341 -1080.072)" fill="#efcbab"/><path d="M705.1,1114.853a11.849,11.849,0,1,1,16.672-1.686A11.848,11.848,0,0,1,705.1,1114.853Z" transform="translate(-691.07 -1080.082)" fill="#f7e0cb"/><path d="M730.841,1113.167l-18.358-14.986a11.849,11.849,0,0,1,18.358,14.986Z" transform="translate(-700.141 -1080.082)" fill="#efcbab"/><path d="M869.83,1434.543a11.849,11.849,0,1,1,15.258-6.927A11.848,11.848,0,0,1,869.83,1434.543Z" transform="translate(-815.761 -1325.577)" fill="#f7e0cb"/><path d="M887.668,1431.156l-22.186-8.33a11.849,11.849,0,0,1,22.186,8.33Z" transform="translate(-818.341 -1328.312)" fill="#efcbab"/><path d="M705.1,1432.638a11.849,11.849,0,1,1,16.672-1.686A11.848,11.848,0,0,1,705.1,1432.638Z" transform="translate(-691.07 -1325.587)" fill="#f7e0cb"/><path d="M730.841,1434.493l-18.358-14.986a11.849,11.849,0,0,1,18.358,14.986Z" transform="translate(-700.141 -1328.321)" fill="#efcbab"/><g transform="translate(46.382 51.227)"><path d="M879.071,1281.184A11.849,11.849,0,1,1,884.7,1265.4,11.849,11.849,0,0,1,879.071,1281.184Z" transform="translate(-862.145 -1258.625)" fill="#f7e0cb"/><path d="M884.7,1265.4l-21.415,10.149A11.849,11.849,0,1,1,884.7,1265.4Z" transform="translate(-862.145 -1258.625)" fill="#efcbab"/></g><circle cx="11.849" cy="11.849" r="11.849" transform="translate(5.517 58.11) rotate(-27.755)" fill="#f7e0cb"/><path d="M733.48,1284.367l8.806-22a11.849,11.849,0,0,1-8.806,22Z" transform="translate(-716.363 -1210.288)" fill="#efcbab"/></g></g><g transform="translate(0 63.695)"><rect width="91.069" height="135.909" transform="translate(7.779 0.001)" fill="#ef7e29"/><rect width="91.069" height="135.91" transform="translate(20.464)" fill="#f99746"/><path d="M581.7,1212.37l-4.364,6.787h-8.321v-14.674H581.7Z" transform="translate(-561.24 -1204.483)" fill="#d8661a"/><path d="M547.5,1215.19H534.818l7.779-10.707h12.684Z" transform="translate(-534.818 -1204.483)" fill="#f99746"/><path d="M671.761,1361.861h-46.97v-130.15l46.97,4.514Z" transform="translate(-604.327 -1225.517)" fill="#efcbab" opacity="0.5"/><path d="M715.86,1215.188l-7.389,3.967h-79.29l-4.39-6.787v-7.887Z" transform="translate(-604.327 -1204.48)" fill="#ef7e29"/><path d="M722.289,1215.19H631.221l-6.433-10.707h91.069Z" transform="translate(-604.324 -1204.483)" fill="#f99746"/></g></g><g transform="translate(0 118.055)"><rect width="120.015" height="81.365" rx="40.682" fill="#fcecdb"/><path d="M499.711,1503.184a11.868,11.868,0,0,1-15.346,7.067,12.139,12.139,0,0,1-6.968-15.566,11.87,11.87,0,0,1,15.346-7.067A12.141,12.141,0,0,1,499.711,1503.184Z" transform="translate(-462.813 -1476.98)" fill="#f7e0cb"/><path d="M492.743,1487.618l-8.378,22.633a12.139,12.139,0,0,1-6.968-15.566A11.87,11.87,0,0,1,492.743,1487.618Z" transform="translate(-462.813 -1476.98)" fill="#efcbab"/><path d="M497.795,1671.262a11.8,11.8,0,0,1-16.769,1.72,12.206,12.206,0,0,1-1.7-17.009,11.8,11.8,0,0,1,16.769-1.719A12.208,12.208,0,0,1,497.795,1671.262Z" transform="translate(-462.822 -1604.208)" fill="#f7e0cb"/><path d="M496.1,1654.254l-15.073,18.728a12.206,12.206,0,0,1-1.7-17.009A11.8,11.8,0,0,1,496.1,1654.254Z" transform="translate(-462.822 -1604.208)" fill="#efcbab"/><path d="M819.337,1503.184a11.868,11.868,0,0,1-15.346,7.067,12.139,12.139,0,0,1-6.968-15.566,11.87,11.87,0,0,1,15.346-7.067A12.141,12.141,0,0,1,819.337,1503.184Z" transform="translate(-709.74 -1476.98)" fill="#f7e0cb"/><path d="M812.382,1487.618,804,1510.251a12.139,12.139,0,0,1-6.968-15.566A11.871,11.871,0,0,1,812.382,1487.618Z" transform="translate(-709.75 -1476.98)" fill="#efcbab"/><path d="M817.421,1671.259a11.8,11.8,0,0,1-16.234,2.132c-.182-.128-.358-.268-.534-.413a12.2,12.2,0,0,1-1.7-17.008,11.8,11.8,0,0,1,16.768-1.719c.173.145.341.29.506.444A12.21,12.21,0,0,1,817.421,1671.259Z" transform="translate(-709.75 -1604.205)" fill="#f7e0cb"/><path d="M816.232,1654.7l-15.045,18.7c-.182-.128-.358-.268-.534-.413a12.2,12.2,0,0,1-1.7-17.008,11.8,11.8,0,0,1,16.768-1.719C815.9,1654.4,816.067,1654.542,816.232,1654.7Z" transform="translate(-709.75 -1604.205)" fill="#efcbab"/><g transform="translate(51.524 9.864)"><path d="M665.089,1493.759a12.163,12.163,0,0,1-5.665,16.1,11.844,11.844,0,0,1-15.873-5.746,12.165,12.165,0,0,1,5.665-16.1A11.846,11.846,0,0,1,665.089,1493.759Z" transform="translate(-642.4 -1486.845)" fill="#f7e0cb"/><path d="M649.216,1491.977l10.208,21.847a11.844,11.844,0,0,1-15.873-5.746A12.165,12.165,0,0,1,649.216,1491.977Z" transform="translate(-642.4 -1490.81)" fill="#efcbab"/></g><path d="M649.889,1674.829a12.146,12.146,0,0,1-6.636-15.714,11.861,11.861,0,0,1,15.493-6.731,12.148,12.148,0,0,1,6.636,15.714A11.864,11.864,0,0,1,649.889,1674.829Z" transform="translate(-590.874 -1604.196)" fill="#f7e0cb"/><path d="M668.292,1668.1l-22.128-8.984a11.861,11.861,0,0,1,15.493-6.731A12.148,12.148,0,0,1,668.292,1668.1Z" transform="translate(-593.784 -1604.196)" fill="#efcbab"/></g></g><g transform="translate(-10883.508 -6224.199)"><g transform="translate(0 0)"><path d="M2464.312,1502.092l-38.461-.012-20.344-.005a14.4,14.4,0,0,1-14.351-14.365l.045-142.115a14.393,14.393,0,0,1,14.359-14.351l18.042.006,40.763.011a14.4,14.4,0,0,1,14.351,14.362l-.041,142.116A14.4,14.4,0,0,1,2464.312,1502.092Z" transform="translate(-2389.357 -1318.967)" fill="#c0d8fb" opacity="0.5"/><path d="M2478.271,1588.058l-1.021-7.479h0l-1.021-7.483a7.03,7.03,0,0,0-7.89-6c-.212.029-.418.07-.622.117a6.94,6.94,0,0,0,1.2-3.313,7,7,0,0,0,13.278-4.322l-1.757-7.342h0l-1.757-7.344a7.008,7.008,0,0,0-13.632,3.262l2.647,11.064a6.936,6.936,0,0,0-5.528-2.977,19.2,19.2,0,0,0-1.457-14.781l-11.639-9.62a7.005,7.005,0,0,0-9.551,10.215,6.937,6.937,0,0,0-1.868.24l-7.284,1.993h0l-7.281,1.992a7.021,7.021,0,0,0-4.953,5.106l-.765-1.831h0l-2.91-6.966a7.008,7.008,0,0,0-12.934,5.4l2.91,6.966h0l1.865,4.464a7.025,7.025,0,0,0-4.428,6.155l-.381,7.539h0l-.382,7.542a6.984,6.984,0,0,0,9.011,7.057,7.073,7.073,0,0,0-.557,4.737,6.958,6.958,0,0,0-2.971,3.375l-2.883,6.977h0l-2.885,6.979a25.375,25.375,0,0,1,13.806,10.234,7.027,7.027,0,0,0,9.825-1.305l4.588-5.995h0l4.591-6a4.573,4.573,0,0,1,5.919-3.863l1.2-.829-1.665,2.176h0l-4.59,5.994a7.009,7.009,0,0,0,11.131,8.52l4.589-5.994h0l4.591-6c.059-.077.108-.159.163-.237a7,7,0,0,0,1.343,1.58l-1.634,2.135a7.009,7.009,0,0,0,11.131,8.52l9.179-11.991a6.985,6.985,0,0,0-2.98-10.766c.086-.009.169-.01.255-.021A7.027,7.027,0,0,0,2478.271,1588.058Zm-63.157-6.688.13-2.572a6.71,6.71,0,0,0,2.609,2.534l-3.211,2.215A6.933,6.933,0,0,0,2415.114,1581.37Zm47.228-6.38,1.372,10.059a7.025,7.025,0,0,0-7.276-3.855,6.939,6.939,0,0,0,1.909-1.708l3.939-5.147C2462.3,1574.555,2462.312,1574.772,2462.342,1574.99Zm-15.941-27.174,1.766,1.46-1.818,1.253A6.932,6.932,0,0,0,2446.4,1547.816Zm1.523,22.225a1.888,1.888,0,0,1,.267-3.754l5.523-3.809Zm4.584,13.114a7.058,7.058,0,0,0-5.283-1.594l.149-1.887a3.6,3.6,0,1,1,5.134,3.48Zm-14.119-26.525a7.027,7.027,0,0,0,.053,7.866c.03.044.065.083.1.127a1.54,1.54,0,1,1-1.163-2.319,6.99,6.99,0,0,0-2.678-4.644c-.007,0-.015-.009-.021-.014Zm-6.977,16.852,2.7-3.531c-.038.218-.069.439-.087.664l-.512,6.484a7.018,7.018,0,0,0-3.56-1.714l1.455-1.9Zm-12.654,29.622.794-1.92a6.949,6.949,0,0,0,.335-4.263c.16-.093.32-.187.476-.293l12.431-8.574c.08-.055.151-.117.229-.176a7.015,7.015,0,0,0,.79,1.917l-2.213,1.527a10.591,10.591,0,0,1-9.092,6.882Zm32.976-8.64.388,1.621a6.977,6.977,0,0,0-1.941-.55Zm14.8,1.637-.541-2.258h0l-.1-.43a1.777,1.777,0,1,1,.644,2.688Zm-42.453-36.107-3.8,4.968h0l-4.589,5.994c-.021.027-.037.057-.057.085l.24-4.753c.006-.122,0-.241,0-.363.216-.066.431-.142.643-.23a4.8,4.8,0,0,1,7.567-5.7Z" transform="translate(-2395.161 -1445.223)" fill="#afcdfb"/><path d="M2425.851,1502.08l-20.344-.005a14.4,14.4,0,0,1-14.351-14.365l.045-142.115a14.393,14.393,0,0,1,14.359-14.351l18.042.006a17.6,17.6,0,0,1,2.355,8.877l-.048,160.52Q2425.909,1501.373,2425.851,1502.08Z" transform="translate(-2389.357 -1318.967)" fill="#afcdfb" opacity="0.5"/><path d="M2474.65,1316.654l-54.622-.017-31-.012a2.8,2.8,0,0,1-2.791-2.793l0-13.383a2.8,2.8,0,0,1,2.792-2.79l30.958.009H2420l54.66.015a2.8,2.8,0,0,1,2.79,2.792l0,13.384A2.8,2.8,0,0,1,2474.65,1316.654Z" transform="translate(-2386.235 -1297.659)" fill="#f99746"/><path d="M2420.027,1316.637l-31-.012a2.8,2.8,0,0,1-2.791-2.793l0-13.383a2.8,2.8,0,0,1,2.792-2.79l30.958.009H2420a2.8,2.8,0,0,1,2.784,2.792l0,13.384A2.8,2.8,0,0,1,2420.027,1316.637Z" transform="translate(-2386.235 -1297.659)" fill="#ef7e29"/></g></g><g transform="translate(-10875.97 -6109.797)"><g transform="translate(59.356 37.845)"><path d="M1340.322,1731.966a15.714,15.714,0,0,1-15.66,15.66h-73.945a15.657,15.657,0,0,1,0-31.314h73.945A15.7,15.7,0,0,1,1340.322,1731.966Z" transform="translate(-1235.064 -1716.312)" fill="#7e5ee3"/><path d="M1302.177,1731.966a15.7,15.7,0,0,1-15.654,15.66h-35.8a15.657,15.657,0,0,1,0-31.314h35.8A15.7,15.7,0,0,1,1302.177,1731.966Z" transform="translate(-1235.064 -1716.312)" fill="#699ff0"/><rect width="74.971" height="4.938" rx="2.469" transform="translate(18.1 3.472)" fill="#e9f3fe" opacity="0.4"/></g><path d="M1174.2,1621.93a16.659,16.659,0,0,1-7.4,22.28l-70.086,35.122a16.6,16.6,0,0,1-14.873-29.68l70.086-35.122A16.65,16.65,0,0,1,1174.2,1621.93Z" transform="translate(-1072.689 -1612.781)" fill="#ef7e29"/><path d="M1138.049,1671.491a16.649,16.649,0,0,1-7.4,22.278l-33.936,17.007a16.6,16.6,0,0,1-14.873-29.68l33.936-17.007A16.645,16.645,0,0,1,1138.049,1671.491Z" transform="translate(-1072.689 -1644.224)" fill="#f99746"/><path d="M1181.275,1629.192l-66.852,33.5a2.359,2.359,0,0,1-3.157-1.049l-.238-.474a2.36,2.36,0,0,1,1.049-3.157l66.852-33.5a2.36,2.36,0,0,1,3.158,1.049l.237.474A2.359,2.359,0,0,1,1181.275,1629.192Z" transform="translate(-1096.856 -1620.066)" fill="#ffe2cc" opacity="0.5"/></g><g transform="translate(-10827.146 -6061.115)"><path d="M2623.487,1748.374a11.771,11.771,0,0,1-11.732,11.732h-55.4a11.73,11.73,0,0,1,0-23.46h55.4A11.766,11.766,0,0,1,2623.487,1748.374Z" transform="translate(-2544.627 -1736.646)" fill="#ef7e29"/><path d="M2594.909,1748.374a11.766,11.766,0,0,1-11.729,11.732h-26.824a11.73,11.73,0,0,1,0-23.46h26.824A11.763,11.763,0,0,1,2594.909,1748.374Z" transform="translate(-2544.627 -1736.646)" fill="#f99746"/><path d="M1.85,0H54.318a1.85,1.85,0,0,1,1.85,1.85v0a1.85,1.85,0,0,1-1.85,1.85H1.85A1.85,1.85,0,0,1,0,1.85v0A1.85,1.85,0,0,1,1.85,0Z" transform="translate(13.561 2.601)" fill="#ffe2cc" opacity="0.5"/></g></g></g></svg>