<svg xmlns="http://www.w3.org/2000/svg" width="210" height="295" viewBox="0 0 210 295"><g transform="translate(-265 -5794)"><rect width="210" height="295" transform="translate(265 5794)" fill="none"/><g transform="translate(10415.958 11601.063)"><g transform="translate(-10150.958 -5618.733)"><g transform="translate(0 0)"><path d="M2424.454,1409.007l-17.506-.005-9.26,0a6.555,6.555,0,0,1-6.532-6.538l.021-64.685a6.551,6.551,0,0,1,6.535-6.532l8.212,0,18.553.005a6.553,6.553,0,0,1,6.532,6.537l-.019,64.686A6.555,6.555,0,0,1,2424.454,1409.007Z" transform="translate(-2390.338 -1325.655)" fill="#c0d8fb" opacity="0.5"/><path d="M2435.79,1556.558l-.464-3.4h0l-.465-3.406a3.2,3.2,0,0,0-3.592-2.729c-.1.013-.19.032-.283.053a3.159,3.159,0,0,0,.548-1.508,3.188,3.188,0,0,0,6.044-1.967l-.8-3.342h0l-.8-3.343a3.19,3.19,0,0,0-6.2,1.485l1.205,5.036a3.156,3.156,0,0,0-2.516-1.355,8.738,8.738,0,0,0-.663-6.728l-5.3-4.379a3.189,3.189,0,0,0-4.347,4.65,3.157,3.157,0,0,0-.85.109l-3.315.907h0l-3.314.907a3.2,3.2,0,0,0-2.254,2.324l-.348-.833h0l-1.324-3.171a3.19,3.19,0,0,0-5.887,2.459l1.324,3.17h0l.849,2.032a3.2,3.2,0,0,0-2.015,2.8l-.173,3.432h0l-.174,3.433a3.179,3.179,0,0,0,4.1,3.212,3.217,3.217,0,0,0-.253,2.156,3.167,3.167,0,0,0-1.353,1.536l-1.312,3.176h0l-1.313,3.177a11.549,11.549,0,0,1,6.284,4.658,3.2,3.2,0,0,0,4.472-.594l2.088-2.729h0l2.09-2.729a2.082,2.082,0,0,1,2.694-1.758l.548-.377-.758.99h0l-2.089,2.728a3.19,3.19,0,0,0,5.066,3.878l2.089-2.728h0l2.089-2.73c.027-.035.049-.072.074-.108a3.178,3.178,0,0,0,.611.719l-.744.972a3.19,3.19,0,0,0,5.066,3.878l4.178-5.458a3.179,3.179,0,0,0-1.356-4.9c.039,0,.077,0,.116-.01A3.2,3.2,0,0,0,2435.79,1556.558Zm-28.746-3.044.059-1.171a3.058,3.058,0,0,0,1.188,1.153l-1.461,1.008A3.154,3.154,0,0,0,2407.044,1553.514Zm21.5-2.9.625,4.579a3.2,3.2,0,0,0-3.312-1.755,3.156,3.156,0,0,0,.869-.778l1.793-2.343C2428.519,1550.412,2428.526,1550.511,2428.54,1550.61Zm-7.256-12.368.8.664-.827.57A3.155,3.155,0,0,0,2421.284,1538.242Zm.693,10.116a.859.859,0,0,1,.121-1.709l2.514-1.734Zm2.086,5.969a3.212,3.212,0,0,0-2.4-.725l.068-.859a1.638,1.638,0,1,1,2.337,1.584Zm-6.426-12.073a3.2,3.2,0,0,0,.024,3.58c.014.02.03.038.044.058a.7.7,0,1,1-.53-1.055,3.181,3.181,0,0,0-1.219-2.114l-.01-.007Zm-3.175,7.67,1.23-1.607c-.018.1-.031.2-.04.3l-.233,2.951a3.2,3.2,0,0,0-1.62-.78l.663-.866Zm-5.76,13.483.361-.874a3.165,3.165,0,0,0,.153-1.94c.073-.042.146-.085.217-.133l5.658-3.9c.036-.025.069-.053.1-.08a3.187,3.187,0,0,0,.36.873l-1.007.695a4.82,4.82,0,0,1-4.138,3.132Zm15.009-3.932.177.738a3.174,3.174,0,0,0-.884-.25Zm6.738.745-.246-1.028h0l-.047-.2a.809.809,0,1,1,.293,1.223Zm-19.323-16.434-1.731,2.261h0l-2.089,2.728c-.01.012-.017.026-.026.039l.109-2.163c0-.055,0-.11,0-.165.1-.03.2-.065.293-.1a2.187,2.187,0,0,1,3.444-2.6Z" transform="translate(-2397.962 -1491.546)" fill="#afcdfb"/><path d="M2406.948,1409l-9.26,0a6.555,6.555,0,0,1-6.532-6.538l.021-64.685a6.551,6.551,0,0,1,6.535-6.532l8.212,0a8.007,8.007,0,0,1,1.072,4.041l-.021,73.062Q2406.975,1408.679,2406.948,1409Z" transform="translate(-2390.338 -1325.655)" fill="#afcdfb" opacity="0.5"/><path d="M2426.479,1306.3l-24.862-.008-14.111-.005a1.272,1.272,0,0,1-1.27-1.271l0-6.091a1.274,1.274,0,0,1,1.271-1.27l14.091,0h0l24.879.007a1.274,1.274,0,0,1,1.27,1.271v6.092A1.275,1.275,0,0,1,2426.479,1306.3Z" transform="translate(-2386.236 -1297.659)" fill="#f99746"/><path d="M2401.617,1306.3l-14.111-.005a1.272,1.272,0,0,1-1.27-1.271l0-6.091a1.274,1.274,0,0,1,1.271-1.27l14.091,0h0a1.275,1.275,0,0,1,1.267,1.271l0,6.092A1.275,1.275,0,0,1,2401.617,1306.3Z" transform="translate(-2386.236 -1297.659)" fill="#ef7e29"/></g></g><g transform="translate(-10126.398 -5783.063)"><rect width="184.628" height="248.047" transform="translate(0 0)" fill="#cdedfc"/><rect width="165.002" height="228.879" transform="translate(10.827 8.039)" fill="#fff"/><path d="M1552.233,308.7v8.4a8.4,8.4,0,0,0,8.394,8.4h45.091a8.4,8.4,0,0,0,8.395-8.4v-8.4Z" transform="translate(-1492.556 -308.699)" fill="#f99746"/></g><g transform="translate(-10095.861 -5742.773)"><g transform="translate(57.179 169.258)"><path d="M1732.79,1585.094a19.413,19.413,0,0,1-7.178,1.124c-3.06-.255-4.784-1.859-4.852-4.516a6.814,6.814,0,0,1,2.536-5.451q-.025-.215-.041-.432c-.113-1.486.2-2.474.943-2.935,1.2-.745,2.97.274,3.045.318l-.4.679c-.4-.232-1.58-.741-2.233-.33-.563.353-.631,1.325-.582,2.116a16.7,16.7,0,0,1,5.441-2.435,29.2,29.2,0,0,1,5.127-.876c.009-.185.024-.351.044-.486.054-.365.181-.792.539-.877a.592.592,0,0,1,.634.332,1.892,1.892,0,0,1,.241.955c.57-.013,1.1,0,1.568.031l.013-.03a9,9,0,0,1,.121-2.737c.2-.91.525-1.37.983-1.415a.6.6,0,0,1,.623.385c.256.617-.224,2.284-.919,3.883a.041.041,0,0,0,0,.009c.651.11,1.094.29,1.233.542a.586.586,0,0,1-.159.737.928.928,0,0,1-1.15.247,1.125,1.125,0,0,1-.421-.482,8.23,8.23,0,0,1-1.55,2.307.774.774,0,0,1-.915.133.845.845,0,0,1-.2-.159,10.768,10.768,0,0,1-.6,1.239c-.822,1.443-1.748,2.186-2.678,2.141a1.514,1.514,0,0,1-1-.444,14.562,14.562,0,0,1-1.8,2.965,2.111,2.111,0,0,1-2.348.832c-1.525-.477-2.9-2.682-3.42-5.3a5.894,5.894,0,0,0-1.893,4.513c.059,2.267,1.449,3.529,4.132,3.752,6.771.564,18.644-5.732,19.544-10.364h0C1744.489,1578.837,1738.855,1583.128,1732.79,1585.094Zm-8.661-8.529c.412,2.757,1.793,4.783,2.964,5.149a1.34,1.34,0,0,0,1.5-.577,13.547,13.547,0,0,0,1.893-3.236,4.771,4.771,0,0,1-.327-1.026,7.386,7.386,0,0,1,0-3.012,19.861,19.861,0,0,0-3.706,1.29A12.157,12.157,0,0,0,1724.129,1576.565Zm7.229,1.289a.9.9,0,0,0,.691.471c.595.025,1.311-.609,1.96-1.746a10.375,10.375,0,0,0,.811-1.832,7.765,7.765,0,0,1-.221-1.6c-.871.07-1.821.188-2.8.365C1732.309,1574.507,1732.014,1576.184,1731.357,1577.854Zm4.282-3.093c.122.37.232.441.233.442a7.378,7.378,0,0,0,1.4-2.126c-.373-.014-.794-.016-1.252,0A9.574,9.574,0,0,1,1735.639,1574.762Zm-4.614-1.01a6.017,6.017,0,0,0-.1,2.939C1731.32,1575.389,1731.4,1574.262,1731.026,1573.752Zm7.739-.5h0Zm-.116-4.034a4.9,4.9,0,0,0-.186.823A6.034,6.034,0,0,0,1738.648,1569.217Z" transform="translate(-1720.757 -1568.125)" fill="#f99746"/></g><g transform="translate(0 35.054)"><g transform="translate(0 5.117)"><path d="M1406.94,822.12H1377.1V792.278h29.842Zm-28.437-1.406h27.031V793.684H1378.5Z" transform="translate(-1377.098 -792.278)" fill="#abddda"/></g><g transform="translate(4.345)"><path d="M1414.532,790.486a2.109,2.109,0,0,1-1.625-.765l-9.209-11.14a2.108,2.108,0,1,1,3.25-2.687l7.3,8.835,13.212-22.175a2.108,2.108,0,0,1,3.623,2.158l-14.743,24.744a2.108,2.108,0,0,1-1.65,1.023C1414.639,790.484,1414.585,790.486,1414.532,790.486Z" transform="translate(-1403.215 -761.525)" fill="#f99746"/></g></g><g transform="translate(0 81.457)"><g transform="translate(0 5.374)"><path d="M1406.94,1102.564H1377.1v-29.842h29.842Zm-28.437-1.406h27.031v-27.031H1378.5Z" transform="translate(-1377.098 -1072.722)" fill="#abddda"/></g><g transform="translate(4.345)"><path d="M1414.532,1069.384a2.109,2.109,0,0,1-1.625-.765l-9.209-11.14a2.108,2.108,0,0,1,3.25-2.687l7.3,8.834,13.212-22.175a2.108,2.108,0,0,1,3.623,2.158l-14.743,24.744a2.107,2.107,0,0,1-1.65,1.023C1414.639,1069.382,1414.585,1069.384,1414.532,1069.384Z" transform="translate(-1403.215 -1040.423)" fill="#f99746"/></g></g><g transform="translate(0 126.713)"><g transform="translate(0 5.813)"><path d="M1406.94,1377.2H1377.1v-29.842h29.842Zm-28.437-1.405h27.031v-27.031H1378.5Z" transform="translate(-1377.098 -1347.357)" fill="#abddda"/></g><g transform="translate(4.345)"><path d="M1414.532,1341.38a2.109,2.109,0,0,1-1.625-.765l-9.209-11.14a2.108,2.108,0,0,1,3.25-2.687l7.3,8.835,13.212-22.175a2.108,2.108,0,0,1,3.623,2.158l-14.743,24.744a2.108,2.108,0,0,1-1.65,1.023C1414.639,1341.378,1414.585,1341.38,1414.532,1341.38Z" transform="translate(-1403.215 -1312.419)" fill="#f99746"/></g></g><g transform="translate(49.954 47.134)" opacity="0.5"><rect width="38.913" height="2.912" fill="#abddda"/><rect width="8.844" height="2.912" transform="translate(63.133)" fill="#abddda"/><g transform="translate(0 13.005)"><rect width="38.913" height="2.912" fill="#abddda"/><rect width="13.186" height="2.912" transform="translate(58.792)" fill="#abddda"/></g><g transform="translate(0 6.502)"><rect width="10.838" height="2.912" transform="translate(61.139)" fill="#abddda"/><rect width="10.838" height="2.912" transform="translate(28.749)" fill="#abddda"/><rect width="24.082" height="2.912" fill="#abddda"/></g></g><g transform="translate(49.954 91.948)" opacity="0.5"><rect width="37.428" height="2.912" fill="#abddda"/><g transform="translate(0 13.004)"><rect width="38.913" height="2.912" fill="#abddda"/></g><g transform="translate(0 6.502)"><rect width="10.071" height="2.912" transform="translate(26.872)" fill="#abddda"/><rect width="24.082" height="2.912" fill="#abddda"/></g></g><g transform="translate(49.954 138.033)" opacity="0.5"><rect width="38.913" height="2.912" fill="#abddda"/><g transform="translate(0 13.004)"><rect width="38.913" height="2.912" fill="#abddda"/></g><g transform="translate(0 6.502)"><rect width="16.923" height="2.912" transform="translate(26.872)" fill="#abddda"/><rect width="24.082" height="2.912" fill="#abddda"/></g></g><g transform="translate(0 178.321)"><rect width="20.414" height="2.066" fill="#abddda"/><rect width="20.414" height="2.066" transform="translate(25.143)" fill="#abddda"/><rect width="28.312" height="2.066" transform="translate(0 4.585)" fill="#abddda"/></g></g><g transform="translate(-10146.509 -5566.086)"><g transform="translate(27.016 17.226)"><path d="M1282.973,1723.436a7.153,7.153,0,0,1-7.128,7.128h-33.657a7.126,7.126,0,0,1,0-14.253h33.657A7.148,7.148,0,0,1,1282.973,1723.436Z" transform="translate(-1235.064 -1716.311)" fill="#7e5ee3"/><path d="M1265.611,1723.436a7.148,7.148,0,0,1-7.125,7.128h-16.3a7.126,7.126,0,0,1,0-14.253h16.3A7.146,7.146,0,0,1,1265.611,1723.436Z" transform="translate(-1235.064 -1716.311)" fill="#699ff0"/><rect width="34.123" height="2.248" rx="1.124" transform="translate(8.238 1.58)" fill="#e9f3fe" opacity="0.4"/></g><path d="M1118.895,1616.945a7.583,7.583,0,0,1-3.37,10.141l-31.9,15.986a7.555,7.555,0,0,1-6.77-13.509l31.9-15.986A7.578,7.578,0,0,1,1118.895,1616.945Z" transform="translate(-1072.689 -1612.78)" fill="#ef7e29"/><path d="M1102.438,1666.5a7.578,7.578,0,0,1-3.368,10.14l-15.446,7.741a7.555,7.555,0,0,1-6.77-13.509l15.446-7.741A7.576,7.576,0,0,1,1102.438,1666.5Z" transform="translate(-1072.689 -1654.094)" fill="#f99746"/><path d="M1142.867,1626.506l-30.428,15.249a1.074,1.074,0,0,1-1.437-.478l-.108-.216a1.074,1.074,0,0,1,.478-1.437l30.428-15.248a1.074,1.074,0,0,1,1.437.478l.108.216A1.074,1.074,0,0,1,1142.867,1626.506Z" transform="translate(-1104.443 -1622.352)" fill="#ffe2cc" opacity="0.5"/></g><g transform="translate(-10062.021 -5701.198)"><g transform="translate(65.52 25.595)"><path d="M2168.354,1219.276s1.513,4.661,1.384,5.726a20.763,20.763,0,0,1-1.759,5.64c-.679.932-1.013-3.8-1.551-4.508s-.11,1.781-.489,2.011-1.168-1.833-1.508-2.561.83-3.413.833-5.284S2168.354,1219.276,2168.354,1219.276Z" transform="translate(-2132.743 -1175.073)" fill="#ffb27d"/><path d="M1974.3,961.744a6.617,6.617,0,0,1,9.97-6.229q.141.086.279.174c6.863,4.417,21.67,25.029,22.689,27.093s4.027,18.491,4.027,18.491-3.717,1.36-5.455-.051c0,0-6.029-15.578-6.92-16.357s-24.112-13.808-24.31-18.692C1974.533,964.882,1974.429,963.329,1974.3,961.744Z" transform="translate(-1974.283 -954.561)" fill="#029db1"/></g><g transform="translate(0 23.532)"><rect width="6.139" height="30.882" transform="translate(7.79 16.576) rotate(-109.196)" fill="#f99746"/><path d="M1580.489,1012.2l7.79.538-2.019-5.8Z" transform="translate(-1580.489 -996.165)" fill="#f9ddbf"/><path d="M1794.522,943.528l.638,1.833a2.161,2.161,0,0,1-1.331,2.752l-1.349.47-2.019-5.8,1.467-.511A2.037,2.037,0,0,1,1794.522,943.528Z" transform="translate(-1755.526 -942.16)" fill="#f9ddbf"/></g><g transform="translate(56.769 73.392)"><path d="M2173.235,1716.824s2.767,2.525,2.227,4.319-3.037,2.99-3.374,5.183-1.687,3.389-2.9,3.389h-5.791s-.894-1.543,1.265-2.008,2.974-3.042,2.839-5.434a42.209,42.209,0,0,1,.2-5.582l4.589-1.063Z" transform="translate(-2123.026 -1636.797)" fill="#233862"/><path d="M1937.95,1750.926s.5,5.747-.718,6.345l-15.546-.032s0-1.794,2.5-2.193,6.884-1.861,7.626-5.117S1937.95,1750.926,1937.95,1750.926Z" transform="translate(-1921.686 -1664.368)" fill="#233862"/><path d="M1940.553,1267.19s.82,10.073,1.784,22.182c1.31,16.448,2.885,36.652,3.041,40.48.269,6.646,1.35,17.278,1.35,17.278s2.563,2.526,7.693,1.461a171.557,171.557,0,0,0,5.877-31.234c.021-.263.041-.528.061-.793,1.215-16.347,3.1-50.768,3.1-50.768Z" transform="translate(-1937.414 -1261.808)" fill="#f99746"/><path d="M1940.553,1267.19s.82,10.073,1.784,22.182l17.962,27.985c.021-.263.041-.528.061-.793,1.215-16.347,3.1-50.768,3.1-50.768Z" transform="translate(-1937.414 -1261.808)" fill="#ef7e29"/><path d="M1963.059,1248.411s14.779,36.481,24.5,53.625,12.755,21.929,12.755,21.929,5.568-2.193,6.074-3.688c0,0-3.716-33.1-10.224-41.166-3.677-4.559-8-18.241-8.2-23.025s-1.316-14.254-1.316-14.254Z" transform="translate(-1956.175 -1241.832)" fill="#f99746"/></g><path d="M1960.982,892.27s-9.9,5.022-15.7,3.347a13.608,13.608,0,0,1,3.84-3.2c-.222-1.153-.4-2.154-.5-3a27.846,27.846,0,0,1-.3-3.073l3.8-3.11,3.6-2.976A14.743,14.743,0,0,0,1960.982,892.27Z" transform="translate(-1884.585 -867.023)" fill="#ffb27d"/><path d="M1945.8,987.964a40.8,40.8,0,0,1-12.213,5.261c-5.225,1.239-11.646.873-13.795,1.2a.892.892,0,0,1-.627-.159c-.169-.086-1.116-6.459-2.066-14.5-.042-.323-.086-.651-.1-.978l-.014-.109c-.369-3.144-.693-6.448-.974-9.759-.229-2.576-.418-5.124-.548-7.518-.165-2.994-.233-5.745-.165-8.008.03-1.034.09-1.964.183-2.771a19.715,19.715,0,0,1,4.917-10.556l1.751-1.992a9.6,9.6,0,0,0,6.058-1.546c2.138-1.408,4.445-2.922,4.881-2.669,3.277,1.793,5.946,6.44,7.851,12.576a69.981,69.981,0,0,1,2.468,11.785c.173,1.317.319,2.669.432,4.014.022.249.04.5.06.743.257,3.679.677,7.126,1.143,10.2.627,4.153,1.339,7.63,1.844,10.08.253,1.247.446,2.211.56,2.9C1947.541,986.765,1946.334,987.629,1945.8,987.964Z" transform="translate(-1859.564 -911.685)" fill="#00bcd4"/><path d="M1971.028,898.285s-2.436,4.656-7.221,6.039a27.847,27.847,0,0,1-.3-3.073l3.8-3.11Z" transform="translate(-1899.775 -881.933)" fill="#ed985f"/><path d="M1942.876,838.01s9.569,1.371,10.347-4.51,2.539-9.665-3.538-10.789-7.563.968-8.308,2.869S1940.406,837.5,1942.876,838.01Z" transform="translate(-1880.911 -818.789)" fill="#ffb27d"/><path d="M1940.281,803.811c.085-.1.283-.185.727-.218a1.8,1.8,0,0,0-.835-.217,2.236,2.236,0,0,0-1.525-1.948,1.334,1.334,0,0,1,.665.949c-1.257-1.241-3.915-2.109-11.213-1.387-9.618.952-6.321,7.056-5.059,7.767s4.361-1.367,6.688-1.229,2.836,3.487,3.633,3.932.471-.364,1.528-.867,1.193,1.262.908,2.417,1.21,2.642,1.21,2.642l1.449-1.624c1.449-1.624,2.711-8.407,2.009-9.834C1940.406,804.067,1940.344,803.939,1940.281,803.811Z" transform="translate(-1864.731 -800.726)" fill="#2c3a64"/><path d="M1932.076,1051.925s-8.068,6.138-16.62,7.484c-.165-2.994-.233-5.745-.165-8.008Z" transform="translate(-1859.564 -1009.693)" fill="#029db1"/><g transform="translate(14.131 27.631)"><path d="M1674.256,980.609c-.127-.137-1.772-5.636-4.617-5.235-1.856.262-4.89,1.336-4.085,3.782.317.962,5.973,4.274,5.973,4.274Z" transform="translate(-1665.421 -973.929)" fill="#ffb27d"/><path d="M1753.59,969.536a6.617,6.617,0,0,1-.693,11.735c-.1.044-.2.086-.3.127-7.574,3.038-32.953,3.18-35.226,2.815s-17.409-7.421-17.409-7.421,1.043-3.818,3.2-4.418c0,0,16.192,4.1,17.343,3.827s25.218-11.667,29.315-9C1750.9,967.9,1752.225,968.719,1753.59,969.536Z" transform="translate(-1694.212 -966.796)" fill="#00bcd4"/></g></g><g transform="translate(-10124.604 -5545.694)"><path d="M2580.521,1741.984a5.358,5.358,0,0,1-5.34,5.34h-25.216a5.339,5.339,0,0,1,0-10.678h25.216A5.355,5.355,0,0,1,2580.521,1741.984Z" transform="translate(-2544.627 -1736.646)" fill="#ef7e29"/><path d="M2567.513,1741.984a5.356,5.356,0,0,1-5.338,5.34h-12.209a5.339,5.339,0,0,1,0-10.678h12.209A5.354,5.354,0,0,1,2567.513,1741.984Z" transform="translate(-2544.627 -1736.646)" fill="#f99746"/><path d="M.842,0H24.723a.842.842,0,0,1,.842.842v0a.842.842,0,0,1-.842.842H.842A.842.842,0,0,1,0,.842v0A.842.842,0,0,1,.842,0Z" transform="translate(6.172 1.184)" fill="#ffe2cc" opacity="0.5"/></g></g></g></svg>