<svg xmlns="http://www.w3.org/2000/svg" width="400" height="184" viewBox="0 0 400 184"><g transform="translate(-180 -6744.393)"><path d="M0,0H400V184H0Z" transform="translate(180 6744.393)" fill="none"/><g transform="translate(192.377 6744.564)"><path d="M84.163,146.738l-13.8,7.969a4.473,4.473,0,0,1-4.012-.167h0c-1.183-.683-1.312-1.725-.288-2.316l13.8-7.969a4.473,4.473,0,0,1,4.013.167h0C85.057,145.1,85.187,146.147,84.163,146.738Z" transform="translate(4.972 15.176)" fill="#92b4d1" opacity="0.183"/><path d="M84.079,153.147l13.8,7.969a4.477,4.477,0,0,0,4.012-.166h0c1.183-.683,1.312-1.725.288-2.316l-13.8-7.969a4.473,4.473,0,0,0-4.013.167h0C83.184,151.513,83.054,152.556,84.079,153.147Z" transform="translate(7.02 15.904)" fill="#92b4d1" opacity="0.167"/><g transform="translate(71.678 156.144)"><path d="M78.912,141.885a2.536,2.536,0,1,1,2.536,4.392l-6,3.466-2.169-4.608Z" transform="translate(-65.807 -141.23)" fill="#421e47"/><g transform="translate(7.475 0.317)"><path d="M78.912,141.885a2.536,2.536,0,1,1,2.536,4.392l-6,3.466-2.169-4.608Z" transform="translate(-73.282 -141.548)" fill="#c0d5ff"/></g><g transform="translate(7.16)"><path d="M75.484,150.091a.305.305,0,0,1-.095-.014.31.31,0,0,1-.19-.166L73.029,145.3a.316.316,0,0,1,.127-.408l5.63-3.251h0a2.852,2.852,0,0,1,2.852,4.939l-6,3.466A.313.313,0,0,1,75.484,150.091Zm-1.761-4.8,1.9,4.036,5.7-3.294a2.22,2.22,0,1,0-2.22-3.847Z" transform="translate(-72.999 -141.263)" fill="none"/></g><path d="M75.1,144.873a.987.987,0,0,0-1.086-.089v0l-.043.026h0l-5.848,3.377a2.536,2.536,0,1,0,2.536,4.393l5.526-3.187a1.407,1.407,0,0,0,.565-1.341A4.15,4.15,0,0,0,75.1,144.873Z" transform="translate(-66.537 -140.876)" fill="#748fff"/><g transform="translate(0 3.468)"><path d="M69.43,153.263a2.906,2.906,0,0,1-.747-.1,2.849,2.849,0,0,1-.688-5.221l5.848-3.377.033-.017a1.3,1.3,0,0,1,1.421.087h0a4.438,4.438,0,0,1,1.8,3.439,1.7,1.7,0,0,1-.733,1.625l-5.516,3.181A2.816,2.816,0,0,1,69.43,153.263Zm4.741-8.158-5.861,3.383a2.218,2.218,0,0,0,.537,4.066,2.2,2.2,0,0,0,1.684-.219l5.526-3.186a1.152,1.152,0,0,0,.408-1.061,3.872,3.872,0,0,0-1.5-2.913h0a.736.736,0,0,0-.747-.1A.31.31,0,0,1,74.171,145.105Z" transform="translate(-66.57 -144.377)" fill="none"/></g></g><g transform="translate(92.187 163.283)"><path d="M89.071,148.294a2.536,2.536,0,1,0-2.536,4.392l6,3.466,2.168-4.608Z" transform="translate(-84.953 -147.64)" fill="#421e47"/><g transform="translate(0.316 0.316)"><path d="M89.071,148.294a2.536,2.536,0,1,0-2.536,4.392l6,3.466,2.168-4.608Z" transform="translate(-85.269 -147.957)" fill="#c0d5ff"/></g><path d="M92.563,156.5a.3.3,0,0,1-.157-.043l-6-3.466a2.851,2.851,0,1,1,2.852-4.938h0l5.63,3.251a.315.315,0,0,1,.127.408l-2.168,4.607a.32.32,0,0,1-.192.167A.305.305,0,0,1,92.563,156.5Zm-4.725-8.2a2.222,2.222,0,0,0-1.113,4.144l5.7,3.294,1.9-4.036-5.379-3.1A2.2,2.2,0,0,0,87.838,148.3Z" transform="translate(-84.985 -147.673)" fill="none"/><path d="M92.93,151.283a.985.985,0,0,1,1.086-.09v0l.043.026h0l5.848,3.377a2.536,2.536,0,1,1-2.536,4.393L91.849,155.8a1.4,1.4,0,0,1-.566-1.34A4.15,4.15,0,0,1,92.93,151.283Z" transform="translate(-84.27 -147.287)" fill="#748fff"/><g transform="translate(6.698 3.468)"><path d="M98.669,159.673a2.833,2.833,0,0,1-1.42-.382L91.723,156.1A1.693,1.693,0,0,1,91,154.486a4.44,4.44,0,0,1,1.8-3.44h0a1.312,1.312,0,0,1,1.389-.106l.016.008,5.9,3.4a2.852,2.852,0,0,1-1.431,5.321Zm-5.543-8.09a3.87,3.87,0,0,0-1.5,2.913,1.154,1.154,0,0,0,.4,1.056l5.536,3.192a2.221,2.221,0,0,0,2.221-3.847l-5.849-3.375v0a.285.285,0,0,1-.063-.032.738.738,0,0,0-.747.1Z" transform="translate(-91 -150.786)" fill="none"/></g></g><g transform="translate(21.623 10.328)"><path d="M78.054,130.625,28.663,159.14,23.32,156.1l49.391-28.516Z" transform="translate(-21.43 2.999)" fill="#92b4d1" opacity="0.154"/><path d="M29.406,159.624l35.05-24.257c3.472-2,6.313-7.433,6.313-12.062L74.048,14.2a48.933,48.933,0,0,0-5.133-2.929,3.865,3.865,0,0,0-4.459.1L28.225,32.294c-3.472,2-6.313,7.433-6.313,12.062V151.513c0,2.48.815,4.249,2.106,5.047C25.137,157.253,27.738,158.661,29.406,159.624Z" transform="translate(-21.59 -10.296)" fill="#c0d5ff"/><path d="M29.439,159.979a.332.332,0,0,1-.16-.042c-.675-.391-1.5-.854-2.324-1.313-1.235-.689-2.4-1.341-3.073-1.756-1.435-.889-2.258-2.828-2.258-5.32V44.389c0-4.743,2.9-10.279,6.474-12.34L64.328,11.131a4.183,4.183,0,0,1,4.782-.1c.4.237.951.52,1.552.832a24.4,24.4,0,0,1,3.619,2.124.328.328,0,0,1,.12.262l-3.28,109.1c0,4.734-2.9,10.27-6.473,12.331L29.622,159.922A.325.325,0,0,1,29.439,159.979Zm37.41-149.01a4.4,4.4,0,0,0-2.2.721L28.419,32.607c-3.392,1.958-6.153,7.244-6.153,11.782V151.547c0,2.264.713,4,1.953,4.773.66.408,1.874,1.087,3.048,1.743.754.421,1.513.845,2.156,1.214l34.883-24.141c3.414-1.972,6.174-7.259,6.174-11.8L73.754,14.391a26.122,26.122,0,0,0-3.387-1.958c-.613-.316-1.173-.607-1.584-.849A3.772,3.772,0,0,0,66.849,10.968Z" transform="translate(-21.623 -10.328)" fill="none"/><g transform="translate(5.252 3.018)"><g transform="translate(0.321 0.32)"><path d="M32.94,158.986l36.232-20.918c3.471-2,6.312-7.433,6.312-12.062V18.85c0-4.629-2.84-6.778-6.312-4.772L32.94,35c-3.472,2-6.313,7.433-6.313,12.062V154.214C26.627,158.844,29.468,160.991,32.94,158.986Z" transform="translate(-26.627 -13.326)" fill="#f6f6f6"/></g><path d="M30.478,160.092a3.535,3.535,0,0,1-1.789-.47c-1.495-.862-2.351-2.822-2.351-5.375V47.09c0-4.744,2.9-10.28,6.474-12.34L69.044,13.832a4.358,4.358,0,0,1,4.443-.325c1.493.863,2.351,2.822,2.351,5.376V126.039c0,4.743-2.9,10.279-6.474,12.34L33.133,159.3h0A5.366,5.366,0,0,1,30.478,160.092ZM71.7,13.683a4.72,4.72,0,0,0-2.333.706L33.133,35.307c-3.392,1.958-6.152,7.244-6.152,11.784V154.247c0,2.316.739,4.074,2.029,4.819a3.75,3.75,0,0,0,3.8-.325l36.232-20.918c3.391-1.959,6.152-7.244,6.152-11.784V18.882c0-2.318-.739-4.074-2.03-4.819A2.891,2.891,0,0,0,71.7,13.683ZM32.973,159.019h0Z" transform="translate(-26.339 -13.038)" fill="none"/></g><g transform="translate(5.573 8.862)"><path d="M75.484,119.046V18.286L26.627,46.494v100.76Z" transform="translate(-26.627 -18.286)" fill="#6abff4"/></g><g transform="translate(28.438 16.518)"><g transform="translate(0.321 0.322)"><path d="M47.447,27.972c0,.915.557,1.335,1.243.939a2.974,2.974,0,0,0,1.242-2.373c0-.915-.556-1.335-1.242-.94A2.977,2.977,0,0,0,47.447,27.972Z" transform="translate(-47.447 -25.449)" fill="#c0d5ff"/></g><path d="M48.228,29.416a.96.96,0,0,1-.479-.127,1.412,1.412,0,0,1-.59-1.284,3.285,3.285,0,0,1,1.4-2.653,1.107,1.107,0,0,1,1.135-.065,1.408,1.408,0,0,1,.59,1.283,3.285,3.285,0,0,1-1.4,2.652A1.31,1.31,0,0,1,48.228,29.416Zm.988-3.613a.709.709,0,0,0-.333.106,2.669,2.669,0,0,0-1.081,2.1.831.831,0,0,0,.268.727.524.524,0,0,0,.491-.067,2.666,2.666,0,0,0,1.082-2.095.832.832,0,0,0-.268-.727A.325.325,0,0,0,49.216,25.8Z" transform="translate(-47.159 -25.16)" fill="none"/></g><g transform="translate(25.842 123.829)"><g transform="translate(0.321 0.321)"><path d="M47.419,132.547l7.487-4.322a5.535,5.535,0,0,0,2.3-4.4h0c0-1.689-1.036-2.472-2.3-1.742l-7.487,4.323a5.539,5.539,0,0,0-2.3,4.4h0C45.116,132.495,46.153,133.279,47.419,132.547Z" transform="translate(-45.116 -121.808)" fill="#c0d5ff"/></g><path d="M46.542,133.175a1.483,1.483,0,0,1-.754-.2,2.351,2.351,0,0,1-.96-2.138,5.878,5.878,0,0,1,2.463-4.678l7.487-4.323a1.788,1.788,0,0,1,1.826-.117,2.352,2.352,0,0,1,.959,2.137,5.881,5.881,0,0,1-2.465,4.68l-7.486,4.323h0A2.167,2.167,0,0,1,46.542,133.175Zm.91-.6h0Zm8.395-10.418a1.54,1.54,0,0,0-.747.233l-7.486,4.322a5.249,5.249,0,0,0-2.143,4.122,1.758,1.758,0,0,0,.638,1.583,1.192,1.192,0,0,0,1.183-.119l7.487-4.322a5.251,5.251,0,0,0,2.143-4.123,1.756,1.756,0,0,0-.638-1.581A.861.861,0,0,0,55.846,122.161Z" transform="translate(-44.828 -121.52)" fill="none"/></g><g transform="translate(2.604 35.14)"><g transform="translate(0.322 0.321)"><path d="M24.25,143.011,26.9,144.54V43.7L24.25,42.17Z" transform="translate(-24.25 -42.17)" fill="#748fff"/></g><path d="M26.93,144.894a.322.322,0,0,1-.16-.043l-2.648-1.528a.323.323,0,0,1-.16-.278V42.2a.321.321,0,0,1,.482-.278l2.648,1.529a.323.323,0,0,1,.16.278v100.84a.322.322,0,0,1-.322.322ZM24.6,142.858l2.006,1.157V43.918L24.6,42.76Z" transform="translate(-23.961 -41.882)" fill="none"/></g><path d="M26.66,147.609a.323.323,0,0,0,.161-.043l48.856-28.208a.32.32,0,0,0,.161-.278V18.319a.322.322,0,0,0-.482-.278L26.5,46.248a.323.323,0,0,0-.16.278v100.76a.322.322,0,0,0,.321.322ZM75.2,118.894,26.982,146.731V46.713L75.2,18.876Z" transform="translate(-21.087 -9.457)" fill="none"/><g transform="translate(10.804 18.44)"><g transform="translate(0.248 67.942)"><path d="M69.447,91.051l-37.9,21.881v-3.157l37.9-21.881Z" transform="translate(-31.547 -87.894)" fill="#fff"/></g><g transform="translate(0.248 0.429)"><path d="M69.447,35.833l-37.9,21.881V49.152l37.9-21.881Z" transform="translate(-31.547 -27.271)" fill="#fff"/></g><path d="M31.324,58.187V49.052l38.4-22.166V36.02Zm.5-8.848v7.989l37.4-21.595V27.745Z" transform="translate(-31.324 -26.886)" fill="none"/><g transform="translate(0.248 73.343)"><path d="M69.447,95.9l-37.9,21.881v-3.157l37.9-21.881Z" transform="translate(-31.547 -92.744)" fill="#fff"/></g><g transform="translate(0.248 78.744)"><path d="M69.447,100.75l-37.9,21.881v-3.157l37.9-21.881Z" transform="translate(-31.547 -97.594)" fill="#fff"/></g><g transform="translate(0.248 84.145)"><path d="M69.447,105.6l-37.9,21.881v-3.157l37.9-21.881Z" transform="translate(-31.547 -102.443)" fill="#fff"/></g></g><g transform="translate(32.465 25.153)"><path d="M67.792,40.977h0a.557.557,0,0,1-.736.274L51.1,33.975a.557.557,0,0,1-.275-.736h0a.558.558,0,0,1,.736-.275L67.517,40.24A.558.558,0,0,1,67.792,40.977Z" transform="translate(-50.775 -32.914)" fill="#fff"/><g transform="translate(0.345 3.503)"><path d="M68.1,44.122h0a.557.557,0,0,1-.736.275L51.41,37.121a.557.557,0,0,1-.275-.736h0a.557.557,0,0,1,.736-.275l15.955,7.276A.557.557,0,0,1,68.1,44.122Z" transform="translate(-51.085 -36.06)" fill="#fff"/></g></g></g><g transform="translate(38.625 62.774)"><path d="M120.532,114.584s7.917,1.011,5.791-3.512c-1.993-4.24-10.71-5.745-17.31-9.832-1.833-1.135-5.679-6.077-6.806-7.113-6.2-5.7-12.2-10.209-12.2-10.209a14.091,14.091,0,0,1,7.362,2.3c4.895,3.556,10.505,6.3,14.072,4.948,5.45-2.065-1.8-5.981-7.111-10.987A70.788,70.788,0,0,0,90.007,70.4c-7.669-4.166-17.128-3.624-24.535-6.2a83.162,83.162,0,0,1-13.614-6.075h-.029a6.031,6.031,0,0,0-5.525.686c-5.031,2.906-9.111,10.7-9.111,17.409,0,3.729,1.26,6.336,3.243,7.419.48.262,10.75,4.331,18.011,8.359,6.065,3.364,15.625,18.976,21.075,26.524,6.843,9.477,17.066,12.952,23.712,15.333,5.285,1.893,6.5-.489,5.928-2.27-1.16-3.634-6.954-6.654-6.954-6.654s6.543,2.736,9.971,3.892c2,.676,6.587,2.961,8.387.025,1.3-2.114-1.2-4.266-3.735-5.815-1.371-.836-8.429-4.133-11.3-6.071,0,0,5.532,1.636,9.211,2.938,3.91,1.383,7.215,3.607,10.153,2.784C131.414,120.859,120.532,114.584,120.532,114.584Z" transform="translate(-36.856 -57.387)" fill="#71a0ff"/><path d="M106.608,134.927a10.469,10.469,0,0,1-3.455-.717l-.508-.183c-6.622-2.369-16.63-5.947-23.363-15.272-1.213-1.678-2.644-3.78-4.16-6C69.706,104.8,62.966,94.909,58.318,92.33c-5.789-3.211-13.372-6.4-16.609-7.757-.918-.384-1.294-.543-1.4-.6-2.172-1.186-3.418-4-3.418-7.714,0-6.806,4.163-14.747,9.28-17.7a6.363,6.363,0,0,1,5.762-.731h.022l.109.046a83.49,83.49,0,0,0,13.554,6.047,57.166,57.166,0,0,0,9.777,2.115c5.024.8,10.219,1.616,14.807,4.108a71.3,71.3,0,0,1,14.4,9.827c1.254,1.182,2.6,2.289,3.9,3.358,3.079,2.532,5.513,4.531,5.228,6.261-.133.806-.83,1.437-2.132,1.93-4.3,1.634-10.861-2.427-14.39-4.99a13.126,13.126,0,0,0-6.067-2.157c1.905,1.478,6.585,5.182,11.333,9.545.4.366,1.117,1.194,1.948,2.152,1.538,1.773,3.645,4.2,4.808,4.922a56.063,56.063,0,0,0,8.007,3.85c4.372,1.824,8.147,3.4,9.43,6.126a2.578,2.578,0,0,1,.019,2.724c-.9,1.236-3.238,1.4-4.769,1.363,2,1.288,5.682,3.963,5.42,6.049-.112.892-.891,1.547-2.314,1.946-2.241.629-4.686-.427-7.274-1.544-.99-.428-2.015-.869-3.083-1.247-2.034-.719-4.656-1.548-6.581-2.14,1.821,1.011,4.028,2.126,5.8,3.02,1.488.751,2.664,1.343,3.159,1.646,2.444,1.492,3.85,2.936,4.176,4.289a2.547,2.547,0,0,1-.329,1.991c-1.709,2.791-5.572,1.325-7.88.451-.337-.128-.643-.243-.9-.331-1.8-.608-4.475-1.657-6.6-2.515,1.629,1.238,3.409,2.952,4.016,4.853a2.491,2.491,0,0,1-.552,2.617A3.238,3.238,0,0,1,106.608,134.927ZM49.929,58.1a6.934,6.934,0,0,0-3.421,1.04c-4.93,2.848-8.942,10.526-8.942,17.117,0,3.462,1.117,6.058,3.066,7.122.082.045.637.278,1.338.572,3.249,1.364,10.856,4.559,16.677,7.789,4.788,2.656,11.579,12.622,17.034,20.63,1.513,2.222,2.942,4.319,4.149,5.99,6.61,9.154,16.5,12.69,23.044,15.031l.508.18c3.3,1.183,4.619.557,5.114.079a1.836,1.836,0,0,0,.378-1.927c-1.1-3.457-6.731-6.428-6.788-6.458l.287-.61c.066.027,6.572,2.745,9.948,3.883.267.09.58.209.927.34,2.25.853,5.647,2.139,7.065-.171a1.873,1.873,0,0,0,.247-1.48c-.283-1.173-1.586-2.475-3.872-3.87-.471-.288-1.694-.905-3.112-1.62-2.668-1.346-6.323-3.192-8.2-4.459l-1.813-1.224,2.1.62c.056.017,5.583,1.653,9.228,2.943,1.09.385,2.125.832,3.125,1.264,2.583,1.114,4.813,2.076,6.824,1.513,1.137-.32,1.751-.783,1.825-1.38.239-1.9-4.441-5.052-6.265-6.1l-1.456-.839,1.667.212c1.224.154,4.6.281,5.527-1a1.962,1.962,0,0,0-.085-2.036c-1.17-2.491-4.835-4.02-9.079-5.791a56.779,56.779,0,0,1-8.1-3.9c-1.25-.774-3.309-3.147-4.962-5.055-.816-.942-1.522-1.755-1.893-2.1C95.9,88.79,89.9,84.267,89.838,84.222l-.809-.608h1.012A14.289,14.289,0,0,1,97.6,85.979c5.817,4.225,10.83,6.01,13.755,4.9,1.041-.4,1.615-.869,1.7-1.409.222-1.344-2.31-3.424-4.99-5.628-1.31-1.077-2.665-2.192-3.937-3.388A70.563,70.563,0,0,0,89.88,70.735c-4.487-2.437-9.623-3.25-14.59-4.035A57.789,57.789,0,0,1,65.4,64.556,85.093,85.093,0,0,1,51.78,58.487l-.055-.016A4.394,4.394,0,0,0,49.929,58.1Z" transform="translate(-36.89 -57.422)" fill="none"/><g transform="translate(52.698 58.617)"><path d="M96.864,119.343a.356.356,0,0,1-.159-.038c-.481-.239-1-.486-1.547-.742a28.687,28.687,0,0,1-7.075-4.25,36.425,36.425,0,0,1-3.81-3.7.357.357,0,0,1,.585-.411,39.727,39.727,0,0,0,3.705,3.578,27.69,27.69,0,0,0,6.9,4.133c.55.258,1.075.506,1.56.748a.358.358,0,0,1-.159.677Z" transform="translate(-84.21 -110.056)" fill="#05d"/></g><g transform="translate(59.129 52.836)"><path d="M104.288,114.622a.348.348,0,0,1-.17-.045c-.037-.019-3.659-2.011-7.846-4.417a33.645,33.645,0,0,1-6.182-4.685.357.357,0,1,1,.5-.506,32.886,32.886,0,0,0,6.033,4.572c4.181,2.4,7.8,4.391,7.833,4.411a.357.357,0,0,1-.173.669Z" transform="translate(-89.984 -104.865)" fill="#05d"/></g><g transform="translate(64.995 47.804)"><path d="M113.934,110.1a.358.358,0,0,1-.16-.039c-1.031-.519-2.665-1.176-4.394-1.871-2.087-.839-4.454-1.789-6.279-2.708-3.3-1.662-7.64-4.447-7.683-4.475a.357.357,0,1,1,.385-.6c.043.027,4.352,2.792,7.62,4.438,1.8.905,4.149,1.85,6.223,2.683,1.744.7,3.392,1.363,4.449,1.9a.357.357,0,0,1-.16.676Z" transform="translate(-95.252 -100.347)" fill="#05d"/></g><g transform="translate(33.2 10.497)"><path d="M67.06,73.377l-.043,0a.357.357,0,0,1-.312-.4,11.525,11.525,0,0,1,3.216-6.019.357.357,0,1,1,.517.493,10.96,10.96,0,0,0-3.024,5.612A.357.357,0,0,1,67.06,73.377Z" transform="translate(-66.702 -66.848)" fill="#05d"/></g><g transform="translate(22.271 19.081)"><path d="M57.244,80.736a.358.358,0,0,1-.3-.546c.145-.234,3.577-5.745,9.631-5.633a.358.358,0,0,1,.352.362.379.379,0,0,1-.363.353h-.129c-5.532,0-8.85,5.242-8.884,5.3A.357.357,0,0,1,57.244,80.736Z" transform="translate(-56.888 -74.555)" fill="#05d"/></g><g transform="translate(36.75 23.069)"><path d="M76.462,104.631a.358.358,0,0,1-.353-.3c-.011-.071-1.146-7.218-1.458-13.994A20.885,20.885,0,0,0,69.979,78.73a.357.357,0,0,1,.533-.474A21.21,21.21,0,0,1,75.365,90.3c.311,6.735,1.439,13.844,1.45,13.915a.357.357,0,0,1-.3.409A.486.486,0,0,1,76.462,104.631Z" transform="translate(-69.889 -78.137)" fill="#05d"/></g><g transform="translate(39.264 21.814)"><path d="M82.851,81.785h-.022c-4.935-.3-10.3-3.967-10.527-4.123a.358.358,0,0,1,.405-.589c.053.038,5.432,3.711,10.165,4a.357.357,0,0,1-.021.714Z" transform="translate(-72.147 -77.01)" fill="#05d"/></g></g><g transform="translate(69.436 80.257)"><path d="M80.919,106.4,64.84,97.118,105.481,73.4l16.08,9.284Z" transform="translate(-64.524 -73.089)" fill="#6abff4"/><path d="M72.448,101.561l-1.424-.841,40.641-23.713,1.424.841Z" transform="translate(-63.821 -72.679)" fill="#748fff"/><g transform="translate(0 0)"><path d="M80.951,106.749a.324.324,0,0,1-.158-.042L64.714,97.423a.315.315,0,0,1,0-.546l40.641-23.713a.314.314,0,0,1,.317,0l16.079,9.283a.316.316,0,0,1,0,.546L81.11,106.705A.314.314,0,0,1,80.951,106.749ZM65.5,97.149l15.45,8.919,40.014-23.348L105.514,73.8Z" transform="translate(-64.556 -73.121)" fill="none"/></g><g transform="translate(16.395 9.599)"><path d="M93.492,97.16l-14.214,8.293v20.31l31.967-18.652,8.674-5.061V81.74Z" transform="translate(-79.278 -81.74)" fill="#748fff"/></g><g transform="translate(16.08 9.283)"><path d="M79.31,126.111a.32.32,0,0,1-.157-.042A.315.315,0,0,1,79,125.8V105.485a.313.313,0,0,1,.157-.272L93.366,96.92l.158.272-.158-.272L119.793,81.5a.308.308,0,0,1,.315,0,.313.313,0,0,1,.158.273v20.311a.312.312,0,0,1-.156.272L79.469,126.068A.314.314,0,0,1,79.31,126.111Zm.315-20.444v19.58l40.01-23.346V82.321Z" transform="translate(-78.995 -81.456)" fill="none"/></g><g transform="translate(36.716 13.333)"><path d="M97.525,96.01,115.7,85.093V99.968l-18.18,10.917Z" transform="translate(-97.525 -85.093)" fill="#fff"/></g><g transform="translate(36.401 13.018)"><path d="M97.557,111.233a.3.3,0,0,1-.156-.042.314.314,0,0,1-.159-.274V96.042a.318.318,0,0,1,.153-.271l18.179-10.916a.316.316,0,0,1,.478.271V100a.318.318,0,0,1-.153.271L97.72,111.187A.318.318,0,0,1,97.557,111.233Zm.315-15.012v14.139l17.549-10.537V85.684Z" transform="translate(-97.242 -84.81)" fill="none"/></g><g transform="translate(18.796 38.001)"><path d="M81.434,116.3l15.517-9.054v2.171l-15.517,9.054Z" transform="translate(-81.434 -107.244)" fill="#c0d5ff"/></g><g transform="translate(18.481 37.685)"><path d="M81.466,118.816a.316.316,0,0,1-.315-.315v-2.172a.312.312,0,0,1,.156-.272L96.825,107a.308.308,0,0,1,.315,0,.313.313,0,0,1,.158.273v2.171a.312.312,0,0,1-.156.272l-15.517,9.054A.315.315,0,0,1,81.466,118.816Zm.315-2.305v1.44l14.886-8.685v-1.44Z" transform="translate(-81.151 -106.96)" fill="none"/></g><g transform="translate(18.796 36.239)"><path d="M81.434,111.986l10.907-6.324v2.171l-10.907,6.324Z" transform="translate(-81.434 -105.662)" fill="#c0d5ff"/></g><g transform="translate(18.481 35.925)"><path d="M81.466,114.5a.316.316,0,0,1-.315-.315v-2.171a.313.313,0,0,1,.157-.273l10.907-6.324a.316.316,0,0,1,.473.273v2.171a.315.315,0,0,1-.157.273l-10.907,6.324A.321.321,0,0,1,81.466,114.5Zm.315-2.3v1.442l10.277-5.96v-1.44Z" transform="translate(-81.151 -105.379)" fill="none"/></g><g transform="translate(18.796 28.448)"><path d="M81.434,104.99V110.7l10.907-6.324V98.666Z" transform="translate(-81.434 -98.666)" fill="#c0d5ff"/></g><g transform="translate(18.481 28.133)"><path d="M81.466,111.052a.316.316,0,0,1-.315-.315v-5.714a.313.313,0,0,1,.157-.273l10.907-6.324a.316.316,0,0,1,.473.273v5.714a.315.315,0,0,1-.157.273L81.624,111.01A.32.32,0,0,1,81.466,111.052Zm.315-5.847v4.984l10.277-5.958V99.245Z" transform="translate(-81.151 -98.383)" fill="none"/></g><path d="M64.84,94.7l16.079,9.284v20.31L64.84,115.008Z" transform="translate(-64.524 -70.669)" fill="#5fb0e2"/><g transform="translate(0 23.714)"><path d="M80.951,124.638a.324.324,0,0,1-.158-.042l-16.079-9.283a.314.314,0,0,1-.158-.273V94.73a.316.316,0,0,1,.473-.273l16.08,9.283a.315.315,0,0,1,.157.273v20.31a.317.317,0,0,1-.157.273A.321.321,0,0,1,80.951,124.638Zm-15.765-9.78,15.45,8.918V104.2l-15.45-8.919Z" transform="translate(-64.556 -94.415)" fill="none"/></g><g transform="translate(39.416 24.601)"><path d="M101.638,97.334l8.463-1.8a1.776,1.776,0,0,1,.739,3.473l-8.463,1.8a1.776,1.776,0,0,1-.739-3.473Z" transform="translate(-99.917 -95.179)" fill="#748fff"/><path d="M102.039,101.194a2.091,2.091,0,0,1-.434-4.136h0l8.463-1.8a2.091,2.091,0,0,1,.871,4.09l-8.463,1.8A2.076,2.076,0,0,1,102.039,101.194Zm-.3-3.519a1.459,1.459,0,0,0-.49,2.652,1.435,1.435,0,0,0,1.1.2l8.463-1.8a1.457,1.457,0,0,0,.49-2.649,1.429,1.429,0,0,0-1.1-.2Z" transform="translate(-99.95 -95.211)" fill="#05d"/></g><g transform="translate(42.77 19.378)"><path d="M103.421,99.6l3.763-7.792a1.775,1.775,0,1,1,3.2,1.545l-3.762,7.791a1.775,1.775,0,0,1-3.2-1.544Z" transform="translate(-102.929 -90.489)" fill="#748fff"/><path d="M105.047,102.494a2.093,2.093,0,0,1-1.878-3l3.762-7.791a2.091,2.091,0,0,1,3.766,1.819l-3.762,7.792a2.1,2.1,0,0,1-1.889,1.18Zm3.772-11.34a1.457,1.457,0,0,0-.484.082,1.443,1.443,0,0,0-.834.742l-3.763,7.791h0a1.46,1.46,0,0,0,2.629,1.27l3.763-7.792a1.457,1.457,0,0,0-1.311-2.093Zm-5.366,8.478h0Z" transform="translate(-102.961 -90.521)" fill="#05d"/></g></g><g transform="translate(526.73 -153.544)"><path d="M-335.018,262.993c-3.314,0-6,1.429-6,3.191s2.686,3.192,6,3.192,6-1.429,6-3.192S-331.7,262.993-335.018,262.993Z" fill="#92b4d1" opacity="0.182"/><path d="M-343.388,257.312c-3.313,0-6,1.429-6,3.192s2.686,3.191,6,3.191,6-1.429,6-3.191S-340.074,257.312-343.388,257.312Z" fill="#92b4d1" opacity="0.164"/><path d="M-335.041,263.23a22.827,22.827,0,0,1-3.851-1.308v3.356c0,1.132,1.724,2.049,3.851,2.049s3.851-.917,3.851-2.049v-3.356A13.4,13.4,0,0,1-335.041,263.23Z" fill="#4f83fd"/><path d="M-335.041,259.874c-2.127,0-3.851.917-3.851,2.048s1.724,2.049,3.851,2.049,3.851-.917,3.851-2.049S-332.914,259.874-335.041,259.874Z" fill="#71a0ff"/><path d="M-343.387,257.691a22.843,22.843,0,0,1-3.852-1.308v3.356c0,1.132,1.725,2.049,3.852,2.049s3.851-.917,3.851-2.049v-3.356A13.412,13.412,0,0,1-343.387,257.691Z" fill="#4f83fd"/><path d="M-343.387,254.335c-2.127,0-3.852.917-3.852,2.048s1.725,2.049,3.852,2.049,3.851-.917,3.851-2.049S-341.26,254.335-343.387,254.335Z" fill="#71a0ff"/></g><path d="M-378.763,284.991c-9.026,0-16.344,3.875-16.344,8.657s7.318,8.657,16.344,8.657,16.344-3.876,16.344-8.657S-369.737,284.991-378.763,284.991Z" transform="translate(526.73 -153.544)" fill="#92b4d1" opacity="0.173"/><g transform="translate(526.73 -153.544)"><path d="M-390.834,263.536v28.6c0,3.6,5.491,6.523,12.264,6.523s12.263-2.92,12.263-6.523V263.413Z" fill="#748fff"/><path d="M-390.834,268.047V286.4c0,3.6,5.491,6.523,12.264,6.523a19.654,19.654,0,0,0,7.862-1.52V273.051a19.672,19.672,0,0,1-7.862,1.519C-385.343,274.57-390.834,271.65-390.834,268.047Z" fill="#f6f6f6"/><path d="M-373.854,276.848a21.8,21.8,0,0,1-4.716.508c-6.773,0-12.264-2.921-12.264-6.524v2.981c0,3.6,5.491,6.523,12.264,6.523a21.8,21.8,0,0,0,4.716-.507Z" fill="#4f83fd"/><path d="M-367.389,257.861a20.275,20.275,0,0,0-11.021-2.852,23.781,23.781,0,0,0-7.344,1.113l-1.162-.11-5.53,3.283v3.181c0,4.123,6.284,7.466,14.036,7.466s14.037-3.343,14.037-7.466V259.3Z" fill="#cedcff"/><path d="M-378.41,251.829c-7.752,0-14.036,3.343-14.036,7.466s6.284,7.466,14.036,7.466,14.037-3.342,14.037-7.466S-370.658,251.829-378.41,251.829Z" fill="#f6f6f6"/><path d="M-369.108,254.4a17.019,17.019,0,0,0-9.249-2.393,19.937,19.937,0,0,0-6.163.934l-.975-.093-4.641,1.792v3.633c0,3.46,5.274,6.266,11.779,6.266s11.78-2.806,11.78-6.266v-3.633Z" fill="#4f83fd"/><path d="M-378.357,248.373c-6.505,0-11.779,2.8-11.779,6.266s5.274,6.266,11.779,6.266,11.78-2.806,11.78-6.266S-371.851,248.373-378.357,248.373Z" fill="#71a0ff"/></g><g transform="translate(526.73 -153.544)"><path d="M-311.716,330.964l68.383-39.424-37.434-21.612-68.383,39.424Z" fill="#92b4d1" opacity="0.191"/><path d="M-311.532,310.55l61.959-35.772-31.6-18.244-61.959,35.772Z" fill="#f6f6f6"/><path d="M-311.532,307.9l28.907-16.6L-303.339,279.3l-28.907,16.6Z" fill="#6abff4"/><path d="M-335.32,294.269l56.981-32.9-2.755-1.471-56.981,32.9Z" fill="#71a0ff"/><path d="M-296.931,278.556l24.2-13.84-2.755-1.471-24.2,13.84Z" fill="#71a0ff"/><path d="M-291.275,281.605l24.2-13.84-2.755-1.471-24.2,13.84Z" fill="#71a0ff"/><path d="M-249.573,291.081v-16.3l-61.959,35.772v16.3Z" fill="#c0d5ff"/><path d="M-343.132,308.609v-16.3l31.6,18.244v16.3Z" fill="#b3c8f2"/><path d="M-339.306,306.388v-7.715l23.948,13.826v7.714Z" fill="#b3c8f2"/><path d="M-300.386,291.445c.576-1.7,1.415-5.762,1.415-5.762l3.123,1.165c1.48.5,1.847,3.368.821,6.407s-3.058,5.1-4.948,4.459l-2.712-1.026S-300.961,293.149-300.386,291.445Z" fill="#c0d5ff"/><path d="M-298.15,292.09c-1.026,3.039-3.058,5.1-4.537,4.6s-1.848-3.369-.822-6.408,3.058-5.1,4.538-4.6S-297.124,289.051-298.15,292.09Z" fill="#fff"/><path d="M-313.361,293.12c1.782.243,5.926.3,5.926.3l-.554,3.287c-.211,1.548-2.959,2.451-6.137,2.017s-5.583-2.039-5.314-4.016l.5-2.858S-315.143,292.877-313.361,293.12Z" fill="#c0d5ff"/><path d="M-313.572,295.437c-3.178-.433-5.583-2.039-5.372-3.587s2.959-2.45,6.137-2.017,5.583,2.04,5.372,3.587S-310.394,295.871-313.572,295.437Z" fill="#fff"/></g><g transform="translate(526.73 -153.544)"><path d="M-285.742,236.643l-20.968,12.106c-2.367,1.367-6.541,1.194-9.275-.385l-55.35-31.956c-2.734-1.578-3.033-3.988-.666-5.355l20.968-12.1c2.368-1.367,6.541-1.194,9.275.384l55.35,31.956C-283.674,232.866-283.375,235.276-285.742,236.643Z" fill="#92b4d1" opacity="0.251"/><path d="M-285.944,229.577l-1.837.209c-.1-.068-.2-.135-.317-.2l-52.68-30.415c-2.6-1.5-6.575-1.667-8.828-.366l-19.956,11.522c-.118.068-.224.14-.328.213l-1.185-.507v2.38a1.574,1.574,0,0,0,0,.168v.047h0a3.686,3.686,0,0,0,2.145,2.795l52.679,30.415c2.6,1.5,6.575,1.667,8.829.366l19.956-11.522a2.674,2.674,0,0,0,1.509-2.058l.011-.005Z" fill="#c0d5ff"/><path d="M-287.464,232.135l-19.956,11.522c-2.254,1.3-6.227,1.136-8.829-.366l-52.68-30.415c-2.6-1.5-2.887-3.8-.633-5.1l19.956-11.522c2.253-1.3,6.226-1.136,8.828.366l52.68,30.415C-285.5,228.54-285.211,230.834-287.464,232.135Z" fill="#f6f6f6"/><path d="M-347.028,217.027c-2.09,0-3.783-.9-3.783-2.012v2.655c0,1.111,1.693,2.012,3.783,2.012s3.782-.9,3.782-2.012v-2.655C-343.246,216.126-344.939,217.027-347.028,217.027Z" fill="#748fff"/><path d="M-347.028,213c-2.09,0-3.783.9-3.783,2.012s1.693,2.012,3.783,2.012,3.782-.9,3.782-2.012S-344.939,213-347.028,213Z" fill="#6abff4"/><path d="M-345.9,203.249c-2.089,0-3.783-.9-3.783-2.012v2.656c0,1.111,1.694,2.012,3.783,2.012s3.782-.9,3.782-2.012v-2.656C-342.117,202.348-343.81,203.249-345.9,203.249Z" fill="#748fff"/><path d="M-345.9,199.225c-2.089,0-3.783.9-3.783,2.012s1.694,2.012,3.783,2.012,3.782-.9,3.782-2.012S-343.81,199.225-345.9,199.225Z" fill="#6abff4"/><path d="M-358.637,210.322c-2.089,0-3.782-.9-3.782-2.012v2.655c0,1.111,1.693,2.012,3.782,2.012s3.783-.9,3.783-2.012V208.31C-354.854,209.421-356.548,210.322-358.637,210.322Z" fill="#748fff"/><path d="M-358.637,206.3c-2.089,0-3.782.9-3.782,2.012s1.693,2.012,3.782,2.012,3.783-.9,3.783-2.012S-356.548,206.3-358.637,206.3Z" fill="#6abff4"/><path d="M-334.291,209.955c-2.089,0-3.783-.9-3.783-2.012V210.6c0,1.111,1.694,2.012,3.783,2.012s3.783-.9,3.783-2.012v-2.655C-330.508,209.054-332.2,209.955-334.291,209.955Z" fill="#748fff"/><path d="M-334.291,205.931c-2.089,0-3.783.9-3.783,2.012s1.694,2.012,3.783,2.012,3.783-.9,3.783-2.012S-332.2,205.931-334.291,205.931Z" fill="#6abff4"/><path d="M-322.683,216.341c-2.089,0-3.782-.9-3.782-2.012v2.656c0,1.111,1.693,2.012,3.782,2.012s3.783-.9,3.783-2.012v-2.656C-318.9,215.44-320.594,216.341-322.683,216.341Z" fill="#748fff"/><path d="M-322.683,212.317c-2.089,0-3.782.9-3.782,2.012s1.693,2.012,3.782,2.012,3.783-.9,3.783-2.012S-320.594,212.317-322.683,212.317Z" fill="#6abff4"/><path d="M-335.42,223.414c-2.089,0-3.783-.9-3.783-2.012v2.655c0,1.111,1.694,2.012,3.783,2.012s3.782-.9,3.782-2.012V221.4C-331.638,222.513-333.331,223.414-335.42,223.414Z" fill="#748fff"/><path d="M-335.42,219.39c-2.089,0-3.783.9-3.783,2.012s1.694,2.012,3.783,2.012,3.782-.9,3.782-2.012S-333.331,219.39-335.42,219.39Z" fill="#6abff4"/><path d="M-311.075,223.047c-2.089,0-3.782-.9-3.782-2.012v2.655c0,1.111,1.693,2.012,3.782,2.012s3.783-.9,3.783-2.012v-2.655C-307.292,222.146-308.986,223.047-311.075,223.047Z" fill="#748fff"/><path d="M-311.075,219.023c-2.089,0-3.782.9-3.782,2.012s1.693,2.012,3.782,2.012,3.783-.9,3.783-2.012S-308.986,219.023-311.075,219.023Z" fill="#6abff4"/><path d="M-323.812,230.119c-2.089,0-3.783-.9-3.783-2.012v2.656c0,1.111,1.694,2.012,3.783,2.012s3.783-.9,3.783-2.012v-2.656C-320.029,229.218-321.723,230.119-323.812,230.119Z" fill="#748fff"/><path d="M-323.812,226.1c-2.089,0-3.783.9-3.783,2.012s1.694,2.012,3.783,2.012,3.783-.9,3.783-2.012S-321.723,226.1-323.812,226.1Z" fill="#6abff4"/><path d="M-299.466,229.752c-2.089,0-3.783-.9-3.783-2.012V230.4c0,1.111,1.694,2.012,3.783,2.012s3.782-.9,3.782-2.012V227.74C-295.684,228.851-297.377,229.752-299.466,229.752Z" fill="#748fff"/><path d="M-299.466,225.728c-2.089,0-3.783.9-3.783,2.012s1.694,2.012,3.783,2.012,3.782-.9,3.782-2.012S-297.377,225.728-299.466,225.728Z" fill="#6abff4"/><path d="M-312.2,236.825c-2.089,0-3.782-.9-3.782-2.013v2.656c0,1.111,1.693,2.012,3.782,2.012s3.783-.9,3.783-2.012v-2.656C-308.421,235.924-310.115,236.825-312.2,236.825Z" fill="#748fff"/><path d="M-312.2,232.8c-2.089,0-3.782.9-3.782,2.012s1.693,2.013,3.782,2.013,3.783-.9,3.783-2.013S-310.115,232.8-312.2,232.8Z" fill="#6abff4"/></g><g transform="translate(526.73 -153.544)"><path d="M-145.508,265.073l-37.561,21.686c-3.009,1.737-8.315,1.517-11.79-.489l-71.775-41.44c-3.475-2.006-3.856-5.069-.847-6.806l37.561-21.686c3.009-1.737,8.315-1.518,11.789.489l71.776,41.439C-142.88,260.273-142.5,263.336-145.508,265.073Z" fill="#92b4d1" opacity="0.164"/><path d="M-148.4,262.03l-35.446,20.465c-2.84,1.639-7.847,1.432-11.127-.462l-67.735-39.106a4.634,4.634,0,0,1-2.689-4c0-1.741.023-3.347.023-4.824l37.313-18.067c2.841-1.64,7.847-1.432,11.127.461l70.417,37.644c0,1.876.042,3.847.032,5.118A3.3,3.3,0,0,1-148.4,262.03Z" fill="#c0d5ff"/><path d="M-148.4,257.32l-35.446,20.464c-2.84,1.64-7.847,1.432-11.127-.461l-67.735-39.107c-3.279-1.893-3.639-4.784-.8-6.423l35.446-20.465c2.841-1.64,7.847-1.432,11.127.461L-149.2,250.9C-145.925,252.789-145.565,255.68-148.4,257.32Z" fill="#f6f6f6"/><path d="M-152.127,253.694l-66.961-38.66-37.491,21.646,66.961,38.66Z" fill="#fff"/><path d="M-254.721,229.671v2.172l7.093,4.065Z" fill="#4f83fd"/><path d="M-218.744,219.231l-7.093-6.236-28.885,16.676,7.093,6.236Z" fill="#71a0ff"/><path d="M-208.119,223.846l-32.764,18.916-5.223-3.015,32.764-18.916Z" fill="#6abff4"/></g><g transform="translate(526.73 -153.544)"><path d="M-220.743,244.942l-7.459,4.306-8.613-4.973,7.459-4.307Z" fill="#6abff4"/><path d="M-225.429,246.654l-6.069-.455-.018-.787,4.227.317-2.118-4.055,1.312-.126Z" fill="#fff"/></g><g transform="translate(526.73 -153.544)"><path d="M-209.9,251.394l-7.459,4.307-8.613-4.973,7.459-4.307Z" fill="#6abff4"/><path d="M-214.587,253.107l-6.069-.455-.018-.787,4.227.317-2.118-4.055,1.312-.126Z" fill="#fff"/></g><g transform="translate(526.73 -153.544)"><path d="M-199.047,257.458l-7.459,4.307-8.613-4.973,7.459-4.306Z" fill="#6abff4"/><path d="M-203.732,259.171l-6.069-.455-.018-.787,4.227.317-2.118-4.055,1.312-.126Z" fill="#fff"/></g><g transform="translate(526.73 -153.544)"><path d="M-188.045,263.52l-7.459,4.306-8.613-4.973,7.459-4.307Z" fill="#6abff4"/><path d="M-192.73,265.232l-6.069-.455-.018-.787,4.227.317-2.118-4.055,1.312-.126Z" fill="#fff"/></g><g transform="translate(526.73 -153.544)"><path d="M-225.58,238.12a.221.221,0,0,1-.193-.111.222.222,0,0,1,.081-.3l20.7-12.016a.221.221,0,0,1,.3.08.223.223,0,0,1-.08.305l-20.7,12.016A.213.213,0,0,1-225.58,238.12Z" fill="#05d"/><path d="M-223.974,238.991a.222.222,0,0,1-.192-.111.222.222,0,0,1,.081-.3l20.7-12.017a.223.223,0,0,1,.3.081.221.221,0,0,1-.081.3l-20.7,12.017A.224.224,0,0,1-223.974,238.991Z" fill="#05d"/><path d="M-222.367,239.808a.222.222,0,0,1-.193-.111.223.223,0,0,1,.081-.3l20.7-12.016a.221.221,0,0,1,.3.08.223.223,0,0,1-.081.3l-20.7,12.016A.217.217,0,0,1-222.367,239.808Z" fill="#05d"/><path d="M-220.76,240.679a.223.223,0,0,1-.193-.111.223.223,0,0,1,.081-.3l20.7-12.017a.224.224,0,0,1,.3.081.223.223,0,0,1-.081.3l-20.7,12.017A.223.223,0,0,1-220.76,240.679Z" fill="#05d"/><path d="M-219.274,241.7a.224.224,0,0,1-.193-.11.224.224,0,0,1,.081-.3l14.1-8.183a.222.222,0,0,1,.3.081.223.223,0,0,1-.081.305l-14.1,8.182A.217.217,0,0,1-219.274,241.7Z" fill="#05d"/></g><g transform="translate(526.73 -153.544)"><path d="M-215.216,245.382a.22.22,0,0,1-.192-.111.222.222,0,0,1,.08-.3l20.7-12.017a.223.223,0,0,1,.3.081.221.221,0,0,1-.081.3l-20.7,12.017A.217.217,0,0,1-215.216,245.382Z" fill="#05d"/><path d="M-213.609,246.253a.224.224,0,0,1-.193-.111.223.223,0,0,1,.081-.3l20.7-12.017a.223.223,0,0,1,.3.081.223.223,0,0,1-.081.3l-20.7,12.017A.23.23,0,0,1-213.609,246.253Z" fill="#05d"/><path d="M-212,247.07a.221.221,0,0,1-.193-.111.222.222,0,0,1,.081-.3l20.7-12.017a.223.223,0,0,1,.305.081.224.224,0,0,1-.081.305l-20.7,12.016A.213.213,0,0,1-212,247.07Z" fill="#05d"/><path d="M-210.4,247.941a.222.222,0,0,1-.192-.111.221.221,0,0,1,.081-.3l20.7-12.017a.221.221,0,0,1,.3.081.221.221,0,0,1-.081.3l-20.7,12.017A.224.224,0,0,1-210.4,247.941Z" fill="#05d"/><path d="M-208.909,248.964a.221.221,0,0,1-.193-.111.222.222,0,0,1,.081-.3l14.1-8.183a.222.222,0,0,1,.3.081.221.221,0,0,1-.081.3l-14.1,8.183A.213.213,0,0,1-208.909,248.964Z" fill="#05d"/></g><g transform="translate(526.73 -153.544)"><path d="M-204.731,252.381a.222.222,0,0,1-.192-.111.222.222,0,0,1,.08-.3l20.7-12.017a.222.222,0,0,1,.3.081.221.221,0,0,1-.081.3l-20.7,12.017A.227.227,0,0,1-204.731,252.381Z" fill="#05d"/><path d="M-203.124,253.252a.224.224,0,0,1-.193-.111.224.224,0,0,1,.081-.305l20.7-12.016a.223.223,0,0,1,.3.081.223.223,0,0,1-.081.3l-20.7,12.017A.23.23,0,0,1-203.124,253.252Z" fill="#05d"/><path d="M-201.517,254.069a.223.223,0,0,1-.193-.111.221.221,0,0,1,.081-.3l20.7-12.017a.223.223,0,0,1,.305.081.223.223,0,0,1-.081.3l-20.7,12.017A.223.223,0,0,1-201.517,254.069Z" fill="#05d"/><path d="M-199.911,254.94a.222.222,0,0,1-.192-.111.223.223,0,0,1,.081-.3l20.7-12.016a.221.221,0,0,1,.3.081.222.222,0,0,1-.081.3l-20.7,12.017A.224.224,0,0,1-199.911,254.94Z" fill="#05d"/><path d="M-198.424,255.963a.223.223,0,0,1-.193-.111.222.222,0,0,1,.081-.3l14.1-8.183a.222.222,0,0,1,.3.081.222.222,0,0,1-.081.3l-14.1,8.183A.223.223,0,0,1-198.424,255.963Z" fill="#05d"/></g><g transform="translate(526.73 -153.544)"><path d="M-193.354,258.505a.22.22,0,0,1-.192-.111.222.222,0,0,1,.081-.3l20.7-12.016a.221.221,0,0,1,.3.08.223.223,0,0,1-.08.3l-20.7,12.016A.214.214,0,0,1-193.354,258.505Z" fill="#05d"/><path d="M-191.747,259.376a.222.222,0,0,1-.192-.111.222.222,0,0,1,.08-.3l20.7-12.017a.223.223,0,0,1,.3.081.221.221,0,0,1-.081.3l-20.7,12.017A.227.227,0,0,1-191.747,259.376Z" fill="#05d"/><path d="M-190.14,260.193a.222.222,0,0,1-.193-.111.223.223,0,0,1,.081-.3l20.7-12.016a.221.221,0,0,1,.3.08.223.223,0,0,1-.081.305l-20.7,12.016A.219.219,0,0,1-190.14,260.193Z" fill="#05d"/><path d="M-188.533,261.064a.223.223,0,0,1-.193-.111.222.222,0,0,1,.081-.3l20.7-12.017a.224.224,0,0,1,.3.081.223.223,0,0,1-.081.3l-20.7,12.017A.223.223,0,0,1-188.533,261.064Z" fill="#05d"/><path d="M-187.047,262.087a.223.223,0,0,1-.193-.11.224.224,0,0,1,.081-.3l14.1-8.183a.222.222,0,0,1,.3.081.223.223,0,0,1-.081.3l-14.1,8.182A.219.219,0,0,1-187.047,262.087Z" fill="#05d"/></g><g transform="translate(526.73 -153.544)"><path d="M-150.668,255.975h0a.841.841,0,0,1-.839-.839h0a.841.841,0,0,1,.839-.839h0a.842.842,0,0,1,.839.839h0A.841.841,0,0,1-150.668,255.975Z" fill="#fff"/></g><g transform="translate(526.73 -153.544)"><path d="M-153.1,257.391l-14.818,8.554a.738.738,0,0,1-1.006-.269h0a.739.739,0,0,1,.27-1.006l14.817-8.555a.74.74,0,0,1,1.007.269h0A.74.74,0,0,1-153.1,257.391Z" fill="#fff"/></g></g></g></svg>