<?xml version="1.0" encoding="utf-8"?>
<!-- Generator: Adobe Illustrator 25.3.1, SVG Export Plug-In . SVG Version: 6.00 Build 0)  -->
<svg version="1.1" id="Capa_1" xmlns="http://www.w3.org/2000/svg" xmlns:xlink="http://www.w3.org/1999/xlink" x="0px" y="0px"
	 viewBox="0 0 177.4 54" style="enable-background:new 0 0 177.4 54;" xml:space="preserve">
<style type="text/css">
	.st0{enable-background:new    ;}
	.st1{fill:#12263F;}
	.st2{fill:none;stroke:#707070;}
</style>
<g>
	<g class="st0">
		<path class="st1" d="M11.3,24H7.8v9.5H5.5V24H2.1v-1.9h9.3L11.3,24L11.3,24z"/>
		<path class="st1" d="M16.8,29.3h-1.9v4.2h-2.3V22.1h4.2c1.3,0,2.4,0.3,3.1,0.9c0.7,0.6,1.1,1.4,1.1,2.5c0,0.8-0.2,1.4-0.5,1.9
			s-0.8,0.9-1.5,1.2l2.5,4.6v0.1H19L16.8,29.3z M15,27.4h1.9c0.6,0,1-0.1,1.4-0.4c0.3-0.3,0.5-0.7,0.5-1.2s-0.2-1-0.5-1.3
			S17.5,24,16.9,24H15V27.4z"/>
		<path class="st1" d="M33.8,27.7h-7v-1.8h7V27.7z M33.8,31.1h-7v-1.8h7V31.1z"/>
	</g>
	<g class="st0">
		<path class="st1" d="M88.1,27.7h-7v-1.8h7V27.7z M88.1,31.1h-7v-1.8h7V31.1z"/>
	</g>
	<g class="st0">
		<path class="st1" d="M110.5,28.8c0,1.6-0.3,2.8-1,3.6c-0.7,0.8-1.6,1.2-2.9,1.2c-1.2,0-2.2-0.4-2.8-1.2s-1-2-1-3.5v-2.1
			c0-1.6,0.3-2.8,1-3.6c0.7-0.8,1.6-1.2,2.8-1.2s2.2,0.4,2.8,1.2s1,2,1,3.5v2.1H110.5z M108.3,26.5c0-0.9-0.1-1.6-0.4-2.1
			c-0.3-0.4-0.7-0.6-1.2-0.6s-0.9,0.2-1.2,0.6s-0.4,1-0.4,1.9v2.8c0,0.9,0.1,1.6,0.4,2.1c0.3,0.5,0.7,0.7,1.2,0.7
			c0.6,0,1-0.2,1.2-0.6s0.4-1.1,0.4-2V26.5z"/>
		<path class="st1" d="M112.7,36.4l-1.2-0.6l0.3-0.5c0.3-0.6,0.5-1.3,0.5-1.9v-1.8h1.9v1.6c0,0.6-0.2,1.2-0.4,1.8
			C113.5,35.5,113.2,36,112.7,36.4z"/>
		<path class="st1" d="M123.7,23.4l-4.4,10.1h-2.4l4.4-9.6h-5.7v-1.8h8v1.3H123.7z"/>
		<path class="st1" d="M131.3,25l0.1,0.9c0.6-0.7,1.4-1.1,2.4-1.1c1.1,0,1.8,0.4,2.2,1.3c0.6-0.9,1.4-1.3,2.5-1.3
			c0.9,0,1.6,0.3,2,0.8s0.7,1.3,0.7,2.4v5.4h-2.3V28c0-0.5-0.1-0.8-0.3-1.1s-0.5-0.3-1-0.3c-0.7,0-1.1,0.3-1.4,1v5.8h-2.3V28
			c0-0.5-0.1-0.8-0.3-1.1c-0.2-0.2-0.5-0.3-1-0.3c-0.6,0-1.1,0.3-1.4,0.8v6h-2.3v-8.5h2.4V25z"/>
		<path class="st1" d="M147,33.7c-1.2,0-2.2-0.4-3-1.1c-0.8-0.8-1.2-1.8-1.2-3v-0.2c0-0.8,0.2-1.6,0.5-2.3s0.8-1.2,1.4-1.5
			s1.3-0.5,2.1-0.5c1.2,0,2.1,0.4,2.7,1.1s1,1.8,1,3.1v0.9h-5.4c0.1,0.6,0.3,1,0.7,1.3s0.8,0.5,1.4,0.5c0.9,0,1.5-0.3,2-0.9l1.1,1.2
			c-0.3,0.5-0.8,0.9-1.4,1.1S147.7,33.7,147,33.7z M146.7,26.7c-0.4,0-0.8,0.2-1.1,0.5s-0.5,0.7-0.5,1.3h3.1v-0.2
			c0-0.5-0.1-0.9-0.4-1.2C147.6,26.8,147.2,26.7,146.7,26.7z"/>
		<path class="st1" d="M156.3,31.2c0-0.3-0.1-0.5-0.4-0.7s-0.7-0.3-1.3-0.4c-2-0.4-3-1.3-3-2.6c0-0.8,0.3-1.4,0.9-1.9
			c0.6-0.5,1.4-0.8,2.4-0.8c1.1,0,1.9,0.3,2.6,0.8c0.6,0.5,1,1.2,1,2h-2.3c0-0.3-0.1-0.6-0.3-0.8c-0.2-0.2-0.5-0.3-1-0.3
			c-0.4,0-0.7,0.1-0.9,0.3c-0.2,0.2-0.3,0.4-0.3,0.7c0,0.2,0.1,0.5,0.4,0.6c0.2,0.2,0.6,0.3,1.2,0.4s1,0.2,1.4,0.4
			c1.2,0.4,1.8,1.2,1.8,2.3c0,0.8-0.3,1.4-1,1.9s-1.5,0.7-2.6,0.7c-0.7,0-1.3-0.1-1.9-0.4c-0.5-0.3-1-0.6-1.3-1s-0.5-0.9-0.5-1.4
			h2.1c0,0.4,0.2,0.7,0.4,0.9c0.3,0.2,0.6,0.3,1.1,0.3c0.4,0,0.8-0.1,1-0.2C156.2,31.6,156.3,31.4,156.3,31.2z"/>
		<path class="st1" d="M163.8,33.7c-1.2,0-2.2-0.4-3-1.1c-0.8-0.8-1.2-1.8-1.2-3v-0.2c0-0.8,0.2-1.6,0.5-2.3s0.8-1.2,1.4-1.5
			s1.3-0.5,2.1-0.5c1.2,0,2.1,0.4,2.7,1.1s1,1.8,1,3.1v0.9h-5.4c0.1,0.6,0.3,1,0.7,1.3s0.8,0.5,1.4,0.5c0.9,0,1.5-0.3,2-0.9l1.1,1.2
			c-0.3,0.5-0.8,0.9-1.4,1.1S164.5,33.7,163.8,33.7z M163.6,26.7c-0.4,0-0.8,0.2-1.1,0.5s-0.5,0.7-0.5,1.3h3.1v-0.2
			c0-0.5-0.1-0.9-0.4-1.2C164.4,26.8,164.1,26.7,163.6,26.7z"/>
		<path class="st1" d="M173.2,31.2c0-0.3-0.1-0.5-0.4-0.7s-0.7-0.3-1.3-0.4c-2-0.4-3-1.3-3-2.6c0-0.8,0.3-1.4,0.9-1.9
			c0.6-0.5,1.4-0.8,2.4-0.8c1.1,0,1.9,0.3,2.6,0.8c0.6,0.5,1,1.2,1,2h-2.3c0-0.3-0.1-0.6-0.3-0.8c-0.2-0.2-0.5-0.3-1-0.3
			c-0.4,0-0.7,0.1-0.9,0.3c-0.2,0.2-0.3,0.4-0.3,0.7c0,0.2,0.1,0.5,0.4,0.6c0.2,0.2,0.6,0.3,1.2,0.4s1,0.2,1.4,0.4
			c1.2,0.4,1.8,1.2,1.8,2.3c0,0.8-0.3,1.4-1,1.9s-1.5,0.7-2.6,0.7c-0.7,0-1.3-0.1-1.9-0.4c-0.5-0.3-1-0.6-1.3-1s-0.5-0.9-0.5-1.4
			h2.1c0,0.4,0.2,0.7,0.4,0.9c0.3,0.2,0.6,0.3,1.1,0.3c0.4,0,0.8-0.1,1-0.2C173.1,31.6,173.2,31.4,173.2,31.2z"/>
	</g>
	<g class="st0">
		<path class="st1" d="M56.6,20.6h-7.8v-1.5l3.7-3.9c0.5-0.6,0.9-1,1.1-1.4S54,13,54,12.6c0-0.5-0.1-0.9-0.4-1.2
			C53.3,11.1,53,11,52.5,11s-0.9,0.2-1.2,0.5c-0.3,0.4-0.4,0.8-0.4,1.4h-2.3c0-0.7,0.2-1.3,0.5-1.9s0.8-1,1.4-1.3
			c0.6-0.3,1.3-0.5,2.1-0.5c1.2,0,2.1,0.3,2.7,0.8s1,1.4,1,2.4c0,0.6-0.1,1.1-0.4,1.7c-0.3,0.6-0.8,1.3-1.5,2l-2.6,2.7h4.9v1.8H56.6
			z"/>
		<path class="st1" d="M63.4,20.6h-2.3v-8.7l-2.7,0.8v-1.8l4.7-1.7h0.2L63.4,20.6L63.4,20.6z"/>
	</g>
	<g class="st0">
		<path class="st1" d="M50.1,41.2h1.2c0.6,0,1-0.1,1.3-0.4s0.4-0.7,0.4-1.1c0-0.5-0.1-0.8-0.4-1.1s-0.6-0.4-1.1-0.4
			c-0.4,0-0.8,0.1-1.1,0.4c-0.3,0.2-0.4,0.5-0.4,0.9h-2.3c0-0.6,0.2-1.1,0.5-1.6s0.8-0.8,1.3-1.1c0.6-0.3,1.2-0.4,1.9-0.4
			c1.2,0,2.1,0.3,2.8,0.9s1,1.4,1,2.4c0,0.5-0.2,1-0.5,1.4s-0.7,0.8-1.2,1c0.6,0.2,1.1,0.6,1.4,1c0.3,0.5,0.5,1,0.5,1.6
			c0,1-0.4,1.8-1.1,2.4c-0.7,0.6-1.7,0.9-2.9,0.9c-1.1,0-2.1-0.3-2.8-0.9s-1.1-1.4-1.1-2.4h2.3c0,0.4,0.2,0.8,0.5,1s0.7,0.4,1.2,0.4
			s1-0.1,1.3-0.4s0.5-0.7,0.5-1.1c0-1.1-0.6-1.7-1.9-1.7h-1.2v-1.7H50.1z"/>
		<path class="st1" d="M64.6,43.2c0,1.6-0.3,2.8-1,3.6C62.9,47.6,62,48,60.7,48c-1.2,0-2.2-0.4-2.8-1.2s-1-2-1-3.5v-2.1
			c0-1.6,0.3-2.8,1-3.6c0.7-0.8,1.6-1.2,2.8-1.2s2.2,0.4,2.8,1.2c0.6,0.8,1,2,1,3.5v2.1H64.6z M62.4,40.9c0-0.9-0.1-1.6-0.4-2.1
			c-0.3-0.4-0.7-0.6-1.2-0.6s-0.9,0.2-1.2,0.6s-0.4,1-0.4,1.9v2.8c0,0.9,0.1,1.6,0.4,2.1c0.3,0.5,0.7,0.7,1.2,0.7
			c0.6,0,1-0.2,1.2-0.6s0.4-1.1,0.4-2V40.9z"/>
	</g>
	<line class="st2" x1="40.5" y1="28.5" x2="73.2" y2="28.5"/>
</g>
</svg>
