<?xml version="1.0" encoding="utf-8"?>
<!-- Generator: Adobe Illustrator 25.2.3, SVG Export Plug-In . SVG Version: 6.00 Build 0)  -->
<!DOCTYPE svg PUBLIC "-//W3C//DTD SVG 1.1//EN" "http://www.w3.org/Graphics/SVG/1.1/DTD/svg11.dtd" [
	<!ENTITY ns_extend "http://ns.adobe.com/Extensibility/1.0/">
	<!ENTITY ns_ai "http://ns.adobe.com/AdobeIllustrator/10.0/">
	<!ENTITY ns_graphs "http://ns.adobe.com/Graphs/1.0/">
	<!ENTITY ns_vars "http://ns.adobe.com/Variables/1.0/">
	<!ENTITY ns_imrep "http://ns.adobe.com/ImageReplacement/1.0/">
	<!ENTITY ns_sfw "http://ns.adobe.com/SaveForWeb/1.0/">
	<!ENTITY ns_custom "http://ns.adobe.com/GenericCustomNamespace/1.0/">
	<!ENTITY ns_adobe_xpath "http://ns.adobe.com/XPath/1.0/">
]>
<svg version="1.1" id="Capa_1" xmlns:x="&ns_extend;" xmlns:i="&ns_ai;" xmlns:graph="&ns_graphs;"
	 xmlns="http://www.w3.org/2000/svg" xmlns:xlink="http://www.w3.org/1999/xlink" x="0px" y="0px" viewBox="0 0 290.5 290.5"
	 enable-background="new 0 0 290.5 290.5" xml:space="preserve">
<metadata><?xpacket begin="﻿" id="W5M0MpCehiHzreSzNTczkc9d"?>
<x:xmpmeta xmlns:x="adobe:ns:meta/" x:xmptk="Adobe XMP Core 6.0-c004 79.164570, 2020/11/18-15:51:46        ">
   <rdf:RDF xmlns:rdf="http://www.w3.org/1999/02/22-rdf-syntax-ns#">
      <rdf:Description rdf:about=""
            xmlns:xmp="http://ns.adobe.com/xap/1.0/"
            xmlns:xmpGImg="http://ns.adobe.com/xap/1.0/g/img/"
            xmlns:xmpTPg="http://ns.adobe.com/xap/1.0/t/pg/"
            xmlns:stDim="http://ns.adobe.com/xap/1.0/sType/Dimensions#"
            xmlns:xmpG="http://ns.adobe.com/xap/1.0/g/"
            xmlns:dc="http://purl.org/dc/elements/1.1/"
            xmlns:xmpMM="http://ns.adobe.com/xap/1.0/mm/"
            xmlns:stEvt="http://ns.adobe.com/xap/1.0/sType/ResourceEvent#">
         <xmp:CreatorTool>Adobe Illustrator 25.2 (Windows)</xmp:CreatorTool>
         <xmp:CreateDate>2021-07-19T16:52:28-05:00</xmp:CreateDate>
         <xmp:MetadataDate>2021-07-19T16:52:29-05:00</xmp:MetadataDate>
         <xmp:ModifyDate>2021-07-19T16:52:29-05:00</xmp:ModifyDate>
         <xmp:Thumbnails>
            <rdf:Alt>
               <rdf:li rdf:parseType="Resource">
                  <xmpGImg:width>256</xmpGImg:width>
                  <xmpGImg:height>256</xmpGImg:height>
                  <xmpGImg:format>JPEG</xmpGImg:format>
                  <xmpGImg:image>/9j/4AAQSkZJRgABAgEASABIAAD/7QAsUGhvdG9zaG9wIDMuMAA4QklNA+0AAAAAABAASAAAAAEA&#xA;AQBIAAAAAQAB/+4ADkFkb2JlAGTAAAAAAf/bAIQABgQEBAUEBgUFBgkGBQYJCwgGBggLDAoKCwoK&#xA;DBAMDAwMDAwQDA4PEA8ODBMTFBQTExwbGxscHx8fHx8fHx8fHwEHBwcNDA0YEBAYGhURFRofHx8f&#xA;Hx8fHx8fHx8fHx8fHx8fHx8fHx8fHx8fHx8fHx8fHx8fHx8fHx8fHx8fHx8f/8AAEQgBAAEAAwER&#xA;AAIRAQMRAf/EAaIAAAAHAQEBAQEAAAAAAAAAAAQFAwIGAQAHCAkKCwEAAgIDAQEBAQEAAAAAAAAA&#xA;AQACAwQFBgcICQoLEAACAQMDAgQCBgcDBAIGAnMBAgMRBAAFIRIxQVEGE2EicYEUMpGhBxWxQiPB&#xA;UtHhMxZi8CRygvElQzRTkqKyY3PCNUQnk6OzNhdUZHTD0uIIJoMJChgZhJRFRqS0VtNVKBry4/PE&#xA;1OT0ZXWFlaW1xdXl9WZ2hpamtsbW5vY3R1dnd4eXp7fH1+f3OEhYaHiImKi4yNjo+Ck5SVlpeYmZ&#xA;qbnJ2en5KjpKWmp6ipqqusra6voRAAICAQIDBQUEBQYECAMDbQEAAhEDBCESMUEFURNhIgZxgZEy&#xA;obHwFMHR4SNCFVJicvEzJDRDghaSUyWiY7LCB3PSNeJEgxdUkwgJChgZJjZFGidkdFU38qOzwygp&#xA;0+PzhJSktMTU5PRldYWVpbXF1eX1RlZmdoaWprbG1ub2R1dnd4eXp7fH1+f3OEhYaHiImKi4yNjo&#xA;+DlJWWl5iZmpucnZ6fkqOkpaanqKmqq6ytrq+v/aAAwDAQACEQMRAD8A9Ka/r8GkwJ8BnvJzxtrZ&#xA;ftM3Tt2zV9p9px0sRtxZJfTHvc3RaI5j3RHMpTF5d1zVh6+uX0kEb7rY254hQezdR+v55qodlarV&#xA;erU5DEH+CO3z/B97nS12HB6cMQT/ADpfj9SuPy+8ugAcZT7+of6ZePZfSd0vm1fy1n8vk7/lX/l3&#xA;+SX/AJGHH/Qvo+6XzX+Ws/ePk7/lX/l3+SX/AJGHH/Qvo+6XzX+Ws/ePk7/lX/l3+SX/AJGHH/Qv&#xA;o+6XzX+Ws/ePk7/lX/l3+SX/AJGHH/Qvo+6XzX+Ws/ePk7/lX/l3+SX/AJGHH/Qvo+6XzX+Ws/eP&#xA;k7/lX/l3+SX/AJGHH/Qvo+6XzX+Ws/ePk7/lX/l3+SX/AJGHH/Qvo+6XzX+Ws/ePk7/lX/l3+SX/&#xA;AJGHH/Qvo+6XzX+Ws/ePk7/lX/l3+SX/AJGHH/Qvo+6XzX+Ws/ePk7/lX/l3+SX/AJGHH/Qvo+6X&#xA;zX+Ws/ePk7/lX/l3+SX/AJGHH/Qvo+6XzX+Ws/ePk7/lX/l3+SX/AJGHH/Qvo+6XzX+Ws/ePk7/l&#xA;X/l3+SX/AJGHH/Qvo+6XzX+Ws/ePk7/lX/l3+SX/AJGHH/Qvo+6XzX+Ws/ePk7/lX/l3+SX/AJGH&#xA;H/Qvo+6XzX+Ws/ePk7/lX/l3+SX/AJGHH/Qvo+6XzX+Ws/ePk7/lX/l3+SX/AJGHH/Qvo+6XzX+W&#xA;s/ePk7/lX/l3+SX/AJGHH/Qvo+6XzX+Ws/ePk7/lX/l3+SX/AJGHH/Qvo+6XzX+Ws/ePk7/lX/l3&#xA;+SX/AJGHH/Qvo+6XzX+Ws/ePk7/lX/l3+SX/AJGHH/Qvo+6XzX+Ws/ePk7/lX/l3+SX/AJGHH/Qv&#xA;o+6XzX+Ws/ePk7/lX/l3+SX/AJGHH/Qvo+6XzX+Ws/ePk7/lX/l3+SX/AJGHH/Qvo+6XzX+Ws/eP&#xA;k7/lX/l3+SX/AJGHH/Qvo+6XzX+Ws/ePk7/lX/l3+SX/AJGHH/Qvo+6XzX+Ws/ePk4/l95dII4yj&#xA;39Q/0xPsvpO6XzX+Ws/l8lCXy7rmkD19DvpJ403axuDyDAdl6D9XzyifZWq0vq02QyA/glv8vwPe&#xA;2R12HP6c0QD/ADo/j9abaBr8GrQP8BgvIDxubZvtK3Tv2za9mdpx1UTtw5I/VHucLW6I4T3xPIpT&#xA;5diGra5fa5P8ccEht7FTuFC/tD6D+JzVdlQ/NarJqZbiJ4YfDr+O8udrpeBhjhjzI4pfj8cmT3E8&#xA;cEZdzt2HcnOrjEkukSqXVbpz8BEa9gBU/ecyBhASpfpC8/36fuH9Ml4ce5XfpC8/36fuH9MfDj3K&#xA;79IXn+/T9w/pj4ce5XfpC8/36fuH9MfDj3K79IXn+/T9w/pj4ce5XfpC8/36fuH9MfDj3K79IXn+&#xA;/T9w/pj4ce5XfpC8/wB+n7h/THw49yu/SF5/v0/cP6Y+HHuV36QvP9+n7h/THw49yu/SF5/v0/cP&#xA;6Y+HHuV36QvP9+n7h/THw49yu/SF5/v0/cP6Y+HHuV36QvP9+n7h/THw49yu/SF5/v0/cP6Y+HHu&#xA;V36QvP8Afp+4f0x8OPcrv0hef79P3D+mPhx7ld+kLz/fp+4f0x8OPcrv0hef79P3D+mPhx7ld+kL&#xA;z/fp+4f0x8OPcrv0hef79P3D+mPhx7ld+kLz/fp+4f0x8OPcrv0hef79P3D+mPhx7ld+kLz/AH6f&#xA;uH9MfDj3K79IXn+/T9w/pj4ce5XfpC8/36fuH9MfDj3KvTU7xTu4YeBA/hgOKKppaXkdyhI+Fx9p&#xA;cx5wMUMb8wxDSNcsdcgHCOeQW98o2DBujfcPwGcn2rD8rqsepjsJHhn8ev47g7rQy8fDLDLmBxR/&#xA;H45q/wCXwA8urQdZZK/eMv8AZcf4IP6xa+2v7/4BG6vITOqfsqtae5zq8I2dUEBlyuxV2KuxV2Ku&#xA;xV2KuxV2KuxV2KuxV2KuxV2KuxV2KuxV2KuxV2KuxV2KuxV2KuxV2KuxVEafIyXcdP2jxPyOQyC4&#xA;qo/mCAfLrVHSWOn3nOR9qB/gh/rB2vYv9/8AAu/L/wD5R1P+Msn68fZf/Ex/WK9tf359wRWq/wC9&#xA;Z/1RnWYfpdUEHlquxV2KuxV2KuxV2KuxV2KuxVK9X80aFpFRfXaJL1EK/HJ/wC1I+nMjDpcmT6Qm&#xA;mHal+bsYJXTbEt4S3DU/4RK/8SzZ4+xz/FL5MuFj13+ZfmycnhPHbA/sxRr+t+Z/HMyHZmEdL+Ke&#xA;EJfJ5y80yGranOO/wtx6/wCrTLhosI/hC00nnDzQhqNTuK+7k/rrhOjxfzQtI62/MfzbAd7sTKP2&#xA;ZI0P4gK345TLs3CelLwhPdP/ADduQQuoWCOO8kDFSP8AYvyr/wAFmJk7HH8MvmjhZfo/nfy5qpVI&#xA;LoRTt0gn/dvXwFfhP0E5rc2hy4+Y28mJCe5iIdirsVdirsVdirsVdirsVdiqtZ/71Rf6w/XkZ8iq&#xA;n+YH/KOv/wAZY/15yHtR/iZ/rB2vYv8Afj3F35f/APKOp/xlk/Xj7L/4mP6xXtr+/PuCK1X/AHrP&#xA;+qM6zD9Lqgg8tV2KuxV2KuxV2KuxV2KoHV9a03SLU3N/MIo+iL1Zz4KvUnLsOCWQ1EJAeX+YvzL1&#xA;bUC0On1sLQ7VU/vmHu4+z/sfvzfabsyEN5eo/YyEWHMxJLMak7sx/Wc2RIA8mQCi1wo+yOX4DNFq&#xA;faHBjNRuZ+z5/sc7HoJy3OzX1n/J/H+zMH/RR/tf+y/463/yZ/S+z9q5J1Yb/CRm00fbeHNEk+gx&#xA;Fm/0d7i5dFOBFb2tNyK7LUZr8vtNAH0wJHma/QXIj2aa3LYuR3WmHF7TQJ9UCPcb/UiXZsuhVFdW&#xA;FQa5vtNq8eeNwNuDkxSgakF2ZLWyTy/591zRysZk+t2Y628xJoP8h+q/q9swdRoMeTflLvCCHqfl&#xA;3zXpOuw8rSTjcKKy2r0Ei+9P2h7jNBqdJPEd+XewITjMVDsVdirsVdirsVdirsVVrP8A3qi/1h+v&#xA;Iz5FVP8AMD/lHX/4yx/rzkPaj/Ez/WDtexf78e4u/L//AJR1P+Msn68fZf8AxMf1ivbX9+fcEVqv&#xA;+9Z/1RnWYfpdUEHlquxV2KuxV2KuxV2KpB5t832Xl+1FaTX0oPoWwP8Aw7+C/rzM0mjlmPdHvSA8&#xA;b1bV9Q1W8e7vpTLK3QdFVeyqOwGdNhwxxx4YjZsQeWqhp5OTcR9kdfc5xnb/AGiZT8GJ9I+rzPd8&#xA;Pv8Ac7jQacAcZ59FLOadk7FXYq7FXYq2rFTUZkaXVTwTE4Hcfb5NeXEJxooxWDKCO+ek6bURzYxO&#xA;PKTzmTGYSMT0by9gq2t1cWs6XFtI0M8ZqkiGhByMoiQo7hXrPkrz7Dq6rY35WLUxsh6LNQdV8G8R&#xA;93tzut0Bx+qO8fuYEMxzWMXYq7FXYq7FXYq7FVaz/wB6ov8AWH68jPkVU/zA/wCUdf8A4yx/rzkP&#xA;aj/Ez/WDtexf78e4u/L/AP5R1P8AjLJ+vH2X/wATH9Yr21/fn3BFar/vWf8AVGdZh+l1QQeWq7FX&#xA;Yq7FXYq7FUm81eZbbQNNa5ko9xJVbWD+d/f/ACV75laTTHNOhy6pAeI39/d6heS3d3IZZ5Tydj+o&#xA;eAHYZ1WPGIREY8g2IfJqtduKlvDKNTmGLHKZ/hFs8cOKQHeg88wlIyJJ5l6YChQV7GyuL67itLZe&#xA;c0p4ov4kn2A3ORSzyx/LWwSNTfXMksuxZYqIg8RuGY/PbIcaouT8u/L7U4+slOvFxv8A8EpwcRVB&#xA;3n5aWLKTZ3ckb+EoV1/4UIRh41YXq+jX+k3X1e7ShIqjrujjxU5MG1QOKq9s2xX6RnX+zWpsSxHp&#xA;uP0/odT2lj3Evgr51Lq3Yq3HI8ciyRsUkQhkdTQgjcEEYCL2KvY/IfnBdbtDa3bAanbr8fb1U6eo&#xA;B4/zDOa1+j8I2PoP2MCGV5rmLsVdirsVdirsVVrP/eqL/WH68jPkVU/zA/5R1/8AjLH+vOQ9qP8A&#xA;Ez/WDtexf78e4u/L/wD5R1P+Msn68fZf/Ex/WK9tf359wRWq/wC9Z/1RnWYfpdUEHlquxV2KuxV2&#xA;KrJ54oIZJ5mCRRKXkc9AqipP3ZKMSTQ5q8K80+YZ9d1aS7aqwL8FtEf2Yx0+k9TnWaXTjFDh69Ww&#xA;BKMyUuxVRuW2C+O5+jOc9o9Vw4hjHOZ+wftdh2diufF3IfOKd0y/8tbbnqlzcFaiGHiCR0aRhT8F&#xA;ORmr0bK1dirsVYn+Y8CPo0ElP3kc6hW70ZWBH4DJRV5tlir4m4uD26HNj2VqvB1EZHlyPuP4tx9V&#xA;i48ZHVF56O867FXYqidN1G606+hvbVuE8DclPY+IPsRscry4xOJieRV7xourW+raZBf2+yTLUp1K&#xA;sNmU/I5yOfCcczE9Gso7KkOxV2KuxV2Kq1n/AL1Rf6w/XkZ8iqn+YH/KOv8A8ZY/15yHtR/iZ/rB&#xA;2vYv9+PcXfl//wAo6n/GWT9ePsv/AImP6xXtr+/PuCK1X/es/wCqM6zD9Lqgg8tV2KuxV2KuxVgf&#xA;5q66bewi0mFqS3f7yenURKdh/smH4Zt+ycHFIzPT72UQ8szoGbsVaYgAk9BvkMmQQiZHkBfyTGJJ&#xA;AHVBsxZix6nPNNZq5Z8hnL+wdz0mHEMceENZitqc+XfO2n+W/rEMlvcX19fGMWllapzkbhzqT4D4&#xA;vc+2SjiMvc4+bUDHtzJZLpX5raNcagmnavZ3Wg3slPSW/j9NGr0HI0p/sgB74y05AsbsIayJNSBi&#xA;fNm+Y7lpP5n82aJ5asfrmqz+mrEiGFByllYdQi7V9z0Hc5ZjxmZoNWXNHGLkwTW/Pza1ZR28uiX+&#xA;nW5kWaG7uoysbqlagHxoa7Vy04eHqC14tTxmuEhjoIIqNwehyDkuxVEwOWWh6jO67B15zYzCX1Q+&#xA;50euwcErHIqub5wXYq7FWdflXrxttRk0mVv3N5V4a9BKo3H+yUfgM1HauDijxjmPuYyD1XOfYOxV&#xA;2KuxV2Kq1n/vVF/rD9eRnyKqf5gf8o6//GWP9ech7Uf4mf6wdr2L/fj3F35f/wDKOp/xlk/Xj7L/&#xA;AOJj+sV7a/vz7gitV/3rP+qM6zD9Lqgg8tV2KuxV2KuxV4R5u1U6p5hvLoGsQcxweHpx/CtPnSv0&#xA;512jxeHiAbAk+ZKXYqslFY2+VfuzC7RgZaeYH80t2nNZI+9CZ5o9IrfU7n67a2ZjK3F5T6ujUHLk&#xA;aCvh9OKCXpvl3y1pugWj3tyIhf8Apn63fMaBY1JbiGanFF7+PfIGROyCADxFTvpvJvmuOPTL5DcL&#xA;KfVtUuIZ7f1OHxcoJJFj57dfTJ29smBOG4aZHHk2P49zI4oo4okijUJHGoVEHQKBQAZU5AFJVqcW&#xA;gyoNT1iCEjSpWaG4lXkYz9kFepq1RQDqaU3pkomXIdWvJGPOXRK9f1C01zTZtNgSeHUGX17W3uYJ&#xA;bdpREQXEfqqvMhT0G+HgI3WOUE11ef3sFnEqvbHitAr2jBvUiYChXcbrUbGtfHJWzAoKLxSIELCg&#xA;dQynqCD8sUr7YfET7Z0/szA+JOXSv0/sdZ2kfSB5ojOxdQ7FXYqrWd3NaXcN1CeMsDrIh91NRkZw&#xA;EokHkVfQdldxXlnBdxbxXEayJ8nFR+vONnAxkQejWrZBDsVdirsVVrP/AHqi/wBYfryM+RVT/MD/&#xA;AJR1/wDjLH+vOQ9qP8TP9YO17F/vx7i78v8A/lHU/wCMsn68fZf/ABMf1ivbX9+fcEVqv+9Z/wBU&#xA;Z1mH6XVBB5arsVdirsVS/wAw3xsdCv7sHi8UDmM/5ZFF/wCGIy/T4+PJGPmkPAM7BsdirsVdiqyx&#xA;iUanbI4qhlTY9COQ2zzntXQnT5SB9B3j+r4PQ6XP4kL69U28xiWHzHoV4q1SGYM5rTZJEY1PyOaw&#xA;cm+Y3D0fV9Mj1OxazlYrE8kTSUAPJI5VkZCD2cLxPschGVG1nDiFO1bS49Rt44mYxyQzRXEMoFWR&#xA;4XDgj/WAKn2JxjKkThxBG5FmldxpsN9K0MzMEguobsKOjNHR1Br25KD9GSEqYzhxUiNR02G+Nq0h&#xA;KvaTpcwutKhkqCN+zKxU+xxjKllC68mIfmrADplqIFSO4efkZQKOVRCKchvT4sMFkCxzUNKFnpNv&#xA;KXJeX0uUZ34sYzzoa9zkxuWXRBxJwSnc7nPReydF+XwgH6juf1fB57V5vEnY5BfmzcZ2KuxV2KvZ&#xA;vy1vjdeVYEY1a1d4CfYHmv3K4zmO04cOY+e7CTKc17F2KuxV2Kq1n/vVF/rD9eRnyKqf5gf8o6//&#xA;ABlj/XnIe1H+Jn+sHa9i/wB+PcXfl/8A8o6n/GWT9ePsv/iY/rFe2v78+4IrVf8Aes/6ozrMP0uq&#xA;CDy1XYq7FXYqxb8ypzF5SuVBp6zxJ/w4b/jXNh2ZG8w8rZR5vGc6dm7FXYq7FVknIASIeMkZ5ow6&#xA;gjfNZ2tpBmwSH8Udx8P1uTpcphMdxR+tata6hZwFKpOjfFGQehG5B6dRnnID0ReleX9QGoaPa3Va&#xA;uyAS/wCuvwt+IyshChqnmvRdMuPq9zMTOBVo0UsVr05U2GIiqHj89eXJBtcFX7I6MtfpI4/jh4Sq&#xA;rZeYNFeR5Xv7dXloBHzApxrSpanjiQqcqyuoZSGVhVWG4IPhkVef/mVdK+oWdpyoIoy7Hw9RqfqT&#xA;LIKkmq6nHfzxpCCLe3Hw12JY7Vp9G2dB7O6QZMxmeUPv6fpcDtDNwwodULndOkdirsVdirsVenfl&#xA;BPys9Sgr/dyRvT/XVh/xpmh7Yj6on3sJPQc0zF2KuxV2Kq1n/vVF/rD9eRnyKqf5gf8AKOv/AMZY&#xA;/wBech7Uf4mf6wdr2L/fj3F35f8A/KOp/wAZZP14+y/+Jj+sV7a/vz7gitV/3rP+qM6zD9Lqgg8t&#xA;V2KuxV2KsO/NX/lGE/5iY/8AiL5s+yf734MovIc6Rm7FXYq7FWmrxNNzTbIy5KEjg1RTRZl4n+Yd&#xA;M8qp6YTZ15H8zQabJJZXr8LSY80k3IR+hrTswyEg2JTDdaPda3Pcax9Yaznkd2e1KCReTVB4yAgi&#xA;naoyca6sMnFXpq/NnOneS/yjv41eLzRLET1S4aKBgfA+qi5cIQPV189RqI/wIbWfLf5SaVEX/Tt3&#xA;qMoB4W1m0Tlj2/eemY1FfE4yjAdWWPNqJfwge9f5AvIl0a7LycLaCd2RZHBMcZUNu1FH00HfMWfN&#xA;2AYJ5o1uO81W5vmJ9N24wr34KKLt8hXJgKTSX6RcST+s7CgqAo8BvtnYezP0T94dN2gbITHOode7&#xA;FXYq7FXYq9F/J8t62qqPslYCfmC9P1nNL2xyj8f0MZPSs0TB2KuxV2Kq1n/vVF/rD9eRnyKqf5gf&#xA;8o6//GWP9ech7Uf4mf6wdr2L/fj3F35f/wDKOp/xlk/Xj7L/AOJj+sV7a/vz7gitV/3rP+qM6zD9&#xA;Lqgg8tV2KuxV2KsU/M6H1PKcz0r6MsT/ACq3D/jbNj2XKsw8wWUebxvOmZuxV2KuxV2Ksd1WxaCY&#xA;yKP3MhqD4E9s4Ptns84chkB6JfYe79Tt9LmE40eYRWn3IliCk/vE2PuPHNIXYQNorAzdirsVcW4q&#xA;STRafF8sVSa5le7uAsYJH2Y1y3HjlOQjEWS4+SY5nkn1hai2tlj6sd3Puc9E7N0Q0+IQ68z73R58&#xA;vHK0Tme0uxV2KuxV2KvS/wAn4iINUm7O0KD5oHP/ABtmi7YO8R7/ANDCT0TNKxdirsVdiqtZ/wC9&#xA;UX+sP15GfIqp/mB/yjr/APGWP9ech7Uf4mf6wdr2L/fj3F35f/8AKOp/xlk/Xj7L/wCJj+sV7a/v&#xA;z7gitV/3rP8AqjOsw/S6oIPLVdirsVdiqU+bLI3vlvUbcCrNAzIPFo/jX8VzJ0k+HLE+aQ8Gzrmx&#xA;2KuxV2KuxVa6I6lHAZTsQchkxxnExkLBSCQbCVz6R6TGa2l9PjvR+gHzzl9b7PRAMscuEd0uXzdh&#xA;h1p5EfJNtO0W+vtMhvYeDepy+CtD8LFdq/LOSlsadxE2Lc2h6spobZvoof1HG00r2/lrVJSOaCFf&#xA;5nI/UKnBa0kd5YXMuoXFk0qqls5U0rVh2an9ubXs3sw6ompCNc+/5ftcLU6nw+iMs7C3tR8Aq56u&#xA;eudpoezcWmHpFy7zzdRlzynz5InNg0uxV2KuxV2KuxV7D+V1kbfywJiN7uZ5R8hSMf8AEM5rtSd5&#xA;a7gwky7NaxdirsVdiqtZ/wC9UX+sP15GfIqp/mB/yjr/APGWP9ech7Uf4mf6wdr2L/fj3F35f/8A&#xA;KOp/xlk/Xj7L/wCJj+sV7a/vz7gitV/3rP8AqjOsw/S6oIPLVdirsVdiriARQ7g9RirwDzBpjaXr&#xA;V5YkUWGQiOveM/Eh+lSM7HT5fExiXeGwJflyXYq7FXYq7FUn1y4cslqlfi+JgO9TQDOU9o9WQRiH&#xA;Lmf0Ox0OPnJ6poflm8tdKtLdgkbRxKJAT+2RVug/mJzjyXcx2CaJoP8APN9AX+pwWm1dNEs1+0Wb&#xA;5mn6hgtbeU/mBZS6R5ua5RSLe5RJI+4IChHWvzX9WZ/Z+rODIJjpz9ziajFxghaCGAI3B3Bz02Mg&#xA;RY5PPkU3hV2KuxV2KuxVdFHJLIkUalpHIVFHUkmgGAmhZV9BaRYJp+l2tivS3iWMkdyB8R+k75xu&#xA;bJxzMu8tZReVodirsVdiqtZ/71Rf6w/XkZ8iqn+YH/KOv/xlj/XnIe1H+Jn+sHa9i/349xb8gX+l&#xA;33l1LjTI5orUyyKEuCpfkDv9namb+HZEezx4MTY5/NwdVqJZZ8UuaJ1X/es/6ozNw/S0BB5arsVd&#xA;irsVdirzf82NDNbfWYl2oILmn0mNj+I+7N52Tn5wPvDOJecZu2TsVdiqtDZ3Eu6IeP8AMdh+OYmb&#xA;XYsfM7+TjZdXjhzO6e6X5JvL2JZnuYoom/lq7j2I2H45qNV7R4sZqMZSPyH4+DtNLpfGiJxkOEp9&#xA;pnkDQ7K+S/kD3V3HQxtKRwVh0ZUHf51zkdfrpanIZkU7jBgGMVzZNmC3uxV2KpdrmgaXrdp9W1CL&#xA;1EU8o3B4ujeKsMINIItjU/5cLHGq2N2SEUKqzjfYU3Zf+ac6rRe0ghCMJw2iALB7vI/rdbl7Oskg&#xA;sdvNFvbWZ4m4SMmxMbBhm/xdr4JgHcX3h0OfU48U+CR3HdugWRlPFgVPgds2MJxkLibDbGYkLBtr&#xA;JsnYq7FWXflpoZv9eF5ItbbT6SEnoZT/AHY+j7X0Zre08/Bj4Rzl93VjIvYc5pg7FXYq7FXYqrWf&#xA;+9UX+sP15GfIqs8/3+l2Pl17jU45pbUSxqUtyofkTt9rama+fZEe0B4MjQ5/Jv0uolinxR5pT+TX&#xA;/KExf8xE36xm57a/vz7g0y5p/qv+9Z/1RmHh+lAQeWq7FXYq7FXYqhtS0+21GwnsrleUM6FH8RXo&#xA;R7g7jLMWQwkJDmEvBtZ0m60nUp7C5FJIWoG7Mp+yw9iM67DlGSIkOrYECWA65XqdVDCLl8mnNnjj&#xA;FlTLk+2c7qe0cmXb6Y9wdNm1k5+QTWy1ZSBHcGhGwk7H55gOCYpzZ31xbN6ttLxr1purD3HQ5DJi&#xA;jMUQ36XWZcErxmvu+Sf2nmqMgLdRFW/nj3H3Hcfec12TQH+EvUaX2lgdssaPeOXy5/emcWsaZKKr&#xA;coP9c8D9zUzFlp8g5gu5xdqaafKcfjt99ImOSOReUbB1/mUgj8MqII5ubCcZC4mwsmu7SFuM0yRt&#xA;SvFmANPkTko45S5Alry6nFj2nKMfeQEBceZNNiHwM0zb7ICBX3LU/DMiGiyHns6vP2/pociZny/W&#xA;Ulv/ADBe3QKJ+4iPVUPxEe7f0zOxaOMdzuXm9b29mzDhj6I+XP5/qpJp7qCBayMB4L3PyGZbpAEj&#xA;vb57mQEDii/ZHf6csxZpQNxNN+KcoG4lRV/HN7pO1RL05Nj39HbafXiW09ivzcuyXwQSzzRwQoXl&#xA;lYJGg6lmNABglIAWeSvdPKmgR6Ho0VmKGc/vLmQftSN1+gdBnJavUHLMy6dGslOMxkOxV2KuxV2K&#xA;q1n/AL1Rf6w/XkZ8iqP8weX9O17Tjp+oBmt2ZXIRuJqvTfKdPqJYZcUeagquk6PpukWYs9OgFvbB&#xA;iwjUsRVup+Ik5HNmnklxSNlFoHVf96z/AKoy3D9KQg8tV2KuxV2KuxV2KsW8+eUxren/AFi2UfpO&#xA;1UmHt6i9TGT/AMR9/nmbo9YcN9QfvUyIBp4pIsiSMkilZFJVlYUII2IIOYeXLKcjKXN53JOUpEy5&#xA;rcrYOxVUiuJ4TWNyvsOn3YrSMj1q5XZ1V/fofwxY8KIXXI/2oiPkQf6Yo4WYeSNRS6t7pEqBGytQ&#xA;0rVwR2/1c1faA3Bex9mZHw5x7iD8/wCxj+u69btq118LNwcx1FKfB8O2/tmbpo8OMB5/tbJ4mpmf&#xA;Ovlslj64f2IvpJ/gBl7ruFDS6reSbBgg8FFPx64suEIQsWJLGpPUnFLWKuxVejdj9GbrszXEEY5c&#xA;un6nZ6LVUeCXweqflv5Oa1Rda1COlxIP9DiYbohH94f8ph09vnh7S1nF+7jy6u0kWf5p2LsVdirs&#xA;VdirsVVrP/eqL/WH68jPkVZBmEhpJEdeSMGXxU1H4YSKVJtV/wB6z/qjMnD9KQg8tV2KuxV2KuxV&#xA;2KuxVg3nv8v11TnqWlqE1ACs0PRZqdx2D/rxItwtVpePeP1fe8llilikaKVDHKhKujAhgRsQQemQ&#xA;IdQQQaKzFDsVdirsVZN5J1IWR1N2Oy2xmA8TGaAf8PmFrMfFw+93vYep8LxD/Qv5f2saZmZizGrE&#xA;1JPcnMx0ZNmy1hQ7FXYq7FXYq9H8h/l27vHqutRcYlo1tZON2PZ5Qf2fBe/fbrMCve7PS6T+KXye&#xA;n4uydirsVdirsVdirsVVrP8A3qi/1h+vIz5FUo/OKR08lyMjFW9eHdTQ9T4ZkdjC8/wKY81v5Nf8&#xA;oTF/zETfrGHtr+/PuCy5p/qv+9Z/1RmHh+lAQeWq7FXYq7FXYq7FXYq7FWOeavI+la+hlb/RtQAA&#xA;W7QVJA2pIu3Ifj74uPn00cnveSa/5U1rQ5eN7AfRJolzHVom+Tdjt0NDkTF1OXTyhz5JPgaHYq7F&#xA;URaR3UnqJAD8a8ZN6fDUGm/uuAi0iZiD5qDKVYqwoQaEe4woaxV2KuxVHaTouqatci30+3aeT9oj&#xA;ZVHizHZfpwgW2Y8UpmgHqvlL8uLDSGS8vyt5qC0ZBT91Ef8AJB+0w/mP0DJDZ22DSCG53LM8XLdi&#xA;rsVdirsVdirsVdiqtZ/71Rf6w/XkZ8iqB/NLStR1TynJaafA1zcGaJhEnWik1OW9lZY481yNCise&#xA;ap+WeiapovldLHU4fq90JpHMfJH+FiKGqFh+OR7Tzwy5uKBsUFkUw1X/AHrP+qMpw/SoQeWq7FXY&#xA;q7FXYq7FXYq7FXYqtliimjaKVFkiccXRwGUg9iD1xUhh2tflboF8zS2bNp0zb0jHOKp/4rJFP9iw&#xA;GOziZNFCXLZhmo/lb5ptSTAkV7HuawuFYAeKycN/lXBwuFPQzHLdjl3omsWe93YzwDs0kbqDTwJF&#xA;MHCXGlhmOYKhb3U1uxMZoSKEEVwNZCkzMzFmNWY1J9ziqJtNM1K8bjaWk1wfCKNn/wCIg4eEs445&#xA;HkCn2nflv5svSpa1FpG3+7LhglPmg5P/AMLh4XIhosh8mY6N+UmlW5WTVLh71xQ+in7qP3BIJdvv&#xA;GGg5mPQRH1bs3s7Kzsrdbe0hSCBfsxxqFHz274XNjEAUFbAl2KuxV2KuxV2KuxV2KuxVWs/96ov9&#xA;YfryM+RVkGYSHYqkuq/71n/VGZWH6UhB5arsVdirsVdirsVdirsVdirsVdirsVdiqyWGGZeMsayK&#xA;DUK4DCvjvhtaaitreEkwxJGT14KFr92JK0qYFdirsVdirsVdirsVdirsVdirsVdirsVVrP8A3qi/&#xA;1h+vIz5FVfzZ5lg8uaO2pzwtOiukfpoQDVzStTkNJpTnnwA0oFqXknzM/mTQ11N7cWzNI8fpK3Mf&#xA;AaVqQuS12l8DJwXakUqar/vWf9UZHD9KhB5arsVdirsVdirsVdirH/MPn7yf5dvYbLW9Tjsbm4T1&#xA;IkkV90LFeXJVKgVB6nCxMgOaNh8zaFPqNrp8F2s11e2xvbQRhnSS3UhTIsqgx0qw/argTYTPFLsV&#xA;Q9jqOn38LTWNzFdwq7RtJA6yKHQ0ZSVJFVPUYqCiMVQ/6R0/9Ifo76zF+kPS+sfU+a+t6PLh6vp1&#xA;5cOXw8qUritoTRvMWl6y96unSNMlhO1rPNwZYzMn21R2AD8TsSu2KAbTPFKBGt6YdbbRBMf0mluL&#xA;xoOD09Av6Yfnx4fa2pyr7Yovekdil2KpbB5h0qfXrrQY5CdSs4Y7ieLiwAjlNFPKnE4ovenaj5h0&#xA;rTtT03TbuQpd6u8kdigVmDNEnN6kCi0XxxUlMsUuxV2KuxV2KuxV2Kq1n/vVF/rD9eRnyKpN+cv/&#xA;AChMv/MRD+s5k9i/349xTHm78mv+UJi/5iJv1jHtr+/PuCy5p/qv+9Z/1RmHh+lAQeWq7FXYq7FX&#xA;Yq7FXYq8s883jaX+Z9pqU+j3urWEmhzWZgs7Z7kSSyTkiJqDiOQHfC1SNSYGnlvzxo/l+30+SC9S&#xA;ZPLN2fQgEjLHNNqBljiqlf3gjbp9odMLCiB8EV5y8t+a9KbSIbSXV5dJbS/ViuIjeXM0eqyNydm9&#xA;Bo29SlAnP4e1OpxWQITK0svMb+bVh8y/4guNUknsV0+4sfUjsmtfQUXXqfEIkRm/vR9ofPFlve9p&#xA;DpWj3+n21rZ3On61FoEGq6j/AIhhsVuxMx4j6g2x5MlTWq9f2t6YsQGQ+RNA84al5v8ALzeam1KE&#xA;WGhi6PKSWMPPBqbm3juj9l39EqzIdzQV74GUQSRaM89aLqMH5qXepaTbXY1C+8uTppd7F67RjUlL&#xA;IF5KTGh+rrsG+HkQ1OW+KyHq+DEdLsvzCGg3otW1oWa/URrNisd4k5Ac/W2t3ndmaUhf3gi2NR26&#xA;FiAaTm30K61bWNGtbdfMMHlxv0uY/rkk0UqxiJDCvND6giLg+msp5Hftimr76Sv0/wAz7jTYHsk1&#xA;Maj/AITSJ2AmWUyJq9HVS3+7/qw/1uPTFHq+xM7uC9ksbcadbeZf8ErqnPVIJxN9a9IQinoAH6z6&#xA;HP7dT1xT86ZPpEX5g/8AKl9SiRbyPXQLgaStwW+v/VfUqgck8/V9PkF7/ZpgZC+F57+ivMxGvz+V&#xA;rLWYIpLHTll+uJci6kRZB9aSBmpI3xGpCkbcqbUwsKO9J35R03zG/mDynPOt9cabBqt+1t9ZguV+&#xA;rwtaIKBrgySekW2QuetcUxBsPesi3uxV2KuxV2KuxV2Kq1n/AL1Rf6w/XkZ8iqN8x+XbDzBpradf&#xA;mQW7OrkxMFaq9NyGyrTamWGfFHmoNKujaJpei2QsdMh+r2oYuI+Tv8TdTVyx/HIZs88suKZsoJQe&#xA;q/71n/VGW4fpSEHlquxV2KuxV2KuxV2KuxV2KqF9f2Wn2ct7ezpbWkC85p5WCoqjuxPTFSVWKWOW&#xA;NJYmDxyAMjqagqRUEEdjiqH03VNO1O0W7065ju7VmZVnhYOhZGKsKjbYimKg2u1DULHTrKa+v50t&#xA;rO3XnNPKwVFUdyTipLWm6lY6nYw39hMtxZ3C84J0+yy+IxUG0TirsVdiqldXVvaW0t1cyLDbwI0k&#xA;0rmiqiCrMT4ADFVmn6hZ6jZQ31nIJrS4USQSgEBkPRhUA0PbFQWr7UtPsLea4vbmO3gt09WeSRgo&#xA;RB+01egxUlWhmimiSaF1kikUPHIpBVlYVBBHUEYqvxV2KuxV2KuxV2KuxVWs/wDeqL/WH68jPkVZ&#xA;BmEhpJEdeSMGXxU1H4YSKVJtV/3rP+qMycP0pCDy1XYq7FXYq7FXYqkfnm7vbTyhq9zY3H1S7itp&#xA;GhuhG8vptT7fBFdvh61CmnWmFEuTw+Dzr5wfyVdta6nfTwwapZxalqQnMqpayxM0r294IWkRWdRy&#xA;/dMYthvXC0cRpMfKeq+bvMev+XtNufM12LGaO+l+sWburTQ20q+mryPFBzNaqZAm4xTEkkboC61j&#xA;zxPp3mnTL/ULlofJ1hdW1zO7km7uLm6b6vJKOjgW/wBmuKLO/knGneZ9bfzdDbalr2oaddxz6fHo&#xA;ukQ2xmtru0khUzF0HDnyP2pOfwfqWQkb5sfs/NOvRaDpKXms32kaS0OqSwXtkprNqMdzIILd2VGq&#xA;KAfBtWuLHiNMy/MyXV9T/wCcfkv9YM1tqiw2M93EP3fqO00cZEyUGzc+fHajU8MA5s57w3Y75t83&#xA;a75c89Jplhq16sGkz6bbpBeTUjmt5FAk/cLFSQN+1Kzih2XthYykQW4b3zbPpGmakfM+ppJqvm2L&#xA;RjGko4w23qTKeAYNUnb7VRsBTFd+/qq6F5g822mpaTPLr+oX0a65qGim1lMcivbW0ZZGZAqtLNyP&#xA;2mbwApioJ70h0n8yPPxTVhpWoXV5czaXJcRW9xILueKeO7RJHVPRjSNlgLN6S8gBvjTETKba/wCY&#xA;9Qk8rXEWj+Yb/XvLcmo2sGp393EYZIYZIS80f1oxzVQuPiPo/u9l+KuLInbnss0/z95i0y3tLnV9&#xA;ZlfS7zR9St9IuoROUkuYnP1ct+5gJkRfhD+mK7HFAkRzSi8vbpHudTu9UuzqeoeT4LiJpZCwmkJC&#xA;yJuPiUKrPT+apxR+pldj5n1t/NsNtqXmC/028jn06PRNHhtjNb3lrJCrTF1HDnzP2pC/wb/Qs+I3&#xA;zd+XvmzzXd+bdGhudRv7zVL2W/XzZotxGRb2CR8vqpQcFEVduh+LpisJG3ueRbnYq7FXYq7FXYqr&#xA;Wf8AvVF/rD9eRnyKpV+b888Hk2SSCRon9eIc0YqaEnuMv7HiDno9xTHmp/k1/wAoTF/zETfrGS7a&#xA;/vz7gsuaf6r/AL1n/VGYeH6UBB5arsVdirsVdirsVdirqYq4CmwxV2Kup3xV1MVdirqd8VdirsVc&#xA;AB0FO/34q6gpSm3hirqYq6grWm42BxV1O+Kup3xV2KuxV2KuxV2KuxVWs/8AeqL/AFh+vIz5FUv/&#xA;ADV02/1HylJbWFvJc3BmiYRRKWagJqaDLeycsYZrkaFFMeap+WGj6lpHlWOz1GA29yJpGMbFSaMR&#xA;Q/CSMHamaGTNxRNigiRTLVf96z/qjKMP0qEHlquxV2KuxV2KuxV2KuxV2KuxV2KuxV2KuxV2KuxV&#xA;2KuxV2KuxV2KuxV2KuxV2KuxV2KuxVWs/wDeqL/WH68jPkVZBmEh2KpRq8ZE6v8AsstK+4zJwnZI&#xA;QGXK7FXYq7FXYq7FXYq7FXYq7FXYq7FXYq7FXYq7FXYq7FXYq7FXYq7FXYq7FXYq7FXYq7FURp8b&#xA;Pdx0/ZPI/IZDIaiqv5q8zWflzSjqV3G8sQkWMJHx5EvXpyIHbIaTSyzz4YqBaAt/OJHnO48t39uL&#xA;QmNZNNnLV9cUq3YUPgPY5dLRfuBlib/neS1syK4gjnjKONux7g5hRkQUJVLpV0h+ACRexBofuOZA&#xA;zApUv0fef76P3j+uS8SPerv0fef76P3j+uPiR71d+j7z/fR+8f1x8SPerv0fef76P3j+uPiR71d+&#xA;j7z/AH0fvH9cfEj3q79H3n++j94/rj4ke9Xfo+8/30fvH9cfEj3q79H3n++j94/rj4ke9Xfo+8/3&#xA;0fvH9cfEj3q79H3n++j94/rj4ke9Xfo+8/30fvH9cfEj3q79H3n++j94/rj4ke9Xfo+8/wB9H7x/&#xA;XHxI96u/R95/vo/eP64+JHvV36PvP99H7x/XHxI96u/R95/vo/eP64+JHvV36PvP99H7x/XHxI96&#xA;u/R95/vo/eP64+JHvV36PvP99H7x/XHxI96u/R95/vo/eP64+JHvV36PvP8AfR+8f1x8SPerv0fe&#xA;f76P3j+uPiR71d+j7z/fR+8f1x8SPerv0fef76P3j+uPiR71d+j7z/fR+8f1x8SPerv0fef76P3j&#xA;+uPiR71Xppl4x3UKPEkfwwHLFU0tLOO2QgfE5+02Y85mSGBedbgeY/Nuk+VLQ+pDaTC91Z13CKnR&#xA;D78SfpYZt9DHwMMs0uZHDH8fjkyGwtkfnDyfaeYrSP8AeG11K1POxvk+3G/WhpQ8ajMLR6w4T3xP&#xA;MIBpQ8nXXnRZZ9N8x2qH6qi+jqkbbT1NAKAbmm5O3yyWthgoSxHn/D3KaZRmAhiut/mZ5X0XVJtM&#xA;vnmF1b8fUCRll+NA4oa+DDNhg7MzZYCcao+aRFAf8rl8k/79uP8AkSf65d/IufuHzTwlm0EyTwRz&#xA;x/3cqq6V2NGFRmqlGjRYobWNWs9I02fUbwsLa3AaQqORoWC7D5nLMOGWSYjHmVDEv+Vy+Sf9+3H/&#xA;ACJP9c2P8i5+4fNlwlOfLXnnQfMc80GmPI0kCh5PUQoKE02rmLqtBkwAGfVBFMgzDQxbXfzI8saH&#xA;qUmnX7yrcxBWYJGWFHUMN/kc2Gn7My5YcUapIil//K5fJP8Av24/5En+uXfyLn7h808JZtBMk8Ec&#xA;8f8AdyqrpXY0YVGaqUaNFioarqdrpenT6hdki3tl5ylRyNPYZPFiOSQiOZViH/K5fJP+/bj/AJEn&#xA;+ubL+Rc/cPmy4SnHlvz55f8AMV1La6a8rSwx+q4kQoONQvU+5zG1OgyYQDOqKCKZDmEhjGv/AJi+&#xA;WtB1E6fqDyrcKquQkZYUbpvmfp+zcuaPFGqSIpb/AMrl8k/79uP+RJ/rl/8AIufuHzTwlmlpcxXd&#xA;rDdQ1MU8ayxkih4uAwqPkc1c4mJIPMMVPUtQt9OsLi/uSRb20bSylRU8VFTQYcWMzkIjmVYf/wAr&#xA;l8k/79uP+RJ/rmz/AJFz9w+bLhKbeW/P/l3zFfPZaa8rTxxGZhJGUHBWVTufdxmPqez8uGPFOquk&#xA;EUyPMFDGvMX5heXPL9+LDUXlW4MaygJGWHFiQN/9jmdpuzsuaPFGqSBaV/8AK5fJP+/bj/kSf65k&#xA;fyLn7h808JZlYXsF9Y297ASYLqJJoiRQ8JFDLUfI5rMkDCRieYNMVupahb6dYXF/cki3to2llKip&#xA;4qKmgxxYzOQiOZVh/wDyuXyT/v24/wCRJ/rmz/kXP3D5suEpp5d/MLy55gvzYac8rXAjaUh4yo4q&#xA;QDv/ALLMfU9nZcMeKVUgimS5goS/TvL+j6beXl5ZWyxXN+/qXUgqSzfSdhUk0HfLsmonOIjI2I8k&#xA;2//Z</xmpGImg:image>
               </rdf:li>
            </rdf:Alt>
         </xmp:Thumbnails>
         <xmpTPg:MaxPageSize rdf:parseType="Resource">
            <stDim:w>290.500000</stDim:w>
            <stDim:h>290.500000</stDim:h>
            <stDim:unit>Pixels</stDim:unit>
         </xmpTPg:MaxPageSize>
         <xmpTPg:NPages>1</xmpTPg:NPages>
         <xmpTPg:HasVisibleTransparency>False</xmpTPg:HasVisibleTransparency>
         <xmpTPg:HasVisibleOverprint>False</xmpTPg:HasVisibleOverprint>
         <xmpTPg:PlateNames>
            <rdf:Seq>
               <rdf:li>Cyan</rdf:li>
               <rdf:li>Magenta</rdf:li>
               <rdf:li>Yellow</rdf:li>
               <rdf:li>Black</rdf:li>
            </rdf:Seq>
         </xmpTPg:PlateNames>
         <xmpTPg:SwatchGroups>
            <rdf:Seq>
               <rdf:li rdf:parseType="Resource">
                  <xmpG:groupName>Grupo de muestras por defecto</xmpG:groupName>
                  <xmpG:groupType>0</xmpG:groupType>
               </rdf:li>
            </rdf:Seq>
         </xmpTPg:SwatchGroups>
         <dc:format>image/svg+xml</dc:format>
         <xmpMM:DerivedFrom rdf:parseType="Resource"/>
         <xmpMM:DocumentID>xmp.did:6bdcf0fb-1152-fb44-bcc7-6c1482c51e60</xmpMM:DocumentID>
         <xmpMM:InstanceID>xmp.iid:6bdcf0fb-1152-fb44-bcc7-6c1482c51e60</xmpMM:InstanceID>
         <xmpMM:OriginalDocumentID>xmp.did:6bdcf0fb-1152-fb44-bcc7-6c1482c51e60</xmpMM:OriginalDocumentID>
         <xmpMM:History>
            <rdf:Seq>
               <rdf:li rdf:parseType="Resource">
                  <stEvt:action>saved</stEvt:action>
                  <stEvt:instanceID>xmp.iid:6bdcf0fb-1152-fb44-bcc7-6c1482c51e60</stEvt:instanceID>
                  <stEvt:when>2021-07-19T16:52:29-05:00</stEvt:when>
                  <stEvt:softwareAgent>Adobe Illustrator 25.2 (Windows)</stEvt:softwareAgent>
                  <stEvt:changed>/</stEvt:changed>
               </rdf:li>
            </rdf:Seq>
         </xmpMM:History>
      </rdf:Description>
   </rdf:RDF>
</x:xmpmeta>
                                                                                                    
                                                                                                    
                                                                                                    
                                                                                                    
                                                                                                    
                                                                                                    
                                                                                                    
                                                                                                    
                                                                                                    
                                                                                                    
                                                                                                    
                                                                                                    
                                                                                                    
                                                                                                    
                                                                                                    
                                                                                                    
                                                                                                    
                                                                                                    
                                                                                                    
                                                                                                    
                           
<?xpacket end="w"?>
	</metadata>
<path id="Rectángulo_32106" fill="#E4DDFA" d="M27,11.3h238c8.3,0,15,6.7,15,15v238c0,8.3-6.7,15-15,15H27c-8.3,0-15-6.7-15-15
	v-238C12.1,18,18.8,11.3,27,11.3z"/>
<circle fill="#7E5EE3" cx="146" cy="114.3" r="85.5"/>
<g id="Grupo_70377" transform="translate(17.045 23.453)">
	<path id="Trazado_109532" fill="#833F3A" d="M112.7,109c0,0-14.1,8.9-6.4,22.4s60.7,9.8,33.4-22.4C117.2,82.4,112.7,109,112.7,109z
		"/>
</g>
<path fill="#FFAD9F" d="M143.7,188.2l63.3-14.9C195,153,167,151,161.2,147.8c-7.8-4.3-5.7-24.8-5.7-24.8l-11.7,0.8V123l-1.3,0.4
	l-1.3-0.4v0.8l-11.7-0.8c0,0,2.1,20.6-5.7,24.8c-5.4,2.9-29.8,4.9-42.9,21.3L143.7,188.2z"/>
<rect id="Rectángulo_32091" x="0" y="150.8" fill="#7E5EE3" width="2.7" height="14.5"/>
<rect id="Rectángulo_32092" x="0" y="181.3" fill="#7E5EE3" width="2.7" height="15.9"/>
<rect id="Rectángulo_32093" x="0" y="213.2" fill="#7E5EE3" width="2.7" height="15.9"/>
<path id="Trazado_109528" fill="#7E5EE3" d="M253,287.8v2.7h16l-0.1-2.7H253z"/>
<path id="Trazado_109529" fill="#7E5EE3" d="M287.8,269c0,4.9-1.9,9.7-5.4,13.2l1.9,1.9c4-4,6.2-9.4,6.1-15.1v-0.3h-2.7L287.8,269z"
	/>
<rect id="Rectángulo_32094" x="189.2" y="287.8" fill="#7E5EE3" width="15.9" height="2.7"/>
<rect id="Rectángulo_32095" x="287.8" y="150.8" fill="#7E5EE3" width="2.7" height="6.2"/>
<rect id="Rectángulo_32096" x="287.8" y="173" fill="#7E5EE3" width="2.7" height="16"/>
<rect id="Rectángulo_32097" x="287.8" y="236.8" fill="#7E5EE3" width="2.7" height="16"/>
<rect id="Rectángulo_32098" x="157.3" y="287.8" fill="#7E5EE3" width="15.9" height="2.7"/>
<rect id="Rectángulo_32099" x="287.8" y="204.9" fill="#7E5EE3" width="2.7" height="16"/>
<rect id="Rectángulo_32100" x="221.1" y="287.8" fill="#7E5EE3" width="15.9" height="2.7"/>
<rect id="Rectángulo_32101" x="0" y="245.1" fill="#7E5EE3" width="2.7" height="15.9"/>
<path id="Trazado_109530" fill="#7E5EE3" d="M4.2,276.3l-2.5,1c2.2,5.3,6.5,9.5,11.8,11.6l1-2.5C9.8,284.5,6.1,280.9,4.2,276.3z"/>
<rect id="Rectángulo_32102" x="29.7" y="287.8" fill="#7E5EE3" width="15.9" height="2.7"/>
<rect id="Rectángulo_32103" x="93.5" y="287.8" fill="#7E5EE3" width="15.9" height="2.7"/>
<rect id="Rectángulo_32104" x="125.4" y="287.8" fill="#7E5EE3" width="15.9" height="2.7"/>
<rect id="Rectángulo_32105" x="61.6" y="287.8" fill="#7E5EE3" width="15.9" height="2.7"/>
<path id="Trazado_109531" fill="#FF9D00" d="M2.7,148.1V21.5c0-10.4,8.4-18.8,18.8-18.8H269c10.4,0,18.8,8.4,18.8,18.8v126.6h2.7
	V21.5C290.5,9.6,280.9,0,269,0H21.5C9.6,0,0,9.6,0,21.5v126.6H2.7z"/>
<g enable-background="new    ">
	<path fill="#12263F" d="M85.6,226v-10h3.1c0.9,0,1.7,0.2,2.3,0.6c0.7,0.4,1.2,1,1.6,1.7c0.4,0.7,0.6,1.6,0.6,2.5v0.5
		c0,0.9-0.2,1.7-0.6,2.5s-0.9,1.3-1.6,1.7s-1.5,0.6-2.3,0.6H85.6z M87.6,217.7v6.6h1c0.8,0,1.4-0.3,1.8-0.8s0.6-1.3,0.6-2.2v-0.5
		c0-1-0.2-1.8-0.6-2.3c-0.4-0.5-1-0.8-1.8-0.8H87.6z"/>
	<path fill="#12263F" d="M94.6,216.7c0-0.3,0.1-0.5,0.3-0.7s0.5-0.3,0.8-0.3c0.3,0,0.6,0.1,0.8,0.3s0.3,0.4,0.3,0.7
		c0,0.3-0.1,0.5-0.3,0.7s-0.5,0.3-0.8,0.3s-0.6-0.1-0.8-0.3S94.6,217,94.6,216.7z M96.6,226h-2v-7.4h2V226z"/>
	<path fill="#12263F" d="M102.4,220.4c-0.3,0-0.5-0.1-0.7-0.1c-0.7,0-1.2,0.3-1.5,0.8v4.8h-2v-7.4h1.9l0.1,0.9c0.4-0.7,0.9-1,1.6-1
		c0.2,0,0.4,0,0.6,0.1L102.4,220.4z"/>
	<path fill="#12263F" d="M106.8,226.1c-1.1,0-2-0.3-2.6-1s-1-1.6-1-2.7v-0.2c0-0.7,0.1-1.4,0.4-2c0.3-0.6,0.7-1,1.2-1.4
		c0.5-0.3,1.1-0.5,1.8-0.5c1,0,1.8,0.3,2.4,1s0.9,1.5,0.9,2.7v0.8h-4.7c0.1,0.5,0.3,0.9,0.6,1.2s0.7,0.4,1.2,0.4
		c0.8,0,1.4-0.3,1.8-0.8l1,1.1c-0.3,0.4-0.7,0.7-1.2,1C108,226,107.4,226.1,106.8,226.1z M106.6,220c-0.4,0-0.7,0.1-1,0.4
		s-0.4,0.6-0.5,1.1h2.7v-0.2c0-0.4-0.1-0.8-0.4-1S107,220,106.6,220z"/>
	<path fill="#12263F" d="M114,224.5c0.4,0,0.7-0.1,0.9-0.3s0.3-0.5,0.4-0.8h1.9c0,0.5-0.1,1-0.4,1.4c-0.3,0.4-0.6,0.7-1.1,1
		c-0.5,0.2-1,0.3-1.5,0.3c-1.1,0-1.9-0.3-2.5-1c-0.6-0.7-0.9-1.6-0.9-2.8v-0.1c0-1.1,0.3-2,0.9-2.7s1.4-1,2.5-1
		c0.9,0,1.7,0.3,2.2,0.8c0.6,0.5,0.8,1.2,0.9,2.1h-1.9c0-0.4-0.1-0.7-0.4-0.9c-0.2-0.2-0.5-0.4-0.9-0.4c-0.5,0-0.8,0.2-1,0.5
		c-0.2,0.3-0.4,0.9-0.4,1.6v0.2c0,0.8,0.1,1.3,0.3,1.6S113.6,224.5,114,224.5z"/>
	<path fill="#12263F" d="M120.6,216.8v1.8h1.3v1.4h-1.3v3.7c0,0.3,0.1,0.5,0.2,0.6s0.3,0.2,0.6,0.2c0.2,0,0.4,0,0.6,0v1.5
		c-0.4,0.1-0.8,0.2-1.2,0.2c-1.4,0-2.1-0.7-2.1-2.1v-4h-1.1v-1.4h1.1v-1.8H120.6z"/>
	<path fill="#12263F" d="M122.5,222.2c0-0.7,0.1-1.4,0.4-2s0.7-1,1.2-1.3s1.1-0.5,1.8-0.5c1,0,1.8,0.3,2.4,0.9s1,1.4,1.1,2.5l0,0.5
		c0,1.1-0.3,2-1,2.7c-0.6,0.7-1.5,1-2.5,1s-1.9-0.3-2.6-1S122.5,223.5,122.5,222.2L122.5,222.2z M124.4,222.4c0,0.7,0.1,1.2,0.4,1.6
		s0.6,0.6,1.1,0.6c0.5,0,0.9-0.2,1.1-0.6c0.3-0.4,0.4-1,0.4-1.8c0-0.7-0.1-1.2-0.4-1.6s-0.6-0.6-1.1-0.6c-0.5,0-0.9,0.2-1.1,0.6
		C124.6,221,124.4,221.6,124.4,222.4z"/>
	<path fill="#12263F" d="M134.8,220.4c-0.3,0-0.5-0.1-0.7-0.1c-0.7,0-1.2,0.3-1.5,0.8v4.8h-2v-7.4h1.9l0.1,0.9c0.4-0.7,0.9-1,1.6-1
		c0.2,0,0.4,0,0.6,0.1L134.8,220.4z"/>
	<path fill="#12263F" d="M141.7,216.8v1.8h1.3v1.4h-1.3v3.7c0,0.3,0.1,0.5,0.2,0.6s0.3,0.2,0.6,0.2c0.2,0,0.4,0,0.6,0v1.5
		c-0.4,0.1-0.8,0.2-1.2,0.2c-1.4,0-2.1-0.7-2.1-2.1v-4h-1.1v-1.4h1.1v-1.8H141.7z"/>
	<path fill="#12263F" d="M147.4,226.1c-1.1,0-2-0.3-2.6-1s-1-1.6-1-2.7v-0.2c0-0.7,0.1-1.4,0.4-2c0.3-0.6,0.7-1,1.2-1.4
		c0.5-0.3,1.1-0.5,1.8-0.5c1,0,1.8,0.3,2.4,1s0.9,1.5,0.9,2.7v0.8h-4.7c0.1,0.5,0.3,0.9,0.6,1.2s0.7,0.4,1.2,0.4
		c0.8,0,1.4-0.3,1.8-0.8l1,1.1c-0.3,0.4-0.7,0.7-1.2,1C148.6,226,148,226.1,147.4,226.1z M147.2,220c-0.4,0-0.7,0.1-1,0.4
		c-0.2,0.3-0.4,0.6-0.5,1.1h2.7v-0.2c0-0.4-0.1-0.8-0.4-1C147.9,220.2,147.6,220,147.2,220z M147.4,215.5h2.2l-1.9,2.1H146
		L147.4,215.5z"/>
	<path fill="#12263F" d="M154.7,224.5c0.4,0,0.7-0.1,0.9-0.3c0.2-0.2,0.3-0.5,0.4-0.8h1.9c0,0.5-0.1,1-0.4,1.4
		c-0.3,0.4-0.6,0.7-1.1,1c-0.5,0.2-1,0.3-1.5,0.3c-1.1,0-1.9-0.3-2.5-1c-0.6-0.7-0.9-1.6-0.9-2.8v-0.1c0-1.1,0.3-2,0.9-2.7
		c0.6-0.7,1.4-1,2.5-1c0.9,0,1.7,0.3,2.2,0.8c0.6,0.5,0.8,1.2,0.9,2.1h-1.9c0-0.4-0.1-0.7-0.4-0.9c-0.2-0.2-0.5-0.4-0.9-0.4
		c-0.5,0-0.8,0.2-1,0.5c-0.2,0.3-0.4,0.9-0.4,1.6v0.2c0,0.8,0.1,1.3,0.3,1.6S154.2,224.5,154.7,224.5z"/>
	<path fill="#12263F" d="M160.7,218.6l0.1,0.9c0.5-0.7,1.2-1,2.1-1c0.8,0,1.4,0.2,1.8,0.7s0.6,1.1,0.6,2.1v4.8h-2v-4.7
		c0-0.4-0.1-0.7-0.3-0.9c-0.2-0.2-0.5-0.3-0.9-0.3c-0.6,0-1,0.2-1.3,0.7v5.2h-2v-7.4H160.7z"/>
	<path fill="#12263F" d="M166.7,216.7c0-0.3,0.1-0.5,0.3-0.7s0.5-0.3,0.8-0.3c0.3,0,0.6,0.1,0.8,0.3c0.2,0.2,0.3,0.4,0.3,0.7
		c0,0.3-0.1,0.5-0.3,0.7c-0.2,0.2-0.5,0.3-0.8,0.3c-0.3,0-0.6-0.1-0.8-0.3C166.8,217.2,166.7,217,166.7,216.7z M168.8,226h-2v-7.4h2
		V226z"/>
	<path fill="#12263F" d="M173.5,224.5c0.4,0,0.7-0.1,0.9-0.3c0.2-0.2,0.3-0.5,0.4-0.8h1.9c0,0.5-0.1,1-0.4,1.4
		c-0.3,0.4-0.6,0.7-1.1,1c-0.5,0.2-1,0.3-1.5,0.3c-1.1,0-1.9-0.3-2.5-1c-0.6-0.7-0.9-1.6-0.9-2.8v-0.1c0-1.1,0.3-2,0.9-2.7
		c0.6-0.7,1.4-1,2.5-1c0.9,0,1.7,0.3,2.2,0.8c0.6,0.5,0.8,1.2,0.9,2.1h-1.9c0-0.4-0.1-0.7-0.4-0.9c-0.2-0.2-0.5-0.4-0.9-0.4
		c-0.5,0-0.8,0.2-1,0.5c-0.2,0.3-0.4,0.9-0.4,1.6v0.2c0,0.8,0.1,1.3,0.3,1.6S173,224.5,173.5,224.5z"/>
	<path fill="#12263F" d="M177.4,222.2c0-0.7,0.1-1.4,0.4-2c0.3-0.6,0.7-1,1.2-1.3c0.5-0.3,1.1-0.5,1.8-0.5c1,0,1.8,0.3,2.4,0.9
		c0.6,0.6,1,1.4,1.1,2.5l0,0.5c0,1.1-0.3,2-1,2.7c-0.6,0.7-1.5,1-2.5,1s-1.9-0.3-2.6-1S177.4,223.5,177.4,222.2L177.4,222.2z
		 M179.4,222.4c0,0.7,0.1,1.2,0.4,1.6c0.3,0.4,0.6,0.6,1.1,0.6c0.5,0,0.9-0.2,1.1-0.6c0.3-0.4,0.4-1,0.4-1.8c0-0.7-0.1-1.2-0.4-1.6
		c-0.3-0.4-0.6-0.6-1.1-0.6c-0.5,0-0.9,0.2-1.1,0.6C179.5,221,179.4,221.6,179.4,222.4z"/>
	<path fill="#12263F" d="M188.8,222.2c0-1.2,0.3-2.1,0.8-2.8c0.5-0.7,1.2-1,2.1-1c0.7,0,1.3,0.3,1.8,0.8v-3.8h2V226h-1.8l-0.1-0.8
		c-0.5,0.6-1.1,0.9-1.9,0.9c-0.9,0-1.6-0.3-2.1-1C189.1,224.4,188.8,223.4,188.8,222.2z M190.8,222.4c0,0.7,0.1,1.2,0.4,1.6
		c0.2,0.4,0.6,0.6,1.1,0.6c0.6,0,1-0.3,1.3-0.8v-2.9c-0.2-0.5-0.7-0.8-1.3-0.8C191.3,220,190.8,220.8,190.8,222.4z"/>
	<path fill="#12263F" d="M200.4,226.1c-1.1,0-2-0.3-2.6-1c-0.7-0.7-1-1.6-1-2.7v-0.2c0-0.7,0.1-1.4,0.4-2c0.3-0.6,0.7-1,1.2-1.4
		c0.5-0.3,1.1-0.5,1.8-0.5c1,0,1.8,0.3,2.4,1s0.9,1.5,0.9,2.7v0.8h-4.7c0.1,0.5,0.3,0.9,0.6,1.2s0.7,0.4,1.2,0.4
		c0.8,0,1.4-0.3,1.8-0.8l1,1.1c-0.3,0.4-0.7,0.7-1.2,1C201.6,226,201,226.1,200.4,226.1z M200.2,220c-0.4,0-0.7,0.1-1,0.4
		c-0.2,0.3-0.4,0.6-0.5,1.1h2.7v-0.2c0-0.4-0.1-0.8-0.4-1C201,220.2,200.6,220,200.2,220z"/>
	<path fill="#12263F" d="M206.7,226h-2v-10.5h2V226z"/>
</g>
<g enable-background="new    ">
	<path fill="#12263F" d="M84.2,242.9c0-0.2-0.1-0.4-0.4-0.6c-0.2-0.1-0.6-0.3-1.2-0.4c-1.8-0.4-2.6-1.1-2.6-2.2
		c0-0.7,0.3-1.2,0.8-1.6c0.5-0.4,1.3-0.7,2.1-0.7c0.9,0,1.7,0.2,2.3,0.7s0.8,1,0.8,1.7h-2c0-0.3-0.1-0.5-0.3-0.7
		c-0.2-0.2-0.5-0.3-0.9-0.3c-0.3,0-0.6,0.1-0.8,0.2s-0.3,0.3-0.3,0.6c0,0.2,0.1,0.4,0.3,0.5c0.2,0.1,0.6,0.2,1,0.3
		c0.5,0.1,0.9,0.2,1.2,0.3c1,0.4,1.6,1,1.6,2c0,0.7-0.3,1.2-0.9,1.6c-0.6,0.4-1.3,0.6-2.2,0.6c-0.6,0-1.2-0.1-1.7-0.3
		c-0.5-0.2-0.9-0.5-1.1-0.9c-0.3-0.4-0.4-0.8-0.4-1.2h1.9c0,0.4,0.1,0.6,0.4,0.8s0.6,0.3,1,0.3c0.4,0,0.7-0.1,0.9-0.2
		C84.1,243.4,84.2,243.2,84.2,242.9z"/>
	<path fill="#12263F" d="M90.8,245.1c-1.1,0-2-0.3-2.6-1s-1-1.6-1-2.7v-0.2c0-0.7,0.1-1.4,0.4-2c0.3-0.6,0.7-1,1.2-1.4
		c0.5-0.3,1.1-0.5,1.8-0.5c1,0,1.8,0.3,2.4,1s0.9,1.5,0.9,2.7v0.8h-4.7c0.1,0.5,0.3,0.9,0.6,1.2s0.7,0.4,1.2,0.4
		c0.8,0,1.4-0.3,1.8-0.8l1,1.1c-0.3,0.4-0.7,0.7-1.2,1C92,245,91.4,245.1,90.8,245.1z M90.6,239c-0.4,0-0.7,0.1-1,0.4
		s-0.4,0.6-0.5,1.1h2.7v-0.2c0-0.4-0.1-0.8-0.4-1S91,239,90.6,239z"/>
	<path fill="#12263F" d="M99.1,239.4c-0.3,0-0.5-0.1-0.7-0.1c-0.7,0-1.2,0.3-1.5,0.8v4.8h-2v-7.4h1.9l0.1,0.9c0.4-0.7,0.9-1,1.6-1
		c0.2,0,0.4,0,0.6,0.1L99.1,239.4z"/>
	<path fill="#12263F" d="M103,242.6l1.4-5h2.1l-2.5,7.4H102l-2.5-7.4h2.1L103,242.6z"/>
	<path fill="#12263F" d="M107.3,235.7c0-0.3,0.1-0.5,0.3-0.7s0.5-0.3,0.8-0.3c0.3,0,0.6,0.1,0.8,0.3s0.3,0.4,0.3,0.7
		c0,0.3-0.1,0.5-0.3,0.7s-0.5,0.3-0.8,0.3s-0.6-0.1-0.8-0.3S107.3,236,107.3,235.7z M109.4,245h-2v-7.4h2V245z"/>
	<path fill="#12263F" d="M114.1,243.5c0.4,0,0.7-0.1,0.9-0.3s0.3-0.5,0.4-0.8h1.9c0,0.5-0.1,1-0.4,1.4c-0.3,0.4-0.6,0.7-1.1,1
		c-0.5,0.2-1,0.3-1.5,0.3c-1.1,0-1.9-0.3-2.5-1c-0.6-0.7-0.9-1.6-0.9-2.8v-0.1c0-1.1,0.3-2,0.9-2.7s1.4-1,2.5-1
		c0.9,0,1.7,0.3,2.2,0.8c0.6,0.5,0.8,1.2,0.9,2.1h-1.9c0-0.4-0.1-0.7-0.4-0.9c-0.2-0.2-0.5-0.4-0.9-0.4c-0.5,0-0.8,0.2-1,0.5
		c-0.2,0.3-0.4,0.9-0.4,1.6v0.2c0,0.8,0.1,1.3,0.3,1.6S113.6,243.5,114.1,243.5z"/>
	<path fill="#12263F" d="M118.3,235.7c0-0.3,0.1-0.5,0.3-0.7s0.5-0.3,0.8-0.3c0.3,0,0.6,0.1,0.8,0.3s0.3,0.4,0.3,0.7
		c0,0.3-0.1,0.5-0.3,0.7s-0.5,0.3-0.8,0.3s-0.6-0.1-0.8-0.3S118.3,236,118.3,235.7z M120.4,245h-2v-7.4h2V245z"/>
	<path fill="#12263F" d="M121.7,241.2c0-0.7,0.1-1.4,0.4-2s0.7-1,1.2-1.3s1.1-0.5,1.8-0.5c1,0,1.8,0.3,2.4,0.9s1,1.4,1.1,2.5l0,0.5
		c0,1.1-0.3,2-1,2.7c-0.6,0.7-1.5,1-2.5,1s-1.9-0.3-2.6-1S121.7,242.5,121.7,241.2L121.7,241.2z M123.7,241.4c0,0.7,0.1,1.2,0.4,1.6
		s0.6,0.6,1.1,0.6c0.5,0,0.9-0.2,1.1-0.6c0.3-0.4,0.4-1,0.4-1.8c0-0.7-0.1-1.2-0.4-1.6s-0.6-0.6-1.1-0.6c-0.5,0-0.9,0.2-1.1,0.6
		C123.8,240,123.7,240.6,123.7,241.4z"/>
	<path fill="#12263F" d="M134,245V239h-1.1v-1.4h1.1V237c0-0.8,0.2-1.5,0.7-1.9c0.5-0.5,1.1-0.7,2-0.7c0.3,0,0.6,0,1,0.1l0,1.5
		c-0.2,0-0.4-0.1-0.6-0.1c-0.7,0-1.1,0.3-1.1,1v0.6h1.5v1.4h-1.5v5.9H134z"/>
	<path fill="#12263F" d="M142.7,245c-0.1-0.2-0.2-0.4-0.2-0.7c-0.5,0.5-1.1,0.8-1.9,0.8c-0.7,0-1.3-0.2-1.8-0.6s-0.7-0.9-0.7-1.6
		c0-0.8,0.3-1.4,0.9-1.8s1.4-0.6,2.5-0.6h0.9V240c0-0.3-0.1-0.6-0.3-0.8s-0.5-0.3-0.8-0.3c-0.3,0-0.6,0.1-0.8,0.2s-0.3,0.4-0.3,0.7
		h-2c0-0.4,0.1-0.8,0.4-1.2s0.6-0.7,1.1-0.9c0.5-0.2,1-0.3,1.6-0.3c0.9,0,1.6,0.2,2.2,0.7c0.5,0.5,0.8,1.1,0.8,1.9v3.2
		c0,0.7,0.1,1.2,0.3,1.6v0.1H142.7z M141.1,243.6c0.3,0,0.6-0.1,0.8-0.2c0.2-0.1,0.4-0.3,0.5-0.5v-1.3h-0.7c-1,0-1.5,0.3-1.6,1
		l0,0.1c0,0.2,0.1,0.4,0.3,0.6S140.8,243.6,141.1,243.6z"/>
	<path fill="#12263F" d="M150.1,239.4c-0.3,0-0.5-0.1-0.7-0.1c-0.7,0-1.2,0.3-1.5,0.8v4.8h-2v-7.4h1.9l0.1,0.9c0.4-0.7,0.9-1,1.6-1
		c0.2,0,0.4,0,0.6,0.1L150.1,239.4z"/>
	<path fill="#12263F" d="M152.9,237.6l0.1,0.8c0.5-0.6,1.2-1,2.1-1c1,0,1.6,0.4,2,1.1c0.5-0.8,1.3-1.1,2.2-1.1
		c0.8,0,1.4,0.2,1.8,0.7c0.4,0.5,0.6,1.2,0.6,2.1v4.7h-2v-4.7c0-0.4-0.1-0.7-0.2-0.9c-0.2-0.2-0.5-0.3-0.9-0.3c-0.6,0-1,0.3-1.2,0.8
		l0,5.1h-2v-4.7c0-0.4-0.1-0.7-0.3-0.9c-0.2-0.2-0.5-0.3-0.9-0.3c-0.6,0-1,0.2-1.2,0.7v5.2h-2v-7.4H152.9z"/>
	<path fill="#12263F" d="M167.5,245c-0.1-0.2-0.2-0.4-0.2-0.7c-0.5,0.5-1.1,0.8-1.9,0.8c-0.7,0-1.3-0.2-1.8-0.6s-0.7-0.9-0.7-1.6
		c0-0.8,0.3-1.4,0.9-1.8s1.4-0.6,2.5-0.6h0.9V240c0-0.3-0.1-0.6-0.3-0.8s-0.5-0.3-0.8-0.3c-0.3,0-0.6,0.1-0.8,0.2s-0.3,0.4-0.3,0.7
		h-2c0-0.4,0.1-0.8,0.4-1.2c0.3-0.4,0.6-0.7,1.1-0.9c0.5-0.2,1-0.3,1.6-0.3c0.9,0,1.6,0.2,2.2,0.7c0.5,0.5,0.8,1.1,0.8,1.9v3.2
		c0,0.7,0.1,1.2,0.3,1.6v0.1H167.5z M165.8,243.6c0.3,0,0.6-0.1,0.8-0.2c0.2-0.1,0.4-0.3,0.5-0.5v-1.3h-0.7c-1,0-1.5,0.3-1.6,1
		l0,0.1c0,0.2,0.1,0.4,0.3,0.6C165.3,243.5,165.5,243.6,165.8,243.6z"/>
	<path fill="#12263F" d="M173.8,243.5c0.4,0,0.7-0.1,0.9-0.3c0.2-0.2,0.3-0.5,0.4-0.8h1.9c0,0.5-0.1,1-0.4,1.4
		c-0.3,0.4-0.6,0.7-1.1,1c-0.5,0.2-1,0.3-1.5,0.3c-1.1,0-1.9-0.3-2.5-1c-0.6-0.7-0.9-1.6-0.9-2.8v-0.1c0-1.1,0.3-2,0.9-2.7
		c0.6-0.7,1.4-1,2.5-1c0.9,0,1.7,0.3,2.2,0.8c0.6,0.5,0.8,1.2,0.9,2.1H175c0-0.4-0.1-0.7-0.4-0.9c-0.2-0.2-0.5-0.4-0.9-0.4
		c-0.5,0-0.8,0.2-1,0.5c-0.2,0.3-0.4,0.9-0.4,1.6v0.2c0,0.8,0.1,1.3,0.3,1.6S173.3,243.5,173.8,243.5z"/>
	<path fill="#12263F" d="M181.4,245.1c-1.1,0-2-0.3-2.6-1s-1-1.6-1-2.7v-0.2c0-0.7,0.1-1.4,0.4-2c0.3-0.6,0.7-1,1.2-1.4
		c0.5-0.3,1.1-0.5,1.8-0.5c1,0,1.8,0.3,2.4,1s0.9,1.5,0.9,2.7v0.8h-4.7c0.1,0.5,0.3,0.9,0.6,1.2s0.7,0.4,1.2,0.4
		c0.8,0,1.4-0.3,1.8-0.8l1,1.1c-0.3,0.4-0.7,0.7-1.2,1C182.6,245,182,245.1,181.4,245.1z M181.2,239c-0.4,0-0.7,0.1-1,0.4
		s-0.4,0.6-0.5,1.1h2.7v-0.2c0-0.4-0.1-0.8-0.4-1C181.9,239.2,181.6,239,181.2,239z M181.3,234.5h2.2l-1.9,2.1H180L181.3,234.5z"/>
	<path fill="#12263F" d="M190,244.2c-0.5,0.6-1.2,0.9-2,0.9c-0.8,0-1.4-0.2-1.8-0.7s-0.6-1.1-0.6-2v-4.8h2v4.8
		c0,0.8,0.4,1.2,1.1,1.2c0.7,0,1.1-0.2,1.4-0.7v-5.2h2v7.4H190L190,244.2z"/>
	<path fill="#12263F" d="M195.7,235.8v1.8h1.3v1.4h-1.3v3.7c0,0.3,0.1,0.5,0.2,0.6c0.1,0.1,0.3,0.2,0.6,0.2c0.2,0,0.4,0,0.6,0v1.5
		c-0.4,0.1-0.8,0.2-1.2,0.2c-1.4,0-2.1-0.7-2.1-2.1v-4h-1.1v-1.4h1.1v-1.8H195.7z"/>
	<path fill="#12263F" d="M198.1,235.7c0-0.3,0.1-0.5,0.3-0.7s0.5-0.3,0.8-0.3c0.3,0,0.6,0.1,0.8,0.3c0.2,0.2,0.3,0.4,0.3,0.7
		c0,0.3-0.1,0.5-0.3,0.7s-0.5,0.3-0.8,0.3c-0.3,0-0.6-0.1-0.8-0.3S198.1,236,198.1,235.7z M200.2,245h-2v-7.4h2V245z"/>
	<path fill="#12263F" d="M204.9,243.5c0.4,0,0.7-0.1,0.9-0.3c0.2-0.2,0.3-0.5,0.4-0.8h1.9c0,0.5-0.1,1-0.4,1.4
		c-0.3,0.4-0.6,0.7-1.1,1c-0.5,0.2-1,0.3-1.5,0.3c-1.1,0-1.9-0.3-2.5-1c-0.6-0.7-0.9-1.6-0.9-2.8v-0.1c0-1.1,0.3-2,0.9-2.7
		c0.6-0.7,1.4-1,2.5-1c0.9,0,1.7,0.3,2.2,0.8c0.6,0.5,0.8,1.2,0.9,2.1h-1.9c0-0.4-0.1-0.7-0.4-0.9c-0.2-0.2-0.5-0.4-0.9-0.4
		c-0.5,0-0.8,0.2-1,0.5c-0.2,0.3-0.4,0.9-0.4,1.6v0.2c0,0.8,0.1,1.3,0.3,1.6S204.4,243.5,204.9,243.5z"/>
	<path fill="#12263F" d="M208.8,241.2c0-0.7,0.1-1.4,0.4-2c0.3-0.6,0.7-1,1.2-1.3s1.1-0.5,1.8-0.5c1,0,1.8,0.3,2.4,0.9
		s1,1.4,1.1,2.5l0,0.5c0,1.1-0.3,2-0.9,2.7c-0.6,0.7-1.5,1-2.6,1s-1.9-0.3-2.6-1S208.8,242.5,208.8,241.2L208.8,241.2z M210.8,241.4
		c0,0.7,0.1,1.2,0.4,1.6c0.3,0.4,0.6,0.6,1.1,0.6c0.5,0,0.9-0.2,1.1-0.6c0.3-0.4,0.4-1,0.4-1.8c0-0.7-0.1-1.2-0.4-1.6
		c-0.3-0.4-0.6-0.6-1.1-0.6c-0.5,0-0.9,0.2-1.1,0.6C210.9,240,210.8,240.6,210.8,241.4z"/>
</g>
<g id="Grupo_70378">
	<path id="Trazado_109533" fill="#833F3A" d="M181.4,98.1c0,0-6.1,7.4-4.9,14.7c1.8,10.6-14.4,24.5-31,19.9s1.2-35.6,1.2-35.6
		L181.4,98.1z"/>
	<path id="Trazado_109534" fill="#833F3A" d="M104,98.1c0,0,6.1,7.4,4.9,14.7c-1.8,10.6,14.4,24.5,31,19.9s-1.2-35.6-1.2-35.6
		L104,98.1z"/>
	<path id="Trazado_109535" fill="#A75451" d="M146.1,121.3c7.6,0.2,15.2-1.4,22.1-4.8c3.3-1.7,6.1-4.2,8.3-7.3c0.7-6,5-11.1,5-11.1
		l-34.7-0.9c0,0-7.5,13.1-8.2,23.6C141,121.1,143.6,121.2,146.1,121.3z"/>
	<path id="Trazado_109536" fill="#A75451" d="M109,111.5c11.4,6.1,24.1,9.4,37.1,9.7c0.3,0,0.5,0,0.8,0c-0.5-10.5-8.3-24.1-8.3-24.1
		L104,98.1C104,98.1,109.4,104.6,109,111.5z"/>
</g>
<path id="Trazado_109538" fill="#DF8981" d="M128,142.5c9.3-1.4,18.7-2.8,28-4.3c-0.8-5-0.9-10.1-0.5-15.2l-11.7,0.8V123l-1.3,0.4
	l-1.3-0.4v0.8l-11.7-0.8C129.7,123,130.9,134.9,128,142.5z"/>
<path fill="#468584" d="M146,199.8c24.5,0,46.6-10.3,62.1-26.8c-7.4-12.4-20.8-18.2-31.1-21.5c-6.8,6.2-16.9,10.5-28.4,11.6
	l-6.2,22.3l-3.3-22.1c-12.5-0.7-23.5-5.2-30.8-11.8c-9.1,2.9-20.6,7.7-28.2,17.4C95.9,187.8,119.6,199.8,146,199.8z"/>
<path id="Trazado_109540" fill="#5FA8A5" d="M140,168.9l-0.8-5.7c-12.5-0.7-23.5-5.2-30.8-11.8c-2.9,0.9-5.8,2-8.6,3.3
	C105.6,162.5,121.2,168.3,140,168.9z"/>
<path id="Trazado_109541" fill="#5FA8A5" d="M186.7,155.2c-3.1-1.4-6.3-2.7-9.6-3.7c-6.8,6.2-16.9,10.5-28.4,11.6l-1.6,5.8
	C165.4,168.3,180.7,162.7,186.7,155.2z"/>
<path id="Trazado_109542" fill="#5FA8A5" d="M141.1,190.8c0,1.4,1.2,2.6,2.6,2.6c1.4,0,2.6-1.2,2.6-2.6c0-1.4-1.2-2.6-2.6-2.6
	C142.2,188.2,141.1,189.4,141.1,190.8L141.1,190.8z"/>
<g id="Grupo_70386" transform="translate(7.624 11.778)">
	<g id="Grupo_70384">
		<path id="Trazado_109543" fill="#DF8981" d="M112.1,81.1c-2.3-7.1-7.7-5.5-8.3-5.3c-0.5,0.1-6.2,0.9-5.2,8.3
			c1,7.5,5.3,11.5,9.4,10.3C112.3,93.8,114.4,88.2,112.1,81.1z"/>
		<path id="Trazado_109544" fill="#DF8981" d="M158.1,81.1c2.3-7.1,7.7-5.5,8.3-5.3c0.5,0.1,6.2,0.9,5.2,8.3
			c-1,7.5-5.3,11.5-9.4,10.3C157.9,93.8,155.7,88.2,158.1,81.1z"/>
		<path id="Trazado_109545" fill="#FFAD9F" d="M106.6,70.3c2.9-31.3,26.6-29.5,28.9-29.3c2.2-0.2,26-2,28.9,29.3
			c2.9,31.5-11.1,52-28.9,50.9C117.7,122.3,103.7,101.7,106.6,70.3z"/>
	</g>
	<g id="Grupo_70385" transform="translate(6.972 25.469)">
		<path id="Trazado_109546" fill="#A75451" d="M98.6,50.7c0,0-1.5,41.1,22.7,45.7s39.3-15.6,37.1-47.9l-3.1-0.3c0,0-2,32.5-9.4,32.8
			s3.5-10.1-10.6-10.7S114.3,65,113.2,77c-0.8,8-10.6-5.7-11.8-26.8S98.6,50.7,98.6,50.7z"/>
		<path id="Trazado_109547" fill="#833F3A" d="M102.5,59.6c-0.6-3.1-1-6.3-1.2-9.4c-1.2-21.2-2.8,0.6-2.8,0.6
			c-0.1,3.5,0.1,7.1,0.5,10.6C100.2,60.8,101.4,60.2,102.5,59.6z"/>
		<path id="Trazado_109548" fill="#833F3A" d="M158.4,59.8c0.2-3.7,0.2-7.5,0-11.3l-3.1-0.3c0,0-0.3,4.5-1,10.1
			C155.7,58.8,157.1,59.3,158.4,59.8z"/>
	</g>
</g>
<g id="Grupo_70387" transform="translate(22.367 38.274)">
	<path id="Trazado_109549" fill="none" stroke="#DF8981" stroke-width="1.661" stroke-miterlimit="10" d="M124.8,47.4l1.9,17.5
		l-5.4,3.7"/>
	<path id="Trazado_109550" fill="none" stroke="#352835" stroke-width="2.701" stroke-miterlimit="10" d="M143.1,45.1
		c0,0-7.5-9.1-14.9-0.6"/>
	<path id="Trazado_109551" fill="none" stroke="#352835" stroke-width="2.701" stroke-miterlimit="10" d="M113.5,45.1
		c0,0-7.5-9.1-14.9-0.6"/>
	<path id="Trazado_109552" fill="none" stroke="#352835" stroke-width="1.195" stroke-miterlimit="10" d="M112.6,56.4
		c0,0-0.4-6-5.6-5.6c-4.3,0.4-3.9,5.6-3.9,5.6"/>
	<path id="Trazado_109553" fill="none" stroke="#352835" stroke-width="1.195" stroke-miterlimit="10" d="M139.2,56
		c0,0-0.4-6-5.6-5.6c-4.3,0.4-3.9,5.6-3.9,5.6"/>
	<path id="Trazado_109554" fill="#FFFFFF" d="M132.8,74.3c-5.7,5.5-15.3,5.2-22.5,0.3"/>
</g>
<g id="Grupo_70392">
	<g id="Grupo_70388">
		<path id="Trazado_109555" fill="#833F3A" d="M143.5,57.3c0,0-17.2-3.1-19.9,7.7s1.2,25.2-11.4,23c0,0-9.1,1.8-3.3,16.3
			c0,0-17.3-16.6-7.1-28.5c8.3-9.8,4.9-31,25.2-34.4S143.5,53.3,143.5,57.3z"/>
	</g>
	<g id="Grupo_70389">
		<path id="Trazado_109556" fill="#A75451" d="M143.5,57.3c0,0-17.2-3.1-19.9,7.7s1.2,25.2-11.4,23c0,0-9.1,1.8-3.3,16.3
			c0,0-17.3-16.6-7.1-28.5c8.3-9.8,4.9-31,25.2-34.4S143.5,53.3,143.5,57.3z"/>
	</g>
	<g id="Grupo_70390" transform="translate(43.078)">
		<path id="Trazado_109557" fill="#A75451" d="M98.8,57.3c0,0,17.2-3.1,19.9,7.7s-1.2,25.2,11.4,23c0,0,9.1,1.8,3.3,16.3
			c0,0,17.3-16.6,7.1-28.5c-8.3-9.8-4.9-31-25.2-34.4S98.8,53.3,98.8,57.3z"/>
	</g>
	<g id="Grupo_70391" transform="translate(43.101 15.143)">
		<path id="Trazado_109558" fill="none" stroke="#A75451" stroke-width="2.721" stroke-miterlimit="10" d="M98.6,40.9
			c0,0,17.9-0.7,19.7,10.3s-3.4,24.9,9.3,23.9c0,0,5.5,0.5,5.4,4.8"/>
	</g>
</g>
</svg>
