<svg xmlns="http://www.w3.org/2000/svg" width="60" height="60" viewBox="0 0 60 60"><g transform="translate(-310 -10881.383)"><circle cx="30" cy="30" r="30" transform="translate(310 10881.383)" fill="#ff9d00"/><g transform="translate(285.063 10888.383)"><circle cx="1.419" cy="1.419" r="1.419" transform="translate(53.598 36.998)" fill="#7e5ee3"/><g transform="translate(55.425 30.877)"><circle cx="1.351" cy="1.351" r="1.351" transform="translate(4.188 7.818)" fill="#e4ddfa"/><circle cx="1.351" cy="1.351" r="1.351" transform="translate(0)" fill="#e4ddfa"/></g><circle cx="1.702" cy="1.702" r="1.702" transform="translate(60.283 33.045)" fill="#7e5ee3"/><circle cx="1.824" cy="1.824" r="1.824" transform="translate(54.952 42.394)" fill="#cdedfc"/><path d="M131.735,68.972l-6.178,5.5,7.827,8.789,6.178-5.5a5.884,5.884,0,0,0,.481-8.308h0A5.884,5.884,0,0,0,131.735,68.972Z" transform="translate(-82.471 -61.414)" fill="#81d4fa"/><path d="M36.908,150.734l6.178-5.5,7.827,8.789-6.178,5.5a5.884,5.884,0,0,1-8.308-.481h0A5.884,5.884,0,0,1,36.908,150.734Z" transform="translate(0 -132.172)" fill="#00bcd4"/><path d="M57.777,69.461A5.872,5.872,0,0,0,53.122,67.5a5.869,5.869,0,0,0,.632,4.844L55.7,75.461a1.271,1.271,0,0,1-.261,1.649c-3.645,3.046-8.308,6.333-10.746,7.332-3.729,1.528-6.987-2.338-6.461-5.456l-1.054.939a5.885,5.885,0,1,0,7.761,8.847l12.356-11a5.884,5.884,0,0,0,.481-8.308Z" transform="translate(-0.206 -61.422)" opacity="0.1" style="isolation:isolate"/><path d="M249.633,9l4.381,7.017L264,9.786l-4.381-7.017A5.884,5.884,0,0,0,251.509.893h0A5.884,5.884,0,0,0,249.633,9Z" transform="translate(-194.577 0)" fill="#7e5ee3"/><path d="M311.775,122.078l-4.381-7.017,9.983-6.232,4.381,7.017a5.884,5.884,0,0,1-1.875,8.108h0A5.884,5.884,0,0,1,311.775,122.078Z" transform="translate(-247.957 -99.043)" fill="#e4ddfa"/><path d="M266.5,33.772a5.931,5.931,0,0,0,.741-.547c-7-1.028-16.115-17.727-15.7-23.489l-.031.018h0a5.884,5.884,0,0,0-1.875,8.108L258.395,31.9a5.884,5.884,0,0,0,8.108,1.875Z" transform="translate(-194.577 -8.861)" opacity="0.1" style="isolation:isolate"/><path d="M131.315,241.641l7.164,2.968a.518.518,0,0,0,.677-.28l4.107-9.916a.518.518,0,0,0-.28-.677l-7.164-2.968a5.884,5.884,0,0,0-7.688,3.185h0A5.884,5.884,0,0,0,131.315,241.641Z" transform="translate(-84.404 -209.608)" fill="#f3f9ff"/><path d="M139.157,260.6l1.012-2.442c-8.462-1.61-11.3-6.611-10.641-9.959a5.861,5.861,0,0,0-1.4,2.026h0a5.884,5.884,0,0,0,3.185,7.688l7.164,2.968A.518.518,0,0,0,139.157,260.6Z" transform="translate(-84.405 -225.882)" opacity="0.1" style="isolation:isolate"/><path d="M313.508,241.641l-7.164,2.968a.518.518,0,0,1-.677-.28l-4.107-9.916a.518.518,0,0,1,.28-.677L309,230.768a5.884,5.884,0,0,1,7.688,3.185h0A5.884,5.884,0,0,1,313.508,241.641Z" transform="translate(-242.611 -209.608)" fill="#f3f9ff"/></g></g></svg>