<svg xmlns="http://www.w3.org/2000/svg" width="167" height="167" viewBox="0 0 167 167"><g transform="translate(-391 -4940.37)"><rect width="167" height="167" transform="translate(391 4940.37)" fill="none"/><g transform="translate(401.344 4949.649)"><path d="M62.408,0A62.408,62.408,0,1,1,.254,68.078C.094,66.384,0,64.407,0,62.408A62.408,62.408,0,0,1,62.408,0Z" transform="translate(11.817 11.812)" fill="#00bcd4"/><path d="M232.28,149.386a68.313,68.313,0,0,1,67.946-68.311V75.166a74.221,74.221,0,0,0,0,148.44V217.7A68.313,68.313,0,0,1,232.28,149.386Z" transform="translate(-226.371 -75.166)" fill="#00bcd4"/><path d="M72.088,0A72.088,72.088,0,1,1,0,72.088,72.088,72.088,0,0,1,72.088,0Z" transform="translate(2.137 2.132)" fill="none" stroke="#00bcd4" stroke-width="1" stroke-dasharray="12"/></g><text transform="translate(456.5 4991.37)" fill="#fff" font-size="56" font-family="Roboto-Black, Roboto" font-weight="800"><tspan x="0" y="59">V</tspan></text></g></svg>